<?xml version="1.0" encoding="UTF-8"?>
<!DOCTYPE svg PUBLIC "-//W3C//DTD SVG 1.1//EN" "http://www.w3.org/Graphics/SVG/1.1/DTD/svg11.dtd">
<!-- Creator: CorelDRAW 2018 (64-Bit) -->
<svg xmlns="http://www.w3.org/2000/svg" xml:space="preserve" width="450mm" height="200mm" version="1.1" style="shape-rendering:geometricPrecision; text-rendering:geometricPrecision; image-rendering:optimizeQuality; fill-rule:evenodd; clip-rule:evenodd"
viewBox="0 0 45000 20000"
 xmlns:xlink="http://www.w3.org/1999/xlink">
 <defs>
  <style type="text/css">
   <![CDATA[
    .fil0 {fill:#38383A}
    .fil2 {fill:#ED4749}
    .fil1 {fill:white}
   ]]>
  </style>
 </defs>
 <g id="Слой_x0020_1">
  <metadata id="CorelCorpID_0Corel-Layer"/>
  <path class="fil0" d="M22673.94 15691.25l3197.6 9.25c103.14,-305.78 174.48,-766.47 197.02,-1111.05l-1945.53 -8.4 196.89 -1112.18 1810.94 -120.77c115.12,-333.81 183.05,-731.76 196.62,-1109.13l-1808.53 122.16 186.28 -1086.58 1901.62 1.48c157.96,-109.58 224.32,-876.29 232.27,-1102.35l-3212.93 0.29 -952.25 5517.28z"/>
  <path class="fil0" d="M19056.51 10241.96c40.55,896.63 467.03,2525.56 819.95,3348.61 143.16,333.84 105.64,285.35 39.21,661.94 -63.51,360.02 -236.69,1126.21 -235.46,1447.84 434.47,31.82 817.01,31.4 1251.44,0 123.67,-521.71 210.01,-1157.47 296.24,-1689.75 43.07,-265.78 157.79,-310.88 375.65,-620.97 483.59,-688.27 721.87,-1060.64 1168.78,-1814.15 172.6,-291.01 580.12,-1010.19 677.74,-1331.03 -322.87,-73.63 -907.07,-137 -1250.89,-114 -191.24,537.1 -1082.22,2188.48 -1385.78,2518.69 -217.88,-468.51 -425.17,-1940.55 -484.77,-2525.11 -419.36,0.51 -879.62,37.59 -1272.11,117.93z"/>
  <path class="fil0" d="M27601.09 10180.17c-32.49,61.29 -960.98,5283.12 -959.38,5520.34l2939.66 -0.24c92.33,-338.21 179.26,-748.97 190.32,-1118.8l-1571.81 -73.42 745 -4336.15c-410.02,-24.79 -948.82,-60.88 -1343.79,8.27z"/>
  <path class="fil0" d="M30981.51 10182.07l-967.97 5516.41 2952.4 1.78c98.98,-318.35 172.93,-756.95 194.69,-1110.31l-1576.15 -82.68 744.15 -4321.03c-264.19,-63.92 -1070.29,-58.27 -1347.12,-4.17z"/>
  <path class="fil0" d="M35138.36 15694.36c236.45,32.04 623.9,70.91 818.6,-16.67 134.68,-298.89 113.71,-1092.18 265.03,-1325.94 89.12,-46.9 274.31,-41.1 401.57,-47.32 59.13,480.7 229.75,1024.56 426.85,1395.92l923.88 9.42c-67.67,-320.87 -476.97,-1007.38 -505.13,-1592 365.72,-352.67 967.35,-905.75 517.74,-1668.9 -178.62,-303.18 -406.21,-437.95 -874.23,-435.78 -430.76,2 -861.74,-0.6 -1292.54,0.35 -96.59,30.77 -91.85,243.45 -122.8,421.38 -125.26,720.1 -529.48,2848.08 -558.97,3259.54z"/>
  <path class="fil0" d="M38429.93 14780.6c-0.58,857.13 495.08,944.42 1267.74,944.61 932.04,0.3 1335.67,-488.82 1485.37,-1316.34 68.71,-379.95 424.23,-2157.09 397.64,-2397.95 -255.96,-19.4 -588.66,-46.15 -824.54,6.59 -65.63,110.91 -140.65,662.98 -165.51,805.07l-285.89 1636.88c-56.28,301.76 -162.78,484.01 -474.51,518.81 -755.54,84.32 -511.7,-425.63 -368.85,-1263.43 77.63,-455.19 270.19,-1257.37 282.01,-1684.97 -127.73,-48.37 -323.96,-37.44 -476.71,-36.12 -498.61,4.29 -356.35,-97.27 -551.47,1008.38 -83.6,473.7 -284.94,1329.02 -285.28,1778.47z"/>
  <path class="fil1" d="M36333.57 13610.48c320.8,-31.74 608.14,28.06 800.47,-167.39 185.06,-188.03 287.62,-474.73 22.22,-663.45 -169.32,-70.49 -471.34,-28.87 -677.51,-28.87l-145.18 859.71z"/>
  <path class="fil2" d="M14340.55 14166.33c222.76,334.98 1976.97,2002.8 2584.3,1866.04 347.22,-695.27 -246.86,-1981.69 -423.24,-2707.38 -34.19,-140.75 208.85,-1093.02 251.8,-1348.09 83.06,-493.4 151.44,-973.28 215.05,-1473.99 175,-1377.14 613.21,-5142.19 -184.24,-6100.06 -526.38,-632.21 -1568.09,-762.88 -2427,-908.39 -2278.81,-386.01 -3726.09,-567.32 -6074.73,-663.85 -1040.33,-42.73 -2294.72,-161.26 -3323.19,-91.77 -1031.63,69.71 -1645.05,594.64 -1858.95,1495.66 -376.14,1584.54 1424.07,6552.62 1978.86,8023.57 692.45,1835.78 1240.87,3324.24 3638.5,3035.81 1270.79,-152.94 2942.38,-542.77 4230.85,-836.96 328.77,-75.09 1091.42,-289.7 1391.99,-290.59z"/>
  <path class="fil1" d="M9069.19 12548.99c209.46,50.98 2284.58,48.32 2533.16,6.2 0,-794.13 3.16,-1588.36 -1.55,-2382.44 -2.77,-472.84 120.03,-548.98 319.46,-918.97l1256.94 -2403.05c279.28,-513.79 612.43,-1092.53 841.23,-1616.8l-2214.54 1 -1448.61 3114.12c-136.54,-114.21 -274.69,-522.61 -385.9,-746.25l-1101.45 -2366.54 -2209.77 -0.05c92.1,276.01 1488.18,2838.15 1661.29,3175.95 223.92,436.99 752.96,1204.69 752.62,1712.94 -0.5,807.81 -2.88,1615.96 -2.88,2423.89z"/>
 </g>
</svg>
