<?xml version="1.0" encoding="UTF-8"?>
<!DOCTYPE svg PUBLIC "-//W3C//DTD SVG 1.1//EN" "http://www.w3.org/Graphics/SVG/1.1/DTD/svg11.dtd">
<!-- Creator: CorelDRAW 2018 (64-Bit) -->
<svg xmlns="http://www.w3.org/2000/svg" xml:space="preserve" width="450mm" height="200mm" version="1.1" style="shape-rendering:geometricPrecision; text-rendering:geometricPrecision; image-rendering:optimizeQuality; fill-rule:evenodd; clip-rule:evenodd"
viewBox="0 0 45000 20000"
 xmlns:xlink="http://www.w3.org/1999/xlink">
 <defs>
  <style type="text/css">
   <![CDATA[
    .fil3 {fill:#34A853}
    .fil0 {fill:#4184F3}
    .fil1 {fill:#EA4335}
    .fil2 {fill:#FABC05}
   ]]>
  </style>
 </defs>
 <g id="Слой_x0020_1">
  <metadata id="CorelCorpID_0Corel-Layer"/>
  <g id="_2655710560416">
   <path class="fil0" d="M1393.65 8639.57c0,775.24 223.99,1629.08 481.66,2164.17 596.36,1238.47 1404.7,2054.51 2622.64,2669.02 1576.56,795.46 3955.96,721.88 5372.32,-342.95 704.31,-529.51 1247.85,-1065.9 1603.06,-1960 277.74,-699.07 484.14,-1732.36 373,-2575.98 -17.01,-129.15 -43.49,-312.17 -45.74,-412.87l-4974.16 0 0 1481.66 3492.5 0c0,371.34 -192.01,934.1 -328.66,1188.3 -91.93,171.01 -177.29,300.26 -295.14,445.69 -158.02,195.02 -221,220.98 -390.02,386.08 -430.01,420.01 -1385.44,837.43 -2231.74,837.43 -1068.09,0 -1616.84,-139.57 -2463.06,-711.93 -1443.45,-976.31 -1998.83,-3041.16 -1266.64,-4746.38 110.68,-257.78 343.22,-677.35 528.35,-882.75 465.59,-516.55 651.34,-707.17 1319.61,-1044.01 1187.01,-598.33 2677.62,-477.92 3786.88,258.82 86.35,57.35 167.04,114.49 247.52,175.82 97.81,74.54 148.73,147.09 246.23,212.38 146.53,-39.13 994.63,-927.93 1058.33,-1023.06 -178.26,-266.21 -1101.06,-876.75 -1451,-1018.44 -974.33,-394.51 -1341.99,-463.22 -2429.55,-463.22 -755.88,0 -1604.4,265.19 -2128.89,516.94 -1834.61,880.6 -3127.5,2753.35 -3127.5,4845.28z"/>
   <path class="fil0" d="M28910.32 10579.85c0,-836.25 433.71,-1577.23 1093.14,-1905.48 768.85,-382.7 1569.81,-219.6 2108.99,361.4 1103.37,1188.95 449.4,3590.19 -1226.58,3590.19 -1200.28,0 -1975.55,-959.13 -1975.55,-2046.11zm1622.78 3421.94c496.32,0 867.65,-19.35 1306.33,-245.89 460.99,-238.06 509.6,-399.71 704.5,-530.22 0,820.99 10.17,1304.48 -337.29,1814.65 -585.04,858.98 -2141.89,1009.51 -2938.91,-55.4 -137.22,-183.34 -180.11,-287.52 -286.86,-489.25 -115.45,61.09 -1162.17,517.26 -1305.27,529.17 9.72,436.4 737.6,1191.89 1067.94,1436.78 1161.43,861 2960.09,868.41 4068.09,-4.91 306.8,-241.81 210.53,-168.94 446.03,-435.92 612.46,-694.34 767.94,-1832.63 767.94,-2759.84l0 -5961.95 -1481.67 0 0 564.45c-249.23,-166.89 -212.23,-268.9 -740.21,-529.79 -1179.66,-582.91 -2599.55,-76.97 -3449.73,784.85 -420.25,426 -738.21,1032.57 -883.69,1621.03 -430.5,1741.48 637.89,3663.88 2336.38,4141.99 225.55,63.49 457.46,120.25 726.42,120.25z"/>
   <path class="fil1" d="M13987.82 10720.96c0,-680.12 78.67,-1191.83 572.64,-1685.14 1243.78,-1242.12 3272.63,-310.32 3272.63,1402.92 0,654.06 -111.96,1153.74 -555.07,1596.86 -1343.06,1343.09 -3290.2,209.83 -3290.2,-1314.64zm-1552.23 -246.95c0,1418.66 671.06,2555.67 1904.84,3175.17 2111.15,1060.05 5044.89,-244.66 5044.89,-3175.17 0,-864.78 -406.86,-1831.51 -1013.37,-2408.58l-467.96 -378.7c-1654.7,-1170.38 -4305.87,-585.82 -5161.24,1401.1 -160.62,373.09 -307.16,870.32 -307.16,1386.18z"/>
   <path class="fil2" d="M23371.71 8463.18c2119.5,0 2639.68,3036.45 882.62,3951.79 -528.38,275.26 -1224.64,289.95 -1741.46,11.49 -665.81,-358.75 -1117.58,-1179.14 -1076.5,-1911.89 46.88,-836.29 429.84,-1518.49 1111.04,-1852.64 186.75,-91.61 564.33,-198.75 824.3,-198.75zm-3457.23 1940.28c0,1138.77 298.43,1907.39 978.93,2584.13 556.83,553.75 1397.13,1014.2 2266.63,1014.2 695.5,0 1128.28,-15.23 1775.92,-340.74 1186.67,-596.43 1928.25,-1754.12 1928.25,-3081.2 0,-489.46 -132.58,-1091.74 -293.54,-1435.08 -137.98,-294.33 -276.25,-546.68 -477.09,-792.91 -198.28,-243.1 -416.84,-446.08 -675.84,-629.43 -2284.84,-1617.42 -5503.26,30.95 -5503.26,2681.03z"/>
   <path class="fil1" d="M38541.15 10403.46c0,-825.36 353.24,-1456.52 1069.81,-1787.7 836.59,-386.65 1830.92,-18.6 1964.08,552.98 -111.98,53.73 -249.62,100.08 -378.05,151.11l-1867.7 778.14c-134.76,60.42 -675.58,296.1 -788.14,305.47zm1728.62 3598.33c839.61,0 1281.15,-72.35 1978.01,-491.43 275.6,-165.73 982.38,-745.31 1055.87,-1060.79 -387.51,-259.49 -776.65,-516.62 -1164.16,-776.11 -443.82,662.77 -959.52,952.5 -1834.45,952.5 -734.91,0 -1212.18,-447.09 -1516.94,-1023.06l1143.78 -479c393.58,-165.33 765.88,-322.19 1149.27,-473.5 190.8,-75.3 375.14,-151 574.36,-237.03l1718.7 -715.47c-26.89,-323.09 -458.08,-1082.35 -689.88,-1391.51 -884.67,-1179.9 -2498.67,-1552 -3826.47,-902.33 -358.37,175.35 -710.87,430.97 -962.34,730.98 -75.11,89.61 -103.9,103.41 -181.43,206.63 -71.83,95.65 -108.71,146.19 -175.47,247.86 -275.08,418.87 -493.7,1099.93 -514.68,1601.99 -7.42,177.65 -43.88,211.6 -36.59,387.09l92.3 721.91c50.42,253.91 115.05,428.94 201.25,645.41 217,544.94 640.09,1074.95 1098.67,1406.05 517.76,373.83 1184.87,649.81 1890.2,649.81z"/>
   <polygon class="fil3" points="34872.26,13790.12 36389.21,13790.12 36389.21,3665.4 34872.26,3665.4 "/>
  </g>
 </g>
</svg>
