<svg width="274" height="57" viewBox="0 0 274 57" fill="none" xmlns="http://www.w3.org/2000/svg">
<path d="M92.9812 18.1187C94.2061 18.1187 95.1483 19.0177 95.1483 20.1864V22.2543C95.1483 23.423 94.2061 24.3221 92.9812 24.3221H82.7113V47.5617C82.7113 48.6855 81.722 49.5838 80.5443 49.5838H76.2102C75.0325 49.5838 74.0432 48.6855 74.0432 47.5617V24.3221H63.7732C62.5484 24.3221 61.6062 23.423 61.6062 22.2543V20.1864C61.6062 19.0177 62.5484 18.1187 63.7732 18.1187H92.9812Z" fill="#231F20"/>
<path d="M120.117 37.5362C120.117 45.8075 115.124 50.033 106.22 50.033C97.3161 50.033 92.3233 45.8075 92.3233 37.5362C92.3233 29.2658 97.3161 25.0852 106.22 25.0852C115.124 25.0852 120.117 29.2658 120.117 37.5362ZM112.156 37.5362C112.156 32.2319 110.224 30.0749 106.22 30.0749C102.216 30.0749 100.284 32.2326 100.284 37.5362C100.284 42.8406 102.216 45.0433 106.22 45.0433C110.224 45.0433 112.156 42.8406 112.156 37.5362Z" fill="#231F20"/>
<path d="M151.305 37.5362C151.305 45.8075 146.311 50.033 138.962 50.033C136.135 50.033 134.251 49.4928 132.319 48.9092V55.6513C132.319 56.4162 131.708 56.9998 130.906 56.9998H125.771C124.97 56.9998 124.358 56.4162 124.358 55.6513V26.8833C124.358 26.1191 124.97 25.5347 125.771 25.5347H130.2C131.001 25.5347 131.614 26.1191 131.614 26.8833V27.5576C133.733 26.1191 136.324 25.0852 139.669 25.0852C146.358 25.0852 151.305 29.3107 151.305 37.5362ZM132.319 32.3675V43.8296C134.251 44.414 136.135 44.7286 137.313 44.7286C141.552 44.7286 143.107 42.5267 143.107 37.5362C143.107 32.5915 141.553 30.3888 137.784 30.3888C136.088 30.3896 133.968 31.3785 132.319 32.3675Z" fill="#231F20"/>
<path d="M171.043 18.1187C184.469 18.1187 190.121 23.1084 190.121 33.8512C190.121 44.5948 184.469 49.5838 171.043 49.5838H158.183C157.005 49.5838 156.016 48.6855 156.016 47.5617V20.2314C156.016 19.0626 156.957 18.1187 158.183 18.1187H171.043ZM164.683 24.3221V43.3811H170.807C179.239 43.3811 181.454 40.5941 181.454 33.8512C181.454 27.1091 179.24 24.3221 170.807 24.3221H164.683Z" fill="#231F20"/>
<path d="M201.051 39.8745C201.381 43.4707 203.077 45.0433 206.94 45.0433C208.918 45.0433 210.661 44.5039 211.462 43.5606C212.075 42.8414 212.922 42.3911 214.1 42.3911H217.538C218.34 42.3911 218.953 42.9755 218.953 43.7397C218.953 48.4147 213.912 50.033 206.374 50.033C197.989 50.033 192.948 45.7176 192.948 37.5812C192.948 29.4905 198.035 25.0852 206.374 25.0852C214.76 25.0852 219.8 29.3557 219.8 37.2665V38.5259C219.8 39.2901 219.188 39.8745 218.386 39.8745H201.051ZM201.005 35.2444H211.698C211.556 31.873 209.86 30.0749 206.375 30.0749C202.982 30.0749 201.193 31.873 201.005 35.2444Z" fill="#231F20"/>
<path d="M242.555 35.649C242.555 31.918 240.765 30.3896 238.174 30.3896C235.866 30.3896 233.699 31.918 232.003 33.5362V48.2349C232.003 48.9998 231.39 49.5835 230.589 49.5835H225.455C224.654 49.5835 224.041 48.9998 224.041 48.2349V26.8833C224.041 26.1191 224.654 25.5347 225.455 25.5347H230.589C231.39 25.5347 232.003 26.1191 232.003 26.8833V28.2768C234.17 26.5237 236.525 25.0852 240.059 25.0852C246.183 25.0852 250.516 28.1869 250.516 35.649V48.2349C250.516 48.9998 249.904 49.5835 249.103 49.5835H243.968C243.167 49.5835 242.555 48.9998 242.555 48.2349V35.649Z" fill="#231F20"/>
<path d="M266.062 50.0338C259.468 50.0338 256.169 46.8871 256.169 40.1443V19.4677C256.169 18.7035 256.782 18.1191 257.582 18.1191H262.717C263.518 18.1191 264.131 18.7035 264.131 19.4677V26.7942H270.538C271.338 26.7942 271.951 27.3786 271.951 28.1428V30.7492C271.951 31.5134 271.338 32.0978 270.538 32.0978H264.131V40.1435C264.131 43.2003 265.78 44.8186 268.182 44.8186C269.407 44.8186 270.302 44.5489 271.339 44.5489H272.186C272.987 44.5489 273.6 45.1332 273.6 45.8974V48.235C273.6 48.9092 272.987 49.4487 272.186 49.5835C270.773 49.854 268.182 50.0338 266.062 50.0338Z" fill="#231F20"/>
<path d="M14.8787 14.6917C18.3095 14.6917 21.6852 15.4808 24.1568 17.0596C26.6259 15.4808 29.9935 14.6917 33.4343 14.6917C40.624 14.6917 46.4515 18.0429 46.4515 25.053C46.4515 32.0644 36.0746 55.0367 28.9878 55.0367C27.2355 55.0367 25.57 50.4894 24.1562 44.8041C22.7375 50.4894 21.0726 55.0367 19.3172 55.0367C12.2372 55.0367 1.86029 32.0644 1.86029 25.053C1.86091 18.0429 7.68834 14.6917 14.8787 14.6917Z" fill="white"/>
<path d="M28.9877 56.8511C27.4654 56.8511 26.2097 52.9236 25.0309 49.3584C24.7396 48.4774 23.5667 48.4771 23.2751 49.3579C22.0945 52.9234 20.8385 56.8511 19.3171 56.8511C14.3398 56.8511 9.47903 49.5918 6.27822 43.5026C2.64026 36.5813 0 28.8224 0 25.0534C0.000620071 17.6574 5.84045 12.8779 14.8786 12.8779C18.1418 12.8779 21.2046 13.5233 23.6873 14.7166C23.9835 14.8589 24.3288 14.8589 24.6249 14.7166C27.1066 13.5238 30.1693 12.8779 33.4342 12.8779C42.4718 12.8779 48.3116 17.6568 48.3116 25.0534C48.3116 28.8224 45.6707 36.5813 42.0328 43.5026C38.8307 49.5918 33.9687 56.8511 28.9877 56.8511ZM14.8786 16.5061C12.2613 16.5061 3.72105 17.1229 3.72043 25.0534C3.72043 28.2625 6.2435 35.4819 9.5894 41.8469C13.2388 48.7897 16.5766 52.3443 18.5914 53.0781C18.8906 53.187 19.1849 53.0513 19.2946 52.7525C19.8336 51.2845 20.9895 46.5679 22.4369 40.7674L23.2904 37.026C23.5206 36.017 24.9443 35.9795 25.2273 36.975L26.3053 40.7674C27.7435 46.5507 28.5821 51.2629 29.0325 52.7428C29.1254 53.0479 29.4164 53.1868 29.716 53.0777C31.7335 52.3425 35.0729 48.7885 38.7222 41.8469C42.0681 35.4825 44.5918 28.2625 44.5918 25.0534C44.5918 17.1229 36.0522 16.5061 33.4349 16.5061C30.2452 16.5061 27.2354 17.2614 25.1774 18.5772L24.6963 18.8848C24.3681 19.0947 23.9478 19.0948 23.6194 18.8852L23.138 18.5778C21.0768 17.2614 18.0664 16.5061 14.8786 16.5061Z" fill="#3398D4"/>
<path d="M13.3317 19.9301C13.857 19.1807 13.2775 18.1369 12.3933 18.3726C10.1468 18.9715 7.13269 20.2781 6.491 23.0377C5.90436 25.5587 7.15859 30.1879 8.38044 33.7841C8.73715 34.834 10.2012 34.5426 10.2055 33.4338C10.217 30.4148 10.3443 26.898 10.8135 25.0634C11.3136 23.109 12.3994 21.2602 13.3317 19.9301Z" fill="#D6E1E7"/>
<path d="M30.9941 9.70687C31.1234 10.183 31.579 10.4956 32.0712 10.4608C33.7344 10.3435 37.4865 10.2082 40.1956 11.084C42.8671 11.9484 45.1438 13.8474 46.1266 14.7549C46.4435 15.0475 46.9083 15.1325 47.2983 14.9482L51.226 13.0917C52.0878 12.6844 51.9452 11.4169 51.0146 11.2112L46.7986 10.2791C46.4044 10.192 46.1013 9.87638 46.0301 9.47899L44.6411 1.72243C44.5048 0.960823 43.5922 0.635976 43.0053 1.14009L36.6861 6.56743C36.3888 6.82274 35.9698 6.8809 35.6142 6.71621L31.3481 4.74025C30.577 4.38308 29.7401 5.08963 29.9628 5.90974L30.9941 9.70687Z" fill="#FED020"/>
</svg>
