<?xml version="1.0" encoding="UTF-8"?>
<!DOCTYPE svg PUBLIC "-//W3C//DTD SVG 1.1//EN" "http://www.w3.org/Graphics/SVG/1.1/DTD/svg11.dtd">
<!-- Creator: CorelDRAW 2018 (64-Bit) -->
<svg xmlns="http://www.w3.org/2000/svg" xml:space="preserve" width="450mm" height="200mm" version="1.1" style="shape-rendering:geometricPrecision; text-rendering:geometricPrecision; image-rendering:optimizeQuality; fill-rule:evenodd; clip-rule:evenodd"
viewBox="0 0 45000 20000"
 xmlns:xlink="http://www.w3.org/1999/xlink">
 <defs>
  <style type="text/css">
   <![CDATA[
    .fil0 {fill:#E52D2C;fill-rule:nonzero}
    .fil1 {fill:#1D1D1E;fill-rule:nonzero}
   ]]>
  </style>
 </defs>
 <g id="Слой_x0020_1">
  <metadata id="CorelCorpID_0Corel-Layer"/>
  <g id="_2690179649680">
   <path class="fil0" d="M9004.22 4036.51l-715.03 0c-1081.25,0 -2127.67,715.03 -2127.67,2790.26 0,2005.56 959.24,2650.86 2127.67,2650.86l715.03 0 0 -5441.12zm-1116.1 6557.33l-2127.69 4778.25 -1552.07 0 2336.89 -5109.79c-1098.67,-558.04 -1831.15,-1569.49 -1831.15,-3435.53 0,-2615.85 1656.71,-3923.81 3627.39,-3923.81l2005.48 0 0 12469.13 -1342.75 0 0 -4778.25 -1116.1 0z"/>
   <path class="fil1" d="M36436.42 10977.45c0,-2755.47 1063.88,-4516.86 3121.78,-4516.86 784.7,0 1238.1,209.32 1621.83,453.4l-191.86 1290.53c-366.19,-313.96 -889.35,-610.38 -1447.43,-610.38 -976.65,0 -1674.14,1098.67 -1674.14,3313.55 0,2197.34 523.05,3452.99 1621.83,3452.99 662.61,0 1168.44,-261.54 1482.28,-540.63l313.88 1011.45c-470.86,401.19 -1028.91,662.73 -1831.16,662.73 -1883.46,0 -3017.01,-1517.19 -3017.01,-4516.78zm-3976.15 17.46l0 4377.18 -1360.32 0 0 -8789.52 1360.32 0 0 4063.49 2110.12 -4063.49 1377.84 0 -2180 4133.26 2493.87 4656.26 -1482.42 0 -2319.41 -4377.18zm-6400.23 -819.71l2249.64 0c0,-1499.85 -244.2,-2598.49 -1028.9,-2598.49 -837.13,0 -1133.55,1028.88 -1220.74,2598.49zm1499.73 5319.03c-1813.61,0 -2929.82,-1447.43 -2929.82,-4150.59 0,-2825.15 784.82,-4883.05 2650.83,-4883.05 1464.97,0 2424.11,1098.67 2424.11,4080.92l0 749.82 -3662.31 0c0,1988.1 558.05,3034.55 1639.29,3034.55 767.37,0 1377.75,-348.84 1726.48,-593.04l313.96 1046.36c-558.04,436.03 -1290.53,715.03 -2162.54,715.03zm-5789.85 -7812.87l-1517.31 0 0 156.86c0,1848.61 -87.19,4551.78 -819.58,6417.78l2336.89 0 0 -6574.64zm2040.35 9417.33l-1220.76 0 0 -1726.6 -3766.96 0 0 1726.6 -1220.77 0 0 -2842.69 540.72 0c802.15,-1866 889.37,-4586.63 889.37,-6923.49l0 -749.94 4080.89 0 0 7673.43 697.51 0 0 2842.69zm-6993.19 -10516.12l0 8789.52 -1342.87 0 0 -3941.24 -2022.98 0 0 3941.24 -1360.21 0 0 -8789.52 1360.21 0 0 3732.07 2022.98 0 0 -3732.07 1342.87 0z"/>
  </g>
 </g>
</svg>
