<?xml version="1.0" encoding="UTF-8"?>
<!DOCTYPE svg PUBLIC "-//W3C//DTD SVG 1.1//EN" "http://www.w3.org/Graphics/SVG/1.1/DTD/svg11.dtd">
<!-- Creator: CorelDRAW 2018 (64-Bit) -->
<svg xmlns="http://www.w3.org/2000/svg" xml:space="preserve" width="160mm" height="19.0478mm" version="1.1" style="shape-rendering:geometricPrecision; text-rendering:geometricPrecision; image-rendering:optimizeQuality; fill-rule:evenodd; clip-rule:evenodd"
viewBox="0 0 16000 1904.78"
 xmlns:xlink="http://www.w3.org/1999/xlink">
 <defs>
  <style type="text/css">
   <![CDATA[
    .str0 {stroke:#8BCAF0;stroke-width:122.73;stroke-miterlimit:10}
    .fil1 {fill:#FEFEFE;fill-rule:nonzero}
    .fil2 {fill:#FEFEFE;fill-rule:nonzero}
    .fil0 {fill:#434242;fill-rule:nonzero}
    .fil4 {fill:#FDD111;fill-rule:nonzero}
    .fil3 {fill:#E1E7EB;fill-rule:nonzero}
    .fil5 {fill:#00A0E3;fill-rule:nonzero}
   ]]>
  </style>
 </defs>
 <g id="Слой_x0020_1">
  <metadata id="CorelCorpID_0Corel-Layer"/>
  <path class="fil0" d="M3200.29 422.91c44.68,0 79.06,34.38 79.06,79.08l0 79.08c0,44.69 -34.38,79.07 -79.06,79.07l-374.78 0 0 888.8c0,42.98 -36.1,77.34 -79.08,77.34l-158.16 0c-42.99,0 -79.09,-34.36 -79.09,-77.34l0 -888.8 -374.76 0c-44.7,0 -79.07,-34.38 -79.07,-79.07l0 -79.08c0,-44.7 34.37,-79.08 79.07,-79.08l1065.87 0z"/>
  <path class="fil0" d="M3900.04 1165.56c0,-202.85 -70.49,-285.37 -216.62,-285.37 -146.14,0 -216.62,82.52 -216.62,285.37 0,202.88 70.48,287.09 216.62,287.09 146.13,0 216.62,-84.21 216.62,-287.09zm290.54 0c0,316.33 -182.24,477.94 -507.16,477.94 -324.93,0 -507.13,-161.61 -507.13,-477.94 0,-316.31 182.2,-476.19 507.13,-476.19 324.92,0 507.16,159.88 507.16,476.19z"/>
  <path class="fil0" d="M4635.88 967.87l0 438.36c70.48,22.36 139.25,34.38 182.23,34.38 154.7,0 211.43,-84.22 211.43,-275.05 0,-189.09 -56.73,-273.34 -194.24,-273.34 -61.91,0 -139.28,37.83 -199.42,75.65zm692.8 197.69c0,316.33 -182.23,477.94 -450.39,477.94 -103.16,0 -171.93,-20.66 -242.41,-42.99l0 257.85c0,29.23 -22.35,51.57 -51.58,51.57l-187.39 0c-29.22,0 -51.58,-22.34 -51.58,-51.57l0 -1100.23c0,-29.22 22.36,-51.56 51.58,-51.56l161.61 0c29.22,0 51.57,22.34 51.57,51.56l0 25.79c77.33,-55.01 171.89,-94.55 293.95,-94.55 244.15,0 424.64,161.6 424.64,476.19z"/>
  <path class="fil0" d="M5816.91 660.14l0 728.91 223.49 0c307.71,0 388.54,-106.58 388.54,-364.45 0,-257.86 -80.83,-364.46 -388.54,-364.46l-223.49 0zm232.09 -237.23c489.97,0 696.24,190.83 696.24,601.69 0,410.86 -206.27,601.68 -696.24,601.68l-469.32 0c-42.97,0 -79.07,-34.36 -79.07,-77.34l0 -1045.23c0,-44.7 34.38,-80.8 79.07,-80.8l469.32 0z"/>
  <path class="fil0" d="M7142.4 1077.89l390.23 0c-5.13,-128.94 -67.02,-197.7 -194.24,-197.7 -123.78,0 -189.11,68.76 -195.99,197.7zm1.72 177.07c12.04,137.53 73.93,197.69 214.9,197.69 72.18,0 135.81,-20.62 165.05,-56.72 22.34,-27.49 53.28,-44.71 96.27,-44.71l125.47 0c29.23,0 51.61,22.35 51.61,51.57 0,178.8 -183.96,240.71 -459.03,240.71 -306.02,0 -489.97,-165.05 -489.97,-476.23 0,-309.42 185.68,-477.9 489.97,-477.9 306.01,0 489.97,163.32 489.97,465.87l0 48.15c0,29.21 -22.37,51.57 -51.61,51.57l-632.63 0z"/>
  <path class="fil0" d="M8658.7 1093.37c0,-142.69 -65.3,-201.15 -159.85,-201.15 -84.25,0 -163.33,58.46 -225.22,120.33l0 562.15c0,29.25 -22.38,51.58 -51.58,51.58l-187.38 0c-29.24,0 -51.58,-22.33 -51.58,-51.58l0 -816.57c0,-29.22 22.34,-51.56 51.58,-51.56l187.38 0c29.2,0 51.58,22.34 51.58,51.56l0 53.29c79.06,-67.03 165.02,-122.05 293.96,-122.05 223.49,0 381.66,118.62 381.66,404l0 481.33c0,29.25 -22.36,51.58 -51.58,51.58l-187.39 0c-29.23,0 -51.58,-22.33 -51.58,-51.58l0 -481.33z"/>
  <path class="fil0" d="M9516.6 1643.5c-240.68,0 -361.03,-120.36 -361.03,-378.24l0 -790.77c0,-29.24 22.36,-51.58 51.58,-51.58l187.39 0c29.2,0 51.58,22.34 51.58,51.58l0 280.21 233.81 0c29.2,0 51.58,22.35 51.58,51.57l0 99.71c0,29.22 -22.38,51.58 -51.58,51.58l-233.81 0 0 307.7c0,116.91 60.17,178.8 147.85,178.8 44.67,0 77.36,-10.32 115.16,-10.32l30.95 0c27.29,0 48.58,19.49 51.28,45.87l0 100.14c-2.7,23.43 -23.99,41.72 -51.28,46.53 -51.55,10.32 -146.11,17.22 -223.48,17.22z"/>
  <path class="fil1" d="M610.9 431.82c113.18,0 224.52,26.68 306.06,80.1 81.45,-53.42 192.53,-80.1 306.04,-80.1 237.17,0 429.4,113.35 429.4,350.47 0,237.16 -342.3,1014.22 -576.07,1014.22 -57.8,0 -112.74,-153.8 -159.37,-346.12 -46.81,192.32 -101.72,346.12 -159.63,346.12 -233.55,0 -575.83,-777.06 -575.83,-1014.22 0,-237.12 192.22,-350.47 429.4,-350.47z"/>
  <path class="fil2 str0" d="M610.9 431.82c113.18,0 224.52,26.68 306.06,80.1 81.45,-53.42 192.53,-80.1 306.04,-80.1 237.17,0 429.4,113.35 429.4,350.47 0,237.16 -342.3,1014.22 -576.07,1014.22 -57.8,0 -112.74,-153.8 -159.37,-346.12 -46.81,192.32 -101.72,346.12 -159.63,346.12 -233.55,0 -575.83,-777.06 -575.83,-1014.22 0,-237.12 192.22,-350.47 429.4,-350.47z"/>
  <path class="fil3" d="M612.92 540.24c0,0 -244.07,21.17 -278.72,173.88 -34.65,152.69 125.39,534.01 125.39,534.01 0,0 -13.29,-343.21 17.21,-465.48 31.92,-127.9 136.12,-242.41 136.12,-242.41z"/>
  <path class="fil4" d="M1132.04 361.4c0,0 178.06,-20.53 296.1,18.6 118.06,39.17 212.74,141.16 212.74,141.16l238.31 -115.49 -254.71 -57.75 -59.86 -342.83 -268.33 236.33 -224.24 -106.5 59.99 226.48z"/>
  <path class="fil5" d="M10205.46 1665.23l0 -1103.16 357.2 0c135.32,0 223.4,5.39 264.49,16.43 63.17,16.69 116.07,52.64 158.69,108.11 42.63,55.47 63.94,127.11 63.94,214.93 0,67.79 -12.32,124.54 -36.72,170.77 -24.65,46.22 -55.72,82.42 -93.47,108.87 -37.75,26.2 -76.26,43.66 -115.3,52.13 -53.15,10.53 -129.93,15.92 -230.59,15.92l-144.83 0 0 416 -223.41 0zm223.41 -916.73l0 314.3 121.46 0c87.56,0 145.86,-5.9 175.39,-17.46 29.53,-11.55 52.64,-29.53 69.33,-54.44 16.69,-24.65 25.16,-53.15 25.16,-86.02 0,-40.32 -11.81,-73.44 -35.18,-99.63 -23.62,-26.2 -53.15,-42.63 -89.36,-49.31 -26.45,-4.88 -79.6,-7.44 -159.72,-7.44l-107.08 0z"/>
  <path id="1" class="fil5" d="M11233.13 1665.23l0 -1103.16 469.16 0c117.86,0 203.63,10.01 257.04,29.78 53.67,19.78 96.3,54.96 128.39,105.54 32.1,50.85 48.28,108.63 48.28,173.85 0,82.94 -24.14,151.25 -72.67,205.17 -48.53,53.93 -120.95,87.83 -217.5,101.95 48.02,27.99 87.57,58.8 118.64,92.44 31.32,33.64 73.44,93.47 126.34,179.24l134.55 215.19 -266.29 0 -159.72 -240.87c-57.26,-85.51 -96.55,-139.43 -117.86,-161.77 -21.06,-22.09 -43.4,-37.5 -67.03,-45.71 -23.88,-8.22 -61.37,-12.33 -112.73,-12.33l-45.19 0 0 460.68 -223.41 0zm223.41 -636.32l164.86 0c106.82,0 173.33,-4.62 200.04,-13.61 26.44,-8.99 47.5,-24.65 62.39,-46.74 15.16,-22.08 22.6,-49.81 22.6,-82.94 0,-37.23 -10.01,-67.02 -29.79,-90.13 -19.77,-22.86 -47.76,-37.24 -83.71,-43.14 -18.23,-2.57 -72.41,-3.85 -162.55,-3.85l-173.84 0 0 280.41z"/>
  <path id="2" class="fil5" d="M12299.57 1120.33c0,-112.48 16.95,-206.98 50.59,-283.5 24.91,-56.24 59.32,-106.82 102.71,-151.5 43.4,-44.69 90.91,-77.81 142.52,-99.64 68.82,-29.02 148.17,-43.65 238.04,-43.65 162.81,0 292.74,50.59 390.58,151.5 97.58,101.18 146.37,241.64 146.37,421.65 0,178.47 -48.53,318.16 -145.34,418.82 -96.81,100.92 -226.49,151.25 -388.52,151.25 -164.09,0 -294.8,-50.07 -391.61,-150.48 -96.81,-100.15 -145.34,-238.3 -145.34,-414.45zm229.57 -7.45c0,125.05 29.02,219.81 86.79,284.52 57.78,64.45 131.22,96.81 220.07,96.81 89.11,0 162.04,-32.1 219.3,-96.04 57.01,-64.2 85.51,-160.24 85.51,-288.37 0,-126.6 -27.73,-221.1 -83.46,-283.24 -55.46,-62.4 -129.16,-93.47 -221.35,-93.47 -91.93,0 -166.14,31.58 -222.38,94.5 -56.23,63.17 -84.48,158.18 -84.48,285.29z"/>
  <polygon id="3" class="fil5" points="13541.14,1665.23 13541.14,562.07 13875.74,562.07 14073.46,1314.46 14268.88,562.07 14604.25,562.07 14604.25,1665.23 14397.79,1665.23 14397.02,796.77 14179.52,1665.23 13964.84,1665.23 13748.37,796.77 13747.6,1665.23 "/>
  <path id="4" class="fil5" d="M14781.43 1120.33c0,-112.48 16.95,-206.98 50.59,-283.5 24.91,-56.24 59.32,-106.82 102.71,-151.5 43.4,-44.69 90.91,-77.81 142.52,-99.64 68.82,-29.02 148.17,-43.65 238.04,-43.65 162.81,0 292.74,50.59 390.58,151.5 97.58,101.18 146.37,241.64 146.37,421.65 0,178.47 -48.53,318.16 -145.34,418.82 -96.81,100.92 -226.49,151.25 -388.52,151.25 -164.09,0 -294.8,-50.07 -391.61,-150.48 -96.81,-100.15 -145.34,-238.3 -145.34,-414.45zm229.57 -7.45c0,125.05 29.02,219.81 86.79,284.52 57.78,64.45 131.22,96.81 220.07,96.81 89.11,0 162.04,-32.1 219.3,-96.04 57.01,-64.2 85.51,-160.24 85.51,-288.37 0,-126.6 -27.73,-221.1 -83.46,-283.24 -55.46,-62.4 -129.16,-93.47 -221.35,-93.47 -91.93,0 -166.14,31.58 -222.38,94.5 -56.23,63.17 -84.48,158.18 -84.48,285.29z"/>
 </g>
</svg>
