<svg width="19" height="24" viewBox="0 0 19 24" fill="none" xmlns="http://www.w3.org/2000/svg">
<path d="M13.9197 9.21873C13.9197 9.21873 15.6419 9.95095 16.4769 12.3954C16.8332 13.4372 16.9257 14.5583 16.785 15.6515C16.6428 16.7574 16.2486 18.1937 15.2019 19.0944C15.2019 19.0944 14.0856 19.1658 14.039 17.4671C14.0035 16.1743 14.1062 14.7203 13.1194 13.142" stroke="black" stroke-width="1.3" stroke-miterlimit="10" stroke-linecap="round" stroke-linejoin="round"/>
<path d="M4.54716 9.21873C4.54716 9.21873 2.82496 9.95095 1.98993 12.3954C1.63364 13.4372 1.54121 14.5583 1.68183 15.6515C1.82403 16.7574 2.21824 18.1937 3.26499 19.0944C3.26499 19.0944 4.38126 19.1658 4.42787 17.4671C4.46421 16.1407 4.35519 14.645 5.42564 13.0201" stroke="black" stroke-width="1.3" stroke-miterlimit="10" stroke-linecap="round" stroke-linejoin="round"/>
<path d="M12.613 3.86069C11.7669 3.04989 10.6262 2.53662 9.37324 2.50774C6.69198 2.44679 4.46655 4.60654 4.40651 7.32847C4.34647 10.0504 6.47473 12.3096 9.1552 12.3706C11.2842 12.4187 13.1321 11.0601 13.8288 9.13935" stroke="black" stroke-width="1.3" stroke-miterlimit="10" stroke-linecap="round" stroke-linejoin="round"/>
<path d="M9.26429 9.51948C10.3961 9.51948 11.3135 8.58807 11.3135 7.43913C11.3135 6.29018 10.3961 5.35878 9.26429 5.35878C8.13251 5.35878 7.21503 6.29018 7.21503 7.43913C7.21503 8.58807 8.13251 9.51948 9.26429 9.51948Z" stroke="black" stroke-width="1.3" stroke-miterlimit="10" stroke-linecap="round" stroke-linejoin="round"/>
<path d="M12.6115 3.86228L12.6186 3.85106C12.9922 3.09559 13.4275 2.13802 13.8273 1H18C16.7376 5.22165 14.6504 8.08393 13.8304 9.14095" stroke="black" stroke-width="1.3" stroke-miterlimit="10" stroke-linecap="round" stroke-linejoin="round"/>
<path d="M6.13105 3.6674C5.81189 2.94561 5.45639 2.05381 5.12617 1H1C2.03411 4.84231 3.75394 7.56104 4.5708 8.73915" stroke="black" stroke-width="1.3" stroke-miterlimit="10" stroke-linecap="round" stroke-linejoin="round"/>
<path d="M9.26422 15.1285L10.6364 14.8984C10.7368 14.8815 10.8379 14.8735 10.9398 14.8735H10.9422C11.5528 14.8735 12.1319 15.1702 12.4353 15.6731C12.6296 15.9955 12.7797 16.4285 12.7797 16.9979C12.7797 17.488 12.6446 17.97 12.3879 18.395L11.9952 19.0462C11.8088 19.355 11.6927 19.6982 11.6603 20.0527C11.5852 20.8739 11.3222 21.6719 10.8877 22.3897L10.6262 22.8212C10.559 22.931 10.4358 22.9992 10.3015 22.9992C10.0945 22.9992 9.92703 22.8404 9.92703 22.6439V21.963C9.92703 21.6158 9.86146 21.2717 9.73427 20.9461L9.63078 20.6815C9.57232 20.5315 9.42143 20.4328 9.25316 20.4328C9.08094 20.4328 8.92847 20.5363 8.87238 20.6911L8.7681 20.9782C8.6575 21.283 8.60141 21.6037 8.60141 21.9261V22.6447C8.60141 22.8412 8.43393 23 8.22695 23C8.09265 23 7.96941 22.9318 7.90226 22.822L7.64077 22.3905C7.20548 21.6727 6.94241 20.8747 6.86815 20.0535C6.83576 19.699 6.71963 19.3558 6.53319 19.047L6.14056 18.3958C5.88381 17.97 5.74872 17.4888 5.74872 16.9987C5.74872 16.4277 5.9004 15.9939 6.09474 15.6715C6.3981 15.1694 6.97638 14.8735 7.58626 14.8735H7.58863C7.69054 14.8735 7.79166 14.8815 7.89199 14.8984L9.26422 15.1285Z" stroke="#F38A27" stroke-width="1.3" stroke-miterlimit="10" stroke-linecap="round" stroke-linejoin="round"/>
</svg>
