<svg width="27" height="20" viewBox="0 0 27 20" fill="none" xmlns="http://www.w3.org/2000/svg">
<path d="M7.81712 18.9005C7.00125 18.9083 6.23791 18.9493 5.72268 18.9836C4.93028 19.0368 4.16918 18.5703 3.81712 17.7625C3.53213 17.1109 3.32089 16.1291 3.35442 14.6586C3.35442 14.4547 3.38348 10.0023 5.93838 7.64094C6.65925 6.97496 7.58689 6.66469 8.51564 6.66469H8.61287C9.54274 6.66469 10.4693 6.97496 11.1901 7.64094C13.7461 10.0023 13.7741 14.4547 13.7741 14.6586C13.811 15.9939 13.6668 16.9214 13.4477 17.5663C13.1348 18.4894 12.3055 19.0468 11.436 18.9969C10.8526 18.9637 9.97638 18.9182 9.31027 18.9005H7.81712Z" stroke="black" stroke-width="1.4" stroke-miterlimit="10" stroke-linecap="round" stroke-linejoin="round"/>
<path d="M18.2141 18.9005C17.3982 18.9083 16.6349 18.9493 16.1197 18.9836C15.3273 19.0368 14.5662 18.5703 14.2141 17.7625C13.9291 17.1109 13.7179 16.1291 13.7514 14.6586C13.7514 14.4547 13.7805 10.0023 16.3354 7.64094C17.0563 6.97496 17.9839 6.66469 18.9126 6.66469H19.0099C19.9397 6.66469 20.8663 6.97496 21.5871 7.64094C24.1431 10.0023 24.1711 14.4547 24.1711 14.6586C24.208 15.9939 24.0638 16.9214 23.8447 17.5663C23.5318 18.4894 22.7025 19.0468 21.8341 18.9969C21.2507 18.9637 20.3745 18.9182 19.7084 18.9005H18.2141Z" stroke="black" stroke-width="1.4" stroke-miterlimit="10" stroke-linecap="round" stroke-linejoin="round"/>
<path d="M17.0458 13.4552C14.863 13.5616 12.6021 13.6248 10.2685 13.6347" stroke="#F38A27" stroke-width="1.4" stroke-miterlimit="10" stroke-linecap="round" stroke-linejoin="round"/>
<path d="M10.2667 11.3409H6.43097V15.144H10.2667V11.3409Z" stroke="#F38A27" stroke-width="1.4" stroke-miterlimit="10" stroke-linecap="round" stroke-linejoin="round"/>
<path d="M20.8797 11.3409H17.044V15.144H20.8797V11.3409Z" stroke="#F38A27" stroke-width="1.4" stroke-miterlimit="10" stroke-linecap="round" stroke-linejoin="round"/>
<path d="M2.4206 13.6358C1.52873 13.6358 0.858156 12.4989 1.0258 11.2778L1.55779 7.34507C2.05737 3.66502 2.74024 1 5.41697 1H21.4695C24.1462 1 24.9431 3.66502 25.4426 7.34507L25.9746 11.2778C26.1356 12.4635 25.5108 13.5683 24.6603 13.6314" stroke="black" stroke-width="1.4" stroke-miterlimit="10" stroke-linecap="round" stroke-linejoin="round"/>
<path d="M20.8816 13.2425L23.7897 12.8325" stroke="#F38A27" stroke-width="1.4" stroke-miterlimit="10" stroke-linecap="round" stroke-linejoin="round"/>
<path d="M8.3497 11.341V10.0267" stroke="#F38A27" stroke-width="1.4" stroke-miterlimit="10" stroke-linecap="round" stroke-linejoin="round"/>
<path d="M8.3497 15.1451V16.425" stroke="#F38A27" stroke-width="1.4" stroke-miterlimit="10" stroke-linecap="round" stroke-linejoin="round"/>
<path d="M18.9628 11.341V10.0267" stroke="#F38A27" stroke-width="1.4" stroke-miterlimit="10" stroke-linecap="round" stroke-linejoin="round"/>
<path d="M18.9628 15.1451V16.425" stroke="#F38A27" stroke-width="1.4" stroke-miterlimit="10" stroke-linecap="round" stroke-linejoin="round"/>
<path d="M6.25788 13.7212L3.35092 13.3101" stroke="#F38A27" stroke-width="1.4" stroke-miterlimit="10" stroke-linecap="round" stroke-linejoin="round"/>
</svg>
