<svg width="23" height="24" viewBox="0 0 23 24" fill="none" xmlns="http://www.w3.org/2000/svg">
<path d="M7.35156 15.6189C7.53976 17.7407 8.00332 19.0324 9.09652 20.8876L9.75336 22.0022C9.92126 22.2869 10.2322 22.4626 10.5689 22.4626C11.0883 22.4626 11.5089 22.0517 11.5089 21.5445V19.7839C11.5089 18.8865 11.6731 17.9972 11.9933 17.1565L12.2534 16.4726C12.401 16.0861 12.7783 15.8293 13.2008 15.8293C13.6326 15.8293 14.0164 16.0969 14.1575 16.4961L14.4186 17.2376C14.6963 18.026 14.8374 18.854 14.8374 19.6884V21.5454C14.8374 22.0526 15.2581 22.4635 15.7775 22.4635C16.1142 22.4635 16.4251 22.2878 16.593 22.0031L17.2498 20.8885C18.3421 19.0333 19.0026 16.9718 19.1908 14.8499C19.272 13.9336 19.5635 13.0479 20.0312 12.2496L21.0174 10.5665C21.6614 9.46723 21.9999 8.22203 21.9999 6.9552C21.9999 5.48023 21.6198 4.35757 21.1309 3.52503C20.3698 2.22756 18.9178 1.4635 17.3864 1.4635H17.3808C17.1262 1.4635 16.8716 1.48513 16.6197 1.52837L13.7044 1.99828" stroke="black" stroke-width="1.5" stroke-miterlimit="10" stroke-linecap="round" stroke-linejoin="round"/>
<path d="M11.1645 6.95239C11.1645 4.21736 8.76089 1.99991 5.79631 1.99991C5.42037 1.99534 5.04443 2.01516 4.67179 2.05861C6.0541 2.75532 6.92332 4.08473 6.94645 5.53762C6.94397 7.6857 5.05682 9.42597 2.72845 9.42902C2.13438 9.44121 1.54444 9.33373 0.999939 9.1142C1.86502 10.8331 3.74143 11.9247 5.79549 11.9049C8.7609 11.9049 11.1645 9.68743 11.1645 6.95239Z" stroke="#F38A27" stroke-width="1.5" stroke-miterlimit="10" stroke-linecap="round" stroke-linejoin="round"/>
</svg>
