<svg width="19" height="24" viewBox="0 0 19 24" fill="none" xmlns="http://www.w3.org/2000/svg">
<path d="M17.1667 3.72728C16.4337 2.46297 15.0344 1.71875 13.557 1.71875H13.5517C13.3065 1.71875 13.0612 1.73976 12.8187 1.78179L9.49956 2.35878L6.18129 1.78179C5.93964 1.73976 5.69443 1.71875 5.44923 1.71875H5.44301C3.96823 1.71875 2.56985 2.46035 1.8369 3.72203C1.36603 4.53104 1 5.62199 1 7.05528C1 8.28631 1.32605 9.49546 1.94617 10.5645L2.85236 12.1256H4.7758V10.1943C4.7758 8.7496 5.97518 8 7.44108 8H11.351C12.8169 8 14.0163 8.9658 14.0163 10.4105V12.1256H16.1476L17.0538 10.5645C17.6739 9.49633 18 8.28631 18 7.05528C18 5.62461 17.6357 4.5363 17.1667 3.72728Z" stroke="#F38A27" stroke-width="1.5" stroke-miterlimit="10" stroke-linecap="round" stroke-linejoin="round"/>
<path d="M12.0634 13.8761C12.0661 13.8402 12.075 13.8058 12.075 13.7691V11.4747C12.075 10.6639 11.3534 10 10.4715 10H8.11965C7.23772 10 6.51614 10.6639 6.51614 11.4747V13.7691C6.51614 13.8058 6.52505 13.8402 6.52772 13.8761H3L3.04276 13.944C3.48283 14.6518 3.7581 15.4371 3.83382 16.2496C4.01021 18.1309 4.63202 19.9595 5.66093 21.6036L6.27917 22.5918C6.43685 22.8442 6.72994 23 7.04708 23C7.53615 23 7.93257 22.6357 7.93257 22.186V20.5395C7.93257 19.8005 8.0662 19.0664 8.32721 18.3666L8.57308 17.7091C8.70493 17.3552 9.06661 17.1179 9.47372 17.1179C9.87103 17.1179 10.2274 17.3456 10.3663 17.6883L10.6113 18.2947C10.9124 19.04 11.0674 19.8293 11.0674 20.6242V22.1852C11.0674 22.6349 11.4639 22.9992 11.9529 22.9992C12.2701 22.9992 12.5623 22.8434 12.7208 22.591L13.3391 21.6028C14.368 19.9579 14.9889 18.1301 15.1662 16.248C15.2428 15.4355 15.5172 14.6502 15.9572 13.9424L16 13.8745H12.0634V13.8761Z" stroke="black" stroke-width="1.2" stroke-miterlimit="10" stroke-linecap="round" stroke-linejoin="round"/>
</svg>
