<svg width="17" height="22" viewBox="0 0 17 22" fill="none" xmlns="http://www.w3.org/2000/svg">
<path d="M13.2829 8.92439V11.1555H3.71637V8.92439" stroke="#F38A27" stroke-width="1.3" stroke-miterlimit="10" stroke-linecap="round" stroke-linejoin="round"/>
<path d="M4.69836 11.1555L6.00633 12.0933V18.2049C6.00633 18.6566 6.21129 19.0866 6.57017 19.3866L8.4996 21" stroke="#F38A27" stroke-width="1.3" stroke-miterlimit="10" stroke-linecap="round" stroke-linejoin="round"/>
<path d="M12.3008 11.1555L10.9929 12.0933V18.2049C10.9929 18.6566 10.7879 19.0866 10.429 19.3866L8.49957 21" stroke="#F38A27" stroke-width="1.3" stroke-miterlimit="10" stroke-linecap="round" stroke-linejoin="round"/>
<path d="M6.00629 12.0942L8.39832 12.6809C9.25685 12.8912 10.0726 13.2961 10.7994 13.8718L10.992 14.0244" stroke="#F38A27" stroke-width="1.3" stroke-miterlimit="10" stroke-linecap="round" stroke-linejoin="round"/>
<path d="M6.00793 14.9211L8.38268 15.5019C9.30953 15.7307 10.1936 16.1506 10.9928 16.7482" stroke="#F38A27" stroke-width="1.3" stroke-miterlimit="10" stroke-linecap="round" stroke-linejoin="round"/>
<path d="M6.00793 17.6937L8.38268 18.2778C8.81318 18.3801 9.23133 18.5268 9.63796 18.7187C10.1088 18.9307 9.9738 18.8008 10.401 19.1218" stroke="#F38A27" stroke-width="1.3" stroke-miterlimit="10" stroke-linecap="round" stroke-linejoin="round"/>
<path d="M6.04584 18.5452H6.04889" stroke="#F38A27" stroke-width="1.3" stroke-miterlimit="10" stroke-linecap="round" stroke-linejoin="round"/>
<path d="M15.4641 8.71822C15.8115 7.87759 16 6.96991 16 6.04714C16 4.69442 15.6782 3.66438 15.2649 2.90001C14.618 1.70402 13.3833 1 12.0794 1H12.0745C11.858 1 11.6415 1.02011 11.4283 1.05951L8.49959 1.60596L5.5717 1.05951C5.3585 1.02011 5.14202 1 4.92553 1H4.92059C3.61922 1 2.38534 1.7015 1.73835 2.89415C1.32267 3.66019 1 4.69107 1 6.04714C1 6.96991 1.18767 7.87675 1.53586 8.71822H15.4641Z" stroke="black" stroke-width="1.3" stroke-miterlimit="10" stroke-linecap="round" stroke-linejoin="round"/>
</svg>
