<svg width="27" height="24" viewBox="0 0 27 24" fill="none" xmlns="http://www.w3.org/2000/svg">
<path d="M15.6349 9.97559C15.6349 11.038 15.3616 11.7949 14.8277 12.718L14.0097 14.1301C13.6217 14.7996 13.3795 15.5431 13.3124 16.3115C13.1568 18.0915 12.6093 19.8215 11.7029 21.3785L11.1582 22.3141C11.0192 22.5533 10.7614 22.7003 10.4823 22.7003C10.0515 22.7003 9.70234 22.3554 9.70234 21.9299V20.4535C9.70234 19.7004 9.56618 18.9541 9.30068 18.249L9.08477 17.6746C8.96223 17.3499 8.64907 17.1347 8.29895 17.1347C7.94106 17.1347 7.62206 17.3595 7.50536 17.6938L7.28848 18.3153C7.05799 18.9771 6.94031 19.6716 6.94031 20.3709V21.929C6.94031 22.3545 6.59116 22.6993 6.16033 22.6993C5.88121 22.6993 5.62348 22.5524 5.48441 22.3132L4.93978 21.3776C4.03337 19.8215 3.48583 18.0915 3.33022 16.3106C3.26311 15.5421 3.02095 14.7986 2.6329 14.1291L1.81499 12.7171C1.28107 11.7949 1 10.7498 1 9.68741C1 8.44923 1.3151 7.50787 1.72066 6.80954C2.35281 5.72025 3.55682 5.08051 4.82794 5.08051H4.8328" stroke="black" stroke-width="1.5" stroke-miterlimit="10" stroke-linecap="round" stroke-linejoin="round"/>
<path d="M12.9114 6.27546C11.7609 6.19477 10.8544 5.24188 10.8544 4.08727C10.8544 2.92786 11.7609 1.97498 12.9114 1.89429" stroke="#F38A27" stroke-width="1.5" stroke-miterlimit="10" stroke-linecap="round" stroke-linejoin="round"/>
<path d="M18.3715 7.1688L20.2553 1.92119L25.1453 5.57809C24.6639 5.62132 23.8557 5.77213 23.0504 6.30524C21.3086 7.45697 21.046 9.44055 21.01 9.77483C20.1318 8.90744 19.2497 8.0362 18.3715 7.1688ZM18.3715 7.1688H14.5601C13.6488 7.1688 12.9097 6.4378 12.9097 5.53871V2.63009C12.9097 1.73004 13.6498 1 14.5601 1H18.7722C19.4277 1 19.9927 1.37462 20.2553 1.92119" stroke="#F38A27" stroke-width="1.5" stroke-miterlimit="10" stroke-linecap="round" stroke-linejoin="round"/>
<path d="M25.1452 5.57715L26 22.7003L20.2095 23C20.2095 23 20.9156 10.2013 21.0089 9.77389" stroke="#F38A27" stroke-width="1.5" stroke-miterlimit="10" stroke-linecap="round" stroke-linejoin="round"/>
<path d="M10.8536 4.08725H7.48663" stroke="#F38A27" stroke-width="1.5" stroke-miterlimit="10" stroke-linecap="round" stroke-linejoin="round"/>
<path d="M20.4737 18.3114L25.6797 16.2721" stroke="#F38A27" stroke-width="1.5" stroke-miterlimit="10" stroke-linecap="round" stroke-linejoin="round"/>
</svg>
