<svg width="97" height="30" viewBox="0 0 97 30" fill="none" xmlns="http://www.w3.org/2000/svg">
<path d="M22.3237 17.8713C17.1105 17.8978 16.2672 21.1531 15.9862 23.9056L15.8584 25.1231H14.8106L14.6828 23.9056C14.4018 21.1531 13.5329 17.8977 8.4986 17.8713C7.65531 16.0714 7.29754 14.6158 7.29754 12.9749C7.29754 8.87263 10.543 5.03486 15.3472 5.03486C20.1515 5.03486 23.3459 8.84602 23.3459 13.0015C23.3459 14.6158 23.1926 16.0714 22.3237 17.8713ZM15.2962 0.0591431C7.37428 0.0591431 0.883301 6.78172 0.883301 15.0127C0.883301 23.2704 7.37428 29.9929 15.2962 29.9929C23.2947 29.9929 29.7602 23.2704 29.7602 15.0127C29.7602 6.78174 23.2947 0.0591431 15.2962 0.0591431Z" fill="#29B24A"/>
<path d="M42.4029 4.79663C37.8031 4.79663 34.4043 7.78728 34.4298 12.763H38.5697C38.5186 10.5928 39.8474 8.60779 42.1984 8.60779C44.2429 8.60779 45.4439 10.0899 45.4439 11.7837C45.4439 13.4776 44.2429 14.4304 42.0196 15.4627C38.9785 16.8654 36.8065 17.7652 34.5831 18.5593V24.3819H50.0694V20.4648H39.4379C39.4379 20.4648 39.4733 20.4533 39.4907 20.4479C41.299 19.8804 42.6575 19.2639 44.2685 18.5328C47.7183 16.9448 49.686 14.9597 49.686 11.5721C49.686 7.41673 46.7217 4.79663 42.4029 4.79663Z" fill="#403F41"/>
<path d="M62.0452 17.6858H67.284C66.4662 19.7503 64.6262 20.7294 62.5052 20.7294C58.7743 20.7294 57.0366 17.7387 57.0366 14.7745C57.0366 11.7837 58.672 8.74008 62.4797 8.74008C64.8052 8.74008 66.5428 9.85168 67.2073 11.8367L71.526 11.8367C70.785 7.3639 67.0029 4.79663 62.5309 4.79663C57.011 4.79663 52.8711 8.68712 52.8711 14.8274C52.8711 21.0471 57.3687 24.7259 62.5052 24.7259C67.5651 24.7259 71.526 21.3118 71.526 15.9655V14.4039H62.0452V17.6858Z" fill="#403F41"/>
<path d="M78.34 4.79663H74.3279V23.9849H78.34V4.79663Z" fill="#403F41"/>
<path d="M92.2579 11.0957H96.5C95.9634 6.96687 92.948 4.79663 88.7568 4.79663C84.5148 4.79663 81.6783 7.04631 81.6783 10.9104C81.6783 15.3039 85.3325 16.2831 87.2747 16.6802C89.7791 17.183 92.2323 17.236 92.2323 19.4591C92.2323 20.9677 91.0057 21.7088 89.268 21.7088C87.1214 21.7088 85.6904 20.5972 85.3326 18.5858H81.1416C81.3971 22.9263 84.4382 25.2554 88.9103 25.2554C93.0501 25.2554 96.4488 23.2969 96.4488 19.0622C96.4488 14.5099 92.539 13.6894 89.8046 13.2659C87.9391 12.9749 85.8948 12.7102 85.8948 10.6722C85.8948 9.24303 86.9425 8.36967 88.7058 8.36967C90.7502 8.36967 91.9767 9.56073 92.2579 11.0957Z" fill="#403F41"/>
</svg>
