<svg width="696" height="100" viewBox="0 0 696 100" fill="none" xmlns="http://www.w3.org/2000/svg">
<path opacity="0.91" d="M195.868 122.885C194.944 124.673 194.698 126.384 195.131 128.02C195.563 129.656 196.619 130.893 198.299 131.73C199.958 132.557 201.588 132.658 203.188 132.035C204.788 131.411 206.05 130.206 206.974 128.419C207.887 126.653 208.127 124.951 207.695 123.315C207.252 121.648 206.212 120.406 204.574 119.59C202.915 118.763 201.269 118.667 199.638 119.301C198.038 119.924 196.781 121.119 195.868 122.885ZM200.019 128.402C199.21 127.999 198.689 127.417 198.457 126.655C198.246 125.904 198.347 125.128 198.761 124.327C199.186 123.505 199.769 122.957 200.512 122.681C201.275 122.415 202.061 122.484 202.87 122.887C203.658 123.28 204.152 123.862 204.353 124.634C204.585 125.395 204.495 126.176 204.081 126.978C203.666 127.779 203.078 128.312 202.315 128.578C201.572 128.853 200.807 128.795 200.019 128.402ZM191.646 103.656C190.722 105.443 190.476 107.154 190.909 108.79C191.341 110.426 192.397 111.663 194.077 112.5C195.736 113.327 197.366 113.428 198.966 112.805C200.566 112.182 201.828 110.976 202.752 109.189C203.665 107.423 203.905 105.721 203.473 104.085C203.03 102.418 201.99 101.177 200.352 100.36C198.692 99.5335 197.047 99.437 195.416 100.071C193.815 100.694 192.559 101.889 191.646 103.656ZM195.797 109.172C194.988 108.769 194.467 108.187 194.235 107.426C194.023 106.674 194.125 105.898 194.539 105.097C194.964 104.275 195.547 103.727 196.29 103.451C197.053 103.185 197.839 103.254 198.648 103.657C199.436 104.05 199.93 104.632 200.131 105.404C200.363 106.165 200.273 106.947 199.858 107.748C199.444 108.549 198.856 109.082 198.093 109.348C197.35 109.623 196.585 109.565 195.797 109.172ZM184.607 117.197L184.987 119.944L214.059 114.862L213.57 112.1L184.607 117.197Z" fill="black" fill-opacity="0.15"/>
<path opacity="0.92" d="M270.841 108.879L267.659 108.17L266.963 111.123L270.145 111.832L267.801 121.783C268.753 121.996 269.779 122.235 270.878 122.503C271.977 122.77 273.09 123.029 274.215 123.28C280.082 124.588 283.532 123.048 284.566 118.661C285.035 116.671 284.678 114.947 283.494 113.49C282.311 112.032 280.41 111.012 277.79 110.428L274.803 109.762L275.43 107.098L280.756 108.285L281.452 105.332L276.126 104.145L277.056 100.197L273.095 99.3136L272.165 103.262L268.982 102.553L268.286 105.506L271.469 106.215L270.841 108.879ZM275.507 119.683C275.486 119.678 274.527 119.442 272.632 118.975L274.107 112.715L276.965 113.352C279.757 113.975 280.912 115.313 280.428 117.367C280.16 118.501 279.62 119.248 278.806 119.607C278.014 119.971 276.914 119.997 275.507 119.683Z" fill="black" fill-opacity="0.15"/>
<path opacity="0.92" d="M354.661 97.844C356.739 98.5806 358.65 98.6025 360.392 97.9099C362.135 97.2173 363.36 95.9136 364.069 93.999C364.769 92.1079 364.676 90.3504 363.791 88.7265C362.905 87.1027 361.423 85.9224 359.345 85.1859C357.29 84.4578 355.392 84.4401 353.649 85.1327C351.874 85.8405 350.641 87.1281 349.95 88.9955C349.25 90.8865 349.35 92.66 350.251 94.316C351.136 95.9399 352.606 97.1159 354.661 97.844ZM360.199 92.6274C359.857 93.5493 359.283 94.1881 358.476 94.5437C357.678 94.8758 356.813 94.8767 355.881 94.5465C354.925 94.2079 354.249 93.6609 353.853 92.9056C353.466 92.1266 353.443 91.2762 353.784 90.3543C354.116 89.456 354.694 88.8451 355.516 88.5216C356.323 88.1659 357.193 88.1532 358.125 88.4834C359.056 88.8135 359.716 89.3681 360.103 90.1471C360.499 90.9024 360.531 91.7292 360.199 92.6274ZM334.071 105.066C336.15 105.803 338.06 105.825 339.803 105.132C341.546 104.44 342.771 103.136 343.48 101.221C344.18 99.3303 344.087 97.5728 343.201 95.9489C342.316 94.325 340.834 93.1448 338.756 92.4082C336.701 91.6802 334.803 91.6624 333.06 92.355C331.285 93.0628 330.052 94.3504 329.361 96.2178C328.661 98.1089 328.761 99.8824 329.662 101.538C330.547 103.162 332.017 104.338 334.071 105.066ZM339.61 99.8498C339.268 100.772 338.694 101.41 337.887 101.766C337.089 102.098 336.223 102.099 335.292 101.769C334.336 101.43 333.66 100.883 333.264 100.128C332.877 99.349 332.854 98.4985 333.195 97.5767C333.527 96.6784 334.105 96.0675 334.927 95.744C335.734 95.3883 336.604 95.3756 337.535 95.7057C338.467 96.0359 339.127 96.5905 339.514 97.3695C339.91 98.1248 339.942 98.9516 339.61 99.8498ZM349.826 110.689L352.795 109.897L343.568 79.5146L340.595 80.4266L349.826 110.689Z" fill="black" fill-opacity="0.15"/>
<path opacity="0.74" d="M393.856 22.9506C391.979 23.9857 390.739 25.35 390.136 27.0435C389.533 28.7369 389.714 30.4425 390.678 32.1602C391.63 33.8566 392.991 34.8972 394.761 35.2819C396.53 35.6667 398.354 35.3415 400.23 34.3064C402.086 33.2832 403.315 31.9249 403.918 30.2314C404.531 28.5049 404.367 26.804 403.427 25.1287C402.474 23.4322 401.097 22.387 399.293 21.9929C397.524 21.6082 395.711 21.9275 393.856 22.9506ZM394.172 30.2328C393.708 29.4057 393.603 28.589 393.856 27.7826C394.122 26.9975 394.675 26.3729 395.517 25.9089C396.379 25.433 397.217 25.2902 398.031 25.4805C398.856 25.692 399.5 26.2112 399.964 27.0383C400.417 27.8441 400.499 28.6455 400.212 29.4426C399.959 30.249 399.411 30.8842 398.57 31.3482C397.729 31.8122 396.895 31.9384 396.07 31.7269C395.257 31.5366 394.625 31.0386 394.172 30.2328ZM401.695 3.54777C399.818 4.58286 398.578 5.94713 397.975 7.64059C397.372 9.33404 397.552 11.0396 398.516 12.7573C399.469 14.4538 400.83 15.4943 402.599 15.8791C404.369 16.2638 406.192 15.9386 408.069 14.9035C409.924 13.8803 411.153 12.522 411.756 10.8286C412.369 9.102 412.206 7.40109 411.265 5.72582C410.313 4.02935 408.935 2.9841 407.132 2.59007C405.362 2.20535 403.55 2.52459 401.695 3.54777ZM402.011 10.8299C401.547 10.0028 401.441 9.18614 401.695 8.37976C401.96 7.59459 402.514 6.97 403.355 6.50599C404.218 6.03009 405.056 5.88729 405.869 6.07759C406.694 6.28909 407.339 6.80835 407.803 7.63538C408.255 8.44121 408.338 9.24265 408.051 10.0397C407.797 10.8461 407.25 11.4813 406.408 11.9453C405.567 12.4093 404.734 12.5356 403.909 12.3241C403.096 12.1338 402.463 11.6357 402.011 10.8299ZM387.439 11.3684L386.125 14.0094L414.536 26.4998L415.764 23.7811L387.439 11.3684Z" fill="black" fill-opacity="0.15"/>
<path opacity="0.74" d="M457.779 26.7589C459.149 27.5147 460.055 28.511 460.495 29.7476C460.936 30.9842 460.804 32.2297 460.1 33.484C459.404 34.7228 458.411 35.4827 457.118 35.7636C455.826 36.0446 454.495 35.8071 453.124 35.0513C451.769 34.3041 450.872 33.3122 450.431 32.0756C449.984 30.8148 450.103 29.5727 450.79 28.3494C451.485 27.1105 452.492 26.3473 453.808 26.0595C455.101 25.7786 456.424 26.0117 457.779 26.7589ZM457.548 32.0765C457.887 31.4726 457.964 30.8762 457.779 30.2874C457.585 29.714 457.181 29.2579 456.566 28.9191C455.936 28.5716 455.324 28.4673 454.731 28.6062C454.128 28.7607 453.657 29.1399 453.318 29.7438C452.988 30.3322 452.928 30.9175 453.137 31.4995C453.323 32.0884 453.722 32.5522 454.337 32.8911C454.951 33.2299 455.559 33.3221 456.162 33.1676C456.756 33.0287 457.218 32.665 457.548 32.0765ZM452.055 12.5902C453.425 13.346 454.331 14.3423 454.771 15.5789C455.212 16.8155 455.08 18.061 454.376 19.3153C453.68 20.5541 452.687 21.314 451.394 21.5949C450.102 21.8759 448.771 21.6384 447.4 20.8826C446.045 20.1354 445.148 19.1435 444.707 17.9069C444.26 16.6461 444.379 15.404 445.066 14.1807C445.761 12.9418 446.768 12.1786 448.084 11.8908C449.377 11.6099 450.7 11.843 452.055 12.5902ZM451.824 17.9078C452.163 17.3039 452.24 16.7075 452.055 16.1187C451.861 15.5453 451.457 15.0892 450.842 14.7504C450.212 14.4029 449.6 14.2986 449.007 14.4375C448.404 14.592 447.933 14.9712 447.594 15.5751C447.264 16.1635 447.204 16.7488 447.413 17.3308C447.599 17.9197 447.998 18.3835 448.613 18.7224C449.227 19.0612 449.835 19.1534 450.438 18.9989C451.032 18.86 451.494 18.4963 451.824 17.9078ZM462.465 18.3011L463.424 20.2297L442.678 29.3506L441.781 27.3653L462.465 18.3011Z" fill="black" fill-opacity="0.15"/>
<path opacity="0.99" d="M326.473 44.986C327.992 43.5827 328.834 42.0179 329 40.2919C329.165 38.5658 328.591 37.0093 327.277 35.6226C325.98 34.2529 324.453 33.5922 322.698 33.6405C320.942 33.6888 319.305 34.4146 317.786 35.818C316.284 37.2052 315.45 38.7618 315.285 40.4879C315.118 42.2473 315.675 43.8032 316.957 45.1557C318.255 46.5254 319.798 47.1866 321.587 47.1393C323.342 47.091 324.971 46.3733 326.473 44.986ZM324.448 38.2357C325.081 38.9034 325.374 39.6444 325.326 40.4585C325.263 41.2555 324.891 41.9686 324.21 42.5977C323.511 43.2429 322.757 43.5703 321.947 43.5798C321.122 43.5721 320.392 43.2345 319.76 42.5668C319.143 41.9162 318.875 41.1843 318.956 40.3712C319.004 39.557 319.368 38.8354 320.049 38.2063C320.73 37.5772 321.483 37.2664 322.309 37.2741C323.119 37.2646 323.832 37.5851 324.448 38.2357ZM323.703 64.9771C325.222 63.5737 326.065 62.009 326.23 60.2829C326.396 58.5568 325.822 57.0004 324.508 55.6136C323.21 54.244 321.684 53.5833 319.928 53.6316C318.173 53.6798 316.536 54.4057 315.017 55.809C313.515 57.1962 312.681 58.7529 312.515 60.479C312.349 62.2383 312.906 63.7943 314.187 65.1468C315.485 66.5165 317.029 67.1776 318.818 67.1303C320.573 67.0821 322.201 66.3643 323.703 64.9771ZM321.679 58.2268C322.312 58.8945 322.604 59.6354 322.557 60.4496C322.494 61.2466 322.121 61.9597 321.44 62.5888C320.742 63.234 319.988 63.5614 319.178 63.5708C318.352 63.5632 317.623 63.2255 316.99 62.5578C316.374 61.9073 316.106 61.1754 316.187 60.3622C316.234 59.5481 316.598 58.8264 317.279 58.1973C317.96 57.5682 318.714 57.2575 319.54 57.2651C320.349 57.2557 321.063 57.5762 321.679 58.2268ZM335.253 54.3566L335.862 51.5783L306.186 46.437L305.675 49.2681L335.253 54.3566Z" fill="black" fill-opacity="0.15"/>
<path opacity="0.99" d="M345.678 9.67467C344.627 8.70391 344.045 7.62153 343.93 6.42753C343.816 5.23353 344.213 4.15688 345.122 3.1976C346.019 2.25017 347.075 1.79314 348.29 1.82653C349.504 1.85993 350.636 2.362 351.687 3.33276C352.726 4.29236 353.303 5.36916 353.417 6.56317C353.533 7.78017 353.147 8.85647 352.261 9.79207C351.363 10.7395 350.295 11.1969 349.058 11.1642C347.844 11.1308 346.717 10.6343 345.678 9.67467ZM347.079 5.00522C346.641 5.4671 346.438 5.97963 346.471 6.54281C346.515 7.09416 346.773 7.58741 347.244 8.02258C347.727 8.4689 348.248 8.69535 348.809 8.70192C349.38 8.69664 349.884 8.46306 350.322 8.00119C350.748 7.55115 350.934 7.04489 350.878 6.48239C350.845 5.9192 350.593 5.42002 350.122 4.98486C349.651 4.54969 349.13 4.33474 348.558 4.34002C347.998 4.33346 347.505 4.55519 347.079 5.00522ZM347.594 23.5033C346.543 22.5325 345.96 21.4501 345.846 20.2561C345.731 19.0621 346.128 17.9855 347.037 17.0262C347.935 16.0788 348.991 15.6217 350.205 15.6551C351.419 15.6885 352.552 16.1906 353.603 17.1613C354.642 18.121 355.218 19.1978 355.333 20.3918C355.448 21.6088 355.063 22.6851 354.176 23.6207C353.279 24.5681 352.211 25.0255 350.974 24.9928C349.759 24.9594 348.633 24.4629 347.594 23.5033ZM348.994 18.8338C348.557 19.2957 348.354 19.8082 348.387 20.3714C348.431 20.9227 348.688 21.416 349.159 21.8512C349.643 22.2975 350.164 22.5239 350.724 22.5305C351.296 22.5252 351.8 22.2916 352.238 21.8298C352.664 21.3797 352.849 20.8735 352.793 20.311C352.761 19.7478 352.509 19.2486 352.038 18.8134C351.566 18.3783 351.045 18.1633 350.474 18.1686C349.914 18.162 349.421 18.3838 348.994 18.8338ZM339.605 16.1566L339.183 14.2348L359.712 10.6783L360.065 12.6367L339.605 16.1566Z" fill="black" fill-opacity="0.15"/>
<path opacity="0.99" d="M537.678 46.6747C536.627 45.7039 536.045 44.6215 535.93 43.4275C535.816 42.2335 536.213 41.1569 537.122 40.1976C538.019 39.2502 539.075 38.7931 540.29 38.8265C541.504 38.8599 542.636 39.362 543.687 40.3328C544.726 41.2924 545.303 42.3692 545.417 43.5632C545.533 44.7802 545.147 45.8565 544.261 46.7921C543.363 47.7395 542.295 48.1969 541.058 48.1642C539.844 48.1308 538.717 47.6343 537.678 46.6747ZM539.079 42.0052C538.641 42.4671 538.438 42.9796 538.471 43.5428C538.515 44.0942 538.773 44.5874 539.244 45.0226C539.727 45.4689 540.248 45.6954 540.809 45.7019C541.38 45.6966 541.884 45.4631 542.322 45.0012C542.748 44.5512 542.934 44.0449 542.878 43.4824C542.845 42.9192 542.593 42.42 542.122 41.9849C541.651 41.5497 541.13 41.3347 540.558 41.34C539.998 41.3335 539.505 41.5552 539.079 42.0052ZM539.594 60.5033C538.543 59.5325 537.96 58.4501 537.846 57.2561C537.731 56.0621 538.128 54.9855 539.037 54.0262C539.935 53.0788 540.991 52.6217 542.205 52.6551C543.419 52.6885 544.552 53.1906 545.603 54.1613C546.642 55.121 547.218 56.1978 547.333 57.3918C547.448 58.6088 547.063 59.6851 546.176 60.6207C545.279 61.5681 544.211 62.0255 542.974 61.9928C541.759 61.9594 540.633 61.4629 539.594 60.5033ZM540.994 55.8338C540.557 56.2957 540.354 56.8082 540.387 57.3714C540.431 57.9227 540.688 58.416 541.159 58.8512C541.643 59.2975 542.164 59.5239 542.724 59.5305C543.296 59.5252 543.8 59.2916 544.238 58.8298C544.664 58.3797 544.849 57.8735 544.793 57.311C544.761 56.7478 544.509 56.2486 544.038 55.8134C543.566 55.3783 543.045 55.1633 542.474 55.1686C541.914 55.162 541.421 55.3838 540.994 55.8338ZM531.605 53.1566L531.183 51.2348L551.712 47.6783L552.065 49.6367L531.605 53.1566Z" fill="black" fill-opacity="0.15"/>
<path opacity="0.99" d="M512.681 12.713C510.614 12.7936 508.958 13.4364 507.711 14.6415C506.464 15.8466 505.89 17.4031 505.989 19.3109C506.086 21.1952 506.818 22.6889 508.184 23.7921C509.55 24.8953 511.267 25.4066 513.333 25.326C515.376 25.2463 517.021 24.6039 518.268 23.3988C519.537 22.1693 520.124 20.6241 520.028 18.7634C519.93 16.8791 519.186 15.374 517.795 14.2482C516.428 13.1451 514.724 12.6333 512.681 12.713ZM509.837 19.1608C509.789 18.2422 510.048 17.4887 510.613 16.9003C511.178 16.3354 511.925 16.0349 512.851 15.9987C513.801 15.9617 514.587 16.2024 515.209 16.721C515.832 17.2631 516.167 17.9935 516.215 18.9121C516.261 19.8071 515.99 20.5376 515.4 21.1034C514.835 21.6918 514.09 22.0041 513.163 22.0402C512.237 22.0764 511.462 21.8234 510.839 21.2813C510.217 20.7627 509.883 20.0559 509.837 19.1608ZM527.769 -0.690869C525.702 -0.610266 524.046 0.0325767 522.799 1.23766C521.552 2.44274 520.978 3.99921 521.077 5.90705C521.174 7.79135 521.906 9.28508 523.272 10.3883C524.638 11.4914 526.355 12.0027 528.421 11.9221C530.464 11.8424 532.109 11.2 533.356 9.99497C534.625 8.7654 535.212 7.22025 535.116 5.35951C535.018 3.47522 534.274 1.97018 532.883 0.844377C531.517 -0.258796 529.812 -0.770545 527.769 -0.690869ZM524.925 5.75697C524.877 4.83838 525.136 4.08485 525.701 3.49641C526.266 2.93151 527.013 2.631 527.939 2.59486C528.889 2.55781 529.675 2.79856 530.297 3.31714C530.92 3.85926 531.255 4.58962 531.303 5.50821C531.349 6.40325 531.078 7.13368 530.488 7.6995C529.923 8.28795 529.178 8.60024 528.251 8.63637C527.325 8.6725 526.55 8.41951 525.927 7.87738C525.305 7.35881 524.971 6.65201 524.925 5.75697ZM512.089 -0.114735L509.822 1.60219L529.051 24.7838L531.277 22.9623L512.089 -0.114735Z" fill="black" fill-opacity="0.15"/>
<path opacity="0.8" d="M495.626 107.052L494.613 103.546L497.954 102.585L498.967 106.09L510.226 102.849C510.529 103.898 510.868 105.027 511.244 106.236C511.62 107.445 511.987 108.67 512.345 109.91C514.213 116.372 512.665 120.318 507.702 121.747C505.45 122.395 503.452 122.105 501.707 120.877C499.962 119.649 498.672 117.592 497.838 114.706L496.887 111.416L493.873 112.284L495.568 118.15L492.227 119.112L490.532 113.245L486.065 114.532L484.803 110.168L489.27 108.882L488.257 105.376L491.599 104.414L492.612 107.92L495.626 107.052ZM508.303 111.577C508.296 111.554 507.965 110.499 507.31 108.415L500.229 110.454L501.138 113.601C502.027 116.678 503.634 117.881 505.958 117.212C507.242 116.842 508.064 116.193 508.424 115.262C508.792 114.356 508.751 113.127 508.303 111.577Z" fill="black" fill-opacity="0.15"/>
<path opacity="0.91" d="M491.35 73.8381C489.454 73.1671 488.103 72.0872 487.299 70.5984C486.494 69.1095 486.418 67.4852 487.07 65.7253C487.714 63.9871 488.833 62.7978 490.427 62.1573C492.02 61.5169 493.765 61.5322 495.661 62.2032C497.536 62.8664 498.876 63.9425 499.68 65.4313C500.498 66.9496 500.589 68.567 499.953 70.2834C499.309 72.0216 498.176 73.2179 496.552 73.8724C494.959 74.5128 493.225 74.5014 491.35 73.8381ZM490.602 66.9747C490.288 67.8221 490.307 68.6029 490.658 69.3172C491.018 70.0097 491.623 70.5064 492.473 70.8072C493.345 71.1157 494.146 71.1165 494.876 70.8096C495.615 70.4809 496.141 69.8929 496.455 69.0455C496.761 68.2199 496.723 67.457 496.341 66.7567C495.989 66.0424 495.388 65.5349 494.538 65.2341C493.688 64.9333 492.894 64.9472 492.156 65.2759C491.426 65.5828 490.908 66.1491 490.602 66.9747ZM501.431 90.7495C499.534 90.0785 498.184 88.9986 497.379 87.5098C496.575 86.0209 496.499 84.3966 497.151 82.6366C497.795 80.8985 498.914 79.7092 500.507 79.0687C502.101 78.4283 503.846 78.4436 505.742 79.1146C507.617 79.7779 508.956 80.8539 509.761 82.3427C510.579 83.861 510.67 85.4784 510.034 87.1948C509.39 88.933 508.256 90.1293 506.633 90.7838C505.039 91.4242 503.305 91.4128 501.431 90.7495ZM500.682 83.8861C500.368 84.7335 500.387 85.5143 500.739 86.2286C501.099 86.9211 501.704 87.4178 502.554 87.7186C503.426 88.0271 504.227 88.0279 504.957 87.721C505.695 87.3923 506.221 86.8043 506.535 85.9569C506.841 85.1313 506.803 84.3684 506.422 83.6681C506.07 82.9538 505.469 82.4463 504.619 82.1455C503.769 81.8447 502.975 81.8586 502.237 82.1873C501.506 82.4942 500.988 83.0605 500.682 83.8861ZM487.032 85.6917L485.429 83.429L510.105 67.2399L511.639 69.5888L487.032 85.6917Z" fill="black" fill-opacity="0.15"/>
<path opacity="0.91" d="M487.718 37.3837C486.716 37.0293 486.003 36.4589 485.578 35.6725C485.153 34.8861 485.113 34.0281 485.457 33.0986C485.797 32.1805 486.388 31.5523 487.23 31.214C488.072 30.8757 488.993 30.8838 489.995 31.2382C490.985 31.5886 491.693 32.1569 492.118 32.9433C492.55 33.7453 492.598 34.5995 492.262 35.5061C491.922 36.4242 491.323 37.0561 490.466 37.4018C489.624 37.7401 488.708 37.734 487.718 37.3837ZM487.323 33.7585C487.157 34.2061 487.167 34.6185 487.352 34.9958C487.542 35.3616 487.862 35.6239 488.311 35.7828C488.772 35.9457 489.195 35.9461 489.58 35.784C489.97 35.6105 490.248 35.2999 490.414 34.8523C490.576 34.4162 490.556 34.0132 490.354 33.6434C490.168 33.2661 489.851 32.998 489.402 32.8391C488.953 32.6803 488.533 32.6876 488.143 32.8612C487.758 33.0233 487.484 33.3224 487.323 33.7585ZM493.042 46.3161C492.041 45.9617 491.327 45.3913 490.902 44.6049C490.478 43.8185 490.437 42.9606 490.782 42.031C491.122 41.1129 491.713 40.4847 492.555 40.1464C493.396 39.8082 494.318 39.8162 495.32 40.1707C496.31 40.521 497.017 41.0894 497.442 41.8758C497.874 42.6777 497.922 43.532 497.586 44.4386C497.246 45.3567 496.647 45.9886 495.79 46.3342C494.948 46.6725 494.033 46.6665 493.042 46.3161ZM492.647 42.6909C492.481 43.1385 492.491 43.5509 492.677 43.9282C492.867 44.294 493.187 44.5563 493.636 44.7152C494.096 44.8782 494.519 44.8786 494.905 44.7165C495.295 44.5429 495.573 44.2323 495.739 43.7847C495.9 43.3487 495.88 42.9457 495.679 42.5758C495.493 42.1985 495.175 41.9305 494.726 41.7716C494.277 41.6127 493.858 41.6201 493.468 41.7936C493.082 41.9557 492.809 42.2548 492.647 42.6909ZM485.437 43.6447L484.59 42.4495L497.624 33.8986L498.434 35.1393L485.437 43.6447Z" fill="black" fill-opacity="0.15"/>
<path opacity="0.91" d="M415.718 64.3837C414.716 64.0293 414.003 63.4589 413.578 62.6725C413.153 61.8861 413.113 61.0281 413.457 60.0986C413.797 59.1805 414.388 58.5523 415.23 58.214C416.072 57.8757 416.993 57.8838 417.995 58.2382C418.985 58.5886 419.693 59.1569 420.118 59.9433C420.55 60.7453 420.598 61.5995 420.262 62.5061C419.922 63.4242 419.323 64.0561 418.466 64.4018C417.624 64.7401 416.708 64.734 415.718 64.3837ZM415.323 60.7585C415.157 61.2061 415.167 61.6185 415.352 61.9958C415.542 62.3616 415.862 62.6239 416.311 62.7828C416.772 62.9457 417.195 62.9461 417.58 62.784C417.97 62.6105 418.248 62.2999 418.414 61.8523C418.576 61.4162 418.556 61.0132 418.354 60.6434C418.168 60.2661 417.851 59.998 417.402 59.8391C416.953 59.6803 416.533 59.6876 416.143 59.8612C415.758 60.0233 415.484 60.3224 415.323 60.7585ZM421.042 73.3161C420.041 72.9617 419.327 72.3913 418.902 71.6049C418.478 70.8185 418.437 69.9606 418.782 69.031C419.122 68.1129 419.713 67.4847 420.555 67.1464C421.396 66.8082 422.318 66.8162 423.32 67.1707C424.31 67.521 425.017 68.0894 425.442 68.8758C425.874 69.6777 425.922 70.532 425.586 71.4386C425.246 72.3567 424.647 72.9886 423.79 73.3342C422.948 73.6725 422.033 73.6665 421.042 73.3161ZM420.647 69.6909C420.481 70.1385 420.491 70.5509 420.677 70.9282C420.867 71.294 421.187 71.5563 421.636 71.7152C422.096 71.8782 422.519 71.8786 422.905 71.7165C423.295 71.5429 423.573 71.2323 423.739 70.7847C423.9 70.3487 423.88 69.9457 423.679 69.5758C423.493 69.1985 423.175 68.9305 422.726 68.7716C422.277 68.6127 421.858 68.6201 421.468 68.7936C421.082 68.9557 420.809 69.2548 420.647 69.6909ZM413.437 70.6447L412.59 69.4495L425.624 60.8986L426.434 62.1393L413.437 70.6447Z" fill="black" fill-opacity="0.15"/>
<path opacity="0.91" d="M475.325 98.3837C476.327 98.0293 477.04 97.4589 477.465 96.6725C477.89 95.8861 477.93 95.0281 477.586 94.0986C477.245 93.1805 476.655 92.5523 475.813 92.214C474.971 91.8757 474.05 91.8838 473.048 92.2382C472.058 92.5886 471.35 93.1569 470.925 93.9433C470.493 94.7453 470.445 95.5995 470.781 96.5061C471.121 97.4242 471.72 98.0561 472.577 98.4018C473.419 98.7401 474.335 98.734 475.325 98.3837ZM475.72 94.7585C475.886 95.2061 475.876 95.6185 475.691 95.9958C475.501 96.3616 475.181 96.6239 474.732 96.7828C474.271 96.9457 473.848 96.9461 473.463 96.784C473.073 96.6105 472.795 96.2999 472.629 95.8523C472.467 95.4162 472.487 95.0132 472.689 94.6434C472.875 94.2661 473.192 93.998 473.641 93.8391C474.09 93.6803 474.51 93.6876 474.9 93.8612C475.285 94.0233 475.559 94.3224 475.72 94.7585ZM470.001 107.316C471.002 106.962 471.716 106.391 472.141 105.605C472.565 104.819 472.606 103.961 472.261 103.031C471.921 102.113 471.33 101.485 470.488 101.146C469.647 100.808 468.725 100.816 467.723 101.171C466.733 101.521 466.026 102.089 465.601 102.876C465.169 103.678 465.121 104.532 465.456 105.439C465.797 106.357 466.396 106.989 467.253 107.334C468.095 107.673 469.01 107.666 470.001 107.316ZM470.396 103.691C470.562 104.139 470.552 104.551 470.366 104.928C470.176 105.294 469.856 105.556 469.407 105.715C468.947 105.878 468.524 105.879 468.138 105.716C467.748 105.543 467.47 105.232 467.304 104.785C467.143 104.349 467.163 103.946 467.364 103.576C467.55 103.199 467.868 102.93 468.317 102.772C468.766 102.613 469.185 102.62 469.575 102.794C469.961 102.956 470.234 103.255 470.396 103.691ZM477.606 104.645L478.453 103.45L465.419 94.8986L464.609 96.1393L477.606 104.645Z" fill="black" fill-opacity="0.15"/>
<path opacity="0.91" d="M305.325 86.3837C306.327 86.0293 307.04 85.4589 307.465 84.6725C307.89 83.8861 307.93 83.0281 307.586 82.0986C307.245 81.1805 306.655 80.5523 305.813 80.214C304.971 79.8757 304.05 79.8838 303.048 80.2382C302.058 80.5886 301.35 81.1569 300.925 81.9433C300.493 82.7453 300.445 83.5995 300.781 84.5061C301.121 85.4242 301.72 86.0561 302.577 86.4018C303.419 86.7401 304.335 86.734 305.325 86.3837ZM305.72 82.7585C305.886 83.2061 305.876 83.6185 305.691 83.9958C305.501 84.3616 305.181 84.6239 304.732 84.7828C304.271 84.9457 303.848 84.9461 303.463 84.784C303.073 84.6105 302.795 84.2999 302.629 83.8523C302.467 83.4162 302.487 83.0132 302.689 82.6434C302.875 82.2661 303.192 81.998 303.641 81.8391C304.09 81.6803 304.51 81.6876 304.9 81.8612C305.285 82.0233 305.559 82.3224 305.72 82.7585ZM300.001 95.3161C301.002 94.9617 301.716 94.3913 302.141 93.6049C302.565 92.8185 302.606 91.9606 302.261 91.031C301.921 90.1129 301.33 89.4847 300.488 89.1464C299.647 88.8082 298.725 88.8162 297.723 89.1707C296.733 89.521 296.026 90.0894 295.601 90.8758C295.169 91.6777 295.121 92.532 295.456 93.4386C295.797 94.3567 296.396 94.9886 297.253 95.3342C298.095 95.6725 299.01 95.6665 300.001 95.3161ZM300.396 91.6909C300.562 92.1385 300.552 92.5509 300.366 92.9282C300.176 93.294 299.856 93.5563 299.407 93.7152C298.947 93.8782 298.524 93.8786 298.138 93.7165C297.748 93.5429 297.47 93.2323 297.304 92.7847C297.143 92.3487 297.163 91.9457 297.364 91.5758C297.55 91.1985 297.868 90.9305 298.317 90.7716C298.766 90.6127 299.185 90.6201 299.575 90.7936C299.961 90.9557 300.234 91.2548 300.396 91.6909ZM307.606 92.6447L308.453 91.4495L295.419 82.8986L294.609 84.1393L307.606 92.6447Z" fill="black" fill-opacity="0.15"/>
<path opacity="0.91" d="M562.475 26.6974C561.413 26.6884 560.552 26.3813 559.895 25.7761C559.237 25.1709 558.92 24.3728 558.943 23.3817C558.965 22.4029 559.32 21.6165 560.005 21.0227C560.691 20.4288 561.565 20.1364 562.628 20.1454C563.678 20.1543 564.532 20.4613 565.19 21.0665C565.859 21.6841 566.183 22.4762 566.16 23.4428C566.138 24.4216 565.777 25.214 565.079 25.82C564.393 26.4138 563.525 26.7063 562.475 26.6974ZM560.921 23.3984C560.91 23.8756 561.054 24.2623 561.352 24.5585C561.651 24.8425 562.039 24.9866 562.515 24.9906C563.003 24.9947 563.404 24.8574 563.715 24.5785C564.028 24.2875 564.189 23.9034 564.2 23.4262C564.211 22.9612 564.061 22.5867 563.75 22.3026C563.452 22.0064 563.064 21.8562 562.588 21.8522C562.112 21.8482 561.717 21.9917 561.405 22.2828C561.093 22.5616 560.932 22.9335 560.921 23.3984ZM570.418 33.4098C569.355 33.4008 568.495 33.0937 567.837 32.4885C567.179 31.8832 566.862 31.0851 566.885 30.094C566.908 29.1152 567.262 28.3289 567.948 27.735C568.633 27.1411 569.508 26.8487 570.57 26.8577C571.62 26.8666 572.474 27.1737 573.132 27.7789C573.802 28.3964 574.125 29.1885 574.103 30.1551C574.08 31.1339 573.72 31.9263 573.022 32.5323C572.336 33.1262 571.468 33.4187 570.418 33.4098ZM568.864 30.1108C568.853 30.5879 568.996 30.9747 569.295 31.2709C569.593 31.5549 569.981 31.6989 570.457 31.7029C570.946 31.7071 571.346 31.5697 571.658 31.2909C571.97 30.9998 572.132 30.6157 572.143 30.1385C572.154 29.6736 572.004 29.299 571.693 29.0149C571.394 28.7187 571.007 28.5686 570.53 28.5645C570.054 28.5605 569.66 28.704 569.348 28.9951C569.036 29.2739 568.874 29.6458 568.864 30.1108ZM562.357 33.3599L561.167 32.5054L570.707 20.177L571.877 21.0864L562.357 33.3599Z" fill="black" fill-opacity="0.15"/>
<path opacity="0.91" d="M565.111 65.9964C564.354 65.6024 563.851 65.069 563.601 64.3961C563.351 63.7231 563.415 63.0363 563.793 62.3356C564.166 61.6436 564.706 61.2102 565.414 61.0353C566.121 60.8605 566.853 60.9701 567.61 61.3641C568.358 61.7535 568.857 62.2847 569.107 62.9576C569.361 63.6437 569.303 64.3284 568.935 65.0118C568.562 65.7039 568.015 66.1394 567.294 66.3183C566.587 66.4931 565.859 66.3858 565.111 65.9964ZM565.202 63.0692C565.02 63.4066 564.982 63.7357 565.088 64.0565C565.198 64.3687 565.423 64.613 565.762 64.7896C566.11 64.9708 566.446 65.0185 566.771 64.9327C567.101 64.8383 567.356 64.6224 567.538 64.285C567.716 63.9563 567.745 63.6336 567.626 63.3169C567.521 62.9961 567.298 62.7474 566.959 62.5708C566.619 62.3942 566.285 62.3531 565.956 62.4475C565.631 62.5333 565.38 62.7405 565.202 63.0692ZM568.346 73.6958C567.589 73.3019 567.085 72.7684 566.835 72.0955C566.585 71.4226 566.65 70.7358 567.027 70.0351C567.401 69.343 567.941 68.9096 568.648 68.7348C569.355 68.56 570.087 68.6695 570.844 69.0635C571.593 69.4529 572.092 69.9841 572.342 70.657C572.595 71.3431 572.538 72.0279 572.169 72.7113C571.796 73.4033 571.249 73.8388 570.529 74.0178C569.822 74.1926 569.094 74.0853 568.346 73.6958ZM568.437 70.7687C568.255 71.106 568.217 71.4351 568.322 71.7559C568.432 72.0681 568.657 72.3125 568.997 72.4891C569.345 72.6702 569.681 72.7179 570.006 72.6322C570.335 72.5378 570.591 72.3219 570.773 71.9845C570.95 71.6558 570.98 71.3331 570.861 71.0164C570.755 70.6956 570.533 70.4468 570.193 70.2702C569.854 70.0936 569.52 70.0525 569.19 70.1469C568.865 70.2327 568.614 70.4399 568.437 70.7687ZM562.596 70.7202L562.057 69.675L573.379 64.3336L573.884 65.4109L562.596 70.7202Z" fill="black" fill-opacity="0.15"/>
<path opacity="0.91" d="M512.764 46.6193C511.702 46.6103 510.842 46.3032 510.184 45.698C509.526 45.0928 509.209 44.2946 509.232 43.3036C509.254 42.3247 509.609 41.5384 510.294 40.9445C510.98 40.3507 511.854 40.0583 512.917 40.0672C513.967 40.0761 514.821 40.3832 515.479 40.9884C516.148 41.606 516.472 42.398 516.45 43.3646C516.427 44.3435 516.066 45.1359 515.368 45.7419C514.682 46.3357 513.814 46.6282 512.764 46.6193ZM511.21 43.3203C511.199 43.7975 511.343 44.1842 511.641 44.4804C511.94 44.7644 512.328 44.9084 512.804 44.9125C513.292 44.9166 513.693 44.7792 514.004 44.5004C514.317 44.2094 514.478 43.8252 514.489 43.348C514.5 42.8831 514.35 42.5086 514.039 42.2245C513.741 41.9282 513.353 41.7781 512.877 41.7741C512.401 41.7701 512.006 41.9136 511.694 42.2046C511.382 42.4835 511.221 42.8554 511.21 43.3203ZM520.707 53.3316C519.644 53.3227 518.784 53.0155 518.126 52.4103C517.469 51.8051 517.151 51.007 517.174 50.0159C517.197 49.0371 517.551 48.2507 518.237 47.6569C518.923 47.063 519.797 46.7706 520.859 46.7796C521.909 46.7885 522.763 47.0955 523.421 47.7007C524.091 48.3183 524.415 49.1104 524.392 50.077C524.369 51.0558 524.009 51.8482 523.311 52.4542C522.625 53.048 521.757 53.3405 520.707 53.3316ZM519.153 50.0326C519.142 50.5098 519.285 50.8965 519.584 51.1928C519.883 51.4768 520.27 51.6208 520.746 51.6248C521.235 51.6289 521.635 51.4916 521.947 51.2128C522.259 50.9217 522.421 50.5376 522.432 50.0604C522.443 49.5954 522.293 49.2209 521.982 48.9368C521.683 48.6406 521.296 48.4905 520.819 48.4864C520.343 48.4824 519.949 48.6259 519.637 48.917C519.325 49.1958 519.164 49.5677 519.153 50.0326ZM512.646 53.2818L511.456 52.4273L520.996 40.0989L522.166 41.0083L512.646 53.2818Z" fill="black" fill-opacity="0.15"/>
<path opacity="0.91" d="M622.595 38.3224C621.581 38.3138 620.759 38.0205 620.131 37.4424C619.503 36.8643 619.199 36.102 619.221 35.1554C619.243 34.2205 619.582 33.4694 620.236 32.9022C620.891 32.335 621.726 32.0556 622.741 32.0642C623.744 32.0727 624.56 32.366 625.188 32.9441C625.828 33.5339 626.137 34.2905 626.116 35.2137C626.094 36.1486 625.749 36.9055 625.083 37.4843C624.428 38.0515 623.599 38.3309 622.595 38.3224ZM621.111 35.1714C621.101 35.6272 621.238 35.9965 621.523 36.2795C621.808 36.5507 622.178 36.6883 622.633 36.6921C623.1 36.6961 623.482 36.5649 623.78 36.2986C624.078 36.0205 624.233 35.6537 624.243 35.1979C624.254 34.7538 624.11 34.3961 623.813 34.1247C623.528 33.8418 623.158 33.6984 622.703 33.6945C622.248 33.6907 621.872 33.8277 621.574 34.1058C621.276 34.3721 621.122 34.7273 621.111 35.1714ZM630.182 44.7337C629.167 44.7251 628.345 44.4318 627.717 43.8537C627.089 43.2756 626.786 42.5133 626.808 41.5666C626.83 40.6317 627.168 39.8807 627.823 39.3134C628.478 38.7462 629.313 38.4669 630.327 38.4755C631.331 38.484 632.146 38.7773 632.775 39.3553C633.414 39.9452 633.723 40.7017 633.702 41.625C633.68 42.5599 633.336 43.3168 632.669 43.8956C632.014 44.4628 631.185 44.7422 630.182 44.7337ZM628.697 41.5826C628.687 42.0384 628.824 42.4078 629.109 42.6907C629.395 42.962 629.765 43.0995 630.22 43.1034C630.686 43.1073 631.069 42.9761 631.366 42.7098C631.665 42.4318 631.819 42.0649 631.83 41.6091C631.84 41.1651 631.697 40.8073 631.4 40.536C631.114 40.253 630.744 40.1096 630.289 40.1058C629.835 40.1019 629.458 40.239 629.16 40.517C628.862 40.7833 628.708 41.1385 628.697 41.5826ZM622.482 44.6861L621.346 43.8699L630.458 32.0945L631.576 32.9631L622.482 44.6861Z" fill="black" fill-opacity="0.15"/>
<path opacity="0.91" d="M672.803 4.28992C671.874 4.69857 671.235 5.29248 670.886 6.07166C670.537 6.85084 670.56 7.67092 670.954 8.53191C671.343 9.38226 671.951 9.93869 672.776 10.2012C673.602 10.4637 674.479 10.3906 675.408 9.98198C676.327 9.57803 676.96 8.98647 677.309 8.20729C677.664 7.41278 677.649 6.59566 677.265 5.75594C676.876 4.90558 676.26 4.34619 675.419 4.07775C674.594 3.81525 673.722 3.88597 672.803 4.28992ZM672.684 7.77098C672.494 7.35643 672.474 6.96289 672.625 6.59036C672.78 6.22846 673.065 5.95591 673.482 5.77273C673.909 5.58484 674.312 5.55443 674.691 5.68148C675.075 5.81916 675.361 6.09527 675.551 6.50982C675.736 6.91374 675.745 7.299 675.58 7.6656C675.429 8.03813 675.146 8.31599 674.73 8.49918C674.313 8.68236 673.913 8.70512 673.529 8.56744C673.151 8.44038 672.869 8.1749 672.684 7.77098ZM677.241 -4.59602C676.312 -4.18738 675.673 -3.59346 675.324 -2.81428C674.975 -2.0351 674.998 -1.21502 675.392 -0.354034C675.781 0.496321 676.389 1.05275 677.214 1.31525C678.04 1.57776 678.917 1.50468 679.846 1.09604C680.765 0.692091 681.398 0.100527 681.747 -0.678654C682.102 -1.47316 682.087 -2.29028 681.703 -3.13C681.314 -3.98036 680.698 -4.53975 679.857 -4.80819C679.032 -5.07069 678.16 -4.99997 677.241 -4.59602ZM677.122 -1.11496C676.932 -1.52951 676.912 -1.92305 677.063 -2.29558C677.218 -2.65748 677.503 -2.93003 677.92 -3.11322C678.347 -3.3011 678.75 -3.33151 679.129 -3.20446C679.513 -3.06678 679.799 -2.79067 679.989 -2.37612C680.174 -1.9722 680.183 -1.58695 680.018 -1.22034C679.867 -0.847811 679.584 -0.569952 679.168 -0.386766C678.751 -0.20358 678.351 -0.180827 677.967 -0.318507C677.589 -0.445557 677.307 -0.71104 677.122 -1.11496ZM670.186 -1.5119L669.465 -0.313457L682.486 6.90676L683.17 5.66753L670.186 -1.5119Z" fill="black" fill-opacity="0.15"/>
<path opacity="0.91" d="M685.803 70.2899C684.874 70.6986 684.235 71.2925 683.886 72.0717C683.537 72.8508 683.56 73.6709 683.954 74.5319C684.343 75.3823 684.951 75.9387 685.776 76.2012C686.602 76.4637 687.479 76.3906 688.408 75.982C689.327 75.578 689.96 74.9865 690.309 74.2073C690.664 73.4128 690.649 72.5957 690.265 71.7559C689.876 70.9056 689.26 70.3462 688.419 70.0778C687.594 69.8152 686.722 69.886 685.803 70.2899ZM685.684 73.771C685.494 73.3564 685.474 72.9629 685.625 72.5904C685.78 72.2285 686.065 71.9559 686.482 71.7727C686.909 71.5848 687.312 71.5544 687.691 71.6815C688.075 71.8192 688.361 72.0953 688.551 72.5098C688.736 72.9137 688.745 73.299 688.58 73.6656C688.429 74.0381 688.146 74.316 687.73 74.4992C687.313 74.6824 686.913 74.7051 686.529 74.5674C686.151 74.4404 685.869 74.1749 685.684 73.771ZM690.241 61.404C689.312 61.8126 688.673 62.4065 688.324 63.1857C687.975 63.9649 687.998 64.785 688.392 65.646C688.781 66.4963 689.389 67.0527 690.214 67.3153C691.04 67.5778 691.917 67.5047 692.846 67.096C693.765 66.6921 694.398 66.1005 694.747 65.3213C695.102 64.5268 695.087 63.7097 694.703 62.87C694.314 62.0196 693.698 61.4602 692.857 61.1918C692.032 60.9293 691.16 61 690.241 61.404ZM690.122 64.885C689.932 64.4705 689.912 64.077 690.063 63.7044C690.218 63.3425 690.503 63.07 690.92 62.8868C691.347 62.6989 691.75 62.6685 692.129 62.7955C692.513 62.9332 692.799 63.2093 692.989 63.6239C693.174 64.0278 693.183 64.4131 693.018 64.7797C692.867 65.1522 692.584 65.43 692.168 65.6132C691.751 65.7964 691.351 65.8192 690.967 65.6815C690.589 65.5544 690.307 65.289 690.122 64.885ZM683.186 64.4881L682.465 65.6865L695.486 72.9068L696.17 71.6675L683.186 64.4881Z" fill="black" fill-opacity="0.15"/>
<path opacity="0.91" d="M600.803 96.2899C599.874 96.6986 599.235 97.2925 598.886 98.0717C598.537 98.8508 598.56 99.6709 598.954 100.532C599.343 101.382 599.951 101.939 600.776 102.201C601.602 102.464 602.479 102.391 603.408 101.982C604.327 101.578 604.96 100.986 605.309 100.207C605.664 99.4128 605.649 98.5957 605.265 97.7559C604.876 96.9056 604.26 96.3462 603.419 96.0778C602.594 95.8152 601.722 95.886 600.803 96.2899ZM600.684 99.771C600.494 99.3564 600.474 98.9629 600.625 98.5904C600.78 98.2285 601.065 97.9559 601.482 97.7727C601.909 97.5848 602.312 97.5544 602.691 97.6815C603.075 97.8192 603.361 98.0953 603.551 98.5098C603.736 98.9137 603.745 99.299 603.58 99.6656C603.429 100.038 603.146 100.316 602.73 100.499C602.313 100.682 601.913 100.705 601.529 100.567C601.151 100.44 600.869 100.175 600.684 99.771ZM605.241 87.404C604.312 87.8126 603.673 88.4065 603.324 89.1857C602.975 89.9649 602.998 90.785 603.392 91.646C603.781 92.4963 604.389 93.0527 605.214 93.3153C606.04 93.5778 606.917 93.5047 607.846 93.096C608.765 92.6921 609.398 92.1005 609.747 91.3213C610.102 90.5268 610.087 89.7097 609.703 88.87C609.314 88.0196 608.698 87.4602 607.857 87.1918C607.032 86.9293 606.16 87 605.241 87.404ZM605.122 90.885C604.932 90.4705 604.912 90.077 605.063 89.7044C605.218 89.3425 605.503 89.07 605.92 88.8868C606.347 88.6989 606.75 88.6685 607.129 88.7955C607.513 88.9332 607.799 89.2093 607.989 89.6239C608.174 90.0278 608.183 90.4131 608.018 90.7797C607.867 91.1522 607.584 91.43 607.168 91.6132C606.751 91.7964 606.351 91.8192 605.967 91.6815C605.589 91.5544 605.307 91.289 605.122 90.885ZM598.186 90.4881L597.465 91.6865L610.486 98.9068L611.17 97.6675L598.186 90.4881Z" fill="black" fill-opacity="0.15"/>
<path opacity="0.91" d="M477.803 7.28992C476.874 7.69857 476.235 8.29248 475.886 9.07166C475.537 9.85084 475.56 10.6709 475.954 11.5319C476.343 12.3823 476.951 12.9387 477.776 13.2012C478.602 13.4637 479.479 13.3906 480.408 12.982C481.327 12.578 481.96 11.9865 482.309 11.2073C482.664 10.4128 482.649 9.59566 482.265 8.75594C481.876 7.90558 481.26 7.34619 480.419 7.07775C479.594 6.81525 478.722 6.88597 477.803 7.28992ZM477.684 10.771C477.494 10.3564 477.474 9.96289 477.625 9.59036C477.78 9.22846 478.065 8.95591 478.482 8.77273C478.909 8.58484 479.312 8.55443 479.691 8.68148C480.075 8.81916 480.361 9.09527 480.551 9.50982C480.736 9.91374 480.745 10.299 480.58 10.6656C480.429 11.0381 480.146 11.316 479.73 11.4992C479.313 11.6824 478.913 11.7051 478.529 11.5674C478.151 11.4404 477.869 11.1749 477.684 10.771ZM482.241 -1.59602C481.312 -1.18738 480.673 -0.593464 480.324 0.185718C479.975 0.964899 479.998 1.78498 480.392 2.64597C480.781 3.49632 481.389 4.05275 482.214 4.31525C483.04 4.57776 483.917 4.50468 484.846 4.09604C485.765 3.69209 486.398 3.10053 486.747 2.32135C487.102 1.52684 487.087 0.709722 486.703 -0.130003C486.314 -0.980358 485.698 -1.53975 484.857 -1.80819C484.032 -2.07069 483.16 -1.99997 482.241 -1.59602ZM482.122 1.88504C481.932 1.47049 481.912 1.07695 482.063 0.704419C482.218 0.342516 482.503 0.06997 482.92 -0.113216C483.347 -0.301099 483.75 -0.331515 484.129 -0.204465C484.513 -0.0667846 484.799 0.209329 484.989 0.623877C485.174 1.0278 485.183 1.41305 485.018 1.77966C484.867 2.15219 484.584 2.43005 484.168 2.61323C483.751 2.79642 483.351 2.81917 482.967 2.68149C482.589 2.55444 482.307 2.28896 482.122 1.88504ZM475.186 1.4881L474.465 2.68654L487.486 9.90676L488.17 8.66753L475.186 1.4881Z" fill="black" fill-opacity="0.15"/>
<path opacity="0.91" d="M644.825 80.9792C642.928 80.3082 641.578 79.2283 640.773 77.7395C639.969 76.2506 639.893 74.6263 640.545 72.8664C641.189 71.1282 642.308 69.9389 643.901 69.2984C645.495 68.658 647.24 68.6733 649.136 69.3443C651.011 70.0076 652.35 71.0836 653.155 72.5725C653.973 74.0907 654.064 75.7081 653.428 77.4245C652.784 79.1627 651.65 80.359 650.027 81.0135C648.433 81.6539 646.699 81.6425 644.825 80.9792ZM644.076 74.1158C643.762 74.9632 643.781 75.744 644.133 76.4583C644.493 77.1508 645.098 77.6475 645.948 77.9483C646.82 78.2568 647.621 78.2576 648.351 77.9507C649.089 77.622 649.615 77.034 649.929 76.1867C650.235 75.361 650.197 74.5981 649.816 73.8978C649.464 73.1836 648.863 72.676 648.013 72.3752C647.163 72.0744 646.369 72.0884 645.63 72.417C644.9 72.7239 644.382 73.2902 644.076 74.1158ZM654.905 97.8906C653.009 97.2196 651.658 96.1397 650.854 94.6509C650.05 93.162 649.973 91.5377 650.626 89.7778C651.27 88.0396 652.388 86.8503 653.982 86.2098C655.575 85.5694 657.32 85.5847 659.217 86.2557C661.091 86.919 662.431 87.995 663.235 89.4839C664.054 91.0021 664.145 92.6195 663.509 94.3359C662.865 96.0741 661.731 97.2704 660.108 97.9249C658.514 98.5653 656.78 98.5539 654.905 97.8906ZM654.157 91.0272C653.843 91.8746 653.862 92.6554 654.214 93.3697C654.573 94.0622 655.178 94.5589 656.029 94.8597C656.9 95.1682 657.701 95.169 658.432 94.8621C659.17 94.5334 659.696 93.9454 660.01 93.0981C660.316 92.2724 660.278 91.5095 659.896 90.8092C659.545 90.095 658.944 89.5874 658.094 89.2866C657.244 88.9858 656.449 88.9998 655.711 89.3284C654.981 89.6353 654.463 90.2016 654.157 91.0272ZM640.506 92.8329L638.904 90.5701L663.58 74.381L665.114 76.73L640.506 92.8329Z" fill="black" fill-opacity="0.15"/>
<path opacity="0.91" d="M652.483 37.7569C650.496 38.0655 648.794 37.7552 647.38 36.8259C645.966 35.8966 645.129 34.5026 644.868 32.6439C644.611 30.8081 645.032 29.2305 646.131 27.911C647.23 26.5915 648.774 25.7775 650.762 25.4688C652.727 25.1638 654.416 25.4759 655.831 26.4052C657.271 27.3538 658.118 28.7346 658.372 30.5474C658.629 32.3831 658.198 33.974 657.08 35.32C655.981 36.6395 654.448 37.4518 652.483 37.7569ZM648.57 32.0692C648.695 32.9641 649.082 33.6426 649.73 34.1047C650.376 34.5438 651.144 34.6941 652.035 34.5558C652.949 34.4139 653.654 34.0347 654.152 33.4182C654.646 32.7788 654.83 32.0117 654.705 31.1167C654.583 30.2448 654.187 29.591 653.519 29.1555C652.871 28.6934 652.101 28.5316 651.21 28.6699C650.319 28.8083 649.626 29.1971 649.132 29.8366C648.635 30.453 648.448 31.1972 648.57 32.0692ZM669.378 47.8651C667.391 48.1737 665.689 47.8634 664.275 46.9341C662.861 46.0048 662.024 44.6108 661.763 42.7521C661.506 40.9164 661.927 39.3387 663.026 38.0192C664.125 36.6997 665.669 35.8857 667.657 35.5771C669.622 35.272 671.311 35.5841 672.725 36.5134C674.166 37.4621 675.013 38.8428 675.267 40.6556C675.524 42.4914 675.093 44.0822 673.975 45.4282C672.876 46.7477 671.343 47.56 669.378 47.8651ZM665.465 42.1774C665.59 43.0724 665.977 43.7508 666.625 44.2129C667.271 44.652 668.039 44.8024 668.93 44.664C669.844 44.5221 670.549 44.1429 671.047 43.5265C671.541 42.8871 671.725 42.1199 671.6 41.225C671.478 40.353 671.082 39.6992 670.414 39.2637C669.766 38.8016 668.996 38.6398 668.105 38.7781C667.214 38.9165 666.521 39.3054 666.027 39.9448C665.53 40.5612 665.343 41.3055 665.465 42.1774ZM654.303 50.2408L651.819 49.0086L665.867 23.0534L668.331 24.3941L654.303 50.2408Z" fill="black" fill-opacity="0.15"/>
<path opacity="0.91" d="M545.483 98.7569C543.496 99.0655 541.794 98.7552 540.38 97.8259C538.966 96.8966 538.129 95.5026 537.868 93.6439C537.611 91.8081 538.032 90.2305 539.131 88.911C540.23 87.5915 541.774 86.7775 543.762 86.4688C545.727 86.1638 547.416 86.4759 548.831 87.4052C550.271 88.3538 551.118 89.7346 551.372 91.5474C551.629 93.3831 551.198 94.974 550.08 96.32C548.981 97.6395 547.448 98.4518 545.483 98.7569ZM541.57 93.0692C541.695 93.9641 542.082 94.6426 542.73 95.1047C543.376 95.5438 544.144 95.6941 545.035 95.5558C545.949 95.4139 546.654 95.0347 547.152 94.4182C547.646 93.7788 547.83 93.0117 547.705 92.1167C547.583 91.2448 547.187 90.591 546.519 90.1555C545.871 89.6934 545.101 89.5316 544.21 89.6699C543.319 89.8083 542.626 90.1971 542.132 90.8366C541.635 91.453 541.448 92.1972 541.57 93.0692ZM562.378 108.865C560.391 109.174 558.689 108.863 557.275 107.934C555.861 107.005 555.024 105.611 554.763 103.752C554.506 101.916 554.927 100.339 556.026 99.0192C557.125 97.6997 558.669 96.8857 560.657 96.5771C562.622 96.272 564.311 96.5841 565.725 97.5134C567.166 98.4621 568.013 99.8428 568.267 101.656C568.524 103.491 568.093 105.082 566.975 106.428C565.876 107.748 564.343 108.56 562.378 108.865ZM558.465 103.177C558.59 104.072 558.977 104.751 559.625 105.213C560.271 105.652 561.039 105.802 561.93 105.664C562.844 105.522 563.549 105.143 564.047 104.526C564.541 103.887 564.725 103.12 564.6 102.225C564.478 101.353 564.082 100.699 563.414 100.264C562.766 99.8016 561.996 99.6398 561.105 99.7781C560.214 99.9165 559.521 100.305 559.027 100.945C558.53 101.561 558.343 102.305 558.465 103.177ZM547.303 111.241L544.819 110.009L558.867 84.0534L561.331 85.3941L547.303 111.241Z" fill="black" fill-opacity="0.15"/>
<path opacity="0.85" d="M388.81 60.7728C391.273 61.6443 393.027 63.0469 394.072 64.9807C395.117 66.9145 395.215 69.0243 394.368 71.3102C393.532 73.5678 392.079 75.1125 390.009 75.9444C387.939 76.7762 385.673 76.7564 383.21 75.8848C380.775 75.0233 379.035 73.6257 377.99 71.6919C376.927 69.7199 376.809 67.6192 377.635 65.3898C378.472 63.1321 379.944 61.5783 382.053 60.7282C384.122 59.8964 386.375 59.9112 388.81 60.7728ZM389.782 69.6873C390.19 68.5867 390.165 67.5725 389.708 66.6448C389.241 65.7453 388.455 65.1002 387.351 64.7095C386.218 64.3088 385.178 64.3078 384.23 64.7064C383.271 65.1333 382.587 65.897 382.18 66.9976C381.782 68.07 381.831 69.0609 382.327 69.9704C382.784 70.8982 383.564 71.5574 384.669 71.9481C385.773 72.3388 386.804 72.3207 387.763 71.8938C388.711 71.4952 389.384 70.7597 389.782 69.6873ZM375.716 38.8074C378.18 39.6789 379.934 41.0816 380.978 43.0153C382.023 44.9491 382.122 47.0589 381.275 49.3448C380.439 51.6024 378.985 53.1471 376.916 53.979C374.846 54.8108 372.58 54.791 370.116 53.9194C367.681 53.0579 365.942 51.6603 364.897 49.7265C363.834 47.7545 363.716 45.6538 364.542 43.4244C365.379 41.1667 366.851 39.6129 368.959 38.7629C371.029 37.931 373.281 37.9459 375.716 38.8074ZM376.688 47.7219C377.096 46.6213 377.072 45.6072 376.615 44.6794C376.148 43.7799 375.362 43.1348 374.258 42.7441C373.125 42.3434 372.085 42.3424 371.136 42.741C370.177 43.1679 369.494 43.9316 369.086 45.0322C368.689 46.1046 368.738 47.0955 369.234 48.0051C369.69 48.9328 370.471 49.592 371.575 49.9827C372.679 50.3734 373.711 50.3553 374.67 49.9284C375.618 49.5298 376.291 48.7943 376.688 47.7219ZM394.419 45.3767L396.5 48.3156L364.449 69.3429L362.457 66.2919L394.419 45.3767Z" fill="black" fill-opacity="0.15"/>
<path opacity="0.85" d="M408.061 105.968C405.598 106.84 403.844 108.242 402.799 110.176C401.755 112.11 401.656 114.22 402.503 116.505C403.339 118.763 404.792 120.308 406.862 121.14C408.932 121.972 411.198 121.952 413.661 121.08C416.096 120.219 417.836 118.821 418.881 116.887C419.944 114.915 420.062 112.814 419.236 110.585C418.399 108.327 416.927 106.774 414.818 105.924C412.749 105.092 410.496 105.107 408.061 105.968ZM407.089 114.883C406.682 113.782 406.706 112.768 407.163 111.84C407.63 110.941 408.416 110.296 409.52 109.905C410.653 109.504 411.693 109.503 412.642 109.902C413.6 110.329 414.284 111.092 414.692 112.193C415.089 113.265 415.04 114.256 414.544 115.166C414.087 116.093 413.307 116.753 412.203 117.143C411.098 117.534 410.067 117.516 409.108 117.089C408.16 116.691 407.487 115.955 407.089 114.883ZM421.155 84.0027C418.691 84.8742 416.937 86.2769 415.893 88.2106C414.848 90.1444 414.749 92.2542 415.596 94.5401C416.433 96.7977 417.886 98.3425 419.955 99.1743C422.025 100.006 424.291 99.9863 426.755 99.1148C429.19 98.2532 430.929 96.8556 431.974 94.9218C433.037 92.9498 433.155 90.8491 432.329 88.6197C431.493 86.3621 430.02 84.8082 427.912 83.9582C425.842 83.1263 423.59 83.1412 421.155 84.0027ZM420.183 92.9172C419.775 91.8166 419.799 90.8025 420.256 89.8747C420.724 88.9752 421.509 88.3301 422.614 87.9394C423.746 87.5387 424.787 87.5377 425.735 87.9363C426.694 88.3632 427.377 89.1269 427.785 90.2275C428.182 91.2999 428.133 92.2908 427.637 93.2004C427.181 94.1281 426.4 94.7873 425.296 95.178C424.192 95.5687 423.16 95.5506 422.201 95.1237C421.253 94.7251 420.58 93.9896 420.183 92.9172ZM402.452 90.572L400.371 93.5109L432.422 114.538L434.414 111.487L402.452 90.572Z" fill="black" fill-opacity="0.15"/>
<path opacity="0.92" d="M604.897 1.26093C605.909 -0.698482 607.287 -2.02191 609.032 -2.70934C610.776 -3.39678 612.562 -3.28485 614.389 -2.37356C616.193 -1.47353 617.328 -0.128517 617.794 1.66146C618.26 3.45145 617.987 5.32614 616.975 7.28555C615.975 9.22244 614.603 10.5346 612.858 11.222C611.079 11.9207 609.299 11.8257 607.517 10.9369C605.713 10.0369 604.573 8.67499 604.096 6.85124C603.63 5.06126 603.897 3.19782 604.897 1.26093ZM612.505 1.275C611.626 0.836227 610.77 0.763363 609.938 1.0564C609.128 1.36069 608.497 1.95201 608.044 2.83037C607.579 3.73125 607.46 4.59259 607.688 5.4144C607.939 6.24746 608.504 6.88338 609.383 7.32215C610.241 7.74966 611.08 7.80002 611.901 7.47321C612.733 7.18017 613.375 6.59447 613.829 5.71611C614.282 4.83776 614.384 3.98205 614.133 3.14899C613.905 2.32718 613.362 1.70251 612.505 1.275ZM584.942 10.084C585.953 8.12459 587.331 6.80116 589.076 6.11373C590.821 5.42629 592.606 5.53821 594.433 6.4495C596.238 7.34954 597.373 8.69455 597.838 10.4845C598.304 12.2745 598.031 14.1492 597.019 16.1086C596.02 18.0455 594.647 19.3577 592.903 20.0451C591.124 20.7438 589.343 20.6488 587.562 19.76C585.757 18.86 584.617 17.4981 584.14 15.6743C583.675 13.8843 583.942 12.0209 584.942 10.084ZM592.55 10.0981C591.67 9.65929 590.814 9.58643 589.982 9.87947C589.173 10.1838 588.541 10.7751 588.088 11.6534C587.623 12.5543 587.504 13.4157 587.732 14.2375C587.983 15.0705 588.548 15.7064 589.428 16.1452C590.285 16.5727 591.124 16.6231 591.945 16.2963C592.777 16.0032 593.42 15.4175 593.873 14.5392C594.327 13.6608 594.428 12.8051 594.177 11.9721C593.949 11.1502 593.407 10.5256 592.55 10.0981ZM592.582 -4.79738L595.289 -6.25078L609.352 22.2176L606.56 23.5866L592.582 -4.79738Z" fill="black" fill-opacity="0.15"/>
<path opacity="0.74" d="M700.542 11.2336C698.465 11.7631 696.628 11.6168 695.029 10.7947C693.43 9.97268 692.395 8.60549 691.922 6.69319C691.456 4.8045 691.736 3.11436 692.763 1.62278C693.79 0.131201 695.342 -0.879349 697.419 -1.40887C699.472 -1.9323 701.298 -1.78298 702.897 -0.960913C704.525 -0.12132 705.57 1.23102 706.03 3.0961C706.497 4.9848 706.208 6.68978 705.162 8.21105C704.135 9.70263 702.595 10.7101 700.542 11.2336ZM695.789 5.70719C696.017 6.62792 696.499 7.29552 697.236 7.70996C697.967 8.1008 698.798 8.17753 699.729 7.94016C700.683 7.69671 701.392 7.2274 701.855 6.53224C702.312 5.81347 702.426 4.99372 702.199 4.07298C701.977 3.17585 701.489 2.53491 700.734 2.15016C699.998 1.73571 699.164 1.64717 698.233 1.88454C697.302 2.12191 696.608 2.59998 696.151 3.31875C695.688 4.01391 695.568 4.81006 695.789 5.70719ZM719.536 20.0178C717.459 20.5473 715.621 20.401 714.022 19.5789C712.424 18.7569 711.388 17.3897 710.916 15.4774C710.449 13.5887 710.729 11.8986 711.757 10.407C712.784 8.9154 714.336 7.90485 716.413 7.37533C718.466 6.8519 720.291 7.00121 721.89 7.82329C723.519 8.66288 724.563 10.0152 725.024 11.8803C725.49 13.769 725.201 15.474 724.156 16.9953C723.129 18.4868 721.589 19.4943 719.536 20.0178ZM714.783 14.4914C715.01 15.4121 715.492 16.0797 716.229 16.4942C716.96 16.885 717.791 16.9617 718.722 16.7244C719.677 16.4809 720.386 16.0116 720.848 15.3164C721.305 14.5977 721.42 13.7779 721.192 12.8572C720.971 11.96 720.483 11.3191 719.728 10.9344C718.991 10.5199 718.157 10.4314 717.226 10.6687C716.295 10.9061 715.601 11.3842 715.144 12.1029C714.682 12.7981 714.561 13.5943 714.783 14.4914ZM703.789 24.0702L701.023 23.0438L713.193 -5.50587L715.949 -4.36406L703.789 24.0702Z" fill="black" fill-opacity="0.15"/>
<path opacity="0.79" d="M445.025 62.5987C442.983 62.5086 441.35 61.8643 440.125 60.6658C438.9 59.4673 438.342 57.9245 438.45 56.0374C438.558 54.1736 439.289 52.6994 440.646 51.6147C442.002 50.5301 443.701 50.0328 445.743 50.1228C447.761 50.2118 449.383 50.8556 450.608 52.0541C451.855 53.2769 452.425 54.8086 452.319 56.6491C452.212 58.5129 451.468 59.9983 450.086 61.1052C448.73 62.1898 447.043 62.6877 445.025 62.5987ZM442.252 56.2051C442.2 57.1137 442.451 57.8605 443.005 58.4455C443.561 59.0072 444.297 59.3083 445.212 59.3486C446.15 59.39 446.929 59.1558 447.546 58.6458C448.165 58.1125 448.5 57.3916 448.553 56.483C448.604 55.5977 448.34 54.8736 447.76 54.3109C447.206 53.7259 446.471 53.4132 445.556 53.3728C444.641 53.3324 443.874 53.5789 443.255 54.1122C442.637 54.6221 442.303 55.3198 442.252 56.2051ZM459.855 75.9354C457.813 75.8454 456.18 75.2011 454.955 74.0026C453.73 72.8041 453.172 71.2613 453.28 69.3742C453.388 67.5104 454.12 66.0362 455.476 64.9515C456.832 63.8668 458.531 63.3695 460.573 63.4596C462.591 63.5486 464.213 64.1923 465.438 65.3909C466.685 66.6137 467.255 68.1454 467.149 69.9859C467.042 71.8497 466.298 73.3351 464.917 74.442C463.56 75.5266 461.873 76.0245 459.855 75.9354ZM457.082 69.5419C457.03 70.4505 457.281 71.1973 457.835 71.7823C458.391 72.344 459.127 72.6451 460.042 72.6854C460.981 72.7268 461.759 72.4925 462.376 71.9826C462.995 71.4493 463.331 70.7284 463.383 69.8198C463.434 68.9345 463.17 68.2104 462.59 67.6477C462.036 67.0627 461.301 66.75 460.386 66.7096C459.471 66.6692 458.704 66.9157 458.085 67.449C457.467 67.9589 457.133 68.6566 457.082 69.5419ZM444.365 75.2873L442.134 73.5773L461.27 50.7375L463.46 52.5508L444.365 75.2873Z" fill="black" fill-opacity="0.15"/>
<path opacity="0.99" d="M604.548 63.6583C606.616 63.642 608.301 64.2064 609.603 65.3518C610.905 66.4971 611.551 68.0249 611.542 69.9353C611.533 71.8221 610.872 73.3485 609.559 74.5145C608.246 75.6805 606.556 76.2716 604.487 76.288C602.443 76.3041 600.77 75.7396 599.468 74.5942C598.142 73.4255 597.484 71.9095 597.493 70.0463C597.502 68.1596 598.175 66.6213 599.512 65.4315C600.825 64.2655 602.503 63.6745 604.548 63.6583ZM607.691 69.9657C607.695 69.0459 607.402 68.3054 606.81 67.744C606.219 67.2063 605.459 66.9411 604.532 66.9484C603.581 66.9559 602.807 67.2332 602.21 67.7804C601.613 68.3511 601.313 69.0964 601.308 70.0162C601.304 70.9124 601.61 71.6293 602.225 72.1669C602.817 72.7282 603.576 73.0052 604.503 72.9979C605.43 72.9906 606.192 72.7015 606.789 72.1308C607.386 71.5837 607.687 70.862 607.691 69.9657ZM588.848 50.9763C590.916 50.9599 592.601 51.5244 593.903 52.6698C595.205 53.8151 595.852 55.3429 595.842 57.2533C595.833 59.1401 595.172 60.6665 593.86 61.8325C592.547 62.9985 590.856 63.5896 588.788 63.606C586.743 63.6221 585.07 63.0575 583.768 61.9122C582.443 60.7435 581.784 59.2275 581.793 57.3643C581.802 55.4775 582.475 53.9393 583.812 52.7495C585.125 51.5835 586.804 50.9924 588.848 50.9763ZM591.991 57.2837C591.996 56.3639 591.702 55.6234 591.111 55.062C590.519 54.5243 589.76 54.259 588.832 54.2664C587.882 54.2739 587.108 54.5512 586.511 55.0984C585.914 55.6691 585.613 56.4144 585.609 57.3342C585.604 58.2304 585.91 58.9473 586.525 59.4849C587.117 60.0462 587.876 60.3232 588.804 60.3159C589.731 60.3086 590.493 60.0195 591.09 59.4488C591.687 58.9016 591.987 58.18 591.991 57.2837ZM604.538 50.8169L606.883 52.4257L588.762 76.483L586.452 74.7678L604.538 50.8169Z" fill="black" fill-opacity="0.15"/>
<path opacity="0.92" d="M685.277 115.122L683.442 117.817L680.914 116.139L682.749 113.444L674.23 107.793C674.779 106.986 675.363 106.109 675.981 105.162C676.6 104.215 677.234 103.265 677.883 102.312C681.266 97.3434 684.835 96.1052 688.591 98.5968C690.295 99.7271 691.214 101.228 691.349 103.101C691.483 104.973 690.795 107.019 689.285 109.237L687.562 111.767L689.843 113.28L692.914 108.77L695.442 110.447L692.371 114.957L695.751 117.2L693.466 120.555L690.086 118.312L688.251 121.007L685.723 119.33L687.558 116.635L685.277 115.122ZM681.286 104.051C681.274 104.069 680.737 104.897 679.675 106.534L685.034 110.09L686.681 107.67C688.292 105.305 688.218 103.539 686.459 102.372C685.488 101.728 684.583 101.553 683.744 101.848C682.917 102.125 682.098 102.859 681.286 104.051Z" fill="black" fill-opacity="0.15"/>
</svg>
