<svg width="371" height="87" viewBox="0 0 371 87" fill="none" xmlns="http://www.w3.org/2000/svg">
<g opacity="0.5">
<path d="M82.5768 -15.9144C78.69 -13.5316 77.4711 -8.4222 79.86 -4.52554C82.2489 -0.62888 87.3554 0.603128 91.2422 -1.77963C95.1296 -4.16273 96.3489 -9.27277 93.96 -13.1694C91.5711 -17.0661 86.4642 -18.2975 82.5768 -15.9144ZM88.8295 -5.71521C87.108 -4.65987 84.844 -5.20588 83.7857 -6.93215C82.7272 -8.65871 83.2681 -10.9227 84.9899 -11.9782C86.7128 -13.0344 88.9753 -12.489 90.0338 -10.7625C91.0921 -9.0362 90.5524 -6.77141 88.8295 -5.71521Z" fill="white"/>
<path d="M109.089 -20.6767L112.505 -24.7657L110.252 -27.9272L105.275 -26.0299C104.541 -26.8203 103.751 -27.5693 102.906 -28.2726L104.563 -33.4065L101.288 -35.4865L97.363 -31.7956C96.2654 -32.3091 95.1457 -32.7368 94.0129 -33.0844L93.5325 -38.3984L89.7109 -39.0424L87.5386 -34.1738C86.451 -34.2139 85.3654 -34.1838 84.2871 -34.0853L81.8413 -38.8369L78.0612 -37.9937L77.8828 -32.6563C76.7634 -32.2498 75.6696 -31.7639 74.6127 -31.2009L70.5185 -34.6285L67.367 -32.3791L69.2731 -27.3936C68.4858 -26.6604 67.7387 -25.8711 67.0375 -25.026L61.9078 -26.6957L59.8354 -23.4226L63.5326 -19.4839C63.0222 -18.387 62.5955 -17.2669 62.2516 -16.1331L56.945 -15.6658L56.3092 -11.8395L61.1786 -9.65531C61.1414 -8.5656 61.1733 -7.47877 61.2733 -6.39946L56.5323 -3.96086L57.3834 -0.174818L62.7153 0.0161659C63.1232 1.13713 63.6112 2.23379 64.1758 3.29279L60.7617 7.38377L63.0145 10.544L67.9899 8.64679C68.7251 9.43716 69.5148 10.1867 70.3601 10.8905L68.7027 16.0232L71.9773 18.1038L75.9037 14.4118C77.0005 14.9251 78.1197 15.3547 79.253 15.7011L79.7332 21.0153L83.5551 21.6599L85.727 16.7899C86.8146 16.8308 87.9002 16.7999 88.9786 16.7029L91.4246 21.4541L95.2044 20.6099L95.3825 15.2727C96.5021 14.8664 97.5958 14.3805 98.6531 13.8181L102.747 17.2459L105.899 14.9966L103.993 10.0108C104.78 9.27711 105.527 8.48854 106.228 7.64469L111.359 9.31387L113.43 6.0391L109.734 2.10199C110.245 1.0047 110.67 -0.11531 111.014 -1.25043L116.321 -1.71767L116.957 -5.54298L112.088 -7.72858C112.126 -8.81687 112.093 -9.90454 111.992 -10.9831L116.733 -13.422L115.882 -17.2076L110.55 -17.3981C110.142 -18.5209 109.654 -19.6157 109.089 -20.6767ZM96.8912 8.042C87.6729 13.6933 75.6067 10.7827 69.9413 1.54128C64.2757 -7.70046 67.1559 -19.774 76.3743 -25.4254C85.5926 -31.0767 97.6596 -28.1666 103.325 -18.9249C108.991 -9.68343 106.11 2.39065 96.8912 8.042Z" fill="white"/>
<path d="M250.563 -2.7615L253.087 -4.33554L254.661 -2.84645L253.229 -0.240315C253.61 0.225942 253.963 0.720705 254.287 1.2423L257.253 0.721122L258.151 2.69181L255.808 4.57815C256.008 5.22488 256.158 5.87663 256.263 6.52978L259.164 7.2044L259.226 9.36701L256.367 10.1936C256.305 10.7981 256.205 11.3962 256.067 11.9846L258.506 13.7032L257.749 15.7288L254.784 15.4165C254.473 16.0042 254.12 16.5718 253.728 17.1129L255.309 19.641L253.822 21.2107L251.212 19.7729C250.746 20.1518 250.252 20.5044 249.731 20.8269L250.259 23.7918L248.29 24.6858L246.397 22.3382C245.751 22.536 245.098 22.6858 244.445 22.7884L243.778 25.6871L241.613 25.7438L240.78 22.883C240.175 22.8198 239.577 22.7186 238.987 22.58L237.274 25.0138L235.246 24.2517L235.551 21.2888C234.962 20.9767 234.393 20.6228 233.851 20.2289L231.327 21.8016L229.752 20.3125L231.184 17.7075C230.804 17.2401 230.45 16.7458 230.126 16.224L227.161 16.7454L226.262 14.7745L228.605 12.8877C228.406 12.2414 228.254 11.5897 228.15 10.9363L225.248 10.2617L225.186 8.09843L228.046 7.27226C228.107 6.66805 228.208 6.06986 228.345 5.48104L225.906 3.76293L226.663 1.73761L229.628 2.05003C229.939 1.46238 230.292 0.894823 230.684 0.353481L229.104 -2.1744L230.59 -3.74414L233.201 -2.30612C233.667 -2.68524 234.161 -3.03764 234.681 -3.36023L234.153 -6.32572L236.124 -7.21911L238.016 -4.8718C238.662 -5.0701 239.314 -5.21894 239.968 -5.32193L240.635 -8.22053L242.799 -8.27772L243.633 -5.41723C244.238 -5.35445 244.837 -5.253 245.426 -5.1132L247.139 -7.54753L249.168 -6.7857L248.862 -3.8229C249.451 -3.50952 250.02 -3.15577 250.563 -2.7615ZM233.743 1.77293C229.908 6.43568 230.589 13.3316 235.263 17.1757C239.938 21.0199 246.836 20.3568 250.67 15.6943C254.505 11.0318 253.824 4.13509 249.15 0.290819C244.476 -3.55324 237.578 -2.88958 233.743 1.77293Z" fill="white"/>
<path d="M131.112 5.15652C130.139 6.33962 128.382 6.50849 127.197 5.53321C126.01 4.5575 125.837 2.80108 126.81 1.61824C127.783 0.434883 129.54 0.265801 130.726 1.24151C131.912 2.21679 132.086 3.97317 131.112 5.15652ZM128.008 2.60339C127.577 3.12737 127.654 3.90618 128.179 4.33836C128.705 4.77075 129.483 4.69514 129.914 4.17116C130.346 3.64667 130.269 2.86879 129.743 2.43661C129.218 2.00444 128.439 2.07891 128.008 2.60339Z" fill="white"/>
<path d="M133.924 -3.44542L135.443 -4.39259L136.391 -3.49631L135.529 -1.92794C135.758 -1.64733 135.971 -1.34988 136.166 -1.03567L137.951 -1.34914L138.491 -0.162929L137.081 0.97196C137.201 1.3614 137.292 1.75323 137.355 2.14655L139.101 2.55264L139.138 3.85391L137.418 4.35144C137.381 4.71556 137.321 5.07528 137.238 5.42927L138.705 6.46335L138.25 7.68246L136.466 7.49437C136.279 7.84814 136.066 8.18959 135.83 8.5153L136.781 10.0366L135.887 10.9812L134.316 10.1157C134.035 10.3437 133.738 10.556 133.424 10.7501L133.742 12.5344L132.557 13.0724L131.418 11.6595C131.029 11.7784 130.637 11.8686 130.243 11.9306L129.842 13.675L128.539 13.7091L128.038 11.9873C127.674 11.9493 127.314 11.8885 126.959 11.8048L125.928 13.2694L124.708 12.8104L124.891 11.0273C124.537 10.8393 124.195 10.6266 123.868 10.3893L122.349 11.336L121.402 10.44L122.263 8.87233C122.034 8.59125 121.821 8.29359 121.627 7.97959L119.842 8.29327L119.301 7.10757L120.711 5.97217C120.592 5.5832 120.5 5.1912 120.437 4.79784L118.691 4.39174L118.654 3.09001L120.375 2.5929C120.412 2.22909 120.472 1.86932 120.555 1.51465L119.087 0.480826L119.543 -0.738071L121.327 -0.549778C121.514 -0.903338 121.727 -1.24478 121.963 -1.57091L121.012 -3.09197L121.906 -4.03655L123.477 -3.17114C123.758 -3.39939 124.055 -3.61141 124.368 -3.80544L124.05 -5.59002L125.236 -6.12781L126.375 -4.71533C126.764 -4.83451 127.156 -4.92445 127.55 -4.98628L127.951 -6.73043L129.253 -6.76496L129.755 -5.04345C130.119 -5.00556 130.479 -4.94458 130.833 -4.86042L131.865 -6.32549L133.085 -5.8668L132.902 -4.0839C133.256 -3.8956 133.597 -3.68263 133.924 -3.44542ZM123.803 -0.716983C121.496 2.08894 121.906 6.23885 124.718 8.55208C127.531 10.8655 131.682 10.4668 133.99 7.66086C136.297 4.85518 135.887 0.704766 133.075 -1.60867C130.262 -3.92186 126.111 -3.52266 123.803 -0.716983Z" fill="white"/>
<path d="M196.496 48.1703C193.601 51.6915 188.372 52.1943 184.842 49.291C181.312 46.3877 180.795 41.16 183.691 37.6389C186.588 34.1172 191.817 33.6141 195.347 36.5174C198.877 39.4207 199.393 44.6487 196.496 48.1703ZM187.257 40.5712C185.974 42.1307 186.203 44.4484 187.767 45.7346C189.331 47.021 191.648 46.7974 192.931 45.2376C194.214 43.6768 193.986 41.3607 192.422 40.0743C190.858 38.7881 188.54 39.0104 187.257 40.5712Z" fill="white"/>
<path d="M204.869 22.5673L209.39 19.7484L212.211 22.4155L209.646 27.0838C210.327 27.9189 210.96 28.8047 211.54 29.7391L216.854 28.8057L218.462 32.3358L214.265 35.7146C214.623 36.8726 214.892 38.0405 215.08 39.2105L220.277 40.419L220.388 44.2928L215.266 45.7731C215.156 46.8558 214.977 47.927 214.73 48.9813L219.099 52.059L217.743 55.6867L212.432 55.1275C211.875 56.1802 211.243 57.1965 210.54 58.1657L213.37 62.6933L210.708 65.5046L206.033 62.9294C205.198 63.608 204.313 64.2392 203.379 64.8172L204.326 70.1281L200.798 71.7294L197.407 67.5245C196.25 67.8788 195.082 68.147 193.912 68.3313L192.717 73.5228L188.84 73.6249L187.348 68.5009C186.263 68.3876 185.191 68.2061 184.136 67.9583L181.067 72.3178L177.434 70.9528L177.98 65.6455C176.926 65.087 175.907 64.4524 174.936 63.7471L170.414 66.5646L167.594 63.8976L170.159 59.2313C169.478 58.3942 168.844 57.5087 168.264 56.5744L162.952 57.5083L161.342 53.9781L165.541 50.5982C165.183 49.4412 164.912 48.2734 164.725 47.1031L159.528 45.8949L159.417 42.0206L164.54 40.5409C164.649 39.458 164.829 38.387 165.074 37.3323L160.706 34.2547L162.063 30.6274L167.374 31.1868C167.93 30.1339 168.562 29.1176 169.265 28.148L166.435 23.6206L169.097 20.8088L173.772 23.3843C174.608 22.7056 175.492 22.0743 176.424 21.4961L175.478 16.1844L179.007 14.5844L182.397 18.7885C183.554 18.4337 184.722 18.1669 185.894 17.9825L187.089 12.7905L190.965 12.6885L192.458 17.8124C193.541 17.9247 194.614 18.1068 195.669 18.3563L198.738 13.9963L202.37 15.3613L201.824 20.6682C202.879 21.2278 203.896 21.8613 204.869 22.5673ZM174.743 30.6894C167.875 39.0405 169.094 51.3928 177.466 58.2783C185.838 65.1639 198.194 63.9758 205.062 55.6247C211.931 47.2735 210.712 34.9205 202.34 28.0348C193.968 21.1494 181.612 22.3382 174.743 30.6894Z" fill="white"/>
<path d="M216.624 -16.9133L219.302 -18.5838L220.973 -17.0028L219.453 -14.2376C219.857 -13.7418 220.232 -13.218 220.576 -12.6631L223.724 -13.2172L224.677 -11.1247L222.191 -9.12226C222.402 -8.4358 222.562 -7.74506 222.673 -7.05109L225.753 -6.33561L225.818 -4.03938L222.783 -3.1626C222.718 -2.52161 222.611 -1.8873 222.467 -1.26248L225.055 0.56165L224.25 2.71231L221.104 2.37966C220.775 3.00372 220.4 3.6058 219.983 4.17935L221.66 6.86274L220.083 8.52922L217.312 7.00275C216.819 7.40495 216.294 7.778 215.741 8.12045L216.302 11.2676L214.212 12.2166L212.202 9.72499C211.517 9.93574 210.824 10.0942 210.131 10.2031L209.423 13.2795L207.125 13.3399L206.242 10.3035C205.599 10.2355 204.965 10.1288 204.338 9.98211L202.52 12.5655L200.368 11.757L200.692 8.61167C200.067 8.27963 199.463 7.90498 198.888 7.48729L196.208 9.15657L194.537 7.57561L196.058 4.8105C195.653 4.31582 195.278 3.79053 194.934 3.23561L191.787 3.78972L190.832 1.6981L193.32 -0.30434C193.108 -0.98999 192.948 -1.6819 192.838 -2.3766L189.758 -3.09171L189.692 -5.38708L192.726 -6.26408C192.792 -6.90608 192.9 -7.54069 193.044 -8.16567L190.456 -9.98964L191.259 -12.1378L194.407 -11.8068C194.736 -12.4312 195.111 -13.0329 195.527 -13.6073L193.85 -16.2898L195.427 -17.956L198.198 -16.4299C198.693 -16.8326 199.217 -17.2062 199.77 -17.5484L199.209 -20.6961L201.3 -21.6442L203.309 -19.1534C203.995 -19.3638 204.687 -19.5224 205.38 -19.6306L206.088 -22.7076L208.385 -22.7671L209.27 -19.7311C209.912 -19.6639 210.547 -19.5576 211.172 -19.4085L212.991 -21.992L215.144 -21.1845L214.819 -18.039C215.444 -17.7073 216.047 -17.3319 216.624 -16.9133ZM203.484 -8.22693C201.548 -5.87323 201.891 -2.3918 204.251 -0.451175C206.609 1.48882 210.092 1.15354 212.028 -1.20017C213.963 -3.55285 213.62 -7.03474 211.261 -8.97474C208.901 -10.9151 205.419 -10.5794 203.484 -8.22693Z" fill="white"/>
<path d="M235.673 33.3119L237.068 32.4414L237.939 33.2653L237.147 34.7062C237.357 34.9646 237.553 35.2376 237.732 35.5267L239.372 35.238L239.869 36.3283L238.574 37.3718C238.684 37.7295 238.767 38.0895 238.825 38.4511L240.43 38.8239L240.464 40.0205L238.882 40.4774C238.849 40.8114 238.793 41.1419 238.717 41.4675L240.066 42.4181L239.647 43.5388L238.007 43.3654C237.836 43.6906 237.64 44.0044 237.423 44.3033L238.297 45.7016L237.475 46.57L236.031 45.7745C235.774 45.9841 235.501 46.1785 235.212 46.357L235.505 47.9969L234.416 48.4914L233.368 47.1931C233.011 47.3029 232.65 47.3855 232.289 47.4422L231.92 49.0453L230.723 49.0768L230.263 47.4945C229.928 47.4591 229.597 47.4035 229.271 47.3271L228.323 48.6732L227.202 48.2519L227.371 46.6129C227.045 46.4399 226.73 46.2447 226.43 46.027L225.034 46.8969L224.163 46.073L224.956 44.6321C224.745 44.3744 224.549 44.1006 224.37 43.8115L222.73 44.1002L222.233 43.0103L223.529 41.9668C223.418 41.6095 223.335 41.249 223.278 40.887L221.673 40.5143L221.638 39.3182L223.22 38.8612C223.254 38.5267 223.31 38.196 223.385 37.8703L222.037 36.9198L222.455 35.8004L224.096 35.9729C224.267 35.6475 224.462 35.334 224.679 35.0347L223.805 33.6369L224.627 32.7686L226.071 33.5638C226.329 33.354 226.602 33.1593 226.89 32.981L226.598 31.3407L227.688 30.8466L228.734 32.1446C229.092 32.035 229.452 31.9523 229.814 31.8959L230.183 30.2925L231.379 30.2615L231.841 31.8436C232.175 31.8786 232.506 31.934 232.832 32.0117L233.779 30.6654L234.901 31.0862L234.732 32.7253C235.058 32.8982 235.372 33.0938 235.673 33.3119ZM228.825 37.8384C227.817 39.0649 227.995 40.879 229.225 41.8903C230.454 42.9012 232.269 42.7265 233.278 41.5C234.286 40.274 234.107 38.4596 232.878 37.4487C231.648 36.4376 229.834 36.6125 228.825 37.8384Z" fill="white"/>
<path d="M178.972 -24.1383L178.571 -23.7719C177.935 -23.191 177.771 -22.2269 178.238 -21.5015C178.842 -20.5644 180.118 -20.4268 180.904 -21.1432L181.262 -21.4699C181.755 -21.9205 182.536 -21.829 182.913 -21.2762C183.099 -21.0037 183.279 -20.728 183.453 -20.4493C183.799 -19.8954 183.59 -19.1646 183.003 -18.8793L182.509 -18.6385C181.735 -18.2608 181.306 -17.3825 181.549 -16.5546C181.864 -15.4875 183.052 -14.9953 184.008 -15.4616L184.441 -15.6726C185.042 -15.9656 185.767 -15.6582 185.973 -15.0196C186.074 -14.7068 186.168 -14.3914 186.255 -14.0759C186.431 -13.4475 186.023 -12.807 185.38 -12.6985L184.794 -12.5993C183.842 -12.4389 183.197 -11.529 183.36 -10.5772C182.773 -9.86374 183.39 -8.8027 184.302 -8.9569L185.859 -9.21932C186.518 -9.33123 187.127 -8.83249 187.146 -8.16435C187.155 -7.83625 187.157 -7.50803 187.153 -7.18026C187.145 -6.52787 186.573 -6.02684 185.925 -6.104L185.335 -6.17438C184.377 -6.28825 183.5 -5.59709 183.388 -4.6392C183.277 -3.68094 183.97 -2.80386 184.929 -2.68979L185.411 -2.63284C186.075 -2.55396 186.519 -1.90501 186.348 -1.25932C186.265 -0.942652 186.175 -0.626528 186.078 -0.311845C185.886 0.310729 185.196 0.630558 184.595 0.373533L184.044 0.137997C183.155 -0.241165 182.119 0.17487 181.742 1.0615L181.743 1.06192C181.366 1.94931 181.784 2.98525 182.672 3.36441L183.116 3.5538C183.732 3.8162 183.976 4.56432 183.629 5.13551C183.46 5.41517 183.284 5.69149 183.102 5.96607C182.741 6.50876 181.99 6.62051 181.485 6.20558L181.025 5.82699C180.278 5.21289 179.167 5.31977 178.555 6.06414C177.942 6.80878 178.052 7.9201 178.799 8.53398L179.171 8.84009C179.688 9.26552 179.711 10.0502 179.218 10.5008C178.976 10.723 178.729 10.9399 178.479 11.1501C177.981 11.5706 177.226 11.4653 176.859 10.9259L176.551 10.4728C176.065 9.75947 175.133 9.4572 174.349 9.81507C173.337 10.2753 173.022 11.5187 173.622 12.4002L173.895 12.802C174.272 13.356 174.072 14.1154 173.471 14.4085C173.175 14.5522 172.877 14.6896 172.576 14.8218C171.979 15.0823 171.286 14.769 171.085 14.1491L170.901 13.5782C170.604 12.6594 169.61 12.148 168.692 12.4433C167.773 12.7379 167.264 13.7302 167.561 14.649L167.708 15.1053C167.915 15.7429 167.508 16.415 166.849 16.5263C166.525 16.5806 166.201 16.6285 165.876 16.6702C165.229 16.7528 164.65 16.2574 164.634 15.606L164.617 15.0124C164.591 14.0478 163.78 13.2785 162.816 13.3015C161.85 13.3253 161.082 14.134 161.108 15.0991L161.121 15.5798C161.139 16.2484 160.561 16.7782 159.896 16.7001C159.571 16.6618 159.245 16.6165 158.92 16.5654C158.276 16.463 157.86 15.8251 158.026 15.1941L158.178 14.6181C158.425 13.6858 157.864 12.7197 156.931 12.4704C155.998 12.2215 155.032 12.7804 154.785 13.7122L154.661 14.1804C154.489 14.8261 153.785 15.1723 153.168 14.909C152.866 14.7803 152.567 14.6454 152.269 14.5034C151.68 14.2232 151.46 13.4941 151.798 12.9375L152.108 12.4268C152.608 11.6023 152.341 10.5177 151.515 10.0154C150.689 9.51415 149.605 9.77812 149.105 10.6018L148.855 11.0129C148.511 11.5815 147.739 11.7192 147.224 11.2959C147.221 11.2933 147.218 11.2902 147.214 11.2877C146.959 11.0772 146.709 10.863 146.464 10.6441C145.979 10.211 145.979 9.45277 146.458 9.01535L146.897 8.61567C147.609 7.96589 147.659 6.85074 147.007 6.1374C146.356 5.42402 145.239 5.37182 144.528 6.02109L144.169 6.34737C143.676 6.79776 142.895 6.70625 142.518 6.15367C142.332 5.88138 142.151 5.60547 141.978 5.32773C141.631 4.77355 141.841 4.04273 142.427 3.75703L142.967 3.49438C143.834 3.07224 144.196 2.01715 143.771 1.14964C143.347 0.281869 142.29 -0.0825757 141.422 0.339869L140.99 0.55093C140.388 0.843593 139.663 0.535918 139.458 -0.102004C139.357 -0.415072 139.263 -0.729656 139.175 -1.04565C139 -1.67339 139.408 -2.31438 140.05 -2.42259L140.637 -2.52184C141.588 -2.68285 142.233 -3.59277 142.071 -4.54413C142.657 -5.2576 142.041 -6.31906 141.129 -6.16516L139.572 -5.90253C138.912 -5.79104 138.303 -6.28906 138.285 -6.95746C138.276 -7.28484 138.274 -7.61314 138.277 -7.94128C138.286 -8.59278 138.858 -9.09404 139.506 -9.01739L140.046 -8.95342C140.903 -8.85156 141.739 -9.35689 141.982 -10.1844C142.294 -11.2513 141.56 -12.306 140.502 -12.4311L140.021 -12.4886C139.356 -12.5669 138.912 -13.2157 139.082 -13.8622C139.166 -14.1789 139.256 -14.4946 139.353 -14.8093C139.545 -15.4319 140.236 -15.752 140.836 -15.4949L141.348 -15.2764C142.132 -14.9421 143.063 -15.1843 143.532 -15.8934C144.154 -16.8314 143.746 -18.0641 142.759 -18.4858L142.315 -18.6757C141.699 -18.9383 141.455 -19.6864 141.802 -20.2576C141.973 -20.5367 142.148 -20.8134 142.33 -21.0875C142.69 -21.6302 143.442 -21.7417 143.946 -21.3268L144.407 -20.9484C145.153 -20.3345 146.265 -20.4421 146.876 -21.1863C147.489 -21.9309 147.379 -23.0418 146.633 -23.6557L146.261 -23.9616C145.744 -24.3868 145.721 -25.172 146.214 -25.6232C146.456 -25.8449 146.703 -26.0616 146.953 -26.2716C147.451 -26.6926 148.206 -26.5875 148.574 -26.0474L148.881 -25.5947C149.367 -24.8815 150.299 -24.5791 151.083 -24.9363C152.095 -25.3973 152.41 -26.6409 151.81 -27.5219L151.537 -27.9237C151.16 -28.4781 151.36 -29.238 151.962 -29.53C152.257 -29.674 152.555 -29.8116 152.856 -29.9435C153.453 -30.2041 154.146 -29.8907 154.346 -29.2703L154.515 -28.7482C154.78 -27.9264 155.59 -27.3753 156.444 -27.4969C157.546 -27.6538 158.198 -28.7571 157.871 -29.7709L157.724 -30.227C157.518 -30.8644 157.923 -31.5372 158.583 -31.648C158.906 -31.7025 159.232 -31.7507 159.557 -31.7917C160.203 -31.8747 160.781 -31.3795 160.799 -30.7271L160.814 -30.1848C160.837 -29.3226 161.459 -28.5657 162.313 -28.4421C163.415 -28.2823 164.353 -29.1568 164.324 -30.2204L164.311 -30.7015C164.293 -31.3697 164.872 -31.9 165.536 -31.8213C165.862 -31.7831 166.187 -31.7384 166.511 -31.6868C167.157 -31.5841 167.572 -30.9462 167.406 -30.3155L167.254 -29.7395C167.006 -28.8072 167.568 -27.841 168.502 -27.5914C169.199 -27.0177 170.255 -27.3563 170.486 -28.2282L170.771 -29.3018C170.942 -29.9478 171.647 -30.2933 172.263 -30.0305C172.565 -29.9015 172.865 -29.7662 173.163 -29.6249C173.752 -29.3439 173.971 -28.6157 173.634 -28.0583L173.324 -27.5476C172.773 -26.6379 173.154 -25.4125 174.19 -25.0011C174.992 -24.6828 175.906 -25.0302 176.353 -25.7664L176.576 -26.1343C176.921 -26.7032 177.693 -26.8404 178.207 -26.4171C178.21 -26.4146 178.214 -26.4118 178.218 -26.4087C178.473 -26.1986 178.724 -25.9845 178.968 -25.7658C179.452 -25.3334 179.452 -24.5753 178.972 -24.1383ZM176.328 2.16236C178.581 -0.987551 179.589 -4.69486 179.413 -8.33776L173.753 -7.79308C173.802 -5.60013 173.206 -3.38442 171.926 -1.45747L176.328 2.16262L176.328 2.16236ZM174.884 3.91832L170.482 0.298235C168.838 1.92585 166.78 2.93829 164.619 3.31306L165.177 8.97246C168.785 8.4421 172.228 6.73671 174.884 3.91832ZM162.907 9.15013L162.347 3.47168C160.217 3.40024 158.093 2.71662 156.254 1.39242L152.649 5.7754C155.709 8.08208 159.324 9.18832 162.907 9.15013ZM146.145 -5.13802C146.666 -1.66051 148.278 1.66646 150.925 4.28517L154.548 -0.120298C153.085 -1.71377 152.163 -3.6528 151.806 -5.68203L146.145 -5.13802ZM149.066 -17.3154C146.935 -14.3359 145.917 -10.858 145.963 -7.40778L151.643 -7.95411C151.704 -9.95065 152.303 -11.9426 153.468 -13.6953L149.066 -17.3154ZM155.382 -13.5928C152.067 -9.56212 152.656 -3.60284 156.696 -0.280036C160.735 3.04172 166.696 2.46939 170.011 -1.56134C173.325 -5.59078 172.737 -11.5515 168.698 -14.8733C164.658 -18.1961 158.696 -17.6223 155.382 -13.5928ZM150.51 -19.0714L154.912 -15.4513C156.407 -16.933 158.246 -17.9043 160.193 -18.3504L159.633 -24.0293C156.239 -23.4075 153.022 -21.7378 150.51 -19.0714ZM161.895 -24.288L162.453 -18.6286C164.513 -18.6698 166.594 -18.1396 168.439 -17.011L172.063 -21.4173C168.983 -23.5088 165.407 -24.4483 161.895 -24.288ZM170.254 -15.6297C171.907 -14.0806 172.989 -12.1285 173.47 -10.053L179.149 -10.5989C178.496 -14.1217 176.712 -17.4564 173.858 -20.0126L170.254 -15.6297Z" fill="white"/>
<path d="M223.713 14.315L223.599 14.4186C223.419 14.583 223.373 14.8556 223.505 15.061C223.676 15.3259 224.037 15.3649 224.259 15.1623L224.36 15.07C224.5 14.9429 224.721 14.9684 224.828 15.1248C224.88 15.2019 224.931 15.2799 224.98 15.3588C225.078 15.5156 225.019 15.7225 224.853 15.8031L224.713 15.8712C224.494 15.9781 224.373 16.2265 224.441 16.4607C224.53 16.7629 224.866 16.9019 225.137 16.77L225.26 16.7103C225.43 16.6273 225.635 16.7147 225.693 16.8951C225.722 16.9838 225.748 17.073 225.773 17.1625C225.823 17.3402 225.708 17.5213 225.526 17.552L225.36 17.5799C225.091 17.6254 224.908 17.8828 224.954 18.1521C224.788 18.3539 224.963 18.6541 225.221 18.6106L225.661 18.5362C225.848 18.5047 226.02 18.6458 226.025 18.8347C226.028 18.9275 226.028 19.0202 226.027 19.1134C226.025 19.2981 225.863 19.4398 225.68 19.4179L225.513 19.3978C225.242 19.3654 224.994 19.5614 224.962 19.8321C224.93 20.1033 225.127 20.3513 225.398 20.3836L225.535 20.3997C225.722 20.4221 225.848 20.6055 225.8 20.7883C225.776 20.878 225.751 20.9672 225.723 21.0564C225.669 21.2322 225.474 21.3229 225.304 21.2502L225.148 21.1839C224.897 21.0765 224.604 21.1944 224.497 21.4449L224.497 21.4451C224.39 21.6961 224.508 21.9894 224.76 22.0965L224.885 22.1503C225.06 22.2242 225.129 22.436 225.03 22.5976C224.983 22.6765 224.933 22.7549 224.881 22.8326C224.779 22.9861 224.567 23.0178 224.424 22.9004L224.294 22.7933C224.082 22.6195 223.768 22.6497 223.595 22.8604C223.421 23.0711 223.453 23.3858 223.664 23.5593L223.769 23.6459C223.915 23.7663 223.922 23.9884 223.782 24.1157C223.714 24.1785 223.644 24.2398 223.573 24.2994C223.432 24.4181 223.219 24.3882 223.115 24.2359L223.027 24.1075C222.89 23.9059 222.626 23.8202 222.404 23.9214C222.118 24.0516 222.029 24.4035 222.199 24.6528L222.276 24.7663C222.382 24.9229 222.326 25.138 222.156 25.2209C222.072 25.2612 221.988 25.3002 221.903 25.3376C221.734 25.4114 221.538 25.3227 221.481 25.1471L221.429 24.9856C221.345 24.7256 221.063 24.5808 220.803 24.6644C220.543 24.7478 220.399 25.0285 220.483 25.2884L220.525 25.4178C220.583 25.598 220.468 25.7885 220.282 25.8196C220.19 25.8351 220.099 25.8487 220.007 25.8605C219.824 25.8837 219.66 25.7437 219.655 25.5594L219.651 25.3914C219.643 25.1188 219.414 24.9011 219.141 24.9074C218.868 24.9141 218.65 25.1432 218.658 25.416L218.661 25.5522C218.666 25.7416 218.503 25.8912 218.315 25.8693C218.223 25.8583 218.13 25.8457 218.039 25.8311C217.856 25.8022 217.739 25.6214 217.786 25.4432L217.829 25.2804C217.899 25.0167 217.74 24.7432 217.476 24.6728C217.212 24.6024 216.939 24.7604 216.869 25.024L216.834 25.1565C216.785 25.3391 216.586 25.4372 216.411 25.3628C216.326 25.3263 216.241 25.288 216.157 25.248C215.99 25.1686 215.928 24.9625 216.024 24.8051L216.111 24.6605C216.253 24.4273 216.178 24.1205 215.944 23.9783C215.71 23.8366 215.403 23.9111 215.262 24.1444L215.192 24.2607C215.094 24.4216 214.876 24.4604 214.73 24.3407C214.729 24.3401 214.728 24.3392 214.727 24.3384C214.655 24.2789 214.584 24.2182 214.515 24.1563C214.378 24.0338 214.378 23.8193 214.513 23.6955L214.637 23.5823C214.839 23.3984 214.853 23.0829 214.669 22.8809C214.484 22.6792 214.169 22.6644 213.967 22.8482L213.866 22.9406C213.726 23.0681 213.506 23.042 213.399 22.8855C213.346 22.8084 213.295 22.7305 213.246 22.6516C213.148 22.4948 213.208 22.2881 213.373 22.2071L213.526 22.1328C213.771 22.0135 213.873 21.715 213.753 21.4694C213.633 21.2238 213.334 21.1206 213.089 21.2402L212.966 21.2998C212.796 21.3826 212.591 21.2955 212.533 21.115C212.505 21.0266 212.478 20.9373 212.453 20.8481C212.404 20.6704 212.519 20.489 212.701 20.4586L212.867 20.4304C213.136 20.3849 213.319 20.1275 213.273 19.8584C213.439 19.6564 213.264 19.3564 213.006 19.3996L212.566 19.4741C212.379 19.5059 212.207 19.3647 212.202 19.1754C212.199 19.0829 212.199 18.9901 212.199 18.8972C212.202 18.7127 212.364 18.5708 212.547 18.5926L212.7 18.6109C212.942 18.6397 213.179 18.4968 213.247 18.2626C213.336 17.9605 213.128 17.6624 212.829 17.627L212.692 17.6109C212.504 17.5885 212.379 17.405 212.427 17.2225C212.451 17.1328 212.476 17.0433 212.503 16.9544C212.558 16.7785 212.753 16.6878 212.923 16.7603L213.068 16.8221C213.29 16.9168 213.553 16.8482 213.686 16.6477C213.862 16.3825 213.746 16.0335 213.467 15.9141L213.342 15.8603C213.167 15.7861 213.099 15.5742 213.197 15.4124C213.245 15.334 213.294 15.2553 213.346 15.1777C213.448 15.0242 213.66 14.9927 213.803 15.1101L213.933 15.2173C214.145 15.391 214.459 15.3606 214.632 15.1501C214.806 14.9394 214.774 14.6252 214.563 14.4515L214.458 14.3649C214.312 14.2445 214.305 14.0224 214.445 13.8949C214.513 13.8323 214.583 13.7707 214.654 13.7114C214.795 13.5926 215.008 13.6219 215.112 13.7748L215.199 13.9029C215.337 14.1047 215.6 14.19 215.822 14.0891C216.108 13.9588 216.197 13.6068 216.028 13.3578L215.951 13.2441C215.844 13.0874 215.9 12.8723 216.071 12.7895C216.154 12.7489 216.239 12.7099 216.323 12.6725C216.493 12.5987 216.688 12.6875 216.745 12.8631L216.793 13.0107C216.868 13.2433 217.097 13.3993 217.339 13.365C217.651 13.3203 217.835 13.0083 217.742 12.7218L217.701 12.5926C217.643 12.4124 217.757 12.2219 217.944 12.1906C218.036 12.1751 218.127 12.1614 218.22 12.1499C218.402 12.1264 218.566 12.2665 218.571 12.4507L218.575 12.6042C218.582 12.8482 218.758 13.0622 218.999 13.097C219.311 13.142 219.576 12.8946 219.569 12.5939L219.565 12.4577C219.56 12.2686 219.723 12.1187 219.911 12.1408C220.004 12.1518 220.096 12.1645 220.187 12.179C220.37 12.208 220.487 12.3887 220.44 12.5667L220.397 12.7295C220.327 12.9934 220.486 13.2667 220.75 13.3373C220.948 13.4997 221.247 13.4041 221.312 13.1569L221.392 12.853C221.441 12.6701 221.641 12.5727 221.815 12.6471C221.9 12.6834 221.985 12.7217 222.069 12.7617C222.236 12.8413 222.298 13.0472 222.203 13.205L222.115 13.3496C221.959 13.6068 222.067 13.9535 222.36 14.0701C222.587 14.1598 222.846 14.0618 222.972 13.8535L223.035 13.7493C223.133 13.5883 223.351 13.5496 223.497 13.6694C223.498 13.67 223.499 13.6708 223.5 13.6717C223.572 13.7311 223.643 13.7917 223.712 13.8535C223.848 13.9765 223.848 14.1913 223.713 14.315ZM222.965 21.7559C223.602 20.8648 223.887 19.816 223.837 18.7854L222.236 18.9395C222.25 19.5599 222.082 20.1865 221.72 20.7319L222.965 21.7559ZM222.556 22.2527L221.311 21.2286C220.845 21.6891 220.263 21.9754 219.652 22.0815L219.809 23.6825C220.83 23.5325 221.804 23.0504 222.556 22.2527ZM219.167 23.7326L219.009 22.126C218.406 22.1058 217.805 21.9122 217.285 21.5379L216.265 22.7778C217.131 23.4305 218.154 23.7437 219.167 23.7326ZM214.425 19.6905C214.572 20.6743 215.028 21.6153 215.777 22.3563L216.802 21.11C216.388 20.6595 216.128 20.1106 216.026 19.5366L214.425 19.6905ZM215.251 16.2452C214.648 17.0878 214.36 18.0719 214.373 19.0482L215.98 18.8935C215.998 18.3286 216.167 17.7651 216.496 17.2691L215.251 16.2452ZM218.104 18.1748C217.649 18.728 217.73 19.5456 218.285 20.0017C218.839 20.4576 219.657 20.379 220.112 19.826C220.567 19.273 220.486 18.4549 219.932 17.9991C219.377 17.543 218.559 17.622 218.104 18.1748ZM215.66 15.7483L216.905 16.7725C217.328 16.3534 217.849 16.0786 218.399 15.9523L218.241 14.3459C217.281 14.5215 216.371 14.9941 215.66 15.7483ZM218.881 14.2726L219.039 15.8738C219.622 15.8621 220.21 16.0122 220.732 16.3315L221.757 15.0849C220.886 14.4931 219.875 14.2272 218.881 14.2726ZM221.246 16.7222C221.714 17.1607 222.02 17.7127 222.156 18.3L223.763 18.1455C223.578 17.1489 223.073 16.2053 222.266 15.4823L221.246 16.7222Z" fill="white"/>
<path d="M153.268 17.1407C153.639 17.4734 153.639 18.0589 153.267 18.3969L152.957 18.6795C152.465 19.1295 152.338 19.8708 152.696 20.4306C153.159 21.1492 154.139 21.2511 154.745 20.6981L155.023 20.4441C155.402 20.0986 156.003 20.1641 156.293 20.5892C156.433 20.7987 156.572 21.014 156.708 21.2257C156.97 21.6518 156.805 22.2155 156.355 22.4368L155.974 22.622C155.377 22.9163 155.045 23.5956 155.231 24.2302C155.469 25.0522 156.382 25.4271 157.116 25.0659L157.451 24.904C157.917 24.6751 158.472 24.9103 158.627 25.4003C158.704 25.641 158.777 25.8841 158.842 26.1276C158.979 26.6093 158.663 27.104 158.166 27.1897L157.716 27.2693C156.982 27.3935 156.484 28.0969 156.607 28.8312C156.156 29.3799 156.626 30.1948 157.326 30.0744L158.525 29.869C159.032 29.7813 159.502 30.1649 159.514 30.6769C159.52 30.93 159.52 31.1827 159.516 31.437C159.507 31.9398 159.065 32.3253 158.566 32.2695L158.113 32.2159C157.378 32.1323 156.701 32.6675 156.613 33.4028C156.526 34.1463 157.057 34.8169 157.793 34.9003L158.163 34.9441C158.675 35.0038 159.015 35.5019 158.88 36.0008C158.817 36.2452 158.744 36.4852 158.673 36.7279C158.522 37.2103 157.989 37.4584 157.528 37.2649L157.107 37.0831C156.423 36.7942 155.624 37.1145 155.331 37.801C155.041 38.4866 155.359 39.2801 156.041 39.5717L156.38 39.7166C156.854 39.9185 157.039 40.4932 156.772 40.9362C156.64 41.1489 156.504 41.3613 156.362 41.5745C156.084 41.9902 155.507 42.0824 155.119 41.7628L154.769 41.4752C154.194 41.0021 153.341 41.0858 152.866 41.6634C152.391 42.2405 152.473 43.0947 153.048 43.5678L153.33 43.8002C153.726 44.1252 153.742 44.7305 153.365 45.0786C153.177 45.2508 152.986 45.4166 152.792 45.5795C152.411 45.9049 151.829 45.8263 151.546 45.409L151.312 45.0625C150.942 44.5158 150.221 44.2852 149.622 44.561C148.839 44.9185 148.594 45.8778 149.052 46.5565L149.261 46.8651C149.552 47.2914 149.393 47.8753 148.933 48.1025C148.703 48.2144 148.473 48.3211 148.241 48.4225C147.783 48.6253 147.251 48.388 147.097 47.9099L146.956 47.4717C146.731 46.7657 145.966 46.3736 145.261 46.602C144.552 46.8318 144.157 47.5997 144.386 48.3033L144.494 48.656C144.654 49.1477 144.337 49.6657 143.832 49.7551C143.583 49.7954 143.334 49.8347 143.081 49.8672C142.586 49.9329 142.141 49.5533 142.129 49.0474L142.12 48.592C142.101 47.8492 141.481 47.2594 140.737 47.2787C139.996 47.302 139.4 47.9257 139.42 48.6679L139.429 49.0383C139.441 49.5543 138.995 49.9627 138.482 49.906C138.231 49.8783 137.981 49.8423 137.731 49.8044C137.236 49.7262 136.918 49.2371 137.046 48.7521L137.17 48.3054C137.358 47.5864 136.929 46.8468 136.212 46.6556C135.493 46.4663 134.751 46.8997 134.559 47.6184L134.463 47.9767C134.328 48.4768 133.786 48.7431 133.31 48.5435C133.079 48.4435 132.851 48.342 132.62 48.234C132.169 48.0184 132 47.4572 132.26 47.0282L132.502 46.6348C132.888 45.9993 132.687 45.1627 132.055 44.7776C131.418 44.3948 130.582 44.5997 130.197 45.2351L130.004 45.5543C129.736 45.9916 129.144 46.1019 128.748 45.7758C128.746 45.7741 128.742 45.7712 128.741 45.7701C128.546 45.6096 128.351 45.4453 128.165 45.2778C127.793 44.9421 127.794 44.3579 128.165 44.0198L128.503 43.714C129.052 43.2084 129.091 42.3502 128.594 41.8033C128.092 41.2536 127.239 41.2183 126.687 41.7216L126.41 41.9709C126.032 42.3219 125.428 42.2508 125.141 41.8281C124.999 41.6161 124.86 41.4085 124.729 41.1924C124.463 40.7663 124.626 40.2014 125.076 39.982L125.494 39.7762C126.161 39.4515 126.442 38.6349 126.12 37.9688C125.796 37.3028 124.983 37.0231 124.315 37.3523L123.981 37.5138C123.517 37.7433 122.961 37.5075 122.804 37.0162C122.727 36.7735 122.656 36.5348 122.587 36.2896C122.455 35.8062 122.771 35.3125 123.265 35.2259L123.719 35.1485C124.45 35.0211 124.949 34.3185 124.827 33.59C125.28 33.0383 124.81 32.2213 124.104 32.3412L122.907 32.5474C122.399 32.6357 121.933 32.2518 121.92 31.7356C121.914 31.4852 121.913 31.2328 121.915 30.9814C121.924 30.4769 122.367 30.09 122.865 30.1472L123.281 30.1955C123.938 30.272 124.583 29.8793 124.771 29.2413C125.015 28.4203 124.453 27.6086 123.641 27.5176L123.27 27.4739C122.76 27.4166 122.416 26.9139 122.553 26.4167C122.617 26.1723 122.688 25.928 122.764 25.688C122.911 25.2047 123.444 24.9596 123.907 25.1551L124.299 25.3241C124.901 25.5778 125.617 25.3889 125.982 24.8394C126.461 24.1164 126.152 23.1693 125.392 22.8476L125.054 22.7013C124.578 22.5007 124.393 21.9271 124.664 21.4855C124.793 21.2689 124.929 21.0529 125.069 20.844C125.348 20.4239 125.927 20.3362 126.313 20.6541L126.668 20.9455C127.241 21.4172 128.095 21.3299 128.569 20.7544C129.041 20.1799 128.961 19.3255 128.388 18.8539L128.102 18.6186C127.706 18.2927 127.689 17.6862 128.068 17.3403C128.256 17.1667 128.447 16.9998 128.64 16.8374C129.022 16.5095 129.603 16.5929 129.885 17.005L130.122 17.3562C130.492 17.9033 131.209 18.1312 131.812 17.8562C132.591 17.4963 132.837 16.5373 132.38 15.8624L132.173 15.5559C131.882 15.1258 132.037 14.5394 132.499 14.3135C132.729 14.2018 132.957 14.0978 133.192 13.9943C133.651 13.7919 134.184 14.0309 134.336 14.5074L134.464 14.9123C134.666 15.5426 135.287 15.965 135.945 15.8693C136.792 15.7464 137.295 14.8935 137.047 14.1129L136.937 13.7627C136.78 13.2716 137.093 12.7538 137.6 12.6661C137.848 12.6236 138.097 12.5863 138.35 12.5535C138.848 12.4883 139.29 12.8673 139.303 13.3693L139.313 13.7885C139.329 14.4514 139.804 15.0324 140.463 15.1265C141.308 15.2458 142.031 14.57 142.012 13.7506L142.004 13.3806C141.991 12.8649 142.438 12.4555 142.947 12.514C143.2 12.5427 143.45 12.5764 143.701 12.6151C144.195 12.6925 144.515 13.1857 144.384 13.6676L144.264 14.1123C144.074 14.8306 144.503 15.5734 145.22 15.7644C145.755 16.2047 146.569 15.9421 146.748 15.2701L146.969 14.4409C147.105 13.9429 147.647 13.6753 148.121 13.8775C148.354 13.9749 148.582 14.077 148.812 14.1859C149.265 14.4001 149.432 14.9588 149.172 15.3911L148.931 15.7844C148.503 16.4862 148.793 17.429 149.588 17.7433C150.206 17.9872 150.91 17.7176 151.255 17.149L151.428 16.8647C151.696 16.4277 152.292 16.3193 152.684 16.642C152.687 16.6443 152.69 16.6465 152.693 16.649C152.889 16.8094 153.079 16.9715 153.268 17.1407ZM137.957 24.3107L140.757 29.7328L142.61 23.9304C141.06 23.5666 139.426 23.698 137.957 24.3107ZM147.858 28.3778L142.434 31.1592L148.247 33.0308C148.61 31.4789 148.473 29.846 147.858 28.3778ZM141.89 30.1017L147.31 27.3186C146.882 26.6309 146.343 26.0016 145.682 25.4579C145.08 24.9631 144.429 24.5735 143.746 24.2993L141.89 30.1017ZM148.161 22.2771C147.649 21.8561 146.889 21.9276 146.466 22.4414C146.043 22.9558 146.12 23.716 146.632 24.1371C147.147 24.5606 147.908 24.4897 148.331 23.9752C148.754 23.4615 148.676 22.7007 148.161 22.2771ZM151.172 31.4182C151.836 31.3575 152.323 30.7663 152.253 30.1032C152.188 29.4393 151.599 28.9545 150.937 29.0206C150.276 29.0831 149.79 29.6742 149.855 30.3357C149.919 30.9963 150.509 31.4812 151.172 31.4182ZM149.616 38.5138C150.04 37.9986 149.966 37.2422 149.451 36.8189C148.936 36.3957 148.179 36.4683 147.756 36.9836C147.334 37.4957 147.408 38.2546 147.922 38.6778C148.437 39.1011 149.195 39.026 149.616 38.5138ZM146.729 36.0962C147.224 35.4948 147.608 34.8472 147.882 34.1633L142.072 32.2942L144.868 37.7205C145.558 37.2964 146.189 36.7534 146.729 36.0962ZM133.915 34.1967L139.329 31.4119L133.524 29.5458C133.159 31.0936 133.296 32.7256 133.915 34.1967ZM135.076 39.7679C135.498 39.2547 135.419 38.4947 134.906 38.0729C134.393 37.6506 133.632 37.7198 133.21 38.233C132.787 38.7467 132.865 39.5079 133.379 39.9302C133.892 40.3521 134.654 40.2816 135.076 39.7679ZM136.092 37.1171C136.69 37.6085 137.344 37.9942 138.022 38.2738L139.877 32.4722L134.459 35.253C134.885 35.9432 135.432 36.5744 136.092 37.1171ZM143.813 38.2623L141.016 32.8313L139.159 38.6412C140.713 39.0091 142.343 38.8757 143.813 38.2623ZM141.8 42.5863C142.462 42.5192 142.944 41.9324 142.881 41.2715C142.814 40.6074 142.226 40.1235 141.564 40.1881C140.9 40.2513 140.418 40.8381 140.482 41.5029C140.548 42.1643 141.136 42.6481 141.8 42.5863ZM130.368 30.7903C129.704 30.8551 129.221 31.4423 129.285 32.1074C129.351 32.7716 129.938 33.2546 130.604 33.1923C131.268 33.1258 131.751 32.5385 131.687 31.8752C131.618 31.2126 131.03 30.7294 130.368 30.7903ZM131.92 23.6953C131.498 24.2085 131.574 24.9661 132.09 25.3901C132.603 25.8126 133.361 25.7411 133.783 25.2279C134.206 24.7135 134.133 23.9529 133.619 23.5304C133.103 23.1063 132.343 23.1811 131.92 23.6953ZM135.041 26.4831C134.553 27.0762 134.161 27.7256 133.887 28.4096L139.696 30.2803L136.902 24.8515C136.209 25.2775 135.585 25.8215 135.041 26.4831ZM139.739 19.6231C139.078 19.6866 138.592 20.2769 138.658 20.9374C138.725 21.6024 139.315 22.0873 139.975 22.021C140.639 21.9606 141.125 21.3703 141.056 20.7068C140.995 20.045 140.405 19.5601 139.739 19.6231Z" fill="white"/>
<path d="M118.094 15.0197L119.47 14.1613L120.33 14.9734L119.548 16.395C119.756 16.6492 119.948 16.9193 120.125 17.2038L121.743 16.9195L122.233 17.9945L120.955 19.0235C121.064 19.3764 121.146 19.7317 121.203 20.0882L122.786 20.4564L122.82 21.6362L121.26 22.0871C121.227 22.4167 121.172 22.743 121.097 23.064L122.427 24.0012L122.014 25.1059L120.397 24.9357C120.228 25.2563 120.035 25.566 119.821 25.8608L120.683 27.2398L119.872 28.0962L118.448 27.3114C118.194 27.5181 117.924 27.7105 117.64 27.8864L117.928 29.5042L116.854 29.9916L115.821 28.7112C115.469 28.8191 115.113 28.9005 114.757 28.9569L114.393 30.5381L113.212 30.5692L112.758 29.0083C112.427 28.974 112.101 28.9184 111.78 28.843L110.845 30.1708L109.738 29.7551L109.905 28.1391C109.584 27.9688 109.273 27.7758 108.978 27.5607L107.601 28.4186L106.742 27.6065L107.523 26.1851C107.316 25.9301 107.123 25.6609 106.946 25.3761L105.329 25.6606L104.838 24.5856L106.117 23.5561C106.008 23.2037 105.925 22.8482 105.868 22.4917L104.285 22.124L104.251 20.9442L105.811 20.4933C105.845 20.1636 105.899 19.8373 105.974 19.5164L104.643 18.5792L105.057 17.4739L106.674 17.6444C106.844 17.3238 107.036 17.0142 107.25 16.7191L106.388 15.3403L107.199 14.4838L108.623 15.2683C108.877 15.0616 109.146 14.8693 109.43 14.6933L109.142 13.0756L110.217 12.5881L111.25 13.8687C111.602 13.7606 111.957 13.6792 112.314 13.6235L112.678 12.0421L113.859 12.011L114.313 13.5716C114.643 13.6057 114.97 13.6615 115.291 13.7374L116.226 12.4096L117.332 12.8254L117.165 14.4414C117.487 14.6118 117.797 14.8046 118.094 15.0197ZM113.646 18.6744C114.129 18.6903 114.72 18.9354 114.998 19.1187L117.127 16.5294C115.823 15.5114 114.641 15.2498 113.299 15.2908L113.646 18.6744ZM112.73 20.5028C112.34 20.9776 112.409 21.6833 112.886 22.0751C113.362 22.4668 114.067 22.3987 114.458 21.9238C114.849 21.4484 114.779 20.7432 114.303 20.3516C113.827 19.9598 113.121 20.0274 112.73 20.5028ZM117.633 16.9555L115.495 19.5549C115.703 19.8228 116.035 20.3896 116.105 20.8775L119.484 20.561C119.31 19.2178 118.6 17.8625 117.633 16.9555ZM119.404 21.1969L115.96 21.583C115.931 21.9791 115.918 22.2372 115.54 22.783L118.216 24.9837C119.192 23.6451 119.453 22.4699 119.404 21.1969ZM118.017 25.248L115.341 23.0473C114.889 23.5321 114.593 23.5993 114.133 23.7045L114.464 27.2367C115.809 27.0185 117.155 26.2528 118.017 25.248ZM113.992 27.2568L113.655 23.7541C113.197 23.7591 112.634 23.5552 112.334 23.399L110.073 26.1476C111.151 26.9203 112.63 27.354 113.992 27.2568ZM109.558 25.7328L111.81 22.9951C111.575 22.76 111.257 22.2888 111.138 21.8563L107.598 22.1838C107.811 23.5203 108.307 24.6499 109.558 25.7328ZM107.548 21.7194L111.033 21.4017C111.003 20.8588 111.074 20.3943 111.458 19.8532L108.788 17.6573C107.969 18.6974 107.45 20.2894 107.548 21.7194ZM109.009 17.4111L111.678 19.607C112.149 19.1373 112.575 18.939 113.037 18.8547L112.655 15.5448C111.321 15.7069 110.137 16.1983 109.009 17.4111Z" fill="white"/>
<path d="M301.58 -22.0871L305.756 -24.6908L308.362 -22.2275L305.991 -17.9149C306.622 -17.1438 307.206 -16.3246 307.742 -15.4615L312.65 -16.3239L314.137 -13.0629L310.26 -9.94156C310.59 -8.871 310.839 -7.79324 311.013 -6.71165L315.814 -5.59482L315.917 -2.01578L311.186 -0.648134C311.084 0.35186 310.918 1.34173 310.69 2.31556L314.727 5.1585L313.474 8.50968L308.568 7.99322C308.053 8.96582 307.469 9.90522 306.82 10.7995L309.435 14.9829L306.975 17.5805L302.656 15.2C301.884 15.8268 301.066 16.4105 300.204 16.9443L301.078 21.8517L297.82 23.3304L294.687 19.4464C293.617 19.7737 292.539 20.0206 291.458 20.1915L290.354 24.988L286.771 25.0826L285.393 20.3476C284.391 20.2435 283.401 20.0748 282.426 19.8461L279.59 23.874L276.234 22.6128L276.739 17.7108C275.765 17.1941 274.824 16.6086 273.926 15.9561L269.749 18.5586L267.144 16.0951L269.514 11.7833C268.885 11.0099 268.3 10.193 267.764 9.3292L262.857 10.1922L261.369 6.93134L265.248 3.80831C264.918 2.73917 264.667 1.6609 264.494 0.57931L259.693 -0.536102L259.589 -4.115L264.321 -5.48279C264.422 -6.48279 264.588 -7.47264 264.815 -8.44634L260.778 -11.2893L262.033 -14.642L266.939 -14.1249C267.453 -15.0974 268.037 -16.0368 268.686 -16.9319L266.071 -21.1144L268.53 -23.7127L272.85 -21.3329C273.621 -21.9598 274.438 -22.5433 275.299 -23.077L274.426 -27.9846L277.685 -29.4633L280.818 -25.5786C281.887 -25.9065 282.965 -26.1535 284.047 -26.3223L285.152 -31.1196L288.733 -31.214L290.112 -26.4798C291.113 -26.3763 292.104 -26.207 293.077 -25.9768L295.913 -30.0047L299.268 -28.7433L298.763 -23.8413C299.741 -23.3242 300.681 -22.7394 301.58 -22.0871ZM288.089 -11.0005C289.553 -10.9521 291.346 -10.2087 292.188 -9.65276L298.648 -17.5073C294.692 -20.5955 291.107 -21.3889 287.036 -21.2645L288.089 -11.0005ZM285.309 -5.4541C284.125 -4.01354 284.336 -1.87286 285.781 -0.684255C287.226 0.503715 289.366 0.297319 290.551 -1.14325C291.737 -2.58536 291.526 -4.72464 290.081 -5.91261C288.636 -7.10121 286.495 -6.89622 285.309 -5.4541ZM300.183 -16.2148L293.698 -8.3293C294.329 -7.51685 295.336 -5.79729 295.548 -4.31745L305.797 -5.27754C305.269 -9.35189 303.116 -13.4633 300.183 -16.2148ZM305.554 -3.34846L295.106 -2.17729C295.019 -0.975576 294.979 -0.192565 293.834 1.46306L301.951 8.139C304.911 4.07833 305.703 0.513289 305.554 -3.34846ZM301.346 8.9407L293.229 2.26474C291.858 3.73554 290.961 3.93917 289.565 4.2583L290.57 14.9732C294.649 14.3113 298.734 11.9887 301.346 8.9407ZM289.139 15.0342L288.115 4.40886C286.724 4.42388 285.017 3.80543 284.108 3.33162L277.25 11.6697C280.519 14.0136 285.007 15.3292 289.139 15.0342ZM275.687 10.4113L282.517 2.10657C281.805 1.3933 280.841 -0.0360776 280.48 -1.34822L269.741 -0.354634C270.388 3.69956 271.893 7.1263 275.687 10.4113ZM269.59 -1.76345L280.161 -2.72702C280.071 -4.37415 280.286 -5.78301 281.449 -7.42462L273.35 -14.0859C270.867 -10.9307 269.293 -6.10124 269.59 -1.76345ZM274.02 -14.8327L282.119 -8.17135C283.546 -9.59627 284.839 -10.1978 286.241 -10.4533L285.083 -20.494C281.034 -20.0025 277.444 -18.5116 274.02 -14.8327Z" fill="white"/>
<path d="M221.336 66.6585L221.498 66.5245C221.754 66.3116 222.132 66.3006 222.385 66.5181C222.711 66.7988 222.696 67.2952 222.38 67.5579L222.236 67.6774C222.038 67.8425 222.031 68.1457 222.222 68.3198C222.317 68.4056 222.413 68.4894 222.51 68.5706C222.704 68.7327 222.995 68.6915 223.135 68.482L223.254 68.3054C223.44 68.0293 223.799 67.912 224.103 68.049C224.495 68.2262 224.62 68.7073 224.39 69.0489L224.286 69.2037C224.142 69.4178 224.222 69.712 224.455 69.8251C224.57 69.8798 224.685 69.9329 224.802 69.9835C225.033 70.084 225.3 69.9623 225.375 69.7219L225.444 69.5025C225.557 69.1469 225.939 68.9483 226.295 69.0616C226.599 68.875 226.973 69.1676 226.865 69.5086L226.682 70.0908C226.604 70.3373 226.762 70.5968 227.017 70.6395C227.142 70.6603 227.268 70.6789 227.394 70.6947C227.644 70.7262 227.867 70.5337 227.871 70.2816L227.876 70.0522C227.883 69.6794 228.195 69.3806 228.567 69.3887C228.94 69.397 229.239 69.7095 229.231 70.0824L229.227 70.2703C229.222 70.5284 229.447 70.7331 229.703 70.7026C229.829 70.6874 229.955 70.6699 230.08 70.6495C230.329 70.6091 230.488 70.3618 230.422 70.1185L230.361 69.8947C230.264 69.5344 230.478 69.1601 230.837 69.0629L230.838 69.0632C231.197 68.9662 231.572 69.1812 231.669 69.5418L231.719 69.7215C231.786 69.9713 232.06 70.1046 232.297 70.0021C232.412 69.9523 232.528 69.8995 232.643 69.8446C232.87 69.7357 232.953 69.4537 232.821 69.2383L232.7 69.0418C232.505 68.7232 232.605 68.3036 232.923 68.1088C233.241 67.9139 233.661 68.0153 233.856 68.3335L233.953 68.4922C234.088 68.713 234.388 68.7638 234.586 68.5985C234.684 68.5178 234.78 68.4351 234.874 68.3505C235.061 68.1821 235.061 67.8876 234.875 67.7184L234.717 67.5758C234.47 67.3519 234.404 66.9792 234.583 66.6977C234.813 66.3346 235.306 66.2804 235.611 66.557L235.75 66.6827C235.942 66.8566 236.244 66.8205 236.388 66.606C236.459 66.5004 236.527 66.3936 236.594 66.2854C236.725 66.0712 236.642 65.7887 236.415 65.6787L236.207 65.5777C235.871 65.4153 235.728 65.0068 235.89 64.671C236.052 64.3349 236.459 64.193 236.795 64.3554L236.962 64.4363C237.195 64.549 237.474 64.4297 237.551 64.183C237.59 64.0621 237.625 63.9405 237.659 63.8184C237.725 63.5749 237.566 63.3272 237.317 63.286L237.091 63.2484C236.723 63.1869 236.472 62.8354 236.532 62.4674C236.592 62.099 236.943 61.8478 237.311 61.9091L237.495 61.9396C237.75 61.9818 237.983 61.789 237.989 61.5305C237.992 61.4039 237.992 61.2765 237.99 61.1497C237.985 60.8972 237.762 60.7039 237.512 60.7342L237.284 60.7619C236.914 60.8069 236.574 60.5406 236.528 60.1699C236.482 59.7998 236.748 59.4596 237.118 59.4146L237.304 59.3918C237.56 59.3603 237.73 59.1091 237.662 58.8591C237.629 58.7365 237.593 58.6148 237.555 58.4936C237.479 58.2529 237.212 58.13 236.981 58.2297L236.769 58.3211C236.426 58.4683 236.025 58.3087 235.877 57.9656C235.729 57.6225 235.888 57.2216 236.23 57.0743L236.401 57.0009C236.637 56.8992 236.731 56.6111 236.596 56.3915C236.595 56.3904 236.594 56.3888 236.593 56.3873C236.526 56.2783 236.458 56.1711 236.387 56.0654C236.247 55.857 235.957 55.8166 235.764 55.9763L235.587 56.1233C235.3 56.361 234.871 56.3207 234.632 56.0335C234.394 55.746 234.433 55.3158 234.72 55.078L234.864 54.9584C235.063 54.7935 235.069 54.4898 234.877 54.3157C234.783 54.2299 234.687 54.1461 234.59 54.0649C234.396 53.9027 234.105 53.9444 233.964 54.1531L233.835 54.3458C233.627 54.6549 233.204 54.7373 232.894 54.5286C232.584 54.3199 232.501 53.8961 232.709 53.5862L232.813 53.432C232.957 53.2169 232.878 52.9231 232.645 52.8107C232.53 52.7556 232.415 52.7026 232.298 52.6524C232.067 52.5519 231.8 52.6738 231.725 52.914L231.655 53.1336C231.543 53.4891 231.16 53.6878 230.805 53.5749C230.5 53.7618 230.127 53.4689 230.234 53.1282L230.418 52.5459C230.496 52.2992 230.337 52.0397 230.082 51.9969C229.957 51.9758 229.832 51.9579 229.706 51.9412C229.456 51.9101 229.233 52.1021 229.229 52.3543L229.224 52.5646C229.218 52.8978 228.98 53.191 228.65 53.2401C228.225 53.3026 227.86 52.9652 227.869 52.5535L227.873 52.3661C227.878 52.1075 227.653 51.9028 227.397 51.9337C227.271 51.9488 227.145 51.9666 227.02 51.9868C226.772 52.0271 226.612 52.2744 226.678 52.518L226.734 52.7257C226.821 53.0438 226.678 53.3872 226.382 53.529C225.99 53.7169 225.539 53.4954 225.43 53.0947L225.381 52.915C225.314 52.6648 225.04 52.5321 224.803 52.6342C224.687 52.6848 224.571 52.7372 224.457 52.7921C224.23 52.901 224.147 53.1828 224.279 53.3982L224.4 53.5947C224.595 53.9133 224.495 54.3331 224.177 54.5277C223.859 54.7226 223.44 54.6213 223.245 54.3027L223.147 54.144C223.012 53.9233 222.713 53.8725 222.514 54.0374C222.416 54.1184 222.32 54.2008 222.226 54.2858C222.039 54.4541 222.038 54.7487 222.226 54.9179L222.383 55.0597C222.63 55.2839 222.695 55.6566 222.517 55.9381C222.287 56.3008 221.794 56.3551 221.489 56.0788L221.349 55.9527C221.157 55.7789 220.856 55.8149 220.712 56.0294C220.641 56.1354 220.572 56.2421 220.506 56.3497C220.374 56.5645 220.457 56.8464 220.684 56.9564L220.875 57.0488C221.175 57.1942 221.344 57.5332 221.251 57.8542C221.132 58.2675 220.675 58.4586 220.305 58.2791L220.138 58.1986C219.905 58.0859 219.626 58.2052 219.548 58.4521C219.51 58.573 219.474 58.6946 219.441 58.8171C219.375 59.0601 219.534 59.3079 219.782 59.3497L219.989 59.3839C220.318 59.4388 220.574 59.7172 220.576 60.0508C220.578 60.4814 220.193 60.7936 219.788 60.7263L219.604 60.6957C219.349 60.6533 219.116 60.8463 219.11 61.1046C219.108 61.2318 219.108 61.3586 219.11 61.4854C219.115 61.7379 219.337 61.9312 219.587 61.9011L219.815 61.8734C220.186 61.8282 220.526 62.0947 220.571 62.4658C220.754 62.7636 220.568 63.1499 220.221 63.1919L219.795 63.2434C219.538 63.2745 219.369 63.5263 219.437 63.7762C219.47 63.8985 219.506 64.0201 219.544 64.142C219.62 64.3824 219.887 64.505 220.119 64.406L220.331 64.3146C220.708 64.1522 221.157 64.363 221.26 64.782C221.339 65.1058 221.157 65.4375 220.851 65.5692L220.699 65.6354C220.462 65.7368 220.369 66.0252 220.503 66.2448C220.504 66.2459 220.505 66.2475 220.506 66.249C220.573 66.3581 220.641 66.4655 220.712 66.5706C220.853 66.7785 221.144 66.8186 221.336 66.6585ZM231.547 67.0479C230.221 67.7425 228.748 67.9311 227.363 67.6694L227.873 65.5317C228.71 65.6674 229.589 65.5574 230.396 65.1702L231.547 67.0479ZM232.296 66.5885L231.145 64.7104C231.856 64.1676 232.353 63.4335 232.611 62.6261L234.748 63.141C234.353 64.4943 233.517 65.7218 232.296 66.5885ZM234.937 62.2816L232.793 61.7643C232.879 60.9451 232.73 60.0955 232.322 59.3209L234.192 58.1745C234.912 59.4687 235.143 60.9125 234.937 62.2816ZM230.36 55.1024C231.664 55.4868 232.852 56.2816 233.713 57.4347L231.834 58.587C231.302 57.9419 230.608 57.4857 229.851 57.2405L230.36 55.1024ZM225.542 55.5719C226.796 54.9145 228.182 54.7104 229.501 54.9117L228.989 57.0569C228.221 56.9742 227.427 57.0971 226.693 57.4496L225.542 55.5719ZM227.616 59.796C228.451 59.2844 229.542 59.5478 230.055 60.3842C230.567 61.2202 230.307 62.3127 229.473 62.824C228.638 63.3354 227.547 63.0718 227.034 62.2358C226.521 61.3994 226.782 60.3071 227.616 59.796ZM224.793 56.0313L225.944 57.9094C225.298 58.4028 224.828 59.0551 224.553 59.7768L222.409 59.2599C222.827 57.9937 223.639 56.8508 224.793 56.0313ZM222.189 60.1118L224.326 60.6271C224.201 61.4138 224.293 62.2387 224.627 63.0052L222.747 64.1578C222.11 62.8674 221.941 61.4483 222.189 60.1118ZM225.059 63.7739C225.564 64.4899 226.253 65.0075 227.022 65.3024L226.511 67.4479C225.197 67.0099 224.015 66.1497 223.189 64.9203L225.059 63.7739Z" fill="white"/>
</g>
</svg>
