<svg width="18" height="18" viewBox="0 0 18 18" fill="none" xmlns="http://www.w3.org/2000/svg">
<mask id="mask0_1332_5454" style="mask-type:alpha" maskUnits="userSpaceOnUse" x="0" y="0" width="18" height="18">
<rect x="6.10352e-05" width="18" height="18" fill="#D9D9D9"/>
</mask>
<g mask="url(#mask0_1332_5454)">
<mask id="mask1_1332_5454" style="mask-type:alpha" maskUnits="userSpaceOnUse" x="0" y="1" width="18" height="17">
<path d="M9.00006 1L11.5393 6.50505L17.5596 7.21885L13.1086 11.335L14.2901 17.2812L9.00006 14.32L3.70999 17.2812L4.8915 11.335L0.440553 7.21885L6.46083 6.50505L9.00006 1Z" fill="#FB7E01"/>
</mask>
<g mask="url(#mask1_1332_5454)">
<path d="M9.00006 1L11.5393 6.50505L17.5596 7.21885L13.1086 11.335L14.2901 17.2812L9.00006 14.32L3.70999 17.2812L4.8915 11.335L0.440553 7.21885L6.46083 6.50505L9.00006 1Z" fill="#FB7E01"/>
<rect x="9.00006" y="1" width="9" height="17" fill="#8993AA"/>
</g>
</g>
</svg>
