<svg width="302" height="88" viewBox="0 0 302 88" fill="none" xmlns="http://www.w3.org/2000/svg">
<g filter="url(#filter0_d_685_5429)">
<rect x="49.3691" y="-53.4785" width="203.258" height="203.258" rx="101.629" fill="url(#paint0_linear_685_5429)"/>
<rect x="49.3691" y="-53.4785" width="203.258" height="203.258" rx="101.629" stroke="url(#paint1_angular_685_5429)" stroke-width="12.6509"/>
</g>
<path d="M139.634 -30.2762C145.84 -36.7219 156.158 -36.7219 162.364 -30.2762C166.58 -25.8966 172.938 -24.3296 178.707 -26.248C187.197 -29.0714 196.334 -24.2762 198.833 -15.6849C200.531 -9.84752 205.433 -5.50533 211.432 -4.52309C220.262 -3.07747 226.124 5.41439 224.344 14.1831C223.135 20.1411 225.457 26.2637 230.313 29.9215C237.46 35.3051 238.703 45.5482 233.053 52.4856C229.213 57.1992 228.424 63.6996 231.024 69.1951C234.85 77.2832 231.191 86.931 222.964 90.4478C217.374 92.8373 213.654 98.2262 213.402 104.3C213.031 113.24 205.308 120.083 196.389 119.373C190.328 118.891 184.53 121.934 181.484 127.195C177.001 134.939 166.983 137.408 159.415 132.635C154.273 129.392 147.725 129.392 142.583 132.635C135.015 137.408 124.996 134.939 120.514 127.195C117.468 121.934 111.67 118.891 105.609 119.373C96.69 120.083 88.9666 113.24 88.5958 104.3C88.3439 98.2262 84.6242 92.8373 79.0341 90.4478C70.8067 86.931 67.1477 77.2832 70.974 69.1951C73.5737 63.6996 72.7844 57.1992 68.9451 52.4856C63.2944 45.5482 64.5381 35.3051 71.6848 29.9215C76.5407 26.2637 78.8627 20.1411 77.6536 14.1831C75.8742 5.41439 81.7357 -3.07747 90.5656 -4.52309C96.5651 -5.50533 101.466 -9.84752 103.165 -15.6849C105.664 -24.2762 114.801 -29.0714 123.291 -26.248C129.06 -24.3296 135.418 -25.8966 139.634 -30.2762Z" fill="#F6F6F6" fill-opacity="0.1"/>
<path d="M161.056 -30.4482C168.719 -35.0681 178.685 -32.3975 183.011 -24.5653C185.951 -19.2436 191.686 -16.0845 197.755 -16.4444C206.687 -16.9742 214.271 -9.97768 214.462 -1.03224C214.591 5.0458 218.202 10.5086 223.742 13.0101C231.897 16.6919 235.361 26.4114 231.373 34.4208C228.663 39.8629 229.321 46.3778 233.065 51.1678C238.575 58.2176 237.125 68.4336 229.871 73.6721C224.943 77.2314 222.498 83.306 223.587 89.2871C225.189 98.0899 219.158 106.462 210.301 107.73C204.283 108.591 199.295 112.833 197.48 118.635C194.808 127.175 185.576 131.785 177.145 128.791C171.416 126.757 165.028 128.196 160.724 132.489C154.39 138.809 144.073 138.601 137.999 132.032C133.871 127.568 127.546 125.873 121.74 127.675C113.194 130.327 104.156 125.349 101.83 116.709C100.25 110.839 95.4373 106.399 89.4587 105.296C80.6597 103.673 74.9704 95.0643 76.926 86.3332C78.2548 80.4008 76.0566 74.2327 71.2754 70.4778C64.2386 64.9515 63.2013 54.6854 68.9906 47.8632C72.9241 43.2278 73.8441 36.7446 71.3555 31.1979C67.6929 23.0344 71.5454 13.4622 79.8419 10.1118C85.4791 7.8354 89.3066 2.52243 89.6807 -3.54546C90.2314 -12.476 98.0911 -19.1614 106.994 -18.2724C113.044 -17.6684 118.902 -20.5941 122.053 -25.793C126.691 -33.4447 136.757 -35.7118 144.227 -30.7871C149.303 -27.441 155.85 -27.3092 161.056 -30.4482Z" fill="#F6F6F6" fill-opacity="0.05"/>
<g filter="url(#filter1_di_685_5429)">
<path d="M99.385 34.8278V28.414H114.26V34.8278H99.385ZM127.989 38.2849H137.223V44.3804H116.026V42.9702C120.362 37.9362 123.456 34.2668 125.306 31.9621C127.186 29.627 128.444 27.8378 129.081 26.5945C129.748 25.3511 130.082 24.1836 130.082 23.0919C130.082 22.0305 129.763 21.1814 129.127 20.5445C128.49 19.9077 127.656 19.5893 126.625 19.5893C125.563 19.5893 124.699 19.9228 124.032 20.59C123.395 21.2268 123.077 22.0911 123.077 23.1828V23.7287H116.572V23.0919C116.572 20.2716 117.482 17.9668 119.301 16.1776C121.121 14.3884 123.531 13.4938 126.534 13.4938C128.475 13.4938 130.218 13.9032 131.765 14.722C133.311 15.5105 134.509 16.6325 135.358 18.0882C136.208 19.5438 136.632 21.1814 136.632 23.0009C136.632 24.9417 136.041 26.9887 134.858 29.1418C133.675 31.2949 131.386 34.3426 127.989 38.2849ZM152.501 44.9262C150.014 44.9262 147.846 44.2894 145.996 43.0157C144.146 41.7421 142.721 39.9225 141.72 37.5571C140.719 35.1917 140.219 32.417 140.219 29.2328C140.219 24.3807 141.311 20.5597 143.494 17.7697C145.708 14.9495 148.71 13.5393 152.501 13.5393C156.291 13.5393 159.278 14.9495 161.462 17.7697C163.645 20.5597 164.737 24.3807 164.737 29.2328C164.737 34.0545 163.63 37.8755 161.416 40.6958C159.233 43.5161 156.261 44.9262 152.501 44.9262ZM148.225 36.4199C149.226 38.0575 150.651 38.8763 152.501 38.8763C154.351 38.8763 155.761 38.0575 156.731 36.4199C157.702 34.752 158.187 32.3715 158.187 29.2783C158.187 26.1547 157.686 23.759 156.686 22.0911C155.715 20.4232 154.32 19.5893 152.501 19.5893C150.651 19.5893 149.226 20.4232 148.225 22.0911C147.254 23.7287 146.769 26.1093 146.769 29.2328C146.769 32.3563 147.254 34.752 148.225 36.4199ZM180.33 24.684C178.874 26.1093 176.994 26.8219 174.689 26.8219C172.415 26.8219 170.535 26.1093 169.049 24.684C167.593 23.2283 166.865 21.3785 166.865 19.1344C166.865 16.8903 167.593 15.0556 169.049 13.6303C170.535 12.1747 172.43 11.4469 174.735 11.4469C175.887 11.4469 176.949 11.644 177.919 12.0382C178.89 12.4021 179.708 12.9328 180.375 13.6303C181.073 14.2975 181.604 15.1163 181.968 16.0867C182.362 17.0268 182.559 18.0427 182.559 19.1344C182.559 21.3785 181.816 23.2283 180.33 24.684ZM171.505 44.5623L190.838 12.4931H197.752L178.419 44.5623H171.505ZM174.735 21.7272C175.493 21.7272 176.115 21.4846 176.6 20.9994C177.085 20.5142 177.328 19.8925 177.328 19.1344C177.328 18.3762 177.085 17.7546 176.6 17.2694C176.115 16.7842 175.493 16.5416 174.735 16.5416C173.977 16.5416 173.355 16.7842 172.87 17.2694C172.385 17.7546 172.142 18.3762 172.142 19.1344C172.142 19.8925 172.385 20.5142 172.87 20.9994C173.385 21.4846 174.007 21.7272 174.735 21.7272ZM200.891 42.4244C199.435 43.8497 197.555 44.5623 195.25 44.5623C192.976 44.5623 191.096 43.8497 189.61 42.4244C188.154 40.9991 187.426 39.1644 187.426 36.9203C187.426 34.6762 188.154 32.8415 189.61 31.4162C191.096 29.9606 192.976 29.2328 195.25 29.2328C197.555 29.2328 199.435 29.9606 200.891 31.4162C202.377 32.8415 203.12 34.6762 203.12 36.9203C203.12 39.1644 202.377 40.9991 200.891 42.4244ZM195.25 39.5131C195.614 39.5131 195.963 39.4525 196.296 39.3312C196.63 39.1795 196.903 38.9976 197.115 38.7853C197.358 38.5427 197.54 38.2698 197.661 37.9665C197.782 37.6329 197.843 37.2842 197.843 36.9203C197.843 36.1318 197.6 35.5102 197.115 35.0553C196.63 34.5701 196.008 34.3275 195.25 34.3275C194.492 34.3275 193.87 34.5701 193.385 35.0553C192.9 35.5405 192.657 36.1622 192.657 36.9203C192.657 37.6481 192.9 38.2698 193.385 38.7853C193.901 39.2705 194.522 39.5131 195.25 39.5131Z" fill="url(#paint2_linear_685_5429)"/>
</g>
<g filter="url(#filter2_di_685_5429)">
<path d="M96.8919 75.6924C94.9858 75.6924 93.2464 75.2516 91.6738 74.37C90.125 73.4645 88.8979 72.2255 87.9925 70.6529C87.1109 69.0803 86.6701 67.3409 86.6701 65.4348C86.6701 62.5517 87.647 60.1451 89.6008 58.2151C91.5546 56.2851 93.9969 55.3201 96.9277 55.3201C99.4295 55.3201 101.574 56.0468 103.361 57.5003C105.148 58.9299 106.28 60.8361 106.756 63.2188H101.574C101.145 62.2896 100.514 61.5628 99.6797 61.0386C98.8696 60.4906 97.9403 60.2166 96.8919 60.2166C95.4861 60.2166 94.3067 60.717 93.3536 61.7177C92.4243 62.7185 91.9597 63.9694 91.9597 65.4705C91.9597 66.9716 92.4363 68.2345 93.3893 69.259C94.3424 70.2836 95.51 70.7959 96.8919 70.7959C97.9403 70.7959 98.8696 70.5219 99.6797 69.9738C100.49 69.402 101.121 68.5919 101.574 67.5435H106.828C106.351 69.9977 105.208 71.9753 103.397 73.4764C101.586 74.9537 99.4176 75.6924 96.8919 75.6924ZM126.914 75.1562H120.624L114.405 65.9351V75.1562H109.187V55.8562H114.405V64.434L120.266 55.8562H126.199L119.659 65.0773L126.914 75.1562ZM142.16 55.8562H145.091V75.1562H140.051V64.9344L131.081 75.1562H128.114V55.8562H133.153V65.9709L142.16 55.8562ZM166.544 70.2598H168.903V79.5881H164.185V75.1562H152.104V79.5881H147.351V70.2598H149.352C150.091 69.6641 150.627 68.5085 150.961 66.7929C151.318 65.0773 151.747 61.4318 152.247 55.8562H166.544V70.2598ZM156.822 60.431C156.632 63.3618 156.381 65.5539 156.072 67.0074C155.762 68.4608 155.321 69.5449 154.749 70.2598H161.433V60.431H156.822ZM189.525 75.1562H183.234L177.016 65.9351V75.1562H171.797V55.8562H177.016V64.434L182.877 55.8562H188.81L182.269 65.0773L189.525 75.1562ZM205.684 55.8205H209.579V75.1205H205.469L205.04 73.405C203.277 74.9299 201.192 75.6924 198.786 75.6924C195.879 75.6924 193.46 74.7274 191.53 72.7974C189.624 70.8435 188.671 68.4012 188.671 65.4705C188.671 62.5636 189.624 60.1451 191.53 58.2151C193.46 56.2851 195.879 55.3201 198.786 55.3201C201.24 55.3201 203.348 56.1064 205.112 57.679L205.684 55.8205ZM195.426 69.259C196.427 70.2598 197.678 70.7601 199.179 70.7601C200.704 70.7601 201.966 70.2598 202.967 69.259C203.968 68.2583 204.468 66.9954 204.468 65.4705C204.468 63.9456 203.968 62.6827 202.967 61.682C201.966 60.6812 200.716 60.1809 199.214 60.1809C198.214 60.1809 197.308 60.4191 196.498 60.8957C195.712 61.3484 195.092 61.9798 194.64 62.7899C194.187 63.5762 193.961 64.4698 193.961 65.4705C193.961 66.9954 194.449 68.2583 195.426 69.259Z" fill="url(#paint3_linear_685_5429)"/>
</g>
<defs>
<filter id="filter0_d_685_5429" x="0.87318" y="-101.974" width="300.25" height="300.249" filterUnits="userSpaceOnUse" color-interpolation-filters="sRGB">
<feFlood flood-opacity="0" result="BackgroundImageFix"/>
<feColorMatrix in="SourceAlpha" type="matrix" values="0 0 0 0 0 0 0 0 0 0 0 0 0 0 0 0 0 0 127 0" result="hardAlpha"/>
<feOffset/>
<feGaussianBlur stdDeviation="21.0849"/>
<feComposite in2="hardAlpha" operator="out"/>
<feColorMatrix type="matrix" values="0 0 0 0 0 0 0 0 0 0 0 0 0 0 0 0 0 0 0.7 0"/>
<feBlend mode="normal" in2="BackgroundImageFix" result="effect1_dropShadow_685_5429"/>
<feBlend mode="normal" in="SourceGraphic" in2="effect1_dropShadow_685_5429" result="shape"/>
</filter>
<filter id="filter1_di_685_5429" x="91.4544" y="8.04806" width="119.595" height="49.3402" filterUnits="userSpaceOnUse" color-interpolation-filters="sRGB">
<feFlood flood-opacity="0" result="BackgroundImageFix"/>
<feColorMatrix in="SourceAlpha" type="matrix" values="0 0 0 0 0 0 0 0 0 0 0 0 0 0 0 0 0 0 127 0" result="hardAlpha"/>
<feOffset dy="4.53162"/>
<feGaussianBlur stdDeviation="3.96517"/>
<feComposite in2="hardAlpha" operator="out"/>
<feColorMatrix type="matrix" values="0 0 0 0 0 0 0 0 0 0 0 0 0 0 0 0 0 0 0.25 0"/>
<feBlend mode="normal" in2="BackgroundImageFix" result="effect1_dropShadow_685_5429"/>
<feBlend mode="normal" in="SourceGraphic" in2="effect1_dropShadow_685_5429" result="shape"/>
<feColorMatrix in="SourceAlpha" type="matrix" values="0 0 0 0 0 0 0 0 0 0 0 0 0 0 0 0 0 0 127 0" result="hardAlpha"/>
<feOffset/>
<feGaussianBlur stdDeviation="2.26581"/>
<feComposite in2="hardAlpha" operator="arithmetic" k2="-1" k3="1"/>
<feColorMatrix type="matrix" values="0 0 0 0 1 0 0 0 0 1 0 0 0 0 1 0 0 0 0.8 0"/>
<feBlend mode="normal" in2="shape" result="effect2_innerShadow_685_5429"/>
</filter>
<filter id="filter2_di_685_5429" x="80.4389" y="52.6499" width="135.372" height="36.7295" filterUnits="userSpaceOnUse" color-interpolation-filters="sRGB">
<feFlood flood-opacity="0" result="BackgroundImageFix"/>
<feColorMatrix in="SourceAlpha" type="matrix" values="0 0 0 0 0 0 0 0 0 0 0 0 0 0 0 0 0 0 127 0" result="hardAlpha"/>
<feOffset dy="3.56056"/>
<feGaussianBlur stdDeviation="3.11549"/>
<feComposite in2="hardAlpha" operator="out"/>
<feColorMatrix type="matrix" values="0 0 0 0 0 0 0 0 0 0 0 0 0 0 0 0 0 0 0.25 0"/>
<feBlend mode="normal" in2="BackgroundImageFix" result="effect1_dropShadow_685_5429"/>
<feBlend mode="normal" in="SourceGraphic" in2="effect1_dropShadow_685_5429" result="shape"/>
<feColorMatrix in="SourceAlpha" type="matrix" values="0 0 0 0 0 0 0 0 0 0 0 0 0 0 0 0 0 0 127 0" result="hardAlpha"/>
<feOffset/>
<feGaussianBlur stdDeviation="1.78028"/>
<feComposite in2="hardAlpha" operator="arithmetic" k2="-1" k3="1"/>
<feColorMatrix type="matrix" values="0 0 0 0 1 0 0 0 0 1 0 0 0 0 1 0 0 0 0.8 0"/>
<feBlend mode="normal" in2="shape" result="effect2_innerShadow_685_5429"/>
</filter>
<linearGradient id="paint0_linear_685_5429" x1="49.3691" y1="149.78" x2="236.918" y2="204.06" gradientUnits="userSpaceOnUse">
<stop stop-color="#5C17B3"/>
<stop offset="0.50856" stop-color="#7736C9"/>
<stop offset="1" stop-color="#4D2483"/>
</linearGradient>
<radialGradient id="paint1_angular_685_5429" cx="0" cy="0" r="1" gradientUnits="userSpaceOnUse" gradientTransform="translate(147.949 48.1507) rotate(90) scale(101.629 98.5803)">
<stop offset="0.216887" stop-color="#C9D6DF"/>
<stop offset="0.362857" stop-color="#D6DFE6"/>
<stop offset="0.370506" stop-color="#FAFBFC"/>
<stop offset="0.865074" stop-color="#D7E0E7"/>
<stop offset="0.871776" stop-color="#F7F8F9"/>
</radialGradient>
<linearGradient id="paint2_linear_685_5429" x1="150.535" y1="13.5942" x2="150.535" y2="47.9041" gradientUnits="userSpaceOnUse">
<stop stop-color="white"/>
<stop offset="1" stop-color="#E4DBDB"/>
</linearGradient>
<linearGradient id="paint3_linear_685_5429" x1="148.758" y1="51.05" x2="148.758" y2="78.2613" gradientUnits="userSpaceOnUse">
<stop stop-color="white"/>
<stop offset="1" stop-color="#E4DBDB"/>
</linearGradient>
</defs>
</svg>
