<svg width="605" height="100" viewBox="0 0 605 100" fill="none" xmlns="http://www.w3.org/2000/svg">
<path d="M165.308 -73.1245L164.468 -82.4834L157.716 -83.6166L153.875 -75.0431C151.974 -75.1144 150.055 -75.0631 148.124 -74.8858L143.787 -83.355L137.11 -81.8652L136.817 -72.367C134.808 -71.6384 132.878 -70.7756 131.032 -69.7962L123.806 -75.8244L118.237 -71.8616L121.599 -63.0805C120.193 -61.7742 118.877 -60.3827 117.655 -58.9152L108.679 -61.7907L105.016 -56.025L111.45 -49.1462C110.561 -47.243 109.803 -45.2731 109.187 -43.2529L99.806 -42.4216L98.6809 -35.686L107.276 -31.8455C107.208 -29.9492 107.261 -28.0331 107.44 -26.1047L98.9605 -21.7897L100.458 -15.1232L109.981 -14.822C110.712 -12.8174 111.577 -10.8883 112.562 -9.04549L106.527 -1.84467L110.506 3.71998L119.303 0.371265C120.615 1.77673 122.011 3.09227 123.481 4.3137L120.61 13.2675L126.393 16.9278L133.281 10.5164C135.187 11.4057 137.164 12.1648 139.188 12.7813L140.033 22.1411L146.783 23.2728L150.622 14.7017C152.525 14.7706 154.444 14.7206 156.376 14.544L160.71 23.0121L167.389 21.523L167.682 12.0219C169.689 11.2942 171.621 10.4342 173.466 9.45282L180.693 15.4816L186.263 11.519L182.898 2.73688C184.306 1.4314 185.621 0.0390695 186.845 -1.42681L195.821 1.44806L199.482 -4.31865L193.048 -11.1969C193.937 -13.0999 194.695 -15.0699 195.312 -17.0898L204.693 -17.9205L205.819 -24.6566L197.223 -28.4972C197.29 -30.3942 197.239 -32.3094 197.061 -34.2363L205.541 -38.5531L204.04 -45.2203L194.52 -45.5203C193.789 -47.526 192.922 -49.4531 191.936 -51.298L197.972 -58.4993L193.994 -64.0625L185.196 -60.7159C183.886 -62.1207 182.489 -63.4366 181.017 -64.6548L183.888 -73.6098L178.106 -77.2693L171.219 -70.8577C169.309 -71.7484 167.336 -72.506 165.308 -73.1245ZM185.912 -22.0961C181.463 -3.55168 162.785 7.86648 144.194 3.40671C125.603 -1.05319 114.138 -19.7025 118.586 -38.2469C123.035 -56.7913 141.713 -68.2111 160.304 -63.7512C178.895 -59.2915 190.36 -40.6405 185.912 -22.0961Z" fill="white"/>
<path d="M294.793 32.3249C292.918 40.1438 297.769 48.036 305.608 49.9164C313.447 51.7968 321.352 46.9647 323.228 39.1458C325.104 31.3258 320.252 23.4322 312.413 21.5519C304.574 19.6715 296.669 24.5048 294.793 32.3249ZM315.311 37.2466C314.48 40.7097 310.976 42.8523 307.503 42.0192C304.03 41.1861 301.881 37.6879 302.712 34.2243C303.543 30.7584 307.045 28.617 310.518 29.4502C313.991 30.2832 316.142 33.7808 315.311 37.2466Z" fill="white"/>
<path d="M321.918 -6.67932L321.078 -16.0382L314.326 -17.1715L310.484 -8.59791C308.584 -8.66921 306.665 -8.61793 304.733 -8.44061L300.397 -16.9098L293.719 -15.42L293.427 -5.92183C291.418 -5.19325 289.488 -4.33045 287.642 -3.35102L280.415 -9.3792L274.846 -5.41637L278.209 3.36464C276.803 4.67096 275.486 6.06246 274.264 7.53001L265.288 4.65445L261.625 10.4202L268.059 17.299C267.17 19.2022 266.412 21.1721 265.796 23.1923L256.416 24.0236L255.291 30.7592L263.885 34.5997C263.818 36.496 263.871 38.4121 264.05 40.3405L255.57 44.6555L257.068 51.322L266.59 51.6232C267.322 53.6278 268.187 55.5569 269.172 57.3997L263.137 64.6005L267.116 70.1652L275.912 66.8165C277.225 68.2219 278.62 69.5375 280.091 70.7589L277.219 79.7127L283.003 83.373L289.89 76.9616C291.797 77.8509 293.773 78.6099 295.798 79.2265L296.642 88.5863L303.393 89.718L307.232 81.1469C309.134 81.2158 311.054 81.1658 312.986 80.9892L317.32 89.4573L323.999 87.9682L324.291 78.4671C326.299 77.7394 328.231 76.8794 330.076 75.898L337.302 81.9268L342.873 77.9642L339.508 69.1821C340.915 67.8766 342.231 66.4843 343.454 65.0184L352.43 67.8932L356.091 62.1265L349.657 55.2483C350.547 53.3453 351.305 51.3753 351.922 49.3554L361.303 48.5246L362.428 41.7886L353.833 37.948C353.9 36.051 353.848 34.1358 353.67 32.2089L362.151 27.8921L360.65 21.2249L351.13 20.9249C350.398 18.9192 349.532 16.9921 348.545 15.1472L354.581 7.94591L350.603 2.38265L341.805 5.72927C340.496 4.32449 339.099 3.00855 337.626 1.79038L340.498 -7.16457L334.715 -10.8242L327.829 -4.41249C325.919 -5.30319 323.946 -6.06084 321.918 -6.67932ZM342.521 44.3491C338.073 62.8935 319.395 74.3117 300.804 69.8519C282.213 65.392 270.747 46.7427 275.196 28.1983C279.644 9.65392 298.323 -1.76594 316.914 2.69396C335.505 7.15373 346.97 25.8047 342.521 44.3491Z" fill="white"/>
<path d="M173.3 29.0081L172.954 25.1579L170.177 24.6922L168.598 28.2187C167.816 28.1895 167.027 28.2096 166.232 28.2816L164.45 24.8L161.702 25.4131L161.582 29.3192C160.754 29.6191 159.961 29.9747 159.203 30.3771L156.23 27.8985L153.94 29.5266L155.323 33.1381C154.743 33.6751 154.202 34.2484 153.7 34.8532L150.007 33.6698L148.5 36.0427L151.148 38.8696C150.783 39.6544 150.469 40.4627 150.216 41.2936L146.359 41.637L145.896 44.4072L149.43 45.9863C149.404 46.767 149.425 47.5537 149.499 48.3483L146.011 50.1224L146.627 52.864L150.544 52.9885C150.843 53.8143 151.201 54.6062 151.605 55.3631L149.122 58.3246L150.759 60.6154L154.377 59.2373C154.918 59.8147 155.49 60.3569 156.096 60.8579L154.915 64.5418L157.293 66.0449L160.127 63.4104C160.91 63.7763 161.723 64.0877 162.556 64.3404L162.905 68.1903L165.682 68.6566L167.261 65.13C168.043 65.1588 168.832 65.1386 169.626 65.0646L171.411 68.5498L174.157 67.9361L174.277 64.0284C175.102 63.7297 175.897 63.3745 176.656 62.9717L179.628 65.4506L181.921 63.8224L180.535 60.2093C181.115 59.6734 181.654 59.1003 182.16 58.4958L185.851 59.6787L187.357 57.3064L184.71 54.4787C185.078 53.6954 185.388 52.8856 185.642 52.0551L189.5 51.7117L189.965 48.942L186.427 47.3627C186.456 46.5818 186.432 45.7952 186.361 45.0013L189.849 43.2272L189.231 40.4851L185.315 40.361C185.015 39.5349 184.659 38.7435 184.252 37.9834L186.736 35.0208L185.098 32.7346L181.479 34.1108C180.94 33.5322 180.367 32.9909 179.76 32.4902L180.944 28.8072L178.564 27.3017L175.732 29.939C174.946 29.5717 174.135 29.2619 173.3 29.0081ZM184.589 50.6709C182.387 59.8479 173.144 65.498 163.943 63.2909C154.743 61.084 149.068 51.8545 151.269 42.6782C153.471 33.5001 162.716 27.8502 171.915 30.057C181.116 32.264 186.79 41.4929 184.589 50.6709Z" fill="white"/>
<path d="M183.834 50.4891C181.735 59.2361 172.894 64.6408 164.123 62.537C155.355 60.4335 149.925 51.6054 152.024 42.8584C154.122 34.1103 162.966 28.7053 171.735 30.8089C180.505 32.9134 185.932 41.7409 183.834 50.4891ZM153.853 43.2972C151.996 51.0379 156.799 58.8513 164.56 60.7131C172.322 62.575 180.147 57.7909 182.004 50.0502C183.862 42.3078 179.058 34.4944 171.297 32.6325C163.535 30.7713 155.71 35.5554 153.853 43.2972Z" fill="white"/>
<path d="M258.564 -86.3417L258.475 -85.3876C258.334 -83.8742 257.152 -82.6186 255.634 -82.5052C253.674 -82.3575 252.123 -84.0073 252.295 -85.8754L252.375 -86.7262C252.484 -87.8997 251.526 -88.9005 250.347 -88.8431C249.765 -88.8159 249.186 -88.7762 248.609 -88.7244C247.461 -88.6223 246.656 -87.5504 246.878 -86.4222L247.064 -85.4704C247.356 -83.9792 246.577 -82.4416 245.153 -81.9037C243.316 -81.2123 241.361 -82.3604 241.001 -84.2015L240.837 -85.0357C240.61 -86.1926 239.406 -86.8863 238.289 -86.4969C237.742 -86.306 237.198 -86.1029 236.661 -85.8911C235.59 -85.4694 235.122 -84.2152 235.653 -83.1952L236.137 -82.2638C236.923 -80.7543 236.328 -78.8795 234.816 -78.0966C234.436 -76.5123 232.288 -76.2514 231.535 -77.6989L230.248 -80.1696C229.705 -81.2159 228.355 -81.5426 227.396 -80.858C226.924 -80.5217 226.46 -80.1767 226.003 -79.8219C225.094 -79.1169 224.997 -77.7789 225.795 -76.9494L226.521 -76.1945C227.7 -74.9668 227.659 -72.9987 226.43 -71.8226C225.2 -70.6474 223.229 -70.6902 222.049 -71.918L221.457 -72.5352C220.64 -73.3857 219.254 -73.3209 218.527 -72.3939C218.17 -71.9396 217.821 -71.4769 217.481 -71.0059C216.809 -70.0742 217.093 -68.7632 218.094 -68.1908L219.011 -67.6653C220.49 -66.8182 221.006 -64.9181 220.159 -63.4452L220.157 -63.4455C219.31 -61.9709 217.408 -61.4579 215.929 -62.305L215.191 -62.7281C214.167 -63.3156 212.855 -62.8638 212.42 -61.7684C212.206 -61.2329 212.004 -60.6917 211.811 -60.1434C211.431 -59.0588 212.073 -57.8827 213.193 -57.614L214.215 -57.3687C215.874 -56.971 216.905 -55.2935 216.508 -53.6405C216.112 -51.987 214.431 -50.9601 212.773 -51.3577L211.947 -51.556C210.798 -51.8315 209.67 -51.0297 209.56 -49.8562C209.505 -49.2791 209.462 -48.7015 209.432 -48.1263C209.37 -46.9786 210.32 -46.0283 211.47 -46.0855L212.436 -46.1328C213.955 -46.2086 215.372 -45.2178 215.702 -43.7344C216.131 -41.8205 214.716 -40.0555 212.838 -39.9619L211.982 -39.9188C210.801 -39.8607 209.945 -38.7722 210.172 -37.6139C210.284 -37.0453 210.408 -36.4793 210.542 -35.9157C210.81 -34.7993 211.988 -34.156 213.073 -34.5334L214.073 -34.8809C215.681 -35.4406 217.458 -34.5847 218.019 -32.9787C218.582 -31.3722 217.726 -29.6021 216.118 -29.0418L215.319 -28.7644C214.202 -28.3772 213.688 -27.0907 214.233 -26.044C214.501 -25.5311 214.778 -25.0236 215.065 -24.5216C215.637 -23.5237 216.949 -23.2365 217.883 -23.9056L218.736 -24.5139C220.121 -25.5025 222.066 -25.1794 223.059 -23.7978C224.052 -22.4138 223.731 -20.4735 222.345 -19.4837L221.655 -18.9906C220.695 -18.3048 220.564 -16.9283 221.381 -16.0762C221.781 -15.6586 222.191 -15.2483 222.608 -14.8459C223.438 -14.0477 224.777 -14.1408 225.489 -15.045L226.138 -15.8721C227.186 -17.2114 229.143 -17.4488 230.486 -16.4007C231.828 -15.353 232.069 -13.3989 231.02 -12.0608L230.493 -11.3881C229.767 -10.4604 230.029 -9.10123 231.055 -8.51311C231.557 -8.2253 232.065 -7.94746 232.581 -7.6796C233.603 -7.14788 234.863 -7.6135 235.286 -8.68179L235.675 -9.66035C236.304 -11.2401 238.114 -12.0184 239.698 -11.3905C241.283 -10.7603 242.064 -8.95445 241.436 -7.37486L241.123 -6.58676C240.689 -5.49771 241.316 -4.26512 242.459 -3.99094C242.466 -3.9893 242.474 -3.98726 242.481 -3.98563C243.05 -3.84928 243.617 -3.72524 244.185 -3.61351C245.31 -3.39234 246.377 -4.19811 246.483 -5.33695L246.579 -6.37934C246.736 -8.0723 248.252 -9.3283 249.949 -9.16961C251.646 -9.01162 252.906 -7.49631 252.749 -5.80448L252.671 -4.95341C252.562 -3.77974 253.521 -2.77896 254.699 -2.83576C255.28 -2.8631 255.86 -2.90272 256.436 -2.95363C257.584 -3.05556 258.389 -4.12821 258.168 -5.25615L257.964 -6.29496C257.636 -7.96391 258.736 -9.59513 260.408 -9.9198C262.081 -10.245 263.717 -9.1459 264.045 -7.47567L264.208 -6.64303C264.436 -5.48516 265.64 -4.79205 266.756 -5.18117C267.303 -5.37259 267.846 -5.57401 268.384 -5.78698C269.453 -6.20834 269.922 -7.46298 269.391 -8.48241L268.907 -9.41386C268.122 -10.923 268.717 -12.7977 270.228 -13.5809C270.608 -15.1652 272.758 -15.4258 273.511 -13.9795L274.797 -11.509C275.341 -10.4624 276.69 -10.1347 277.65 -10.8199C278.12 -11.1552 278.584 -11.5016 279.042 -11.8554C279.95 -12.5603 280.047 -13.8981 279.25 -14.7288L278.586 -15.4202C277.531 -16.5185 277.353 -18.2318 278.259 -19.4535C279.429 -21.0272 281.694 -21.1149 282.995 -19.7597L283.587 -19.1437C284.404 -18.2914 285.789 -18.3562 286.518 -19.2834C286.875 -19.7377 287.223 -20.2007 287.562 -20.6717C288.235 -21.6035 287.951 -22.9157 286.951 -23.4874L286.099 -23.9755C284.795 -24.7232 284.146 -26.2904 284.645 -27.7046C285.304 -29.5765 287.471 -30.3145 289.115 -29.3732L289.854 -28.9506C290.878 -28.3628 292.19 -28.8154 292.625 -29.9108C292.837 -30.4474 293.04 -30.9884 293.232 -31.5362C293.613 -32.6193 292.97 -33.7963 291.85 -34.0651L290.828 -34.3101C289.171 -34.7077 288.14 -36.3863 288.537 -38.0386C288.933 -39.6921 290.613 -40.7194 292.27 -40.3218L293.096 -40.1236C294.244 -39.8482 295.373 -40.6512 295.484 -41.8243C295.539 -42.4009 295.582 -42.9779 295.611 -43.5533C295.674 -44.7021 294.724 -45.6523 293.573 -45.5955L292.609 -45.5465C291.088 -45.4722 289.672 -46.4615 289.341 -47.9454C288.913 -49.8595 290.329 -51.625 292.206 -51.7175L293.062 -51.7606C294.243 -51.8192 295.1 -52.9082 294.871 -54.0657C294.759 -54.6348 294.636 -55.2007 294.502 -55.7637C294.233 -56.8816 293.055 -57.5234 291.97 -57.1456L291.056 -56.8273C289.617 -56.3272 287.981 -56.8805 287.244 -58.2115C286.293 -59.9291 287.152 -62.02 288.926 -62.6375L289.725 -62.9151C290.841 -63.3031 291.356 -64.5891 290.811 -65.6355C290.544 -66.1482 290.266 -66.657 289.978 -67.158C289.407 -68.1564 288.095 -68.4434 287.159 -67.7743L286.38 -67.2184C285.142 -66.3349 283.415 -66.4053 282.333 -67.4752C280.937 -68.8565 281.171 -71.1052 282.697 -72.196L283.388 -72.6896C284.347 -73.3749 284.479 -74.7525 283.662 -75.6029C283.262 -76.0211 282.853 -76.431 282.436 -76.833C281.604 -77.6322 280.265 -77.5384 279.554 -76.6339L278.906 -75.8075C277.857 -74.4675 275.9 -74.2309 274.556 -75.2791C273.007 -75.6507 272.361 -77.4969 273.342 -78.7492L274.55 -80.2908C275.277 -81.2184 275.014 -82.5786 273.989 -83.1658C273.487 -83.453 272.977 -83.7318 272.461 -84.0007C271.44 -84.5307 270.182 -84.0645 269.756 -82.9975L269.367 -82.0182C268.673 -80.2753 266.543 -79.5091 264.864 -80.5287C263.563 -81.3188 263.079 -82.9754 263.64 -84.3867L263.921 -85.0914C264.355 -86.1817 263.727 -87.4139 262.584 -87.6881C262.577 -87.6897 262.57 -87.6915 262.561 -87.6935C261.994 -87.8296 261.427 -87.9544 260.859 -88.0652C259.736 -88.2874 258.669 -87.4815 258.564 -86.3417ZM224.366 -54.656C226.403 -61.1751 230.548 -66.5361 235.861 -70.162L241.113 -61.6177C237.975 -59.3555 235.491 -56.16 234.14 -52.3107L224.366 -54.6554L224.366 -54.656ZM223.431 -50.7567L233.205 -48.4121C232.663 -44.3682 233.427 -40.3948 235.197 -36.9557L226.64 -31.7235C223.55 -37.3646 222.289 -44.0229 223.431 -50.7567ZM228.803 -28.3407L237.39 -33.5899C239.755 -30.6693 242.975 -28.4072 246.794 -27.2272L244.459 -17.4945C237.96 -19.3468 232.559 -23.2585 228.803 -28.3407ZM266.732 -19.9458C261.285 -16.9807 254.889 -15.7116 248.39 -16.6523L250.736 -26.435C254.534 -26.0704 258.243 -26.8353 261.478 -28.4898L266.732 -19.9458ZM280.762 -37.0039C278.835 -30.8367 275.023 -25.7074 270.12 -22.1026L264.849 -30.6758C267.593 -32.8857 269.76 -35.8459 270.987 -39.3486L280.762 -37.0039ZM268.807 -41.934C266.66 -32.9835 257.648 -27.4758 248.677 -29.6279C239.708 -31.7794 234.175 -40.7761 236.322 -49.7266C238.469 -58.6743 247.482 -64.1847 256.451 -62.0332C265.422 -59.8811 270.954 -50.8816 268.807 -41.934ZM281.697 -40.9031L271.923 -43.2478C272.418 -46.9275 271.83 -50.5473 270.387 -53.7614L278.974 -59.0118C281.708 -53.5743 282.778 -47.2731 281.697 -40.9031ZM276.933 -62.4696L268.375 -57.238C266.243 -60.181 263.284 -62.5451 259.734 -63.9414L262.082 -73.7257C268.3 -71.6149 273.424 -67.5825 276.933 -62.4696ZM255.861 -65.0259C251.923 -65.706 248.027 -65.1519 244.594 -63.6225L239.324 -72.1946C244.976 -75.0205 251.564 -76.0567 258.196 -74.7586L255.861 -65.0259Z" fill="white"/>
<path d="M227.809 -6.27985C226.946 -6.44918 226.122 -5.82684 226.042 -4.94377L225.974 -4.20654C225.864 -3.03554 224.956 -2.0693 223.787 -1.97766C222.284 -1.86499 221.099 -3.13556 221.232 -4.57689L221.295 -5.23738C221.378 -6.13831 220.646 -6.91419 219.74 -6.87004C219.296 -6.84458 218.845 -6.81183 218.403 -6.77749C217.525 -6.693 216.906 -5.86237 217.074 -4.99382L217.219 -4.26017C217.439 -3.10774 216.837 -1.91747 215.746 -1.50426C214.336 -0.965478 212.837 -1.85233 212.565 -3.26842L212.437 -3.91238C212.264 -4.81115 211.343 -5.34158 210.488 -5.03984C210.068 -4.89166 209.648 -4.73627 209.236 -4.56864C208.413 -4.2491 208.053 -3.27776 208.46 -2.48846L208.827 -1.76995C209.432 -0.605479 208.972 0.843908 207.808 1.45123C207.516 2.66968 205.869 2.87454 205.294 1.76115L204.308 -0.144199C203.893 -0.951238 202.854 -1.20408 202.12 -0.676276C201.757 -0.41672 201.402 -0.147341 201.048 0.128255C200.35 0.675249 200.278 1.7071 200.886 2.34987L201.444 2.93045C202.343 3.87635 202.31 5.39807 201.369 6.30365C200.415 7.21712 198.907 7.18283 198.007 6.23496L197.552 5.76108C196.924 5.10476 195.861 5.15578 195.303 5.87604C195.026 6.22475 194.766 6.58293 194.499 6.94004C193.981 7.66515 194.199 8.67966 194.962 9.12302L195.665 9.5221C196.798 10.1767 197.197 11.6413 196.543 12.7836C195.887 13.9215 194.432 14.3175 193.296 13.667L192.732 13.3453C191.944 12.8921 190.939 13.2431 190.599 14.0896C190.44 14.5022 190.285 14.9185 190.137 15.346C189.847 16.1781 190.331 17.0885 191.194 17.2954L191.97 17.4817C193.248 17.7882 194.036 19.077 193.729 20.3595C193.421 21.6409 192.133 22.435 190.856 22.1286L190.228 21.9781C189.351 21.7676 188.481 22.3874 188.392 23.2881C188.35 23.7356 188.32 24.1814 188.297 24.6269C188.244 25.5093 188.974 26.2453 189.861 26.199L190.598 26.1604C191.761 26.0998 192.852 26.869 193.101 28.0056C193.43 29.4871 192.341 30.8521 190.899 30.9291L190.242 30.9629C189.333 31.007 188.68 31.8509 188.85 32.7406C188.937 33.1824 189.031 33.6196 189.135 34.0537C189.337 34.9151 190.236 35.4102 191.073 35.1191L191.84 34.8519C193.072 34.4175 194.438 35.0774 194.866 36.3121C195.296 37.5539 194.636 38.9264 193.403 39.3528L192.791 39.575C191.929 39.8734 191.537 40.8693 191.948 41.6752C192.156 42.069 192.366 42.4611 192.589 42.8511C193.023 43.6175 194.03 43.8399 194.755 43.3198L195.406 42.8484C196.471 42.0854 197.96 42.3304 198.723 43.3972C199.479 44.465 199.234 45.9661 198.169 46.7273L197.639 47.1094C196.899 47.6405 196.799 48.7029 197.424 49.3639C197.73 49.6881 198.047 50.0016 198.366 50.3134C199.002 50.926 200.028 50.8537 200.574 50.1575L201.072 49.509C201.884 48.48 203.38 48.2966 204.412 49.1026C205.443 49.9133 205.622 51.4181 204.814 52.4517L204.413 52.9684C203.852 53.6901 204.053 54.7354 204.841 55.1929C205.227 55.4115 205.613 55.6253 206.01 55.8352C206.793 56.2408 207.762 55.8811 208.089 55.0592L208.386 54.3014C208.869 53.0813 210.261 52.4758 211.475 52.9553C212.69 53.4443 213.291 54.8393 212.806 56.0558L212.563 56.6675C212.232 57.5096 212.706 58.4589 213.586 58.6701C213.591 58.6712 213.599 58.6731 213.601 58.6737C214.035 58.7777 214.473 58.8768 214.906 58.9604C215.775 59.1273 216.596 58.5048 216.677 57.6233L216.748 56.8227C216.875 55.5119 218.041 54.5444 219.34 54.6635C220.647 54.7843 221.604 55.948 221.482 57.2596L221.426 57.9144C221.334 58.8191 222.077 59.5941 222.977 59.5485C223.426 59.5231 223.866 59.4978 224.309 59.4517C225.192 59.3738 225.813 58.5432 225.643 57.6764L225.489 56.8704C225.236 55.5852 226.087 54.3227 227.366 54.0676C228.648 53.8154 229.905 54.6611 230.153 55.9521L230.28 56.5926C230.451 57.4903 231.374 58.0219 232.232 57.7202C232.656 57.5712 233.067 57.4166 233.485 57.253C234.306 56.9243 234.665 55.9552 234.262 55.1687L233.887 54.4466C233.29 53.2834 233.748 51.8335 234.903 51.2312C235.197 50.006 236.847 49.7995 237.428 50.9198L238.411 52.8239C238.827 53.6321 239.863 53.8807 240.603 53.3497C240.961 53.0913 241.318 52.8248 241.67 52.5553C242.369 52.005 242.443 50.9712 241.833 50.3304L241.323 49.7972C240.517 48.9541 240.384 47.6288 241.081 46.6851C241.977 45.4693 243.716 45.3965 244.708 46.4431L245.164 46.9184C245.787 47.5753 246.86 47.5243 247.414 46.803C247.69 46.4535 247.958 46.0937 248.216 45.7319C248.739 45.0111 248.518 44.0005 247.75 43.5573L247.095 43.1841C246.099 42.608 245.603 41.399 245.988 40.3012C246.496 38.8579 248.157 38.2866 249.418 39.013L249.984 39.3341C250.772 39.7901 251.776 39.4407 252.109 38.5903C252.276 38.1774 252.436 37.7568 252.581 37.3375C252.876 36.4988 252.383 35.5906 251.525 35.3847L250.738 35.1959C249.465 34.8904 248.679 33.5958 248.986 32.3178C249.292 31.0421 250.579 30.2458 251.852 30.5513L252.488 30.7037C253.367 30.9148 254.238 30.2929 254.322 29.3922C254.367 28.9427 254.399 28.4976 254.422 28.0525C254.477 27.1659 253.741 26.437 252.863 26.4793L252.116 26.5193C250.953 26.5796 249.87 25.8129 249.615 24.6721C249.294 23.1936 250.382 21.8277 251.818 21.7534L252.469 21.7189C253.383 21.6707 254.043 20.8284 253.871 19.9394C253.783 19.4967 253.686 19.0644 253.583 18.6243C253.379 17.7626 252.476 17.2671 251.644 17.5593L250.938 17.8107C249.837 18.1967 248.582 17.7721 248.017 16.7438C247.289 15.4211 247.954 13.8062 249.317 13.3263L249.926 13.1077C250.785 12.8073 251.18 11.8158 250.765 11.0095C250.561 10.615 250.348 10.2244 250.125 9.83388C249.688 9.06425 248.685 8.84518 247.964 9.36041L247.364 9.79159C246.414 10.4744 245.092 10.4242 244.258 9.59679C243.192 8.53406 243.374 6.79784 244.547 5.9533L245.076 5.57161C245.816 5.04177 245.917 3.97711 245.293 3.32302C244.984 2.99814 244.671 2.68179 244.349 2.36948C243.715 1.75736 242.68 1.83062 242.142 2.52818L241.644 3.1692C240.835 4.20085 239.334 4.38721 238.303 3.58137C237.114 3.29615 236.618 1.87115 237.374 0.905508L238.305 -0.288036C238.862 -1.00813 238.662 -2.05549 237.873 -2.50738C237.489 -2.73165 237.102 -2.9443 236.704 -3.1526C235.922 -3.56097 234.958 -3.20189 234.626 -2.37697L234.329 -1.61987C233.796 -0.271235 232.161 0.322619 230.874 -0.461261C229.873 -1.072 229.504 -2.34965 229.938 -3.43871L230.153 -3.98505C230.484 -4.82665 230.003 -5.78008 229.131 -5.9891C229.125 -5.9906 229.119 -5.99196 229.113 -5.99359C228.678 -6.09896 228.248 -6.19446 227.809 -6.27985ZM233.999 22.8881L223.393 24.7138L229.587 15.9363C231.747 17.7304 233.299 20.1695 233.999 22.8881ZM217.748 13.2799L219.602 23.8698L210.788 17.681C212.586 15.5201 215.029 13.976 217.748 13.2799ZM221.668 23.5106L219.822 12.9255C221.245 12.7965 222.704 12.8861 224.172 13.2383C225.508 13.5588 226.748 14.061 227.86 14.7295L221.668 23.5106ZM226.011 6.36685C227.148 6.63955 227.856 7.78607 227.582 8.92679C227.308 10.0692 226.157 10.7697 225.02 10.497C223.876 10.2226 223.167 9.07571 223.441 7.93328C223.714 6.79255 224.867 6.09251 226.011 6.36685ZM209.947 11.8505C209.326 10.8502 209.641 9.53757 210.648 8.93033C211.651 8.31549 212.96 8.62956 213.571 9.63155C214.185 10.6278 213.87 11.9404 212.87 12.5517C211.873 13.1643 210.563 12.8502 209.947 11.8505ZM201.616 21.5833C201.89 20.4392 203.034 19.7399 204.177 20.0141C205.32 20.2882 206.022 21.4304 205.748 22.5745C205.475 23.7118 204.329 24.416 203.187 24.142C202.044 23.8678 201.343 22.7206 201.616 21.5833ZM208.088 23.0753C208.408 21.74 208.911 20.5109 209.582 19.3984L218.39 25.5862L207.781 27.4217C207.644 25.9995 207.738 24.5348 208.088 23.0753ZM224.386 39.0879L222.547 28.5075L231.346 34.6928C229.556 36.8518 227.114 38.3937 224.386 39.0879ZM215.311 43.3771C215.585 42.2375 216.738 41.5406 217.877 41.8139C219.017 42.0874 219.729 43.2317 219.456 44.3713C219.182 45.5121 218.028 46.2118 216.888 45.9383C215.749 45.6651 215.038 44.5179 215.311 43.3771ZM217.962 39.1292C216.635 38.8109 215.396 38.2995 214.281 37.6429L220.474 28.8648L222.321 39.4456C220.896 39.5789 219.427 39.4807 217.962 39.1292ZM208.141 29.4821L218.756 27.6431L212.555 36.4333C210.386 34.638 208.841 32.2032 208.141 29.4821ZM204.197 36.9129C203.587 35.91 203.9 34.6071 204.897 33.9933C205.902 33.3808 207.209 33.6942 207.822 34.695C208.439 35.696 208.126 36.9989 207.122 37.6146C206.122 38.2259 204.815 37.9125 204.197 36.9129ZM232.95 40.4568C233.566 41.4604 233.253 42.7645 232.249 43.3815C231.244 43.9947 229.94 43.6818 229.32 42.6788C228.708 41.6741 229.02 40.37 230.021 39.7541C231.028 39.1473 232.332 39.4602 232.95 40.4568ZM241.285 30.7295C241.011 31.8691 239.864 32.5668 238.719 32.2922C237.578 32.0185 236.873 30.8764 237.146 29.7368C237.421 28.5943 238.569 27.889 239.709 28.1626C240.855 28.4374 241.558 29.5876 241.285 30.7295ZM234.043 29.3019C233.727 30.619 233.23 31.8602 232.559 32.9741L223.75 26.7888L234.36 24.9484C234.497 26.376 234.396 27.8327 234.043 29.3019ZM238.701 15.3968C239.315 16.3947 239 17.7056 238.001 18.3153C236.993 18.9272 235.684 18.6131 235.075 17.6134C234.454 16.615 234.769 15.3041 235.775 14.6949C236.772 14.078 238.081 14.3921 238.701 15.3968Z" fill="white"/>
<path d="M381.601 -1.92697C381.863 0.762028 379.883 3.16368 377.187 3.42633C374.491 3.68909 372.085 1.71433 371.823 -0.974093C371.561 -3.66367 373.541 -6.06528 376.237 -6.32804C378.932 -6.59069 381.339 -4.61655 381.601 -1.92697ZM374.545 -1.2394C374.661 -0.0484834 375.728 0.827013 376.923 0.710626C378.118 0.594182 378.994 -0.470691 378.878 -1.66161C378.762 -2.85369 377.696 -3.72813 376.502 -3.61175C375.307 -3.49536 374.429 -2.43148 374.545 -1.2394Z" fill="white"/>
<path d="M374.381 -16.1619L375.094 -19.2375L377.394 -19.3015L378.275 -16.271C378.91 -16.2063 379.546 -16.1007 380.182 -15.9521L382.017 -18.5691L384.17 -17.7637L383.827 -14.59C384.462 -14.2539 385.064 -13.8782 385.633 -13.4665L388.317 -15.1376L389.987 -13.5612L388.461 -10.7951C388.869 -10.2944 389.243 -9.7711 389.581 -9.22612L392.701 -9.76685L393.653 -7.67811L391.193 -5.68782C391.402 -5.01356 391.563 -4.32299 391.674 -3.6217L394.757 -2.91043L394.82 -0.617258L391.781 0.262475C391.716 0.896565 391.61 1.5323 391.461 2.16513L394.083 3.99392L393.276 6.14265L390.093 5.80157C389.756 6.4345 389.379 7.03686 388.966 7.60458L390.641 10.2805L389.059 11.948L386.286 10.4257C385.784 10.8327 385.26 11.2056 384.713 11.5437L385.254 14.656L383.16 15.6056L381.165 13.1531C380.488 13.3602 379.796 13.522 379.093 13.6333L378.379 16.7083L376.08 16.7723L375.2 13.7429C374.564 13.6777 373.927 13.5721 373.292 13.4235L371.458 16.0404L369.305 15.2362L369.648 12.0613C369.013 11.7257 368.41 11.3507 367.841 10.9384L365.157 12.6095L363.487 11.0326L365.014 8.26636C364.606 7.76688 364.232 7.24294 363.893 6.6975L360.773 7.2388L359.822 5.15L362.282 3.15966C362.074 2.48534 361.913 1.79478 361.801 1.0936L358.718 0.382264L358.655 -1.9109L361.694 -2.79064C361.759 -3.42531 361.865 -4.06046 362.014 -4.69265L359.392 -6.52203L360.2 -8.67145L363.382 -8.33026C363.718 -8.96377 364.095 -9.56554 364.509 -10.1333L362.834 -12.8087L364.415 -14.476L367.188 -12.955C367.689 -13.3613 368.215 -13.7349 368.761 -14.0718L368.221 -17.1853L370.315 -18.1354L372.309 -15.6829C372.985 -15.8894 373.677 -16.05 374.381 -16.1619ZM365.161 -0.136951C365.783 6.24029 371.47 10.9044 377.862 10.2817C384.255 9.65888 388.935 3.98494 388.313 -2.3923C387.692 -8.76897 382.005 -13.4342 375.612 -12.8115C369.219 -12.1881 364.54 -6.51362 365.161 -0.136951Z" fill="white"/>
<path d="M495.298 -72.1984L497.42 -81.352L504.264 -81.5435L506.887 -72.5223C508.779 -72.3309 510.673 -72.0155 512.561 -71.5736L518.024 -79.3641L524.432 -76.9677L523.412 -67.52C525.302 -66.5214 527.094 -65.4007 528.788 -64.1761L536.776 -69.1504L541.746 -64.4576L537.205 -56.224C538.417 -54.7363 539.529 -53.1766 540.537 -51.5546L549.824 -53.1651L552.657 -46.9495L545.336 -41.0234C545.954 -39.0158 546.433 -36.9602 546.765 -34.8743L555.941 -32.7576L556.127 -25.9312L547.085 -23.3124C546.89 -21.425 546.574 -19.5344 546.13 -17.6491L553.934 -12.2062L551.532 -5.80984L542.059 -6.82444C541.058 -4.9399 539.935 -3.14842 538.705 -1.45902L543.69 6.50512L538.982 11.468L530.731 6.93847C529.237 8.14955 527.674 9.26015 526.049 10.2672L527.658 19.5313L521.426 22.3593L515.488 15.0595C513.477 15.6775 511.415 16.1568 509.324 16.4883L507.198 25.6423L500.355 25.8325L497.735 16.8139C495.841 16.6198 493.946 16.3056 492.057 15.8644L486.597 23.6541L480.187 21.2584L481.208 11.8077C479.319 10.8101 477.525 9.69206 475.832 8.46557L467.844 13.4404L462.873 8.74771L467.417 0.513382C466.203 -0.973671 465.092 -2.53407 464.082 -4.15468L454.795 -2.54478L451.964 -8.76119L459.285 -14.6867C458.667 -16.6942 458.187 -18.7498 457.855 -20.8356L448.678 -22.9517L448.492 -29.7786L457.535 -32.3975C457.73 -34.2856 458.045 -36.1754 458.487 -38.0594L450.683 -43.5041L453.089 -49.9008L462.559 -48.8853C463.56 -50.771 464.684 -52.5603 465.915 -54.2516L460.93 -62.2162L465.637 -67.1779L473.89 -62.6502C475.38 -63.861 476.946 -64.9718 478.571 -65.9754L476.962 -75.2407L483.194 -78.0681L489.131 -70.7682C491.145 -71.387 493.204 -71.8654 495.298 -72.1984ZM467.856 -24.4979C469.705 -5.51727 486.63 8.36705 505.658 6.51303C524.687 4.65896 538.614 -12.2315 536.765 -31.2121C534.916 -50.1927 517.99 -64.0788 498.961 -62.2247C479.933 -60.3707 466.007 -43.4786 467.856 -24.4979Z" fill="white"/>
<path d="M424.177 -14.6125C425.055 -14.6612 425.786 -13.9311 425.743 -13.0455L425.709 -12.306C425.656 -11.131 426.423 -10.0487 427.567 -9.79688C429.041 -9.47802 430.39 -10.573 430.456 -12.019L430.486 -12.6818C430.528 -13.5855 431.359 -14.2532 432.25 -14.0845C432.687 -13.9981 433.129 -13.9035 433.562 -13.8085C434.42 -13.6038 434.918 -12.6958 434.633 -11.8586L434.388 -11.1519C434.011 -10.0409 434.443 -8.77893 435.467 -8.21928C436.789 -7.49124 438.396 -8.16298 438.86 -9.52811L439.076 -10.1482C439.372 -11.0145 440.357 -11.4129 441.162 -10.9961C441.558 -10.7915 441.952 -10.5796 442.337 -10.3569C443.109 -9.92684 443.331 -8.91521 442.819 -8.18955L442.356 -7.52849C441.596 -6.45863 441.852 -4.95968 442.921 -4.19763C443.043 -2.95053 444.645 -2.52059 445.369 -3.54405L446.607 -5.2953C447.131 -6.03729 448.195 -6.14448 448.848 -5.52064C449.172 -5.21346 449.486 -4.89771 449.799 -4.57594C450.415 -3.93791 450.345 -2.90595 449.653 -2.35326L449.021 -1.85504C447.999 -1.04222 447.823 0.469562 448.63 1.49627C449.448 2.53247 450.947 2.70645 451.97 1.89178L452.486 1.48515C453.198 0.921664 454.243 1.1187 454.697 1.90909C454.923 2.29264 455.131 2.68322 455.346 3.07371C455.76 3.86335 455.404 4.83812 454.587 5.17207L453.836 5.47037C452.623 5.96247 452.026 7.35809 452.517 8.57978C453.009 9.79717 454.396 10.39 455.611 9.90239L456.213 9.66141C457.057 9.32132 458.004 9.80752 458.224 10.6928C458.324 11.1232 458.42 11.5569 458.508 12.0008C458.68 12.8649 458.075 13.6999 457.192 13.7859L456.397 13.8634C455.09 13.9908 454.131 15.1585 454.259 16.4712C454.387 17.7828 455.553 18.7469 456.861 18.6195L457.503 18.557C458.401 18.4695 459.177 19.2033 459.141 20.1076C459.121 20.5567 459.089 21.0024 459.051 21.4468C458.982 22.328 458.157 22.9564 457.285 22.7882L456.56 22.6484C455.417 22.4281 454.23 23.0395 453.827 24.1309C453.296 25.5529 454.187 27.055 455.605 27.3301L456.25 27.4541C457.145 27.6231 457.675 28.549 457.384 29.4067C457.238 29.8324 457.084 30.2524 456.921 30.668C456.602 31.4933 455.643 31.8598 454.854 31.4561L454.132 31.0857C452.971 30.4855 451.528 30.9509 450.934 32.1147C450.336 33.2854 450.801 34.7358 451.964 35.3282L452.539 35.6326C453.351 36.0469 453.603 37.0874 453.084 37.8289C452.823 38.1902 452.562 38.5497 452.288 38.9052C451.752 39.6045 450.724 39.6859 450.077 39.0708L449.498 38.5142C448.548 37.6116 447.039 37.649 446.136 38.6003C445.241 39.5538 445.276 41.0742 446.226 41.975L446.699 42.4266C447.358 43.0546 447.31 44.1206 446.6 44.6892C446.252 44.9681 445.896 45.2349 445.536 45.4997C444.822 46.0188 443.815 45.8057 443.371 45.0408L442.967 44.3299C442.305 43.1988 440.848 42.8109 439.715 43.4669C438.582 44.1277 438.198 45.5935 438.855 46.7286L439.182 47.2958C439.637 48.0878 439.294 49.0953 438.451 49.44C438.038 49.6033 437.627 49.7618 437.204 49.9149C436.372 50.2087 435.463 49.7189 435.252 48.8597L435.062 48.0682C434.752 46.7931 433.457 46.0015 432.189 46.3091C430.917 46.6258 430.13 47.9246 430.443 49.1964L430.599 49.8358C430.811 50.7155 430.211 51.5904 429.31 51.6782C429.305 51.6786 429.297 51.6794 429.294 51.6797C428.85 51.7229 428.403 51.7607 427.962 51.7837C427.079 51.8293 426.351 51.0996 426.392 50.2152L426.433 49.4125C426.487 48.0966 425.466 46.9777 424.163 46.9165C422.852 46.8561 421.744 47.8766 421.683 49.1925L421.649 49.8487C421.615 50.7575 420.773 51.4228 419.888 51.2535C419.446 51.1664 419.014 51.0807 418.581 50.974C417.718 50.7751 417.217 49.8668 417.505 49.0316L417.769 48.2546C418.197 47.0166 417.528 45.6488 416.295 45.2197C415.061 44.7932 413.699 45.4575 413.275 46.702L413.061 47.3189C412.768 48.1844 411.781 48.5836 410.972 48.1666C410.573 47.9605 410.187 47.7507 409.796 47.531C409.029 47.0924 408.807 46.083 409.314 45.3596L409.784 44.696C410.536 43.6263 410.283 42.1272 409.222 41.3713C409.1 40.1173 407.494 39.6853 406.764 40.7147L405.528 42.4651C405.005 43.2083 403.944 43.3116 403.284 42.6837C402.965 42.3784 402.648 42.0652 402.337 41.7497C401.72 41.1083 401.789 40.0741 402.482 39.5236L403.061 39.0658C403.975 38.3419 404.29 37.0476 403.73 36.0168C403.009 34.6891 401.297 34.3771 400.17 35.277L399.653 35.6849C398.946 36.2497 397.89 36.0513 397.441 35.2604C397.215 34.8762 396.999 34.4829 396.795 34.0891C396.375 33.303 396.734 32.3326 397.555 31.9994L398.256 31.7201C399.322 31.2868 399.98 30.1578 399.75 29.0174C399.446 27.5179 397.879 26.7228 396.53 27.2686L395.925 27.5086C395.082 27.8516 394.136 27.3671 393.923 26.4788C393.814 26.0469 393.714 25.6083 393.628 25.173C393.452 24.3016 394.065 23.47 394.943 23.3844L395.749 23.3059C397.052 23.1789 398.009 22.005 397.881 20.6969C397.754 19.3912 396.589 18.4251 395.286 18.5521L394.635 18.6154C393.735 18.7032 392.958 17.9671 392.999 17.0635C393.017 16.6122 393.046 16.1668 393.085 15.7229C393.153 14.8371 393.982 14.2166 394.846 14.3797L395.58 14.5221C396.724 14.7423 397.903 14.1322 398.312 13.0374C398.834 11.6174 397.945 10.1145 396.533 9.843L395.893 9.71902C394.994 9.54521 394.456 8.61996 394.75 7.76321C394.897 7.33678 395.053 6.92193 395.216 6.50041C395.537 5.67502 396.499 5.30871 397.283 5.71289L397.947 6.05907C398.985 6.59327 400.286 6.34576 400.988 5.40525C401.891 4.19545 401.455 2.50426 400.171 1.84104L399.598 1.54054C398.789 1.12469 398.534 0.0881256 399.057 -0.653228C399.313 -1.01582 399.578 -1.37335 399.852 -1.72945C400.392 -2.43141 401.416 -2.51007 402.058 -1.90042L402.594 -1.39054C403.44 -0.583313 404.757 -0.45077 405.696 -1.15537C406.899 -2.06089 406.958 -3.80561 405.913 -4.80384L405.441 -5.25489C404.781 -5.88165 404.828 -6.95 405.536 -7.51188C405.887 -7.79105 406.241 -8.06117 406.603 -8.32615C407.315 -8.84506 408.33 -8.62981 408.766 -7.86472L409.172 -7.16107C409.83 -6.02782 411.292 -5.63626 412.424 -6.29225C413.641 -6.41082 414.329 -7.7538 413.713 -8.81444L412.955 -10.125C412.503 -10.9149 412.846 -11.9247 413.689 -12.2636C414.101 -12.4327 414.513 -12.5901 414.936 -12.7415C415.767 -13.0381 416.672 -12.5496 416.887 -11.6867L417.077 -10.8959C417.419 -9.48672 418.957 -8.67304 420.34 -9.27198C421.415 -9.73895 421.957 -10.9534 421.677 -12.0919L421.539 -12.6628C421.328 -13.5419 421.936 -14.4199 422.827 -14.5068C422.834 -14.5074 422.84 -14.508 422.847 -14.5087C423.291 -14.5532 423.731 -14.5884 424.177 -14.6125ZM414.025 13.4235L424.278 16.6941L419.353 7.14643C416.967 8.62562 415.093 10.8273 414.025 13.4235ZM431.445 6.14756L428.149 16.3808L437.732 11.4663C436.249 9.07822 434.043 7.21201 431.445 6.14756ZM426.152 15.7402L429.44 5.51066C428.049 5.18672 426.591 5.07437 425.089 5.22078C423.721 5.35401 422.423 5.68035 421.23 6.18927L426.152 15.7402ZM424.215 -1.83861C423.051 -1.72524 422.192 -0.687314 422.305 0.480248C422.419 1.64955 423.463 2.50203 424.626 2.38866C425.797 2.27461 426.658 1.23652 426.544 0.0672151C426.431 -1.10035 425.385 -1.95266 424.215 -1.83861ZM439.369 5.80743C440.122 4.90234 439.991 3.55886 439.078 2.81856C438.169 2.07132 436.829 2.20188 436.086 3.11008C435.34 4.01211 435.471 5.35559 436.377 6.09895C437.281 6.84316 438.621 6.7126 439.369 5.80743ZM446.279 16.5959C446.164 15.4249 445.128 14.5746 443.958 14.6886C442.789 14.8025 441.935 15.8369 442.05 17.008C442.163 18.1721 443.2 19.0275 444.37 18.9136C445.54 18.7996 446.392 17.76 446.279 16.5959ZM439.663 17.1814C439.53 15.8147 439.201 14.528 438.69 13.3335L429.113 18.248L439.367 21.5285C439.699 20.1388 439.808 18.6752 439.663 17.1814ZM421.312 30.794L424.592 20.5681L415.025 25.4812C416.5 27.8664 418.707 29.7303 421.312 30.794ZM429.709 36.2934C429.595 35.127 428.549 34.2777 427.383 34.3913C426.216 34.505 425.354 35.5403 425.467 36.7067C425.581 37.8743 426.628 38.7265 427.795 38.6127C428.96 38.4991 429.823 37.4609 429.709 36.2934ZM427.67 31.7206C429.028 31.5883 430.326 31.2526 431.52 30.7559L426.597 21.208L423.308 31.4329C424.701 31.7614 426.17 31.8668 427.67 31.7206ZM438.727 23.5198L428.466 20.2346L433.396 29.7959C435.793 28.3169 437.659 26.1183 438.727 23.5198ZM441.609 31.4233C442.351 30.514 442.221 29.1804 441.318 28.435C440.406 27.6898 439.069 27.82 438.324 28.7267C437.575 29.6331 437.705 30.9667 438.615 31.715C439.521 32.4584 440.858 32.3281 441.609 31.4233ZM412.641 30.969C411.893 31.8782 412.023 33.213 412.933 33.9625C413.844 34.7084 415.178 34.5783 415.931 33.6704C416.676 32.7597 416.546 31.4249 415.639 30.6768C414.726 29.9371 413.391 30.0672 412.641 30.969ZM405.728 20.1855C405.841 21.3519 406.882 22.2012 408.054 22.087C409.221 21.9733 410.077 20.9392 409.963 19.7728C409.849 18.6035 408.809 17.7466 407.642 17.8604C406.47 17.9746 405.614 19.0168 405.728 20.1855ZM413.097 19.7699C413.228 21.118 413.55 22.416 414.06 23.6117L423.638 18.7L413.383 15.4143C413.05 16.8094 412.95 18.2662 413.097 19.7699ZM410.401 5.35551C409.655 6.25923 409.786 7.60098 410.692 8.34265C411.605 9.08764 412.945 8.95707 413.686 8.05085C414.439 7.14761 414.308 5.80586 413.395 5.06371C412.493 4.31526 411.153 4.44583 410.401 5.35551Z" fill="white"/>
<path d="M377.666 26.6094L378.312 23.8223L380.397 23.7634L381.195 26.5112C381.771 26.5688 382.348 26.6656 382.923 26.8L384.586 24.4278L386.538 25.1573L386.228 28.0342C386.804 28.3385 387.349 28.6793 387.865 29.0527L390.298 27.538L391.812 28.9672L390.429 31.4744C390.798 31.9272 391.137 32.4024 391.444 32.8965L394.272 32.4058L395.135 34.2987L392.906 36.103C393.094 36.7148 393.24 37.3412 393.341 37.9754L396.135 38.6204L396.192 40.6996L393.438 41.4966C393.378 42.0715 393.282 42.6477 393.147 43.2217L395.524 44.8797L394.792 46.8271L391.907 46.5186C391.602 47.0928 391.26 47.6377 390.886 48.1524L392.404 50.5781L390.97 52.0899L388.457 50.7101C388.002 51.079 387.526 51.4167 387.031 51.7234L387.521 54.5452L385.623 55.4065L383.815 53.1837C383.202 53.3718 382.575 53.5179 381.937 53.6187L381.29 56.4059L379.206 56.4642L378.408 53.7169C377.831 53.6576 377.255 53.5626 376.68 53.4276L375.017 55.7997L373.065 55.0709L373.375 52.1922C372.8 51.8884 372.254 51.5483 371.738 51.1748L369.305 52.6901L367.791 51.2616L369.174 48.7537C368.805 48.3009 368.466 47.8257 368.159 47.3323L365.331 47.8229L364.468 45.9288L366.698 44.1245C366.509 43.5134 366.363 42.887 366.262 42.2521L363.468 41.6077L363.41 39.5286L366.165 38.731C366.224 38.1561 366.32 37.5806 366.454 37.0072L364.078 35.3485L364.81 33.4005L367.695 33.7097C368 33.1355 368.341 32.5905 368.717 32.0763L367.199 29.65L368.632 28.1389L371.146 29.5182C371.6 29.1492 372.077 28.8115 372.571 28.506L372.081 25.6842L373.979 24.8235L375.787 27.0463C376.401 26.8569 377.028 26.7108 377.666 26.6094ZM376.677 36.714C377.299 36.1318 378.342 35.7002 378.917 35.5827L378.343 29.6978C375.448 30.0544 373.648 31.2021 372.025 32.9268L376.677 36.714ZM377.815 40.1367C377.92 41.2161 378.887 42.0092 379.97 41.9037C381.052 41.7983 381.847 40.8335 381.742 39.7542C381.637 38.6737 380.67 37.8811 379.588 37.9865C378.505 38.092 377.71 39.0563 377.815 40.1367ZM379.506 29.5981L380.082 35.5061C380.675 35.5808 381.796 35.8736 382.491 36.3949L386.31 31.7865C384.418 30.3286 381.843 29.5234 379.506 29.5981ZM387.003 32.6796L383.19 37.4563C383.648 37.986 383.954 38.3243 384.163 39.4761L390.245 38.8836C389.792 35.9972 388.653 34.2058 387.003 32.6796ZM390.326 39.4618L384.244 40.0543C384.285 41.2225 384 41.6752 383.558 42.38L388.376 46.372C389.781 44.4229 390.505 41.7888 390.326 39.4618ZM387.813 46.9854L383.023 43.0381C382.458 43.616 381.502 44.0637 380.933 44.2428L381.542 50.4899C383.849 50.1098 386.235 48.8054 387.813 46.9854ZM380.382 50.6152L379.775 44.3931C379.189 44.3928 378.205 44.2014 377.518 43.8101L373.511 48.6337C375.444 50.0343 377.471 50.8243 380.382 50.6152ZM372.87 48.1165L376.819 43.3746C376.105 42.7344 375.615 42.0666 375.418 40.9136L369.35 41.5048C369.626 43.8228 370.964 46.4553 372.87 48.1165ZM369.318 40.9223L375.386 40.3311C375.387 39.1589 375.672 38.3798 376.143 37.6986L371.539 34.0467C370.076 35.9135 369.213 38.002 369.318 40.9223Z" fill="white"/>
</svg>
