<svg width="249" height="571" viewBox="0 0 249 571" fill="none" xmlns="http://www.w3.org/2000/svg">
<path d="M155.011 529.858C153.459 535.095 147.924 538.089 142.674 536.533C137.425 534.977 134.416 529.45 135.968 524.214C137.52 518.976 143.055 515.981 148.305 517.537C153.555 519.093 156.563 524.621 155.011 529.858ZM141.27 525.785C140.582 528.106 141.916 530.555 144.242 531.244C146.568 531.934 149.02 530.607 149.708 528.286C150.396 525.965 149.064 523.516 146.737 522.827C144.411 522.137 141.958 523.464 141.27 525.785Z" fill="#F5F5F5"/>
<path d="M152.302 497.701L155.974 492.481L160.331 494.108L159.679 500.455C160.82 501.058 161.932 501.741 163.008 502.501L168.435 498.992L171.857 502.136L168.803 507.822C169.737 508.933 170.58 510.096 171.332 511.299L177.63 510.207L179.56 514.429L174.6 518.453C174.983 519.699 175.286 520.965 175.506 522.242L181.762 523.6L181.959 528.236L175.839 530.097C175.715 531.518 175.492 532.935 175.169 534.332L180.405 538.007L178.78 542.352L172.42 541.692C171.816 542.83 171.134 543.94 170.374 545.013L173.896 550.431L170.751 553.843L165.047 550.786C163.936 551.717 162.772 552.558 161.567 553.307L162.671 559.593L158.441 561.515L154.404 556.557C153.155 556.938 151.887 557.238 150.607 557.457L149.255 563.699L144.61 563.888L142.736 557.777C141.313 557.652 139.892 557.429 138.492 557.103L134.817 562.322L130.461 560.694L131.114 554.35C129.971 553.744 128.859 553.062 127.783 552.302L122.357 555.811L118.934 552.668L121.988 546.98C121.054 545.869 120.21 544.708 119.457 543.504L113.16 544.596L111.228 540.373L116.19 536.35C115.806 535.105 115.504 533.839 115.283 532.56L109.027 531.204L108.831 526.568L114.952 524.707C115.075 523.286 115.298 521.869 115.621 520.472L110.385 516.797L112.01 512.452L118.371 513.112C118.976 511.973 119.657 510.864 120.416 509.792L116.894 504.372L120.041 500.96L125.743 504.017C126.854 503.085 128.018 502.246 129.225 501.496L128.12 495.21L132.349 493.288L136.388 498.244C137.636 497.863 138.904 497.563 140.184 497.347L141.537 491.104L146.181 490.914L148.054 497.025C149.481 497.152 150.899 497.376 152.302 497.701ZM122.853 520.72C119.171 533.14 126.281 546.199 138.731 549.889C151.181 553.58 164.259 546.504 167.94 534.084C171.621 521.665 164.512 508.604 152.062 504.914C139.612 501.224 126.534 508.301 122.853 520.72Z" fill="#F5F5F5"/>
<path d="M110.077 489.449C109.427 491.638 107.113 492.891 104.918 492.24C102.722 491.589 101.464 489.278 102.113 487.088C102.762 484.899 105.077 483.646 107.273 484.296C109.468 484.947 110.726 487.258 110.077 489.449ZM104.331 487.746C104.043 488.716 104.601 489.74 105.573 490.029C106.546 490.317 107.571 489.761 107.859 488.791C108.147 487.821 107.59 486.797 106.617 486.509C105.644 486.22 104.618 486.775 104.331 487.746Z" fill="#F5F5F5"/>
<path d="M108.943 475.996L110.479 473.812L112.301 474.492L112.029 477.147C112.506 477.4 112.97 477.686 113.421 478.003L115.691 476.536L117.122 477.851L115.845 480.23C116.236 480.694 116.588 481.181 116.903 481.684L119.537 481.228L120.345 482.993L118.27 484.677C118.43 485.199 118.556 485.728 118.648 486.262L121.265 486.83L121.348 488.769L118.788 489.548C118.736 490.142 118.643 490.735 118.507 491.319L120.697 492.857L120.017 494.674L117.357 494.397C117.104 494.874 116.819 495.338 116.501 495.787L117.974 498.053L116.659 499.481L114.273 498.202C113.809 498.591 113.322 498.943 112.818 499.257L113.28 501.886L111.51 502.69L109.821 500.617C109.299 500.776 108.768 500.901 108.233 500.994L107.668 503.604L105.725 503.683L104.941 501.127C104.345 501.075 103.751 500.982 103.165 500.845L101.628 503.029L99.806 502.348L100.079 499.694C99.6012 499.44 99.1364 499.155 98.6859 498.837L96.4165 500.305L94.9846 498.991L96.2627 496.611C95.8719 496.147 95.5192 495.661 95.2043 495.158L92.57 495.615L91.7627 493.848L93.838 492.166C93.677 491.645 93.5512 491.116 93.4589 490.58L90.8418 490.013L90.7601 488.073L93.3202 487.295C93.3721 486.7 93.4649 486.108 93.6002 485.524L91.4104 483.986L92.0897 482.169L94.7502 482.446C95.0032 481.969 95.2881 481.505 95.6053 481.057L94.1322 478.789L95.4486 477.362L97.8334 478.641C98.2984 478.252 98.7851 477.901 99.2896 477.587L98.8274 474.958L100.596 474.155L102.286 476.228C102.808 476.069 103.339 475.943 103.874 475.853L104.439 473.241L106.382 473.162L107.166 475.718C107.762 475.766 108.355 475.859 108.943 475.996ZM96.624 485.624C95.0841 490.819 98.0579 496.281 103.265 497.825C108.473 499.368 113.943 496.409 115.483 491.214C117.023 486.019 114.049 480.556 108.841 479.012C103.634 477.469 98.1638 480.429 96.624 485.624Z" fill="#F5F5F5"/>
<path d="M83.1927 585.939L89.7709 576.589L97.5744 579.502L96.4063 590.872C98.4517 591.953 100.443 593.175 102.37 594.536L112.09 588.251L118.22 593.883L112.75 604.068C114.424 606.058 115.932 608.14 117.282 610.295L128.562 608.34L132.019 615.903L123.135 623.109C123.822 625.341 124.363 627.608 124.757 629.897L135.964 632.328L136.315 640.631L125.352 643.964C125.131 646.51 124.732 649.047 124.152 651.55L133.53 658.132L130.618 665.913L119.226 664.732C118.144 666.771 116.923 668.757 115.561 670.68L121.87 680.385L116.237 686.498L106.021 681.022C104.03 682.689 101.946 684.196 99.787 685.538L101.765 696.796L94.1882 700.239L86.957 691.359C84.7191 692.042 82.4488 692.579 80.1563 692.971L77.735 704.152L69.4154 704.49L66.0584 693.546C63.5086 693.323 60.9646 692.92 58.4562 692.338L51.8732 701.686L44.0721 698.772L45.2412 687.406C43.1948 686.322 41.2027 685.101 39.2746 683.74L29.5571 690.026L23.4261 684.394L28.8976 674.206C27.2248 672.218 25.7129 670.137 24.3654 667.98L13.0844 669.936L9.62601 662.373L18.5134 655.167C17.8247 652.935 17.2858 650.668 16.888 648.379L5.68235 645.948L5.33288 637.645L16.2959 634.312C16.5162 631.766 16.9157 629.229 17.4943 626.726L8.11625 620.144L11.0277 612.362L22.4199 613.544C23.5033 611.505 24.7228 609.518 26.0823 607.596L19.7735 597.89L25.4105 591.778L35.6235 597.253C37.614 595.585 39.6992 594.081 41.8607 592.738L39.8818 581.479L47.4572 578.037L54.6911 586.915C56.9255 586.232 59.1979 585.695 61.4899 585.307L63.9116 574.125L72.2304 573.787L75.5859 584.731C78.14 584.955 80.6797 585.357 83.1927 585.939ZM30.4443 627.169C23.8508 649.414 36.5843 672.806 58.8845 679.416C81.1854 686.026 104.61 673.351 111.203 651.107C117.797 628.862 105.064 605.468 82.7629 598.858C60.4627 592.248 37.0379 604.925 30.4443 627.169Z" fill="#F5F5F5"/>
<path d="M73.424 498.091L77.3207 492.551L81.9441 494.279L81.2521 501.014C82.4636 501.657 83.6436 502.378 84.7863 503.187L90.5445 499.461L94.1768 502.8L90.9371 508.835C91.9286 510.015 92.8228 511.246 93.6205 512.526L100.306 511.365L102.354 515.848L97.089 520.118C97.4969 521.439 97.8153 522.782 98.0516 524.137L104.691 525.579L104.899 530.502L98.4038 532.474C98.2733 533.983 98.0366 535.485 97.6921 536.967L103.249 540.869L101.525 545.48L94.7733 544.78C94.1341 545.987 93.4088 547.163 92.6019 548.302L96.3417 554.052L93.0045 557.674L86.9487 554.431C85.7718 555.42 84.5347 556.312 83.2554 557.107L84.4292 563.778L79.9377 565.818L75.6551 560.555C74.3276 560.958 72.9841 561.278 71.624 561.511L70.1895 568.136L65.2609 568.337L63.2723 561.851C61.7606 561.716 60.2529 561.481 58.7674 561.136L54.8674 566.675L50.2431 564.947L50.9367 558.212C49.7235 557.573 48.543 556.848 47.4002 556.039L41.6429 559.764L38.0083 556.429L41.2522 550.392C40.2592 549.214 39.3642 547.981 38.5662 546.7L31.8831 547.86L29.8328 543.38L35.097 539.11C34.6898 537.787 34.3725 536.442 34.1347 535.087L27.4968 533.645L27.2887 528.728L33.7868 526.751C33.915 525.242 34.1522 523.74 34.4948 522.257L28.9384 518.358L30.6627 513.747L37.4131 514.447C38.056 513.237 38.7792 512.061 39.5851 510.923L35.8457 505.171L39.1865 501.549L45.2387 504.792C46.4178 503.803 47.6534 502.911 48.9329 502.118L47.7604 495.446L52.2496 493.408L56.5359 498.669C57.8597 498.265 59.2052 497.944 60.5651 497.716L61.9989 491.091L66.9283 490.887L68.9167 497.375C70.4295 497.508 71.9333 497.746 73.424 498.091ZM54.716 526.24C52.8577 532.509 56.4453 539.103 62.7305 540.966C69.0135 542.828 75.6154 539.255 77.4736 532.985C79.3311 526.719 75.7431 520.124 69.46 518.262C63.1747 516.4 56.5733 519.974 54.716 526.24Z" fill="#F5F5F5"/>
<path d="M77.7067 438.288L80.31 434.588L83.3977 435.741L82.9341 440.239C83.7436 440.667 84.5312 441.149 85.2961 441.688L89.1405 439.202L91.5672 441.431L89.4025 445.46C90.066 446.248 90.6617 447.073 91.1953 447.925L95.6593 447.152L97.0281 450.143L93.5122 452.994C93.7856 453.878 93.9985 454.775 94.153 455.683L98.5891 456.644L98.7281 459.932L94.3902 461.248C94.3008 462.257 94.1454 463.26 93.9158 464.25L97.6249 466.855L96.4732 469.934L91.9664 469.466C91.537 470.273 91.0546 471.059 90.5143 471.82L93.0108 475.659L90.7824 478.078L86.7388 475.912C85.9519 476.574 85.1262 477.167 84.273 477.698L85.0576 482.153L82.0576 483.516L79.1967 480.002C78.3103 480.271 77.4123 480.486 76.5053 480.639L75.5461 485.064L72.2559 485.196L70.9247 480.866C69.9171 480.779 68.9105 480.619 67.9185 480.388L65.3118 484.087L62.2247 482.935L62.689 478.436C61.8781 478.008 61.0906 477.526 60.3292 476.985L56.4806 479.473L54.056 477.244L56.2212 473.213C55.5593 472.427 54.9608 471.602 54.4278 470.751L49.9645 471.524L48.5932 468.531L52.1115 465.679C51.8377 464.797 51.6268 463.9 51.4676 462.991L47.0347 462.031L46.8957 458.744L51.2352 457.427C51.3205 456.417 51.479 455.416 51.7082 454.425L47.9993 451.819L49.1483 448.739L53.6592 449.209C54.0874 448.401 54.5715 447.617 55.1079 446.854L52.6107 443.014L54.8412 440.596L58.8832 442.762C59.6709 442.1 60.4946 441.506 61.353 440.975L60.5688 436.519L63.5667 435.16L66.4288 438.672C67.3139 438.401 68.2112 438.188 69.1203 438.036L70.0754 433.61L73.3682 433.476L74.6961 437.807C75.708 437.897 76.7118 438.056 77.7067 438.288ZM53.5863 453.64C50.4474 464.231 56.5101 475.368 67.1284 478.515C77.7453 481.662 88.8991 475.629 92.038 465.038C95.1774 454.447 89.1133 443.309 78.4963 440.162C67.8781 437.015 56.7259 443.048 53.5863 453.64Z" fill="#F5F5F5"/>
<path d="M54.4558 453.898C51.4638 463.992 57.2632 474.645 67.3849 477.645C77.5046 480.645 88.1742 474.874 91.1662 464.779C94.1586 454.683 88.3575 444.029 78.2378 441.03C68.1161 438.029 57.4485 443.801 54.4558 453.898ZM89.0548 464.153C86.4068 473.087 76.9655 478.196 68.0087 475.541C59.0512 472.885 53.9189 463.456 56.5666 454.523C59.2149 445.588 68.6565 440.479 77.614 443.134C86.5708 445.789 91.7033 455.218 89.0548 464.153Z" fill="#F5F5F5"/>
<path d="M-7.02382 515.284L-7.5103 516.344C-8.28287 518.024 -7.80084 520.066 -6.27053 521.109C-4.29546 522.456 -1.65789 521.662 -0.702938 519.589L-0.268972 518.644C0.329677 517.341 1.94833 516.87 3.15536 517.647C3.75182 518.03 4.33811 518.424 4.91446 518.829C6.06136 519.635 6.25792 521.254 5.33788 522.308L4.56208 523.197C3.34739 524.591 3.23365 526.685 4.40634 528.118C5.92075 529.964 8.67955 529.943 10.1792 528.223L10.8594 527.444C11.8017 526.363 13.4919 526.364 14.4324 527.454C14.8929 527.988 15.3421 528.533 15.7794 529.083C16.6508 530.178 16.3812 531.784 15.2014 532.536L14.1244 533.223C12.3779 534.335 11.8643 536.672 12.9815 538.417C12.4182 540.317 14.5231 541.899 16.1969 540.832L19.0555 539.012C20.2644 538.24 21.8848 538.716 22.4795 540.021C22.7714 540.662 23.0513 541.309 23.3164 541.96C23.8457 543.256 23.1336 544.725 21.7888 545.114L20.5648 545.467C18.5753 546.043 17.4211 548.142 18.0003 550.128C18.5818 552.115 20.6846 553.269 22.6747 552.693L23.6741 552.403C25.0522 552.004 26.4728 552.915 26.6747 554.334C26.7742 555.03 26.8606 555.73 26.9321 556.432C27.0736 557.823 25.9773 559.032 24.5748 559.026L23.2882 559.022C21.2154 559.015 19.5159 560.703 19.5124 562.77L19.5138 562.77C19.5097 564.84 21.2019 566.537 23.2747 566.544L24.31 566.547C25.7463 566.551 26.8542 567.826 26.6461 569.244C26.5455 569.938 26.4289 570.631 26.2984 571.326C26.0392 572.7 24.6477 573.549 23.3038 573.151L22.0777 572.787C20.0888 572.198 17.9818 573.338 17.3941 575.321C16.8062 577.304 17.9523 579.408 19.9405 579.998L20.9319 580.292C22.3097 580.7 23.0113 582.231 22.4126 583.534C22.1196 584.176 21.8137 584.811 21.4954 585.435C20.863 586.682 19.2832 587.105 18.1071 586.346L17.1183 585.708C15.5632 584.704 13.4678 584.886 12.2179 586.248C10.602 588.004 11.0192 590.724 12.9409 591.965L13.8161 592.531C15.0248 593.311 15.2647 594.978 14.3207 596.061C13.8569 596.592 13.3819 597.113 12.8984 597.625C11.9371 598.638 10.3039 598.599 9.39019 597.542L8.54862 596.567C7.19467 595 4.80147 594.82 3.23371 596.171C1.66392 597.522 1.489 599.907 2.84207 601.476L3.51515 602.254C4.45639 603.341 4.21515 605.009 3.00425 605.781C2.41044 606.158 1.80904 606.524 1.20141 606.878C-0.00793629 607.582 -1.565 607.086 -2.14244 605.813L-2.67069 604.654C-3.52892 602.769 -5.77443 601.927 -7.66121 602.778C-9.54949 603.632 -10.3911 605.872 -9.53323 607.758L-9.10622 608.697C-8.51195 610.004 -9.21121 611.534 -10.5899 611.935C-11.2655 612.131 -11.9474 612.314 -12.6315 612.484C-13.991 612.821 -15.3459 611.908 -15.5458 610.522L-15.7258 609.256C-16.0163 607.207 -17.9329 605.767 -19.9855 606.054C-22.0368 606.342 -23.4792 608.254 -23.1883 610.302L-23.0426 611.331C-22.8415 612.75 -23.9442 614.023 -25.3833 614.019C-26.0873 614.016 -26.7916 614 -27.4986 613.968C-28.898 613.907 -29.9422 612.65 -29.7381 611.267L-29.5532 609.999C-29.2551 607.952 -30.6881 606.032 -32.7398 605.729C-34.7924 605.429 -36.7137 606.857 -37.0137 608.903L-37.163 609.924C-37.3682 611.335 -38.7786 612.252 -40.1496 611.846C-40.1578 611.844 -40.168 611.84 -40.1762 611.838C-40.8579 611.636 -41.5309 611.422 -42.1976 611.194C-43.517 610.743 -44.1514 609.244 -43.5708 607.98L-43.0377 606.823C-42.1735 604.944 -43.0068 602.698 -44.8911 601.833C-46.7745 600.968 -49.0242 601.798 -49.888 603.676L-50.3234 604.62C-50.9227 605.923 -52.5413 606.394 -53.7486 605.617C-54.3444 605.235 -54.9313 604.84 -55.5067 604.437C-56.6543 603.631 -56.85 602.011 -55.9313 600.957L-55.0841 599.987C-53.7234 598.428 -53.8899 596.04 -55.4544 594.681C-57.0187 593.321 -59.4112 593.484 -60.773 595.044L-61.4508 595.822C-62.3953 596.903 -64.0853 596.901 -65.0246 595.812C-65.4849 595.278 -65.9348 594.735 -66.3716 594.184C-67.2419 593.089 -66.9728 591.482 -65.7931 590.731L-64.7161 590.044C-62.9718 588.931 -62.4582 586.594 -63.574 584.85C-63.0107 582.949 -65.1169 581.367 -66.7897 582.433L-69.6476 584.254C-70.8578 585.025 -72.478 584.55 -73.0724 583.245C-73.3641 582.605 -73.6422 581.958 -73.9095 581.307C-74.437 580.012 -73.7256 578.543 -72.3804 578.153L-71.2605 577.828C-69.4807 577.313 -68.2515 575.616 -68.4631 573.777C-68.7379 571.408 -71.0711 569.938 -73.2658 570.574L-74.2648 570.863C-75.6442 571.264 -77.0641 570.353 -77.2679 568.933C-77.3674 568.237 -77.4524 567.538 -77.5239 566.835C-77.6654 565.444 -76.568 564.234 -75.1664 564.24L-73.9721 564.244C-72.1432 564.25 -70.5065 562.993 -70.1718 561.2C-69.7274 558.826 -71.5621 556.73 -73.8663 556.722L-74.902 556.718C-76.3391 556.714 -77.446 555.439 -77.238 554.021C-77.1344 553.327 -77.0192 552.633 -76.8882 551.939C-76.6308 550.566 -75.2377 549.717 -73.8939 550.115L-72.6684 550.479C-70.6802 551.068 -68.5735 549.926 -67.986 547.944C-67.3981 545.961 -68.5428 543.857 -70.531 543.267L-71.5217 542.974C-72.8989 542.566 -73.6 541.033 -73.0034 539.729C-72.7099 539.089 -72.4042 538.455 -72.0852 537.83C-71.4524 536.582 -69.8733 536.159 -68.6951 536.919L-67.7095 537.557C-66.1526 538.56 -64.059 538.379 -62.8071 537.017C-61.1923 535.26 -61.6093 532.539 -63.5314 531.3L-64.4066 530.734C-65.6157 529.954 -65.8562 528.285 -64.9105 527.205C-64.4465 526.673 -63.9722 526.152 -63.4889 525.64C-62.5258 524.626 -60.8945 524.666 -59.9802 525.725L-59.2111 526.616C-57.9996 528.018 -55.939 528.43 -54.3527 527.476C-52.306 526.245 -51.9393 523.52 -53.4332 521.789L-54.1056 521.011C-55.0453 519.924 -54.8061 518.255 -53.5947 517.485C-53.0016 517.107 -52.3991 516.74 -51.7912 516.387C-50.5824 515.683 -49.026 516.178 -48.446 517.453L-47.9636 518.512C-47.1963 520.196 -45.3345 521.172 -43.544 520.703C-41.232 520.097 -40.1108 517.586 -41.0559 515.508L-41.4834 514.568C-42.0772 513.262 -41.3775 511.731 -40.0001 511.331C-39.3236 511.134 -38.6438 510.951 -37.9592 510.782C-36.5974 510.445 -35.2434 511.359 -35.0449 512.744L-34.864 514.009C-34.5744 516.059 -32.6562 517.499 -30.6029 517.212C-28.7447 517.762 -26.9405 516.211 -27.2126 514.294L-27.5481 511.935C-27.7498 510.515 -26.6443 509.243 -25.2075 509.247C-24.5036 509.25 -23.7971 509.266 -23.0903 509.297C-21.6915 509.36 -20.65 510.616 -20.8506 511.999L-21.0363 513.268C-21.3652 515.526 -19.5873 517.629 -17.1972 517.577C-15.3463 517.535 -13.8288 516.084 -13.5615 514.256L-13.4285 513.343C-13.2223 511.93 -11.8115 511.014 -10.4404 511.42C-10.4322 511.423 -10.4234 511.425 -10.4132 511.428C-9.73275 511.63 -9.05888 511.844 -8.39373 512.072C-7.07467 512.521 -6.44095 514.019 -7.02382 515.284ZM9.73261 569.471C11.5518 561.363 10.4462 553.194 7.05386 546.141L-3.6773 551.949C-1.74676 556.241 -1.07403 561.119 -1.99199 565.996L9.73241 569.472L9.73261 569.471ZM8.34624 574.148L-3.37816 570.673C-5.26661 575.263 -8.48889 578.985 -12.4459 581.532L-6.61297 592.249C0.0742838 588.186 5.45333 581.938 8.34624 574.148ZM-10.95 594.498L-16.8034 583.744C-21.0716 585.383 -25.8407 585.807 -30.5822 584.727L-34.0426 596.402C-26.0688 598.404 -17.9985 597.568 -10.95 594.498ZM-56.0182 580.271C-52.0831 586.708 -46.1165 591.936 -38.6962 594.898L-35.218 583.164C-39.4414 581.237 -42.8833 578.176 -45.2858 574.464L-56.0182 580.271ZM-60.4236 553.764C-62.1455 561.433 -61.2489 569.157 -58.2757 575.938L-47.5077 570.111C-49.0542 566.113 -49.5363 561.676 -48.6992 557.239L-60.4236 553.764ZM-44.8296 555.841C-48.0119 566.578 -41.8674 577.863 -31.1058 581.052C-20.3476 584.241 -9.04539 578.128 -5.86304 567.391C-2.6817 556.658 -8.8259 545.37 -19.5841 542.181C-30.3457 538.991 -41.6483 545.108 -44.8296 555.841ZM-59.0373 549.087L-47.3128 552.562C-45.5962 548.384 -42.7746 544.928 -39.2996 542.419L-45.1526 531.664C-51.3408 535.73 -56.3015 541.718 -59.0373 549.087ZM-40.8988 529.262L-35.0651 539.98C-31.0279 538.176 -26.4728 537.485 -21.8832 538.173L-18.4044 526.437C-26.2401 524.878 -34.0916 526.01 -40.8988 529.262ZM-17.1428 539.387C-12.5797 541.066 -8.81132 544.02 -6.12535 547.719L4.64226 541.894C0.406106 535.478 -5.90556 530.378 -13.6824 527.712L-17.1428 539.387Z" fill="#F5F5F5"/>
<path d="M113.53 553.881L113.392 554.18C113.174 554.656 113.311 555.233 113.743 555.529C114.302 555.91 115.049 555.685 115.319 555.098L115.441 554.831C115.611 554.463 116.068 554.33 116.41 554.549C116.579 554.658 116.745 554.769 116.908 554.884C117.232 555.112 117.288 555.57 117.027 555.868L116.808 556.12C116.464 556.514 116.432 557.107 116.764 557.512C117.192 558.035 117.973 558.029 118.397 557.542L118.59 557.321C118.856 557.015 119.335 557.016 119.601 557.324C119.731 557.476 119.858 557.63 119.982 557.786C120.229 558.096 120.153 558.55 119.819 558.762L119.514 558.956C119.02 559.271 118.875 559.933 119.191 560.426C119.032 560.964 119.627 561.411 120.101 561.109L120.909 560.594C121.252 560.376 121.71 560.511 121.878 560.88C121.96 561.061 122.039 561.244 122.115 561.429C122.264 561.796 122.063 562.211 121.682 562.321L121.336 562.421C120.773 562.583 120.447 563.178 120.611 563.739C120.775 564.302 121.37 564.628 121.933 564.465L122.216 564.383C122.606 564.27 123.008 564.528 123.066 564.929C123.094 565.126 123.118 565.324 123.138 565.523C123.178 565.916 122.868 566.258 122.472 566.256L122.108 566.256C121.521 566.254 121.041 566.731 121.039 567.316L121.04 567.316C121.039 567.901 121.517 568.382 122.104 568.383L122.396 568.385C122.803 568.385 123.116 568.746 123.057 569.148C123.029 569.344 122.995 569.54 122.959 569.737C122.886 570.125 122.492 570.366 122.111 570.253L121.764 570.15C121.202 569.983 120.606 570.306 120.439 570.867C120.273 571.428 120.598 572.024 121.16 572.191L121.44 572.274C121.83 572.389 122.028 572.823 121.858 573.191C121.776 573.373 121.689 573.552 121.599 573.729C121.42 574.081 120.973 574.201 120.641 573.987L120.36 573.806C119.92 573.522 119.328 573.573 118.974 573.959C118.516 574.455 118.635 575.225 119.178 575.576L119.426 575.736C119.767 575.956 119.835 576.429 119.568 576.735C119.437 576.884 119.303 577.032 119.166 577.177C118.894 577.464 118.432 577.453 118.173 577.153L117.935 576.877C117.552 576.434 116.874 576.383 116.431 576.765C115.987 577.147 115.937 577.822 116.32 578.266L116.51 578.487C116.776 578.794 116.708 579.267 116.366 579.484C116.198 579.591 116.028 579.695 115.856 579.795C115.514 579.994 115.073 579.854 114.91 579.494L114.761 579.165C114.518 578.633 113.883 578.394 113.349 578.635C112.815 578.876 112.576 579.511 112.819 580.044L112.94 580.31C113.107 580.68 112.91 581.112 112.52 581.226C112.329 581.282 112.136 581.334 111.942 581.382C111.557 581.477 111.174 581.218 111.118 580.826L111.067 580.469C110.985 579.889 110.443 579.481 109.862 579.563C109.282 579.644 108.874 580.185 108.956 580.764L108.997 581.056C109.053 581.457 108.741 581.818 108.335 581.816C108.135 581.816 107.936 581.811 107.737 581.802C107.341 581.784 107.045 581.429 107.103 581.038L107.155 580.679C107.24 580.1 106.834 579.557 106.254 579.471C105.673 579.386 105.129 579.79 105.045 580.369L105.003 580.658C104.945 581.057 104.546 581.317 104.158 581.202C104.156 581.201 104.153 581.2 104.151 581.199C103.958 581.142 103.767 581.081 103.578 581.017C103.205 580.89 103.026 580.466 103.19 580.108L103.341 579.78C103.585 579.249 103.349 578.613 102.817 578.368C102.284 578.123 101.647 578.358 101.403 578.89L101.28 579.157C101.111 579.526 100.653 579.658 100.311 579.439C100.142 579.33 99.9761 579.219 99.8133 579.104C99.4885 578.876 99.4334 578.418 99.6928 578.119L99.9326 577.845C100.317 577.404 100.27 576.729 99.8276 576.344C99.3851 575.959 98.7083 576.004 98.3228 576.446L98.131 576.666C97.8633 576.972 97.3855 576.971 97.1201 576.663C96.9901 576.512 96.8626 576.358 96.7392 576.202C96.4928 575.892 96.5692 575.438 96.9029 575.226L97.2078 575.031C97.7015 574.716 97.8473 574.055 97.5316 573.562C97.6911 573.023 97.0952 572.577 96.6219 572.877L95.8134 573.393C95.4709 573.612 95.0128 573.477 94.8441 573.107C94.7614 572.926 94.6832 572.743 94.6067 572.559C94.4579 572.192 94.6588 571.777 95.0393 571.667L95.3566 571.575C95.8594 571.429 96.2075 570.949 96.1478 570.429C96.0698 569.758 95.4098 569.343 94.7887 569.523L94.5061 569.605C94.1158 569.718 93.714 569.46 93.6568 569.059C93.6286 568.862 93.6044 568.664 93.584 568.466C93.5443 568.073 93.8546 567.73 94.251 567.731L94.5889 567.732C95.1065 567.734 95.5695 567.378 95.6643 566.871C95.7899 566.2 95.2708 565.607 94.6187 565.604L94.326 565.603C93.9192 565.602 93.6066 565.241 93.6649 564.839C93.6947 564.644 93.7272 564.447 93.7639 564.25C93.8369 563.862 94.2307 563.622 94.6111 563.735L94.9581 563.837C95.5208 564.004 96.1169 563.681 96.283 563.121C96.4494 562.559 96.1254 561.964 95.5627 561.798L95.2824 561.714C94.8925 561.599 94.6938 561.165 94.8631 560.797C94.9464 560.616 95.0322 560.436 95.123 560.259C95.3023 559.907 95.7489 559.786 96.0817 560.002L96.3606 560.182C96.8012 560.466 97.3932 560.414 97.7478 560.029C98.2044 559.532 98.0863 558.762 97.5432 558.412L97.2954 558.252C96.9536 558.031 96.8856 557.559 97.1524 557.253C97.2844 557.103 97.4184 556.955 97.5545 556.811C97.8269 556.524 98.2883 556.535 98.5474 556.835L98.7651 557.087C99.1078 557.483 99.6904 557.601 100.14 557.33C100.718 556.982 100.823 556.211 100.4 555.722L100.21 555.501C99.9441 555.194 100.012 554.722 100.355 554.504C100.522 554.397 100.692 554.293 100.865 554.193C101.207 553.994 101.647 554.134 101.811 554.494L101.947 554.794C102.164 555.27 102.691 555.546 103.197 555.413C103.852 555.241 104.169 554.531 103.902 553.943L103.781 553.677C103.613 553.307 103.811 552.875 104.2 552.761C104.392 552.706 104.584 552.654 104.778 552.606C105.163 552.511 105.546 552.77 105.602 553.161L105.653 553.518C105.735 554.099 106.278 554.506 106.859 554.424C107.385 554.58 107.895 554.142 107.818 553.598L107.723 552.931C107.666 552.529 107.979 552.169 108.386 552.171C108.585 552.171 108.784 552.176 108.984 552.185C109.38 552.203 109.674 552.558 109.618 552.949L109.566 553.308C109.473 553.947 109.975 554.542 110.652 554.527C111.176 554.515 111.605 554.105 111.681 553.588L111.719 553.329C111.777 552.929 112.176 552.67 112.564 552.785C112.566 552.786 112.569 552.787 112.571 552.787C112.764 552.845 112.955 552.905 113.143 552.969C113.515 553.098 113.695 553.523 113.53 553.881ZM118.271 569.211C118.786 566.917 118.473 564.606 117.513 562.611L114.477 564.254C115.024 565.468 115.214 566.848 114.955 568.228L118.271 569.211ZM117.879 570.534L114.562 569.551C114.027 570.85 113.116 571.903 111.996 572.623L113.646 575.656C115.538 574.506 117.06 572.739 117.879 570.534ZM112.419 576.291L110.762 573.249C109.555 573.712 108.205 573.832 106.864 573.527L105.885 576.83C108.142 577.396 110.426 577.16 112.419 576.291ZM99.6682 572.267C100.781 574.088 102.469 575.566 104.569 576.405L105.553 573.085C104.358 572.541 103.384 571.674 102.704 570.624L99.6682 572.267ZM98.4219 564.767C97.9343 566.936 98.1881 569.122 99.0294 571.04L102.075 569.392C101.638 568.261 101.501 567.006 101.738 565.75L98.4219 564.767ZM105.672 566.196C105.236 567.67 106.079 569.218 107.556 569.656C109.032 570.094 110.584 569.254 111.02 567.781C111.457 566.308 110.614 564.759 109.137 564.322C107.66 563.884 106.109 564.724 105.672 566.196ZM98.8141 563.444L102.131 564.427C102.617 563.245 103.415 562.267 104.398 561.557L102.743 558.515C100.992 559.664 99.5881 561.359 98.8141 563.444ZM103.946 557.835L105.596 560.868C106.738 560.357 108.027 560.162 109.326 560.357L110.31 557.036C108.094 556.595 105.872 556.915 103.946 557.835ZM110.667 560.7C111.959 561.175 113.024 562.01 113.784 563.057L116.831 561.409C115.632 559.594 113.847 558.151 111.646 557.397L110.667 560.7Z" fill="#F5F5F5"/>
<path d="M31.3746 465.229L31.199 465.611C30.9202 466.218 31.0947 466.954 31.6465 467.331C32.3585 467.816 33.3109 467.53 33.6551 466.782L33.8117 466.442C34.0282 465.972 34.6111 465.802 35.0471 466.082C35.2619 466.22 35.4737 466.362 35.6813 466.509C36.0953 466.799 36.1665 467.384 35.834 467.764L35.5539 468.085C35.1161 468.587 35.0753 469.343 35.4978 469.86C36.0439 470.526 37.0391 470.518 37.5809 469.898L37.8265 469.616C38.1659 469.226 38.776 469.228 39.1156 469.62C39.281 469.814 39.4437 470.01 39.6018 470.209C39.916 470.604 39.8189 471.183 39.3931 471.454L39.0046 471.701C38.375 472.103 38.1892 472.946 38.5926 473.575C38.3894 474.261 39.149 474.831 39.7528 474.447L40.7838 473.79C41.2202 473.511 41.8043 473.684 42.0188 474.154C42.124 474.385 42.2248 474.618 42.3209 474.854C42.5116 475.322 42.2545 475.852 41.7694 475.992L41.3279 476.119C40.6105 476.326 40.1942 477.084 40.4029 477.8C40.6122 478.517 41.3715 478.933 42.0889 478.726L42.4504 478.62C42.9469 478.477 43.4592 478.805 43.5331 479.317C43.5691 479.568 43.6001 479.82 43.6258 480.074C43.6765 480.575 43.2809 481.012 42.7757 481.009L42.3116 481.009C41.5639 481.006 40.9511 481.615 40.9492 482.36L40.9501 482.361C40.9488 483.107 41.5589 483.72 42.3068 483.722L42.68 483.724C43.1979 483.724 43.5976 484.184 43.5223 484.696C43.4861 484.946 43.4438 485.197 43.397 485.447C43.304 485.943 42.8015 486.249 42.3165 486.106L41.8741 485.975C41.1566 485.762 40.3968 486.173 40.1846 486.889C39.9725 487.604 40.3862 488.364 41.1029 488.576L41.4603 488.682C41.9574 488.83 42.2108 489.382 41.9941 489.852C41.8887 490.084 41.7785 490.312 41.6635 490.538C41.435 490.987 40.8652 491.139 40.4411 490.866L40.0838 490.636C39.5228 490.274 38.7674 490.339 38.3158 490.831C37.7327 491.464 37.8834 492.446 38.5766 492.893L38.8918 493.097C39.3276 493.378 39.4143 493.98 39.0741 494.37C38.9061 494.561 38.7352 494.749 38.5605 494.934C38.2143 495.3 37.6249 495.286 37.2945 494.904L36.991 494.552C36.5027 493.987 35.6385 493.922 35.0731 494.409C34.5068 494.897 34.4432 495.757 34.9315 496.323L35.1746 496.605C35.5133 496.997 35.4273 497.599 34.9903 497.876C34.7761 498.013 34.5595 498.145 34.3405 498.272C33.9038 498.526 33.3424 498.347 33.134 497.888L32.9438 497.469C32.6344 496.791 31.8242 496.486 31.1434 496.793C30.4623 497.101 30.1582 497.91 30.4674 498.59L30.6217 498.929C30.8356 499.401 30.5836 499.952 30.0866 500.098C29.843 500.168 29.5967 500.235 29.3503 500.296C28.8593 500.417 28.3701 500.087 28.2992 499.588L28.2343 499.131C28.1296 498.393 27.4382 497.872 26.6976 497.977C25.9581 498.08 25.4375 498.77 25.5422 499.509L25.5945 499.88C25.6664 500.392 25.2687 500.852 24.7501 500.85C24.4956 500.849 24.2417 500.843 23.9874 500.831C23.4824 500.809 23.1062 500.356 23.1793 499.858L23.2461 499.4C23.3536 498.662 22.837 497.969 22.0964 497.859C21.3563 497.751 20.663 498.266 20.5555 499.004L20.5021 499.373C20.4276 499.882 19.919 500.213 19.4245 500.066C19.4219 500.065 19.4184 500.064 19.415 500.063C19.1694 499.99 18.9263 499.913 18.6854 499.831C18.2098 499.668 17.9812 499.128 18.19 498.671L18.3827 498.254C18.6941 497.576 18.3934 496.766 17.7141 496.453C17.0345 496.141 16.2228 496.44 15.9115 497.118L15.7549 497.459C15.5391 497.929 14.9547 498.098 14.5186 497.818C14.3038 497.68 14.0921 497.538 13.8844 497.391C13.4704 497.101 13.4001 496.516 13.7309 496.136L14.0366 495.786C14.5268 495.224 14.4669 494.363 13.9027 493.872C13.3385 493.381 12.4756 493.439 11.984 494.002L11.7395 494.283C11.3981 494.673 10.7888 494.672 10.4504 494.279C10.2847 494.087 10.1221 493.89 9.9648 493.692C9.65061 493.296 9.74794 492.717 10.1735 492.446L10.5622 492.198C11.1918 491.797 11.3776 490.953 10.9751 490.324C11.1785 489.638 10.4187 489.068 9.81518 489.452L8.78421 490.109C8.34752 490.388 7.7634 490.216 7.54828 489.745C7.44291 489.514 7.34316 489.281 7.24566 489.046C7.05586 488.578 7.31205 488.048 7.79721 487.908L8.20184 487.791C8.84295 487.606 9.28677 486.993 9.21065 486.33C9.11119 485.475 8.26968 484.945 7.47774 485.175L7.11735 485.279C6.61972 485.423 6.10736 485.095 6.03434 484.584C5.99841 484.332 5.96759 484.08 5.94162 483.826C5.891 483.325 6.28661 482.889 6.792 482.89L7.22294 482.892C7.88295 482.894 8.47325 482.44 8.59411 481.794C8.75432 480.938 8.09242 480.181 7.26088 480.178L6.88775 480.176C6.36893 480.175 5.97036 479.714 6.04477 479.202C6.08277 478.953 6.12415 478.702 6.171 478.452C6.26401 477.956 6.76623 477.65 7.2512 477.794L7.69366 477.925C8.41114 478.138 9.1712 477.726 9.38309 477.011C9.59525 476.295 9.18209 475.537 8.4646 475.324L8.10717 475.218C7.61005 475.071 7.3567 474.518 7.57252 474.048C7.67871 473.817 7.78813 473.588 7.90396 473.363C8.13251 472.913 8.70195 472.759 9.12634 473.034L9.48194 473.264C10.0438 473.626 10.7986 473.56 11.2508 473.069C11.833 472.436 11.6824 471.454 10.99 471.007L10.6739 470.803C10.2381 470.522 10.1515 469.92 10.4917 469.53C10.6599 469.338 10.8308 469.15 11.0044 468.965C11.3517 468.599 11.94 468.614 12.2703 468.996L12.5479 469.317C12.985 469.823 13.7278 469.973 14.3009 469.628C15.0386 469.183 15.1714 468.201 14.6322 467.577L14.39 467.296C14.0513 466.904 14.1373 466.302 14.5746 466.024C14.7887 465.887 15.0053 465.755 15.2252 465.628C15.661 465.374 16.2225 465.552 16.432 466.011L16.6055 466.394C16.8822 467.001 17.5536 467.353 18.1996 467.183C19.0337 466.964 19.4381 466.058 19.0977 465.309L18.9435 464.97C18.7292 464.498 18.9815 463.947 19.4783 463.802C19.723 463.731 19.9681 463.665 20.2146 463.604C20.7055 463.483 21.1948 463.813 21.2659 464.311L21.3308 464.767C21.4352 465.507 22.1269 466.027 22.8684 465.923C23.5391 466.121 24.1899 465.562 24.0914 464.869L23.97 464.018C23.8972 463.506 24.2964 463.047 24.815 463.049C25.0687 463.05 25.3225 463.056 25.578 463.067C26.0827 463.09 26.4581 463.543 26.3867 464.042L26.3199 464.499C26.2012 465.314 26.8417 466.073 27.7052 466.054C28.3723 466.038 28.9199 465.515 29.0163 464.856L29.065 464.526C29.1387 464.016 29.6481 463.686 30.1426 463.833C30.1452 463.833 30.1487 463.834 30.1521 463.835C30.3977 463.908 30.641 463.985 30.8809 464.067C31.3559 464.232 31.5843 464.773 31.3746 465.229ZM37.4195 484.777C38.0759 481.852 37.6771 478.905 36.453 476.361L32.5826 478.456C33.2789 480.005 33.5221 481.763 33.191 483.523L37.4195 484.777ZM36.9193 486.464L32.6899 485.211C32.0083 486.867 30.8461 488.209 29.4185 489.128L31.5219 492.994C33.9347 491.528 35.8757 489.275 36.9193 486.464ZM29.9576 493.805L27.8457 489.926C26.3057 490.517 24.5853 490.669 22.8753 490.28L21.627 494.492C24.5038 495.214 27.416 494.913 29.9576 493.805ZM13.6994 488.673C15.1185 490.996 17.2714 492.881 19.9482 493.95L21.2029 489.717C19.6796 489.023 18.4376 487.917 17.5707 486.579L13.6994 488.673ZM12.1103 479.111C11.4886 481.877 11.8122 484.663 12.885 487.11L16.7689 485.008C16.2111 483.565 16.037 481.965 16.3388 480.364L12.1103 479.111ZM21.3555 480.933C20.7985 482.812 21.8735 484.786 23.757 485.344C25.6396 485.902 27.6178 484.832 28.1746 482.954C28.7313 481.076 27.6557 479.1 25.7731 478.542C23.8896 477.984 21.912 479.055 21.3555 480.933ZM12.6105 477.423L16.8399 478.677C17.4592 477.17 18.4772 475.923 19.7309 475.018L17.6199 471.139C15.3875 472.604 13.5974 474.765 12.6105 477.423ZM19.1537 470.272L21.258 474.139C22.7147 473.488 24.358 473.239 26.0135 473.487L27.2684 469.253C24.4425 468.69 21.61 469.098 19.1537 470.272ZM27.7243 473.924C29.3709 474.53 30.7294 475.595 31.6985 476.93L35.5832 474.829C34.055 472.514 31.7786 470.674 28.9725 469.713L27.7243 473.924Z" fill="#F5F5F5"/>
<path d="M55.4749 407.118L55.3444 407.402C55.1371 407.852 55.2668 408.4 55.677 408.68C56.2064 409.041 56.9144 408.828 57.1703 408.272L57.2868 408.019C57.4477 407.67 57.881 407.543 58.2052 407.751C58.3649 407.854 58.5223 407.96 58.6767 408.069C58.9845 408.285 59.0374 408.719 58.7902 409.002L58.582 409.24C58.2565 409.614 58.2262 410.176 58.5403 410.56C58.9463 411.056 59.6862 411.05 60.0889 410.588L60.2716 410.379C60.5238 410.089 60.9775 410.09 61.2299 410.382C61.3529 410.526 61.4738 410.672 61.5914 410.819C61.8249 411.113 61.7528 411.544 61.4362 411.745L61.1474 411.929C60.6793 412.227 60.5412 412.854 60.8411 413.322C60.69 413.832 61.2547 414.256 61.7036 413.97L62.4701 413.482C62.7945 413.275 63.2288 413.403 63.3883 413.752C63.4664 413.924 63.5414 414.097 63.6129 414.273C63.7546 414.621 63.5635 415.015 63.2028 415.119L62.8746 415.213C62.3412 415.367 62.0318 415.931 62.1869 416.463C62.3426 416.996 62.907 417.305 63.4403 417.151L63.7091 417.073C64.0782 416.966 64.4591 417.21 64.5141 417.591C64.5408 417.778 64.5639 417.965 64.583 418.154C64.6206 418.526 64.3265 418.851 63.951 418.849L63.6059 418.849C63.0501 418.847 62.5945 419.3 62.5931 419.853L62.5937 419.854C62.5928 420.408 63.0464 420.864 63.6024 420.865L63.8798 420.867C64.2649 420.867 64.562 421.21 64.5061 421.59C64.4791 421.776 64.4477 421.962 64.4129 422.148C64.3437 422.517 63.9702 422.745 63.6096 422.638L63.2807 422.54C62.7473 422.382 62.1824 422.688 62.0247 423.22C61.8669 423.752 62.1746 424.317 62.7073 424.475L62.9731 424.553C63.3426 424.663 63.531 425.074 63.3699 425.423C63.2916 425.595 63.2096 425.765 63.1241 425.933C62.9542 426.267 62.5306 426.38 62.2154 426.177L61.9497 426.006C61.5326 425.737 60.971 425.785 60.6353 426.151C60.2018 426.622 60.3138 427.351 60.8292 427.684L61.0636 427.835C61.3875 428.044 61.4519 428.492 61.199 428.782C61.0742 428.924 60.9471 429.064 60.8172 429.201C60.5599 429.473 60.1217 429.463 59.8761 429.179L59.6504 428.917C59.2874 428.497 58.6449 428.449 58.2245 428.811C57.8035 429.173 57.7563 429.813 58.1193 430.234L58.3 430.443C58.5518 430.735 58.4879 431.182 58.163 431.388C58.0038 431.49 57.8427 431.588 57.6799 431.683C57.3552 431.872 56.9378 431.739 56.7829 431.398L56.6415 431.086C56.4115 430.582 55.8092 430.355 55.303 430.583C54.7967 430.812 54.5706 431.414 54.8005 431.919L54.9152 432.171C55.0742 432.522 54.8869 432.932 54.5174 433.04C54.3363 433.092 54.1532 433.142 53.9699 433.187C53.605 433.278 53.2412 433.032 53.1885 432.661L53.1403 432.322C53.0625 431.772 52.5484 431.386 51.9978 431.463C51.448 431.54 51.0611 432.053 51.1389 432.602L51.1778 432.878C51.2312 433.259 50.9355 433.601 50.55 433.599C50.3608 433.599 50.172 433.594 49.9829 433.586C49.6075 433.569 49.3278 433.232 49.3822 432.862L49.4319 432.521C49.5118 431.972 49.1277 431.457 48.5771 431.376C48.0269 431.296 47.5115 431.678 47.4316 432.227L47.3918 432.501C47.3364 432.88 46.9584 433.125 46.5907 433.017C46.5888 433.016 46.5862 433.015 46.5836 433.014C46.4011 432.96 46.2203 432.903 46.0412 432.842C45.6876 432.721 45.5177 432.319 45.673 431.98L45.8162 431.669C46.0477 431.165 45.8242 430.563 45.3191 430.33C44.8139 430.099 44.2105 430.321 43.979 430.825L43.8626 431.078C43.7021 431.428 43.2676 431.554 42.9435 431.345C42.7838 431.243 42.6264 431.137 42.472 431.028C42.1642 430.812 42.1119 430.378 42.3578 430.095L42.5851 429.834C42.9496 429.417 42.9051 428.776 42.4856 428.411C42.0661 428.046 41.4246 428.09 41.0591 428.508L40.8773 428.717C40.6236 429.007 40.1706 429.006 39.919 428.714C39.7958 428.571 39.6749 428.425 39.558 428.278C39.3244 427.984 39.3968 427.553 39.7131 427.352L40.0021 427.167C40.4702 426.869 40.6083 426.242 40.3091 425.774C40.4603 425.264 39.8954 424.84 39.4467 425.126L38.6803 425.614C38.3556 425.822 37.9214 425.694 37.7614 425.343C37.6831 425.172 37.6089 424.998 37.5364 424.824C37.3953 424.476 37.5858 424.082 37.9465 423.978L38.2473 423.891C38.7239 423.753 39.0539 423.298 38.9973 422.805C38.9234 422.169 38.2978 421.775 37.709 421.946L37.4411 422.023C37.0711 422.131 36.6902 421.886 36.6359 421.506C36.6092 421.319 36.5863 421.132 36.567 420.943C36.5293 420.571 36.8234 420.246 37.1992 420.247L37.5196 420.248C38.0102 420.25 38.4491 419.913 38.5389 419.432C38.658 418.796 38.166 418.233 37.5478 418.231L37.2704 418.229C36.8846 418.229 36.5883 417.886 36.6437 417.506C36.6719 417.32 36.7027 417.134 36.7375 416.947C36.8067 416.579 37.18 416.352 37.5406 416.459L37.8695 416.556C38.4029 416.714 38.968 416.408 39.1255 415.877C39.2832 415.344 38.9761 414.78 38.4427 414.622L38.1769 414.544C37.8074 414.434 37.619 414.023 37.7795 413.674C37.8584 413.502 37.9397 413.332 38.0259 413.164C38.1958 412.83 38.6191 412.716 38.9346 412.92L39.199 413.091C39.6167 413.36 40.1779 413.311 40.514 412.946C40.9469 412.475 40.8349 411.745 40.3201 411.413L40.0851 411.261C39.7612 411.052 39.6967 410.605 39.9497 410.315C40.0747 410.172 40.2018 410.032 40.3308 409.895C40.589 409.623 41.0264 409.634 41.272 409.918L41.4784 410.157C41.8033 410.533 42.3556 410.644 42.7816 410.388C43.3301 410.057 43.4288 409.326 43.0279 408.863L42.8479 408.654C42.596 408.363 42.66 407.915 42.9851 407.708C43.1443 407.607 43.3053 407.508 43.4688 407.414C43.7928 407.225 44.2102 407.358 44.366 407.699L44.4949 407.983C44.7006 408.435 45.1998 408.697 45.68 408.57C46.3002 408.407 46.6008 407.734 46.3478 407.177L46.2331 406.924C46.0738 406.574 46.2614 406.164 46.6307 406.056C46.8126 406.004 46.9949 405.955 47.1781 405.909C47.5431 405.819 47.9068 406.064 47.9597 406.435L48.0079 406.774C48.0856 407.324 48.5998 407.71 49.1511 407.633C49.6497 407.781 50.1335 407.365 50.0603 406.85L49.97 406.217C49.9159 405.836 50.2127 405.495 50.5982 405.497C50.7868 405.497 50.9756 405.502 51.1655 405.51C51.5407 405.527 51.8198 405.864 51.7667 406.234L51.717 406.575C51.6288 407.18 52.105 407.744 52.7469 407.73C53.2429 407.719 53.65 407.33 53.7217 406.84L53.7579 406.595C53.8126 406.216 54.1914 405.97 54.559 406.079C54.5609 406.08 54.5635 406.08 54.5661 406.081C54.7486 406.135 54.9296 406.192 55.1079 406.254C55.4611 406.376 55.6308 406.779 55.4749 407.118ZM59.969 421.65C60.457 419.476 60.1605 417.285 59.2504 415.394L56.373 416.951C56.8906 418.102 57.0714 419.41 56.8253 420.718L59.969 421.65ZM59.5971 422.904L56.4528 421.972C55.9461 423.204 55.082 424.202 54.0207 424.885L55.5845 427.759C57.3782 426.669 58.8212 424.994 59.5971 422.904ZM54.4215 428.362L52.8514 425.478C51.7065 425.917 50.4274 426.031 49.1561 425.741L48.2282 428.872C50.3669 429.409 52.5319 429.185 54.4215 428.362ZM42.3344 424.547C43.3895 426.273 44.99 427.675 46.9801 428.469L47.9128 425.322C46.7803 424.806 45.857 423.985 45.2125 422.99L42.3344 424.547ZM41.153 417.437C40.6908 419.494 40.9314 421.566 41.729 423.384L44.6164 421.821C44.2017 420.749 44.0723 419.559 44.2967 418.369L41.153 417.437ZM48.0263 418.792C47.6122 420.189 48.4114 421.657 49.8117 422.072C51.2113 422.487 52.682 421.691 53.0959 420.295C53.5098 418.898 52.7101 417.43 51.3105 417.015C49.9102 416.6 48.44 417.396 48.0263 418.792ZM41.5249 416.183L44.6692 417.115C45.1296 415.995 45.8865 415.068 46.8185 414.395L45.2491 411.511C43.5894 412.6 42.2586 414.207 41.5249 416.183ZM46.3894 410.866L47.9538 413.741C49.0368 413.257 50.2585 413.072 51.4892 413.257L52.4222 410.109C50.3213 409.69 48.2155 409.994 46.3894 410.866ZM52.7611 413.582C53.9853 414.032 54.9953 414.824 55.7157 415.817L58.6038 414.254C57.4676 412.534 55.7752 411.165 53.6891 410.451L52.7611 413.582Z" fill="#F5F5F5"/>
<path d="M-5.12755 152.586C0.562179 144.628 -1.2994 133.512 -9.27727 127.808C-17.2551 122.104 -28.3767 123.937 -34.0665 131.895C-39.757 139.853 -37.8957 150.971 -29.9178 156.675C-21.9399 162.379 -10.8181 160.544 -5.12755 152.586ZM-26.0089 137.656C-23.4889 134.131 -18.5583 133.318 -15.024 135.845C-11.4891 138.373 -10.6658 143.299 -13.1862 146.824C-15.7083 150.351 -20.6354 151.164 -24.1703 148.637C-27.7046 146.11 -28.531 141.183 -26.0089 137.656Z" fill="#F5F5F5"/>
<path d="M-53.542 184.158L-56.8739 195.093L-49.7796 199.458L-41.5288 191.549C-39.4192 192.498 -37.2318 193.318 -34.9731 194.001L-33.9568 205.532L-25.747 206.905L-21.0747 196.331C-18.4764 196.428 -15.9062 196.338 -13.3769 196.077L-7.98595 206.178L0.10467 204.256L0.328414 192.819C2.51124 191.989 4.6316 191.022 6.68016 189.927L15.4852 197.273L22.2507 192.447L18.1423 181.75C20.0148 180.011 21.7702 178.136 23.3883 176.141L34.3443 179.492L38.6924 172.413L30.7586 164.153C31.7016 162.046 32.5183 159.862 33.1979 157.606L44.7309 156.618L46.0908 148.418L35.4923 143.724C35.5841 141.13 35.4912 138.559 35.2232 136.031L45.3197 130.672L43.3782 122.58L31.9295 122.333C31.0923 120.148 30.1208 118.027 29.0212 115.978L36.3523 107.196L31.506 100.425L20.8092 104.504C19.0662 102.63 17.1852 100.87 15.1842 99.2493L18.512 88.311L11.4186 83.9484L3.17164 91.8563C1.05821 90.9088 -1.12886 90.0875 -3.38778 89.4032L-4.40213 77.8746L-12.6127 76.4996L-17.2864 87.0776C-19.8828 86.98 -22.4537 87.0664 -24.9831 87.3291L-30.3736 77.2281L-38.4654 79.1487L-38.6872 90.5883C-40.8708 91.4166 -42.9904 92.3849 -45.0404 93.478L-53.8453 86.1329L-60.6095 90.9604L-56.5007 101.657C-58.3737 103.396 -60.1291 105.27 -61.7485 107.265L-72.704 103.913L-77.0531 110.992L-69.1187 119.252C-70.0615 121.36 -70.879 123.543 -71.5595 125.797L-83.0938 126.786L-84.4502 134.989L-73.8542 139.68C-73.9468 142.276 -73.8511 144.845 -73.5826 147.376L-83.6801 152.735L-81.7389 160.826L-70.2897 161.075C-69.4554 163.258 -68.4821 165.38 -67.3795 167.427L-74.7114 176.21L-69.8653 182.979L-59.1696 178.9C-57.4236 180.777 -55.5456 182.533 -53.542 184.158ZM-53.4389 117.207C-39.9446 98.3342 -13.6661 94.0013 5.25419 107.529C24.1751 121.058 28.5742 147.326 15.0799 166.199C1.5856 185.072 -24.6941 189.407 -43.615 175.878C-62.5353 162.35 -66.9332 136.081 -53.4389 117.207Z" fill="#F5F5F5"/>
<path d="M-14.1646 242.034L-15.1937 245.41L-13.0027 246.757L-10.4559 244.316C-9.80373 244.608 -9.12928 244.862 -8.43053 245.073L-8.11799 248.633L-5.58226 249.057L-4.13904 245.792C-3.33647 245.822 -2.54405 245.795 -1.76266 245.713L-0.0985101 248.833L2.40033 248.239L2.46902 244.707C3.14259 244.452 3.79666 244.152 4.4296 243.815L7.14871 246.083L9.23871 244.592L7.96903 241.29C8.54755 240.753 9.08946 240.175 9.58827 239.558L12.9718 240.593L14.3151 238.407L11.8646 235.856C12.1562 235.207 12.4072 234.532 12.617 233.836L16.1785 233.531L16.5986 230.999L13.3258 229.549C13.3552 228.749 13.3258 227.954 13.2428 227.174L16.3608 225.52L15.7609 223.02L12.226 222.945C11.9664 222.271 11.6676 221.616 11.3279 220.982L13.5918 218.271L12.0958 216.18L8.79253 217.44C8.25319 216.862 7.67363 216.318 7.05609 215.817L8.08357 212.441L5.89242 211.093L3.34601 213.535C2.69463 213.241 2.01872 212.988 1.31997 212.778L1.00752 209.218L-1.52773 208.792L-2.97032 212.059C-3.77233 212.028 -4.56599 212.055 -5.34811 212.138L-7.01158 209.019L-9.50995 209.611L-9.57894 213.142C-10.2534 213.399 -10.9076 213.699 -11.5409 214.035L-14.2596 211.769L-16.3473 213.258L-15.0787 216.562C-15.6579 217.098 -16.1993 217.677 -16.6993 218.292L-20.0817 217.257L-21.4249 219.443L-18.975 221.993C-19.2664 222.645 -19.5184 223.319 -19.728 224.015L-23.2899 224.32L-23.7087 226.853L-20.4372 228.302C-20.466 229.104 -20.4369 229.897 -20.3532 230.677L-23.4715 232.333L-22.8711 234.83L-19.3361 234.907C-19.0779 235.581 -18.779 236.237 -18.437 236.869L-20.7012 239.58L-19.2061 241.671L-15.9026 240.411C-15.3634 240.99 -14.7838 241.532 -14.1646 242.034ZM-8.58571 225.329C-6.60383 222.557 -2.74453 221.92 0.0342566 223.907C2.81214 225.893 3.4578 229.751 1.47593 232.523C-0.505092 235.294 -4.36491 235.931 -7.14279 233.944C-9.92137 231.957 -10.5665 228.099 -8.58571 225.329Z" fill="#F5F5F5"/>
<path d="M72.9036 344.253C70.4454 336.969 62.503 333.047 55.2 335.511C47.897 337.976 43.9545 345.909 46.4127 353.193C48.8712 360.479 56.8145 364.402 64.1175 361.937C71.4205 359.473 75.3621 351.539 72.9036 344.253ZM53.7886 350.704C52.6999 347.478 54.4475 343.961 57.6828 342.869C60.9186 341.777 64.4377 343.516 65.5266 346.743C66.6162 349.972 64.8702 353.487 61.6343 354.579C58.399 355.671 54.8782 353.933 53.7886 350.704Z" fill="#F5F5F5"/>
<path d="M70.7813 389.628L76.2216 396.778L82.2648 394.261L81.0142 385.366C82.5888 384.458 84.1167 383.44 85.5904 382.314L93.4087 386.965L98.0574 382.363L93.4631 374.524C94.7193 372.912 95.8429 371.232 96.8395 369.5L105.756 370.705L108.25 364.664L101.061 359.265C101.535 357.492 101.893 355.696 102.136 353.887L110.866 351.649L110.899 345.118L102.191 342.821C101.943 340.828 101.555 338.848 101.026 336.899L108.198 331.455L105.683 325.429L96.7713 326.691C95.8614 325.122 94.8442 323.597 93.7182 322.127L98.3889 314.32L93.7859 309.685L85.9226 314.284C84.3108 313.033 82.6295 311.911 80.8947 310.92L82.1185 302.021L76.0668 299.539L70.6478 306.724C68.8703 306.254 67.0715 305.899 65.2596 305.658L63.0303 296.948L56.4865 296.926L54.1708 305.62C52.1748 305.87 50.1887 306.26 48.2357 306.791L42.7917 299.642L36.7505 302.16L38.0017 311.052C36.4264 311.964 34.8976 312.98 33.4232 314.106L25.6073 309.454L20.9573 314.057L25.553 321.898C24.2975 323.508 23.1711 325.187 22.176 326.92L13.2591 325.715L10.7646 331.756L17.9556 337.155C17.4802 338.928 17.1233 340.724 16.878 342.533L8.14881 344.771L8.11769 351.302L16.8253 353.598C17.0729 355.591 17.4611 357.572 17.9888 359.521L10.8166 364.965L13.3312 370.991L22.2436 369.729C23.1542 371.299 24.1702 372.823 25.2942 374.293L20.624 382.101L25.2302 386.736L33.0906 382.136C34.7028 383.388 36.3845 384.508 38.1214 385.5L36.8973 394.4L42.9476 396.881L48.3686 389.697C50.1435 390.168 51.9439 390.523 53.7552 390.761L55.9849 399.471L62.5281 399.493L64.8426 390.799C66.842 390.549 68.8248 390.159 70.7813 389.628ZM28.1463 358.793C22.316 341.516 31.6308 322.772 48.9508 316.927C66.2714 311.082 85.0393 320.35 90.8696 337.627C96.6999 354.903 87.3856 373.649 70.0651 379.494C52.7451 385.339 33.9766 376.07 28.1463 358.793Z" fill="#F5F5F5"/>
<path d="M14.7262 304.034L17.7451 308.002L21.097 306.605L20.4021 301.671C21.2759 301.166 22.1236 300.603 22.9428 299.979L27.2774 302.558L29.858 300.003L27.3087 295.656C28.0069 294.761 28.6292 293.828 29.1811 292.868L34.1281 293.536L35.5124 290.186L31.5243 287.192C31.7886 286.208 31.9864 285.21 32.1197 284.205L36.9642 282.964L36.982 279.339L32.1519 278.068C32.0117 276.961 31.7999 275.863 31.5059 274.782L35.4829 271.761L34.0881 268.418L29.1452 269.118C28.6386 268.247 28.0756 267.403 27.4498 266.586L30.0411 262.256L27.4884 259.684L23.125 262.236C22.2317 261.539 21.2978 260.92 20.3368 260.371L21.0175 255.433L17.6582 254.054L14.6526 258.041C13.6655 257.782 12.6684 257.582 11.6633 257.451L10.4254 252.618L6.79809 252.607L5.51035 257.429C4.40462 257.566 3.30299 257.784 2.21974 258.079L-0.802991 254.115L-4.15509 255.511L-3.45949 260.445C-4.33381 260.95 -5.18151 261.513 -5.99781 262.139L-10.3379 259.557L-12.9156 262.111L-10.3656 266.461C-11.0624 267.353 -11.6868 268.287 -12.2392 269.247L-17.1851 268.579L-18.572 271.93L-14.5805 274.925C-14.8452 275.908 -15.0412 276.904 -15.1792 277.911L-20.0209 279.151L-20.0389 282.775L-15.2079 284.047C-15.0722 285.155 -14.8559 286.252 -14.5633 287.333L-18.5403 290.355L-17.1483 293.698L-12.2014 292.996C-11.6967 293.868 -11.1319 294.711 -10.5096 295.53L-13.1009 299.86L-10.5454 302.43L-6.1841 299.88C-5.28938 300.576 -4.35761 301.196 -3.39135 301.746L-4.07152 306.686L-0.714172 308.058L2.29289 304.073C3.27853 304.335 4.27584 304.533 5.28217 304.664L6.51576 309.498L10.1474 309.509L11.4313 304.686C12.5415 304.548 13.6398 304.33 14.7262 304.034ZM-12.4631 288.122C-16.3546 276.59 -10.1365 264.079 1.42531 260.177C12.9857 256.276 25.5149 262.461 29.4061 273.993C33.2981 285.526 27.0787 298.038 15.5183 301.939C3.95714 305.841 -8.57108 299.655 -12.4631 288.122Z" fill="#F5F5F5"/>
<path d="M-11.513 287.801C-15.2222 276.809 -9.27469 264.841 1.74618 261.122C12.7649 257.404 24.7505 263.32 28.4597 274.311C32.1693 285.304 26.22 297.273 15.2005 300.992C4.17942 304.711 -7.80332 298.794 -11.513 287.801ZM26.1608 275.087C22.8784 265.36 12.273 260.122 2.52023 263.414C-7.23324 266.705 -12.4966 277.298 -9.21415 287.025C-5.93096 296.754 4.67441 301.992 14.4279 298.7C24.1804 295.408 29.4438 284.816 26.1608 275.087Z" fill="#F5F5F5"/>
<path d="M-1.46467 471.623L-1.99032 470.582C-2.82501 468.932 -2.41947 466.874 -0.929112 465.774C0.994321 464.354 3.6597 465.05 4.69129 467.086L5.16018 468.014C5.80701 469.293 7.44211 469.704 8.61931 468.882C9.20108 468.478 9.77227 468.062 10.3331 467.635C11.4491 466.787 11.5852 465.162 10.6265 464.143L9.81806 463.283C8.55225 461.936 8.36048 459.847 9.47893 458.372C10.9235 456.471 13.6811 456.388 15.2439 458.052L15.9527 458.805C16.9346 459.85 18.6236 459.786 19.5227 458.662C19.963 458.111 20.3916 457.55 20.8081 456.984C21.6381 455.856 21.3088 454.261 20.1017 453.554L18.9998 452.908C17.2131 451.862 16.6127 449.545 17.664 447.76C17.0303 445.882 19.0747 444.223 20.7872 445.227L23.7117 446.939C24.9485 447.666 26.55 447.129 27.0956 445.803C27.3634 445.151 27.619 444.495 27.8596 443.834C28.3402 442.519 27.5738 441.078 26.2155 440.74L24.9791 440.432C22.9696 439.93 21.7379 437.877 22.2426 435.87C22.7496 433.863 24.8079 432.631 26.8181 433.132L27.8276 433.385C29.2197 433.732 30.6053 432.769 30.7542 431.344C30.8277 430.645 30.8879 429.942 30.9331 429.237C31.0226 427.842 29.882 426.675 28.4807 426.733L27.1952 426.786C25.1241 426.87 23.3628 425.246 23.2822 423.181L23.2836 423.18C23.2023 421.113 24.83 419.353 26.9012 419.269L27.9356 419.227C29.3708 419.169 30.4304 417.855 30.1695 416.445C30.0431 415.755 29.9007 415.067 29.7444 414.377C29.4341 413.014 28.0119 412.217 26.6839 412.666L25.4722 413.074C23.5066 413.738 21.3586 412.677 20.6973 410.718C20.0359 408.757 21.1027 406.612 23.0675 405.949L24.0472 405.618C25.4089 405.159 26.0529 403.602 25.406 402.322C25.0893 401.692 24.76 401.069 24.4186 400.457C23.7401 399.235 22.1456 398.871 20.9986 399.674L20.0343 400.347C18.5178 401.409 16.417 401.305 15.1172 399.99C13.4369 398.296 13.7524 395.562 15.6265 394.25L16.48 393.652C17.6587 392.828 17.8363 391.153 16.8526 390.107C16.3693 389.593 15.8753 389.09 15.373 388.596C14.3745 387.62 12.744 387.72 11.8703 388.811L11.0656 389.816C9.77111 391.433 7.38626 391.701 5.76921 390.41C4.15014 389.119 3.88638 386.741 5.18002 385.124L5.8236 384.321C6.72364 383.199 6.42036 381.541 5.18154 380.816C4.57406 380.46 3.95943 380.117 3.33902 379.786C2.10427 379.128 0.56677 379.681 0.0372163 380.975L-0.447431 382.153C-1.23479 384.068 -3.44731 384.994 -5.36454 384.213C-7.28336 383.43 -8.20787 381.223 -7.42096 379.307L-7.02929 378.353C-6.48415 377.025 -7.23997 375.522 -8.6327 375.173C-9.31513 375.001 -10.0033 374.844 -10.6933 374.699C-12.0645 374.414 -13.3843 375.377 -13.5325 376.769L-13.6651 378.041C-13.879 380.099 -15.7406 381.61 -17.8025 381.399C-19.863 381.188 -21.3758 379.331 -21.1614 377.274L-21.0542 376.24C-20.9062 374.814 -22.0555 373.584 -23.4934 373.642C-24.1969 373.67 -24.9001 373.713 -25.6055 373.771C-27.0016 373.884 -27.9982 375.179 -27.7427 376.554L-27.5106 377.814C-27.1364 379.848 -28.4967 381.821 -30.5358 382.2C-32.5757 382.576 -34.5489 381.221 -34.925 379.188L-35.1123 378.173C-35.37 376.771 -36.8136 375.906 -38.1685 376.364C-38.1766 376.366 -38.1867 376.37 -38.1947 376.373C-38.8685 376.6 -39.533 376.839 -40.1908 377.092C-41.4924 377.592 -42.0705 379.113 -41.4431 380.355L-40.8673 381.491C-39.9336 383.336 -40.6826 385.611 -42.5333 386.546C-44.3831 387.481 -46.6622 386.736 -47.5955 384.891L-48.0657 383.964C-48.7132 382.684 -50.3483 382.274 -51.5257 383.095C-52.1068 383.499 -52.6787 383.916 -53.2386 384.34C-54.3554 385.188 -54.4905 386.814 -53.5331 387.834L-52.6504 388.772C-51.2325 390.279 -51.3098 392.671 -52.8225 394.088C-54.335 395.505 -56.7319 395.432 -58.151 393.923L-58.8573 393.171C-59.8415 392.126 -61.5303 392.191 -62.4283 393.314C-62.8683 393.865 -63.2976 394.424 -63.7136 394.992C-64.5425 396.118 -64.2136 397.714 -63.0068 398.42L-61.9049 399.066C-60.1202 400.113 -59.5198 402.43 -60.5698 404.215C-59.936 406.093 -61.9818 407.752 -63.6931 406.749L-66.617 405.037C-67.8551 404.311 -69.4564 404.846 -70.0018 406.173C-70.2694 406.823 -70.5232 407.48 -70.7661 408.141C-71.2448 409.454 -70.4792 410.895 -69.1204 411.235L-67.9891 411.518C-66.1914 411.967 -64.8997 413.617 -65.0426 415.462C-65.2288 417.84 -67.5057 419.396 -69.7225 418.842L-70.7316 418.591C-72.125 418.241 -73.5099 419.205 -73.6606 420.631C-73.7341 421.33 -73.793 422.032 -73.8382 422.738C-73.9277 424.132 -72.786 425.301 -71.3856 425.242L-70.1923 425.194C-68.3648 425.12 -66.6824 426.315 -66.281 428.095C-65.7485 430.449 -67.5038 432.612 -69.806 432.706L-70.8409 432.749C-72.2768 432.807 -73.3354 434.122 -73.0746 435.532C-72.9452 436.222 -72.8042 436.91 -72.6475 437.599C-72.339 438.961 -70.9152 439.758 -69.5872 439.31L-68.3761 438.901C-66.4113 438.238 -64.2634 439.3 -63.6024 441.259C-62.941 443.219 -64.0064 445.364 -65.9713 446.028L-66.9503 446.358C-68.3113 446.817 -68.9548 448.375 -68.31 449.655C-67.9928 450.285 -67.6637 450.907 -67.3217 451.519C-66.6427 452.743 -65.0489 453.107 -63.8999 452.303L-62.9387 451.629C-61.4204 450.568 -59.3214 450.671 -58.0196 451.985C-56.3405 453.681 -56.6557 456.415 -58.5302 457.726L-59.3837 458.324C-60.5629 459.149 -60.7409 460.825 -59.7557 461.869C-59.2721 462.383 -58.7788 462.886 -58.2767 463.38C-57.2764 464.358 -55.6477 464.257 -54.7736 463.165L-54.0382 462.245C-52.8799 460.799 -50.8361 460.31 -49.2154 461.204C-47.1242 462.358 -46.6561 465.068 -48.0844 466.853L-48.7273 467.656C-49.6258 468.777 -49.3245 470.436 -48.0853 471.161C-47.4785 471.516 -46.8627 471.86 -46.2421 472.19C-45.0078 472.849 -43.4709 472.296 -42.9389 471.001L-42.4963 469.924C-41.7924 468.212 -39.9683 467.168 -38.1616 467.57C-35.8286 468.089 -34.6145 470.557 -35.4814 472.669L-35.8736 473.624C-36.4182 474.951 -35.662 476.455 -34.2706 476.803C-33.5873 476.974 -32.901 477.132 -32.2106 477.276C-30.8372 477.562 -29.5183 476.598 -29.3715 475.206L-29.238 473.935C-29.025 471.876 -27.1618 470.366 -25.0992 470.576C-23.2628 469.957 -21.402 471.44 -21.6025 473.365L-21.8498 475.735C-21.9984 477.161 -20.8462 478.392 -19.4105 478.334C-18.7073 478.305 -18.0019 478.262 -17.2967 478.205C-15.9012 478.09 -14.9073 476.796 -15.1593 475.421L-15.3922 474.161C-15.8052 471.916 -14.1069 469.748 -11.7165 469.711C-9.86531 469.684 -8.29478 471.077 -7.95949 472.894L-7.79252 473.802C-7.53371 475.206 -6.08972 476.069 -4.73477 475.612C-4.7267 475.609 -4.71795 475.606 -4.70787 475.603C-4.03544 475.376 -3.37001 475.137 -2.71383 474.884C-1.41245 474.386 -0.835047 472.865 -1.46467 471.623ZM13.2593 416.849C15.3796 424.883 14.5795 433.088 11.4525 440.262L0.512184 434.859C2.2813 430.498 2.77167 425.598 1.67245 420.758L13.2591 416.848L13.2593 416.849ZM11.6995 412.227L0.112846 416.137C-1.94549 411.62 -5.30431 408.021 -9.35351 405.624L-3.92437 394.696C2.90978 398.507 8.5181 404.551 11.6995 412.227ZM-8.34226 392.611L-13.7906 403.575C-18.1169 402.097 -22.8985 401.851 -27.5964 403.107L-31.4898 391.569C-23.5962 389.272 -15.5003 389.806 -8.34226 392.611ZM-52.8485 408.509C-49.1562 401.929 -43.3887 396.483 -36.0841 393.245L-32.1707 404.842C-36.3193 406.924 -39.6446 410.112 -41.9071 413.911L-52.8485 408.509ZM-56.2624 435.161C-58.2691 427.561 -57.6611 419.81 -54.9428 412.923L-43.965 418.344C-45.3614 422.397 -45.6777 426.848 -44.6757 431.251L-56.2624 435.161ZM-40.7567 432.504C-44.3372 421.894 -38.6178 410.388 -27.9826 406.799C-17.3508 403.211 -5.82847 408.898 -2.24794 419.509C1.33146 430.116 -4.3875 441.625 -15.0193 445.213C-25.6544 448.802 -37.1773 443.111 -40.7567 432.504ZM-54.7025 439.784L-43.1159 435.874C-41.2446 439.985 -38.2961 443.333 -34.7299 445.711L-40.1778 456.677C-46.5133 452.844 -51.6939 447.046 -54.7025 439.784ZM-35.8374 458.918L-30.4074 447.99C-26.3057 449.642 -21.728 450.163 -17.1673 449.304L-13.2532 460.903C-21.0254 462.753 -28.9136 461.914 -35.8374 458.918ZM-12.4755 447.915C-7.97818 446.067 -4.32256 442.974 -1.77642 439.177L9.20095 444.597C5.207 451.166 -0.910091 456.498 -8.58206 459.452L-12.4755 447.915Z" fill="#F5F5F5"/>
<path d="M-20.0666 364.031C-19.2632 363.722 -18.9043 362.777 -19.2977 362.004L-19.6253 361.358C-20.1437 360.331 -19.894 359.058 -18.9737 358.374C-17.787 357.498 -16.1438 357.934 -15.5042 359.197L-15.2122 359.777C-14.812 360.566 -13.8026 360.829 -13.0748 360.32C-12.7202 360.068 -12.3635 359.806 -12.0152 359.548C-11.3318 359.021 -11.2516 358.011 -11.8421 357.378L-12.344 356.846C-13.1262 356.006 -13.2467 354.706 -12.5582 353.796C-11.6705 352.616 -9.96737 352.571 -9.00541 353.603L-8.56368 354.069C-7.95252 354.724 -6.91369 354.684 -6.36222 353.989C-6.09133 353.648 -5.82427 353.3 -5.57057 352.947C-5.05465 352.254 -5.26226 351.262 -6.01016 350.82L-6.68807 350.416C-7.7957 349.766 -8.16904 348.326 -7.52057 347.217C-7.91254 346.056 -6.65503 345.029 -5.59912 345.652L-3.79099 346.718C-3.02645 347.17 -2.03418 346.838 -1.70155 346.02C-1.53557 345.616 -1.3817 345.208 -1.23181 344.795C-0.938152 343.979 -1.41521 343.086 -2.25412 342.871L-3.01787 342.68C-4.25545 342.364 -5.01981 341.086 -4.71129 339.846C-4.39688 338.593 -3.12952 337.837 -1.89031 338.153L-1.26674 338.309C-0.405082 338.526 0.448688 337.931 0.536529 337.043C0.58437 336.611 0.613265 336.179 0.648466 335.744C0.700457 334.873 -0.00807828 334.146 -0.870806 334.176L-1.66114 334.212C-2.94069 334.259 -4.03304 333.253 -4.08546 331.966C-4.13445 330.682 -3.13523 329.597 -1.85552 329.545L-1.22126 329.518C-0.332028 329.483 0.317898 328.669 0.158888 327.791C0.0753777 327.367 -0.0128299 326.941 -0.11261 326.51C-0.305227 325.67 -1.18004 325.168 -2.0025 325.445L-2.74276 325.695C-3.96051 326.106 -5.28455 325.449 -5.69714 324.226C-6.10936 323.004 -5.45539 321.676 -4.23765 321.265L-3.6396 321.063C-2.80308 320.781 -2.40512 319.815 -2.80023 319.023C-2.99786 318.63 -3.20538 318.245 -3.41777 317.864C-3.83333 317.105 -4.82101 316.875 -5.53219 317.376L-6.1226 317.791C-7.05428 318.446 -8.35827 318.377 -9.15627 317.565C-10.1999 316.509 -10.0079 314.811 -8.85334 313.997L-8.32702 313.627C-7.59674 313.118 -7.49502 312.079 -8.09876 311.43C-8.40044 311.109 -8.70606 310.796 -9.01815 310.491C-9.6342 309.882 -10.6363 309.94 -11.1783 310.617L-11.6743 311.237C-12.4693 312.238 -13.9439 312.402 -14.9409 311.602C-15.9437 310.797 -16.1109 309.317 -15.3113 308.322L-14.9201 307.819C-14.3616 307.124 -14.5548 306.094 -15.315 305.641C-15.6926 305.423 -16.0702 305.207 -16.4576 305C-17.216 304.591 -18.1662 304.931 -18.4963 305.739L-18.79 306.468C-19.2755 307.655 -20.6365 308.227 -21.824 307.74C-23.0054 307.249 -23.5842 305.878 -23.0976 304.693L-22.8572 304.1C-22.5212 303.276 -22.9912 302.343 -23.8528 302.121C-24.2752 302.012 -24.7005 301.917 -25.1273 301.825C-25.973 301.648 -26.7856 302.242 -26.8757 303.103L-26.9503 303.899C-27.0875 305.174 -28.2316 306.105 -29.5057 305.974C-30.7818 305.839 -31.7131 304.686 -31.582 303.409L-31.5181 302.772C-31.4297 301.883 -32.1402 301.121 -33.0304 301.152C-33.464 301.172 -33.895 301.195 -34.3333 301.228C-35.1933 301.3 -35.8086 302.102 -35.6521 302.953L-35.5037 303.736C-35.2687 304.998 -36.1066 306.224 -37.3617 306.458C-38.6232 306.686 -39.8472 305.843 -40.0781 304.582L-40.1948 303.949C-40.3594 303.079 -41.2457 302.539 -42.0849 302.823C-42.0893 302.824 -42.0968 302.827 -42.0995 302.828C-42.5127 302.967 -42.9272 303.113 -43.3298 303.269C-44.1359 303.583 -44.4922 304.526 -44.1008 305.298L-43.7429 305.999C-43.1661 307.151 -43.6287 308.559 -44.7668 309.136C-45.9119 309.716 -47.3104 309.25 -47.8924 308.101L-48.1865 307.529C-48.5809 306.731 -49.5996 306.476 -50.3214 306.982C-50.6805 307.237 -51.0317 307.487 -51.3746 307.755C-52.0657 308.279 -52.1478 309.291 -51.5559 309.92L-51.0089 310.508C-50.1303 311.441 -50.1784 312.93 -51.1056 313.807C-52.0363 314.683 -53.518 314.637 -54.395 313.696L-54.8336 313.232C-55.4424 312.577 -56.4836 312.617 -57.0376 313.313C-57.3112 313.657 -57.5711 313.999 -57.8325 314.353C-58.341 315.052 -58.1341 316.041 -57.3911 316.483L-56.7051 316.887C-55.6048 317.539 -55.2293 318.979 -55.873 320.079C-55.4788 321.247 -56.7383 322.277 -57.8029 321.651L-59.6081 320.585C-60.373 320.132 -61.3609 320.465 -61.6975 321.29C-61.8599 321.691 -62.0167 322.097 -62.168 322.504C-62.4611 323.324 -61.9844 324.219 -61.1452 324.432L-60.4453 324.608C-59.3387 324.887 -58.5387 325.916 -58.6252 327.06C-58.735 328.534 -60.1379 329.499 -61.5043 329.148L-62.1293 328.992C-62.9872 328.772 -63.8494 329.372 -63.9329 330.258C-63.98 330.692 -64.0149 331.129 -64.0396 331.563C-64.0985 332.433 -63.3887 333.154 -62.5225 333.122L-61.7852 333.09C-60.6601 333.049 -59.6202 333.793 -59.3679 334.902C-59.0373 336.362 -60.1168 337.7 -61.5387 337.754L-62.1748 337.783C-63.0649 337.815 -63.7148 338.627 -63.5486 339.505C-63.4719 339.934 -63.3853 340.366 -63.2872 340.789C-63.0949 341.637 -62.2144 342.133 -61.3962 341.857L-60.6462 341.604C-59.4323 341.194 -58.1078 341.858 -57.6967 343.076C-57.2863 344.292 -57.9381 345.622 -59.1521 346.031L-59.7577 346.236C-60.5964 346.519 -60.9942 347.487 -60.5951 348.277C-60.3978 348.672 -60.193 349.058 -59.9802 349.439C-59.5643 350.202 -58.5759 350.423 -57.87 349.931L-57.2725 349.509C-56.3398 348.853 -55.0435 348.925 -54.2392 349.738C-53.2035 350.795 -53.3937 352.493 -54.5447 353.302L-55.0663 353.669C-55.7987 354.185 -55.9069 355.226 -55.3014 355.873C-54.9985 356.194 -54.6934 356.502 -54.3784 356.812C-53.7613 357.42 -52.7556 357.361 -52.2179 356.686L-51.7645 356.111C-51.0528 355.217 -49.7926 354.916 -48.7889 355.474C-47.4977 356.191 -47.2083 357.875 -48.0876 358.982L-48.4784 359.48C-49.0333 360.175 -48.8451 361.203 -48.0813 361.654C-47.7069 361.875 -47.3273 362.088 -46.9397 362.296C-46.1768 362.705 -45.2317 362.365 -44.9029 361.563L-44.6297 360.893C-44.1983 359.833 -43.0769 359.187 -41.956 359.439C-40.5193 359.764 -39.7664 361.297 -40.2988 362.607L-40.5388 363.199C-40.8758 364.023 -40.4051 364.957 -39.5481 365.174C-39.123 365.283 -38.6987 365.382 -38.2698 365.473C-37.4263 365.65 -36.607 365.051 -36.5243 364.193L-36.4448 363.403C-36.312 362.127 -35.1653 361.192 -33.8918 361.323C-32.7584 360.94 -31.6057 361.862 -31.7294 363.056L-31.8797 364.529C-31.9661 365.415 -31.2555 366.179 -30.3671 366.143C-29.9317 366.129 -29.501 366.104 -29.0628 366.069C-28.2024 366 -27.5908 365.201 -27.7449 364.345L-27.8925 363.563C-28.1534 362.169 -27.1075 360.826 -25.6333 360.805C-24.4867 360.791 -23.5156 361.657 -23.3083 362.785L-23.2027 363.35C-23.0383 364.219 -22.1436 364.758 -21.3131 364.478C-21.3071 364.476 -21.3017 364.474 -21.2952 364.472C-20.8807 364.333 -20.4742 364.188 -20.0666 364.031ZM-40.3741 343.089L-32.5374 336.056L-33.101 346.552C-35.824 346.189 -38.3793 344.977 -40.3741 343.089ZM-21.9111 342.591L-28.9576 334.783L-18.4353 335.323C-18.8002 338.049 -20.0205 340.599 -21.9111 342.591ZM-30.4825 336.156L-23.4445 343.964C-24.556 344.811 -25.8113 345.496 -27.2107 345.968C-28.4842 346.398 -29.7733 346.628 -31.042 346.652L-30.4825 336.156ZM-25.1582 352.618C-26.2419 352.984 -27.4252 352.402 -27.7922 351.315C-28.1597 350.226 -27.5705 349.047 -26.4869 348.681C-25.3968 348.313 -24.2118 348.894 -23.8443 349.983C-23.4773 351.07 -24.0681 352.25 -25.1582 352.618ZM-14.7045 339.715C-13.6691 340.221 -13.2468 341.472 -13.7651 342.499C-14.276 343.53 -15.524 343.951 -16.5515 343.439C-17.5792 342.934 -18.0015 341.683 -17.4909 340.656C-16.9833 339.629 -15.7353 339.208 -14.7045 339.715ZM-12.8679 327.317C-12.4998 328.407 -13.0835 329.582 -14.173 329.95C-15.2621 330.317 -16.4386 329.737 -16.8066 328.646C-17.1725 327.562 -16.59 326.382 -15.501 326.015C-14.4114 325.647 -13.2338 326.233 -12.8679 327.317ZM-19.0058 329.449C-18.5762 330.722 -18.3533 332.002 -18.3303 333.273L-28.8468 332.73L-21.0138 325.689C-20.1602 326.795 -19.4753 328.058 -19.0058 329.449ZM-40.841 324.666L-33.8115 332.474L-44.3197 331.929C-43.9602 329.209 -42.7392 326.66 -40.841 324.666ZM-35.5556 316.39C-35.189 317.476 -35.7818 318.654 -36.8676 319.02C-37.9545 319.387 -39.1396 318.809 -39.5062 317.723C-39.8732 316.635 -39.2813 315.455 -38.1944 315.088C-37.1086 314.722 -35.9226 315.302 -35.5556 316.39ZM-35.5403 321.288C-34.2755 320.861 -32.9829 320.64 -31.7181 320.604L-32.2795 331.098L-39.3166 323.295C-38.2055 322.443 -36.937 321.759 -35.5403 321.288ZM-22.3838 324.169L-30.2211 331.217L-29.6587 320.708C-26.9268 321.066 -24.3798 322.279 -22.3838 324.169ZM-22.9837 315.96C-21.9569 316.474 -21.5377 317.716 -22.0445 318.744C-22.5586 319.774 -23.8039 320.194 -24.833 319.685C-25.8647 319.176 -26.2839 317.934 -25.7723 316.901C-25.2617 315.874 -24.0164 315.454 -22.9837 315.96ZM-48.6483 327.989C-49.6804 327.477 -50.0999 326.234 -49.5892 325.201C-49.0758 324.17 -47.8326 323.75 -46.7968 324.258C-45.767 324.772 -45.3474 326.015 -45.856 327.046C-46.3739 328.073 -47.6176 328.492 -48.6483 327.989ZM-50.4902 340.384C-50.8568 339.298 -50.2692 338.123 -49.178 337.754C-48.0906 337.387 -46.9121 337.967 -46.5455 339.053C-46.178 340.142 -46.7621 341.324 -47.8495 341.691C-48.9413 342.059 -50.1229 341.473 -50.4902 340.384ZM-43.7483 337.798C-44.1721 336.543 -44.4059 335.256 -44.4303 333.984L-33.9136 334.523L-41.7455 341.57C-42.6018 340.458 -43.2757 339.199 -43.7483 337.798ZM-40.3704 351.742C-41.3981 351.234 -41.8198 349.985 -41.3093 348.959C-40.793 347.928 -39.545 347.507 -38.5202 348.018C-37.4863 348.522 -37.0646 349.772 -37.5813 350.8C-38.086 351.83 -39.3341 352.251 -40.3704 351.742Z" fill="#F5F5F5"/>
<path d="M46.9814 193.781L46.7933 194.191C46.4945 194.841 46.6815 195.629 47.2727 196.033C48.0357 196.554 49.0562 196.246 49.4251 195.445L49.5929 195.08C49.8248 194.578 50.4494 194.395 50.9166 194.695C51.1468 194.843 51.3737 194.995 51.5962 195.152C52.0399 195.464 52.1162 196.09 51.7598 196.497L51.4597 196.841C50.9906 197.38 50.9469 198.189 51.3997 198.743C51.9848 199.457 53.0512 199.449 53.6317 198.784L53.8949 198.482C54.2585 198.064 54.9124 198.066 55.2762 198.486C55.4535 198.694 55.6277 198.904 55.7972 199.117C56.1339 199.54 56.0298 200.161 55.5736 200.451L55.1573 200.716C54.4827 201.147 54.2836 202.05 54.7158 202.725C54.4981 203.459 55.312 204.07 55.959 203.658L57.0637 202.954C57.5314 202.656 58.1573 202.84 58.3872 203.344C58.4998 203.592 58.6079 203.842 58.7109 204.095C58.9152 204.596 58.6397 205.164 58.1199 205.314L57.6467 205.45C56.878 205.672 56.432 206.485 56.6556 207.252C56.8799 208.02 57.6935 208.466 58.4622 208.243L58.8496 208.131C59.3816 207.977 59.9306 208.329 60.0098 208.877C60.0483 209.146 60.0816 209.416 60.1091 209.688C60.1634 210.225 59.7395 210.693 59.1982 210.69L58.7009 210.69C57.8997 210.687 57.243 211.34 57.241 212.138L57.242 212.138C57.2406 212.938 57.8944 213.595 58.6958 213.597L59.0956 213.599C59.6506 213.6 60.0789 214.093 59.9982 214.641C59.9594 214.909 59.9141 215.177 59.8639 215.446C59.7642 215.977 59.2258 216.305 58.7061 216.151L58.232 216.011C57.4632 215.783 56.6491 216.223 56.4217 216.99C56.1944 217.757 56.6378 218.571 57.4056 218.799L57.7887 218.912C58.3213 219.07 58.5928 219.662 58.3606 220.166C58.2478 220.414 58.1296 220.659 58.0064 220.9C57.7615 221.382 57.1509 221.545 56.6966 221.252L56.3137 221.005C55.7125 220.618 54.9031 220.687 54.4192 221.215C53.7944 221.893 53.9558 222.945 54.6987 223.424L55.0365 223.643C55.5034 223.944 55.5963 224.589 55.2317 225.007C55.0518 225.212 54.8686 225.413 54.6814 225.612C54.3105 226.003 53.6789 225.988 53.3249 225.579L52.9996 225.202C52.4764 224.596 51.5503 224.527 50.9445 225.049C50.3377 225.571 50.2696 226.493 50.7928 227.1L51.0533 227.401C51.4162 227.821 51.3241 228.467 50.8558 228.764C50.6263 228.91 50.3942 229.052 50.1595 229.188C49.6916 229.46 49.09 229.269 48.8667 228.777L48.6629 228.328C48.3314 227.601 47.4632 227.275 46.7337 227.603C46.0039 227.933 45.6781 228.8 46.0093 229.529L46.1746 229.892C46.4039 230.398 46.1339 230.989 45.6013 231.144C45.3403 231.22 45.0764 231.291 44.8123 231.356C44.2862 231.487 43.762 231.133 43.686 230.598L43.6165 230.109C43.5043 229.317 42.7634 228.76 41.9698 228.871C41.1774 228.982 40.6196 229.721 40.7318 230.513L40.7878 230.911C40.8649 231.46 40.4387 231.952 39.8831 231.95C39.6103 231.949 39.3382 231.943 39.0657 231.93C38.5247 231.907 38.1215 231.421 38.1999 230.887L38.2714 230.397C38.3866 229.605 37.833 228.863 37.0394 228.746C36.2465 228.63 35.5035 229.182 35.3884 229.973L35.3311 230.367C35.2512 230.913 34.7063 231.267 34.1764 231.11C34.1736 231.109 34.1699 231.108 34.1662 231.107C33.9031 231.029 33.6426 230.946 33.3844 230.858C32.8748 230.684 32.6298 230.105 32.8536 229.616L33.0601 229.168C33.3937 228.442 33.0716 227.574 32.3436 227.239C31.6154 226.905 30.7457 227.225 30.4121 227.952L30.2443 228.317C30.013 228.82 29.3868 229.002 28.9196 228.702C28.6894 228.553 28.4625 228.401 28.24 228.244C27.7964 227.933 27.721 227.307 28.0755 226.899L28.4031 226.524C28.9284 225.922 28.8642 224.999 28.2596 224.473C27.6551 223.947 26.7304 224.009 26.2036 224.613L25.9416 224.913C25.5759 225.332 24.9229 225.33 24.5603 224.909C24.3828 224.703 24.2085 224.493 24.04 224.28C23.7033 223.856 23.8076 223.235 24.2636 222.945L24.6802 222.68C25.3548 222.25 25.5539 221.346 25.1226 220.672C25.3406 219.936 24.5264 219.326 23.8797 219.737L22.7749 220.441C22.307 220.74 21.6811 220.556 21.4506 220.051C21.3377 219.804 21.2308 219.554 21.1263 219.302C20.9229 218.801 21.1975 218.233 21.7173 218.083L22.1509 217.957C22.8379 217.759 23.3134 217.103 23.2319 216.392C23.1253 215.475 22.2236 214.908 21.375 215.154L20.9888 215.266C20.4556 215.42 19.9066 215.068 19.8283 214.52C19.7898 214.251 19.7568 213.98 19.729 213.709C19.6747 213.172 20.0986 212.704 20.6402 212.706L21.102 212.707C21.8092 212.71 22.4417 212.223 22.5712 211.531C22.7429 210.614 22.0336 209.803 21.1426 209.8L20.7428 209.797C20.1869 209.796 19.7598 209.303 19.8395 208.754C19.8802 208.487 19.9246 208.218 19.9748 207.95C20.0744 207.419 20.6126 207.091 21.1323 207.245L21.6064 207.385C22.3752 207.613 23.1896 207.172 23.4167 206.406C23.644 205.639 23.2013 204.826 22.4325 204.598L22.0495 204.485C21.5168 204.327 21.2453 203.735 21.4766 203.231C21.5904 202.984 21.7076 202.738 21.8317 202.497C22.0766 202.015 22.6868 201.85 23.1415 202.145L23.5226 202.391C24.1246 202.779 24.9334 202.708 25.418 202.182C26.0419 201.504 25.8804 200.452 25.1385 199.973L24.7998 199.754C24.3329 199.453 24.24 198.807 24.6045 198.39C24.7848 198.184 24.9679 197.982 25.1539 197.785C25.5261 197.392 26.1564 197.408 26.5104 197.818L26.8079 198.162C27.2762 198.704 28.0722 198.864 28.6863 198.495C29.4768 198.018 29.6191 196.965 29.0413 196.297L28.7818 195.996C28.4188 195.576 28.511 194.931 28.9795 194.633C29.209 194.486 29.4411 194.345 29.6767 194.208C30.1437 193.936 30.7453 194.128 30.9699 194.619L31.1557 195.029C31.4522 195.68 32.1717 196.057 32.8639 195.875C33.7576 195.64 34.191 194.67 33.8263 193.867L33.661 193.503C33.4314 192.998 33.7017 192.407 34.234 192.252C34.4962 192.176 34.7589 192.105 35.023 192.04C35.5491 191.91 36.0733 192.263 36.1496 192.798L36.2191 193.287C36.331 194.079 37.0722 194.636 37.8667 194.524C38.5853 194.737 39.2828 194.138 39.1772 193.396L39.0471 192.483C38.9691 191.934 39.3969 191.443 39.9525 191.445C40.2244 191.446 40.4964 191.453 40.7701 191.464C41.3109 191.489 41.7132 191.974 41.6367 192.509L41.5651 192.999C41.4379 193.872 42.1243 194.685 43.0495 194.665C43.7644 194.648 44.3512 194.088 44.4544 193.381L44.5067 193.028C44.5856 192.482 45.1314 192.128 45.6613 192.285C45.6641 192.286 45.6678 192.287 45.6715 192.288C45.9346 192.366 46.1954 192.448 46.4524 192.536C46.9614 192.713 47.2061 193.293 46.9814 193.781ZM53.4588 214.727C54.1622 211.594 53.7349 208.436 52.4231 205.71L48.2759 207.955C49.0219 209.614 49.2825 211.498 48.9277 213.384L53.4588 214.727ZM52.9228 216.536L48.3909 215.192C47.6605 216.967 46.4151 218.405 44.8854 219.39L47.1393 223.533C49.7246 221.962 51.8045 219.548 52.9228 216.536ZM45.463 224.401L43.2001 220.244C41.5499 220.878 39.7064 221.041 37.874 220.625L36.5365 225.137C39.6191 225.911 42.7397 225.588 45.463 224.401ZM28.0418 218.903C29.5624 221.391 31.8693 223.411 34.7376 224.556L36.082 220.021C34.4497 219.277 33.119 218.093 32.19 216.658L28.0418 218.903ZM26.339 208.656C25.6728 211.62 26.0195 214.606 27.1691 217.227L31.3308 214.975C30.7331 213.429 30.5466 211.714 30.87 209.999L26.339 208.656ZM36.2456 210.608C35.6487 212.622 36.8006 214.737 38.8189 215.335C40.8362 215.933 42.9559 214.787 43.5525 212.774C44.1491 210.761 42.9965 208.645 40.9792 208.047C38.9609 207.449 36.8419 208.596 36.2456 210.608ZM26.8749 206.848L31.4069 208.191C32.0705 206.576 33.1614 205.24 34.5047 204.27L32.2427 200.114C29.8506 201.684 27.9325 204 26.8749 206.848ZM33.8862 199.185L36.1411 203.328C37.702 202.631 39.4629 202.364 41.2368 202.63L42.5815 198.093C39.5534 197.49 36.5183 197.927 33.8862 199.185ZM43.07 203.098C44.8344 203.748 46.2901 204.889 47.3285 206.32L51.4911 204.067C49.8536 201.588 47.4143 199.616 44.4075 198.586L43.07 203.098Z" fill="#F5F5F5"/>
<path d="M149.205 622.978L147.365 629.014L151.283 631.422L155.836 627.057C157.002 627.579 158.208 628.034 159.457 628.41L160.016 634.775L164.55 635.533L167.13 629.696C168.565 629.749 169.982 629.701 171.379 629.555L174.354 635.133L178.822 634.07L178.944 627.757C180.149 627.3 181.318 626.765 182.45 626.162L187.311 630.216L191.048 627.55L188.778 621.647C189.812 620.687 190.781 619.653 191.673 618.551L197.722 620.401L200.124 616.493L195.743 611.933C196.264 610.772 196.713 609.565 197.088 608.32L203.456 607.775L204.207 603.249L198.355 600.656C198.408 599.225 198.355 597.804 198.207 596.409L203.781 593.452L202.709 588.983L196.389 588.849C195.925 587.643 195.39 586.472 194.783 585.339L198.831 580.491L196.156 576.754L190.25 579.007C189.286 577.973 188.25 576.999 187.146 576.105L188.983 570.067L185.065 567.658L180.512 572.025C179.348 571.499 178.139 571.046 176.89 570.67L176.331 564.305L171.799 563.544L169.219 569.385C167.786 569.33 166.367 569.379 164.968 569.526L161.994 563.95L157.527 565.008L157.404 571.322C156.198 571.781 155.028 572.317 153.896 572.919L149.035 568.866L145.303 571.528L147.571 577.436C146.535 578.394 145.567 579.429 144.674 580.53L138.626 578.679L136.225 582.587L140.605 587.147C140.084 588.312 139.633 589.517 139.258 590.761L132.89 591.307L132.141 595.836L137.99 598.427C137.939 599.859 137.991 601.278 138.141 602.673L132.565 605.632L133.639 610.098L139.959 610.236C140.421 611.44 140.955 612.613 141.567 613.742L137.518 618.59L140.192 622.329L146.098 620.076C147.062 621.111 148.098 622.08 149.205 622.978ZM159.18 593.11C162.723 588.155 169.623 587.015 174.591 590.568C179.558 594.119 180.712 601.017 177.169 605.972C173.627 610.926 166.726 612.065 161.759 608.514C156.792 604.961 155.638 598.063 159.18 593.11Z" fill="#F5F5F5"/>
<path d="M149.205 622.978L147.365 629.014L151.283 631.422L155.836 627.057C157.002 627.579 158.208 628.034 159.457 628.41L160.016 634.775L164.55 635.533L167.13 629.696C168.565 629.749 169.982 629.701 171.379 629.555L174.354 635.133L178.822 634.07L178.944 627.757C180.149 627.3 181.318 626.765 182.45 626.162L187.311 630.216L191.048 627.55L188.778 621.647C189.812 620.687 190.781 619.653 191.673 618.551L197.722 620.401L200.124 616.493L195.743 611.933C196.264 610.772 196.713 609.565 197.088 608.32L203.456 607.775L204.207 603.249L198.355 600.656C198.408 599.225 198.355 597.804 198.207 596.409L203.781 593.452L202.709 588.983L196.389 588.849C195.925 587.643 195.39 586.472 194.783 585.339L198.831 580.491L196.156 576.754L190.25 579.007C189.286 577.973 188.25 576.999 187.146 576.105L188.983 570.067L185.065 567.658L180.512 572.025C179.348 571.499 178.139 571.046 176.89 570.67L176.331 564.305L171.799 563.544L169.219 569.385C167.786 569.33 166.367 569.379 164.968 569.526L161.994 563.95L157.527 565.008L157.404 571.322C156.198 571.781 155.028 572.317 153.896 572.919L149.035 568.866L145.303 571.528L147.571 577.436C146.535 578.394 145.567 579.429 144.674 580.53L138.626 578.679L136.225 582.587L140.605 587.147C140.084 588.312 139.633 589.517 139.258 590.761L132.89 591.307L132.141 595.836L137.99 598.427C137.939 599.859 137.991 601.278 138.141 602.673L132.565 605.632L133.639 610.098L139.959 610.236C140.421 611.44 140.955 612.613 141.567 613.742L137.518 618.59L140.192 622.329L146.098 620.076C147.062 621.111 148.098 622.08 149.205 622.978ZM159.18 593.11C162.723 588.155 169.623 587.015 174.591 590.568C179.558 594.119 180.712 601.017 177.169 605.972C173.627 610.926 166.726 612.065 161.759 608.514C156.792 604.961 155.638 598.063 159.18 593.11Z" fill="#F5F5F5"/>
<path d="M69.9576 260.308C68.9186 263.813 65.2144 265.817 61.7012 264.776C58.1869 263.734 56.1733 260.035 57.2123 256.531C58.2513 253.026 61.9559 251.02 65.4702 252.062C68.9834 253.103 70.9969 256.802 69.9576 260.308ZM60.7614 257.582C60.3012 259.135 61.1937 260.775 62.7505 261.236C64.3073 261.697 65.9482 260.809 66.4085 259.256C66.8691 257.702 65.9773 256.064 64.4205 255.603C62.8637 255.141 61.222 256.029 60.7614 257.582Z" fill="#F5F5F5"/>
<path d="M68.1447 238.781L70.6034 235.286L73.5197 236.375L73.0835 240.624C73.8475 241.028 74.5909 241.485 75.3121 241.994L78.9452 239.645L81.2354 241.75L79.1913 245.557C79.8168 246.3 80.3809 247.079 80.8849 247.885L85.1007 247.155L86.3931 249.98L83.0724 252.675C83.3283 253.51 83.5311 254.357 83.6781 255.212L87.8666 256.12L87.9986 259.224L83.9011 260.47C83.8192 261.422 83.6696 262.37 83.4527 263.306L86.9574 265.766L85.8691 268.674L81.6111 268.232C81.2061 268.995 80.7503 269.737 80.2411 270.456L82.599 274.083L80.4944 276.368L76.6762 274.322C75.9323 274.945 75.1531 275.507 74.3466 276.01L75.086 280.218L72.2535 281.505L69.5505 278.186C68.7145 278.441 67.8659 278.642 67.0084 278.789L66.104 282.967L62.9946 283.094L61.7395 279.003C60.7868 278.92 59.8359 278.771 58.8974 278.552L56.4377 282.046L53.5217 280.957L53.9587 276.709C53.1939 276.303 52.4501 275.847 51.729 275.338L48.097 277.688L45.8053 275.583L47.8509 271.775C47.2254 271.032 46.6609 270.255 46.1569 269.449L41.9408 270.18L40.6487 267.353L43.9702 264.66C43.7125 263.827 43.5112 262.98 43.3634 262.123L39.1749 261.214L39.044 258.111L43.1415 256.865C43.2245 255.913 43.373 254.965 43.5896 254.03L40.0849 251.57L41.172 248.661L45.4301 249.104C45.835 248.341 46.2909 247.598 46.7987 246.881L44.441 243.252L46.5479 240.968L50.3647 243.015C51.1088 242.391 51.8878 241.829 52.6953 241.327L51.9556 237.12L54.7867 235.834L57.4911 239.152C58.3261 238.897 59.1757 238.697 60.0323 238.552L60.9373 234.372L64.0467 234.245L65.3007 238.336C66.2553 238.413 67.2048 238.563 68.1447 238.781ZM48.429 254.19C45.9645 262.504 50.724 271.247 59.058 273.717C67.3932 276.188 76.1481 271.451 78.6126 263.137C81.0771 254.822 76.3176 246.079 67.9825 243.609C59.6484 241.138 50.8935 245.875 48.429 254.19Z" fill="#F5F5F5"/>
</svg>
