<svg width="37" height="28" viewBox="0 0 37 28" fill="none" xmlns="http://www.w3.org/2000/svg">
<path d="M30.0739 14.1377C29.6486 14.1989 29.0714 14.2295 28.3424 14.2295C26.0337 14.2295 24.3021 13.5563 23.1478 12.2098C21.9327 10.9246 21.3251 9.30273 21.3251 7.34426C21.3251 5.26339 22.0238 3.51912 23.4212 2.11147C24.7578 0.703825 26.6108 0 28.9803 0C31.4105 0 33.3547 0.673223 34.8128 2.01967C36.2709 3.42732 37 5.447 37 8.07869C37 11.6284 35.9368 15.2087 33.8103 18.8197C31.6839 22.4918 29.0714 25.5519 25.9729 28L24.1502 26.0721C28.0993 21.8492 30.0739 17.871 30.0739 14.1377ZM8.74877 14.1377C8.32348 14.1989 7.74631 14.2295 7.01724 14.2295C4.70854 14.2295 2.97701 13.5563 1.82266 12.2098C0.607555 10.9246 0 9.30273 0 7.34426C0 5.26339 0.698685 3.51912 2.09606 2.11147C3.43267 0.703825 5.28572 0 7.65517 0C10.0854 0 12.0296 0.673223 13.4877 2.01967C14.9458 3.42732 15.6749 5.447 15.6749 8.07869C15.6749 11.6284 14.6117 15.2087 12.4852 18.8197C10.3588 22.4918 7.74631 25.5519 4.64778 28L2.82512 26.0721C6.77422 21.8492 8.74877 17.871 8.74877 14.1377Z" fill="#FB7E01"/>
</svg>
