<svg width="94" height="94" viewBox="0 0 94 94" fill="none" xmlns="http://www.w3.org/2000/svg">
<g filter="url(#filter0_b_67_587)">
<rect width="94" height="94" rx="47" fill="white" fill-opacity="0.55"/>
</g>
<path d="M31.8661 32.728L28.4341 27.272L36.7941 21.2H41.5461V52H34.9461V30.572L31.8661 32.728ZM57.8894 27.8H45.5254V21.2H65.7654V25.688L55.3374 52H48.1214L57.8894 27.8Z" fill="black"/>
<path d="M33.4395 68.8935L34.4155 70.8135C34.0741 71.1975 33.5675 71.5121 32.8955 71.7575C32.2341 71.9921 31.5248 72.1095 30.7675 72.1095C29.0288 72.1095 27.6155 71.5815 26.5275 70.5255C25.4395 69.4481 24.8955 68.0455 24.8955 66.3175C24.8955 64.6321 25.4075 63.2455 26.4315 62.1575C27.4555 61.0695 28.8955 60.5255 30.7515 60.5255C31.4555 60.5255 32.1115 60.6321 32.7195 60.8455C33.3275 61.0588 33.8128 61.3415 34.1755 61.6935L33.0395 63.6135C32.2928 63.1548 31.5301 62.9255 30.7515 62.9255C29.8448 62.9255 29.0928 63.2241 28.4955 63.8215C27.9088 64.4081 27.6155 65.2401 27.6155 66.3175C27.6155 67.2988 27.9301 68.1148 28.5595 68.7655C29.1888 69.3948 30.0048 69.7095 31.0075 69.7095C31.9035 69.7095 32.7141 69.4375 33.4395 68.8935ZM37.9399 63.1175H34.5799V60.7175H43.8599V63.1175H40.4999V71.9175H37.9399V63.1175ZM45.4102 71.9175H42.8342L47.4902 60.7175H49.7782L54.4342 71.9175H51.6982L50.7702 69.5655H46.3382L45.4102 71.9175ZM49.8102 67.1655L48.5622 63.9975L47.2982 67.1655H49.8102ZM54.108 71.9175L58.172 66.0775L54.284 60.7175H57.228L60.62 65.6135V60.7175H63.18V65.6135L66.572 60.7175H69.516L65.628 66.0615L69.692 71.9175H66.748L63.18 66.5575V71.9175H60.62V66.5575L57.052 71.9175H54.108Z" fill="black"/>
<rect x="4" y="4" width="86" height="86" rx="43" stroke="#FB7E01" stroke-width="2"/>
<rect x="7.5" y="7.5" width="79" height="79" rx="39.5" stroke="#6E6E6E" stroke-dasharray="2 2"/>
<defs>
<filter id="filter0_b_67_587" x="-4" y="-4" width="102" height="102" filterUnits="userSpaceOnUse" color-interpolation-filters="sRGB">
<feFlood flood-opacity="0" result="BackgroundImageFix"/>
<feGaussianBlur in="BackgroundImageFix" stdDeviation="2"/>
<feComposite in2="SourceAlpha" operator="in" result="effect1_backgroundBlur_67_587"/>
<feBlend mode="normal" in="SourceGraphic" in2="effect1_backgroundBlur_67_587" result="shape"/>
</filter>
</defs>
</svg>
