<svg width="957" height="331" viewBox="0 0 957 331" fill="none" xmlns="http://www.w3.org/2000/svg">
<g opacity="0.5">
<path d="M755.514 406.89L756.536 418.276L764.751 419.655L769.424 409.224C771.736 409.311 774.071 409.249 776.421 409.033L781.696 419.337L789.82 417.524L790.176 405.969C792.62 405.082 794.968 404.033 797.214 402.841L806.006 410.175L812.781 405.354L808.69 394.671C810.401 393.082 812.003 391.389 813.489 389.603L824.409 393.102L828.865 386.087L821.038 377.718C822.12 375.403 823.042 373.006 823.791 370.548L835.204 369.537L836.572 361.343L826.116 356.67C826.198 354.363 826.134 352.032 825.916 349.686L836.232 344.436L834.411 336.326L822.825 335.959C821.935 333.521 820.883 331.174 819.685 328.932L827.027 320.171L822.186 313.401L811.484 317.475C809.887 315.765 808.19 314.165 806.401 312.679L809.894 301.786L802.858 297.333L794.478 305.133C792.159 304.051 789.754 303.127 787.291 302.377L786.264 290.99L778.051 289.613L773.381 300.041C771.066 299.957 768.731 300.018 766.38 300.233L761.107 289.931L752.982 291.742L752.626 303.301C750.184 304.187 747.834 305.233 745.588 306.427L736.797 299.092L730.02 303.913L734.114 314.597C732.402 316.186 730.801 317.88 729.312 319.663L718.393 316.165L713.938 323.181L721.766 331.549C720.684 333.864 719.762 336.261 719.011 338.719L707.598 339.729L706.229 347.924L716.686 352.597C716.604 354.905 716.667 357.235 716.884 359.579L706.567 364.831L708.393 372.942L719.975 373.307C720.864 375.747 721.919 378.092 723.119 380.336L715.775 389.097L720.615 395.865L731.319 391.794C732.912 393.503 734.612 395.104 736.403 396.586L732.909 407.481L739.944 411.933L748.322 404.132C750.646 405.216 753.046 406.138 755.514 406.89ZM730.448 344.809C735.86 322.248 758.583 308.357 781.201 313.782C803.819 319.208 817.768 341.897 812.356 364.458C806.944 387.019 784.219 400.913 761.601 395.487C738.984 390.061 725.036 367.37 730.448 344.809Z" fill="white"/>
<path d="M597.98 278.601C600.262 269.088 594.36 259.487 584.823 257.199C575.286 254.911 565.669 260.79 563.387 270.303C561.104 279.816 567.008 289.42 576.544 291.707C586.081 293.995 595.698 288.115 597.98 278.601ZM573.019 272.613C574.029 268.4 578.293 265.793 582.518 266.807C586.744 267.82 589.358 272.076 588.347 276.29C587.335 280.507 583.075 283.112 578.85 282.098C574.625 281.085 572.007 276.83 573.019 272.613Z" fill="white"/>
<path d="M564.982 326.054L566.004 337.44L574.218 338.818L578.892 328.388C581.203 328.474 583.539 328.412 585.888 328.196L591.164 338.5L599.288 336.687L599.644 325.132C602.088 324.246 604.436 323.196 606.682 322.004L615.474 329.338L622.249 324.517L618.158 313.834C619.869 312.245 621.47 310.552 622.957 308.767L633.877 312.265L638.333 305.25L630.506 296.882C631.587 294.566 632.51 292.17 633.259 289.712L644.672 288.7L646.04 280.506L635.584 275.834C635.666 273.527 635.602 271.195 635.384 268.849L645.7 263.6L643.878 255.489L632.293 255.123C631.403 252.684 630.351 250.337 629.152 248.095L636.495 239.335L631.654 232.565L620.952 236.639C619.355 234.929 617.658 233.328 615.868 231.842L619.362 220.949L612.326 216.496L603.946 224.296C601.627 223.214 599.222 222.291 596.759 221.541L595.732 210.154L587.519 208.777L582.849 219.204C580.534 219.121 578.199 219.181 575.848 219.396L570.575 209.094L562.45 210.905L562.094 222.464C559.652 223.35 557.302 224.396 555.056 225.59L546.265 218.256L539.488 223.076L543.582 233.761C541.87 235.349 540.269 237.043 538.78 238.826L527.86 235.329L523.406 242.344L531.234 250.713C530.152 253.028 529.229 255.424 528.479 257.882L517.066 258.893L515.697 267.088L526.154 271.76C526.072 274.068 526.135 276.398 526.351 278.742L516.035 283.994L517.861 292.105L529.443 292.47C530.332 294.91 531.387 297.255 532.587 299.5L525.243 308.261L530.083 315.029L540.787 310.957C542.38 312.666 544.08 314.267 545.871 315.749L542.377 326.644L549.412 331.096L557.79 323.296C560.114 324.379 562.514 325.301 564.982 326.054ZM539.916 263.972C545.328 241.411 568.051 227.52 590.669 232.946C613.287 238.372 627.236 261.06 621.824 283.621C616.411 306.183 593.687 320.076 571.069 314.65C548.452 309.224 534.504 286.534 539.916 263.972Z" fill="white"/>
<path d="M745.79 282.637L746.211 287.321L749.589 287.888L751.51 283.597C752.461 283.633 753.421 283.608 754.389 283.521L756.557 287.756L759.9 287.01L760.046 282.258C761.053 281.893 762.018 281.461 762.94 280.971L766.557 283.987L769.344 282.006L767.661 277.612C768.366 276.959 769.024 276.261 769.635 275.526L774.128 276.965L775.961 274.079L772.74 270.639C773.184 269.685 773.566 268.701 773.873 267.69L778.566 267.273L779.13 263.902L774.83 261.981C774.862 261.031 774.836 260.074 774.746 259.108L778.989 256.949L778.241 253.614L773.475 253.462C773.111 252.458 772.675 251.494 772.183 250.573L775.205 246.97L773.213 244.183L768.812 245.86C768.153 245.158 767.457 244.498 766.72 243.888L768.156 239.407L765.264 237.578L761.816 240.783C760.864 240.338 759.875 239.959 758.861 239.652L758.436 234.968L755.058 234.4L753.137 238.691C752.185 238.656 751.225 238.68 750.259 238.771L748.088 234.53L744.747 235.277L744.602 240.031C743.597 240.395 742.63 240.827 741.707 241.317L738.091 238.301L735.302 240.282L736.987 244.677C736.283 245.329 735.626 246.027 735.011 246.762L730.521 245.323L728.688 248.209L731.908 251.649C731.461 252.602 731.083 253.587 730.774 254.598L726.081 255.016L725.515 258.385L729.819 260.307C729.785 261.257 729.813 262.214 729.899 263.179L725.656 265.338L726.408 268.674L731.172 268.825C731.537 269.83 731.97 270.793 732.466 271.717L729.444 275.322L731.437 278.103L735.839 276.429C736.495 277.133 737.192 277.791 737.93 278.4L736.49 282.881L739.385 284.713L742.831 281.504C743.787 281.951 744.774 282.328 745.79 282.637ZM732.056 256.282C734.734 245.117 745.98 238.243 757.174 240.928C768.366 243.613 775.27 254.842 772.592 266.006C769.914 277.172 758.667 284.046 747.474 281.361C736.281 278.676 729.377 267.448 732.056 256.282Z" fill="white"/>
<path d="M732.975 256.502C735.528 245.86 746.285 239.285 756.955 241.845C767.623 244.404 774.228 255.144 771.675 265.785C769.122 276.428 758.363 283.004 747.695 280.445C737.025 277.885 730.422 267.145 732.975 256.502ZM769.45 265.252C771.709 255.834 765.865 246.328 756.423 244.063C746.98 241.798 737.46 247.619 735.201 257.036C732.941 266.455 738.785 275.961 748.228 278.226C757.67 280.491 767.19 274.67 769.45 265.252Z" fill="white"/>
<path d="M642.057 422.971L642.165 421.81C642.336 419.969 643.775 418.441 645.621 418.303C648.006 418.123 649.893 420.13 649.683 422.403L649.587 423.438C649.454 424.866 650.62 426.084 652.054 426.014C652.762 425.981 653.466 425.932 654.168 425.869C655.564 425.745 656.544 424.441 656.274 423.068L656.047 421.91C655.692 420.096 656.641 418.226 658.372 417.571C660.607 416.73 662.986 418.127 663.424 420.367L663.624 421.382C663.899 422.789 665.364 423.633 666.723 423.159C667.389 422.927 668.05 422.68 668.704 422.422C670.007 421.909 670.576 420.383 669.93 419.143L669.341 418.009C668.385 416.173 669.108 413.892 670.948 412.939C671.411 411.012 674.024 410.695 674.94 412.456L676.506 415.462C677.167 416.735 678.808 417.132 679.976 416.299C680.549 415.89 681.115 415.47 681.67 415.039C682.777 414.181 682.894 412.553 681.924 411.544L681.041 410.625C679.606 409.132 679.656 406.737 681.15 405.307C682.647 403.877 685.045 403.929 686.481 405.423L687.201 406.174C688.195 407.208 689.881 407.129 690.766 406.002C691.2 405.449 691.624 404.886 692.038 404.313C692.855 403.179 692.51 401.584 691.293 400.888L690.177 400.249C688.378 399.218 687.75 396.907 688.781 395.115L688.782 395.115C689.813 393.321 692.128 392.697 693.926 393.727L694.824 394.242C696.07 394.957 697.667 394.407 698.196 393.075C698.456 392.423 698.701 391.765 698.936 391.098C699.398 389.778 698.618 388.347 697.255 388.02L696.011 387.722C693.994 387.238 692.739 385.197 693.222 383.186C693.704 381.175 695.749 379.925 697.765 380.409L698.771 380.65C700.168 380.985 701.542 380.01 701.675 378.582C701.742 377.88 701.794 377.178 701.831 376.478C701.907 375.081 700.75 373.925 699.352 373.995L698.177 374.052C696.328 374.145 694.604 372.939 694.203 371.134C693.681 368.806 695.403 366.659 697.687 366.545L698.728 366.492C700.165 366.422 701.206 365.097 700.93 363.688C700.794 362.997 700.643 362.308 700.48 361.622C700.155 360.264 698.721 359.481 697.4 359.941L696.185 360.363C694.228 361.044 692.066 360.003 691.384 358.049C690.699 356.095 691.741 353.941 693.697 353.26L694.669 352.922C696.027 352.451 696.653 350.886 695.99 349.612C695.664 348.988 695.326 348.371 694.977 347.76C694.282 346.546 692.685 346.197 691.549 347.011L690.511 347.751C688.826 348.954 686.46 348.561 685.252 346.88C684.044 345.196 684.435 342.835 686.12 341.631L686.96 341.031C688.128 340.197 688.287 338.522 687.294 337.486C686.807 336.978 686.308 336.478 685.801 335.989C684.791 335.018 683.161 335.131 682.295 336.231L681.507 337.237C680.231 338.867 677.851 339.155 676.217 337.88C674.584 336.606 674.291 334.228 675.567 332.6L676.208 331.782C677.091 330.653 676.773 329 675.524 328.284C674.913 327.934 674.295 327.596 673.667 327.27C672.425 326.623 670.892 327.19 670.377 328.49L669.903 329.68C669.138 331.602 666.937 332.549 665.009 331.785C663.081 331.018 662.131 328.821 662.894 326.9L663.275 325.941C663.803 324.616 663.04 323.116 661.65 322.783C661.642 322.781 661.631 322.778 661.623 322.776C660.931 322.61 660.242 322.459 659.55 322.323C658.182 322.054 656.884 323.035 656.754 324.42L656.637 325.688C656.446 327.748 654.602 329.276 652.537 329.083C650.474 328.891 648.94 327.047 649.131 324.989L649.226 323.954C649.359 322.526 648.192 321.308 646.759 321.377C646.051 321.411 645.346 321.459 644.646 321.521C643.249 321.645 642.27 322.95 642.538 324.322L642.787 325.586C643.186 327.616 641.848 329.601 639.813 329.996C637.778 330.391 635.788 329.054 635.388 327.022L635.191 326.009C634.913 324.601 633.449 323.757 632.091 324.231C631.425 324.464 630.764 324.709 630.11 324.968C628.809 325.48 628.238 327.007 628.884 328.247L629.474 329.38C630.428 331.216 629.704 333.497 627.866 334.45C627.403 336.377 624.788 336.694 623.873 334.935L622.308 331.929C621.646 330.656 620.005 330.257 618.837 331.091C618.265 331.499 617.7 331.92 617.143 332.351C616.039 333.208 615.921 334.836 616.891 335.846L617.698 336.687C618.982 338.024 619.198 340.108 618.095 341.594C616.673 343.509 613.917 343.616 612.335 341.967L611.614 341.217C610.62 340.181 608.934 340.259 608.048 341.387C607.614 341.94 607.191 342.503 606.777 343.077C605.959 344.21 606.305 345.807 607.522 346.502L608.558 347.096C610.144 348.006 610.934 349.912 610.327 351.633C609.525 353.91 606.888 354.808 604.889 353.663L603.99 353.149C602.743 352.433 601.147 352.984 600.618 354.317C600.36 354.97 600.114 355.628 599.88 356.294C599.416 357.612 600.198 359.044 601.561 359.371L602.804 359.669C604.821 360.153 606.074 362.195 605.592 364.205C605.109 366.217 603.066 367.466 601.05 366.983L600.045 366.742C598.648 366.407 597.274 367.383 597.139 368.811C597.073 369.512 597.021 370.214 596.985 370.914C596.909 372.312 598.065 373.468 599.465 373.399L600.638 373.339C602.488 373.249 604.21 374.452 604.614 376.258C605.134 378.586 603.412 380.734 601.128 380.847L600.087 380.899C598.649 380.97 597.607 382.295 597.886 383.704C598.022 384.396 598.172 385.084 598.335 385.769C598.662 387.129 600.094 387.91 601.415 387.451L602.527 387.063C604.277 386.455 606.268 387.128 607.165 388.747C608.322 390.837 607.276 393.381 605.118 394.132L604.146 394.47C602.789 394.942 602.162 396.506 602.825 397.779C603.15 398.403 603.488 399.022 603.839 399.632C604.533 400.846 606.129 401.195 607.268 400.381L608.216 399.705C609.722 398.63 611.823 398.716 613.139 400.018C614.838 401.698 614.553 404.434 612.696 405.761L611.856 406.361C610.689 407.195 610.529 408.871 611.522 409.906C612.009 410.414 612.507 410.913 613.015 411.402C614.026 412.375 615.655 412.26 616.52 411.16L617.309 410.155C618.585 408.524 620.966 408.237 622.6 409.512C624.485 409.964 625.272 412.21 624.078 413.734L622.608 415.609C621.723 416.737 622.044 418.392 623.291 419.107C623.902 419.456 624.522 419.795 625.149 420.122C626.392 420.767 627.922 420.2 628.44 418.902L628.913 417.711C629.758 415.59 632.349 414.658 634.393 415.898C635.975 416.86 636.564 418.875 635.881 420.592L635.539 421.449C635.012 422.776 635.775 424.275 637.166 424.609C637.174 424.611 637.183 424.613 637.194 424.615C637.884 424.781 638.574 424.932 639.264 425.067C640.631 425.338 641.929 424.357 642.057 422.971ZM683.662 384.422C681.183 392.353 676.141 398.875 669.677 403.286L663.287 392.891C667.105 390.139 670.127 386.251 671.771 381.568L683.662 384.421L683.662 384.422ZM684.8 379.678L672.908 376.825C673.568 371.906 672.638 367.072 670.485 362.888L680.895 356.522C684.655 363.385 686.189 371.485 684.8 379.678ZM678.263 352.407L667.817 358.793C664.94 355.24 661.022 352.488 656.376 351.052L659.217 339.211C667.123 341.465 673.694 346.224 678.263 352.407ZM632.12 342.193C638.746 338.586 646.527 337.042 654.435 338.187L651.58 350.088C646.959 349.644 642.447 350.575 638.511 352.588L632.12 342.193ZM615.051 362.946C617.395 355.443 622.033 349.203 627.998 344.817L634.41 355.247C631.072 357.936 628.436 361.537 626.942 365.799L615.051 362.946ZM629.595 368.944C632.207 358.055 643.171 351.354 654.085 353.973C664.997 356.59 671.728 367.536 669.116 378.425C666.504 389.31 655.539 396.014 644.628 393.397C633.713 390.779 626.983 379.83 629.595 368.944ZM613.913 367.69L625.804 370.543C625.202 375.019 625.917 379.423 627.672 383.333L617.226 389.721C613.9 383.106 612.598 375.44 613.913 367.69ZM619.709 393.928L630.12 387.563C632.715 391.143 636.314 394.02 640.633 395.718L637.777 407.622C630.212 405.054 623.978 400.148 619.709 393.928ZM645.345 397.038C650.136 397.865 654.877 397.191 659.052 395.33L665.465 405.759C658.588 409.197 650.572 410.458 642.504 408.878L645.345 397.038Z" fill="white"/>
<path d="M679.472 325.569C680.522 325.775 681.525 325.017 681.622 323.943L681.705 323.046C681.838 321.622 682.944 320.446 684.365 320.335C686.194 320.197 687.636 321.743 687.474 323.497L687.398 324.3C687.297 325.396 688.186 326.34 689.289 326.287C689.829 326.256 690.378 326.216 690.916 326.174C691.984 326.071 692.736 325.061 692.533 324.004L692.357 323.111C692.089 321.709 692.821 320.261 694.148 319.759C695.864 319.103 697.687 320.182 698.018 321.905L698.174 322.688C698.385 323.782 699.505 324.427 700.545 324.06C701.057 323.88 701.568 323.691 702.068 323.487C703.07 323.098 703.508 321.916 703.012 320.956L702.566 320.082C701.829 318.665 702.389 316.902 703.805 316.163C704.161 314.681 706.164 314.431 706.864 315.786L708.063 318.104C708.569 319.086 709.833 319.393 710.725 318.751C711.167 318.436 711.599 318.108 712.03 317.772C712.879 317.107 712.967 315.852 712.226 315.07L711.548 314.363C710.454 313.213 710.494 311.361 711.64 310.26C712.799 309.148 714.634 309.19 715.73 310.343L716.283 310.92C717.047 311.718 718.34 311.656 719.019 310.78C719.356 310.356 719.672 309.92 719.997 309.485C720.628 308.603 720.362 307.369 719.434 306.829L718.579 306.344C717.2 305.548 716.715 303.766 717.511 302.376C718.309 300.992 720.079 300.51 721.461 301.301L722.147 301.693C723.106 302.244 724.329 301.817 724.742 300.787C724.935 300.285 725.124 299.779 725.304 299.259C725.657 298.246 725.068 297.139 724.018 296.887L723.074 296.66C721.519 296.287 720.56 294.72 720.934 293.159C721.308 291.6 722.876 290.634 724.43 291.007L725.193 291.19C726.261 291.446 727.319 290.692 727.427 289.596C727.479 289.052 727.515 288.509 727.543 287.967C727.607 286.894 726.719 285.999 725.639 286.055L724.743 286.102C723.328 286.175 722.001 285.24 721.698 283.857C721.298 282.055 722.623 280.394 724.377 280.3L725.176 280.259C726.282 280.205 727.077 279.179 726.87 278.096C726.764 277.559 726.65 277.027 726.523 276.499C726.277 275.451 725.184 274.848 724.165 275.203L723.233 275.528C721.733 276.056 720.072 275.253 719.551 273.751C719.028 272.24 719.831 270.571 721.331 270.052L722.076 269.782C723.124 269.419 723.601 268.207 723.101 267.227C722.847 266.747 722.592 266.27 722.322 265.796C721.793 264.864 720.568 264.593 719.686 265.226L718.894 265.799C717.598 266.727 715.787 266.429 714.858 265.132C713.939 263.832 714.236 262.006 715.533 261.08L716.178 260.615C717.077 259.969 717.199 258.677 716.439 257.872C716.066 257.478 715.681 257.097 715.293 256.717C714.519 255.972 713.27 256.06 712.606 256.907L712.001 257.696C711.013 258.948 709.192 259.171 707.937 258.19C706.683 257.204 706.465 255.373 707.448 254.116L707.936 253.487C708.618 252.609 708.373 251.338 707.416 250.781C706.946 250.515 706.476 250.255 705.993 250C705.04 249.506 703.862 249.944 703.463 250.944L703.102 251.865C702.515 253.35 700.821 254.087 699.345 253.503C697.866 252.908 697.134 251.211 697.725 249.731L698.021 248.987C698.423 247.962 697.847 246.808 696.776 246.551C696.77 246.549 696.761 246.547 696.757 246.546C696.23 246.42 695.697 246.299 695.17 246.197C694.113 245.994 693.114 246.752 693.016 247.824L692.929 248.798C692.774 250.393 691.356 251.57 689.775 251.425C688.186 251.278 687.022 249.862 687.169 248.267L687.238 247.47C687.35 246.369 686.446 245.426 685.351 245.482C684.805 245.513 684.27 245.544 683.731 245.6C682.656 245.694 681.901 246.705 682.108 247.76L682.295 248.74C682.603 250.304 681.568 251.84 680.011 252.15C678.451 252.457 676.922 251.428 676.621 249.857L676.466 249.078C676.258 247.986 675.135 247.339 674.091 247.706C673.575 247.888 673.076 248.076 672.567 248.275C671.569 248.675 671.132 249.853 671.622 250.81L672.077 251.689C672.804 253.104 672.248 254.868 670.842 255.601C670.484 257.091 668.477 257.342 667.77 255.98L666.574 253.663C666.068 252.68 664.807 252.377 663.907 253.023C663.471 253.338 663.037 253.662 662.609 253.99C661.758 254.659 661.668 255.917 662.411 256.697L663.031 257.345C664.012 258.371 664.174 259.983 663.326 261.132C662.235 262.611 660.119 262.699 658.913 261.426L658.358 260.848C657.6 260.048 656.295 260.11 655.621 260.988C655.285 261.413 654.959 261.851 654.646 262.291C654.008 263.168 654.278 264.398 655.212 264.937L656.009 265.391C657.221 266.092 657.824 267.563 657.356 268.898C656.738 270.654 654.716 271.349 653.183 270.465L652.495 270.075C651.536 269.52 650.314 269.945 649.909 270.98C649.706 271.482 649.511 271.994 649.335 272.504C648.976 273.524 649.575 274.629 650.62 274.88L651.577 275.109C653.126 275.481 654.082 277.056 653.709 278.611C653.336 280.163 651.771 281.131 650.221 280.76L649.448 280.574C648.378 280.318 647.319 281.074 647.216 282.17C647.162 282.717 647.123 283.258 647.095 283.8C647.028 284.879 647.923 285.765 648.992 285.714L649.9 285.665C651.316 285.592 652.634 286.525 652.943 287.912C653.334 289.711 652.011 291.373 650.264 291.463L649.471 291.505C648.359 291.564 647.556 292.589 647.766 293.67C647.872 294.209 647.99 294.735 648.116 295.27C648.364 296.319 649.462 296.921 650.475 296.566L651.333 296.26C652.673 295.79 654.199 296.307 654.888 297.558C655.773 299.167 654.964 301.132 653.306 301.716L652.565 301.982C651.52 302.347 651.039 303.553 651.544 304.534C651.793 305.014 652.052 305.49 652.322 305.965C652.854 306.901 654.075 307.167 654.951 306.541L655.682 306.016C656.838 305.185 658.446 305.246 659.46 306.253C660.758 307.546 660.536 309.658 659.109 310.686L658.465 311.15C657.565 311.795 657.443 313.09 658.201 313.886C658.577 314.281 658.958 314.666 659.35 315.046C660.121 315.791 661.38 315.701 662.034 314.853L662.641 314.073C663.625 312.818 665.451 312.591 666.705 313.571C668.152 313.918 668.756 315.652 667.836 316.827L666.703 318.279C666.026 319.155 666.269 320.429 667.228 320.979C667.696 321.252 668.166 321.511 668.651 321.764C669.602 322.261 670.775 321.824 671.179 320.82L671.541 319.899C672.188 318.259 674.178 317.536 675.744 318.49C676.961 319.233 677.411 320.787 676.883 322.112L676.62 322.777C676.218 323.801 676.804 324.961 677.864 325.215C677.871 325.217 677.878 325.218 677.886 325.22C678.415 325.349 678.939 325.465 679.472 325.569ZM671.941 290.083L684.845 287.862L677.309 298.54C674.681 296.358 672.793 293.39 671.941 290.083ZM691.712 301.772L689.457 288.889L700.18 296.418C697.993 299.047 695.021 300.925 691.712 301.772ZM686.944 289.326L689.189 302.203C687.459 302.36 685.683 302.251 683.897 301.823C682.272 301.433 680.763 300.822 679.411 300.009L686.944 289.326ZM681.66 310.183C680.277 309.851 679.415 308.456 679.748 307.068C680.082 305.678 681.482 304.826 682.865 305.158C684.257 305.492 685.12 306.887 684.787 308.277C684.454 309.665 683.051 310.516 681.66 310.183ZM701.203 303.511C701.959 304.728 701.576 306.325 700.351 307.064C699.131 307.812 697.538 307.43 696.795 306.211C696.047 304.999 696.43 303.402 697.647 302.658C698.861 301.913 700.453 302.295 701.203 303.511ZM711.339 291.67C711.005 293.062 709.613 293.913 708.223 293.579C706.833 293.246 705.978 291.856 706.312 290.464C706.644 289.081 708.038 288.224 709.427 288.557C710.818 288.891 711.671 290.287 711.339 291.67ZM703.465 289.855C703.075 291.48 702.464 292.975 701.647 294.329L690.932 286.8L703.838 284.567C704.005 286.298 703.891 288.08 703.465 289.855ZM683.637 270.374L685.874 283.246L675.169 275.721C677.347 273.095 680.318 271.219 683.637 270.374ZM694.677 265.156C694.344 266.542 692.941 267.39 691.555 267.058C690.168 266.725 689.302 265.333 689.635 263.946C689.968 262.559 691.372 261.707 692.759 262.04C694.145 262.372 695.01 263.768 694.677 265.156ZM691.453 270.324C693.067 270.711 694.574 271.333 695.93 272.132L688.397 282.812L686.149 269.939C687.882 269.777 689.67 269.896 691.453 270.324ZM703.401 282.061L690.486 284.298L698.03 273.604C700.67 275.788 702.549 278.75 703.401 282.061ZM708.199 273.02C708.941 274.24 708.56 275.826 707.347 276.572C706.124 277.317 704.535 276.936 703.788 275.719C703.038 274.501 703.418 272.916 704.64 272.167C705.857 271.423 707.446 271.804 708.199 273.02ZM673.217 268.709C672.469 267.488 672.849 265.901 674.071 265.151C675.293 264.405 676.88 264.785 677.635 266.006C678.379 267.228 677.999 268.814 676.781 269.564C675.557 270.302 673.969 269.921 673.217 268.709ZM663.078 280.543C663.411 279.157 664.807 278.308 666.199 278.642C667.587 278.975 668.445 280.364 668.112 281.751C667.779 283.141 666.382 283.999 664.994 283.666C663.601 283.332 662.745 281.932 663.078 280.543ZM671.888 282.28C672.272 280.677 672.877 279.167 673.693 277.812L684.41 285.337L671.502 287.576C671.335 285.84 671.459 284.067 671.888 282.28ZM666.221 299.197C665.475 297.983 665.857 296.388 667.073 295.646C668.299 294.902 669.892 295.284 670.633 296.5C671.388 297.715 671.005 299.31 669.781 300.051C668.568 300.801 666.975 300.419 666.221 299.197Z" fill="white"/>
<path d="M567.886 348.049C568.352 348.626 568.213 349.485 567.586 349.893L567.063 350.234C566.233 350.778 565.871 351.836 566.263 352.743C566.772 353.909 568.186 354.292 569.209 353.624L569.676 353.317C570.315 352.9 571.182 353.139 571.506 353.833C571.663 354.174 571.816 354.523 571.965 354.866C572.248 355.554 571.872 356.343 571.159 356.56L570.554 356.742C569.608 357.032 568.958 357.95 569.08 358.926C569.234 360.19 570.486 360.958 571.649 360.602L572.18 360.444C572.918 360.219 573.677 360.696 573.789 361.453C573.844 361.825 573.894 362.199 573.931 362.572C574.017 363.312 573.435 363.963 572.686 363.971L572.005 363.98C570.899 363.988 569.999 364.902 570.005 366.01C569.212 366.708 569.708 368.016 570.765 368.006L572.574 367.99C573.34 367.982 573.938 368.657 573.833 369.412C573.783 369.785 573.722 370.156 573.656 370.529C573.524 371.265 572.783 371.725 572.063 371.525L571.411 371.338C570.351 371.04 569.229 371.665 568.925 372.724C568.62 373.795 569.24 374.906 570.302 375.204L570.834 375.356C571.571 375.565 571.952 376.378 571.635 377.078C571.484 377.422 571.32 377.757 571.159 378.097C570.822 378.769 569.98 379.006 569.349 378.612L568.774 378.245C567.839 377.658 566.59 377.938 565.996 378.877C565.406 379.814 565.684 381.055 566.617 381.646L567.079 381.939C567.728 382.348 567.862 383.236 567.365 383.823C567.12 384.104 566.871 384.384 566.61 384.663C566.104 385.207 565.234 385.205 564.74 384.643L564.295 384.138C563.563 383.306 562.291 383.226 561.456 383.961C560.622 384.695 560.538 385.969 561.27 386.8L561.629 387.209C562.132 387.78 562.013 388.673 561.376 389.094C561.059 389.302 560.738 389.5 560.416 389.693C559.778 390.08 558.942 389.826 558.626 389.146L558.365 388.582C557.952 387.691 556.948 387.181 556.002 387.443C554.768 387.781 554.18 389.132 554.691 390.237L554.924 390.74C555.25 391.435 554.878 392.255 554.148 392.479C553.784 392.588 553.421 392.69 553.056 392.784C552.334 392.973 551.611 392.498 551.498 391.759L551.395 391.082C551.233 389.992 550.203 389.234 549.113 389.401C548.018 389.57 547.255 390.603 547.423 391.691L547.498 392.234C547.615 392.995 547.027 393.68 546.264 393.691C545.889 393.69 545.514 393.689 545.135 393.677C544.393 393.655 543.83 392.992 543.932 392.246L544.027 391.575C544.176 390.48 543.406 389.466 542.31 389.317C541.216 389.175 540.193 389.949 540.045 391.044L539.969 391.59C539.865 392.35 539.112 392.844 538.373 392.638C538.01 392.538 537.652 392.425 537.294 392.31C536.586 392.077 536.235 391.284 536.539 390.602L536.827 389.975C537.274 388.964 536.821 387.776 535.813 387.325C534.802 386.876 533.61 387.335 533.157 388.345L532.931 388.848C532.613 389.55 531.755 389.812 531.103 389.406C530.788 389.204 530.476 389.001 530.163 388.787C529.552 388.363 529.438 387.499 529.922 386.931L530.37 386.411C531.09 385.57 530.993 384.293 530.157 383.577C529.313 382.864 528.036 382.965 527.32 383.807L526.96 384.229C526.462 384.808 525.568 384.829 525.063 384.256C525.061 384.253 525.056 384.247 525.054 384.246C524.806 383.963 524.559 383.676 524.326 383.386C523.86 382.804 524 381.946 524.625 381.538L525.194 381.17C526.122 380.558 526.383 379.307 525.783 378.386C525.177 377.459 523.932 377.204 523.002 377.812L522.536 378.112C521.898 378.537 521.027 378.289 520.707 377.6C520.549 377.255 520.394 376.917 520.254 376.568C519.964 375.879 520.338 375.089 521.052 374.874L521.713 374.671C522.771 374.353 523.377 373.221 523.063 372.166C522.746 371.111 521.62 370.507 520.56 370.831L520.032 370.989C519.295 371.215 518.535 370.737 518.422 369.978C518.366 369.603 518.319 369.236 518.276 368.859C518.198 368.118 518.779 367.468 519.524 367.459L520.21 367.453C521.313 367.44 522.214 366.528 522.207 365.429C523.005 364.727 522.509 363.415 521.444 363.423L519.637 363.441C518.871 363.449 518.277 362.775 518.381 362.014C518.432 361.645 518.491 361.274 518.553 360.905C518.687 360.166 519.429 359.704 520.147 359.906L520.746 360.076C521.692 360.345 522.733 359.922 523.162 359.03C523.715 357.883 523.084 356.557 521.912 356.23L521.378 356.077C520.643 355.872 520.258 355.052 520.578 354.355C520.729 354.011 520.892 353.669 521.06 353.335C521.391 352.66 522.232 352.427 522.865 352.824L523.402 353.166C524.224 353.682 525.321 353.575 525.988 352.855C526.864 351.908 526.635 350.443 525.596 349.79L525.134 349.494C524.483 349.087 524.348 348.2 524.851 347.616C525.093 347.329 525.343 347.044 525.599 346.771C526.108 346.22 526.979 346.23 527.471 346.788L527.922 347.301C528.652 348.13 529.927 348.205 530.759 347.473C531.589 346.742 531.676 345.468 530.946 344.639L530.582 344.225C530.078 343.653 530.198 342.758 530.837 342.34C531.154 342.13 531.474 341.931 531.796 341.738C532.436 341.348 533.269 341.609 533.584 342.281L533.848 342.853C534.262 343.744 535.261 344.25 536.212 343.99C537.441 343.647 538.03 342.297 537.52 341.197L537.289 340.698C536.964 339.997 537.332 339.173 538.063 338.951C538.428 338.842 538.788 338.744 539.157 338.648C539.88 338.46 540.605 338.938 540.716 339.674L540.806 340.298C540.953 341.272 541.764 342.04 542.753 342.056C544.026 342.078 544.968 340.945 544.789 339.74L544.712 339.199C544.597 338.441 545.181 337.755 545.946 337.747C546.32 337.744 546.696 337.748 547.074 337.76C547.821 337.783 548.379 338.445 548.279 339.185L548.195 339.803C548.06 340.78 548.618 341.746 549.564 342.042C550.777 342.418 551.999 341.598 552.167 340.39L552.243 339.845C552.346 339.085 553.1 338.59 553.834 338.797C554.198 338.9 554.557 339.009 554.917 339.125C555.623 339.356 555.977 340.157 555.668 340.833L555.387 341.458C554.937 342.467 555.389 343.66 556.397 344.111C557.078 344.885 558.336 344.694 558.758 343.749L559.281 342.584C559.598 341.886 560.458 341.622 561.106 342.031C561.425 342.23 561.736 342.434 562.048 342.649C562.661 343.071 562.773 343.931 562.289 344.504L561.841 345.024C561.046 345.953 561.248 347.406 562.339 348.057C563.189 348.562 564.287 348.334 564.928 347.581L565.251 347.205C565.748 346.627 566.649 346.61 567.148 347.177C567.151 347.181 567.155 347.185 567.159 347.19C567.408 347.472 567.649 347.755 567.886 348.049ZM543.697 354.93L546.517 363.559L550.62 355.48C548.431 354.577 546 354.381 543.697 354.93ZM557.267 363.26L548.64 366.053L556.729 370.185C557.632 367.993 557.82 365.562 557.267 363.26ZM548.094 364.37L556.714 361.574C556.249 360.463 555.607 359.41 554.766 358.454C554.001 357.585 553.137 356.858 552.201 356.292L548.094 364.37ZM559.165 354.375C558.513 353.634 557.379 353.558 556.637 354.212C555.893 354.867 555.824 356.001 556.476 356.741C557.131 357.486 558.266 357.563 559.01 356.908C559.753 356.255 559.82 355.119 559.165 354.375ZM561.408 368.514C562.399 368.583 563.253 367.831 563.309 366.84C563.372 365.85 562.622 364.998 561.634 364.937C560.649 364.872 559.794 365.624 559.733 366.611C559.669 367.596 560.42 368.448 561.408 368.514ZM557.435 378.562C558.18 377.907 558.25 376.778 557.595 376.034C556.941 375.29 555.812 375.216 555.067 375.872C554.327 376.524 554.253 377.656 554.908 378.399C555.563 379.144 556.694 379.214 557.435 378.562ZM553.771 374.325C554.641 373.56 555.359 372.7 555.924 371.761L547.838 367.633L550.651 376.267C551.766 375.808 552.821 375.161 553.771 374.325ZM535.407 368.484L544.021 365.684L535.941 361.562C535.037 363.748 534.85 366.176 535.407 368.484ZM535.786 376.941C536.528 376.288 536.593 375.153 535.94 374.412C535.287 373.669 534.153 373.59 533.411 374.243C532.668 374.896 532.602 376.033 533.255 376.775C533.908 377.517 535.043 377.595 535.786 376.941ZM537.909 373.29C538.669 374.154 539.539 374.877 540.468 375.449L544.572 367.371L535.954 370.164C536.417 371.279 537.069 372.337 537.909 373.29ZM548.973 376.811L546.16 368.17L542.05 376.259C544.244 377.169 546.668 377.361 548.973 376.811ZM544.987 382.68C545.975 382.74 546.824 381.993 546.888 381.007C546.949 380.016 546.2 379.166 545.212 379.103C544.222 379.038 543.374 379.784 543.311 380.776C543.249 381.763 543.998 382.613 544.987 382.68ZM531.011 362.637C530.02 362.574 529.171 363.322 529.107 364.313C529.045 365.304 529.793 366.154 530.785 366.221C531.775 366.281 532.625 365.534 532.689 364.545C532.745 363.555 531.997 362.706 531.011 362.637ZM534.979 352.589C534.237 353.242 534.169 354.373 534.825 355.118C535.479 355.861 536.608 355.936 537.35 355.283C538.094 354.629 538.167 353.494 537.513 352.752C536.857 352.006 535.722 351.935 534.979 352.589ZM538.898 357.426C538.04 358.18 537.311 359.041 536.744 359.98L544.829 364.11L542.019 355.473C540.9 355.934 539.854 356.584 538.898 357.426ZM547.43 348.472C546.444 348.408 545.59 349.159 545.53 350.144C545.47 351.137 546.221 351.989 547.206 352.049C548.195 352.118 549.049 351.367 549.106 350.377C549.173 349.39 548.423 348.538 547.43 348.472Z" fill="white"/>
<path d="M492.372 320.271C492.053 317 494.463 314.078 497.742 313.759C501.022 313.439 503.95 315.841 504.268 319.112C504.587 322.384 502.178 325.306 498.898 325.626C495.619 325.945 492.691 323.544 492.372 320.271ZM500.956 319.435C500.815 317.986 499.517 316.921 498.064 317.063C496.61 317.204 495.544 318.5 495.685 319.949C495.826 321.399 497.123 322.463 498.576 322.321C500.029 322.18 501.097 320.885 500.956 319.435Z" fill="white"/>
<path d="M501.154 337.59L500.286 341.332L497.488 341.41L496.416 337.723C495.643 337.644 494.869 337.516 494.096 337.335L491.864 340.519L489.244 339.539L489.662 335.678C488.889 335.269 488.157 334.812 487.464 334.311L484.199 336.344L482.168 334.426L484.023 331.061C483.528 330.452 483.073 329.815 482.661 329.152L478.866 329.81L477.707 327.269L480.7 324.847C480.446 324.027 480.25 323.187 480.115 322.334L476.364 321.468L476.288 318.678L479.984 317.608C480.064 316.837 480.193 316.063 480.374 315.293L477.184 313.068L478.166 310.454L482.039 310.869C482.448 310.099 482.907 309.366 483.409 308.676L481.371 305.42L483.297 303.392L486.669 305.244C487.28 304.748 487.918 304.295 488.583 303.883L487.926 300.097L490.474 298.942L492.901 301.925C493.723 301.673 494.565 301.477 495.421 301.341L496.289 297.6L499.086 297.522L500.158 301.208C500.931 301.287 501.706 301.416 502.478 301.596L504.71 298.413L507.329 299.391L506.912 303.254C507.684 303.662 508.418 304.118 509.11 304.62L512.375 302.587L514.407 304.505L512.55 307.871C513.046 308.478 513.5 309.116 513.913 309.779L517.709 309.121L518.866 311.662L515.873 314.083C516.126 314.904 516.322 315.744 516.458 316.597L520.209 317.462L520.285 320.252L516.589 321.323C516.509 322.095 516.38 322.867 516.2 323.637L519.389 325.862L518.406 328.477L514.535 328.062C514.126 328.833 513.667 329.565 513.164 330.256L515.202 333.51L513.278 335.539L509.904 333.689C509.295 334.183 508.656 334.637 507.99 335.047L508.648 338.835L506.1 339.991L503.674 337.007C502.851 337.258 502.01 337.454 501.154 337.59ZM512.37 318.094C511.614 310.336 504.696 304.661 496.918 305.419C489.141 306.176 483.448 313.079 484.204 320.838C484.96 328.596 491.878 334.272 499.656 333.514C507.434 332.755 513.126 325.852 512.37 318.094Z" fill="white"/>
<path d="M354.047 405.765L351.465 416.901L343.139 417.134L339.948 406.159C337.647 405.926 335.342 405.542 333.045 405.005L326.399 414.483L318.602 411.567L319.843 400.073C317.545 398.858 315.364 397.495 313.304 396.005L303.585 402.057L297.539 396.347L303.064 386.331C301.588 384.521 300.235 382.623 299.009 380.65L287.711 382.609L284.264 375.047L293.171 367.837C292.419 365.395 291.836 362.894 291.432 360.357L280.268 357.781L280.042 349.476L291.043 346.29C291.28 343.994 291.665 341.694 292.204 339.4L282.71 332.778L285.633 324.997L297.158 326.231C298.376 323.938 299.742 321.759 301.238 319.704L295.173 310.014L300.901 303.976L310.939 309.487C312.757 308.014 314.659 306.663 316.636 305.437L314.678 294.167L322.26 290.726L329.484 299.607C331.931 298.855 334.44 298.272 336.983 297.869L339.57 286.732L347.895 286.501L351.083 297.473C353.387 297.709 355.691 298.091 357.99 298.628L364.633 289.151L372.431 292.066L371.189 303.563C373.487 304.777 375.67 306.137 377.729 307.629L387.448 301.577L393.495 307.286L387.968 317.304C389.444 319.113 390.796 321.011 392.025 322.983L403.322 321.024L406.767 328.587L397.86 335.796C398.613 338.239 399.196 340.739 399.601 343.277L410.765 345.851L410.991 354.157L399.99 357.343C399.753 359.64 399.369 361.939 398.832 364.231L408.326 370.855L405.399 378.638L393.877 377.402C392.659 379.696 391.292 381.873 389.794 383.931L395.859 393.621L390.133 399.657L380.093 394.149C378.279 395.622 376.375 396.973 374.397 398.194L376.355 409.466L368.773 412.906L361.55 404.025C359.099 404.778 356.595 405.36 354.047 405.765ZM387.433 347.733C385.183 324.641 364.592 307.749 341.443 310.005C318.292 312.26 301.349 332.809 303.599 355.901C305.848 378.993 326.44 395.887 349.59 393.631C372.74 391.375 389.683 370.824 387.433 347.733Z" fill="white"/>
<path d="M464.203 437.334L464.256 436.17C464.34 434.323 463.126 432.611 461.316 432.22C458.979 431.713 456.834 433.441 456.728 435.721L456.681 436.76C456.615 438.192 455.293 439.237 453.882 438.97C453.185 438.84 452.494 438.695 451.807 438.536C450.442 438.22 449.651 436.794 450.108 435.471L450.492 434.356C451.094 432.608 450.413 430.624 448.787 429.737C446.69 428.596 444.141 429.652 443.398 431.81L443.061 432.787C442.594 434.143 441.027 434.777 439.746 434.121C439.118 433.799 438.497 433.463 437.886 433.118C436.666 432.43 436.312 430.84 437.123 429.7L437.863 428.659C439.064 426.972 438.661 424.613 436.97 423.416C436.778 421.443 434.233 420.768 433.083 422.386L431.118 425.148C430.288 426.317 428.607 426.485 427.566 425.499C427.054 425.014 426.552 424.521 426.061 424.017C425.084 423.015 425.192 421.386 426.292 420.52L427.293 419.732C428.92 418.451 429.201 416.073 427.918 414.449C426.633 412.827 424.25 412.548 422.622 413.829L421.805 414.474C420.678 415.361 419.019 415.051 418.299 413.812C417.945 413.205 417.602 412.589 417.272 411.964C416.618 410.729 417.18 409.196 418.481 408.675L419.675 408.195C421.599 407.423 422.539 405.22 421.766 403.303L421.764 403.303C420.99 401.384 418.784 400.447 416.861 401.219L415.9 401.605C414.568 402.142 413.062 401.377 412.722 399.984C412.554 399.303 412.402 398.617 412.261 397.924C411.985 396.553 412.956 395.244 414.351 395.108L415.624 394.984C417.688 394.783 419.212 392.934 419.012 390.876C418.811 388.817 416.958 387.298 414.894 387.499L413.865 387.599C412.435 387.738 411.209 386.583 411.274 385.15C411.305 384.446 411.35 383.743 411.41 383.044C411.527 381.651 412.832 380.665 414.208 380.927L415.364 381.146C417.182 381.492 419.055 380.536 419.702 378.804C420.539 376.57 419.13 374.206 416.883 373.778L415.859 373.582C414.446 373.314 413.597 371.859 414.065 370.501C414.296 369.835 414.54 369.174 414.795 368.517C415.306 367.217 416.834 366.639 418.078 367.276L419.224 367.862C421.068 368.807 423.353 368.073 424.298 366.232C425.245 364.391 424.511 362.114 422.667 361.169L421.751 360.701C420.47 360.047 420.067 358.411 420.899 357.241C421.308 356.668 421.727 356.103 422.157 355.546C423.014 354.44 424.643 354.314 425.656 355.277L426.582 356.153C428.085 357.576 430.483 357.513 431.911 356.015C433.34 354.514 433.278 352.122 431.775 350.697L431.026 349.987C429.984 348.999 430.057 347.319 431.184 346.429C431.736 345.993 432.299 345.567 432.869 345.152C434.003 344.33 435.601 344.667 436.308 345.876L436.95 346.981C437.989 348.771 440.307 349.385 442.101 348.347C443.894 347.31 444.512 344.996 443.472 343.207L442.951 342.308C442.231 341.069 442.774 339.475 444.11 338.938C444.763 338.676 445.422 338.426 446.089 338.19C447.409 337.721 448.849 338.493 449.179 339.851L449.485 341.096C449.978 343.105 452.027 344.346 454.042 343.855C456.057 343.362 457.301 341.317 456.81 339.308L456.565 338.306C456.225 336.921 457.187 335.541 458.61 335.402C458.619 335.401 458.629 335.4 458.638 335.399C459.345 335.33 460.05 335.276 460.753 335.237C462.145 335.159 463.296 336.309 463.233 337.699L463.174 338.971C463.08 341.037 464.696 342.805 466.767 342.899C468.838 342.993 470.61 341.378 470.705 339.313L470.754 338.275C470.819 336.842 472.142 335.797 473.553 336.063C474.249 336.194 474.941 336.339 475.626 336.497C476.992 336.812 477.782 338.239 477.327 339.562L476.907 340.779C476.232 342.735 477.283 344.885 479.244 345.557C481.205 346.229 483.361 345.179 484.036 343.222L484.372 342.246C484.841 340.889 486.408 340.256 487.687 340.912C488.315 341.234 488.936 341.568 489.548 341.915C490.766 342.602 491.12 344.192 490.309 345.332L489.569 346.373C488.371 348.06 488.773 350.418 490.463 351.616C490.655 353.589 493.202 354.263 494.351 352.647L496.315 349.885C497.147 348.716 498.827 348.547 499.868 349.534C500.379 350.016 500.88 350.512 501.373 351.015C502.348 352.016 502.241 353.645 501.141 354.512L500.225 355.234C498.769 356.38 498.268 358.415 499.155 360.039C500.3 362.132 503.015 362.617 504.809 361.202L505.627 360.559C506.754 359.67 508.412 359.98 509.135 361.219C509.489 361.827 509.83 362.443 510.161 363.068C510.815 364.303 510.252 365.837 508.951 366.358L507.843 366.803C506.146 367.485 505.102 369.265 505.465 371.053C505.946 373.419 508.434 374.672 510.572 373.813L511.533 373.428C512.866 372.891 514.371 373.657 514.712 375.05C514.877 375.732 515.03 376.418 515.17 377.11C515.447 378.479 514.475 379.789 513.08 379.925L511.808 380.049C509.744 380.25 508.221 382.1 508.422 384.158C508.622 386.217 510.474 387.736 512.538 387.535L513.566 387.435C514.996 387.296 516.222 388.453 516.159 389.885C516.127 390.589 516.082 391.291 516.021 391.99C515.904 393.384 514.6 394.37 513.222 394.108L512.069 393.888C510.249 393.543 508.377 394.498 507.729 396.23C506.893 398.465 508.302 400.83 510.549 401.256L511.573 401.452C512.986 401.72 513.836 403.176 513.366 404.533C513.136 405.2 512.892 405.861 512.637 406.517C512.125 407.819 510.598 408.395 509.353 407.757L508.306 407.22C506.656 406.376 504.592 406.769 503.48 408.249C502.046 410.159 502.731 412.823 504.765 413.864L505.681 414.333C506.96 414.987 507.366 416.624 506.533 417.793C506.125 418.366 505.705 418.932 505.274 419.488C504.418 420.595 502.79 420.721 501.773 419.757L500.928 418.957C499.584 417.685 497.492 417.48 496.009 418.588C494.094 420.018 493.999 422.767 495.656 424.337L496.406 425.048C497.447 426.035 497.374 427.717 496.247 428.604C495.694 429.041 495.133 429.467 494.563 429.881C493.427 430.704 491.829 430.367 491.124 429.158L490.481 428.053C489.443 426.263 487.124 425.649 485.329 426.687C483.4 426.875 482.311 428.991 483.284 430.665L484.481 432.725C485.202 433.964 484.656 435.559 483.322 436.095C482.669 436.357 482.008 436.607 481.342 436.845C480.022 437.312 478.585 436.539 478.251 435.182L477.946 433.937C477.402 431.72 474.964 430.44 472.769 431.387C471.069 432.121 470.208 434.036 470.648 435.83L470.868 436.726C471.207 438.113 470.244 439.492 468.821 439.631C468.813 439.632 468.803 439.633 468.793 439.634C468.087 439.703 467.382 439.758 466.68 439.796C465.288 439.876 464.138 438.726 464.203 437.334ZM428.31 393.418C429.671 401.615 433.766 408.77 439.56 414.03L447.322 404.615C443.92 401.363 441.464 397.096 440.481 392.231L428.31 393.417L428.31 393.418ZM427.837 388.562L440.008 387.376C440.033 382.413 441.62 377.753 444.33 373.906L434.897 366.166C430.227 372.445 427.59 380.256 427.837 388.562ZM438.071 362.452L447.537 370.218C450.876 367.095 455.136 364.91 459.936 364.128L458.755 352.009C450.613 353.151 443.449 356.959 438.071 362.452ZM485.182 358.699C479.116 354.212 471.622 351.61 463.633 351.654L464.819 363.835C469.457 364.033 473.797 365.577 477.419 368.113L485.182 358.699ZM499.226 381.607C497.94 373.852 494.206 367.032 488.903 361.866L481.114 371.312C484.049 374.436 486.163 378.366 487.055 382.793L499.226 381.607ZM483.995 385.542C482.909 374.397 472.974 366.249 461.802 367.337C450.634 368.425 442.458 378.338 443.544 389.483C444.63 400.625 454.566 408.777 465.734 407.689C476.905 406.6 485.08 396.684 483.995 385.542ZM499.7 386.462L487.529 387.648C487.508 392.165 486.192 396.428 483.915 400.059L493.381 407.826C497.587 401.732 499.934 394.319 499.7 386.462ZM490.341 411.65L480.907 403.911C477.844 407.099 473.882 409.452 469.371 410.539L470.558 422.723C478.405 421.222 485.255 417.223 490.341 411.65ZM464.522 411.196C459.662 411.355 455.06 410.034 451.18 407.615L443.392 417.06C449.728 421.413 457.494 423.767 465.703 423.315L464.522 411.196Z" fill="white"/>
<path d="M440.574 335.705C439.505 335.764 438.616 334.876 438.668 333.798L438.71 332.899C438.774 331.469 437.842 330.152 436.449 329.846C434.657 329.458 433.015 330.79 432.934 332.549L432.899 333.356C432.847 334.455 431.836 335.268 430.752 335.062C430.221 334.957 429.683 334.842 429.156 334.727C428.112 334.478 427.506 333.373 427.853 332.354L428.151 331.495C428.61 330.143 428.084 328.608 426.839 327.927C425.23 327.041 423.275 327.858 422.71 329.519L422.447 330.273C422.088 331.327 420.89 331.812 419.91 331.305C419.428 331.056 418.948 330.798 418.48 330.527C417.542 330.004 417.271 328.773 417.894 327.891L418.457 327.086C419.382 325.785 419.071 323.961 417.77 323.034C417.622 321.517 415.672 320.994 414.792 322.239L413.285 324.369C412.648 325.272 411.354 325.403 410.559 324.644C410.165 324.27 409.782 323.886 409.402 323.494C408.652 322.718 408.738 321.463 409.58 320.79L410.349 320.184C411.591 319.195 411.807 317.356 410.824 316.107C409.829 314.846 408.005 314.635 406.761 315.626L406.134 316.12C405.267 316.806 403.995 316.566 403.443 315.605C403.168 315.138 402.915 314.663 402.653 314.188C402.15 313.227 402.583 312.041 403.577 311.635L404.491 311.272C405.967 310.673 406.693 308.975 406.096 307.489C405.496 306.008 403.81 305.287 402.332 305.88L401.599 306.173C400.572 306.587 399.42 305.995 399.153 304.918C399.031 304.395 398.914 303.867 398.807 303.327C398.597 302.276 399.333 301.26 400.407 301.155L401.374 301.061C402.965 300.906 404.132 299.485 403.976 297.888C403.82 296.293 402.401 295.12 400.811 295.275L400.029 295.351C398.937 295.457 397.993 294.565 398.037 293.464C398.06 292.918 398.1 292.376 398.146 291.835C398.23 290.763 399.233 289.998 400.295 290.203L401.177 290.373C402.568 290.641 404.011 289.897 404.502 288.57C405.147 286.84 404.063 285.012 402.339 284.677L401.553 284.527C400.465 284.321 399.82 283.194 400.174 282.151C400.352 281.633 400.539 281.122 400.737 280.617C401.126 279.613 402.292 279.167 403.252 279.658L404.13 280.108C405.543 280.839 407.299 280.272 408.022 278.856C408.748 277.432 408.183 275.668 406.769 274.947L406.069 274.577C405.08 274.073 404.775 272.807 405.405 271.905C405.723 271.465 406.041 271.028 406.375 270.595C407.026 269.744 408.277 269.645 409.064 270.394L409.769 271.071C410.925 272.169 412.76 272.124 413.859 270.966C414.948 269.806 414.905 267.956 413.749 266.86L413.174 266.311C412.372 265.547 412.43 264.25 413.294 263.558C413.717 263.219 414.151 262.894 414.588 262.572C415.457 261.941 416.682 262.2 417.223 263.131L417.714 263.995C418.519 265.372 420.292 265.844 421.67 265.045C423.048 264.241 423.516 262.458 422.717 261.077L422.319 260.387C421.765 259.424 422.183 258.198 423.208 257.779C423.71 257.58 424.211 257.387 424.725 257.201C425.737 256.843 426.844 257.439 427.1 258.485L427.331 259.448C427.708 260.999 429.284 261.962 430.827 261.588C432.374 261.202 433.332 259.622 432.951 258.075L432.76 257.297C432.503 256.227 433.233 255.162 434.33 255.056C434.335 255.055 434.345 255.054 434.349 255.054C434.888 255.001 435.433 254.955 435.969 254.927C437.043 254.872 437.928 255.76 437.879 256.835L437.83 257.812C437.763 259.413 439.006 260.774 440.591 260.849C442.186 260.922 443.534 259.681 443.608 258.08L443.65 257.281C443.69 256.176 444.715 255.366 445.792 255.572C446.33 255.678 446.855 255.782 447.381 255.912C448.432 256.154 449.041 257.259 448.691 258.275L448.37 259.221C447.85 260.727 448.663 262.391 450.163 262.913C451.665 263.432 453.322 262.624 453.837 261.11L454.097 260.359C454.454 259.306 455.655 258.82 456.639 259.328C457.124 259.579 457.593 259.834 458.07 260.101C459.003 260.635 459.274 261.863 458.656 262.743L458.084 263.55C457.169 264.851 457.477 266.675 458.768 267.595C458.917 269.121 460.87 269.646 461.759 268.394L463.263 266.264C463.899 265.36 465.189 265.234 465.992 265.998C466.38 266.37 466.765 266.751 467.144 267.134C467.895 267.915 467.811 269.173 466.968 269.843L466.264 270.4C465.151 271.28 464.768 272.855 465.45 274.109C466.326 275.724 468.41 276.104 469.78 275.009L470.41 274.513C471.27 273.826 472.554 274.067 473.101 275.029C473.375 275.497 473.638 275.975 473.887 276.454C474.398 277.411 473.961 278.591 472.962 278.997L472.109 279.337C470.812 279.864 470.012 281.237 470.292 282.625C470.662 284.449 472.568 285.416 474.209 284.752L474.945 284.46C475.971 284.043 477.122 284.632 477.381 285.713C477.513 286.239 477.635 286.772 477.739 287.302C477.954 288.362 477.208 289.374 476.139 289.478L475.16 289.573C473.574 289.728 472.41 291.156 472.565 292.747C472.72 294.336 474.137 295.511 475.723 295.357L476.514 295.28C477.61 295.173 478.555 296.068 478.505 297.168C478.483 297.717 478.447 298.259 478.4 298.799C478.318 299.876 477.309 300.631 476.258 300.433L475.365 300.26C473.973 299.992 472.539 300.734 472.041 302.066C471.406 303.793 472.488 305.622 474.205 305.952L474.985 306.103C476.078 306.314 476.732 307.44 476.375 308.482C476.195 309.001 476.006 309.506 475.807 310.019C475.418 311.023 474.247 311.469 473.292 310.977L472.485 310.556C471.222 309.906 469.639 310.207 468.785 311.351C467.687 312.823 468.217 314.881 469.779 315.687L470.476 316.053C471.46 316.559 471.771 317.82 471.135 318.722C470.823 319.163 470.501 319.598 470.167 320.031C469.511 320.885 468.265 320.981 467.484 320.239L466.832 319.619C465.802 318.637 464.201 318.476 463.058 319.333C461.594 320.434 461.522 322.557 462.794 323.772L463.368 324.32C464.171 325.083 464.113 326.383 463.252 327.066C462.825 327.406 462.395 327.734 461.955 328.057C461.089 328.688 459.854 328.426 459.322 327.495L458.829 326.639C458.028 325.261 456.25 324.784 454.873 325.582C453.392 325.727 452.555 327.36 453.304 328.651L454.226 330.245C454.776 331.206 454.359 332.435 453.334 332.847C452.832 333.053 452.331 333.244 451.817 333.428C450.806 333.789 449.705 333.195 449.443 332.145L449.211 331.183C448.796 329.469 446.925 328.479 445.242 329.207C443.934 329.776 443.275 331.253 443.615 332.638L443.783 333.333C444.04 334.402 443.301 335.47 442.216 335.576C442.208 335.577 442.201 335.578 442.192 335.578C441.651 335.633 441.116 335.675 440.574 335.705ZM452.925 301.596L440.451 297.617L446.442 309.233C449.346 307.433 451.626 304.755 452.925 301.596ZM431.731 310.448L435.741 297.998L424.082 303.977C425.886 306.883 428.571 309.153 431.731 310.448ZM438.171 298.778L434.171 311.223C435.863 311.617 437.636 311.754 439.465 311.576C441.128 311.414 442.707 311.016 444.159 310.397L438.171 298.778ZM440.528 320.164C441.943 320.026 442.989 318.763 442.851 317.343C442.712 315.92 441.442 314.883 440.027 315.021C438.603 315.16 437.555 316.423 437.694 317.845C437.832 319.266 439.104 320.303 440.528 320.164ZM422.091 310.862C421.175 311.963 421.334 313.597 422.446 314.498C423.551 315.407 425.181 315.248 426.085 314.143C426.993 313.046 426.834 311.412 425.731 310.507C424.632 309.602 423.002 309.761 422.091 310.862ZM413.685 297.737C413.824 299.161 415.085 300.196 416.508 300.057C417.931 299.918 418.969 298.66 418.83 297.235C418.692 295.819 417.43 294.778 416.007 294.917C414.584 295.056 413.547 296.32 413.685 297.737ZM421.734 297.024C421.896 298.687 422.296 300.252 422.918 301.706L434.568 295.727L422.093 291.736C421.69 293.426 421.557 295.207 421.734 297.024ZM444.059 280.463L440.068 292.904L451.708 286.927C449.913 284.025 447.229 281.757 444.059 280.463ZM433.843 273.773C433.982 275.192 435.255 276.225 436.673 276.087C438.093 275.948 439.142 274.689 439.004 273.27C438.866 271.849 437.592 270.813 436.173 270.951C434.754 271.089 433.705 272.352 433.843 273.773ZM436.324 279.336C434.672 279.497 433.093 279.905 431.641 280.51L437.629 292.126L441.631 279.686C439.936 279.286 438.149 279.158 436.324 279.336ZM422.872 289.313L435.355 293.31L429.358 281.678C426.442 283.477 424.172 286.152 422.872 289.313ZM419.366 279.698C418.463 280.804 418.622 282.426 419.72 283.333C420.829 284.24 422.456 284.081 423.363 282.978C424.274 281.876 424.116 280.253 423.009 279.343C421.906 278.438 420.279 278.597 419.366 279.698ZM454.608 280.25C455.518 279.144 455.36 277.52 454.253 276.608C453.145 275.701 451.522 275.859 450.606 276.964C449.7 278.072 449.858 279.696 450.961 280.606C452.072 281.506 453.696 281.347 454.608 280.25ZM463.019 293.37C462.881 291.95 461.615 290.917 460.19 291.056C458.769 291.195 457.728 292.453 457.866 293.872C458.005 295.294 459.27 296.337 460.691 296.198C462.117 296.059 463.158 294.791 463.019 293.37ZM454.054 293.875C453.894 292.235 453.503 290.656 452.882 289.201L441.23 295.177L453.706 299.174C454.11 297.477 454.232 295.705 454.054 293.875ZM457.334 311.412C458.241 310.312 458.082 308.68 456.98 307.778C455.868 306.871 454.238 307.03 453.337 308.133C452.421 309.231 452.58 310.864 453.691 311.767C454.788 312.677 456.419 312.518 457.334 311.412Z" fill="white"/>
<path d="M497.156 285.554L496.37 288.945L493.834 289.017L492.863 285.674C492.162 285.604 491.46 285.486 490.76 285.323L488.737 288.209L486.362 287.321L486.74 283.821C486.039 283.451 485.376 283.036 484.748 282.582L481.788 284.425L479.947 282.686L481.629 279.636C481.179 279.085 480.767 278.507 480.394 277.906L476.953 278.502L475.904 276.2L478.616 274.004C478.387 273.26 478.209 272.498 478.087 271.727L474.687 270.942L474.618 268.412L477.969 267.443C478.041 266.743 478.158 266.042 478.322 265.344L475.43 263.327L476.321 260.958L479.83 261.333C480.202 260.634 480.618 259.971 481.073 259.345L479.226 256.394L480.97 254.555L484.028 256.234C484.581 255.785 485.161 255.374 485.763 255.001L485.166 251.568L487.476 250.52L489.675 253.224C490.421 252.995 491.185 252.818 491.96 252.695L492.747 249.304L495.283 249.233L496.254 252.575C496.955 252.648 497.657 252.763 498.356 252.927L500.379 250.042L502.754 250.928L502.376 254.43C503.076 254.8 503.741 255.214 504.369 255.668L507.328 253.825L509.17 255.563L507.487 258.614C507.936 259.165 508.349 259.743 508.722 260.343L512.163 259.746L513.213 262.05L510.5 264.246C510.729 264.989 510.907 265.751 511.03 266.523L514.43 267.307L514.5 269.837L511.149 270.807C511.077 271.507 510.96 272.207 510.796 272.904L513.688 274.922L512.797 277.292L509.287 276.916C508.916 277.615 508.5 278.278 508.044 278.903L509.891 281.855L508.147 283.694L505.089 282.016C504.537 282.464 503.956 282.875 503.354 283.247L503.951 286.68L501.642 287.727L499.442 285.023C498.695 285.253 497.932 285.431 497.156 285.554ZM498.359 273.261C497.602 273.97 496.334 274.495 495.635 274.638L496.332 281.797C499.855 281.363 502.045 279.967 504.019 277.869L498.359 273.261ZM496.975 269.097C496.847 267.784 495.671 266.819 494.353 266.947C493.037 267.076 492.069 268.249 492.197 269.563C492.325 270.877 493.501 271.841 494.818 271.713C496.135 271.585 497.103 270.412 496.975 269.097ZM494.918 281.918L494.218 274.731C493.496 274.64 492.132 274.284 491.286 273.649L486.64 279.256C488.942 281.03 492.075 282.009 494.918 281.918ZM485.796 278.169L490.436 272.358C489.878 271.714 489.507 271.302 489.252 269.901L481.853 270.622C482.403 274.133 483.79 276.313 485.796 278.169ZM481.754 269.918L489.153 269.197C489.103 267.776 489.45 267.225 489.989 266.368L484.127 261.511C482.418 263.882 481.536 267.087 481.754 269.918ZM484.812 260.765L490.639 265.567C491.327 264.864 492.49 264.319 493.182 264.102L492.441 256.501C489.634 256.964 486.731 258.551 484.812 260.765ZM493.852 256.349L494.59 263.919C495.303 263.919 496.5 264.152 497.337 264.628L502.211 258.76C499.86 257.056 497.393 256.095 493.852 256.349ZM502.991 259.389L498.186 265.158C499.055 265.937 499.652 266.749 499.891 268.152L507.274 267.433C506.938 264.613 505.309 261.41 502.991 259.389ZM507.312 268.141L499.93 268.861C499.929 270.287 499.583 271.235 499.01 272.063L504.611 276.506C506.39 274.235 507.44 271.694 507.312 268.141Z" fill="white"/>
</g>
</svg>
