<svg width="46" height="56" viewBox="0 0 46 56" fill="none" xmlns="http://www.w3.org/2000/svg">
<path d="M15.309 21C14.9635 28.7143 14.618 37.0714 16 48" stroke="#DFDFDF" stroke-width="2.5" stroke-linecap="round"/>
<path d="M30.691 21C31.0365 28.7143 31.382 37.0714 30 48" stroke="#DFDFDF" stroke-width="2.5" stroke-linecap="round"/>
<path d="M23.0057 3.63084L31.2177 2.16187C31.8154 2.05375 32.4214 1.99972 33.0285 2.00043V2.00043C34.8254 1.98374 36.5951 2.44827 38.1593 3.34727C39.7236 4.24628 41.0273 5.54807 41.9394 7.1217C43.3481 9.713 44.0577 12.6367 43.9963 15.5966V15.5966C43.9962 18.7337 43.1899 21.8164 41.6574 24.5396L39.3106 28.7085C38.1936 30.688 37.5159 32.8918 37.3251 35.1655C36.8739 40.4253 35.2978 45.5213 32.7068 50.0975L31.1422 52.8579C30.9469 53.205 30.6649 53.4934 30.3245 53.694C29.9842 53.8945 29.5978 54.0001 29.2044 54C28.6104 54 28.0408 53.7602 27.6207 53.3333C27.2007 52.9065 26.9648 52.3276 26.9648 51.7239V47.3654C26.965 45.1445 26.575 42.9414 25.8132 40.8599L25.1937 39.1649C25.0222 38.6974 24.7144 38.2942 24.3113 38.0093C23.9082 37.7244 23.4291 37.5714 22.9382 37.5708V37.5708C22.437 37.5709 21.9484 37.73 21.5405 38.0259C21.1326 38.3218 20.8257 38.7397 20.6628 39.2214L20.0433 41.0576C19.3835 43.0055 19.0467 45.0511 19.0466 47.1111V51.7077C19.0466 52.3114 18.8107 52.8903 18.3906 53.3172C17.9706 53.7441 17.401 53.9839 16.807 53.9839V53.9839C16.4136 53.984 16.0272 53.8784 15.6868 53.6778C15.3465 53.4772 15.0644 53.1888 14.8691 52.8418L13.3046 50.0814C10.7136 45.5052 9.13748 40.4091 8.68631 35.1494C8.49548 32.8757 7.81783 30.6719 6.70082 28.6923L4.35397 24.5235C2.81996 21.8062 2.00969 18.7293 2.00314 15.5966C1.94641 12.6363 2.65865 9.71307 4.06806 7.1217C4.98291 5.5521 6.28778 4.25455 7.85179 3.35922C9.41581 2.46389 11.184 2.00226 12.979 2.02061C13.5861 2.01989 14.192 2.07392 14.7897 2.18204L22.9898 3.65103" stroke="#313744" stroke-width="2.5" stroke-linecap="round" stroke-linejoin="round"/>
<path d="M30.8531 31C32.5403 28.841 34.0527 26.5756 35.3787 24.2212C36.5755 22.0931 37.9492 20.0485 38.6065 17.6966C39.3439 15.064 39.1712 11.9079 36.9926 9.83672C33.2508 6.27853 27.7223 8.65319 23.7698 10.5764H23.2304C19.261 8.65319 13.7494 6.27853 10.0033 9.83672C7.82901 11.9079 7.65624 15.064 8.39365 17.6966C9.16477 20.4544 10.9219 22.8139 12.2408 25.363C13.1047 27.0587 14.1033 28.6936 15.1441 30.2944L15.2916 30.522C15.2916 30.522 17.3648 26.7969 18.1528 24.5588L18.2286 24.3426C19.733 20.132 26.4371 20.2116 27.8276 24.4526L27.8908 24.6499C28.5693 26.7476 30.8405 30.9924 30.8405 30.9924L30.8531 31Z" fill="#FB7E01"/>
</svg>
