<svg width="25" height="25" viewBox="0 0 25 25" fill="none" xmlns="http://www.w3.org/2000/svg">
<path d="M11.9926 0.00949539C11.659 0.0233064 11.4099 0.323084 11.4586 0.652908L11.4989 0.928345C11.562 1.36606 11.3122 1.79895 10.8891 1.93491C10.3442 2.10793 9.79422 1.74739 9.71584 1.2088L9.68041 0.961871C9.63126 0.625249 9.29272 0.405727 8.96215 0.501336C8.80052 0.549579 8.63689 0.601114 8.47681 0.652428C8.16019 0.760317 8.00543 1.11821 8.14403 1.42106L8.26249 1.67654C8.44582 2.07852 8.32891 2.56645 7.96291 2.81315C7.4902 3.13376 6.85851 2.94099 6.63289 2.44713L6.52838 2.223C6.38491 1.90963 5.9981 1.79646 5.70915 1.98177C5.56723 2.07277 5.42597 2.16641 5.28891 2.26378C5.01325 2.45281 4.96653 2.83943 5.18662 3.09228L5.38567 3.32277C5.71225 3.69536 5.67085 4.26553 5.29489 4.58964C5.29489 5.06069 4.70527 5.27998 4.39441 4.9234L3.86191 4.31331C3.63695 4.05476 3.2311 4.05343 3.00725 4.31067C2.89611 4.43742 2.78894 4.56702 2.68266 4.69882C2.47343 4.96 2.53808 5.34355 2.81972 5.52513L3.07678 5.68851C3.49259 5.9554 3.61503 6.51461 3.34779 6.9282C3.07678 7.34574 2.51704 7.46547 2.10079 7.19792L1.89089 7.06458C1.60106 6.87971 1.21337 6.99155 1.071 7.30383C0.999703 7.45558 0.935493 7.60931 0.868626 7.76325C0.741535 8.07377 0.911804 8.42553 1.23263 8.52071L1.52755 8.60492C2.00381 8.74484 2.28058 9.24528 2.1402 9.72028C1.99894 10.1937 1.497 10.4661 1.02007 10.3279L0.783607 10.2597C0.452373 10.1632 0.112504 10.3797 0.0620217 10.7189C0.0401018 10.8836 0.0197323 11.0494 0.00290489 11.2187C-0.0305284 11.5483 0.228746 11.8387 0.565515 11.8387L0.868626 11.8387C1.36725 11.8387 1.77243 12.2407 1.77243 12.7365C1.77243 13.2319 1.36725 13.6352 0.868626 13.6352L0.623747 13.6352C0.281221 13.6351 0.0150823 13.938 0.0620219 14.2751C0.0859344 14.4424 0.114495 14.6079 0.145271 14.7729C0.203946 15.1 0.5385 15.3051 0.861984 15.2104L1.13056 15.1316C1.55434 15.0075 2.02507 15.1931 2.2177 15.5867C2.47033 16.0994 2.18913 16.6939 1.66372 16.8485L1.42437 16.9185C1.0927 17.0143 0.926417 17.3801 1.0679 17.6904C1.13897 17.8443 1.21248 17.9959 1.28931 18.1454C1.44032 18.4426 1.81583 18.5448 2.09902 18.365L2.35829 18.2001C2.77477 17.9332 3.33716 18.0547 3.6044 18.4685C3.8732 18.8847 3.75098 19.4444 3.33362 19.7084L3.12748 19.8433C2.83588 20.0279 2.7792 20.4264 3.00238 20.6849C3.1142 20.8106 3.22623 20.9356 3.34292 21.0586C3.57097 21.3007 3.96243 21.2937 4.18406 21.04L4.38245 20.8106C4.70815 20.4382 5.27939 20.3972 5.65557 20.7203C6.02888 21.0444 6.07161 21.6146 5.74569 21.9863L5.58383 22.1725C5.35799 22.4314 5.41512 22.8286 5.70428 23.0154C5.84599 23.1071 5.99057 23.194 6.13604 23.2799C6.42498 23.4481 6.7974 23.3317 6.93733 23.0293L7.06354 22.7486C7.27211 22.3012 7.80815 22.103 8.26027 22.3071C8.71262 22.5131 8.91189 23.0475 8.70531 23.4962L8.6028 23.7203C8.45999 24.0332 8.62671 24.3977 8.95772 24.496C9.11958 24.542 9.28099 24.5863 9.44616 24.6282C9.77119 24.7078 10.0969 24.4914 10.1449 24.1622L10.1875 23.8591C10.2576 23.3708 10.7177 23.0274 11.2082 23.0962C11.7001 23.1684 12.0455 23.6256 11.974 24.1129L11.9384 24.3578C11.891 24.6947 12.1498 25.0002 12.4935 25.0002C12.4952 25.0002 12.4983 25.0002 12.4994 25.0002C12.6686 25.0002 12.8391 24.998 13.0065 24.9905C13.3417 24.9754 13.5897 24.6759 13.5416 24.3465L13.4969 24.0476C13.4278 23.5572 13.7726 23.1013 14.2626 23.0309C14.7554 22.9605 15.2117 23.302 15.283 23.7921L15.3202 24.0364C15.3663 24.3752 15.709 24.5934 16.0372 24.4978C16.2008 24.4491 16.3609 24.4013 16.5203 24.3456C16.8394 24.2397 16.995 23.8816 16.8555 23.5796L16.7273 23.2985C16.5201 22.8509 16.7225 22.3147 17.1721 22.1092C17.6229 21.9046 18.1619 22.1036 18.3675 22.5538L18.4712 22.7768C18.6138 23.09 19.0015 23.2033 19.2915 23.0178C19.4348 22.9262 19.5727 22.8336 19.7126 22.7371C19.9863 22.545 20.033 22.1593 19.8147 21.9071L19.6125 21.6759C19.2891 21.3031 19.3296 20.733 19.7027 20.4115C19.7027 19.9378 20.2934 19.7176 20.6071 20.0762L21.1385 20.6861C21.3635 20.9451 21.768 20.9451 21.9941 20.6861C22.1034 20.5602 22.2115 20.4315 22.3175 20.3021C22.527 20.0396 22.4628 19.6552 22.1807 19.4745L21.9454 19.3242C21.5732 19.0867 21.4067 18.6139 21.5805 18.2078C21.8036 17.6848 22.4391 17.5056 22.8979 17.8012L23.1082 17.935C23.3963 18.1205 23.7877 18.0078 23.9283 17.6955C23.9994 17.5436 24.0665 17.3885 24.1294 17.2337C24.2589 16.9243 24.0875 16.5743 23.7651 16.4795L23.4901 16.4006C23.0715 16.2773 22.7814 15.8789 22.8264 15.4438C22.8859 14.8716 23.4487 14.517 23.9781 14.6721L24.2155 14.7399C24.5467 14.8375 24.8864 14.6217 24.9342 14.2815C24.9592 14.116 24.9809 13.9482 24.9973 13.7822C25.0318 13.4497 24.7697 13.1609 24.4347 13.1609L24.1276 13.1609C23.6305 13.1609 23.226 12.7565 23.226 12.2624C23.226 11.7692 23.6305 11.3653 24.1276 11.3653L24.3756 11.3653C24.719 11.3653 24.9854 11.0616 24.9366 10.725C24.9132 10.5568 24.8857 10.3912 24.8547 10.2265C24.7965 9.89757 24.4606 9.69559 24.14 9.78813L23.8681 9.86817C23.4439 9.99229 22.9763 9.80697 22.7814 9.41224C22.5319 8.89995 22.8124 8.30522 23.3358 8.15216L23.5732 8.08243C23.9064 7.98463 24.0753 7.61884 23.933 7.30897C23.8615 7.15481 23.7875 7.00524 23.7102 6.85349C23.5588 6.55634 23.1817 6.45436 22.9003 6.63418L22.6623 6.7879C22.2899 7.02562 21.7893 6.98043 21.4895 6.65412C21.1038 6.23438 21.2063 5.5857 21.6668 5.29075L21.8723 5.15742C22.1626 4.97233 22.2208 4.57519 21.9961 4.31685C21.8858 4.19054 21.7726 4.06641 21.656 3.94317C21.4264 3.70018 21.0367 3.70807 20.8164 3.9596L20.6328 4.16991C20.3428 4.5028 19.8503 4.60037 19.4695 4.37098C18.9817 4.07602 18.8952 3.42537 19.2534 3.01375L19.415 2.82779C19.6411 2.56924 19.584 2.17122 19.2959 1.98678C19.1531 1.89511 19.0094 1.80695 18.8631 1.72099C18.575 1.55278 18.1995 1.67032 18.0627 1.97251L17.9353 2.25058C17.7283 2.6986 17.1907 2.89837 16.7388 2.6942C16.2748 2.69419 15.9654 2.21678 16.1589 1.79748L16.397 1.27951C16.5387 0.96745 16.3722 0.6021 16.0412 0.506043C15.8793 0.457796 15.7179 0.413934 15.5525 0.372703C15.2277 0.291998 14.9038 0.507779 14.8542 0.838479L14.8114 1.14133C14.7344 1.68102 14.1833 2.04153 13.6388 1.86784C13.2155 1.73231 12.966 1.29766 13.0297 0.861479L13.0609 0.64284C13.1083 0.30622 12.8464 -0.000142723 12.5063 -0.000147507C12.5039 -0.000147541 12.5017 -0.000147572 12.499 -0.000147609C12.3294 -0.000588589 12.162 0.00226096 11.9926 0.00949539ZM16.8597 10.1295L13.1066 11.727L14.6157 7.97506C15.5718 8.44152 16.3607 9.19701 16.8597 10.1295ZM10.011 8.04211L11.6326 11.7509L7.83162 10.2614C8.30389 9.31379 9.06887 8.53507 10.011 8.04211ZM12.3635 11.4384L10.745 7.73071C11.2586 7.55879 11.8051 7.46363 12.3781 7.46363C12.8995 7.46364 13.4019 7.53843 13.8713 7.68536L12.3635 11.4384ZM12.4485 4.7904C12.8922 4.79041 13.2551 5.14743 13.2551 5.58844C13.2551 6.0301 12.8922 6.38711 12.4485 6.3871C12.0021 6.3871 11.6386 6.03008 11.6386 5.58841C11.6386 5.14741 12.0021 4.79039 12.4485 4.7904ZM7.00508 8.20369C6.68714 7.8925 6.68714 7.38505 7.00508 7.07474C7.32082 6.76203 7.83184 6.76204 8.14602 7.07476C8.46109 7.38507 8.46109 7.89252 8.14602 8.2037C7.83206 8.5151 7.32104 8.51509 7.00508 8.20369ZM4.79184 12.4922C4.79184 12.0499 5.15208 11.694 5.59823 11.694C6.04415 11.694 6.40461 12.0499 6.40461 12.4923C6.40461 12.9319 6.04415 13.2898 5.59823 13.2898C5.15208 13.2898 4.79184 12.9319 4.79184 12.4922ZM7.31262 12.4701C7.31262 11.9539 7.38945 11.4605 7.53869 10.9949L11.3372 12.4846L7.5843 14.0859C7.40783 13.578 7.31262 13.0344 7.31262 12.4701ZM14.7459 16.8945L13.1305 13.188L16.9257 14.6775C16.4561 15.6237 15.6911 16.4016 14.7459 16.8945ZM11.7763 19.2583C11.7763 18.8177 12.1403 18.4618 12.5849 18.4618C13.0299 18.4618 13.3939 18.8178 13.3939 19.2583C13.3939 19.6993 13.0299 20.0563 12.5849 20.0563C12.1403 20.0563 11.7763 19.6993 11.7763 19.2583ZM12.3783 17.473C11.8604 17.473 11.3578 17.3947 10.8884 17.2524L12.3967 13.5004L14.0155 17.2064C13.5013 17.38 12.9502 17.473 12.3783 17.473ZM7.89937 14.8076L11.6548 13.2044L10.1443 16.9616C9.18445 16.4956 8.39866 15.741 7.89937 14.8076ZM7.10162 17.8699C6.78788 17.5567 6.78788 17.053 7.10162 16.7411C7.41846 16.4291 7.92837 16.4291 8.24344 16.7412C8.55962 17.053 8.55962 17.5567 8.24344 17.8699C7.92837 18.1811 7.41846 18.1811 7.10162 17.8699ZM18.0281 16.6439C18.3441 16.9569 18.3441 17.461 18.0281 17.7746C17.7115 18.0869 17.2025 18.0869 16.8847 17.7746C16.5699 17.461 16.5699 16.9569 16.8847 16.6439C17.2025 16.3338 17.7117 16.3338 18.0281 16.6439ZM20.2429 12.3571C20.2429 12.7977 19.8811 13.1534 19.4343 13.1534C18.989 13.1534 18.6277 12.7977 18.6277 12.3571C18.6277 11.9155 18.989 11.5569 19.4343 11.5569C19.8813 11.5569 20.2429 11.9157 20.2429 12.3571ZM17.4438 12.4703C17.4438 12.9795 17.3701 13.4768 17.2213 13.9428L13.4223 12.4542L17.1755 10.851C17.3524 11.3608 17.4438 11.9023 17.4438 12.4703ZM17.9318 6.97862C18.2467 7.28959 18.2467 7.79639 17.9318 8.10691C17.6141 8.41897 17.1031 8.41896 16.7898 8.10689C16.4722 7.79637 16.4722 7.28957 16.7898 6.97861C17.1031 6.66568 17.6141 6.66568 17.9318 6.97862Z" fill="#EAE4DD"/>
</svg>
