<svg width="271" height="571" viewBox="0 0 271 571" fill="none" xmlns="http://www.w3.org/2000/svg">
<path d="M93.1601 14.2475C94.7123 9.01075 100.247 6.01668 105.497 7.5727C110.746 9.12872 113.755 14.6559 112.203 19.8919C110.651 25.1293 105.116 28.1247 99.8659 26.5687C94.6162 25.0127 91.6076 19.4848 93.1601 14.2475ZM106.901 18.3203C107.589 16 106.255 13.5505 103.929 12.8611C101.603 12.1716 99.1506 13.4989 98.4628 15.8192C97.7746 18.1409 99.1074 20.5893 101.434 21.2789C103.76 21.9683 106.213 20.642 106.901 18.3203Z" fill="white"/>
<path d="M95.8693 46.4042L92.1969 51.6245L87.8402 49.9978L88.4921 43.6505C87.3505 43.0471 86.2389 42.3646 85.1629 41.6045L79.7362 45.1137L76.3142 41.9698L79.3683 36.2835C78.4334 35.1722 77.5914 34.0099 76.8385 32.8067L70.5406 33.8986L68.6106 29.6765L73.5709 25.6529C73.1875 24.4067 72.8854 23.141 72.6653 21.8633L66.4088 20.5055L66.2121 15.8697L72.3324 14.0087C72.4562 12.5871 72.6792 11.1706 73.0023 9.77334L67.7657 6.09826L69.391 1.75381L75.7507 2.41383C76.3553 1.27547 77.0366 0.165746 77.7973 -0.907123L74.275 -6.32507L77.4199 -9.73794L83.1238 -6.6808C84.2346 -7.61139 85.3989 -8.45285 86.6039 -9.20157L85.4996 -15.4876L89.7302 -17.4091L93.7672 -12.4515C95.0164 -12.8325 96.2838 -13.1327 97.564 -13.3513L98.916 -19.5932L103.561 -19.7821L105.435 -13.6719C106.858 -13.5469 108.279 -13.3234 109.679 -12.9979L113.354 -18.216L117.71 -16.5889L117.057 -10.244C118.2 -9.63815 119.312 -8.95695 120.388 -8.19664L125.813 -11.7057L129.237 -8.56204L126.183 -2.87435C127.117 -1.7639 127.961 -0.602581 128.713 0.60132L135.011 -0.49056L136.942 3.73259L131.981 7.75576C132.365 9.00077 132.667 10.267 132.888 11.5451L139.144 12.902L139.34 17.5376L133.219 19.3985C133.096 20.8195 132.873 22.2361 132.55 23.634L137.786 27.3089L136.16 31.6533L129.8 30.9931C129.195 32.1321 128.514 33.2412 127.755 34.3137L131.277 39.7331L128.13 43.1453L122.428 40.0881C121.317 41.0201 120.153 41.8593 118.946 42.6097L120.051 48.8952L115.822 50.8171L111.783 45.8611C110.535 46.2426 109.267 46.5425 107.987 46.7582L106.634 53.0015L101.99 53.1911L100.117 47.0806C98.6902 46.9539 97.2718 46.7296 95.8693 46.4042ZM125.318 23.3854C129 10.9655 121.89 -2.09329 109.44 -5.78355C96.9899 -9.47401 83.9122 -2.39816 80.231 10.0211C76.5498 22.4403 83.6588 35.5012 96.1093 39.1916C108.559 42.8819 121.637 35.8047 125.318 23.3854Z" fill="white"/>
<path d="M138.094 54.6568C138.744 52.467 141.058 51.2147 143.253 51.8653C145.449 52.5161 146.707 54.8271 146.058 57.017C145.409 59.2069 143.094 60.4598 140.898 59.8091C138.703 59.1585 137.445 56.8474 138.094 54.6568ZM143.84 56.3598C144.128 55.3897 143.57 54.3652 142.598 54.0769C141.625 53.7886 140.6 54.344 140.312 55.3141C140.024 56.2848 140.581 57.3085 141.554 57.5967C142.527 57.885 143.553 57.3306 143.84 56.3598Z" fill="white"/>
<path d="M139.228 68.1097L137.692 70.2932L135.87 69.6132L136.142 66.9582C135.665 66.7057 135.201 66.4199 134.75 66.1021L132.48 67.5699L131.049 66.2545L132.326 63.8759C131.935 63.4114 131.583 62.9249 131.268 62.4215L128.634 62.8776L127.826 61.112L129.901 59.4287C129.741 58.9068 129.615 58.3778 129.523 57.8435L126.906 57.2758L126.823 55.3364L129.383 54.5579C129.435 53.9631 129.528 53.3705 129.664 52.786L127.474 51.2487L128.154 49.4317L130.814 49.7081C131.067 49.2316 131.352 48.7676 131.67 48.3185L130.197 46.0521L131.512 44.6247L133.898 45.9032C134.362 45.514 134.849 45.1624 135.353 44.8484L134.891 42.2192L136.661 41.4151L138.35 43.4886C138.872 43.3296 139.402 43.204 139.938 43.1119L140.503 40.5014L142.446 40.4222L143.23 42.9781C143.826 43.0302 144.42 43.1234 145.006 43.2602L146.543 41.0769L148.365 41.7576L148.092 44.4118C148.57 44.6652 149.035 44.9502 149.485 45.2681L151.754 43.8001L153.186 45.115L151.908 47.4941C152.299 47.9586 152.652 48.4443 152.967 48.9477L155.601 48.4909L156.408 50.2573L154.333 51.9397C154.494 52.4604 154.62 52.99 154.712 53.5251L157.329 54.0928L157.411 56.032L154.851 56.8105C154.799 57.4051 154.706 57.9978 154.571 58.5817L156.761 60.119L156.081 61.9362L153.421 61.6598C153.168 62.1363 152.883 62.6003 152.566 63.0489L154.039 65.316L152.722 66.743L150.338 65.464C149.873 65.8539 149.386 66.2049 148.881 66.5187L149.344 69.1472L147.575 69.9508L145.885 67.8777C145.363 68.0369 144.832 68.1623 144.297 68.2524L143.732 70.8643L141.789 70.9435L141.005 68.3877C140.409 68.3397 139.816 68.246 139.228 68.1097ZM151.547 58.4819C153.087 53.2869 150.113 47.8243 144.906 46.2808C139.698 44.7372 134.228 47.6968 132.688 52.8918C131.148 58.0869 134.122 63.5494 139.33 65.0931C144.537 66.6366 150.007 63.6769 151.547 58.4819Z" fill="white"/>
<path d="M174.747 46.0145L170.85 51.5546L166.227 49.8266L166.919 43.0916C165.707 42.449 164.527 41.7277 163.385 40.9182L157.626 44.6445L153.994 41.3057L157.234 35.2704C156.242 34.0905 155.348 32.8594 154.551 31.58L147.865 32.7406L145.817 28.2571L151.082 23.9878C150.674 22.667 150.356 21.3239 150.119 19.9681L143.48 18.5264L143.272 13.6039L149.767 11.6319C149.898 10.1228 150.134 8.62007 150.479 7.13815L144.922 3.23694L146.646 -1.37485L153.398 -0.674072C154.037 -1.88139 154.762 -3.05726 155.569 -4.19634L151.829 -9.94668L155.167 -13.5689L161.222 -10.3254C162.399 -11.3141 163.636 -12.2065 164.916 -13.0012L163.742 -19.672L168.233 -21.7122L172.516 -16.4494C173.843 -16.8524 175.187 -17.1722 176.547 -17.4056L177.982 -24.0308L182.91 -24.2317L184.899 -17.745C186.41 -17.6108 187.918 -17.3756 189.404 -17.0308L193.304 -22.5691L197.928 -20.8417L197.234 -14.1064C198.447 -13.467 199.628 -12.7425 200.771 -11.933L206.528 -15.6588L210.163 -12.3231L206.919 -6.28601C207.912 -5.1086 208.807 -3.87514 209.605 -2.59418L216.288 -3.75463L218.338 0.725847L213.074 4.99535C213.481 6.31886 213.799 7.66312 214.036 9.01859L220.674 10.4606L220.882 15.3773L214.384 17.3543C214.256 18.8633 214.019 20.3652 213.676 21.8484L219.233 25.7478L217.508 30.3589L210.758 29.6586C210.115 30.8685 209.392 32.045 208.586 33.1829L212.325 38.9346L208.985 42.5565L202.932 39.3133C201.753 40.302 200.518 41.1942 199.238 41.9874L200.411 48.66L195.921 50.6972L191.635 45.437C190.311 45.8403 188.966 46.1617 187.606 46.3893L186.172 53.0147L181.243 53.2183L179.254 46.731C177.742 46.5979 176.238 46.3594 174.747 46.0145ZM193.455 17.8657C195.313 11.5963 191.726 5.0028 185.441 3.1398C179.157 1.27741 172.556 4.85061 170.697 11.12C168.84 17.3867 172.428 23.9811 178.711 25.8435C184.996 27.7058 191.598 24.1317 193.455 17.8657Z" fill="white"/>
<path d="M170.464 105.817L167.861 109.518L164.773 108.365L165.237 103.867C164.428 103.439 163.64 102.956 162.875 102.418L159.031 104.904L156.604 102.675L158.769 98.6456C158.105 97.8575 157.509 97.0325 156.976 96.1807L152.512 96.9538L151.143 93.9625L154.659 91.1111C154.386 90.2277 154.173 89.3303 154.018 88.4229L149.582 87.4611L149.443 84.1741L153.781 82.8573C153.87 81.849 154.026 80.8454 154.255 79.8557L150.546 77.2506L151.698 74.1715L156.205 74.6399C156.634 73.833 157.117 73.047 157.657 72.2856L155.16 68.4463L157.389 66.0276L161.432 68.1936C162.219 67.5319 163.045 66.9388 163.898 66.4078L163.114 61.9523L166.114 60.5891L168.974 64.1034C169.861 63.8347 170.759 63.6197 171.666 63.4666L172.625 59.0417L175.915 58.9096L177.246 63.2392C178.254 63.3261 179.261 63.4861 180.253 63.718L182.859 60.0183L185.946 61.171L185.482 65.6693C186.293 66.0977 187.081 66.5798 187.842 67.1201L191.691 64.6324L194.115 66.8611L191.95 70.8923C192.612 71.6784 193.21 72.5035 193.743 73.3551L198.207 72.5818L199.578 75.5746L196.06 78.4267C196.333 79.3088 196.544 80.2055 196.704 81.1143L201.136 82.0745L201.275 85.3615L196.936 86.6786C196.851 87.6881 196.692 88.69 196.463 89.6806L200.172 92.2863L199.023 95.3663L194.512 94.8967C194.084 95.7046 193.6 96.4886 193.063 97.2519L195.56 101.091L193.33 103.51L189.288 101.343C188.5 102.005 187.677 102.599 186.818 103.13L187.602 107.587L184.604 108.946L181.742 105.433C180.857 105.705 179.96 105.917 179.051 106.07L178.096 110.496L174.803 110.63L173.475 106.299C172.463 106.209 171.459 106.049 170.464 105.817ZM194.585 90.4651C197.724 79.8749 191.661 68.7377 181.043 65.5903C170.426 62.4432 159.272 68.4771 156.133 79.0673C152.994 89.6589 159.058 100.796 169.675 103.944C180.293 107.091 191.445 101.057 194.585 90.4651Z" fill="white"/>
<path d="M193.715 90.2079C196.707 80.1135 190.908 69.4606 180.786 66.4603C170.666 63.4607 159.997 69.2318 157.005 79.3263C154.012 89.4221 159.813 100.076 169.933 103.076C180.055 106.076 190.723 100.304 193.715 90.2079ZM159.116 79.9522C161.764 71.0186 171.205 65.91 180.162 68.565C189.12 71.2201 194.252 80.6493 191.604 89.5822C188.956 98.5172 179.514 103.626 170.557 100.971C161.6 98.3163 156.468 88.8878 159.116 79.9522Z" fill="white"/>
<path d="M255.195 28.8213L255.681 27.7619C256.454 26.0819 255.972 24.0397 254.442 22.9969C252.466 21.6491 249.829 22.4439 248.874 24.5169L248.44 25.4616C247.841 26.7645 246.223 27.2359 245.016 26.4584C244.419 26.0758 243.833 25.6815 243.257 25.276C242.11 24.4704 241.913 22.8511 242.833 21.7974L243.609 20.9081C244.824 19.5146 244.937 17.4203 243.765 15.9875C242.25 14.1419 239.491 14.162 237.992 15.8826L237.312 16.6618C236.369 17.743 234.679 17.7416 233.739 16.6516C233.278 16.1176 232.829 15.5729 232.392 15.0228C231.52 13.9273 231.79 12.3211 232.97 11.5694L234.047 10.8827C235.793 9.77042 236.307 7.43334 235.19 5.68841C235.753 3.78799 233.648 2.20625 231.974 3.27341L229.115 5.09378C227.907 5.86575 226.286 5.38914 225.692 4.08406C225.4 3.44312 225.12 2.79685 224.855 2.14536C224.325 0.849307 225.037 -0.619131 226.382 -1.0081L227.606 -1.36181C229.596 -1.93794 230.75 -4.03628 230.171 -6.02294C229.589 -8.00952 227.486 -9.16354 225.496 -8.58762L224.497 -8.29761C223.119 -7.89854 221.698 -8.80962 221.496 -10.2285C221.397 -10.9242 221.31 -11.6241 221.239 -12.327C221.097 -13.7176 222.194 -14.9264 223.596 -14.9207L224.883 -14.9161C226.956 -14.9094 228.655 -16.5974 228.659 -18.6645L228.657 -18.6649C228.661 -20.7341 226.969 -22.4318 224.896 -22.4385L223.861 -22.4419C222.425 -22.4457 221.317 -23.7201 221.525 -25.1388C221.626 -25.8329 221.742 -26.526 221.873 -27.2208C222.132 -28.5948 223.523 -29.4437 224.867 -29.0453L226.093 -28.6819C228.082 -28.0924 230.189 -29.2325 230.777 -31.2152C231.365 -33.1986 230.219 -35.303 228.231 -35.8923L227.239 -36.1862C225.861 -36.5946 225.16 -38.126 225.758 -39.429C226.051 -40.0705 226.357 -40.7052 226.676 -41.3296C227.308 -42.5767 228.888 -42.9996 230.064 -42.2402L231.053 -41.6029C232.608 -40.5987 234.703 -40.7807 235.953 -42.143C237.569 -43.8987 237.152 -46.619 235.23 -47.86L234.355 -48.4258C233.146 -49.2053 232.906 -50.873 233.85 -51.9552C234.314 -52.4861 234.789 -53.0071 235.273 -53.5196C236.234 -54.5329 237.867 -54.4937 238.781 -53.436L239.622 -52.4619C240.976 -50.894 243.37 -50.7146 244.937 -52.0657C246.507 -53.4161 246.682 -55.8017 245.329 -57.3701L244.656 -58.1484C243.715 -59.2357 243.956 -60.9037 245.167 -61.6751C245.761 -62.0527 246.362 -62.4185 246.97 -62.7728C248.179 -63.4766 249.736 -62.981 250.313 -61.7077L250.842 -60.5481C251.7 -58.6638 253.945 -57.8213 255.832 -58.6729C257.721 -59.5269 258.562 -61.7668 257.704 -63.6525L257.277 -64.5918C256.683 -65.8982 257.382 -67.4282 258.761 -67.8293C259.437 -68.0258 260.118 -68.2086 260.802 -68.3789C262.162 -68.7154 263.517 -67.8023 263.717 -66.4166L263.897 -65.1508C264.187 -63.1017 266.104 -61.6616 268.157 -61.9488C270.208 -62.2365 271.65 -64.1487 271.359 -66.1965L271.214 -67.2256C271.013 -68.645 272.115 -69.9177 273.554 -69.9131C274.258 -69.9109 274.963 -69.8946 275.67 -69.8627C277.069 -69.8017 278.113 -68.5447 277.909 -67.1618L277.724 -65.8939C277.426 -63.8467 278.859 -61.926 280.911 -61.6236C282.963 -61.3238 284.885 -62.7514 285.185 -64.7972L285.334 -65.8181C285.539 -67.2296 286.95 -68.1469 288.321 -67.7405C288.329 -67.738 288.339 -67.735 288.347 -67.7326C289.029 -67.5305 289.702 -67.3162 290.369 -67.0883C291.688 -66.6372 292.322 -65.139 291.742 -63.8744L291.209 -62.7178C290.344 -60.8385 291.178 -58.5929 293.062 -57.7279C294.946 -56.8625 297.195 -57.6924 298.059 -59.5703L298.494 -60.5146C299.094 -61.8173 300.712 -62.2887 301.92 -61.5119C302.515 -61.1295 303.102 -60.735 303.678 -60.3313C304.825 -59.5255 305.021 -57.9057 304.102 -56.8515L303.255 -55.8813C301.894 -54.3224 302.061 -51.9347 303.625 -50.5753C305.19 -49.2153 307.582 -49.378 308.944 -50.9382L309.622 -51.7165C310.566 -52.7978 312.256 -52.7958 313.196 -51.7068C313.656 -51.1722 314.106 -50.6295 314.543 -50.0781C315.413 -48.9837 315.144 -47.3765 313.964 -46.6255L312.887 -45.9388C311.143 -44.8259 310.629 -42.4889 311.745 -40.7444C311.182 -38.8439 313.288 -37.2618 314.961 -38.3278L317.819 -40.1484C319.029 -40.9199 320.649 -40.4449 321.243 -39.1391C321.535 -38.4997 321.813 -37.8525 322.081 -37.2011C322.608 -35.9063 321.897 -34.4377 320.551 -34.0474L319.431 -33.7228C317.652 -33.2073 316.423 -31.5102 316.634 -29.6718C316.909 -27.3023 319.242 -25.832 321.437 -26.4687L322.436 -26.7574C323.815 -27.1583 325.235 -26.2474 325.439 -24.8272C325.538 -24.1316 325.623 -23.432 325.695 -22.7291C325.836 -21.3385 324.739 -20.1286 323.337 -20.1347L322.143 -20.1386C320.314 -20.1441 318.677 -18.8875 318.343 -17.094C317.898 -14.7209 319.733 -12.6249 322.037 -12.617L323.073 -12.6127C324.51 -12.6086 325.617 -11.3338 325.409 -9.91508C325.305 -9.22111 325.19 -8.52765 325.059 -7.83366C324.802 -6.46065 323.409 -5.61153 322.065 -6.00986L320.839 -6.3731C318.851 -6.96242 316.744 -5.82077 316.157 -3.83869C315.569 -1.85526 316.714 0.248703 318.702 0.838029L319.693 1.13168C321.07 1.5399 321.771 3.07268 321.174 4.37624C320.881 5.01687 320.575 5.65093 320.256 6.27511C319.623 7.52353 318.044 7.94666 316.866 7.18663L315.88 6.5488C314.324 5.5455 312.23 5.72656 310.978 7.0883C309.363 8.84509 309.78 11.5661 311.702 12.8057L312.578 13.3715C313.787 14.1519 314.027 15.8205 313.082 16.9007C312.618 17.4323 312.143 17.9535 311.66 18.4653C310.697 19.4796 309.065 19.4394 308.151 18.3808L307.382 17.4896C306.171 16.0876 304.11 15.6752 302.524 16.6291C300.477 17.8604 300.11 20.586 301.604 22.316L302.277 23.0941C303.216 24.1817 302.977 25.8503 301.766 26.6208C301.173 26.9986 300.57 27.3656 299.962 27.7183C298.753 28.423 297.197 27.9276 296.617 26.6528L296.135 25.5934C295.367 23.9092 293.506 22.9332 291.715 23.4025C289.403 24.0081 288.282 26.5197 289.227 28.5978L289.654 29.538C290.248 30.8435 289.549 32.3749 288.171 32.7741C287.495 32.9711 286.815 33.1545 286.13 33.3239C284.768 33.6605 283.414 32.7469 283.216 31.3616L283.035 30.0963C282.745 28.0467 280.827 26.6069 278.774 26.8939C276.916 26.3431 275.112 27.895 275.384 29.8113L275.719 32.1706C275.921 33.5902 274.815 34.8628 273.378 34.8581C272.675 34.8552 271.968 34.839 271.261 34.8086C269.863 34.7456 268.821 33.4894 269.022 32.1062L269.207 30.8378C269.536 28.5792 267.758 26.4763 265.368 26.5288C263.517 26.5701 262 28.0212 261.733 29.8494L261.6 30.7627C261.393 32.1753 259.982 33.0917 258.611 32.6853C258.603 32.6828 258.594 32.6802 258.584 32.6772C257.904 32.4755 257.23 32.2617 256.565 32.0335C255.246 31.584 254.612 30.086 255.195 28.8213ZM238.438 -25.3654C236.619 -17.2575 237.725 -9.0881 241.117 -2.03584L251.848 -7.8433C249.918 -12.1358 249.245 -17.0133 250.163 -21.8908L238.439 -25.3661L238.438 -25.3654ZM239.825 -30.0426L251.549 -26.5674C253.438 -31.1579 256.66 -34.8794 260.617 -37.426L254.784 -48.144C248.097 -44.0802 242.718 -37.8322 239.825 -30.0426ZM259.121 -50.3922L264.974 -39.6385C269.243 -41.2772 274.012 -41.7015 278.753 -40.6218L282.214 -52.2965C274.24 -54.2981 266.17 -53.4622 259.121 -50.3922ZM304.189 -36.1652C300.254 -42.6026 294.288 -47.8301 286.867 -50.7928L283.389 -39.0582C287.612 -37.132 291.054 -34.0703 293.457 -30.3588L304.189 -36.1652ZM308.595 -9.65841C310.317 -17.328 309.42 -25.0513 306.447 -31.8321L295.679 -26.0052C297.225 -22.0078 297.707 -17.571 296.87 -13.1337L308.595 -9.65841ZM293.001 -11.7358C296.183 -22.4722 290.038 -33.757 279.277 -36.9469C268.519 -40.1358 257.216 -34.0224 254.034 -23.286C250.853 -12.553 256.997 -1.26457 267.755 1.92428C278.517 5.11415 289.819 -1.00285 293.001 -11.7358ZM307.208 -4.98118L295.484 -8.45643C293.767 -4.27828 290.946 -0.8222 287.471 1.68668L293.324 12.4417C299.512 8.3758 304.473 2.38792 307.208 -4.98118ZM289.07 14.8434L283.236 4.12587C279.199 5.92925 274.644 6.62055 270.054 5.93226L266.575 17.6689C274.411 19.2276 282.263 18.0959 289.07 14.8434ZM265.314 4.71887C260.751 3.03988 256.982 0.0856842 254.296 -3.61355L243.529 2.21196C247.765 8.62757 254.077 13.7272 261.853 16.3936L265.314 4.71887Z" fill="white"/>
<path d="M216.797 78.8762L216.972 78.4941C217.251 77.8878 217.076 77.1518 216.525 76.775C215.813 76.2893 214.86 76.5761 214.516 77.3235L214.359 77.664C214.143 78.1331 213.56 78.3038 213.124 78.0236C212.909 77.8854 212.697 77.7433 212.49 77.5968C212.076 77.3061 212.005 76.7216 212.337 76.3416L212.617 76.0207C213.055 75.5181 213.096 74.7629 212.673 74.246C212.127 73.5792 211.132 73.5872 210.59 74.208L210.345 74.4892C210.005 74.8793 209.395 74.8778 209.055 74.4855C208.89 74.2921 208.727 74.0957 208.569 73.8969C208.255 73.5017 208.352 72.9227 208.778 72.6515L209.166 72.4043C209.796 72.0029 209.982 71.1595 209.578 70.5303C209.782 69.8449 209.022 69.2743 208.418 69.6588L207.387 70.3159C206.951 70.5942 206.367 70.4221 206.152 69.9517C206.047 69.7204 205.946 69.4876 205.85 69.2515C205.659 68.7835 205.917 68.2538 206.402 68.1135L206.843 67.9867C207.561 67.7793 207.977 67.0212 207.768 66.3053C207.559 65.5883 206.8 65.1726 206.082 65.3799L205.721 65.4851C205.224 65.6286 204.712 65.3003 204.638 64.7886C204.602 64.5372 204.571 64.2855 204.545 64.0315C204.495 63.5304 204.89 63.0937 205.395 63.0962L205.859 63.0969C206.607 63.0995 207.22 62.4903 207.222 61.7453L207.221 61.745C207.222 60.9988 206.612 60.3857 205.864 60.3839L205.491 60.3819C204.973 60.3812 204.573 59.9211 204.649 59.4092C204.685 59.1595 204.727 58.9087 204.774 58.6583C204.867 58.163 205.37 57.8561 205.855 57.9999L206.297 58.131C207.014 58.3437 207.774 57.9328 207.986 57.217C208.199 56.5013 207.785 55.7416 207.068 55.5292L206.711 55.4232C206.214 55.2758 205.96 54.7232 206.177 54.2532C206.282 54.0221 206.393 53.7933 206.508 53.5679C206.736 53.1184 207.306 52.9664 207.73 53.2393L208.087 53.4698C208.648 53.8315 209.404 53.7666 209.855 53.2747C210.438 52.6415 210.288 51.6597 209.594 51.2126L209.279 51.0087C208.843 50.7276 208.757 50.1252 209.097 49.7353C209.265 49.5444 209.436 49.3563 209.611 49.1712C209.957 48.8057 210.546 48.82 210.877 49.202L211.18 49.5533C211.668 50.119 212.533 50.1836 213.098 49.6962C213.664 49.2091 213.728 48.3483 213.24 47.7826L212.996 47.501C212.658 47.109 212.744 46.5068 213.181 46.2296C213.395 46.093 213.612 45.9609 213.831 45.8333C214.267 45.5795 214.829 45.7582 215.037 46.2173L215.227 46.6361C215.537 47.3149 216.347 47.6192 217.028 47.3123C217.709 47.0045 218.013 46.1952 217.704 45.5156L217.549 45.1763C217.335 44.7042 217.587 44.1532 218.084 44.008C218.328 43.9377 218.574 43.871 218.821 43.81C219.312 43.6884 219.801 44.0184 219.872 44.518L219.937 44.9742C220.041 45.713 220.733 46.2332 221.474 46.129C222.213 46.0254 222.734 45.336 222.629 44.5971L222.577 44.2258C222.505 43.7137 222.902 43.254 223.421 43.2557C223.675 43.2566 223.929 43.263 224.184 43.2742C224.689 43.2964 225.065 43.7496 224.992 44.248L224.925 44.7058C224.818 45.444 225.334 46.137 226.075 46.2461C226.815 46.3541 227.508 45.8395 227.616 45.1012L227.669 44.7329C227.744 44.2237 228.252 43.8931 228.747 44.0396C228.749 44.0404 228.753 44.0414 228.756 44.0425C229.002 44.1152 229.245 44.193 229.486 44.2748C229.961 44.4374 230.19 44.9781 229.981 45.4343L229.788 45.8519C229.477 46.5298 229.778 47.34 230.457 47.6527C231.137 47.9645 231.948 47.6653 232.26 46.9874L232.416 46.6469C232.632 46.1767 233.216 46.0073 233.652 46.2875C233.867 46.4258 234.079 46.5678 234.287 46.7143C234.701 47.005 234.771 47.5893 234.44 47.9698L234.134 48.3199C233.644 48.8815 233.704 49.743 234.268 50.234C234.833 50.7249 235.696 50.6664 236.187 50.1034L236.432 49.8229C236.773 49.4323 237.382 49.4336 237.721 49.8265C237.886 50.0191 238.049 50.2154 238.206 50.414C238.52 50.8092 238.423 51.3891 237.998 51.6593L237.609 51.9074C236.979 52.3088 236.793 53.1523 237.196 53.7812C236.993 54.4675 237.752 55.0372 238.356 54.6536L239.387 53.9965C239.824 53.7172 240.408 53.8895 240.623 54.3609C240.728 54.5913 240.828 54.8247 240.925 55.0594C241.115 55.5271 240.859 56.0571 240.374 56.1974L239.969 56.3144C239.328 56.5 238.884 57.1121 238.96 57.7755C239.06 58.6308 239.901 59.1606 240.693 58.931L241.054 58.8264C241.551 58.6822 242.064 59.0106 242.137 59.5221C242.173 59.7734 242.203 60.026 242.229 60.2791C242.28 60.7802 241.884 61.2169 241.379 61.2153L240.948 61.2141C240.288 61.2119 239.698 61.6655 239.577 62.312C239.417 63.1678 240.079 63.9246 240.91 63.9276L241.283 63.9296C241.802 63.9305 242.201 64.3913 242.126 64.9034C242.088 65.1526 242.047 65.4037 242 65.654C241.907 66.1493 241.405 66.4554 240.92 66.3116L240.477 66.1805C239.76 65.9678 239 66.3796 238.788 67.0945C238.576 67.8102 238.989 68.5688 239.706 68.7815L240.064 68.8874C240.561 69.0348 240.814 69.5874 240.599 70.0576C240.492 70.2886 240.383 70.5176 240.267 70.7428C240.039 71.1922 239.469 71.3462 239.045 71.0713L238.689 70.8413C238.127 70.4794 237.372 70.5454 236.92 71.0362C236.338 71.6696 236.489 72.6515 237.181 73.0983L237.497 73.3024C237.933 73.5836 238.02 74.1859 237.679 74.5758C237.511 74.7676 237.34 74.9557 237.167 75.1402C236.819 75.5063 236.231 75.4914 235.901 75.1094L235.623 74.7884C235.186 74.2823 234.443 74.1329 233.87 74.4774C233.132 74.9222 233 75.905 233.539 76.5282L233.781 76.8095C234.12 77.2015 234.034 77.8037 233.597 78.0818C233.382 78.2184 233.166 78.3505 232.946 78.4779C232.51 78.7319 231.949 78.5532 231.739 78.0947L231.566 77.712C231.289 77.1043 230.617 76.7523 229.972 76.9224C229.137 77.1414 228.733 78.0474 229.073 78.7967L229.228 79.1359C229.442 79.6071 229.19 80.159 228.693 80.3034C228.448 80.3743 228.203 80.4404 227.956 80.5014C227.466 80.623 226.976 80.293 226.905 79.7943L226.84 79.3381C226.736 78.5984 226.044 78.079 225.303 78.183C224.632 77.9842 223.981 78.5435 224.08 79.2362L224.201 80.0876C224.274 80.5999 223.875 81.0583 223.356 81.0565C223.102 81.0559 222.849 81.0495 222.593 81.0389C222.088 81.0158 221.713 80.5629 221.784 80.064L221.851 79.6062C221.97 78.792 221.329 78.0331 220.466 78.0518C219.799 78.0673 219.251 78.5902 219.155 79.2497L219.106 79.5797C219.032 80.0892 218.523 80.4196 218.028 80.273C218.026 80.2722 218.022 80.2712 218.019 80.2702C217.773 80.1974 217.53 80.1205 217.29 80.0381C216.815 79.8737 216.587 79.3322 216.797 78.8762ZM210.752 59.3287C210.095 62.2534 210.494 65.2002 211.718 67.7442L215.588 65.6494C214.892 64.101 214.649 62.3423 214.98 60.5821L210.752 59.3287ZM211.252 57.6413L215.481 58.8949C216.163 57.2386 217.325 55.8965 218.753 54.9776L216.649 51.1112C214.236 52.5772 212.295 54.8304 211.252 57.6413ZM218.213 50.3008L220.325 54.18C221.865 53.5889 223.586 53.4363 225.296 53.8252L226.544 49.614C223.667 48.8915 220.755 49.193 218.213 50.3008ZM234.472 55.4323C233.053 53.1099 230.9 51.225 228.223 50.156L226.968 54.3889C228.492 55.083 229.733 56.1882 230.6 57.5268L234.472 55.4323ZM236.061 64.995C236.682 62.2289 236.359 59.4422 235.286 56.996L231.402 59.098C231.96 60.5403 232.134 62.1407 231.832 63.7416L236.061 64.995ZM226.816 63.1729C227.373 61.2937 226.298 59.3197 224.414 58.7614C222.531 58.2033 220.553 59.2733 219.996 61.1516C219.44 63.03 220.515 65.0051 222.398 65.5632C224.281 66.1215 226.259 65.0504 226.816 63.1729ZM235.561 66.6824L231.331 65.4288C230.712 66.9355 229.694 68.1826 228.44 69.0879L230.551 72.9669C232.784 71.5013 234.574 69.3402 235.561 66.6824ZM229.017 73.8336L226.913 69.967C225.456 70.6177 223.813 70.8668 222.158 70.6186L220.903 74.8524C223.729 75.4154 226.561 75.0073 229.017 73.8336ZM220.447 70.1814C218.8 69.5753 217.442 68.5101 216.473 67.1752L212.588 69.277C214.116 71.5912 216.393 73.4316 219.199 74.3926L220.447 70.1814Z" fill="white"/>
<path d="M192.696 136.988L192.827 136.704C193.034 136.253 192.904 135.706 192.494 135.426C191.965 135.065 191.257 135.278 191.001 135.834L190.884 136.087C190.723 136.436 190.29 136.562 189.966 136.354C189.806 136.251 189.649 136.146 189.494 136.037C189.187 135.821 189.134 135.386 189.381 135.104L189.589 134.865C189.915 134.491 189.945 133.93 189.631 133.546C189.225 133.05 188.485 133.056 188.082 133.517L187.899 133.726C187.647 134.017 187.194 134.015 186.941 133.724C186.818 133.58 186.697 133.434 186.58 133.286C186.346 132.992 186.418 132.562 186.735 132.36L187.024 132.176C187.492 131.878 187.63 131.251 187.33 130.783C187.481 130.274 186.916 129.85 186.467 130.135L185.701 130.624C185.376 130.831 184.942 130.703 184.783 130.353C184.705 130.181 184.63 130.008 184.558 129.833C184.416 129.485 184.607 129.091 184.968 128.987L185.296 128.892C185.83 128.738 186.139 128.175 185.984 127.642C185.828 127.109 185.264 126.8 184.731 126.954L184.462 127.032C184.093 127.139 183.712 126.895 183.657 126.515C183.63 126.328 183.607 126.141 183.588 125.952C183.55 125.579 183.844 125.255 184.22 125.256L184.565 125.257C185.121 125.259 185.577 124.806 185.578 124.252L185.577 124.252C185.578 123.697 185.125 123.241 184.569 123.24L184.291 123.239C183.906 123.238 183.609 122.896 183.665 122.515C183.692 122.33 183.723 122.143 183.758 121.957C183.827 121.589 184.201 121.361 184.561 121.468L184.89 121.565C185.424 121.723 185.989 121.418 186.146 120.886C186.304 120.354 185.996 119.789 185.464 119.631L185.198 119.552C184.828 119.442 184.64 119.032 184.801 118.682C184.879 118.51 184.961 118.34 185.047 118.173C185.217 117.839 185.64 117.726 185.956 117.928L186.221 118.1C186.638 118.369 187.2 118.32 187.536 117.955C187.969 117.484 187.857 116.754 187.342 116.422L187.107 116.27C186.784 116.061 186.719 115.613 186.972 115.323C187.097 115.182 187.224 115.042 187.354 114.904C187.611 114.632 188.049 114.643 188.295 114.927L188.521 115.188C188.884 115.609 189.526 115.657 189.947 115.294C190.367 114.932 190.415 114.292 190.052 113.872L189.871 113.662C189.619 113.371 189.683 112.923 190.008 112.717C190.167 112.616 190.328 112.517 190.491 112.422C190.816 112.234 191.233 112.367 191.388 112.708L191.529 113.019C191.759 113.524 192.362 113.75 192.868 113.522C193.374 113.293 193.6 112.692 193.371 112.186L193.256 111.934C193.097 111.583 193.284 111.173 193.654 111.065C193.835 111.013 194.018 110.964 194.201 110.918C194.566 110.828 194.93 111.073 194.982 111.445L195.031 111.784C195.109 112.333 195.623 112.72 196.173 112.642C196.723 112.565 197.11 112.053 197.032 111.503L196.993 111.227C196.94 110.847 197.235 110.505 197.621 110.506C197.81 110.507 197.999 110.512 198.188 110.52C198.563 110.536 198.843 110.873 198.789 111.244L198.739 111.584C198.659 112.133 199.043 112.648 199.594 112.729C200.144 112.81 200.66 112.427 200.739 111.878L200.779 111.604C200.835 111.226 201.213 110.98 201.58 111.089C201.582 111.09 201.585 111.09 201.587 111.091C201.77 111.145 201.951 111.203 202.13 111.264C202.483 111.385 202.653 111.787 202.498 112.126L202.355 112.436C202.123 112.94 202.347 113.543 202.852 113.775C203.357 114.007 203.961 113.784 204.192 113.281L204.308 113.027C204.469 112.678 204.903 112.552 205.228 112.76C205.387 112.863 205.545 112.969 205.699 113.077C206.007 113.294 206.059 113.728 205.813 114.011L205.586 114.271C205.221 114.689 205.266 115.329 205.685 115.694C206.105 116.059 206.746 116.016 207.112 115.597L207.294 115.389C207.547 115.098 208 115.099 208.252 115.391C208.375 115.534 208.496 115.68 208.613 115.828C208.847 116.122 208.774 116.553 208.458 116.754L208.169 116.938C207.701 117.237 207.563 117.864 207.862 118.331C207.711 118.842 208.276 119.265 208.724 118.98L209.491 118.491C209.815 118.284 210.25 118.412 210.41 118.762C210.488 118.934 210.562 119.107 210.635 119.282C210.776 119.629 210.585 120.023 210.225 120.128L209.924 120.215C209.447 120.353 209.117 120.808 209.174 121.301C209.248 121.937 209.873 122.331 210.462 122.16L210.73 122.082C211.1 121.975 211.481 122.219 211.535 122.599C211.562 122.786 211.585 122.974 211.604 123.162C211.642 123.535 211.348 123.859 210.972 123.858L210.651 123.857C210.161 123.856 209.722 124.193 209.632 124.673C209.513 125.31 210.005 125.872 210.623 125.875L210.901 125.876C211.286 125.877 211.583 126.219 211.527 126.6C211.499 126.785 211.468 126.972 211.434 127.158C211.364 127.526 210.991 127.754 210.63 127.647L210.302 127.549C209.768 127.391 209.203 127.697 209.046 128.229C208.888 128.761 209.195 129.325 209.728 129.483L209.994 129.562C210.364 129.671 210.552 130.082 210.392 130.432C210.313 130.604 210.231 130.774 210.145 130.941C209.975 131.275 209.552 131.39 209.236 131.185L208.972 131.015C208.554 130.745 207.993 130.795 207.657 131.159C207.224 131.63 207.336 132.36 207.851 132.692L208.086 132.844C208.41 133.053 208.474 133.501 208.221 133.791C208.096 133.933 207.969 134.073 207.84 134.21C207.582 134.483 207.145 134.472 206.899 134.188L206.693 133.949C206.368 133.573 205.815 133.462 205.389 133.718C204.841 134.048 204.742 134.779 205.143 135.242L205.323 135.452C205.575 135.743 205.511 136.191 205.186 136.397C205.027 136.499 204.866 136.597 204.702 136.692C204.378 136.881 203.961 136.748 203.805 136.407L203.676 136.122C203.47 135.671 202.971 135.409 202.491 135.535C201.871 135.698 201.57 136.372 201.823 136.929L201.938 137.181C202.097 137.531 201.91 137.942 201.54 138.049C201.358 138.102 201.176 138.151 200.993 138.196C200.628 138.287 200.264 138.041 200.211 137.671L200.163 137.331C200.085 136.781 199.571 136.395 199.02 136.473C198.521 136.325 198.037 136.741 198.111 137.256L198.201 137.889C198.255 138.269 197.958 138.61 197.573 138.609C197.384 138.608 197.195 138.604 197.006 138.596C196.63 138.579 196.351 138.242 196.404 137.871L196.454 137.531C196.542 136.925 196.066 136.361 195.424 136.375C194.928 136.387 194.521 136.775 194.449 137.266L194.413 137.511C194.358 137.89 193.98 138.135 193.612 138.026C193.61 138.026 193.608 138.025 193.605 138.024C193.422 137.97 193.241 137.913 193.063 137.852C192.71 137.73 192.54 137.327 192.696 136.988ZM188.202 122.456C187.714 124.63 188.011 126.821 188.921 128.712L191.798 127.155C191.28 126.003 191.1 124.696 191.346 123.387L188.202 122.456ZM188.574 121.201L191.718 122.133C192.225 120.902 193.089 119.904 194.15 119.221L192.587 116.346C190.793 117.436 189.35 119.111 188.574 121.201ZM193.75 115.744L195.32 118.628C196.465 118.188 197.744 118.075 199.015 118.364L199.943 115.233C197.804 114.696 195.639 114.92 193.75 115.744ZM205.837 119.559C204.782 117.832 203.181 116.431 201.191 115.636L200.258 118.783C201.391 119.299 202.314 120.121 202.959 121.116L205.837 119.559ZM207.018 126.668C207.48 124.612 207.24 122.54 206.442 120.721L203.555 122.284C203.969 123.356 204.099 124.546 203.874 125.736L207.018 126.668ZM200.145 125.314C200.559 123.916 199.76 122.449 198.359 122.034C196.96 121.619 195.489 122.414 195.075 123.811C194.661 125.207 195.461 126.676 196.861 127.091C198.261 127.506 199.731 126.709 200.145 125.314ZM206.646 127.923L203.502 126.991C203.041 128.111 202.285 129.038 201.353 129.711L202.922 132.595C204.582 131.505 205.912 129.899 206.646 127.923ZM201.782 133.239L200.217 130.364C199.134 130.848 197.913 131.033 196.682 130.849L195.749 133.997C197.85 134.415 199.956 134.112 201.782 133.239ZM195.41 130.524C194.186 130.073 193.176 129.281 192.455 128.289L189.567 129.852C190.703 131.572 192.396 132.94 194.482 133.655L195.41 130.524Z" fill="white"/>
<path d="M328.841 251.2L330.701 245.095L326.74 242.658L322.134 247.074C320.956 246.544 319.735 246.087 318.474 245.705L317.907 239.268L313.324 238.5L310.715 244.405C309.264 244.35 307.83 244.4 306.418 244.546L303.408 238.907L298.891 239.98L298.766 246.365C297.548 246.829 296.364 247.368 295.22 247.98L290.304 243.879L286.526 246.574L288.82 252.545C287.775 253.517 286.794 254.563 285.891 255.677L279.773 253.805L277.345 257.757L281.775 262.368C281.248 263.545 280.792 264.764 280.413 266.024L273.974 266.575L273.215 271.154L279.132 273.774C279.081 275.222 279.133 276.658 279.283 278.068L273.646 281.061L274.73 285.579L281.122 285.717C281.589 286.936 282.131 288.12 282.746 289.265L278.653 294.167L281.359 297.947L287.331 295.67C288.304 296.716 289.354 297.7 290.471 298.604L288.614 304.71L292.574 307.146L297.178 302.731C298.358 303.26 299.579 303.719 300.84 304.101L301.407 310.537L305.991 311.305L308.6 305.4C310.05 305.455 311.485 305.406 312.897 305.26L315.907 310.899L320.425 309.827L320.549 303.44C321.767 302.978 322.951 302.438 324.096 301.827L329.011 305.928L332.788 303.233L330.494 297.261C331.539 296.291 332.52 295.244 333.424 294.13L339.541 296.001L341.969 292.049L337.539 287.438C338.065 286.261 338.522 285.042 338.901 283.784L345.341 283.231L346.098 278.651L340.182 276.033C340.234 274.583 340.181 273.149 340.031 271.736L345.668 268.744L344.585 264.227L338.193 264.087C337.727 262.868 337.184 261.684 336.568 260.541L340.661 255.637L337.956 251.857L331.985 254.135C331.008 253.088 329.959 252.107 328.841 251.2ZM328.783 288.578C321.249 299.116 306.578 301.534 296.015 293.982C285.451 286.429 282.995 271.764 290.529 261.227C298.063 250.69 312.735 248.27 323.299 255.823C333.862 263.375 336.317 278.041 328.783 288.578Z" fill="white"/>
<path d="M253.299 391.52C247.609 399.477 249.471 410.594 257.448 416.298C265.426 422.002 276.548 420.168 282.238 412.211C287.928 404.252 286.067 393.134 278.089 387.43C270.111 381.726 258.989 383.561 253.299 391.52ZM274.18 406.45C271.66 409.974 266.729 410.787 263.195 408.26C259.66 405.733 258.837 400.807 261.357 397.282C263.879 393.754 268.807 392.941 272.341 395.469C275.876 397.996 276.702 402.923 274.18 406.45Z" fill="white"/>
<path d="M301.713 359.948L305.045 349.012L297.951 344.647L289.7 352.557C287.59 351.608 285.403 350.788 283.144 350.105L282.128 338.574L273.918 337.2L269.246 347.775C266.647 347.678 264.077 347.768 261.548 348.028L256.157 337.928L248.066 339.849L247.843 351.286C245.66 352.116 243.539 353.083 241.491 354.179L232.686 346.833L225.92 351.659L230.029 362.356C228.156 364.095 226.401 365.969 224.783 367.965L213.827 364.613L209.479 371.693L217.412 379.952C216.469 382.059 215.653 384.244 214.973 386.5L203.44 387.487L202.08 395.688L212.679 400.382C212.587 402.976 212.68 405.546 212.948 408.074L202.851 413.433L204.793 421.526L216.241 421.773C217.079 423.957 218.05 426.079 219.15 428.128L211.819 436.91L216.665 443.681L227.362 439.602C229.105 441.476 230.986 443.235 232.987 444.856L229.659 455.795L236.752 460.157L244.999 452.249C247.113 453.197 249.3 454.018 251.559 454.702L252.573 466.231L260.784 467.606L265.457 457.028C268.054 457.126 270.625 457.039 273.154 456.777L278.545 466.877L286.636 464.957L286.858 453.517C289.042 452.689 291.161 451.721 293.211 450.628L302.016 457.973L308.78 453.145L304.672 442.449C306.545 440.71 308.3 438.836 309.919 436.841L320.875 440.193L325.224 433.113L317.29 424.854C318.232 422.745 319.05 420.563 319.73 418.309L331.265 417.319L332.621 409.116L322.025 404.425C322.118 401.83 322.022 399.261 321.754 396.73L331.851 391.371L329.91 383.28L318.461 383.03C317.626 380.848 316.653 378.725 315.55 376.679L322.882 367.896L318.036 361.126L307.341 365.206C305.595 363.329 303.717 361.572 301.713 359.948ZM301.61 426.898C288.116 445.771 261.837 450.104 242.917 436.576C223.996 423.048 219.597 396.78 233.091 377.907C246.585 359.033 272.865 354.699 291.786 368.227C310.706 381.756 315.104 408.025 301.61 426.898Z" fill="white"/>
<path d="M262.336 302.071L263.365 298.695L261.174 297.348L258.627 299.79C257.975 299.498 257.3 299.244 256.602 299.033L256.289 295.473L253.753 295.049L252.31 298.314C251.507 298.284 250.715 298.311 249.934 298.393L248.27 295.273L245.771 295.867L245.702 299.398C245.028 299.654 244.374 299.953 243.741 300.29L241.022 298.023L238.932 299.514L240.202 302.815C239.623 303.352 239.082 303.931 238.583 304.547L235.199 303.512L233.856 305.698L236.306 308.249C236.015 308.898 235.764 309.573 235.554 310.27L231.993 310.574L231.572 313.106L234.845 314.557C234.816 315.357 234.845 316.151 234.928 316.932L231.81 318.586L232.41 321.085L235.945 321.16C236.205 321.835 236.503 322.49 236.843 323.123L234.579 325.835L236.075 327.925L239.378 326.665C239.918 327.244 240.497 327.788 241.115 328.288L240.087 331.665L242.279 333.013L244.825 330.57C245.476 330.864 246.152 331.117 246.851 331.328L247.164 334.888L249.699 335.313L251.141 332.046C251.943 332.077 252.737 332.05 253.519 331.968L255.183 335.087L257.681 334.495L257.75 330.963C258.424 330.707 259.079 330.407 259.712 330.07L262.431 332.337L264.518 330.848L263.25 327.544C263.829 327.008 264.37 326.429 264.87 325.813L268.253 326.848L269.596 324.663L267.146 322.112C267.437 321.46 267.689 320.786 267.899 320.091L271.461 319.785L271.88 317.252L268.608 315.803C268.637 315.002 268.608 314.208 268.524 313.428L271.643 311.773L271.042 309.275L267.507 309.198C267.249 308.525 266.95 307.869 266.608 307.237L268.872 304.526L267.377 302.434L264.074 303.695C263.534 303.115 262.955 302.574 262.336 302.071ZM256.757 318.777C254.775 321.549 250.916 322.186 248.137 320.199C245.359 318.213 244.713 314.355 246.695 311.583C248.676 308.812 252.536 308.175 255.314 310.161C258.092 312.148 258.738 316.006 256.757 318.777Z" fill="white"/>
<path d="M341.617 463.885C340.721 463.299 339.507 463.624 339.013 464.583L338.6 465.383C337.941 466.653 336.475 467.327 335.116 466.896C333.369 466.336 332.614 464.362 333.423 462.798L333.796 462.082C334.301 461.104 333.831 459.895 332.79 459.53C332.277 459.356 331.754 459.187 331.24 459.023C330.211 458.717 329.134 459.371 328.925 460.426L328.753 461.32C328.475 462.72 327.251 463.786 325.833 463.753C323.997 463.716 322.713 462.031 323.054 460.31L323.203 459.525C323.419 458.433 322.623 457.414 321.521 457.363C320.98 457.338 320.435 457.321 319.895 457.322C318.82 457.306 317.971 458.236 318.069 459.312L318.154 460.29C318.304 461.88 317.123 463.304 315.533 463.456C314.646 464.696 312.696 464.174 312.556 462.656L312.316 460.057C312.216 458.957 311.161 458.197 310.093 458.457C309.565 458.583 309.041 458.725 308.516 458.874C307.479 459.171 306.925 460.301 307.318 461.304L307.681 462.214C308.263 463.692 307.529 465.392 306.054 465.982C304.561 466.576 302.877 465.848 302.295 464.368L301.999 463.625C301.591 462.599 300.37 462.17 299.411 462.727C298.939 462.993 298.482 463.278 298.018 463.559C297.102 464.14 296.884 465.383 297.542 466.232L298.152 467.003C299.13 468.259 298.91 470.093 297.65 471.081C296.391 472.064 294.569 471.846 293.586 470.593L293.098 469.973C292.416 469.101 291.122 469.037 290.352 469.836C289.985 470.229 289.619 470.627 289.257 471.042C288.549 471.847 288.679 473.095 289.557 473.723L290.347 474.288C291.647 475.217 291.947 477.031 291.014 478.336C290.082 479.64 288.266 479.946 286.966 479.017L286.327 478.56C285.434 477.922 284.17 478.223 283.658 479.198C283.406 479.683 283.169 480.172 282.938 480.663C282.476 481.634 282.962 482.798 283.984 483.151L284.832 483.445C286.171 483.908 287.049 485.274 286.81 486.669C286.504 488.49 284.652 489.531 282.991 488.958L282.235 488.696C281.19 488.33 280.068 488.983 279.853 490.064C279.748 490.602 279.655 491.138 279.573 491.675C279.408 492.738 280.195 493.707 281.271 493.762L282.258 493.811C283.846 493.885 285.084 495.253 285.002 496.841C284.919 498.438 283.547 499.683 281.962 499.6L281.17 499.571C280.063 499.513 279.165 500.457 279.26 501.553C279.315 502.093 279.372 502.631 279.445 503.172C279.584 504.234 280.617 504.946 281.673 504.691L282.622 504.457C284.172 504.084 285.739 505.041 286.111 506.593C286.475 508.142 285.513 509.722 283.963 510.093L283.191 510.282C282.115 510.543 281.516 511.695 281.918 512.726C282.115 513.231 282.329 513.729 282.546 514.227C282.983 515.208 284.173 515.596 285.107 515.061L285.965 514.557C287.351 513.768 289.121 514.246 289.916 515.626C290.708 517.011 290.221 518.79 288.838 519.586L288.149 519.985C287.188 520.542 286.937 521.812 287.615 522.688C287.95 523.111 288.287 523.529 288.639 523.947C289.337 524.762 290.594 524.8 291.338 524.023L292.02 523.304C293.122 522.149 294.968 522.103 296.117 523.199C297.264 524.306 297.304 526.153 296.2 527.303L295.646 527.881C294.889 528.68 294.989 529.966 295.885 530.607C295.889 530.61 295.897 530.616 295.9 530.618C296.341 530.934 296.79 531.246 297.24 531.538C298.143 532.123 299.353 531.797 299.848 530.84L300.294 529.97C301.037 528.55 302.794 527.993 304.204 528.721C305.621 529.455 306.169 531.204 305.432 532.627L305.069 533.34C304.551 534.318 305.034 535.531 306.07 535.891C306.588 536.068 307.096 536.24 307.616 536.391C308.647 536.707 309.727 536.054 309.932 534.999L310.127 534.02C310.429 532.456 311.966 531.421 313.525 531.719C315.086 532.021 316.116 533.549 315.805 535.118L315.656 535.898C315.438 536.988 316.235 538.009 317.341 538.062C317.887 538.088 318.421 538.101 318.967 538.108C320.042 538.112 320.89 537.184 320.796 536.113L320.704 535.128C320.562 533.543 321.741 532.118 323.319 531.967C324.21 530.72 326.165 531.242 326.308 532.771L326.546 535.367C326.645 536.468 327.699 537.222 328.776 536.962C329.298 536.834 329.822 536.697 330.343 536.554C331.383 536.253 331.939 535.122 331.544 534.12L331.213 533.286C330.689 531.967 331.145 530.412 332.363 529.666C333.929 528.706 335.923 529.419 336.563 531.052L336.859 531.796C337.261 532.822 338.494 533.255 339.449 532.695C339.92 532.427 340.387 532.144 340.842 531.854C341.762 531.281 341.974 530.04 341.312 529.19L340.743 528.469C339.884 527.364 339.877 525.774 340.814 524.713C342.046 523.318 344.181 523.433 345.269 524.829L345.761 525.449C346.441 526.324 347.732 526.389 348.497 525.583C348.874 525.194 349.246 524.792 349.602 524.386C350.317 523.575 350.177 522.326 349.304 521.702L348.503 521.129C347.207 520.202 346.914 518.384 347.844 517.083C348.772 515.785 350.587 515.475 351.883 516.402L352.53 516.864C353.425 517.505 354.691 517.202 355.198 516.225C355.453 515.738 355.693 515.251 355.922 514.76C356.39 513.785 355.894 512.627 354.884 512.273L354.024 511.977C352.685 511.513 351.814 510.153 352.049 508.751C352.363 506.937 354.214 505.894 355.866 506.467L356.617 506.726C357.67 507.09 358.799 506.442 359.011 505.361C359.114 504.822 359.203 504.29 359.287 503.747C359.452 502.682 358.66 501.711 357.588 501.659L356.678 501.62C355.26 501.552 354.039 500.5 353.872 499.082C353.656 497.258 355.145 495.741 356.901 495.823L357.687 495.855C358.793 495.909 359.692 494.972 359.592 493.873C359.542 493.335 359.481 492.797 359.409 492.255C359.267 491.188 358.237 490.482 357.189 490.733L356.314 490.945C354.931 491.28 353.464 490.619 352.903 489.306C352.186 487.62 353.185 485.745 354.894 485.33L355.665 485.141C356.741 484.882 357.342 483.728 356.938 482.705C356.738 482.198 356.529 481.698 356.309 481.199C355.875 480.219 354.674 479.828 353.749 480.369L352.894 480.863C351.51 481.657 349.733 481.181 348.939 479.801C347.729 478.935 347.821 477.102 349.115 476.359L350.71 475.439C351.667 474.882 351.921 473.61 351.238 472.74C350.907 472.311 350.569 471.895 350.215 471.478C349.52 470.66 348.269 470.624 347.518 471.402L346.836 472.12C345.619 473.397 343.504 473.318 342.411 471.846C341.563 470.7 341.73 469.091 342.717 468.061L343.21 467.544C343.967 466.746 343.861 465.451 342.974 464.817C342.968 464.813 342.962 464.809 342.955 464.804C342.514 464.486 342.072 464.182 341.617 463.885ZM335.259 499.6L322.466 496.808L333.463 489.745C335.078 492.755 335.713 496.214 335.259 499.6ZM321.331 481.337L318.578 494.123L311.471 483.116C314.486 481.502 317.946 480.878 321.331 481.337ZM321.072 494.663L323.831 481.885C325.494 482.39 327.098 483.159 328.592 484.227C329.951 485.199 331.12 486.332 332.068 487.594L321.072 494.663ZM333.807 477.321C334.964 478.148 335.238 479.764 334.408 480.925C333.577 482.088 331.958 482.351 330.801 481.524C329.638 480.692 329.362 479.074 330.193 477.912C331.023 476.751 332.643 476.489 333.807 477.321ZM313.189 476.158C312.946 474.746 313.901 473.411 315.314 473.186C316.726 472.952 318.058 473.904 318.289 475.313C318.526 476.718 317.571 478.054 316.164 478.285C314.759 478.52 313.427 477.567 313.189 476.158ZM299.346 483.322C300.179 482.158 301.788 481.892 302.951 482.724C304.114 483.555 304.384 485.164 303.551 486.329C302.724 487.486 301.11 487.756 299.948 486.925C298.784 486.093 298.519 484.479 299.346 483.322ZM305.961 487.963C306.932 486.604 308.061 485.448 309.327 484.501L316.427 495.504L303.628 492.723C304.124 491.057 304.899 489.449 305.961 487.963ZM317.014 513.468L319.779 500.699L326.871 511.695C323.865 513.311 320.407 513.932 317.014 513.468ZM304.822 514.155C305.651 512.995 307.27 512.736 308.43 513.565C309.59 514.395 309.869 516.011 309.04 517.17C308.21 518.331 306.589 518.593 305.428 517.763C304.269 516.934 303.992 515.316 304.822 514.155ZM309.752 510.577C308.402 509.612 307.239 508.468 306.283 507.219L317.277 500.153L314.523 512.927C312.855 512.426 311.243 511.643 309.752 510.577ZM303.091 495.21L315.9 497.991L304.89 505.066C303.264 502.05 302.636 498.598 303.091 495.21ZM295.247 501.785C295.018 500.375 295.966 499.049 297.371 498.813C298.785 498.582 300.114 499.533 300.349 500.942C300.586 502.352 299.638 503.678 298.224 503.913C296.817 504.145 295.487 503.195 295.247 501.785ZM326.044 518.927C326.279 520.34 325.33 521.667 323.916 521.904C322.502 522.136 321.175 521.187 320.934 519.772C320.704 518.36 321.653 517.032 323.063 516.796C324.475 516.572 325.803 517.521 326.044 518.927ZM339.887 511.771C339.058 512.931 337.445 513.193 336.28 512.36C335.119 511.53 334.847 509.92 335.676 508.76C336.507 507.597 338.124 507.327 339.285 508.157C340.451 508.99 340.718 510.609 339.887 511.771ZM332.376 506.851C331.418 508.191 330.289 509.363 329.024 510.312L321.921 499.311L334.724 502.087C334.226 503.76 333.445 505.355 332.376 506.851ZM343.985 493.303C344.221 494.709 343.267 496.043 341.861 496.274C340.446 496.503 339.113 495.55 338.884 494.145C338.64 492.735 339.594 491.401 341.007 491.174C342.413 490.935 343.746 491.887 343.985 493.303Z" fill="white"/>
<path d="M175.267 199.852C177.726 207.137 185.668 211.059 192.971 208.594C200.274 206.13 204.217 198.197 201.758 190.912C199.3 183.627 191.357 179.704 184.054 182.168C176.751 184.633 172.809 192.567 175.267 199.852ZM194.382 193.401C195.471 196.628 193.724 200.145 190.488 201.237C187.252 202.329 183.733 200.589 182.644 197.363C181.555 194.134 183.301 190.619 186.537 189.527C189.772 188.435 193.293 190.172 194.382 193.401Z" fill="white"/>
<path d="M177.39 154.477L171.949 147.327L165.906 149.844L167.157 158.739C165.582 159.648 164.054 160.666 162.581 161.792L154.762 157.14L150.114 161.743L154.708 169.581C153.452 171.193 152.328 172.873 151.331 174.605L142.415 173.4L139.921 179.441L147.11 184.84C146.636 186.613 146.278 188.409 146.035 190.219L137.305 192.456L137.272 198.987L145.98 201.284C146.228 203.277 146.616 205.258 147.145 207.207L139.973 212.651L142.488 218.677L151.4 217.415C152.31 218.984 153.327 220.509 154.453 221.979L149.782 229.785L154.385 234.421L162.248 229.821C163.86 231.072 165.542 232.194 167.276 233.185L166.053 242.085L172.104 244.567L177.523 237.381C179.301 237.851 181.099 238.207 182.911 238.448L185.141 247.158L191.685 247.18L194 238.486C195.996 238.236 197.982 237.845 199.935 237.314L205.379 244.463L211.421 241.946L210.169 233.054C211.745 232.142 213.273 231.125 214.748 230L222.564 234.651L227.214 230.049L222.618 222.208C223.874 220.597 225 218.919 225.995 217.185L234.912 218.391L237.406 212.35L230.215 206.951C230.691 205.178 231.048 203.382 231.293 201.572L240.022 199.335L240.053 192.804L231.346 190.507C231.098 188.514 230.71 186.534 230.182 184.584L237.354 179.141L234.84 173.114L225.927 174.377C225.017 172.807 224.001 171.282 222.877 169.813L227.547 162.005L222.941 157.37L215.08 161.969C213.468 160.717 211.787 159.598 210.05 158.606L211.274 149.705L205.223 147.224L199.802 154.409C198.028 153.937 196.227 153.583 194.416 153.345L192.186 144.634L185.643 144.612L183.328 153.306C181.329 153.556 179.346 153.947 177.39 154.477ZM220.025 185.312C225.855 202.589 216.54 221.334 199.22 227.178C181.9 233.023 163.132 223.756 157.301 206.479C151.471 189.202 160.785 170.456 178.106 164.611C195.426 158.766 214.194 168.036 220.025 185.312Z" fill="white"/>
<path d="M233.445 240.071L230.426 236.104L227.074 237.5L227.769 242.435C226.895 242.939 226.047 243.502 225.228 244.127L220.894 241.547L218.313 244.102L220.862 248.45C220.164 249.345 219.542 250.277 218.99 251.237L214.043 250.57L212.659 253.919L216.647 256.914C216.383 257.898 216.185 258.895 216.051 259.9L211.207 261.141L211.189 264.766L216.019 266.037C216.159 267.145 216.371 268.243 216.665 269.323L212.688 272.345L214.083 275.688L219.026 274.987C219.533 275.858 220.095 276.703 220.721 277.52L218.13 281.85L220.683 284.421L225.046 281.87C225.939 282.566 226.873 283.186 227.834 283.735L227.154 288.673L230.513 290.051L233.519 286.064C234.506 286.324 235.503 286.523 236.508 286.655L237.746 291.488L241.373 291.498L242.661 286.677C243.766 286.539 244.868 286.322 245.951 286.026L248.974 289.991L252.326 288.595L251.631 283.661C252.505 283.155 253.353 282.592 254.169 281.967L258.509 284.548L261.087 281.994L258.537 277.645C259.234 276.752 259.858 275.819 260.41 274.858L265.356 275.527L266.743 272.176L262.752 269.18C263.016 268.198 263.212 267.202 263.35 266.195L268.192 264.955L268.21 261.33L263.379 260.059C263.243 258.951 263.027 257.853 262.734 256.772L266.711 253.751L265.319 250.407L260.372 251.109C259.868 250.237 259.303 249.394 258.681 248.576L261.272 244.246L258.716 241.675L254.355 244.226C253.46 243.53 252.529 242.91 251.562 242.359L252.243 237.42L248.885 236.047L245.878 240.032C244.893 239.77 243.895 239.572 242.889 239.442L241.655 234.608L238.024 234.596L236.74 239.419C235.63 239.557 234.531 239.776 233.445 240.071ZM260.634 255.984C264.526 267.515 258.308 280.027 246.746 283.929C235.185 287.83 222.656 281.644 218.765 270.113C214.873 258.58 221.092 246.068 232.653 242.166C244.214 238.265 256.742 244.45 260.634 255.984Z" fill="white"/>
<path d="M259.684 256.305C263.393 267.296 257.446 279.264 246.425 282.983C235.406 286.702 223.421 280.786 219.711 269.794C216.002 258.801 221.951 246.832 232.971 243.113C243.992 239.395 255.974 245.312 259.684 256.305ZM222.01 269.018C225.293 278.746 235.898 283.983 245.651 280.692C255.404 277.4 260.668 266.808 257.385 257.081C254.102 247.351 243.497 242.114 233.743 245.405C223.991 248.697 218.727 259.29 222.01 269.018Z" fill="white"/>
<path d="M249.636 72.4826L250.161 73.5231C250.996 75.1731 250.59 77.2319 249.1 78.331C247.177 79.7516 244.511 79.0557 243.48 77.0197L243.011 76.0919C242.364 74.8122 240.729 74.4015 239.552 75.2235C238.97 75.628 238.399 76.044 237.838 76.4707C236.722 77.3184 236.586 78.944 237.544 79.9627L238.353 80.8223C239.619 82.1696 239.81 84.2582 238.692 85.7337C237.248 87.6345 234.49 87.7173 232.927 86.0538L232.218 85.3006C231.236 84.2553 229.547 84.3197 228.648 85.444C228.208 85.9948 227.779 86.5559 227.363 87.1219C226.533 88.2491 226.862 89.8442 228.069 90.5513L229.171 91.1974C230.958 92.2438 231.558 94.5601 230.507 96.3454C231.141 98.2235 229.096 99.8827 227.384 98.8787L224.459 97.1662C223.222 96.4398 221.621 96.9765 221.075 98.3029C220.808 98.9543 220.552 99.6105 220.311 100.271C219.831 101.586 220.597 103.027 221.955 103.366L223.192 103.674C225.201 104.175 226.433 106.229 225.928 108.236C225.421 110.243 223.363 111.474 221.353 110.973L220.343 110.72C218.951 110.373 217.566 111.337 217.417 112.762C217.343 113.461 217.283 114.164 217.238 114.869C217.148 116.264 218.289 117.431 219.69 117.373L220.976 117.32C223.047 117.236 224.808 118.859 224.889 120.925L224.887 120.925C224.969 122.993 223.341 124.753 221.27 124.837L220.235 124.879C218.8 124.936 217.741 126.251 218.001 127.661C218.128 128.351 218.27 129.039 218.427 129.728C218.737 131.092 220.159 131.888 221.487 131.44L222.699 131.031C224.664 130.368 226.812 131.429 227.474 133.388C228.135 135.348 227.068 137.494 225.103 138.157L224.124 138.487C222.762 138.947 222.118 140.503 222.765 141.783C223.082 142.413 223.411 143.036 223.752 143.648C224.431 144.871 226.025 145.235 227.172 144.432L228.137 143.758C229.653 142.697 231.754 142.8 233.054 144.115C234.734 145.809 234.419 148.543 232.545 149.855L231.691 150.453C230.512 151.277 230.335 152.953 231.318 153.999C231.802 154.512 232.296 155.015 232.798 155.509C233.796 156.486 235.427 156.386 236.301 155.295L237.105 154.29C238.4 152.673 240.785 152.404 242.402 153.696C244.021 154.987 244.285 157.364 242.991 158.982L242.347 159.785C241.447 160.907 241.751 162.564 242.989 163.29C243.597 163.645 244.212 163.988 244.832 164.32C246.067 164.978 247.604 164.425 248.134 163.131L248.618 161.952C249.406 160.037 251.618 159.112 253.536 159.892C255.454 160.675 256.379 162.882 255.592 164.798L255.2 165.753C254.655 167.081 255.411 168.584 256.804 168.933C257.486 169.104 258.174 169.261 258.864 169.406C260.235 169.692 261.555 168.729 261.703 167.336L261.836 166.065C262.05 164.006 263.912 162.496 265.973 162.706C268.034 162.917 269.547 164.774 269.332 166.831L269.225 167.865C269.077 169.291 270.227 170.522 271.664 170.464C272.368 170.435 273.071 170.393 273.776 170.334C275.173 170.221 276.169 168.926 275.914 167.552L275.682 166.292C275.307 164.257 276.668 162.284 278.707 161.906C280.747 161.529 282.72 162.884 283.096 164.918L283.283 165.932C283.541 167.335 284.985 168.199 286.339 167.742C286.348 167.739 286.358 167.736 286.366 167.733C287.039 167.506 287.704 167.266 288.362 167.014C289.663 166.514 290.241 164.993 289.614 163.751L289.038 162.615C288.105 160.769 288.854 158.494 290.704 157.559C292.554 156.624 294.833 157.37 295.766 159.214L296.237 160.142C296.884 161.421 298.519 161.832 299.697 161.01C300.278 160.606 300.85 160.19 301.41 159.765C302.526 158.917 302.661 157.291 301.704 156.272L300.821 155.334C299.403 153.827 299.481 151.435 300.993 150.018C302.506 148.6 304.903 148.674 306.322 150.182L307.028 150.935C308.012 151.98 309.701 151.915 310.599 150.792C311.039 150.24 311.469 149.681 311.885 149.114C312.713 147.988 312.385 146.392 311.178 145.685L310.076 145.039C308.291 143.992 307.691 141.676 308.741 139.891C308.107 138.013 310.153 136.353 311.864 137.356L314.788 139.069C316.026 139.795 317.627 139.26 318.173 137.933C318.44 137.283 318.694 136.626 318.937 135.965C319.416 134.651 318.65 133.21 317.291 132.87L316.16 132.588C314.362 132.139 313.071 130.489 313.214 128.644C313.4 126.266 315.677 124.709 317.894 125.264L318.903 125.515C320.296 125.864 321.681 124.901 321.832 123.474C321.905 122.775 321.964 122.073 322.009 121.368C322.099 119.973 320.957 118.805 319.557 118.863L318.363 118.912C316.536 118.985 314.853 117.791 314.452 116.011C313.919 113.656 315.675 111.493 317.977 111.399L319.012 111.356C320.448 111.299 321.506 109.984 321.246 108.574C321.116 107.884 320.975 107.195 320.818 106.507C320.51 105.144 319.086 104.348 317.758 104.796L316.547 105.204C314.582 105.867 312.434 104.805 311.773 102.846C311.112 100.886 312.177 98.7411 314.142 98.078L315.121 97.7476C316.482 97.2883 317.126 95.7305 316.481 94.4501C316.164 93.8208 315.835 93.1986 315.493 92.5868C314.814 91.3628 313.22 90.9989 312.071 91.8023L311.11 92.4764C309.591 93.5371 307.492 93.4342 306.191 92.1201C304.511 90.4248 304.827 87.6902 306.701 86.3797L307.555 85.7816C308.734 84.9568 308.912 83.2803 307.927 82.2362C307.443 81.7222 306.95 81.2191 306.448 80.7257C305.447 79.748 303.819 79.8489 302.945 80.9409L302.209 81.8602C301.051 83.3064 299.007 83.7954 297.386 82.9012C295.295 81.7471 294.827 79.0372 296.255 77.2526L296.898 76.4499C297.797 75.3281 297.495 73.6696 296.256 72.9448C295.649 72.5894 295.034 72.2451 294.413 71.9153C293.179 71.2562 291.642 71.8093 291.11 73.1049L290.667 74.1815C289.963 75.8931 288.139 76.9378 286.333 76.5356C284 76.0167 282.785 73.5487 283.652 71.4368L284.045 70.4813C284.589 69.1545 283.833 67.6503 282.442 67.3027C281.758 67.1311 281.072 66.9732 280.382 66.8294C279.008 66.5439 277.689 67.5073 277.542 68.8991L277.409 70.1702C277.196 72.2292 275.333 73.7395 273.27 73.5293C271.434 74.149 269.573 72.6655 269.773 70.7404L270.021 68.3702C270.169 66.9441 269.017 65.7136 267.581 65.7719C266.878 65.801 266.173 65.8436 265.468 65.9003C264.072 66.0154 263.078 67.3095 263.33 68.6843L263.563 69.9449C263.976 72.1897 262.278 74.3574 259.887 74.3941C258.036 74.4218 256.466 73.0284 256.13 71.2114L255.963 70.3037C255.705 68.8998 254.261 68.0367 252.906 68.4939C252.898 68.4966 252.889 68.4996 252.879 68.503C252.206 68.7299 251.541 68.9687 250.885 69.2216C249.583 69.7199 249.006 71.2405 249.636 72.4826ZM234.912 127.256C232.791 119.222 233.591 111.017 236.718 103.843L247.659 109.246C245.89 113.608 245.399 118.507 246.499 123.347L234.912 127.257L234.912 127.256ZM236.471 131.879L248.058 127.969C250.116 132.486 253.475 136.084 257.524 138.482L252.095 149.41C245.261 145.598 239.653 139.555 236.471 131.879ZM256.513 151.495L261.962 140.53C266.288 142.008 271.069 142.255 275.767 140.999L279.661 152.536C271.767 154.834 263.671 154.3 256.513 151.495ZM301.019 135.597C297.327 142.176 291.56 147.623 284.255 150.86L280.342 139.263C284.49 137.181 287.816 133.993 290.078 130.195L301.019 135.597ZM304.433 108.944C306.44 116.544 305.832 124.296 303.114 131.182L292.136 125.761C293.532 121.709 293.849 117.257 292.847 112.854L304.433 108.944ZM288.928 111.602C292.508 122.212 286.789 133.718 276.154 137.307C265.522 140.895 253.999 135.207 250.419 124.597C246.84 113.99 252.558 102.48 263.19 98.8925C273.825 95.3035 285.348 100.995 288.928 111.602ZM302.873 104.322L291.287 108.232C289.416 104.121 286.467 100.772 282.901 98.3947L288.349 87.4289C294.684 91.2611 299.865 97.0599 302.873 104.322ZM284.008 85.1875L278.578 96.1151C274.477 94.4635 269.899 93.9426 265.338 94.8016L261.424 83.2028C269.196 81.353 277.085 82.1911 284.008 85.1875ZM260.646 96.1909C256.149 98.0389 252.494 101.132 249.947 104.928L238.97 99.5085C242.964 92.9394 249.081 87.6079 256.753 84.6534L260.646 96.1909Z" fill="white"/>
<path d="M268.238 180.075C267.434 180.384 267.075 181.328 267.469 182.101L267.796 182.747C268.315 183.775 268.065 185.048 267.145 185.732C265.958 186.608 264.315 186.172 263.675 184.908L263.383 184.329C262.983 183.539 261.974 183.277 261.246 183.785C260.891 184.037 260.534 184.299 260.186 184.558C259.503 185.085 259.423 186.095 260.013 186.727L260.515 187.26C261.297 188.1 261.418 189.399 260.729 190.309C259.841 191.489 258.138 191.535 257.176 190.503L256.735 190.036C256.123 189.382 255.085 189.422 254.533 190.117C254.262 190.458 253.995 190.805 253.742 191.158C253.226 191.852 253.433 192.843 254.181 193.285L254.859 193.69C255.967 194.339 256.34 195.779 255.692 196.888C256.083 198.05 254.826 199.077 253.77 198.454L251.962 197.388C251.197 196.936 250.205 197.267 249.873 198.086C249.707 198.49 249.553 198.898 249.403 199.311C249.109 200.127 249.586 201.019 250.425 201.235L251.189 201.426C252.426 201.741 253.191 203.019 252.882 204.259C252.568 205.512 251.3 206.269 250.061 205.952L249.438 205.796C248.576 205.579 247.722 206.175 247.634 207.062C247.587 207.495 247.558 207.927 247.522 208.362C247.471 209.232 248.179 209.959 249.042 209.929L249.832 209.894C251.112 209.847 252.204 210.852 252.256 212.139C252.305 213.423 251.306 214.508 250.026 214.561L249.392 214.588C248.503 214.623 247.853 215.436 248.012 216.314C248.096 216.739 248.184 217.164 248.284 217.596C248.476 218.436 249.351 218.938 250.173 218.661L250.914 218.411C252.131 218 253.456 218.657 253.868 219.88C254.28 221.101 253.626 222.429 252.409 222.84L251.811 223.042C250.974 223.325 250.576 224.291 250.971 225.083C251.169 225.476 251.376 225.861 251.589 226.242C252.004 227 252.992 227.23 253.703 226.73L254.294 226.315C255.225 225.659 256.529 225.729 257.327 226.541C258.371 227.597 258.179 229.294 257.024 230.109L256.498 230.478C255.768 230.988 255.666 232.027 256.27 232.675C256.571 232.996 256.877 233.31 257.189 233.615C257.805 234.223 258.807 234.166 259.349 233.489L259.845 232.869C260.64 231.867 262.115 231.703 263.112 232.504C264.115 233.308 264.282 234.789 263.482 235.784L263.091 236.286C262.533 236.982 262.726 238.011 263.486 238.465C263.864 238.683 264.241 238.898 264.629 239.106C265.387 239.515 266.337 239.175 266.667 238.366L266.961 237.637C267.446 236.451 268.807 235.879 269.995 236.365C271.176 236.857 271.755 238.228 271.269 239.413L271.028 240.005C270.692 240.83 271.162 241.762 272.024 241.985C272.446 242.094 272.872 242.189 273.298 242.281C274.144 242.457 274.957 241.863 275.047 241.002L275.121 240.206C275.258 238.931 276.403 238.001 277.677 238.131C278.953 238.266 279.884 239.42 279.753 240.697L279.689 241.334C279.601 242.223 280.311 242.984 281.201 242.954C281.635 242.934 282.066 242.91 282.504 242.877C283.364 242.806 283.98 242.004 283.823 241.152L283.675 240.37C283.44 239.108 284.278 237.882 285.533 237.648C286.794 237.42 288.018 238.263 288.249 239.523L288.366 240.157C288.53 241.026 289.417 241.566 290.256 241.283C290.26 241.282 290.268 241.279 290.27 241.278C290.684 241.139 291.098 240.993 291.501 240.836C292.307 240.523 292.663 239.58 292.272 238.807L291.914 238.107C291.337 236.955 291.8 235.547 292.938 234.969C294.083 234.389 295.481 234.855 296.063 236.005L296.357 236.577C296.752 237.374 297.771 237.63 298.492 237.124C298.851 236.869 299.203 236.619 299.546 236.35C300.237 235.826 300.319 234.815 299.727 234.185L299.18 233.598C298.301 232.665 298.349 231.176 299.277 230.299C300.207 229.423 301.689 229.469 302.566 230.41L303.005 230.874C303.613 231.529 304.655 231.489 305.209 230.792C305.482 230.448 305.742 230.106 306.003 229.753C306.512 229.054 306.305 228.064 305.562 227.622L304.876 227.219C303.776 226.566 303.4 225.127 304.044 224.027C303.65 222.859 304.909 221.829 305.974 222.455L307.779 223.52C308.544 223.974 309.532 223.64 309.868 222.815C310.031 222.415 310.188 222.008 310.339 221.602C310.632 220.782 310.155 219.887 309.316 219.674L308.616 219.498C307.51 219.219 306.71 218.19 306.796 217.045C306.906 215.572 308.309 214.606 309.675 214.957L310.3 215.114C311.158 215.334 312.02 214.733 312.104 213.847C312.151 213.414 312.186 212.976 312.211 212.543C312.269 211.673 311.56 210.951 310.693 210.983L309.956 211.015C308.831 211.057 307.791 210.313 307.539 209.203C307.208 207.743 308.288 206.405 309.71 206.351L310.346 206.323C311.236 206.29 311.886 205.478 311.72 204.6C311.643 204.171 311.556 203.74 311.458 203.317C311.266 202.469 310.385 201.973 309.567 202.249L308.817 202.502C307.603 202.911 306.279 202.248 305.868 201.029C305.457 199.813 306.109 198.484 307.323 198.074L307.929 197.87C308.767 197.587 309.165 196.618 308.766 195.828C308.569 195.433 308.364 195.047 308.151 194.667C307.735 193.904 306.747 193.683 306.041 194.175L305.443 194.596C304.511 195.252 303.214 195.181 302.41 194.368C301.374 193.31 301.565 191.613 302.716 190.804L303.237 190.436C303.97 189.921 304.078 188.879 303.472 188.233C303.169 187.911 302.864 187.604 302.549 187.293C301.932 186.685 300.927 186.745 300.389 187.42L299.936 187.995C299.224 188.888 297.964 189.189 296.96 188.632C295.669 187.915 295.379 186.231 296.259 185.124L296.649 184.626C297.204 183.93 297.016 182.903 296.252 182.451C295.878 182.231 295.498 182.018 295.111 181.81C294.348 181.4 293.403 181.741 293.074 182.543L292.801 183.212C292.369 184.272 291.248 184.919 290.127 184.667C288.69 184.342 287.937 182.809 288.47 181.498L288.71 180.907C289.047 180.083 288.576 179.148 287.719 178.931C287.294 178.823 286.87 178.724 286.441 178.632C285.597 178.455 284.778 179.054 284.695 179.912L284.616 180.703C284.483 181.978 283.336 182.914 282.063 182.783C280.929 183.165 279.777 182.243 279.9 181.05L280.051 179.576C280.137 178.69 279.426 177.927 278.538 177.962C278.103 177.977 277.672 178.002 277.234 178.036C276.373 178.105 275.762 178.904 275.916 179.76L276.063 180.542C276.324 181.937 275.278 183.28 273.804 183.3C272.658 183.315 271.687 182.449 271.479 181.321L271.374 180.756C271.209 179.887 270.315 179.347 269.484 179.628C269.478 179.63 269.473 179.631 269.466 179.634C269.052 179.772 268.645 179.917 268.238 180.075ZM288.545 201.017L280.708 208.049L281.272 197.554C283.995 197.916 286.55 199.129 288.545 201.017ZM270.082 201.514L277.129 209.323L266.606 208.783C266.971 206.057 268.191 203.506 270.082 201.514ZM278.653 207.95L271.615 200.142C272.727 199.294 273.982 198.609 275.382 198.137C276.655 197.707 277.944 197.478 279.213 197.453L278.653 207.95ZM273.329 191.488C274.413 191.122 275.596 191.703 275.963 192.791C276.331 193.88 275.741 195.059 274.658 195.425C273.568 195.793 272.383 195.212 272.015 194.123C271.648 193.035 272.239 191.855 273.329 191.488ZM262.875 204.39C261.84 203.885 261.418 202.634 261.936 201.607C262.447 200.575 263.695 200.154 264.722 200.666C265.75 201.172 266.172 202.423 265.662 203.45C265.154 204.477 263.906 204.898 262.875 204.39ZM261.039 216.789C260.671 215.698 261.254 214.524 262.344 214.156C263.433 213.789 264.61 214.369 264.978 215.46C265.343 216.544 264.761 217.723 263.672 218.091C262.582 218.459 261.405 217.873 261.039 216.789ZM267.177 214.657C266.747 213.384 266.524 212.104 266.501 210.833L277.018 211.376L269.185 218.417C268.331 217.31 267.646 216.048 267.177 214.657ZM289.012 219.44L281.982 211.632L292.491 212.177C292.131 214.897 290.91 217.446 289.012 219.44ZM283.727 227.716C283.36 226.63 283.953 225.452 285.039 225.086C286.125 224.719 287.311 225.296 287.677 226.383C288.044 227.47 287.452 228.651 286.365 229.017C285.28 229.384 284.094 228.803 283.727 227.716ZM283.711 222.818C282.446 223.245 281.154 223.466 279.889 223.502L280.45 213.007L287.488 220.811C286.376 221.663 285.108 222.346 283.711 222.818ZM270.555 219.937L278.392 212.889L277.83 223.398C275.098 223.04 272.551 221.827 270.555 219.937ZM271.155 228.145C270.128 227.632 269.709 226.39 270.215 225.362C270.73 224.331 271.975 223.911 273.004 224.421C274.036 224.929 274.455 226.171 273.943 227.204C273.433 228.231 272.187 228.651 271.155 228.145ZM296.819 216.117C297.851 216.628 298.271 217.871 297.76 218.905C297.247 219.936 296.004 220.355 294.968 219.847C293.938 219.334 293.518 218.09 294.027 217.059C294.545 216.033 295.789 215.613 296.819 216.117ZM298.661 203.721C299.028 204.808 298.44 205.983 297.349 206.351C296.262 206.718 295.083 206.139 294.716 205.053C294.349 203.964 294.933 202.782 296.02 202.415C297.112 202.046 298.294 202.633 298.661 203.721ZM291.919 206.307C292.343 207.563 292.577 208.85 292.601 210.122L282.085 209.582L289.916 202.536C290.773 203.647 291.447 204.907 291.919 206.307ZM288.541 192.364C289.569 192.871 289.991 194.121 289.48 195.146C288.964 196.177 287.716 196.599 286.691 196.087C285.657 195.583 285.236 194.334 285.752 193.305C286.257 192.275 287.505 191.854 288.541 192.364Z" fill="white"/>
<path d="M201.189 350.324L201.378 349.915C201.676 349.265 201.489 348.476 200.898 348.073C200.135 347.552 199.115 347.859 198.746 348.66L198.578 349.025C198.346 349.528 197.721 349.711 197.254 349.41C197.024 349.262 196.797 349.11 196.575 348.953C196.131 348.642 196.055 348.015 196.411 347.608L196.711 347.264C197.18 346.726 197.224 345.916 196.771 345.363C196.186 344.648 195.12 344.657 194.539 345.322L194.276 345.623C193.912 346.041 193.259 346.04 192.895 345.619C192.717 345.412 192.543 345.202 192.374 344.989C192.037 344.565 192.141 343.945 192.597 343.654L193.014 343.389C193.688 342.959 193.887 342.055 193.455 341.381C193.673 340.647 192.859 340.035 192.212 340.447L191.107 341.151C190.64 341.45 190.014 341.265 189.784 340.761C189.671 340.513 189.563 340.264 189.46 340.011C189.256 339.509 189.531 338.942 190.051 338.791L190.524 338.656C191.293 338.433 191.739 337.621 191.515 336.854C191.291 336.086 190.477 335.64 189.709 335.862L189.321 335.975C188.789 336.129 188.24 335.777 188.161 335.229C188.123 334.959 188.089 334.69 188.062 334.417C188.008 333.88 188.431 333.412 188.973 333.415L189.47 333.416C190.271 333.419 190.928 332.766 190.93 331.968L190.929 331.967C190.93 331.168 190.277 330.511 189.475 330.509L189.075 330.507C188.52 330.506 188.092 330.013 188.173 329.464C188.212 329.197 188.257 328.928 188.307 328.66C188.407 328.129 188.945 327.8 189.465 327.954L189.939 328.095C190.708 328.323 191.522 327.882 191.749 327.115C191.976 326.348 191.533 325.534 190.765 325.307L190.382 325.193C189.85 325.035 189.578 324.443 189.81 323.94C189.923 323.692 190.041 323.447 190.164 323.205C190.409 322.724 191.02 322.561 191.474 322.853L191.857 323.1C192.458 323.488 193.268 323.418 193.752 322.891C194.377 322.213 194.215 321.16 193.472 320.681L193.134 320.463C192.668 320.162 192.575 319.516 192.939 319.098C193.119 318.894 193.302 318.692 193.489 318.494C193.86 318.102 194.492 318.118 194.846 318.527L195.171 318.903C195.694 319.51 196.621 319.579 197.226 319.057C197.833 318.535 197.901 317.612 197.378 317.006L197.118 316.704C196.755 316.284 196.847 315.639 197.315 315.342C197.545 315.196 197.777 315.054 198.011 314.917C198.479 314.645 199.081 314.837 199.304 315.329L199.508 315.778C199.84 316.505 200.708 316.831 201.437 316.502C202.167 316.172 202.493 315.305 202.162 314.577L201.996 314.213C201.767 313.707 202.037 313.117 202.57 312.961C202.831 312.886 203.095 312.815 203.359 312.749C203.885 312.619 204.409 312.973 204.485 313.508L204.554 313.997C204.667 314.788 205.407 315.346 206.201 315.234C206.993 315.123 207.551 314.384 207.439 313.593L207.383 313.195C207.306 312.646 207.732 312.153 208.288 312.155C208.561 312.156 208.833 312.163 209.105 312.175C209.646 312.199 210.049 312.685 209.971 313.219L209.899 313.709C209.784 314.5 210.338 315.243 211.131 315.36C211.924 315.475 212.667 314.924 212.783 314.133L212.84 313.738C212.92 313.192 213.465 312.838 213.994 312.995C213.997 312.996 214.001 312.997 214.005 312.998C214.268 313.076 214.528 313.16 214.786 313.247C215.296 313.422 215.541 314.001 215.317 314.49L215.111 314.937C214.777 315.664 215.099 316.532 215.827 316.867C216.555 317.201 217.425 316.88 217.759 316.154L217.927 315.789C218.158 315.285 218.784 315.104 219.251 315.404C219.481 315.552 219.708 315.704 219.931 315.861C220.375 316.173 220.45 316.799 220.095 317.207L219.768 317.582C219.243 318.184 219.307 319.107 219.911 319.633C220.516 320.159 221.441 320.096 221.967 319.493L222.229 319.192C222.595 318.774 223.248 318.775 223.611 319.196C223.788 319.403 223.962 319.613 224.131 319.826C224.468 320.249 224.363 320.871 223.907 321.16L223.491 321.426C222.816 321.856 222.617 322.76 223.048 323.434C222.83 324.169 223.645 324.78 224.291 324.369L225.396 323.664C225.864 323.365 226.49 323.55 226.72 324.055C226.833 324.302 226.94 324.552 227.045 324.803C227.248 325.305 226.973 325.873 226.454 326.023L226.02 326.148C225.333 326.347 224.857 327.003 224.939 327.714C225.046 328.63 225.947 329.198 226.796 328.952L227.182 328.84C227.715 328.685 228.264 329.037 228.343 329.585C228.381 329.855 228.414 330.125 228.442 330.397C228.496 330.933 228.072 331.401 227.531 331.4L227.069 331.398C226.362 331.396 225.729 331.882 225.6 332.575C225.428 333.492 226.137 334.303 227.028 334.306L227.428 334.308C227.984 334.309 228.411 334.803 228.331 335.352C228.291 335.619 228.246 335.888 228.196 336.156C228.096 336.687 227.558 337.015 227.039 336.861L226.565 336.72C225.796 336.492 224.981 336.933 224.754 337.699C224.527 338.466 224.97 339.279 225.738 339.507L226.121 339.621C226.654 339.779 226.926 340.371 226.694 340.875C226.581 341.122 226.463 341.367 226.339 341.609C226.094 342.09 225.484 342.255 225.029 341.961L224.648 341.714C224.046 341.327 223.237 341.397 222.753 341.923C222.129 342.602 222.29 343.654 223.032 344.133L223.371 344.352C223.838 344.653 223.931 345.298 223.566 345.716C223.386 345.922 223.203 346.123 223.017 346.321C222.645 346.713 222.014 346.697 221.66 346.288L221.363 345.944C220.895 345.401 220.099 345.241 219.485 345.611C218.694 346.087 218.552 347.14 219.13 347.808L219.389 348.11C219.752 348.53 219.66 349.175 219.191 349.473C218.962 349.619 218.73 349.761 218.494 349.897C218.027 350.169 217.426 349.978 217.201 349.487L217.015 349.077C216.719 348.425 215.999 348.048 215.307 348.23C214.413 348.465 213.98 349.436 214.345 350.239L214.51 350.602C214.74 351.107 214.469 351.699 213.937 351.853C213.675 351.929 213.412 352 213.148 352.066C212.622 352.196 212.098 351.842 212.021 351.308L211.952 350.819C211.84 350.026 211.099 349.47 210.304 349.581C209.586 349.368 208.888 349.968 208.994 350.71L209.124 351.622C209.202 352.171 208.774 352.662 208.218 352.66C207.947 352.66 207.674 352.653 207.401 352.642C206.86 352.617 206.458 352.131 206.534 351.597L206.606 351.106C206.733 350.234 206.047 349.421 205.121 349.441C204.407 349.457 203.82 350.018 203.716 350.724L203.664 351.078C203.585 351.624 203.039 351.978 202.51 351.821C202.507 351.82 202.503 351.819 202.499 351.818C202.236 351.74 201.976 351.657 201.719 351.569C201.209 351.393 200.965 350.813 201.189 350.324ZM194.712 329.378C194.009 332.512 194.436 335.67 195.748 338.396L199.895 336.151C199.149 334.492 198.888 332.607 199.243 330.721L194.712 329.378ZM195.248 327.57L199.78 328.913C200.51 327.139 201.756 325.7 203.286 324.716L201.032 320.573C198.446 322.144 196.366 324.558 195.248 327.57ZM202.708 319.704L204.971 323.861C206.621 323.228 208.464 323.064 210.297 323.481L211.634 318.968C208.552 318.194 205.431 318.517 202.708 319.704ZM220.129 325.203C218.608 322.714 216.302 320.695 213.433 319.549L212.089 324.085C213.721 324.829 215.052 326.013 215.981 327.447L220.129 325.203ZM221.832 335.45C222.498 332.486 222.151 329.5 221.002 326.879L216.84 329.131C217.438 330.676 217.624 332.391 217.301 334.107L221.832 335.45ZM211.925 333.497C212.522 331.484 211.37 329.368 209.352 328.77C207.335 328.172 205.215 329.319 204.618 331.332C204.022 333.344 205.174 335.461 207.192 336.059C209.21 336.657 211.329 335.509 211.925 333.497ZM221.296 337.258L216.764 335.915C216.1 337.529 215.01 338.865 213.666 339.836L215.928 343.992C218.32 342.422 220.238 340.106 221.296 337.258ZM214.285 344.921L212.03 340.777C210.469 341.475 208.708 341.742 206.934 341.476L205.589 346.012C208.617 346.616 211.653 346.178 214.285 344.921ZM205.101 341.007C203.337 340.358 201.881 339.216 200.842 337.786L196.68 340.038C198.317 342.518 200.757 344.49 203.763 345.52L205.101 341.007Z" fill="white"/>
<path d="M178.213 283.798C179.252 280.293 182.957 278.289 186.47 279.33C189.984 280.371 191.998 284.07 190.959 287.575C189.92 291.08 186.215 293.085 182.701 292.044C179.188 291.002 177.174 287.304 178.213 283.798ZM187.41 286.523C187.87 284.971 186.977 283.331 185.42 282.869C183.864 282.408 182.223 283.297 181.762 284.85C181.302 286.403 182.194 288.042 183.75 288.503C185.307 288.964 186.949 288.077 187.41 286.523Z" fill="white"/>
<path d="M180.026 305.325L177.568 308.819L174.651 307.731L175.088 303.482C174.324 303.078 173.58 302.62 172.859 302.112L169.226 304.461L166.936 302.356L168.98 298.549C168.354 297.805 167.79 297.027 167.286 296.221L163.07 296.951L161.778 294.125L165.099 291.431C164.843 290.596 164.64 289.749 164.493 288.894L160.304 287.985L160.172 284.881L164.27 283.635C164.352 282.684 164.502 281.735 164.718 280.8L161.214 278.339L162.302 275.431L166.56 275.873C166.965 275.111 167.421 274.368 167.93 273.65L165.572 270.022L167.677 267.738L171.495 269.784C172.239 269.161 173.018 268.598 173.824 268.096L173.085 263.888L175.918 262.601L178.621 265.919C179.457 265.665 180.305 265.464 181.163 265.316L182.067 261.138L185.176 261.012L186.432 265.102C187.384 265.186 188.335 265.335 189.274 265.554L191.733 262.06L194.649 263.149L194.212 267.397C194.977 267.802 195.721 268.259 196.442 268.767L200.074 266.418L202.366 268.522L200.32 272.33C200.946 273.073 201.51 273.851 202.014 274.657L206.23 273.925L207.522 276.752L204.201 279.445C204.459 280.279 204.66 281.126 204.808 281.982L208.996 282.891L209.127 285.995L205.03 287.241C204.947 288.192 204.798 289.141 204.581 290.075L208.086 292.536L206.999 295.444L202.741 295.002C202.336 295.764 201.88 296.507 201.372 297.225L203.73 300.854L201.623 303.137L197.806 301.09C197.062 301.714 196.283 302.276 195.476 302.778L196.215 306.985L193.384 308.271L190.68 304.953C189.845 305.208 188.995 305.409 188.139 305.553L187.234 309.733L184.124 309.86L182.87 305.77C181.916 305.693 180.966 305.543 180.026 305.325ZM199.742 289.916C202.207 281.601 197.447 272.859 189.113 270.388C180.778 267.918 172.023 272.655 169.559 280.969C167.094 289.283 171.853 298.026 180.189 300.497C188.523 302.967 197.278 298.23 199.742 289.916Z" fill="white"/>
</svg>
