<svg width="17" height="18" viewBox="0 0 17 18" fill="none" xmlns="http://www.w3.org/2000/svg">
<mask id="path-1-inside-1_642_2933" fill="white">
<path fill-rule="evenodd" clip-rule="evenodd" d="M8.00522 0C3.58406 0 0 3.58406 0 8.00522C0 11.7126 2.52026 14.8314 5.941 15.7418L7.84551 17.6463C8.04077 17.8416 8.35736 17.8416 8.55262 17.6463L10.628 15.5709C13.761 14.4849 16.0104 11.5078 16.0104 8.00522C16.0104 3.58406 12.4264 0 8.00522 0Z"/>
</mask>
<path d="M5.941 15.7418L6.50668 15.1761L6.35459 15.024L6.14674 14.9687L5.941 15.7418ZM7.84551 17.6463L7.27982 18.212L7.27983 18.212L7.84551 17.6463ZM8.55262 17.6463L9.1183 18.212L9.1183 18.212L8.55262 17.6463ZM10.628 15.5709L10.366 14.815L10.1923 14.8752L10.0623 15.0052L10.628 15.5709ZM0.8 8.00522C0.8 4.02589 4.02589 0.8 8.00522 0.8V-0.8C3.14223 -0.8 -0.8 3.14223 -0.8 8.00522H0.8ZM6.14674 14.9687C3.0676 14.1492 0.8 11.341 0.8 8.00522H-0.8C-0.8 12.0843 1.97293 15.5136 5.73526 16.5149L6.14674 14.9687ZM8.4112 17.0806L6.50668 15.1761L5.37531 16.3075L7.27982 18.212L8.4112 17.0806ZM7.98693 17.0806C8.10409 16.9634 8.29404 16.9634 8.41119 17.0806L7.27983 18.212C7.78751 18.7197 8.61062 18.7197 9.1183 18.212L7.98693 17.0806ZM10.0623 15.0052L7.98693 17.0806L9.1183 18.212L11.1937 16.1366L10.0623 15.0052ZM15.2104 8.00522C15.2104 11.1565 13.1869 13.8372 10.366 14.815L10.89 16.3268C14.3351 15.1327 16.8104 11.859 16.8104 8.00522H15.2104ZM8.00522 0.8C11.9846 0.8 15.2104 4.02589 15.2104 8.00522H16.8104C16.8104 3.14223 12.8682 -0.8 8.00522 -0.8V0.8Z" fill="#B8BFCF" mask="url(#path-1-inside-1_642_2933)"/>
<path d="M8.32366 13.0002H7.49166V5.80017H8.32366V13.0002ZM7.34766 3.00017C7.34766 2.84017 7.40632 2.71217 7.52366 2.61617C7.64099 2.52017 7.77966 2.47217 7.93966 2.47217C8.07832 2.47217 8.20099 2.5255 8.30766 2.63217C8.42499 2.72817 8.48366 2.85083 8.48366 3.00017C8.48366 3.1815 8.43032 3.3255 8.32366 3.43217C8.22766 3.53884 8.09966 3.59217 7.93966 3.59217C7.76899 3.59217 7.62499 3.53884 7.50766 3.43217C7.40099 3.3255 7.34766 3.1815 7.34766 3.00017Z" fill="#B8BFCF"/>
</svg>
