<svg width="370" height="11" viewBox="0 0 370 11" fill="none" xmlns="http://www.w3.org/2000/svg">
<path d="M2.01953 8.37756L7.36669 3.13974C8.73127 1.80306 10.9143 1.80306 12.2788 3.13974L15.1699 5.97171C16.5345 7.30839 18.7175 7.30839 20.0821 5.97171L22.9732 3.13974C24.3377 1.80306 26.5207 1.80306 27.8853 3.13974L31.3338 6.51769C32.6983 7.85437 34.8813 7.85437 36.2459 6.51769L39.6944 3.13974C41.059 1.80306 43.2419 1.80306 44.6065 3.13974L48.055 6.51769C49.4196 7.85437 51.6025 7.85437 52.9671 6.51769L56.4156 3.13974C57.7802 1.80306 59.9631 1.80306 61.3277 3.13974L64.7762 6.51769C66.1408 7.85437 68.3238 7.85437 69.6883 6.51769L73.1368 3.13974C74.5014 1.80306 76.6844 1.80306 78.0489 3.13974L81.4974 6.51769C82.862 7.85437 85.045 7.85437 86.4095 6.51769L89.858 3.13974C91.2226 1.80306 93.4056 1.80306 94.7702 3.13974L98.2186 6.51769C99.5832 7.85437 101.766 7.85437 103.131 6.51769L106.579 3.13974C107.944 1.80306 110.127 1.80306 111.491 3.13974L114.94 6.51769C116.304 7.85437 118.487 7.85437 119.852 6.51769L123.3 3.13974C124.665 1.80306 126.848 1.80306 128.213 3.13974L131.661 6.51769C133.026 7.85437 135.209 7.85437 136.573 6.51769L140.022 3.13974C141.386 1.80306 143.569 1.80306 144.934 3.13974L148.382 6.51769C149.747 7.85437 151.93 7.85437 153.294 6.51769L156.743 3.13974C158.107 1.80306 160.29 1.80306 161.655 3.13974L165.103 6.51769C166.468 7.85437 168.651 7.85437 170.016 6.51769L173.464 3.13974C174.829 1.80306 177.012 1.80306 178.376 3.13974L181.825 6.51769C183.189 7.85437 185.372 7.85437 186.737 6.51769L190.185 3.13974C191.55 1.80306 193.733 1.80306 195.097 3.13974L198.546 6.51769C199.91 7.85437 202.093 7.85437 203.458 6.51769L206.906 3.13974C208.271 1.80306 210.454 1.80306 211.819 3.13974L215.267 6.51769C216.632 7.85437 218.815 7.85437 220.179 6.51769L223.628 3.13974C224.992 1.80306 227.175 1.80306 228.54 3.13974L231.988 6.51769C233.353 7.85437 235.536 7.85437 236.9 6.51769L240.349 3.13974C241.714 1.80306 243.896 1.80306 245.261 3.13974L248.71 6.51769C250.074 7.85437 252.257 7.85437 253.622 6.51769L257.07 3.13974C258.435 1.80306 260.618 1.80306 261.982 3.13974L265.431 6.51769C266.795 7.85437 268.978 7.85437 270.343 6.51769L273.791 3.13974C275.156 1.80306 277.339 1.80306 278.703 3.13974L282.152 6.51769C283.517 7.85437 285.7 7.85437 287.064 6.51769L290.513 3.13974C291.877 1.80306 294.06 1.80306 295.425 3.13974L298.873 6.51769C300.238 7.85437 302.421 7.85437 303.785 6.51769L307.234 3.13974C308.598 1.80306 310.781 1.80306 312.146 3.13974L315.594 6.51769C316.959 7.85437 319.142 7.85437 320.507 6.51769L323.955 3.13974C325.32 1.80306 327.503 1.80306 328.867 3.13974L332.316 6.51769C333.68 7.85437 335.863 7.85437 337.228 6.51769L340.676 3.13974C342.041 1.80306 344.224 1.80306 345.588 3.13974L349.037 6.51769C350.401 7.85437 352.584 7.85437 353.949 6.51769L357.397 3.13974C358.762 1.80306 360.945 1.80306 362.31 3.13974L368.214 8.92354" stroke="#FB7E01" stroke-width="3.50985"/>
</svg>
