<svg width="79" height="79" viewBox="0 0 79 79" fill="none" xmlns="http://www.w3.org/2000/svg">
<path d="M31.7271 72.8525L31.4674 72.0655C31.7107 71.8904 31.9923 71.7757 32.2888 71.7308C32.6372 71.6718 32.9931 71.6718 33.3415 71.7308C33.7243 71.7753 34.0942 71.8963 34.4292 72.0866C34.7641 72.2769 35.0573 72.5325 35.2911 72.8384C35.5159 73.1528 35.6738 73.5099 35.755 73.8877C35.8361 74.2654 35.8389 74.6557 35.7632 75.0346C35.673 75.7938 35.2883 76.4876 34.6916 76.9669C34.3784 77.1984 34.0192 77.3602 33.6381 77.4415C33.2571 77.5228 32.863 77.5217 32.4824 77.4382C31.8637 77.3751 31.2919 77.0804 30.8821 76.6134L31.4297 75.963C31.7611 76.2681 32.1777 76.4653 32.624 76.5286C32.8648 76.5735 33.1124 76.5673 33.3507 76.5105C33.589 76.4537 33.8126 76.3474 34.0071 76.1987C34.4157 75.8648 34.6767 75.3842 34.7341 74.8602C34.7848 74.603 34.7834 74.3383 34.7299 74.0817C34.6764 73.8251 34.5719 73.5818 34.4225 73.3662C34.2666 73.1595 34.0704 72.9866 33.8456 72.8578C33.6209 72.729 33.3723 72.647 33.1149 72.6169C32.6389 72.5371 32.1499 72.6202 31.7271 72.8525Z" fill="#FB7E01"/>
<path d="M28.3378 75.4394L30.0797 75.9767L29.8059 76.8533L25.3827 75.4912L25.6518 74.6146L27.3937 75.1472L28.7768 70.6699L29.7209 70.9621L28.3378 75.4394Z" fill="#FB7E01"/>
<path d="M26.1946 69.7556L27.0915 70.1892L22.4984 74.2187L21.7195 73.8417L22.0358 67.7432L22.9799 68.2145L22.8808 69.7603L25.0428 70.8066L26.1946 69.7556ZM22.8194 70.7406L22.6872 72.8944L24.3016 71.4569L22.8194 70.7406Z" fill="#FB7E01"/>
<path d="M22.0452 67.8653L18.5331 68.8927L18.6086 72.3049L17.7023 71.6262L17.6787 68.2659L16.0737 70.4056L15.29 69.8212L16.8951 67.6768L13.6615 68.6194L12.7504 67.936L16.0548 67.0594V63.3975L16.9659 64.0761L16.9139 67.6721L18.6606 65.3439L19.4442 65.933L17.6976 68.2612L21.1483 67.2055L22.0452 67.8653Z" fill="#FB7E01"/>
<path d="M12.3585 62.1865L13.9163 60.8858L14.5489 61.6398L10.2437 65.2452L9.77164 64.6655L9.20045 64.034C8.97248 63.7692 8.78769 63.4702 8.65286 63.148C8.54723 62.9031 8.50502 62.6357 8.53012 62.3703C8.55693 62.1461 8.62921 61.9296 8.74255 61.7341C8.85771 61.5345 9.00804 61.3573 9.18629 61.211C9.3691 61.0536 9.58267 60.9359 9.81346 60.8653C10.0442 60.7947 10.2872 60.7728 10.5269 60.8009C10.7995 60.8382 11.0619 60.9295 11.2987 61.0695C11.5354 61.2096 11.7417 61.3955 11.9054 61.6163C12.1178 61.8661 12.2688 62.0546 12.3585 62.1865ZM9.85189 63.3695L10.324 63.8973L11.6457 62.7898C11.4852 62.5541 11.3436 62.3703 11.2256 62.229C11.0604 62.0131 10.825 61.8615 10.56 61.8001C10.4347 61.7795 10.3063 61.7884 10.185 61.826C10.0637 61.8636 9.95288 61.929 9.86133 62.0169C9.40815 62.3845 9.40816 62.8558 9.85189 63.3695Z" fill="#FB7E01"/>
<path d="M11.4427 57.7658L11.9572 58.6141L5.89597 59.4955L5.44751 58.7555L9.03989 53.8164L9.58276 54.7166L8.63864 55.9561L9.88016 58.0062L11.4427 57.7658ZM8.07216 56.7573L6.78817 58.4869L8.92188 58.1617L8.07216 56.7573Z" fill="#FB7E01"/>
<path d="M8.83697 53.199L3.64432 55.3292L2.39807 52.2988L3.2525 51.95L4.12109 54.0661L5.28236 53.5949C5.1555 53.3771 5.04504 53.1503 4.95192 52.9162C4.73624 52.4624 4.69917 51.9444 4.84806 51.4646C4.9279 51.2487 5.05363 51.0527 5.21661 50.89C5.3796 50.7273 5.57596 50.6017 5.79218 50.522C6.02094 50.4111 6.27193 50.3535 6.52623 50.3535C6.78054 50.3535 7.03153 50.4111 7.2603 50.522C7.75186 50.8192 8.12288 51.2797 8.30825 51.8228C8.35546 51.9406 8.45932 52.2045 8.6151 52.6146C8.64815 52.69 8.68119 52.7748 8.71423 52.8643C8.74728 52.9539 8.7756 53.0246 8.78976 53.0717L8.83697 53.199ZM5.82994 52.6381C5.91724 52.8472 6.01817 53.0502 6.13207 53.2461L7.60961 52.6381C7.52937 52.3883 7.45855 52.1904 7.40191 52.049C7.13755 51.4128 6.75046 51.196 6.23592 51.4081C6.12717 51.4468 6.02839 51.5091 5.94675 51.5907C5.8651 51.6722 5.80264 51.7708 5.76386 51.8793C5.69146 52.1318 5.71499 52.402 5.82994 52.6381Z" fill="#FB7E01"/>
<path d="M4.44213 49.8532C4.07207 49.9457 3.68723 49.9632 3.31026 49.905C2.93329 49.8467 2.57178 49.7137 2.24704 49.5139C1.91847 49.3065 1.63562 49.0345 1.41569 48.7144C1.19577 48.3944 1.04336 48.033 0.967764 47.6523C0.869924 47.2799 0.847504 46.8918 0.901813 46.5106C0.956122 46.1294 1.08607 45.7629 1.28405 45.4325C1.48928 45.1042 1.75983 44.8215 2.07894 44.6018C2.39805 44.3821 2.75893 44.2302 3.13924 44.1553C3.51278 44.059 3.9022 44.0407 4.28315 44.1015C4.66409 44.1623 5.02838 44.301 5.3532 44.5088C5.67809 44.7177 5.95754 44.9898 6.17489 45.3088C6.39223 45.6278 6.54304 45.9873 6.61832 46.3657C6.71561 46.7376 6.73733 47.1252 6.6822 47.5056C6.62707 47.8861 6.4962 48.2516 6.29732 48.5807C6.0938 48.9101 5.82366 49.1933 5.50421 49.4124C5.18476 49.6316 4.82302 49.7817 4.44213 49.8532ZM4.21081 48.8353C4.46512 48.7864 4.70714 48.6875 4.92273 48.5443C5.13833 48.4011 5.32317 48.2164 5.46649 48.0011C5.60469 47.7959 5.69836 47.5641 5.74145 47.3206C5.78454 47.0771 5.7761 46.8273 5.71668 46.5872C5.67271 46.3342 5.57332 46.094 5.42562 45.8839C5.27792 45.6737 5.08556 45.4986 4.86226 45.3713C4.40928 45.1196 3.87604 45.0537 3.37527 45.1875C3.11871 45.2367 2.8746 45.3368 2.65733 45.4816C2.44006 45.6265 2.25403 45.8133 2.11016 46.0311C1.97611 46.2381 1.88529 46.4701 1.84311 46.713C1.80093 46.956 1.80826 47.2049 1.86467 47.4449C1.91453 47.6909 2.01495 47.9239 2.15958 48.1291C2.30421 48.3343 2.48991 48.5074 2.70494 48.6373C3.16102 48.8992 3.70237 48.9704 4.21081 48.8353Z" fill="#FB7E01"/>
<path d="M1.09517 41.7751L1.20847 43.5895L0.28795 43.6461L0 39.0322L0.920508 38.9756L1.03381 40.7901L5.72136 40.4979L5.78273 41.4829L1.09517 41.7751Z" fill="#FB7E01"/>
<path d="M0.00476074 37.406L0.11334 36.4257L2.02518 36.6331C2.02518 36.4021 2.02517 36.1948 2.0535 36.0063C2.07714 35.4549 2.3061 34.9322 2.69551 34.5406C2.88542 34.3823 3.10726 34.2667 3.34593 34.2016C3.5846 34.1365 3.8345 34.1235 4.07864 34.1635C4.34535 34.1797 4.60494 34.2559 4.83794 34.3865C5.07094 34.5171 5.2713 34.6987 5.42401 34.9176C5.73789 35.4292 5.85685 36.0364 5.75917 36.6284C5.72613 36.9253 5.69309 37.1798 5.66477 37.3966C5.63644 37.6134 5.61284 37.816 5.58923 38.0093L0.00476074 37.406ZM6.16986 32.6931L6.06601 33.664L0.481546 33.0607L0.585399 32.0898L6.16986 32.6931ZM2.96458 36.2042C2.96458 36.2891 2.96458 36.4728 2.96458 36.7509L4.79145 36.9489C4.79145 36.9064 4.79145 36.8216 4.82921 36.6944C4.86698 36.5671 4.86697 36.4776 4.8717 36.4257C4.95195 35.6952 4.664 35.2946 4.00783 35.2192C3.88178 35.1981 3.75257 35.2057 3.62992 35.2416C3.50727 35.2776 3.39437 35.3408 3.29974 35.4266C3.09973 35.6383 2.98103 35.9137 2.96458 36.2042Z" fill="#FB7E01"/>
<path d="M4.50809 29.6109C4.4332 29.5895 4.36351 29.5529 4.30341 29.5035C4.2433 29.454 4.19407 29.3927 4.15877 29.3234C4.08348 29.1779 4.06823 29.0087 4.11629 28.8521C4.13716 28.7771 4.17356 28.7073 4.22317 28.6472C4.27277 28.5871 4.33446 28.5381 4.40424 28.5033C4.54011 28.4297 4.69963 28.4128 4.84797 28.4562C4.92869 28.4768 5.00448 28.5133 5.07094 28.5635C5.1374 28.6136 5.19319 28.6765 5.23507 28.7484C5.28262 28.8162 5.3134 28.8942 5.32489 28.9761C5.33638 29.058 5.32824 29.1415 5.30115 29.2197C5.27995 29.3032 5.24121 29.3813 5.1875 29.4487C5.13378 29.5162 5.06632 29.5714 4.98959 29.6109C4.91354 29.6435 4.83163 29.6604 4.74885 29.6604C4.66606 29.6604 4.58413 29.6435 4.50809 29.6109Z" fill="#FB7E01"/>
<path d="M8.44045 22.65L9.26656 22.617C9.36858 22.8973 9.40255 23.1977 9.36568 23.4936C9.33246 23.8459 9.23989 24.1901 9.09188 24.5116C8.94359 24.8661 8.72555 25.1872 8.45067 25.456C8.17578 25.7247 7.84965 25.9357 7.49161 26.0763C7.12664 26.2059 6.73893 26.2594 6.35244 26.2334C5.96595 26.2075 5.5889 26.1027 5.2446 25.9255C4.53923 25.6282 3.97724 25.0688 3.67736 24.3655C3.53853 24.0009 3.47935 23.6108 3.50378 23.2215C3.5282 22.8322 3.63567 22.4525 3.81898 22.108C4.05068 21.5326 4.4904 21.065 5.05105 20.7979L5.52311 21.5048C5.13825 21.74 4.83252 22.0847 4.64509 22.4945C4.53729 22.713 4.47617 22.9516 4.4656 23.195C4.45504 23.4384 4.49526 23.6813 4.58372 23.9084C4.79168 24.3935 5.18382 24.7765 5.67417 24.9735C5.90677 25.0938 6.16136 25.1659 6.4226 25.1853C6.68384 25.2048 6.94632 25.1712 7.19421 25.0866C7.43751 24.9961 7.6595 24.8565 7.84631 24.6765C8.03313 24.4964 8.18074 24.2799 8.27994 24.0403C8.48661 23.6076 8.5431 23.1184 8.44045 22.65Z" fill="#FB7E01"/>
<path d="M6.8733 18.6861L5.88197 20.2084L5.10779 19.7088L7.6286 15.8301L8.40277 16.3344L7.41144 17.8566L11.3484 20.411L10.8103 21.2358L6.8733 18.6861Z" fill="#FB7E01"/>
<path d="M12.9344 18.1682L12.2735 18.9129L9.6394 13.4035L10.2153 12.7578L16.0075 14.7231L15.3088 15.5054L13.8455 14.9917L12.2499 16.7826L12.9344 18.1682ZM12.9013 14.6571L10.8668 13.9455L11.8109 15.8872L12.9013 14.6571Z" fill="#FB7E01"/>
<path d="M15.8754 14.7185L15.8518 11.0613L12.5474 10.1989L13.449 9.51549L16.6968 10.4109L15.0682 8.28541L15.8518 7.6916L17.4757 9.82183V6.46152L18.382 5.77344L18.3254 9.18086L21.8564 10.1847L20.95 10.8728L17.4993 9.84068L19.2648 12.1547L18.4812 12.7438L16.7204 10.4298L16.7912 14.0305L15.8754 14.7185Z" fill="#FB7E01"/>
<path d="M23.9996 6.9756L24.8257 8.82777L23.924 9.22837L21.6393 4.10544L22.3332 3.78968C22.5834 3.66714 22.8336 3.55402 23.0885 3.44091C23.4063 3.29326 23.7458 3.19777 24.094 3.15814C24.3594 3.12442 24.629 3.15848 24.8776 3.25712C25.0865 3.34469 25.2758 3.47285 25.4346 3.63414C25.5943 3.79967 25.7223 3.99293 25.8123 4.2044C25.9168 4.4247 25.9734 4.66461 25.9782 4.90832C25.9831 5.15203 25.9362 5.39399 25.8406 5.61828C25.613 6.12409 25.1937 6.51905 24.6746 6.71639C24.3772 6.83422 24.1506 6.92375 23.9996 6.9756ZM23.5558 4.24211L22.9138 4.54373L23.6172 6.11784C23.8863 6.0283 24.0893 5.94347 24.2687 5.87278C24.5255 5.77694 24.7387 5.59098 24.8682 5.34965C24.9262 5.23661 24.9564 5.1114 24.9564 4.98439C24.9564 4.85738 24.9262 4.73219 24.8682 4.61914C24.618 4.0913 24.1837 3.9452 23.5558 4.24211Z" fill="#FB7E01"/>
<path d="M28.5171 7.30958L27.573 7.56878L28.3897 1.52211L29.2252 1.2959L33.0017 6.09836L31.9867 6.37642L31.0426 5.14634L28.7248 5.77316L28.5171 7.30958ZM30.4054 4.35457L29.0883 2.64378L28.8145 4.78345L30.4054 4.35457Z" fill="#FB7E01"/>
<path d="M33.639 6.06L33.0017 0.484629L36.2636 0.112305L36.3675 1.03133L34.0874 1.29053L34.2291 2.53003C34.4743 2.46894 34.7235 2.42485 34.9749 2.39807C35.4676 2.31442 35.9737 2.42054 36.3911 2.69498C36.5776 2.83103 36.7322 3.00611 36.8439 3.208C36.9556 3.40989 37.0218 3.63369 37.0378 3.86378C37.0826 4.11511 37.0689 4.37336 36.9976 4.61854C36.9264 4.86371 36.7996 5.08923 36.6271 5.27765C36.2093 5.67301 35.6632 5.90548 35.0882 5.93275L34.2432 6.01288L33.9694 6.04115H33.7523L33.639 6.06ZM34.9985 3.3218C34.7741 3.34943 34.5517 3.39195 34.3329 3.44905L34.517 5.03258C34.7814 5.03258 34.9891 5.01845 35.1401 4.99017C35.8293 4.91476 36.1409 4.599 36.0843 4.04759C36.0774 3.93305 36.0455 3.82139 35.9909 3.72044C35.9363 3.61949 35.8602 3.5317 35.768 3.46319C35.539 3.31958 35.2637 3.26897 34.9985 3.3218Z" fill="#FB7E01"/>
<path d="M38.0527 2.74749C38.0651 2.36498 38.1552 1.98898 38.3175 1.64226C38.4798 1.29553 38.7109 0.985305 38.9968 0.730366C39.2863 0.471298 39.6257 0.273775 39.9941 0.14981C40.3626 0.0258448 40.7524 -0.0219692 41.14 0.00929142C41.5257 0.016587 41.9061 0.100811 42.2587 0.257018C42.6114 0.413225 42.9291 0.638258 43.1934 0.91888C43.4533 1.20575 43.6516 1.54283 43.7758 1.90924C43.9 2.27565 43.9476 2.66361 43.9157 3.04912C43.9071 3.43439 43.8188 3.81373 43.6563 4.16329C43.4938 4.51285 43.2607 4.82509 42.9715 5.08039C42.6815 5.33506 42.3432 5.52888 41.9766 5.65033C41.6101 5.77178 41.2228 5.81837 40.8378 5.78732C40.453 5.77888 40.0737 5.69411 39.722 5.53796C39.3702 5.3818 39.0531 5.15738 38.7891 4.87774C38.5247 4.59331 38.3227 4.25695 38.1959 3.89015C38.0691 3.52335 38.0203 3.13417 38.0527 2.74749ZM39.0959 2.79934C39.0753 3.05821 39.1065 3.31859 39.1875 3.56535C39.2685 3.81211 39.3979 4.04033 39.568 4.23677C39.7294 4.4277 39.9292 4.58259 40.1545 4.69139C40.3798 4.80019 40.6255 4.86046 40.8756 4.8683C41.1318 4.89713 41.3912 4.86991 41.6357 4.78852C41.8803 4.70713 42.1042 4.57353 42.2918 4.39701C42.6582 4.02946 42.868 3.53462 42.8771 3.01613C42.8987 2.75574 42.8681 2.49367 42.7871 2.24523C42.706 1.9968 42.5761 1.767 42.4051 1.56926C42.242 1.38096 42.0417 1.22845 41.8166 1.12137C41.5915 1.0143 41.3467 0.954986 41.0975 0.94717C40.8482 0.925464 40.5972 0.956185 40.3606 1.03736C40.1239 1.11854 39.907 1.24838 39.7238 1.41846C39.5321 1.59515 39.3778 1.80834 39.27 2.0455C39.1622 2.28266 39.103 2.53899 39.0959 2.79934Z" fill="#FB7E01"/>
<path d="M46.7717 1.74836L44.9921 1.3572L45.1903 0.457031L49.7127 1.45617L49.5144 2.35162L47.7347 1.96045L46.7245 6.53668L45.7568 6.3246L46.7717 1.74836Z" fill="#FB7E01"/>
<path d="M51.2421 1.89941L52.1579 2.27174L51.431 4.05322C51.6329 4.1078 51.8314 4.17388 52.0258 4.25115C52.5516 4.42311 52.9932 4.78659 53.2626 5.26914C53.3635 5.4912 53.4157 5.73223 53.4157 5.97608C53.4157 6.21993 53.3635 6.46096 53.2626 6.68302C53.1737 6.93394 53.029 7.16146 52.8393 7.34841C52.6496 7.53537 52.4199 7.67688 52.1674 7.76228C51.5898 7.92566 50.9723 7.87374 50.4302 7.61618L49.7127 7.31454L49.1415 7.07419L51.2421 1.89941ZM51.6056 5.07121L51.0816 4.90625L50.3877 6.6029L50.6237 6.71129L50.8692 6.8244C51.5521 7.10089 52.0242 6.93594 52.2854 6.32955C52.3406 6.21485 52.3693 6.08921 52.3693 5.96194C52.3693 5.83467 52.3406 5.70903 52.2854 5.59433C52.1283 5.34482 51.8873 5.15936 51.6056 5.07121ZM54.1028 9.11488L53.1965 8.74727L55.316 3.56307L56.2224 3.93068L54.1028 9.11488Z" fill="#FB7E01"/>
<path d="M57.5346 8.36026C57.5768 8.29529 57.6315 8.23934 57.6955 8.19565C57.7595 8.15196 57.8316 8.1214 57.9075 8.10575C57.9885 8.08969 58.072 8.08975 58.153 8.10593C58.234 8.1221 58.311 8.15407 58.3796 8.20002C58.445 8.24172 58.5013 8.2962 58.5451 8.36018C58.5889 8.42417 58.6193 8.49633 58.6345 8.57234C58.6682 8.72267 58.641 8.88019 58.559 9.01064C58.5169 9.08239 58.461 9.14513 58.3946 9.19527C58.3282 9.24541 58.2525 9.28197 58.1719 9.30284C58.0942 9.33086 58.0111 9.34035 57.9291 9.33052C57.8472 9.3207 57.7686 9.29186 57.6998 9.24629C57.6249 9.20352 57.56 9.14522 57.5095 9.0753C57.459 9.00539 57.4241 8.92549 57.4071 8.84098C57.3955 8.75642 57.4008 8.67039 57.4227 8.58788C57.4445 8.50536 57.4826 8.42799 57.5346 8.36026Z" fill="#FB7E01"/>
<path d="M63.1711 14.0391L62.9776 14.845C62.679 14.865 62.3799 14.815 62.1042 14.6989C61.7732 14.5716 61.4666 14.3882 61.1979 14.1569C60.8969 13.9184 60.647 13.6219 60.4629 13.2852C60.2788 12.9484 60.1644 12.5781 60.1263 12.1963C60.1007 11.8108 60.1545 11.4242 60.2845 11.0602C60.4144 10.6963 60.6176 10.3627 60.8816 10.0802C61.3602 9.48366 62.0527 9.09657 62.8123 9.00099C63.2018 8.96469 63.5945 9.01285 63.9636 9.14219C64.3327 9.27153 64.6695 9.47898 64.9508 9.75035C65.4513 10.1246 65.7891 10.6761 65.8949 11.2915L65.0877 11.5601C64.9651 11.1261 64.7152 10.7387 64.3701 10.4478C64.1892 10.2828 63.9754 10.1577 63.7428 10.0805C63.5102 10.0034 63.2639 9.97601 63.02 10.0001C62.4947 10.0679 62.0177 10.3407 61.6935 10.7589C61.5166 10.9479 61.3795 11.1704 61.2903 11.4133C61.2011 11.6561 61.1616 11.9144 61.1743 12.1728C61.1957 12.4305 61.2701 12.6811 61.3927 12.909C61.5154 13.1368 61.6836 13.337 61.8871 13.4971C62.242 13.8165 62.6943 14.0074 63.1711 14.0391Z" fill="#FB7E01"/>
<path d="M67.4102 13.6105L66.2111 12.239L66.9098 11.6357L69.9546 15.1139L69.2606 15.7218L68.0616 14.3504L64.5259 17.4373L63.8792 16.6927L67.4102 13.6105Z" fill="#FB7E01"/>
<path d="M66.2583 19.5778L65.7249 18.7389L71.7531 17.7256L72.2251 18.4561L68.7413 23.4753L68.1796 22.5893L69.0765 21.3263L67.7925 19.3044L66.2583 19.5778ZM69.6477 20.5204L70.8939 18.7577L68.7649 19.1348L69.6477 20.5204Z" fill="#FB7E01"/>
<path d="M68.7791 23.3525L72.3053 24.3375L74.0425 21.4014L74.4532 22.4523L72.6971 25.3225L75.1943 24.3469L75.5484 25.2612L73.0512 26.2321L76.2848 27.1464L76.7002 28.2068L73.4383 27.2171L71.5123 30.337L71.0969 29.2766L73.0465 26.2509L70.3321 27.3066L69.9734 26.3923L72.6877 25.3367L69.2039 24.4176L68.7791 23.3525Z" fill="#FB7E01"/>
<path d="M74 33.2727L71.989 33.5649L71.8474 32.5893L77.4083 31.7881C77.4413 32.019 77.4791 32.2594 77.5263 32.5422C77.5735 32.8249 77.6113 33.0889 77.649 33.3622C77.7059 33.7071 77.7059 34.0589 77.649 34.4038C77.612 34.6697 77.5063 34.9215 77.3422 35.1343C77.2006 35.3096 77.0258 35.4554 76.8276 35.5631C76.6238 35.6685 76.4035 35.7387 76.1762 35.7705C75.9374 35.8085 75.6934 35.7967 75.4594 35.7358C75.2254 35.675 75.0066 35.5665 74.8167 35.417C74.6056 35.2424 74.4317 35.0273 74.3052 34.7845C74.1787 34.5416 74.1023 34.276 74.0803 34.0032C74.0408 33.7612 74.014 33.5174 74 33.2727ZM76.7521 33.5884L76.6341 32.8956L74.9252 33.1407C74.9252 33.4235 74.963 33.6544 74.9866 33.8382C75.0148 34.1087 75.1347 34.3615 75.3265 34.5546C75.4221 34.6381 75.5358 34.6982 75.6588 34.7301C75.7817 34.762 75.9104 34.7648 76.0346 34.7384C76.6105 34.6535 76.8512 34.2718 76.7521 33.5884Z" fill="#FB7E01"/>
<path d="M72.4565 37.5286V36.5342L78.0646 38.966V39.8285L72.3999 42.1425V41.0916L73.8444 40.5213V38.1271L72.4565 37.5286ZM74.7885 40.1584L76.7948 39.3619L74.8074 38.5136L74.7885 40.1584Z" fill="#FB7E01"/>
<path d="M72.2582 42.7744L77.8002 43.717L77.2573 46.9453L76.351 46.7945L76.7239 44.537L75.4918 44.3297C75.4826 44.5808 75.4574 44.8311 75.4163 45.079C75.3588 45.5776 75.1162 46.0367 74.7365 46.3656C74.5542 46.5071 74.3431 46.607 74.118 46.6583C73.893 46.7095 73.6594 46.711 73.4336 46.6626C73.1811 46.6338 72.9383 46.5485 72.7233 46.413C72.5084 46.2776 72.3268 46.0954 72.1921 45.8802C71.9286 45.3708 71.855 44.7845 71.9844 44.226L72.1402 43.3918C72.1402 43.307 72.1732 43.2174 72.1874 43.1232C72.2016 43.0289 72.2252 42.9582 72.2346 42.9064C72.244 42.8545 72.2535 42.8027 72.2582 42.7744ZM74.5194 44.834C74.5537 44.6108 74.5742 44.3857 74.5807 44.16L73.0041 43.9008C72.9427 44.1553 72.8955 44.3721 72.8719 44.5088C72.7586 45.1874 72.9757 45.5739 73.5233 45.6681C73.636 45.6919 73.7526 45.6911 73.865 45.6659C73.9774 45.6407 74.0831 45.5916 74.1748 45.522C74.3708 45.343 74.4935 45.0979 74.5194 44.834Z" fill="#FB7E01"/>
<path d="M74.2313 47.9306C74.595 48.0453 74.9318 48.2322 75.2214 48.48C75.511 48.7278 75.7474 49.0315 75.9166 49.3728C76.0868 49.7222 76.1838 50.1027 76.2017 50.4908C76.2195 50.879 76.1579 51.2667 76.0205 51.6303C75.9071 51.9976 75.7213 52.3385 75.474 52.6331C75.2268 52.9277 74.923 53.17 74.5807 53.3458C74.2335 53.519 73.8539 53.618 73.4662 53.6367C73.0786 53.6554 72.6912 53.5932 72.3289 53.4542C71.9602 53.3404 71.6191 53.1514 71.3273 52.8991C71.0356 52.6468 70.7996 52.3367 70.6343 51.9885C70.4678 51.6402 70.3736 51.2619 70.3574 50.8764C70.3412 50.4909 70.4032 50.1061 70.5398 49.7451C70.6532 49.3778 70.839 49.0368 71.0863 48.7422C71.3335 48.4476 71.6373 48.2054 71.9796 48.0296C72.3282 47.8601 72.7079 47.7639 73.0952 47.7469C73.4825 47.7299 73.8692 47.7924 74.2313 47.9306ZM73.8915 48.9156C73.649 48.8235 73.3907 48.7802 73.1314 48.7883C72.8722 48.7964 72.6171 48.8557 72.3809 48.9628C72.1524 49.0655 71.9481 49.2151 71.7814 49.4018C71.6146 49.5886 71.4892 49.8083 71.4132 50.0467C71.3171 50.2882 71.2762 50.548 71.2933 50.8072C71.3105 51.0665 71.3853 51.3187 71.5123 51.5454C71.765 51.9977 72.1826 52.3353 72.6783 52.488C72.9235 52.5799 73.1846 52.6222 73.4463 52.6124C73.7081 52.6027 73.9653 52.5412 74.203 52.4315C74.4263 52.3249 74.6253 52.1737 74.7877 51.9873C74.9501 51.8008 75.0725 51.5831 75.1471 51.3475C75.2346 51.1129 75.2722 50.8627 75.2575 50.6128C75.2429 50.3629 75.1764 50.1188 75.0622 49.8959C74.9398 49.6613 74.7714 49.4536 74.567 49.2852C74.3627 49.1168 74.1265 48.9912 73.8726 48.9156H73.8915Z" fill="#FB7E01"/>
<path d="M72.7963 56.5691L73.6602 54.9667L74.4721 55.405L72.2723 59.4722L71.4604 59.0339L72.329 57.4315L68.1937 55.207L68.6658 54.3398L72.7963 56.5691Z" fill="#FB7E01"/>
<path d="M63.6903 61.5979L64.2946 60.8297L68.7225 64.2796L68.1182 65.0525L63.6903 61.5979ZM71.4274 60.8203L70.8231 61.5979L69.3031 60.415C69.1946 60.5941 69.0764 60.7671 68.9491 60.9334C68.6394 61.3904 68.1695 61.7149 67.632 61.843C67.3862 61.8785 67.1356 61.8602 66.8976 61.7894C66.6596 61.7186 66.4399 61.597 66.2536 61.433C66.0358 61.2791 65.856 61.0777 65.7276 60.8442C65.5992 60.6107 65.5256 60.3511 65.5125 60.0851C65.5151 59.4863 65.7348 58.9088 66.1309 58.4591L66.6029 57.8512C66.7398 57.6862 66.872 57.526 66.99 57.3799L71.4274 60.8203ZM68.2693 60.3019C68.3259 60.2359 68.4251 60.0804 68.5761 59.8306L67.1269 58.7042C67.0986 58.7372 67.0467 58.8032 66.9617 58.8974C66.8767 58.9917 66.8153 59.0624 66.7823 59.1048C66.3291 59.6861 66.3606 60.1793 66.8767 60.5847C66.9725 60.6698 67.0866 60.7319 67.2101 60.7662C67.3337 60.8005 67.4635 60.8061 67.5895 60.7826C67.865 60.7057 68.1052 60.5358 68.2693 60.3019Z" fill="#FB7E01"/>
<path d="M63.4873 65.0851C63.5387 65.1433 63.5777 65.2114 63.6021 65.2851C63.6264 65.3588 63.6356 65.4366 63.629 65.514C63.6243 65.599 63.6023 65.6822 63.5641 65.7584C63.5259 65.8347 63.4725 65.9022 63.4071 65.957C63.3508 66.0099 63.2836 66.0499 63.2102 66.0743C63.1369 66.0987 63.0591 66.1069 62.9822 66.0984C62.9054 66.0953 62.83 66.0771 62.7603 66.0447C62.6906 66.0124 62.6281 65.9665 62.5763 65.9098C62.5166 65.8472 62.4704 65.7732 62.4404 65.6921C62.4103 65.6111 62.3971 65.5248 62.4016 65.4385C62.3992 65.3605 62.4141 65.2829 62.4451 65.2112C62.4761 65.1396 62.5225 65.0756 62.581 65.0238C62.6424 64.9626 62.7165 64.9157 62.7981 64.8864C62.8796 64.8571 62.9667 64.8461 63.053 64.8541C63.1372 64.8617 63.219 64.8861 63.2936 64.9257C63.3682 64.9654 63.4341 65.0196 63.4873 65.0851Z" fill="#FB7E01"/>
<path d="M56.482 68.9548L55.7598 68.5448C55.8209 68.2532 55.9503 67.9803 56.1374 67.7483C56.3498 67.465 56.6102 67.2209 56.9069 67.0272C57.2194 66.8028 57.5739 66.6434 57.9494 66.5584C58.3248 66.4734 58.7136 66.4645 59.0925 66.5323C59.4713 66.614 59.8294 66.7724 60.1444 66.9978C60.4595 67.2231 60.7248 67.5107 60.9241 67.8425C61.3659 68.4662 61.5486 69.2364 61.4339 69.9916C61.3615 70.3746 61.2072 70.7375 60.9815 71.0555C60.7559 71.3735 60.4642 71.6391 60.1263 71.8344C59.6273 72.2041 59.007 72.3724 58.3891 72.3057L58.3514 71.4526C58.8026 71.4552 59.244 71.3204 59.6165 71.0662C59.8253 70.939 60.0048 70.769 60.1431 70.5676C60.2815 70.3661 60.3755 70.1377 60.419 69.8974C60.496 69.3749 60.3637 68.8433 60.0508 68.4175C59.915 68.1933 59.7356 67.9986 59.5232 67.8448C59.3108 67.691 59.0696 67.5812 58.814 67.5221C58.5595 67.4733 58.2978 67.4766 58.0447 67.5317C57.7915 67.5867 57.5522 67.6925 57.3412 67.8425C56.9393 68.1081 56.6372 68.4993 56.482 68.9548Z" fill="#FB7E01"/>
<path d="M55.703 73.1537L57.3505 72.3808L57.7423 73.215L53.5504 75.1803L53.1586 74.3461L54.8108 73.5732L52.814 69.3316L53.7109 68.9121L55.703 73.1537Z" fill="#FB7E01"/>
<path d="M50.2697 70.3962L51.2138 70.1182L50.5293 76.1837L49.6985 76.424L45.8229 71.7111L46.8331 71.4142L47.8008 72.6254L50.1045 71.9468L50.2697 70.3962ZM48.4334 73.3936L49.7835 75.0761L50.01 72.9271L48.4334 73.3936Z" fill="#FB7E01"/>
<path d="M45.9551 71.7725L44.0669 74.8971L46.4272 77.362L45.299 77.4751L43.0142 75.0055L43.2691 77.6683L42.2967 77.7626L42.037 75.0998L40.2762 77.9558L39.1386 78.0642L40.9843 75.1987L38.5107 72.4935L39.6484 72.3804L42.037 75.0762L41.7538 72.1778L42.731 72.0835L43.0095 74.982L44.8458 71.8808L45.9551 71.7725Z" fill="#FB7E01"/>
</svg>
