<svg width="48" height="65" viewBox="0 0 48 65" fill="none" xmlns="http://www.w3.org/2000/svg">
<path d="M3.65656 19.8346L1.16056 15.8666L7.24056 11.4506H10.6966V33.8506H5.89656V18.2666L3.65656 19.8346ZM22.5826 16.2506H13.5906V11.4506H28.3106V14.7146L20.7266 33.8506H15.4786L22.5826 16.2506ZM35.9511 24.4106H30.6391V20.2506H35.9511V14.7786H40.4311V20.2506H45.8071V24.4106H40.4311V29.9466H35.9511V24.4106Z" fill="black"/>
<path d="M17.259 52.8506H14.269V44.1406H11.175L11.097 45.3886C10.8717 47.5033 10.5424 49.1153 10.109 50.2246C9.69304 51.3339 9.15571 52.0879 8.49704 52.4866C7.85571 52.8679 6.96304 53.0673 5.81904 53.0846L5.55904 50.1726C5.94037 50.1899 6.29571 50.0859 6.62504 49.8606C7.00637 49.5833 7.34437 49.0026 7.63904 48.1186C7.93371 47.2346 8.12437 46.1253 8.21104 44.7906L8.39304 41.1506H17.259V52.8506ZM29.2467 49.5746L30.1047 51.6806C28.9433 52.6513 27.4527 53.1366 25.6327 53.1366C23.7607 53.1366 22.2353 52.5733 21.0567 51.4466C19.9127 50.3373 19.3407 48.8553 19.3407 47.0006C19.3407 45.2673 19.904 43.8113 21.0307 42.6326C22.1573 41.4539 23.6567 40.8646 25.5287 40.8646C27.0713 40.8646 28.38 41.3759 29.4547 42.3986C30.5293 43.4213 31.0667 44.7213 31.0667 46.2986C31.0667 46.9919 31.006 47.5293 30.8847 47.9106H22.4347C22.556 48.7599 22.9287 49.4273 23.5527 49.9126C24.194 50.3979 24.9913 50.6406 25.9447 50.6406C27.2447 50.6406 28.3453 50.2853 29.2467 49.5746ZM25.3987 43.3606C23.7 43.3606 22.6773 44.2099 22.3307 45.9086H28.0767C28.094 45.1633 27.8513 44.5566 27.3487 44.0886C26.8633 43.6033 26.2133 43.3606 25.3987 43.3606ZM35.454 44.1406H31.606V41.1506H42.266V44.1406H38.444V52.8506H35.454V44.1406Z" fill="black"/>
</svg>
