<svg width="20" height="18" viewBox="0 0 20 18" fill="none" xmlns="http://www.w3.org/2000/svg">
<path d="M10.5 0C5.25389 0 1 3.66459 1 8.17993C1.03899 9.51953 1.41226 10.826 2.0836 11.9725C2.75495 13.1191 3.70158 14.0669 4.83167 14.7239C4.60334 15.3652 4.28586 15.9688 3.8892 16.5155C3.78235 16.6768 3.72631 16.8682 3.72873 17.0637C3.73115 17.2591 3.79192 17.449 3.90273 17.6073C4.01355 17.7657 4.16898 17.8848 4.34779 17.9484C4.52659 18.012 4.72003 18.0169 4.90165 17.9625C6.17077 17.5806 7.36533 16.9717 8.43111 16.1635C9.11328 16.2957 9.80595 16.3614 10.5 16.3599C15.7461 16.3599 20 12.6953 20 8.17993C20 3.6646 15.7461 0 10.5 0Z" fill="#7B7B7B"/>
<path d="M7.33325 6.54688H13.6666H7.33325Z" fill="#7B7B7B"/>
<path d="M7.33325 6.54688H13.6666" stroke="white" stroke-width="1.5" stroke-linecap="round" stroke-linejoin="round"/>
<path d="M7.33325 9.81934H10.4999H7.33325Z" fill="#7B7B7B"/>
<path d="M7.33325 9.81934H10.4999" stroke="white" stroke-width="1.5" stroke-linecap="round" stroke-linejoin="round"/>
<rect x="0.5" y="0.5" width="5" height="5" rx="2.5" fill="#FB7E01" stroke="white"/>
</svg>
