<svg width="196" height="19" viewBox="0 0 196 19" fill="none" xmlns="http://www.w3.org/2000/svg">
<path fill-rule="evenodd" clip-rule="evenodd" d="M38.7324 1.33415C36.2533 2.15973 35.5365 3.06522 35.4445 6.20777C35.3984 7.92552 35.2932 13.0255 35.576 14.457C36.4243 18.545 43.9406 18.6848 47.7152 17.5529C50.1416 16.8206 50.6151 15.7819 50.6611 12.7525C50.7072 10.5155 50.6611 8.5114 50.7072 6.82695C50.7072 3.49798 49.9641 1.45399 46.3802 1.04786C44.1247 0.774883 40.7315 0.675014 38.7259 1.33415H38.7324ZM47.7546 13.4516V5.94145C47.8138 3.83088 44.7099 4.10385 43.1514 4.10385C41.4417 4.10385 38.4562 3.92409 38.4562 5.94145V13.4516C38.4562 14.5036 39.7714 14.8964 41.2641 15.0029C42.6331 15.0512 44.0036 15.0111 45.3676 14.8831C46.7616 14.7766 47.6691 14.3838 47.7283 13.4383L47.7546 13.4516Z" fill="#EC2327"/>
<path fill-rule="evenodd" clip-rule="evenodd" d="M20.0131 0.906073C23.6431 0.906073 27.7244 0.655007 29.9673 1.11643C32.2104 1.57785 33.3851 3.00281 33.3851 5.86633C33.3851 10.6163 31.8985 11.9733 28.6003 12.3194C28.5054 12.3268 28.4099 12.3268 28.3149 12.3194C26.3639 12.4891 23.7891 12.3194 20.5307 12.3194V16.574C20.5307 16.9951 20.3671 17.399 20.0759 17.6968C19.7847 17.9945 19.3897 18.1618 18.9779 18.1618C18.566 18.1618 18.171 17.9945 17.8798 17.6968C17.5886 17.399 17.425 16.9951 17.425 16.574V13.8598C17.3653 11.8648 17.425 9.50338 17.425 7.5288C17.425 5.92062 17.4847 4.19708 17.425 2.58889C17.3977 2.40351 17.4065 2.21445 17.4507 2.03253C17.495 1.85062 17.5741 1.67943 17.6832 1.52878C17.7923 1.37812 17.9294 1.25097 18.0866 1.15459C18.2439 1.05821 18.4183 0.994516 18.5996 0.967143C19.0654 0.898859 19.5367 0.8784 20.0065 0.906073H20.0131ZM28.3813 4.10886H20.5373V9.18447H27.439C29.4299 9.18447 30.4518 9.04875 30.5381 6.7281C30.6244 4.40743 29.9541 4.15637 28.3813 4.10886Z" fill="#EC2327"/>
<path d="M15.4023 16.5661V9.8879V6.92123C15.4154 3.53954 14.6419 1.46426 11.056 1.0492C8.80748 0.783837 5.39857 0.661361 3.38602 1.34178C0.921143 2.17189 0.200033 3.09047 0.108253 6.28844C0.108253 7.52 0.0492535 10.4595 0.108253 12.5959V16.5492C0.109112 16.7583 0.149644 16.9652 0.227524 17.158C0.305414 17.3508 0.419123 17.5259 0.562183 17.6731C0.705233 17.8203 0.874823 17.9368 1.06127 18.016C1.24771 18.0952 1.44735 18.1355 1.6488 18.1346C2.05512 18.1346 2.44499 17.968 2.73353 17.6711C3.02206 17.3741 3.1859 16.9709 3.18936 16.5492V10.1328V10.0104V6.01627C3.18936 3.96821 6.18523 4.15192 7.90279 4.15192C9.43019 4.15192 12.4524 3.87975 12.3933 6.01627V15.4197V16.5765C12.3942 16.7855 12.4347 16.9924 12.5126 17.1852C12.5905 17.378 12.7042 17.5531 12.8473 17.7002C12.9903 17.8475 13.1599 17.964 13.3464 18.0432C13.5328 18.1224 13.7324 18.1627 13.9339 18.1618C14.339 18.1618 14.7275 17.9948 15.014 17.6975C15.3004 17.4002 15.4023 16.9867 15.4023 16.5661Z" fill="#EC2327"/>
<path fill-rule="evenodd" clip-rule="evenodd" d="M52.7031 16.5721C52.7049 16.1473 52.8691 15.7405 53.1603 15.4402C53.4513 15.1399 53.8456 14.9705 54.2573 14.9686H55.289L62.015 1.70482C62.1603 1.42014 62.3844 1.18643 62.6588 1.03337C62.9331 0.880308 63.2454 0.814788 63.5559 0.845124C63.8636 0.816232 64.1726 0.882584 64.4435 1.03571C64.7145 1.18883 64.935 1.42178 65.077 1.70482L71.803 14.9686H72.4644C72.876 14.9705 73.2703 15.1399 73.5614 15.4402C73.8525 15.7405 74.0168 16.1473 74.0185 16.5721C74.0176 16.7817 73.9768 16.9891 73.8982 17.1825C73.8196 17.3759 73.7049 17.5514 73.5606 17.699C73.4163 17.8466 73.2451 17.9635 73.0571 18.0429C72.869 18.1223 72.6676 18.1627 72.4644 18.1618H54.2573C54.054 18.1627 53.8526 18.1223 53.6645 18.0429C53.4765 17.9635 53.3054 17.8466 53.161 17.699C53.0167 17.5514 52.902 17.3759 52.8234 17.1825C52.7449 16.9891 52.704 16.7817 52.7031 16.5721ZM63.5559 5.58026L58.7876 14.9686H68.3044L63.5559 5.58026Z" fill="#117DC1"/>
<path fill-rule="evenodd" clip-rule="evenodd" d="M95.0503 0.898336C95.274 0.899225 95.4962 0.941148 95.7025 1.02171C95.9097 1.10228 96.0972 1.2199 96.2546 1.36788C96.4128 1.51585 96.5379 1.69127 96.623 1.88413C96.7073 2.07698 96.751 2.2835 96.7495 2.49186V7.17074L105.949 1.12889C106.32 0.887655 106.778 0.790919 107.226 0.859333C107.673 0.927748 108.073 1.15589 108.342 1.49506C108.472 1.66636 108.564 1.85986 108.614 2.06446C108.664 2.26906 108.669 2.48075 108.631 2.68739C108.592 2.89403 108.51 3.09154 108.389 3.2686C108.268 3.44567 108.111 3.5988 107.926 3.71923L99.1721 9.4966L107.926 15.2741C108.298 15.5184 108.55 15.8896 108.628 16.3064C108.706 16.7232 108.603 17.1517 108.342 17.4982C108.074 17.8381 107.675 18.0678 107.228 18.1387C106.781 18.2096 106.323 18.116 105.949 17.8779L96.7495 11.8293V16.576C96.7495 16.7831 96.7058 16.9883 96.62 17.1796C96.5348 17.3709 96.4091 17.5446 96.2516 17.6908C96.0935 17.837 95.9059 17.9527 95.7003 18.0314C95.4939 18.1101 95.2732 18.1501 95.0503 18.1492C94.5991 18.1492 94.166 17.9841 93.8451 17.6896C93.5242 17.3952 93.3412 16.9951 93.3359 16.576V2.49186C93.3397 2.07034 93.5212 1.66707 93.8421 1.36899C94.163 1.07091 94.5968 0.901879 95.0503 0.898336Z" fill="#117DC1"/>
<path fill-rule="evenodd" clip-rule="evenodd" d="M119.97 4.02985V16.5795C119.966 16.9992 119.791 17.4006 119.483 17.6968C119.175 17.9929 118.758 18.16 118.323 18.1618C118.108 18.1627 117.893 18.1224 117.693 18.0433C117.494 17.9642 117.312 17.8478 117.159 17.7008C117.006 17.5537 116.885 17.379 116.802 17.1866C116.72 16.9942 116.677 16.7878 116.677 16.5795V4.02985H112.317C111.879 4.02987 111.458 3.86288 111.147 3.56524C110.836 3.2676 110.66 2.86341 110.656 2.44069C110.66 2.01671 110.835 1.61109 111.146 1.31128C111.457 1.01146 111.877 0.841454 112.317 0.837891H124.33C124.547 0.838784 124.762 0.880951 124.962 0.961983C125.162 1.04302 125.344 1.16133 125.497 1.31016C125.65 1.459 125.771 1.63544 125.853 1.82941C125.936 2.02339 125.977 2.2311 125.977 2.44069C125.977 2.86217 125.803 3.26637 125.494 3.56439C125.186 3.86243 124.767 4.02985 124.33 4.02985H119.97Z" fill="#117DC1"/>
<path fill-rule="evenodd" clip-rule="evenodd" d="M183.917 7.79467H190.19C192.405 7.79467 193.246 7.86955 193.246 5.9772C193.246 4.61579 192.739 4.03719 190.19 4.03719H183.917V7.79467ZM183.917 14.9761H191.827C192.97 14.7311 193.246 14.1592 193.246 13.1586C193.246 11.2663 192.405 11.3479 190.19 11.3479H183.917V14.9897V14.9761ZM191.975 18.1618C188.694 18.1618 185.387 18.1618 182.106 18.1618C181.709 18.1636 181.327 17.9984 181.044 17.7025C180.762 17.4065 180.601 17.0038 180.598 16.5826V2.43754C180.599 2.01501 180.758 1.61019 181.039 1.31078C181.321 1.01136 181.702 0.841468 182.1 0.837891C184.886 0.837891 187.801 0.837891 190.543 0.837891C193.285 0.837891 195.91 1.96105 195.91 5.34415C195.954 6.44861 195.813 7.55258 195.493 8.60473C195.425 8.7873 195.341 8.9628 195.242 9.12889C195.166 9.28066 195.132 9.45269 195.147 9.6242C195.16 9.79578 195.22 9.95938 195.32 10.0955C195.402 10.2701 195.475 10.4497 195.538 10.6332C195.822 11.6463 195.947 12.7016 195.91 13.7576C195.889 14.8784 195.472 15.95 194.742 16.7614C194.013 17.5727 193.023 18.0651 191.968 18.1414L191.975 18.1618Z" fill="#117DC1"/>
<path fill-rule="evenodd" clip-rule="evenodd" d="M79.365 1.33415C76.8862 2.15973 76.1692 3.06522 76.0773 6.20777C76.0313 7.92552 75.9259 13.0255 76.2091 14.457C77.0572 18.545 84.5803 18.6848 88.3546 17.5529C90.7747 16.8206 91.2477 15.7819 91.2937 12.7525C91.3404 10.5155 91.2937 8.5114 91.3404 6.82695C91.3404 3.49798 90.597 1.45399 87.0132 1.04786C84.7573 0.774883 81.3641 0.675014 79.359 1.33415H79.365ZM88.3878 13.4516V5.94145C88.4465 3.83088 85.3425 4.10385 83.7841 4.10385C82.0744 4.10385 79.0894 3.92409 79.0894 5.94145V13.4516C79.0894 14.5036 80.4045 14.8964 81.8973 15.0029C83.2659 15.0509 84.6368 15.0109 86.0001 14.8831C87.3943 14.7766 88.3019 14.3838 88.3614 13.4383L88.3878 13.4516Z" fill="#117DC1"/>
<path fill-rule="evenodd" clip-rule="evenodd" d="M131.325 1.33415C128.853 2.15973 128.122 3.06522 128.03 6.20777C127.984 7.92552 127.885 13.0255 128.181 14.457C129.011 18.545 136.562 18.6848 140.331 17.5529C142.755 16.8206 143.237 15.7819 143.296 12.7525C143.296 10.5155 143.296 8.5114 143.296 6.82695C143.329 3.49798 142.551 1.45399 138.967 1.04786C136.714 0.774883 133.321 0.675014 131.298 1.33415H131.325ZM140.351 13.4516V5.94145C140.41 3.83088 137.294 4.10385 135.738 4.10385C134.032 4.10385 131.035 3.92409 131.035 5.94145V13.4516C131.035 14.5036 132.352 14.8964 133.867 15.0029C135.232 15.051 136.599 15.011 137.959 14.8831C139.363 14.7766 140.265 14.3838 140.331 13.4383L140.351 13.4516Z" fill="#117DC1"/>
<path fill-rule="evenodd" clip-rule="evenodd" d="M166.618 1.33415C164.132 2.15973 163.421 3.06522 163.329 6.20777C163.29 7.92552 163.185 13.0255 163.468 14.457C164.316 18.545 171.835 18.6848 175.611 17.5529C178.039 16.8206 178.512 15.7819 178.558 12.7525C178.598 10.5155 178.558 8.5114 178.598 6.82695C178.598 3.49798 177.854 1.45399 174.276 1.04786C172.013 0.774883 168.625 0.675014 166.618 1.33415ZM175.671 13.4516V5.94145C175.729 3.83088 172.618 4.10385 171.065 4.10385C169.355 4.10385 166.362 3.92409 166.362 5.94145V13.4516C166.362 14.5036 167.677 14.8964 169.177 15.0029C170.545 15.0512 171.914 15.0112 173.276 14.8831C174.677 14.7766 175.585 14.3838 175.644 13.4383L175.671 13.4516Z" fill="#117DC1"/>
<path fill-rule="evenodd" clip-rule="evenodd" d="M148.113 0.888969C151.751 0.888969 155.605 0.671693 157.845 1.13339C160.086 1.59508 161.28 3.02091 161.28 5.88614C161.28 10.6389 159.794 11.9968 156.5 12.3499C156.405 12.3569 156.309 12.3569 156.214 12.3499C154.226 12.5196 151.673 12.3838 148.438 12.3838V16.5731C148.438 16.9944 148.275 17.3985 147.984 17.6965C147.693 17.9945 147.298 18.1618 146.887 18.1618C146.476 18.1618 146.081 17.9945 145.791 17.6965C145.499 17.3985 145.336 16.9944 145.336 16.5731V13.8572C145.263 11.861 145.296 9.49819 145.336 7.51565C145.336 5.90651 145.382 4.18873 145.336 2.57958C145.281 2.20417 145.373 1.82169 145.593 1.51615C145.813 1.21062 146.143 1.00702 146.509 0.950068C146.97 0.885405 147.436 0.864938 147.901 0.888952L148.113 0.888969ZM156.228 4.12083H148.432V9.19946H155.313C157.302 9.19946 158.336 9.06366 158.429 6.74842C158.521 4.43315 157.839 4.16836 156.221 4.12083H156.228Z" fill="#117DC1"/>
</svg>
