<svg width="125" height="94" viewBox="0 0 125 94" fill="none" xmlns="http://www.w3.org/2000/svg">
<path opacity="0.05" d="M101.601 47.4623C100.164 47.6678 98.2143 47.7705 95.7512 47.7705C87.9516 47.7705 82.1018 45.5104 78.202 40.9902C74.0969 36.6754 72.0443 31.2306 72.0443 24.6557C72.0443 17.6699 74.4048 11.8142 79.1256 7.08852C83.6412 2.36284 89.9015 0 97.9064 0C106.117 0 112.685 2.2601 117.611 6.78033C122.537 11.506 125 18.2863 125 27.1213C125 39.0383 121.408 51.0579 114.224 63.1803C107.04 75.5082 98.2143 85.7814 87.7463 94L81.5887 87.5279C94.9302 73.3508 101.601 59.9956 101.601 47.4623ZM29.5567 47.4623C28.1199 47.6678 26.17 47.7705 23.7069 47.7705C15.9072 47.7705 10.0575 45.5104 6.15765 40.9902C2.05255 36.6754 0 31.2306 0 24.6557C0 17.6699 2.36042 11.8142 7.08128 7.08852C11.5969 2.36284 17.8571 0 25.8621 0C34.0723 0 40.6404 2.2601 45.5665 6.78033C50.4926 11.506 52.9557 18.2863 52.9557 27.1213C52.9557 39.0383 49.3637 51.0579 42.1798 63.1803C34.9959 75.5082 26.17 85.7814 15.702 94L9.54433 87.5279C22.8859 73.3508 29.5567 59.9956 29.5567 47.4623Z" fill="black"/>
</svg>
