<svg width="159" height="18" viewBox="0 0 159 18" fill="none" xmlns="http://www.w3.org/2000/svg">
<g clip-path="url(#clip0_1694_21624)">
<path fill-rule="evenodd" clip-rule="evenodd" d="M104.525 8.74387C104.525 5.34455 102.198 3.31444 98.7078 3.29932C95.1729 3.29932 92.8912 5.53829 92.8912 8.71366C92.8912 12.1281 95.2177 14.1589 98.7078 14.1589C102.244 14.1589 104.525 11.9172 104.525 8.74387ZM102.478 8.72877C102.478 10.9395 101.034 12.429 98.7237 12.429V12.4269C96.2416 12.4118 94.9384 10.7877 94.9384 8.72877C94.9384 6.53304 96.3671 5.04365 98.6936 5.02852C101.176 5.04365 102.478 6.66771 102.478 8.72877Z" fill="#FF0D65"/>
<path fill-rule="evenodd" clip-rule="evenodd" d="M128.055 8.74387C128.055 5.34455 125.728 3.31444 122.238 3.29932C118.702 3.29932 116.422 5.53829 116.421 8.71366C116.421 12.1281 118.748 14.1589 122.238 14.1589C125.774 14.1589 128.055 11.9172 128.055 8.74387ZM126.009 8.72877C126.009 10.9395 124.565 12.429 122.253 12.429L122.254 12.4269C119.772 12.4118 118.469 10.7877 118.469 8.72877C118.469 6.53304 119.897 5.04365 122.224 5.02852C124.705 5.04365 126.009 6.66771 126.009 8.72877Z" fill="#FF0D65"/>
<path fill-rule="evenodd" clip-rule="evenodd" d="M130.088 13.9913V3.46289H134.802C137.223 3.46289 138.463 4.3347 138.463 6.07973C138.463 7.28268 137.967 8.08029 136.85 8.50144C138.184 8.72677 138.789 9.55395 138.789 10.9224C138.789 13.1037 137.176 13.9913 134.538 13.9913H130.088ZM134.524 7.91469C135.749 7.91469 136.524 7.38849 136.524 6.48571C136.524 5.64348 135.95 5.19209 134.57 5.19209H132.027V7.91469H134.524ZM134.665 12.2614C136.153 12.2614 136.837 11.7949 136.837 10.7871C136.837 9.77928 136.061 9.38835 134.696 9.38835H132.028V12.2614H134.665Z" fill="#FF0D65"/>
<path fill-rule="evenodd" clip-rule="evenodd" d="M144.404 6.74131H142.93V3.46289H140.992V13.9913H144.422C147.587 13.9913 149.293 12.7575 149.293 10.3062C149.293 7.92986 147.847 6.74131 144.404 6.74131ZM142.93 12.2614V8.47117H144.575C146.467 8.47117 147.289 8.96726 147.289 10.2609C147.289 11.6898 146.359 12.2614 144.543 12.2614H142.93Z" fill="#FF0D65"/>
<path d="M153.261 9.43373H158.256L158.258 7.70382H153.264V5.19209H158.832V3.46289H151.322V13.9913H159V12.2614H153.261V9.43373Z" fill="#FF0D65"/>
<path fill-rule="evenodd" clip-rule="evenodd" d="M108.493 10.7122V13.9913H106.554V3.46289H110.167C113.595 3.46289 115.056 4.65073 115.056 7.02708C115.056 9.47906 113.35 10.7122 110.167 10.7122H108.493ZM108.493 5.19209V8.98231H110.307C112.107 8.98231 113.037 8.41073 113.037 6.98246C113.037 5.6888 112.231 5.19209 110.339 5.19209H108.493Z" fill="#FF0D65"/>
<path fill-rule="evenodd" clip-rule="evenodd" d="M81.8935 12.2614C82.5136 10.8324 82.9633 8.84698 83.0104 5.64348L83.0411 3.46289H90.6725V12.2614H91.9286V15.9466H90.1143V13.9913H82.5289V15.9466H80.7146V12.2614H81.8935ZM83.7861 12.2614H88.7333V5.19209H84.81V5.6888C84.7475 8.44095 84.404 10.6071 83.7861 12.2614Z" fill="#FF0D65"/>
<path d="M75.1304 3.3125C73.4086 3.3125 72.1525 3.80854 71.5319 4.24476L71.5302 6.86164C72.1667 5.92929 73.4853 5.01219 75.1287 5.04171C76.2769 5.07193 77.1764 5.46282 77.1764 6.44044C77.1764 7.22295 76.6954 7.86947 75.2996 7.86947H73.6699V9.41867H75.3144C77.0049 9.41867 77.7187 9.85493 77.7187 10.7872C77.7187 11.8555 76.6642 12.3969 75.3456 12.412C73.3439 12.4271 71.9328 11.5848 71.2661 10.5165V12.8331C71.8431 13.4645 73.3439 14.157 75.3144 14.1419C78.2309 14.1268 79.7351 12.728 79.7351 10.9081C79.7351 9.52378 78.9305 8.68149 77.2553 8.44105C78.512 8.0048 79.1786 7.19273 79.1786 5.95956C79.1786 4.10944 77.5653 3.32763 75.1304 3.3125Z" fill="#FF0D65"/>
<path d="M29.4447 12.1081C30.1497 12.1119 30.8442 11.9441 31.4639 11.6199L31.9823 11.3493L33.4958 12.4244C32.4972 13.4553 31.0254 14.0219 29.3393 14.0219C27.7275 14.0219 26.2543 13.4703 25.2005 12.477C24.1467 11.4836 23.566 10.103 23.566 8.60298C23.566 7.10304 24.1552 5.74284 25.2069 4.78495C26.2585 3.82704 27.731 3.29932 29.3542 3.29932C30.8507 3.29932 32.1591 3.73772 33.1386 4.56746L33.2497 4.65815L31.5721 5.84991C30.9522 5.42257 30.2067 5.19775 29.4447 5.20834C27.3364 5.20834 25.8059 6.6592 25.8059 8.65824C25.8059 10.6573 27.3364 12.1081 29.4447 12.1081Z" fill="#21A038"/>
<path fill-rule="evenodd" clip-rule="evenodd" d="M40.6631 7.50644H37.8172V5.17333H42.3598L44.8083 3.43408H35.4783V13.8826H40.3583C43.0975 13.8826 44.6682 12.6861 44.6682 10.6004C44.6711 8.60553 43.2474 7.50644 40.6631 7.50644ZM40.2558 12.1426H37.8172V9.24639H40.2558C41.741 9.24639 42.4312 9.73113 42.4312 10.6946C42.4312 11.6791 41.6964 12.1426 40.2558 12.1426Z" fill="#21A038"/>
<path d="M55.0435 3.43408L52.5951 5.17333H49.1875V7.72806H54.1828V9.468H49.1875V12.1426H55.0435V13.8826H46.8486V3.43408H55.0435Z" fill="#21A038"/>
<path fill-rule="evenodd" clip-rule="evenodd" d="M57.2213 3.43408H61.6835C64.5302 3.43408 66.2974 4.86652 66.2974 7.17306C66.2974 9.47957 64.5285 10.9229 61.6818 10.9229H59.5603V13.8826H57.2213V3.43408ZM59.5603 9.18295H61.633C63.1316 9.18295 63.9561 8.47119 63.9561 7.17851C63.9561 5.88584 63.1316 5.17333 61.633 5.17333H59.5603V9.18295Z" fill="#21A038"/>
<path d="M16.1672 3.3916C16.5932 3.92422 16.9575 4.5062 17.2487 5.12656L9.02564 10.9888L5.58984 8.90562V6.39953L9.02564 8.48268L16.1672 3.3916Z" fill="#21A038"/>
<path d="M2.08501 8.7289C2.08501 8.61648 2.08785 8.50477 2.09351 8.39371L0.0113395 8.29297C0.00425249 8.43757 0 8.58293 0 8.7289C0 11.1391 1.00991 13.3217 2.64347 14.9017L4.1197 13.4739C2.86387 12.2578 2.08501 10.5797 2.08501 8.7289Z" fill="url(#paint0_linear_1694_21624)"/>
<path d="M9.02543 2.01601C9.14167 2.01601 9.25718 2.02012 9.372 2.02561L9.4762 0.010968C9.32663 0.00411316 9.17637 0 9.02543 0C6.53362 0 4.27712 0.976816 2.64355 2.55686L4.11979 3.98472C5.37703 2.76867 7.11193 2.01601 9.02543 2.01601Z" fill="url(#paint1_linear_1694_21624)"/>
<path d="M9.02523 15.4417C8.90899 15.4417 8.79349 15.439 8.67866 15.4335L8.57446 17.4474C8.72398 17.4543 8.87423 17.4584 9.02523 17.4584C11.517 17.4584 13.7735 16.4815 15.4071 14.9015L13.9308 13.4736C12.6736 14.6884 10.9387 15.4417 9.02523 15.4417Z" fill="url(#paint2_linear_1694_21624)"/>
<path d="M12.938 3.1875L14.6934 1.93649C13.1442 0.725242 11.1726 0 9.02527 0V2.0167C10.476 2.01601 11.8232 2.44924 12.938 3.1875Z" fill="url(#paint3_linear_1694_21624)"/>
<path d="M18.0502 8.72881C18.0502 8.19481 18.0006 7.67248 17.9056 7.16455L15.963 8.54919C15.9645 8.60886 15.9659 8.66848 15.9659 8.7281C15.9659 10.6989 15.0828 12.4743 13.6796 13.7034L15.0807 15.2012C16.9042 13.6046 18.0502 11.2959 18.0502 8.72881Z" fill="#21A038"/>
<path d="M9.02532 15.4419C6.98779 15.4419 5.15224 14.5877 3.88153 13.2305L2.33301 14.5857C3.98429 16.3501 6.37121 17.4585 9.02532 17.4585V15.4419Z" fill="url(#paint4_linear_1694_21624)"/>
<path d="M4.37129 3.75364L2.97018 2.25586C1.14598 3.85304 0 6.16177 0 8.7289H2.08501C2.08572 6.75746 2.96805 4.98272 4.37129 3.75364Z" fill="url(#paint5_linear_1694_21624)"/>
</g>
<defs>
<linearGradient id="paint0_linear_1694_21624" x1="3.06576" y1="14.6489" x2="0.919783" y2="8.23569" gradientUnits="userSpaceOnUse">
<stop offset="0.1444" stop-color="#F2E913"/>
<stop offset="0.3037" stop-color="#E7E518"/>
<stop offset="0.5823" stop-color="#CADB26"/>
<stop offset="0.891" stop-color="#A3CD39"/>
</linearGradient>
<linearGradient id="paint1_linear_1694_21624" x1="3.23944" y1="2.91335" x2="9.05583" y2="0.62177" gradientUnits="userSpaceOnUse">
<stop offset="0.0592" stop-color="#0FA8E0"/>
<stop offset="0.5385" stop-color="#0099F9"/>
<stop offset="0.9234" stop-color="#0291EB"/>
</linearGradient>
<linearGradient id="paint2_linear_1694_21624" x1="8.43687" y1="16.2413" x2="15.0496" y2="14.6961" gradientUnits="userSpaceOnUse">
<stop offset="0.1226" stop-color="#A3CD39"/>
<stop offset="0.2846" stop-color="#86C339"/>
<stop offset="0.8693" stop-color="#21A038"/>
</linearGradient>
<linearGradient id="paint3_linear_1694_21624" x1="8.58904" y1="0.675469" x2="14.2279" y2="2.47424" gradientUnits="userSpaceOnUse">
<stop offset="0.0566" stop-color="#0291EB"/>
<stop offset="0.79" stop-color="#0C8ACB"/>
</linearGradient>
<linearGradient id="paint4_linear_1694_21624" x1="2.85598" y1="14.3399" x2="8.97899" y2="16.7051" gradientUnits="userSpaceOnUse">
<stop offset="0.1324" stop-color="#F2E913"/>
<stop offset="0.2977" stop-color="#EBE716"/>
<stop offset="0.5306" stop-color="#D9E01F"/>
<stop offset="0.8023" stop-color="#BBD62D"/>
<stop offset="0.9829" stop-color="#A3CD39"/>
</linearGradient>
<linearGradient id="paint5_linear_1694_21624" x1="0.777067" y1="8.97315" x2="3.11527" y2="2.68459" gradientUnits="userSpaceOnUse">
<stop offset="0.0698" stop-color="#A3CD39"/>
<stop offset="0.2599" stop-color="#81C55F"/>
<stop offset="0.9216" stop-color="#0FA8E0"/>
</linearGradient>
<clipPath id="clip0_1694_21624">
<rect width="159" height="18" fill="white"/>
</clipPath>
</defs>
</svg>
