<svg width="24" height="25" viewBox="0 0 24 25" fill="none" xmlns="http://www.w3.org/2000/svg">
<path d="M20.5341 4.0027C18.3106 1.73243 15.2371 0.5 12.0981 0.5C5.42779 0.5 0.0653951 5.88378 0.13079 12.4351C0.13079 14.5108 0.719346 16.5216 1.70027 18.3378L0 24.5L6.34332 22.8784C8.10899 23.8514 10.0708 24.3054 12.0327 24.3054C18.6376 24.3054 24 18.9216 24 12.3703C24 9.19189 22.7575 6.20811 20.5341 4.0027ZM12.0981 22.2946C10.3324 22.2946 8.56676 21.8405 7.06267 20.9324L6.6703 20.7378L2.87738 21.7108L3.85831 18.0135L3.59673 17.6243C0.719346 13.0189 2.09264 6.92162 6.80109 4.06757C11.5095 1.21351 17.5913 2.57568 20.4687 7.24595C23.346 11.9162 21.9728 17.9486 17.2643 20.8027C15.7602 21.7757 13.9292 22.2946 12.0981 22.2946ZM17.8529 15.0946L17.1335 14.7703C17.1335 14.7703 16.0872 14.3162 15.4332 13.9919C15.3678 13.9919 15.3025 13.927 15.2371 13.927C15.0409 13.927 14.9101 13.9919 14.7793 14.0568C14.7793 14.0568 14.7139 14.1216 13.7984 15.1595C13.733 15.2892 13.6022 15.3541 13.4714 15.3541H13.406C13.3406 15.3541 13.2098 15.2892 13.1444 15.2243L12.8174 15.0946C12.0981 14.7703 11.4441 14.3811 10.921 13.8622C10.7902 13.7324 10.594 13.6027 10.4632 13.473C10.0054 13.0189 9.54768 12.5 9.22071 11.9162L9.15531 11.7865C9.08992 11.7216 9.08992 11.6568 9.02452 11.527C9.02452 11.3973 9.02452 11.2676 9.08992 11.2027C9.08992 11.2027 9.3515 10.8784 9.54768 10.6838C9.67847 10.5541 9.74387 10.3595 9.87466 10.2297C10.0054 10.0351 10.0708 9.77567 10.0054 9.58108C9.94005 9.25676 9.15531 7.5054 8.95913 7.11622C8.82834 6.92162 8.69755 6.85676 8.50136 6.79189H8.30518C8.17439 6.79189 7.9782 6.79189 7.78202 6.79189C7.65123 6.79189 7.52044 6.85676 7.38965 6.85676L7.32425 6.92162C7.19346 6.98649 7.06267 7.11622 6.93188 7.18108C6.80109 7.31081 6.73569 7.44054 6.6049 7.57027C6.14714 8.15405 5.88556 8.86757 5.88556 9.58108C5.88556 10.1 6.01635 10.6189 6.21253 11.073L6.27793 11.2676C6.86649 12.5 7.65123 13.6027 8.69755 14.5757L8.95913 14.8351C9.15531 15.0297 9.3515 15.1595 9.48229 15.3541C10.8556 16.5216 12.4251 17.3649 14.1907 17.8189C14.3869 17.8838 14.6485 17.8838 14.8447 17.9486C15.0409 17.9486 15.3025 17.9486 15.4986 17.9486C15.8256 17.9486 16.218 17.8189 16.4796 17.6892C16.6757 17.5595 16.8065 17.5595 16.9373 17.4297L17.0681 17.3C17.1989 17.1703 17.3297 17.1054 17.4605 16.9757C17.5913 16.8459 17.7221 16.7162 17.7875 16.5865C17.9183 16.327 17.9837 16.0027 18.049 15.6784C18.049 15.5486 18.049 15.3541 18.049 15.2243C18.049 15.2243 17.9837 15.1595 17.8529 15.0946Z" fill="white"/>
</svg>
