<svg width="124" height="37" viewBox="0 0 124 37" fill="none" xmlns="http://www.w3.org/2000/svg">
<path d="M118.105 31.6972C120.524 31.6972 122.24 31.2565 123.515 30.3332V26.0667C122.195 26.9899 120.611 27.5623 118.412 27.5623C114.674 27.5623 113.134 24.6587 113.134 20.0841C113.134 15.2891 115.026 12.8263 118.457 12.8263C120.48 12.8263 122.459 13.5303 123.515 14.1903V9.74735C122.415 9.13112 120.48 8.69141 117.884 8.69141C111.199 8.69141 107.723 13.4864 107.723 20.2157C107.723 27.6062 111.11 31.6972 118.105 31.6972ZM85.3782 29.7608V25.4943C83.751 26.5941 81.024 27.5623 78.4724 27.5623C74.6445 27.5623 73.1938 25.7585 72.9734 22.0633H85.5976V19.2924C85.5976 11.5949 82.2104 8.69141 76.9768 8.69141C70.5984 8.69141 67.5622 13.5741 67.5622 20.2596C67.5622 27.9581 71.3462 31.6962 78.0316 31.6962C81.3749 31.6962 83.8387 30.8168 85.3782 29.7608ZM37.4322 9.13112V17.8845H30.4376V9.13112H25.2039V31.2565H30.4376V22.0205H37.4322V31.2575H42.667V9.13326H37.4322V9.13112ZM66.288 27.1237H63.9557V9.13112H48.6934V11.0225C48.6934 16.4327 48.3425 23.4274 46.4948 27.1226H44.8666V36.3157H49.7054V31.2565H61.4502V36.3157H66.2891V27.1226L66.288 27.1237ZM102.094 31.2575H108.031L99.6296 19.3374L107.02 9.13219H101.742L94.351 19.3374V9.13219H89.1173V31.2575H94.351V20.3922L102.094 31.2575ZM76.888 12.8274C79.4834 12.8274 80.2751 14.9831 80.2751 17.754V18.1937H72.9734C73.1061 14.6739 74.3813 12.8274 76.8891 12.8274H76.888ZM58.7221 27.1237H51.3316C52.7834 23.7804 53.1792 17.754 53.1792 13.9272V13.2671H58.721V27.1237H58.7221Z" fill="black"/>
<path d="M20.8068 31.2563H15.4844V4.82049H13.1093C8.75502 4.82049 6.46769 7.01901 6.46769 10.2745C6.46769 13.9687 8.05106 15.6847 11.3056 17.8843L13.9887 19.6881L6.24731 31.2563H0.485138L7.43483 20.9195C3.43256 18.0598 1.18909 15.2889 1.18909 10.5826C1.18909 4.68783 5.28017 0.685547 13.0655 0.685547H20.8068V31.2563Z" fill="#FC3F1D"/>
</svg>
