<svg width="105" height="30" viewBox="0 0 105 30" fill="none" xmlns="http://www.w3.org/2000/svg">
<path d="M99.5352 26.1112C101.572 26.1112 103.017 25.7402 104.09 24.9627V21.3704C102.979 22.1477 101.645 22.6297 99.7936 22.6297C96.6463 22.6297 95.3496 20.1848 95.3496 16.333C95.3496 12.2957 96.9426 10.222 99.8315 10.222C101.535 10.222 103.201 10.8148 104.09 11.3705V7.62951C103.164 7.11065 101.535 6.74042 99.3491 6.74042C93.7203 6.74042 90.7936 10.7778 90.7936 16.4439C90.7936 22.6666 93.6454 26.1112 99.5352 26.1112ZM71.9794 24.4808V20.8884C70.6093 21.8144 68.3132 22.6297 66.1648 22.6297C62.9417 22.6297 61.7202 21.1109 61.5347 17.9995H72.1642V15.6664C72.1642 9.18518 69.3122 6.74042 64.9055 6.74042C59.5349 6.74042 56.9785 10.8517 56.9785 16.4808C56.9785 22.9629 60.1646 26.1104 65.7936 26.1104C68.6087 26.1104 70.6832 25.3699 71.9794 24.4808ZM31.6092 7.11065V14.481H25.7197V7.11065H21.313V25.7402H25.7197V17.9635H31.6092V25.741H36.0168V7.11245H31.6092V7.11065ZM55.9056 22.2604H53.9418V7.11065H41.091V8.70323C41.091 13.2586 40.7956 19.1481 39.2398 22.2594H37.8689V30H41.9431V25.7402H51.8322V30H55.9065V22.2594L55.9056 22.2604ZM86.054 25.741H91.0529L83.979 15.7043L90.2016 7.11155H85.7576L79.5345 15.7043V7.11155H75.1277V25.741H79.5345V16.5925L86.054 25.741ZM64.8307 10.2229C67.016 10.2229 67.6827 12.038 67.6827 14.3711V14.7413H61.5347C61.6464 11.7777 62.7201 10.2229 64.8317 10.2229H64.8307ZM49.5351 22.2604H43.3124C44.5348 19.4453 44.868 14.3711 44.868 11.149V10.5932H49.5342V22.2604H49.5351Z" fill="black"/>
<path d="M17.6107 25.7404H13.1293V3.4816H11.1294C7.4632 3.4816 5.53728 5.33274 5.53728 8.07386C5.53728 11.1844 6.87047 12.6292 9.61074 14.4813L11.8699 16.0001L5.35172 25.7404H0.5L6.3516 17.0369C2.98171 14.629 1.09273 12.296 1.09273 8.33327C1.09273 3.3699 4.53739 0 11.0926 0H17.6107V25.7404Z" fill="#FC3F1D"/>
</svg>
