<svg width="209" height="47" viewBox="0 0 209 47" fill="none" xmlns="http://www.w3.org/2000/svg">
<path d="M65.474 7.246C64.7103 4.39234 62.4675 2.14979 59.6139 1.3859C54.447 4.14853e-07 33.7182 0 33.7182 0C33.7182 0 12.9898 4.14853e-07 7.82263 1.3859C4.969 2.14979 2.72645 4.39234 1.96256 7.246C0.576661 12.4131 0.57666 23.2003 0.57666 23.2003C0.57666 23.2003 0.576661 33.9874 1.96256 39.1546C2.72645 42.0082 4.969 44.2508 7.82263 45.0145C12.9898 46.4005 33.7182 46.4005 33.7182 46.4005C33.7182 46.4005 54.447 46.4005 59.6139 45.0145C62.4675 44.2508 64.7103 42.0082 65.474 39.1546C66.86 33.9874 66.86 23.2003 66.86 23.2003C66.86 23.2003 66.8545 12.4131 65.474 7.246Z" fill="#FF0000"/>
<path d="M27.0835 33.1427L44.3037 23.2014L27.0835 13.2599V33.1427Z" fill="white"/>
<path d="M80.855 30.1688L73.4126 3.29102H79.9057L82.5138 15.475C83.1794 18.4759 83.665 21.0349 83.9815 23.152H84.1724C84.3907 21.6351 84.8819 19.0925 85.6403 15.5186L88.341 3.29102H94.8341L87.2989 30.1688V43.0621H80.8497V30.1688H80.855Z" fill="white"/>
<path d="M96.7875 42.2099C95.478 41.3259 94.5449 39.9509 93.9884 38.0849C93.4373 36.2189 93.1592 33.7418 93.1592 30.6425V26.4246C93.1592 23.2982 93.4756 20.7829 94.1085 18.8896C94.7414 16.9962 95.7291 15.6103 97.0712 14.7428C98.4136 13.8752 100.176 13.4387 102.359 13.4387C104.508 13.4387 106.227 13.8807 107.525 14.7646C108.819 15.6485 109.768 17.0344 110.368 18.9114C110.968 20.7938 111.269 23.2982 111.269 26.4246V30.6425C111.269 33.7418 110.974 36.2298 110.39 38.1067C109.806 39.9891 108.857 41.3642 107.547 42.2317C106.238 43.0994 104.459 43.5358 102.217 43.5358C99.903 43.5411 98.0971 43.0938 96.7875 42.2099ZM104.132 37.6594C104.492 36.71 104.677 35.1658 104.677 33.0161V23.964C104.677 21.8796 104.497 20.3519 104.132 19.3916C103.766 18.4258 103.128 17.9456 102.211 17.9456C101.327 17.9456 100.7 18.4258 100.34 19.3916C99.974 20.3573 99.794 21.8796 99.794 23.964V33.0161C99.794 35.1658 99.9685 36.7154 100.318 37.6594C100.667 38.6087 101.294 39.0834 102.211 39.0834C103.128 39.0834 103.766 38.6087 104.132 37.6594Z" fill="white"/>
<path d="M132.39 43.0676H127.272L126.704 39.51H126.562C125.171 42.1945 123.087 43.5367 120.304 43.5367C118.378 43.5367 116.954 42.9038 116.037 41.6435C115.121 40.3775 114.662 38.4024 114.662 35.7179V14.0072H121.204V35.3358C121.204 36.6346 121.346 37.5566 121.63 38.1078C121.914 38.6588 122.388 38.937 123.054 38.937C123.621 38.937 124.167 38.7625 124.691 38.4133C125.215 38.064 125.597 37.622 125.853 37.0875V14.0017H132.39V43.0676Z" fill="white"/>
<path d="M150.161 8.5553H143.668V43.0664H137.268V8.5553H130.775V3.29541H150.161V8.5553Z" fill="white"/>
<path d="M165.94 43.0676H160.822L160.255 39.51H160.113C158.722 42.1945 156.638 43.5367 153.855 43.5367C151.929 43.5367 150.505 42.9038 149.588 41.6435C148.671 40.3775 148.213 38.4024 148.213 35.7179V14.0072H154.755V35.3358C154.755 36.6346 154.897 37.5566 155.181 38.1078C155.464 38.6588 155.939 38.937 156.605 38.937C157.172 38.937 157.718 38.7625 158.242 38.4133C158.766 38.064 159.147 37.622 159.404 37.0875V14.0017H165.94V43.0676Z" fill="white"/>
<path d="M187.591 18.6502C187.193 16.8168 186.555 15.4909 185.671 14.667C184.787 13.8432 183.57 13.4339 182.021 13.4339C180.82 13.4339 179.696 13.7722 178.654 14.4542C177.612 15.1363 176.804 16.0257 176.237 17.1333H176.188V1.82288H169.886V43.0617H175.287L175.953 40.3118H176.095C176.602 41.2938 177.361 42.0632 178.37 42.6362C179.38 43.2037 180.504 43.4874 181.737 43.4874C183.947 43.4874 185.578 42.4671 186.62 40.4317C187.662 38.391 188.186 35.21 188.186 30.8778V26.2782C188.186 23.0316 187.984 20.4835 187.591 18.6502ZM181.595 30.5066C181.595 32.6237 181.508 34.2825 181.333 35.4829C181.159 36.6833 180.869 37.54 180.455 38.0419C180.045 38.5492 179.489 38.8003 178.796 38.8003C178.256 38.8003 177.759 38.6748 177.301 38.4184C176.843 38.1674 176.472 37.7855 176.188 37.2834V20.789C176.406 19.9979 176.788 19.354 177.328 18.8466C177.863 18.3392 178.452 18.0881 179.08 18.0881C179.745 18.0881 180.258 18.3501 180.618 18.8684C180.984 19.3922 181.235 20.2652 181.377 21.4984C181.519 22.7315 181.59 24.4829 181.59 26.7582V30.5066H181.595Z" fill="white"/>
<path d="M197.467 32.1816C197.467 34.0476 197.521 35.4445 197.631 36.3776C197.74 37.3105 197.969 37.9872 198.318 38.4183C198.667 38.8438 199.202 39.0565 199.928 39.0565C200.905 39.0565 201.581 38.6747 201.941 37.9162C202.307 37.1578 202.503 35.892 202.536 34.1241L208.178 34.4568C208.211 34.7079 208.227 35.057 208.227 35.499C208.227 38.1835 207.49 40.1915 206.023 41.5174C204.555 42.8433 202.476 43.5089 199.791 43.5089C196.567 43.5089 194.308 42.4994 193.015 40.4752C191.716 38.451 191.072 35.3245 191.072 31.0903V26.0159C191.072 21.6564 191.743 18.4699 193.086 16.462C194.428 14.454 196.725 13.4501 199.982 13.4501C202.225 13.4501 203.949 13.8593 205.149 14.6832C206.35 15.5071 207.196 16.7839 207.687 18.5245C208.178 20.265 208.423 22.6658 208.423 25.7322V30.7084H197.467V32.1816ZM198.296 18.4863C197.963 18.8955 197.745 19.5666 197.631 20.4996C197.521 21.4327 197.467 22.8459 197.467 24.7447V26.8291H202.252V24.7447C202.252 22.8786 202.187 21.4654 202.061 20.4996C201.936 19.5339 201.707 18.8573 201.374 18.459C201.041 18.0661 200.528 17.8642 199.835 17.8642C199.137 17.8697 198.624 18.077 198.296 18.4863Z" fill="white"/>
</svg>
