<svg width="102" height="25" viewBox="0 0 102 25" fill="none" xmlns="http://www.w3.org/2000/svg">
<path d="M1.7912 1.18419H22.652C23.1378 1.18419 23.5316 1.57803 23.5316 2.06386V6.16611C23.5316 6.71254 23.2945 7.22991 22.8817 7.58795L11.2163 17.3469H22.652C23.1378 17.3469 23.5316 17.7335 23.5316 18.2194V22.9289C23.5316 23.4147 23.1378 23.8085 22.652 23.8085H1.7912C1.30537 23.8085 0.91153 23.4147 0.91153 22.9289V18.8333C0.91153 18.2869 1.14864 17.7695 1.56144 17.4115L13.2269 7.65257H1.7912C1.30537 7.65257 0.91153 7.24976 0.91153 6.76393V2.06386C0.91153 1.57803 1.30537 1.18419 1.7912 1.18419ZM38.0731 0.381836C40.4852 0.381836 42.6356 0.92425 44.4309 1.91547C46.2261 2.9067 47.6662 4.34673 48.6574 6.14198C49.6486 7.93722 50.191 10.0877 50.191 12.4997C50.191 14.9118 49.6486 17.0622 48.6574 18.8575C47.6662 20.6527 46.2261 22.0927 44.4309 23.084C42.6356 24.0752 40.4852 24.6176 38.0731 24.6176C35.6611 24.6176 33.5106 24.0752 31.7154 23.084C29.9201 22.0927 28.4801 20.6527 27.4889 18.8575C26.4976 17.0622 25.9552 14.9118 25.9552 12.4997C25.9552 10.0877 26.4976 7.93722 27.4889 6.14198C28.4801 4.34673 29.9201 2.9067 31.7154 1.91547C33.5106 0.92425 35.6611 0.381836 38.0731 0.381836ZM38.0731 6.84471C36.9193 6.84471 35.9064 7.08844 35.0686 7.54162C34.2308 7.9948 33.5682 8.65742 33.115 9.4952C32.6618 10.333 32.4181 11.3459 32.4181 12.4997C32.4181 13.6535 32.6618 14.6665 33.115 15.5043C33.5682 16.342 34.2308 17.0047 35.0686 17.4578C35.9064 17.911 36.9193 18.1547 38.0731 18.1547C39.2269 18.1547 40.2399 17.911 41.0777 17.4578C41.9154 17.0047 42.5781 16.342 43.0312 15.5043C43.4844 14.6665 43.7281 13.6535 43.7281 12.4997C43.7281 11.3459 43.4844 10.333 43.0312 9.4952C42.5781 8.65742 41.9154 7.9948 41.0777 7.54162C40.2399 7.08844 39.2269 6.84471 38.0731 6.84471ZM63.9246 0.381836C66.3367 0.381836 68.4871 0.92425 70.2824 1.91547C72.0776 2.9067 73.5177 4.34673 74.5089 6.14198C75.5001 7.93722 76.0425 10.0877 76.0425 12.4997C76.0425 14.9118 75.5001 17.0622 74.5089 18.8575C73.5177 20.6527 72.0776 22.0927 70.2824 23.084C68.4871 24.0752 66.3367 24.6176 63.9246 24.6176C61.5126 24.6176 59.3621 24.0752 57.5669 23.084C55.7716 22.0927 54.3316 20.6527 53.3404 18.8575C52.3492 17.0622 51.8067 14.9118 51.8067 12.4997C51.8067 10.0877 52.3492 7.93722 53.3404 6.14198C54.3316 4.34673 55.7716 2.9067 57.5669 1.91547C59.3621 0.92425 61.5126 0.381836 63.9246 0.381836ZM63.9246 6.84471C62.7708 6.84471 61.7579 7.08844 60.9201 7.54162C60.0823 7.9948 59.4197 8.65742 58.9665 9.4952C58.5133 10.333 58.2696 11.3459 58.2696 12.4997C58.2696 13.6535 58.5133 14.6665 58.9665 15.5043C59.4197 16.342 60.0823 17.0047 60.9201 17.4578C61.7579 17.911 62.7708 18.1547 63.9246 18.1547C65.0784 18.1547 66.0914 17.911 66.9292 17.4578C67.767 17.0047 68.4296 16.342 68.8827 15.5043C69.3359 14.6665 69.5797 13.6535 69.5797 12.4997C69.5797 11.3459 69.3359 10.333 68.8827 9.4952C68.4296 8.65742 67.767 7.9948 66.9292 7.54162C66.0914 7.08844 65.0784 6.84471 63.9246 6.84471ZM101.088 2.06666V22.9285C101.088 23.4144 100.695 23.8082 100.209 23.8082H96.1098C95.5634 23.8082 95.046 23.5711 94.6879 23.1584L84.929 11.4943V22.9285C84.929 23.4144 84.5262 23.8082 84.0403 23.8082H79.3431C78.8572 23.8082 78.4634 23.4144 78.4634 22.9285V2.06666C78.4634 1.58081 78.8572 1.18694 79.3431 1.18694H83.4425C83.989 1.18694 84.5063 1.42412 84.8644 1.83701L94.6233 13.5051V2.06666C94.6233 1.58081 95.0099 1.18694 95.4958 1.18694H100.209C100.695 1.18694 101.088 1.58081 101.088 2.06666Z" fill="url(#paint0_linear_1320_8851)"/>
<defs>
<linearGradient id="paint0_linear_1320_8851" x1="78.3919" y1="12.4997" x2="22.7615" y2="12.4997" gradientUnits="userSpaceOnUse">
<stop stop-color="#6339F5"/>
<stop offset="1" stop-color="#3D3F55"/>
</linearGradient>
</defs>
</svg>
