<?xml version="1.0" encoding="UTF-8"?>
<!DOCTYPE svg PUBLIC "-//W3C//DTD SVG 1.1//EN" "http://www.w3.org/Graphics/SVG/1.1/DTD/svg11.dtd">
<!-- Creator: CorelDRAW 2018 (64-Bit) -->
<svg xmlns="http://www.w3.org/2000/svg" xml:space="preserve" width="20mm" height="20mm" version="1.1" style="shape-rendering:geometricPrecision; text-rendering:geometricPrecision; image-rendering:optimizeQuality; fill-rule:evenodd; clip-rule:evenodd"
viewBox="0 0 2000 2000"
 xmlns:xlink="http://www.w3.org/1999/xlink">
 <defs>
  <style type="text/css">
   <![CDATA[
    .fil0 {fill:#010101}
    .fil1 {fill:#F38A27}
    .fil2 {fill:#FEFEFE}
   ]]>
  </style>
 </defs>
 <g id="Слой_x0020_1">
  <metadata id="CorelCorpID_0Corel-Layer"/>
  <path class="fil0" d="M576.31 96.56c-109.88,51.61 -192.92,117.61 -264.19,185.57 -591.62,564.18 -212.09,1538.1 458.98,1651.68 -18.97,-38.17 -47.03,-58.17 -65.79,-109.15 -30.58,-83.12 3.95,-57.92 -75.05,-95.06 -78.99,-37.16 -153.01,-89.31 -204.23,-145.61 -68.89,-75.71 -91.88,-84.71 -154.04,-196.16 -42.15,-75.58 -75.98,-157.87 -93.21,-255.97 -36.63,-208.64 8.97,-417.46 101.31,-571.71 69.42,-115.99 223.24,-286.42 375.06,-333.38 0.5,98.34 47.13,138.55 90.27,197.92 93.05,128.05 -47.51,122.13 -8.76,198.5 45.52,47.48 581.51,6.78 671.3,-363.66 122.68,45.29 259.49,207.17 326.75,325.79 223.56,394.26 59.16,914.03 -332.34,1126.95 -85.47,46.49 -4.03,44.61 -119.38,205.69 101.63,-15.52 225.83,-91.68 293.26,-141.8 688.58,-511.96 444.96,-1533.74 -312.68,-1740.15 -230.58,-62.77 -470.21,-41.38 -687.26,60.55z"/>
  <path class="fil1" d="M1254.35 1894.33c167.37,-220.29 24,-491.78 -214.39,-504.61 -271.95,-14.62 -413.76,301.18 -259.39,489.56 117.5,143.4 355.54,170.68 473.78,15.05z"/>
  <path class="fil1" d="M690.01 1580.28l63.5 -96.54c26.96,-36.61 70.16,-61.04 85.33,-84.41 17.81,-27.41 37.25,-161.37 180.93,-158.81 136.03,2.43 151.24,128.16 174.29,155.28 21.28,25.05 118.8,68.08 149.69,188.18 2.68,-1.63 6.47,-7.4 7.77,-5.32l25.34 -22.11c12.17,-14.31 15.19,-23.05 21.87,-38.09 12.72,-28.58 19.48,-54.37 19.7,-88.36 0.76,-117.53 -100.12,-208.44 -199.05,-249.39 -55.81,-23.09 -122.68,-36.7 -189.53,-37.49 -318.17,-3.81 -507.94,253.75 -339.84,437.06z"/>
  <path class="fil2" d="M971.15 1547.09c-205.15,76.5 -84.27,367.04 109.92,294.29 186.83,-69.98 83.67,-366.49 -109.92,-294.29z"/>
  <path class="fil0" d="M1218.94 856.19c-132.42,43.75 -74.67,253.83 72.66,205.68 129.54,-42.35 71.6,-253.34 -72.66,-205.68z"/>
  <path class="fil0" d="M701.41 857.49c-144.21,54.74 -54.09,256.01 78.34,202.46 124.45,-50.34 61.12,-255.41 -78.34,-202.46z"/>
  <path class="fil1" d="M902.09 1699.76c102.65,18 139.07,14.16 240.19,2.45 -8,-180.36 -233.37,-163.34 -240.19,-2.45z"/>
  <path class="fil1" d="M890.51 1375.23c139.19,-32.88 121.94,-22.87 256.54,-4.12 -17.82,-42.62 -58.09,-79.4 -127.14,-79.67 -65.81,-0.27 -114.28,37.15 -129.4,83.79z"/>
 </g>
</svg>
