<?xml version="1.0" encoding="UTF-8"?>
<!DOCTYPE svg PUBLIC "-//W3C//DTD SVG 1.1//EN" "http://www.w3.org/Graphics/SVG/1.1/DTD/svg11.dtd">
<!-- Creator: CorelDRAW 2018 (64-Bit) -->
<svg xmlns="http://www.w3.org/2000/svg" xml:space="preserve" width="55mm" height="14mm" version="1.1" style="shape-rendering:geometricPrecision; text-rendering:geometricPrecision; image-rendering:optimizeQuality; fill-rule:evenodd; clip-rule:evenodd"
viewBox="0 0 5500 1400"
 xmlns:xlink="http://www.w3.org/1999/xlink">
 <defs>
  <style type="text/css">
   <![CDATA[
    .fil0 {fill:#333333;fill-rule:nonzero}
    .fil1 {fill:gray;fill-rule:nonzero}
   ]]>
  </style>
 </defs>
 <g id="Слой_x0020_1">
  <metadata id="CorelCorpID_0Corel-Layer"/>
  <g id="_2597134134320">
   <path class="fil0" d="M1551.15 507.15c0,44.37 -13.22,84.49 -39.65,120.37 -26.44,35.87 -60.89,68.21 -103.38,97 -42.48,28.8 -90.15,53.81 -143.02,75.05 -52.87,21.25 -105.74,39.18 -158.6,53.82 -52.87,14.63 -103.38,26.19 -151.53,34.69 -48.14,8.5 -88.27,14.16 -120.37,16.99 -7.55,16.05 -13.92,29.03 -19.11,38.95 -5.2,9.91 -10.15,18.41 -14.87,25.49 -4.72,7.08 -9.45,13.69 -14.16,19.82 -4.72,6.14 -10.39,13.46 -16.99,21.95 -1.89,1.89 -5.67,5.43 -11.34,10.62 -5.66,5.19 -12.74,7.79 -21.24,7.79 -3.77,-0.94 -8.26,-2.83 -13.45,-5.66 -5.19,-2.84 -7.79,-7.56 -7.79,-14.16 0,-0.95 1.42,-4.25 4.25,-9.92 2.83,-5.66 6.37,-12.98 10.62,-21.94 4.25,-8.97 8.73,-18.89 13.45,-29.74 4.72,-10.86 8.5,-21.96 11.33,-33.28l-42.48 5.66c-2.83,0 -18.88,1.89 -48.15,5.66 -29.27,3.78 -64.9,8.97 -106.91,15.59 -42.02,6.6 -87.1,14.63 -135.24,24.07 -48.15,9.44 -92.76,20.06 -133.82,31.86 -41.07,11.8 -75.29,24.55 -102.67,38.23 -27.38,13.7 -41.07,28.09 -41.07,43.19 0,18.89 9.68,34.23 29.03,46.03 19.36,11.8 42.72,21.24 70.1,28.32 27.38,7.08 55.7,12.51 84.96,16.29 29.27,3.77 54.29,6.6 75.06,8.49 -4.72,5.67 -12.27,10.15 -22.66,13.45 -10.38,3.31 -21.24,5.67 -32.57,7.08 -11.33,1.42 -21.95,2.37 -31.86,2.84 -9.92,0.47 -16.29,0.7 -19.12,0.7 -14.16,0 -36.11,-2.12 -65.85,-6.37 -29.73,-4.25 -59.47,-11.8 -89.21,-22.65 -29.74,-10.86 -55.94,-25.02 -78.59,-42.49 -22.66,-17.46 -33.99,-38.94 -33.99,-64.43 0,-21.71 15.81,-41.54 47.44,-59.48 31.63,-17.93 71.74,-34.45 120.37,-49.56 48.62,-15.11 102.43,-28.56 161.43,-40.36 59,-11.8 116.36,-21.95 172.06,-30.45 55.7,-8.49 105.97,-15.57 150.81,-21.24 44.85,-5.66 77.18,-9.91 97.01,-12.74 13.21,-33.99 24.54,-72.22 33.98,-114.71 9.44,-42.48 17,-83.31 22.66,-122.49 5.66,-39.17 9.91,-74.11 12.74,-104.79 2.84,-30.68 4.25,-51.21 4.25,-61.6 0,-4.72 0.24,-10.62 0.71,-17.7 0.47,-7.08 0.71,-15.82 0.71,-26.2 0,-17.94 -0.94,-38.47 -2.83,-61.6 -1.89,-23.13 -5.67,-45.55 -11.33,-67.26 -5.67,-21.72 -14.16,-41.78 -25.49,-60.19 -11.33,-18.41 -26.91,-31.39 -46.73,-38.94 -28.33,-11.33 -57.83,-19.59 -88.51,-24.78 -30.68,-5.19 -62.54,-8.73 -95.59,-10.62 -3.77,0 -8.96,-0.48 -15.57,-1.42 -6.61,-0.95 -12.98,-2.83 -19.12,-5.66 -6.14,-2.84 -12.04,-7.08 -17.7,-12.75 -5.67,-5.66 -8.97,-12.74 -9.91,-21.24 6.6,-5.66 13.45,-10.86 20.53,-15.58 7.08,-4.72 16.99,-8.73 29.74,-12.04 12.74,-3.3 29.73,-5.89 50.98,-7.78 21.24,-1.89 49.8,-2.84 85.67,-2.84 2.83,0 10.39,0.24 22.66,0.71 12.27,0.47 25.49,0.71 39.65,0.71 14.16,0 27.61,0.24 40.36,0.71 12.74,0.47 21.01,0.71 24.78,0.71 5.66,0 11.09,-1.42 16.28,-4.25 5.2,-2.83 11.33,-6.14 18.41,-9.92 7.08,-3.77 15.11,-7.55 24.08,-11.32 8.97,-3.78 19.59,-6.14 31.86,-7.08 7.55,5.66 13.92,13.69 19.12,24.07 5.19,10.39 12.51,17.94 21.95,22.66 29.26,12.27 63.96,24.54 104.08,36.82 40.13,12.27 81.66,26.2 124.62,41.77 42.96,15.58 85.67,33.28 128.15,53.1 42.49,19.83 80.49,43.67 114,71.52 33.52,27.85 60.66,60.18 81.43,97 20.76,36.82 31.15,79.3 31.15,127.45zm-92.05 29.74c0,-44.37 -13.68,-84.49 -41.06,-120.37 -27.38,-35.87 -60.66,-66.32 -99.84,-91.34 -39.18,-25.01 -80.48,-44.37 -123.9,-58.06 -43.43,-13.69 -81.2,-20.53 -113.29,-20.53 -18.89,0 -39.18,7.55 -60.9,22.66 -21.71,15.1 -40.12,33.04 -55.22,53.81 0,35.87 -2.13,75.05 -6.38,117.53 -4.24,42.49 -10.86,86.62 -19.82,132.41 -8.97,45.79 -20.3,92.05 -33.99,138.78 -13.69,46.73 -30.45,91.34 -50.27,133.82 20.77,-2.83 50.03,-7.79 87.8,-14.87 37.76,-7.08 79.06,-16.76 123.91,-29.03 44.84,-12.27 90.39,-26.91 136.65,-43.9 46.26,-16.99 88.51,-36.34 126.74,-58.06 38.24,-21.71 69.39,-46.03 93.46,-72.93 24.08,-26.91 36.11,-56.88 36.11,-89.92z"/>
   <path class="fil0" d="M1627.53 714.31c-0.95,-4.76 -1.43,-9.04 -1.43,-12.85 0,-3.8 0,-8.08 0,-12.84 0,-38.06 12.14,-72.79 36.4,-104.19 24.26,-31.4 55.43,-60.9 93.49,-88.49 -0.95,-4.76 -2.14,-9.75 -3.57,-14.99 -1.43,-5.23 -2.14,-10.23 -2.14,-14.98 0,-7.62 2.38,-13.8 7.14,-18.56 4.75,-4.76 13.79,-7.14 27.12,-7.14 19.98,0 35.2,8.81 45.67,26.41 10.46,17.6 19.26,38.3 26.4,62.09 7.14,23.78 14.04,47.57 20.7,71.36 6.66,23.78 16.17,41.87 28.54,54.23 3.81,3.81 9.99,8.81 18.56,14.99 8.56,6.19 17.36,12.85 26.4,19.98 9.04,7.14 16.89,13.8 23.55,19.99 6.66,6.18 9.99,10.7 9.99,13.55 0,10.47 -6.9,17.84 -20.69,22.13 -13.8,4.28 -24.98,6.42 -33.54,6.42 -14.28,0 -25.93,-2.14 -34.97,-6.42 -9.04,-4.29 -16.66,-9.75 -22.84,-16.42 -6.19,-6.66 -12.13,-14.27 -17.84,-22.83 -5.71,-8.57 -11.9,-16.65 -18.56,-24.27 -24.73,19.03 -48.04,36.87 -69.93,53.53 -21.88,16.65 -47.1,24.97 -75.65,24.97 -15.22,0 -29.02,-5.23 -41.39,-15.7 -12.37,-10.47 -19.51,-20.46 -21.41,-29.97zm176.99 -108.47c0,-15.23 -3.81,-29.97 -11.42,-44.25 -7.62,-14.27 -15.7,-28.07 -24.27,-41.39 -9.51,0 -19.27,5.71 -29.26,17.13 -9.99,11.42 -18.79,24.98 -26.4,40.67 -7.61,15.7 -14.04,31.17 -19.27,46.39 -5.23,15.23 -7.85,26.64 -7.85,34.26 0,0.95 0.24,3.57 0.71,7.85 0.48,4.28 1.43,8.56 2.86,12.84 1.43,4.28 3.33,8.09 5.71,11.42 2.38,3.33 5.47,5 9.28,5 11.41,0 22.83,-3.57 34.25,-10.71 11.42,-7.14 22.13,-15.7 32.12,-25.69 9.99,-9.99 18.07,-19.98 24.26,-29.97 6.18,-9.99 9.28,-17.84 9.28,-23.55zm383.93 22.83c-36.16,0 -54.24,19.03 -54.24,57.1 0,16.17 1.43,28.54 4.28,37.1 2.86,8.57 4.29,18.08 4.29,28.55 0,8.56 -7.14,12.84 -21.41,12.84 -10.47,0 -18.55,-3.09 -24.26,-9.27 -5.72,-6.19 -9.99,-14.04 -12.85,-23.55 -2.86,-9.52 -4.76,-19.27 -5.71,-29.26 -0.95,-9.99 -1.43,-19.27 -1.43,-27.83l0 -25.69c0,-4.76 -1.42,-7.38 -4.28,-7.86 -2.85,-0.47 -7.61,-0.71 -14.27,-0.71 -17.13,0.95 -29.02,1.91 -35.68,2.86 -6.66,0.95 -15.23,1.42 -25.69,1.42 -12.37,0 -18.56,-2.37 -18.56,-7.13 0,-8.57 5.24,-14.99 15.7,-19.27 10.47,-4.28 22.13,-8.33 34.97,-12.13 12.84,-3.81 24.74,-8.09 35.68,-12.85 10.94,-4.76 16.41,-11.89 16.41,-21.41l0 -8.56c0,-9.52 -1.42,-19.51 -4.28,-29.97 -2.85,-10.47 -11.42,-15.7 -25.69,-15.7 -4.75,0 -9.04,1.19 -12.84,3.56 -3.81,2.38 -9.52,3.57 -17.13,3.57 -11.42,0 -17.13,-5.23 -17.13,-15.7 0,-3.8 3.57,-9.75 10.7,-17.84 7.14,-8.08 15.71,-15.7 25.7,-22.84 9.99,-7.13 19.98,-13.56 29.97,-19.26 9.99,-5.71 18.32,-8.57 24.98,-8.57 10.47,0 19.26,2.86 26.4,8.57 7.14,5.7 12.61,12.36 16.41,19.98 3.81,7.61 6.43,15.46 7.86,23.55 1.42,8.09 2.14,14.98 2.14,20.7l0 25.69c0,22.83 2.85,36.15 8.56,39.96 5.71,3.81 14.27,5.71 25.69,5.71 19.03,0 33.31,-5.47 42.82,-16.42 9.51,-10.94 15.22,-30.68 17.13,-59.23 1.9,-19.98 7.85,-38.77 17.84,-56.37 9.99,-17.61 20.22,-26.41 30.68,-26.41l1.43 0c4.76,0 9.76,1.9 14.99,5.71 5.23,3.81 7.85,9.04 7.85,15.7l-14.28 87.06c-2.85,15.23 -5.7,34.5 -8.56,57.81 -2.85,23.31 -4.28,50.19 -4.28,80.64 0,22.84 1.43,47.57 4.28,74.21 0.95,4.77 3.57,9.28 7.85,13.56 4.28,4.29 6.42,8.33 6.42,12.14 0,2.85 -1.18,8.8 -3.56,17.84 -2.38,9.04 -7.85,14.03 -16.42,14.99 -19.98,0 -33.06,-5.71 -39.25,-17.13 -6.18,-11.42 -9.28,-25.69 -9.28,-42.82l0 -24.26c0,-12.37 -0.23,-24.27 -0.71,-35.68 -0.47,-11.42 -2.38,-21.42 -5.71,-29.98 -3.33,-8.56 -8.32,-15.22 -14.98,-19.98 -6.66,-4.76 -16.18,-7.14 -28.55,-7.14zm529.52 14.28l-34.26 72.79c-3.8,7.61 -7.13,11.89 -9.99,12.84 -2.85,0.95 -7.61,1.43 -14.27,1.43 -7.61,0 -14.75,-1.9 -21.41,-5.71 -6.66,-3.81 -10.94,-9.99 -12.84,-18.55l-18.56 -97.06c-0.95,-1.9 -2.62,-6.42 -4.99,-13.56 -2.38,-7.13 -5,-10.7 -7.86,-10.7 -3.8,0 -7.84,3.8 -12.12,11.42 -4.29,7.61 -8.57,16.17 -12.85,25.69 -4.28,9.51 -8.09,18.79 -11.42,27.83 -3.33,9.04 -4.99,14.98 -4.99,17.84 0,3.8 -0.72,11.9 -2.15,24.26 -1.42,12.37 -2.14,20.46 -2.14,24.27 -2.85,10.46 -9.75,18.07 -20.69,22.84 -10.95,4.75 -22.12,7.13 -33.55,7.13 -11.41,0 -21.16,-2.85 -29.25,-8.57 -8.09,-5.7 -13.09,-14.74 -14.99,-27.11 0,-2.86 -0.71,-9.28 -2.14,-19.27 -1.43,-9.99 -2.85,-21.17 -4.28,-33.54 -1.43,-12.37 -2.86,-23.79 -4.28,-34.25 -1.43,-10.47 -2.62,-17.13 -3.57,-19.99 0,-1.9 -1.43,-8.09 -4.28,-18.55 -2.86,-10.47 -4.76,-17.13 -5.71,-19.99 -0.95,-4.75 -4.29,-11.65 -9.99,-20.69 -5.71,-9.04 -11.42,-13.56 -17.13,-13.56 -10.47,0 -17.37,5.24 -20.7,15.7 -3.33,10.47 -5.94,21.65 -7.85,33.54 -1.9,11.9 -4.51,23.08 -7.85,33.54 -3.33,10.47 -10.22,15.7 -20.69,15.7 -4.76,0 -7.38,-2.14 -7.85,-6.42 -0.48,-4.28 -0.71,-7.85 -0.71,-10.7 0,-10.47 2.37,-24.27 7.13,-41.39 4.76,-17.13 11.18,-33.78 19.27,-49.96 8.09,-16.18 17.37,-29.97 27.83,-41.39 10.47,-11.42 21.89,-17.13 34.25,-17.13 12.37,0 23.32,5.95 32.83,17.85 9.52,11.89 17.85,25.68 24.98,41.38 7.14,15.71 12.85,31.41 17.13,47.1 4.28,15.7 6.42,27.36 6.42,34.97 0,0 0.95,0.48 2.86,1.43l2.85 0c6.66,0 13.8,-6.9 21.41,-20.7 7.61,-13.79 15.22,-29.02 22.84,-45.67 7.61,-16.65 15.7,-31.87 24.26,-45.67 8.56,-13.8 17.6,-20.7 27.12,-20.7 7.61,0 15.22,4.05 22.83,12.14 7.62,8.08 12.37,15.94 14.28,23.54l18.55 95.63c0,0.95 0.47,1.43 1.43,1.43l2.85 0c9.51,0 17.37,-5.95 23.55,-17.84 6.19,-11.9 12.13,-24.74 17.84,-38.54 5.71,-13.8 11.9,-26.64 18.56,-38.53 6.66,-11.9 15.7,-17.85 27.12,-17.85 6.66,0 12.36,3.57 17.13,10.71 4.75,7.14 9.03,16.65 12.84,28.54 3.81,11.9 7.37,24.98 10.71,39.26 3.33,14.27 7.37,28.54 12.12,42.81 7.62,24.74 14.28,45.92 19.99,63.52 5.7,17.6 16.65,26.4 32.82,26.4 7.62,0 17.61,-3.8 29.98,-11.42 6.66,-4.75 15.46,-12.6 26.4,-23.55 10.94,-10.94 21.17,-16.41 30.69,-16.41 4.76,0 7.61,1.43 8.56,4.28 0.95,2.86 1.43,6.66 1.43,11.42 0,11.42 -4.76,20.93 -14.28,28.55 -17.12,13.32 -34.25,26.4 -51.37,39.25 -17.13,12.84 -35.69,19.26 -55.67,19.26 -11.42,0 -22.6,-2.37 -33.54,-7.14 -10.94,-4.75 -21.17,-13.79 -30.68,-27.11 -3.81,-5.71 -7.14,-12.61 -10,-20.69 -2.85,-8.09 -5.47,-16.42 -7.85,-24.98 -2.38,-8.56 -5.23,-16.66 -8.56,-24.27 -3.33,-7.61 -7.85,-13.32 -13.56,-17.12l-9.99 9.99zm-215.52 -215.52c-1.9,0.95 -5.71,1.43 -11.42,1.43 -5.7,0 -11.89,0.47 -18.55,1.42 -33.3,0 -49.96,-9.51 -49.96,-28.54l0 -2.86c1.91,-6.66 6.19,-11.18 12.85,-13.56 6.66,-2.37 14.27,-3.57 22.84,-3.57l34.25 0c21.88,0 43.53,0.96 64.94,2.86 21.41,1.91 42.1,2.85 62.09,2.85 33.3,0 60.42,-0.47 81.35,-1.42 20.94,-0.96 37.59,-2.14 49.96,-3.57 12.36,-1.43 20.93,-2.85 25.68,-4.28 4.77,-1.43 8.1,-2.14 10,-2.14 7.61,0 11.42,0.95 11.42,2.85l0 1.43c0,8.56 -9.52,15.7 -28.55,21.41 -19.03,5.71 -40.91,10.46 -65.66,14.27 -24.73,3.81 -49,6.42 -72.78,7.85 -23.79,1.43 -40.45,2.14 -49.96,2.14l-78.5 1.43zm505.25 285.45c-7.61,-10.46 -15.22,-23.31 -22.83,-38.53 -7.61,-15.23 -14.51,-31.17 -20.7,-47.82 -6.18,-16.65 -11.42,-33.54 -15.7,-50.66 -4.28,-17.13 -6.42,-33.31 -6.42,-48.53 0,-9.52 0.24,-21.65 0.71,-36.4 0.48,-14.74 2.62,-28.54 6.42,-41.39 3.81,-12.84 9.28,-24.02 16.42,-33.54 7.14,-9.51 17.84,-14.27 32.11,-14.27 6.66,0 11.9,6.18 15.7,18.55 3.81,12.37 6.67,27.83 8.56,46.39 1.91,18.55 3.81,38.77 5.71,60.66 1.91,21.88 5,42.1 9.28,60.66 4.28,18.55 10.23,34.01 17.84,46.38 7.62,12.37 18.08,18.56 31.4,18.56 17.13,0 29.26,-8.81 36.4,-26.41 7.14,-17.6 13.08,-36.87 17.84,-57.8 4.76,-20.94 10.47,-40.2 17.13,-57.81 6.66,-17.6 17.6,-26.4 32.82,-26.4 15.23,0 27.6,4.28 37.11,12.84 9.52,8.57 17.61,18.8 24.27,30.69 6.66,11.9 12.13,24.74 16.41,38.54 4.28,13.79 9.28,25.93 14.99,36.39 6.66,11.42 13.56,25.69 20.69,42.82 7.14,17.13 10.71,32.35 10.71,45.67 0,16.18 -8.09,24.27 -24.27,24.27 -8.56,0 -15.94,-3.33 -22.12,-9.99 -6.18,-6.66 -12.13,-14.28 -17.84,-22.84 -5.71,-8.56 -11.66,-16.18 -17.84,-22.84 -6.18,-6.66 -13.08,-9.99 -20.7,-9.99l-2.85 1.43c-10.47,4.76 -18.56,13.32 -24.27,25.69 -5.7,12.37 -11.65,24.74 -17.83,37.11 -6.19,12.37 -13.56,23.31 -22.13,32.82 -8.56,9.52 -21.41,14.28 -38.53,14.28 -18.09,0 -35.69,-3.09 -52.81,-9.27 -17.13,-6.19 -32.36,-19.27 -45.68,-39.26zm346.83 -55.66c0,-19.98 4.99,-40.91 14.98,-62.8 9.99,-21.88 24.51,-42.1 43.53,-60.66 19.04,-18.55 41.88,-33.78 68.52,-45.67 26.64,-11.89 57.09,-17.84 91.34,-17.84 4.76,0 9.04,0 12.85,0 3.8,0 8.09,0.47 12.84,1.42 7.61,1.91 13.32,7.14 17.13,15.7 3.8,8.57 5.71,14.28 5.71,17.13 -2.86,6.66 -7.85,11.42 -14.99,14.27 -7.14,2.86 -15.46,5 -24.97,6.43 -9.52,1.42 -18.8,2.37 -27.84,2.85 -9.03,0.48 -16.41,1.67 -22.12,3.57 -27.59,9.51 -50.91,21.88 -69.93,37.11 -19.04,15.22 -28.55,35.2 -28.55,59.94 0,17.13 4.76,33.55 14.27,49.24 9.51,15.7 25.69,23.55 48.53,23.55 12.37,0 23.07,-4.04 32.11,-12.13 9.04,-8.09 17.13,-16.65 24.27,-25.69 7.13,-9.04 14.51,-17.6 22.12,-25.69 7.61,-8.09 16.65,-12.13 27.12,-12.13 16.17,0 25.93,5.95 29.26,17.84 3.33,11.9 4.99,23.07 4.99,33.54 0,13.32 -4.28,24.5 -12.85,33.54 -8.56,9.04 -19.74,16.89 -33.54,23.55 -13.79,6.66 -29.49,11.66 -47.1,14.99 -17.6,3.33 -35.44,4.99 -53.52,4.99 -14.27,0 -29.5,-1.66 -45.67,-4.99 -16.18,-3.33 -30.69,-8.81 -43.53,-16.41 -12.85,-7.62 -23.55,-17.61 -32.12,-29.98 -8.56,-12.37 -12.84,-27.59 -12.84,-45.67zm687.94 -14.27l-34.25 72.79c-3.8,7.61 -7.13,11.89 -9.99,12.84 -2.86,0.95 -7.61,1.43 -14.27,1.43 -7.62,0 -14.75,-1.9 -21.41,-5.71 -6.66,-3.81 -10.94,-9.99 -12.85,-18.55l-18.55 -97.06c-0.95,-1.9 -2.62,-6.42 -5,-13.56 -2.37,-7.13 -4.99,-10.7 -7.85,-10.7 -3.8,0 -7.85,3.8 -12.13,11.42 -4.28,7.61 -8.56,16.17 -12.84,25.69 -4.29,9.51 -8.09,18.79 -11.42,27.83 -3.33,9.04 -5,14.98 -5,17.84 0,3.8 -0.71,11.9 -2.14,24.26 -1.43,12.37 -2.14,20.46 -2.14,24.27 -2.86,10.46 -9.75,18.07 -20.7,22.84 -10.94,4.75 -22.12,7.13 -33.54,7.13 -11.41,0 -21.17,-2.85 -29.26,-8.57 -8.08,-5.7 -13.08,-14.74 -14.98,-27.11 0,-2.86 -0.72,-9.28 -2.14,-19.27 -1.43,-9.99 -2.86,-21.17 -4.28,-33.54 -1.43,-12.37 -2.86,-23.79 -4.29,-34.25 -1.42,-10.47 -2.61,-17.13 -3.57,-19.99 0,-1.9 -1.42,-8.09 -4.28,-18.55 -2.85,-10.47 -4.75,-17.13 -5.71,-19.99 -0.95,-4.75 -4.28,-11.65 -9.99,-20.69 -5.7,-9.04 -11.41,-13.56 -17.13,-13.56 -10.46,0 -17.36,5.24 -20.69,15.7 -3.33,10.47 -5.95,21.65 -7.85,33.54 -1.9,11.9 -4.52,23.08 -7.85,33.54 -3.33,10.47 -10.23,15.7 -20.7,15.7 -4.75,0 -7.37,-2.14 -7.84,-6.42 -0.48,-4.28 -0.72,-7.85 -0.72,-10.7 0,-10.47 2.38,-24.27 7.14,-41.39 4.76,-17.13 11.18,-33.78 19.27,-49.96 8.09,-16.18 17.36,-29.97 27.83,-41.39 10.47,-11.42 21.88,-17.13 34.25,-17.13 12.37,0 23.31,5.95 32.83,17.85 9.52,11.89 17.84,25.68 24.98,41.38 7.13,15.71 12.84,31.41 17.13,47.1 4.28,15.7 6.42,27.36 6.42,34.97 0,0 0.95,0.48 2.85,1.43l2.85 0c6.66,0 13.8,-6.9 21.42,-20.7 7.61,-13.79 15.22,-29.02 22.83,-45.67 7.62,-16.65 15.7,-31.87 24.27,-45.67 8.56,-13.8 17.6,-20.7 27.11,-20.7 7.61,0 15.23,4.05 22.84,12.14 7.61,8.08 12.37,15.94 14.27,23.54l18.56 95.63c0,0.95 0.47,1.43 1.42,1.43l2.86 0c9.51,0 17.36,-5.95 23.55,-17.84 6.18,-11.9 12.13,-24.74 17.84,-38.54 5.71,-13.8 11.89,-26.64 18.55,-38.53 6.66,-11.9 15.71,-17.85 27.12,-17.85 6.66,0 12.37,3.57 17.13,10.71 4.76,7.14 9.04,16.65 12.84,28.54 3.81,11.9 7.38,24.98 10.71,39.26 3.33,14.27 7.38,28.54 12.13,42.81 7.61,24.74 14.27,45.92 19.98,63.52 5.71,17.6 16.65,26.4 32.83,26.4 7.61,0 17.6,-3.8 29.97,-11.42 6.66,-4.75 15.47,-12.6 26.41,-23.55 10.94,-10.94 21.17,-16.41 30.68,-16.41 4.76,0 7.62,1.43 8.57,4.28 0.95,2.86 1.42,6.66 1.42,11.42 0,11.42 -4.75,20.93 -14.27,28.55 -17.12,13.32 -34.25,26.4 -51.38,39.25 -17.13,12.84 -35.68,19.26 -55.66,19.26 -11.42,0 -22.6,-2.37 -33.54,-7.14 -10.95,-4.75 -21.18,-13.79 -30.69,-27.11 -3.81,-5.71 -7.14,-12.61 -9.99,-20.69 -2.86,-8.09 -5.47,-16.42 -7.85,-24.98 -2.38,-8.56 -5.23,-16.66 -8.56,-24.27 -3.34,-7.61 -7.86,-13.32 -13.56,-17.12l-10 9.99zm-215.51 -215.52c-1.91,0.95 -5.71,1.43 -11.42,1.43 -5.71,0 -11.89,0.47 -18.56,1.42 -33.3,0 -49.95,-9.51 -49.95,-28.54l0 -2.86c1.9,-6.66 6.18,-11.18 12.84,-13.56 6.66,-2.37 14.28,-3.57 22.84,-3.57l34.26 0c21.88,0 43.53,0.96 64.94,2.86 21.41,1.91 42.1,2.85 62.09,2.85 33.3,0 60.42,-0.47 81.35,-1.42 20.93,-0.96 37.58,-2.14 49.95,-3.57 12.37,-1.43 20.94,-2.85 25.69,-4.28 4.76,-1.43 8.09,-2.14 9.99,-2.14 7.61,0 11.42,0.95 11.42,2.85l0 1.43c0,8.56 -9.51,15.7 -28.54,21.41 -19.03,5.71 -40.92,10.46 -65.66,14.27 -24.74,3.81 -49,6.42 -72.79,7.85 -23.79,1.43 -40.44,2.14 -49.95,2.14l-78.5 1.43zm643.69 49.95c29.5,2.86 48.06,12.37 55.67,28.55 7.61,16.17 11.42,36.16 11.42,59.95 0,22.83 -4.29,44.95 -12.85,66.36 -8.56,21.41 -20.22,40.68 -34.97,57.81 -14.74,17.12 -31.87,30.68 -51.38,40.67 -19.5,9.99 -39.72,14.99 -60.66,14.99 -58.04,0 -87.06,-33.78 -87.06,-101.34 0,-18.07 3.09,-38.53 9.28,-61.37 6.18,-22.84 14.74,-44.24 25.69,-64.23 10.94,-19.98 23.79,-36.63 38.53,-49.95 14.75,-13.32 31.17,-19.98 49.24,-19.98 4.76,0 11.9,4.04 21.41,12.13 9.52,8.09 21.41,13.56 35.68,16.41zm-29.97 119.89c-5.71,-11.41 -13.56,-23.78 -23.55,-37.11 -9.99,-13.32 -14.98,-26.64 -14.98,-39.96 0,-4.76 0.71,-9.99 2.14,-15.7 1.43,-5.71 4.52,-10.94 9.27,-15.7 -1.9,-1.9 -4.28,-2.85 -7.13,-2.85 -7.61,0 -14.75,2.85 -21.41,8.56 -6.66,5.71 -12.37,13.32 -17.13,22.84 -4.76,9.51 -8.56,20.45 -11.42,32.82 -2.85,12.38 -4.28,24.74 -4.28,37.11 0,18.08 2.62,34.97 7.85,50.67 5.24,15.7 14.03,23.55 26.41,23.55 3.8,0 9.28,-0.48 16.41,-1.43 7.14,-0.95 14.03,-2.85 20.69,-5.71 6.66,-2.85 12.38,-6.66 17.13,-11.41 4.76,-4.76 7.14,-11.42 7.14,-19.98 0,-9.52 -2.38,-18.08 -7.14,-25.7zm326.85 755.03c-18.08,-48.52 -32.12,-94.2 -42.11,-137.02 -9.99,-42.82 -17.12,-85.16 -21.4,-127.02 -4.29,-41.87 -6.67,-84.69 -7.14,-128.46 -0.48,-43.77 -0.72,-89.92 -0.72,-138.44 0,-7.62 -3.8,-13.8 -11.41,-18.56 -7.62,-4.76 -16.18,-9.52 -25.7,-14.27 -16.17,-7.61 -32.11,-18.56 -47.81,-32.83 -15.7,-14.27 -23.55,-31.4 -23.55,-51.38 0,-19.03 4.76,-36.87 14.28,-53.53 9.51,-16.65 21.64,-31.87 36.39,-45.67 14.75,-13.79 30.69,-26.16 47.81,-37.11 17.13,-10.94 32.83,-20.69 47.1,-29.25 6.66,-3.81 14.75,-7.62 24.27,-11.42 9.51,-3.81 16.17,-9.04 19.98,-15.7 15.22,-19.99 33.78,-37.35 55.66,-52.1 21.89,-14.75 47.1,-22.12 75.65,-22.12 19.98,0 35.68,3.8 47.1,11.42 11.42,7.61 20.46,17.84 27.12,30.69 6.66,12.84 10.94,27.11 12.84,42.81 1.91,15.7 2.85,31.16 2.85,46.39 0,47.58 -19.02,88.49 -57.09,122.74 -38.05,34.26 -88.01,62.33 -149.86,84.21 -6.66,4.76 -12.37,10.47 -17.12,17.13 -4.76,6.66 -8.09,13.32 -9.99,19.98 -11.43,44.72 -18.32,93.01 -20.7,144.87 -2.38,51.86 -2.38,102.05 0,150.58 2.38,48.52 6.9,93.01 13.56,133.45 6.66,40.44 13.8,72.55 21.4,96.34 3.81,11.42 4.29,20.22 1.43,26.4 -2.85,6.19 -7.13,2.14 -12.84,-12.13zm-107.05 -676.52c0,4.75 0.72,10.22 2.14,16.41 1.43,6.18 3.57,11.65 6.43,16.41 2.85,4.76 6.42,8.33 10.7,10.71 4.28,2.38 9.28,2.14 14.99,-0.72 7.61,-3.8 14.03,-11.89 19.27,-24.26 5.23,-12.37 9.99,-26.17 14.27,-41.39 4.28,-15.23 8.08,-30.69 11.41,-46.39 3.33,-15.7 6.9,-29.26 10.71,-40.67 -5.71,3.8 -13.32,8.79 -22.83,14.98 -9.52,6.18 -19.04,14.03 -28.55,23.55 -9.52,9.51 -17.84,20.22 -24.98,32.11 -7.14,11.9 -11.66,24.98 -13.56,39.26zm119.89 8.56c0,3.8 1.67,8.56 5,14.27 3.33,5.71 7.37,8.09 12.13,7.14 19.98,-1.91 38.54,-7.38 55.66,-16.42 17.13,-9.04 31.88,-20.21 44.25,-33.54 12.37,-13.32 21.88,-28.07 28.54,-44.24 6.66,-16.18 9.04,-32.83 7.14,-49.96 -1.9,-16.17 -6.9,-25.93 -14.98,-29.26 -8.09,-3.33 -14.99,-4.99 -20.7,-4.99 -14.27,0 -28.31,5.95 -42.11,17.84 -13.79,11.89 -26.4,26.4 -37.82,43.53 -11.42,17.13 -20.45,34.49 -27.12,52.09 -6.66,17.61 -9.99,32.12 -9.99,43.54zm458.16 667.96c-18.08,-48.52 -32.12,-94.2 -42.11,-137.02 -9.99,-42.82 -17.12,-85.16 -21.41,-127.02 -4.28,-41.87 -6.66,-84.69 -7.14,-128.46 -0.47,-43.77 -0.71,-89.92 -0.71,-138.44 0,-7.62 -3.8,-13.8 -11.41,-18.56 -7.62,-4.76 -16.18,-9.52 -25.7,-14.27 -16.17,-7.61 -32.11,-18.56 -47.81,-32.83 -15.7,-14.27 -23.55,-31.4 -23.55,-51.38 0,-19.03 4.76,-36.87 14.28,-53.53 9.51,-16.65 21.64,-31.87 36.39,-45.67 14.75,-13.79 30.69,-26.16 47.81,-37.11 17.13,-10.94 32.83,-20.69 47.1,-29.25 6.66,-3.81 14.75,-7.62 24.27,-11.42 9.51,-3.81 16.17,-9.04 19.98,-15.7 15.22,-19.99 33.78,-37.35 55.66,-52.1 21.89,-14.75 47.1,-22.12 75.65,-22.12 19.98,0 35.68,3.8 47.09,11.42 11.43,7.61 20.46,17.84 27.12,30.69 6.66,12.84 10.95,27.11 12.85,42.81 1.91,15.7 2.85,31.16 2.85,46.39 0,47.58 -19.03,88.49 -57.09,122.74 -38.06,34.26 -88.01,62.33 -149.86,84.21 -6.66,4.76 -12.37,10.47 -17.13,17.13 -4.76,6.66 -8.09,13.32 -9.99,19.98 -11.42,44.72 -18.32,93.01 -20.69,144.87 -2.38,51.86 -2.38,102.05 0,150.58 2.37,48.52 6.9,93.01 13.56,133.45 6.66,40.44 13.79,72.55 21.4,96.34 3.81,11.42 4.28,20.22 1.43,26.4 -2.85,6.19 -7.14,2.14 -12.84,-12.13zm-107.05 -676.52c0,4.75 0.72,10.22 2.14,16.41 1.43,6.18 3.57,11.65 6.43,16.41 2.85,4.76 6.42,8.33 10.7,10.71 4.28,2.38 9.28,2.14 14.99,-0.72 7.61,-3.8 14.03,-11.89 19.26,-24.26 5.24,-12.37 9.99,-26.17 14.28,-41.39 4.28,-15.23 8.08,-30.69 11.41,-46.39 3.33,-15.7 6.9,-29.26 10.71,-40.67 -5.71,3.8 -13.32,8.79 -22.84,14.98 -9.51,6.18 -19.03,14.03 -28.54,23.55 -9.52,9.51 -17.84,20.22 -24.98,32.11 -7.14,11.9 -11.66,24.98 -13.56,39.26zm119.89 8.56c0,3.8 1.67,8.56 5,14.27 3.33,5.71 7.37,8.09 12.13,7.14 19.98,-1.91 38.53,-7.38 55.66,-16.42 17.13,-9.04 31.88,-20.21 44.25,-33.54 12.37,-13.32 21.88,-28.07 28.54,-44.24 6.66,-16.18 9.04,-32.83 7.14,-49.96 -1.9,-16.17 -6.9,-25.93 -14.98,-29.26 -8.1,-3.33 -14.99,-4.99 -20.7,-4.99 -14.28,0 -28.31,5.95 -42.11,17.84 -13.79,11.89 -26.4,26.4 -37.82,43.53 -11.42,17.13 -20.46,34.49 -27.12,52.09 -6.66,17.61 -9.99,32.12 -9.99,43.54z"/>
   <path class="fil1" d="M1617.76 1026.04c0,2.08 -0.43,3.46 -1.28,4.12 -0.86,0.66 -2.23,1 -4.13,1l-13.93 0c-1.9,0 -3.32,-0.34 -4.27,-1 -0.95,-0.66 -1.42,-2.04 -1.42,-4.12l0 -139.36c0,-2.09 0.47,-3.41 1.42,-3.98 0.95,-0.57 2.37,-0.86 4.27,-0.86l13.93 0c1.9,0 3.27,0.29 4.13,0.86 0.85,0.57 1.28,1.89 1.28,3.98l0 53.75 73.37 0 0 -53.75c0,-2.09 0.43,-3.41 1.28,-3.98 0.86,-0.57 2.23,-0.86 4.13,-0.86l13.94 0c2.08,0 3.45,0.29 4.12,0.86 0.66,0.57 0.99,1.89 0.99,3.98l0 139.36c0,2.08 -0.33,3.46 -0.99,4.12 -0.67,0.66 -2.04,1 -4.12,1l-13.94 0c-1.9,0 -3.27,-0.34 -4.13,-1 -0.85,-0.66 -1.28,-2.04 -1.28,-4.12l0 -64.56 -73.37 0 0 64.56zm251.41 -8.82c0,3.79 -1.42,6.26 -4.27,7.39 -8.53,3.8 -17.77,6.36 -27.73,7.68 -9.95,1.33 -19.47,2 -28.58,2 -12.32,0 -22.42,-1.28 -30.29,-3.85 -7.87,-2.56 -14.08,-6.01 -18.62,-10.38 -4.55,-4.36 -7.73,-9.38 -9.53,-15.07 -1.81,-5.69 -2.71,-11.66 -2.71,-17.92 0,-6.44 1.09,-12.75 3.28,-18.91 2.17,-6.16 5.73,-11.57 10.66,-16.21 4.93,-4.65 11.33,-8.39 19.2,-11.24 7.87,-2.84 17.49,-4.26 28.86,-4.26l34.7 0 0 -6.26c0,-4.55 -0.42,-8.63 -1.28,-12.23 -0.85,-3.6 -2.51,-6.73 -4.97,-9.39 -2.47,-2.65 -5.93,-4.69 -10.38,-6.11 -4.46,-1.42 -10.2,-2.13 -17.21,-2.13 -6.64,0 -13.7,0.57 -21.19,1.71 -7.49,1.13 -13.6,2.46 -18.34,3.98 -1.52,0.57 -2.75,0.76 -3.7,0.57 -0.95,-0.19 -1.61,-1.05 -1.99,-2.57l-3.42 -12.22c-0.37,-0.95 -0.42,-1.85 -0.14,-2.7 0.29,-0.86 1.19,-1.57 2.7,-2.14 7.21,-3.03 15.46,-5.16 24.75,-6.4 9.29,-1.23 17.82,-1.84 25.6,-1.84 18.96,0 32.79,4.21 41.52,12.65 8.72,8.44 13.08,20.72 13.08,36.83l0 89.02zm-25.31 -59.44l-32.99 0c-3.41,0 -7.35,0.23 -11.81,0.71 -4.45,0.47 -8.67,1.71 -12.65,3.7 -3.98,1.99 -7.35,4.93 -10.1,8.81 -2.75,3.89 -4.12,9.25 -4.12,16.07 0,5.12 0.94,9.44 2.84,12.94 1.9,3.51 4.46,6.26 7.68,8.25 3.23,1.99 7.02,3.41 11.38,4.27 4.36,0.85 9.1,1.28 14.22,1.28 1.7,0 3.93,-0.05 6.68,-0.14 2.75,-0.1 5.79,-0.39 9.1,-0.86 3.32,-0.47 6.69,-1.04 10.1,-1.7 3.41,-0.67 6.64,-1.57 9.67,-2.71l0 -50.62zm122.58 97.83c-4.36,13.09 -9.96,22.19 -16.78,27.31 -6.82,5.12 -15.55,7.68 -26.17,7.68 -2.65,0 -5.97,-0.19 -9.95,-0.57 -3.98,-0.38 -8.34,-1.24 -13.08,-2.56 -3.04,-0.76 -4.17,-2.27 -3.42,-4.55l3.13 -12.51c0.38,-1.52 0.95,-2.42 1.71,-2.71 0.76,-0.28 1.8,-0.23 3.13,0.15 3.6,0.94 6.3,1.56 8.1,1.84 1.8,0.29 3.94,0.43 6.4,0.43 6.45,0 11.66,-1.28 15.64,-3.84 3.98,-2.56 7.21,-7.63 9.67,-15.22 0.19,-0.56 0.67,-1.89 1.42,-3.98 0.77,-2.08 1.57,-4.31 2.43,-6.68 0.85,-2.37 1.61,-4.6 2.27,-6.69 0.66,-2.08 1.09,-3.41 1.28,-3.97l-5.4 0c-2.66,0 -4.98,-0.43 -6.97,-1.28 -2,-0.86 -3.75,-3.75 -5.27,-8.68l-43.79 -134.81c-0.57,-2.08 0.28,-3.13 2.56,-3.13l19.05 0c2.09,0 3.41,0.95 3.98,2.85 0.38,1.33 1.19,3.93 2.42,7.82 1.23,3.89 2.7,8.43 4.41,13.65 1.71,5.21 3.51,10.81 5.4,16.78 1.9,5.97 3.7,11.56 5.41,16.78 1.7,5.21 3.17,9.81 4.41,13.79 1.23,3.99 2.03,6.55 2.41,7.68l14.51 50.06 1.7 0c0.57,-1.52 1.71,-4.93 3.42,-10.24 1.7,-5.31 3.45,-10.95 5.26,-16.93 1.8,-5.97 3.51,-11.37 5.12,-16.21 1.61,-4.83 2.51,-7.44 2.7,-7.81 0.19,-0.39 0.8,-2.14 1.85,-5.27 1.04,-3.12 2.37,-7.06 3.98,-11.8 1.61,-4.74 3.36,-9.91 5.26,-15.5 1.9,-5.59 3.74,-11.14 5.55,-16.64 1.8,-5.5 3.51,-10.57 5.12,-15.22 1.61,-4.64 2.89,-8.29 3.84,-10.94 0.57,-1.9 1.89,-2.85 3.98,-2.85l18.2 0c2.27,0 3.13,1.05 2.56,3.13l-57.45 170.64zm70.53 -169.5c0,-1.9 0.38,-3.08 1.14,-3.56 0.76,-0.47 1.9,-0.71 3.41,-0.71l15.93 0c1.52,0 2.65,0.24 3.41,0.71 0.76,0.48 1.14,1.66 1.14,3.56l0 33.28c0,7.2 0.71,13.08 2.13,17.63 1.42,4.55 3.61,8.1 6.55,10.66 2.93,2.56 6.72,4.36 11.37,5.41 4.65,1.04 10.1,1.56 16.35,1.56 4.93,0 10.62,-0.42 17.07,-1.28 6.44,-0.85 12.13,-2.23 17.06,-4.13l0 -63.13c0,-1.9 0.33,-3.08 1,-3.56 0.66,-0.47 1.84,-0.71 3.55,-0.71l15.64 0c1.52,0 2.66,0.24 3.42,0.71 0.76,0.48 1.13,1.66 1.13,3.56l0 140.78c0,1.9 -0.37,3.08 -1.13,3.55 -0.76,0.48 -1.9,0.72 -3.42,0.72l-15.64 0c-1.71,0 -2.89,-0.24 -3.55,-0.72 -0.67,-0.47 -1,-1.65 -1,-3.55l0 -56.59c-5.5,1.89 -11.9,3.36 -19.2,4.4 -7.3,1.04 -13.6,1.57 -18.91,1.57 -20.1,0 -34.7,-4.7 -43.8,-14.08 -9.1,-9.39 -13.65,-23.84 -13.65,-43.38l0 -32.7zm182.59 139.93c0,2.08 -0.43,3.46 -1.28,4.12 -0.85,0.66 -2.23,1 -4.12,1l-13.94 0c-1.89,0 -3.32,-0.34 -4.27,-1 -0.94,-0.66 -1.42,-2.04 -1.42,-4.12l0 -139.36c0,-2.09 0.48,-3.41 1.42,-3.98 0.95,-0.57 2.38,-0.86 4.27,-0.86l13.94 0c1.89,0 3.27,0.29 4.12,0.86 0.85,0.57 1.28,1.89 1.28,3.98l0 53.75 73.38 0 0 -53.75c0,-2.09 0.42,-3.41 1.28,-3.98 0.85,-0.57 2.22,-0.86 4.12,-0.86l13.94 0c2.08,0 3.46,0.29 4.12,0.86 0.66,0.57 1,1.89 1,3.98l0 139.36c0,2.08 -0.34,3.46 -1,4.12 -0.66,0.66 -2.04,1 -4.12,1l-13.94 0c-1.9,0 -3.27,-0.34 -4.12,-1 -0.86,-0.66 -1.28,-2.04 -1.28,-4.12l0 -64.56 -73.38 0 0 64.56zm251.41 -8.82c0,3.79 -1.42,6.26 -4.26,7.39 -8.53,3.8 -17.78,6.36 -27.73,7.68 -9.96,1.33 -19.48,2 -28.58,2 -12.33,0 -22.43,-1.28 -30.29,-3.85 -7.87,-2.56 -14.08,-6.01 -18.63,-10.38 -4.55,-4.36 -7.73,-9.38 -9.53,-15.07 -1.8,-5.69 -2.7,-11.66 -2.7,-17.92 0,-6.44 1.09,-12.75 3.27,-18.91 2.18,-6.16 5.73,-11.57 10.66,-16.21 4.94,-4.65 11.33,-8.39 19.2,-11.24 7.87,-2.84 17.49,-4.26 28.87,-4.26l34.69 0 0 -6.26c0,-4.55 -0.42,-8.63 -1.28,-12.23 -0.85,-3.6 -2.5,-6.73 -4.97,-9.39 -2.47,-2.65 -5.93,-4.69 -10.38,-6.11 -4.46,-1.42 -10.19,-2.13 -17.21,-2.13 -6.64,0 -13.7,0.57 -21.19,1.71 -7.49,1.13 -13.6,2.46 -18.34,3.98 -1.52,0.57 -2.75,0.76 -3.7,0.57 -0.95,-0.19 -1.61,-1.05 -1.99,-2.57l-3.41 -12.22c-0.38,-0.95 -0.43,-1.85 -0.15,-2.7 0.29,-0.86 1.19,-1.57 2.71,-2.14 7.2,-3.03 15.45,-5.16 24.74,-6.4 9.29,-1.23 17.82,-1.84 25.6,-1.84 18.96,0 32.8,4.21 41.52,12.65 8.72,8.44 13.08,20.72 13.08,36.83l0 89.02zm-25.31 -59.44l-32.99 0c-3.41,0 -7.35,0.23 -11.81,0.71 -4.45,0.47 -8.67,1.71 -12.65,3.7 -3.98,1.99 -7.35,4.93 -10.09,8.81 -2.75,3.89 -4.13,9.25 -4.13,16.07 0,5.12 0.95,9.44 2.85,12.94 1.89,3.51 4.45,6.26 7.67,8.25 3.23,1.99 7.02,3.41 11.38,4.27 4.36,0.85 9.1,1.28 14.22,1.28 1.71,0 3.93,-0.05 6.68,-0.14 2.75,-0.1 5.79,-0.39 9.1,-0.86 3.33,-0.47 6.69,-1.04 10.1,-1.7 3.42,-0.67 6.64,-1.57 9.67,-2.71l0 -50.62zm167.52 -75.94c3.41,0 6.3,0.95 8.67,2.85 2.37,1.89 3.56,4.83 3.56,8.81l0 133.96c0,1.7 -0.48,2.75 -1.42,3.13 -0.95,0.38 -2.19,0.57 -3.7,0.57l-15.07 0c-1.71,0 -2.89,-0.24 -3.56,-0.72 -0.66,-0.47 -1,-1.56 -1,-3.26l0 -57.17 -36.4 0c-7.59,0 -13.89,1.18 -18.91,3.55 -5.03,2.37 -8.87,7.82 -11.52,16.35l-11.38 37.55c-0.38,1.51 -1.09,2.51 -2.13,2.98 -1.04,0.48 -2.04,0.72 -2.99,0.72l-16.78 0c-1.51,0 -2.51,-0.29 -2.98,-0.86 -0.48,-0.56 -0.72,-1.23 -0.72,-1.99l0 -1.7 13.09 -40.67c1.51,-5.12 3.7,-9.72 6.54,-13.8 2.84,-4.08 7.58,-6.97 14.22,-8.67 -0.19,0 -0.29,-0.1 -0.29,-0.29 -9.28,-2.65 -15.92,-7.39 -19.9,-14.22 -3.98,-6.82 -5.98,-14.5 -5.98,-23.04 0,-6.25 1.09,-12.03 3.28,-17.35 2.17,-5.3 5.4,-9.95 9.66,-13.93 4.27,-3.98 9.44,-7.11 15.5,-9.39 6.07,-2.27 12.99,-3.41 20.77,-3.41l59.44 0zm-57.74 21.05c-4.93,0 -9.05,0.71 -12.37,2.13 -3.31,1.43 -6.02,3.27 -8.1,5.55 -2.09,2.27 -3.61,4.79 -4.56,7.54 -0.94,2.75 -1.42,5.45 -1.42,8.1 0,6.64 2.09,12.28 6.26,16.92 4.17,4.65 11.57,6.97 22.19,6.97l43.22 0 0 -47.21 -45.22 0zm246.3 110.06c6.44,0 12.75,-0.85 18.91,-2.56 6.16,-1.7 11.33,-3.6 15.5,-5.68 1.71,-0.95 2.94,-1.19 3.7,-0.71 0.76,0.47 1.42,1.18 1.99,2.13l5.69 11.94c1.52,2.47 1.04,4.46 -1.42,5.98 -7.21,3.98 -15.08,6.68 -23.61,8.1 -8.53,1.42 -16.69,2.14 -24.46,2.14 -20.86,0 -36.78,-6.41 -47.78,-19.2 -11,-12.8 -16.5,-31.81 -16.5,-57.03 0,-12.13 1.57,-23.08 4.7,-32.84 3.13,-9.77 7.58,-18.12 13.37,-25.03 5.78,-6.92 12.84,-12.23 21.18,-15.93 8.34,-3.7 17.73,-5.54 28.16,-5.54 7.58,0 14.84,0.75 21.76,2.27 6.92,1.51 13.6,4.07 20.05,7.68 2.65,1.52 3.22,3.51 1.7,5.97l-5.97 11.66c-0.57,1.14 -1.18,1.94 -1.85,2.42 -0.66,0.47 -1.85,0.24 -3.55,-0.71 -4.55,-2.09 -9.48,-3.8 -14.79,-5.12 -5.31,-1.33 -11,-1.99 -17.07,-1.99 -7.58,0 -14.08,1.56 -19.48,4.69 -5.4,3.13 -9.86,7.35 -13.37,12.66 -3.5,5.31 -6.07,11.38 -7.68,18.2 -1.61,6.82 -2.41,14.03 -2.41,21.61 0,7.59 0.66,14.7 1.99,21.33 1.33,6.64 3.65,12.47 6.97,17.49 3.32,5.03 7.72,8.96 13.22,11.81 5.5,2.84 12.51,4.26 21.05,4.26zm131.39 13.09c0,2.08 -0.38,3.46 -1.13,4.12 -0.76,0.66 -2.09,1 -3.99,1l-13.93 0c-1.9,0 -3.23,-0.34 -3.98,-1 -0.76,-0.66 -1.14,-2.04 -1.14,-4.12l0 -122.87 -44.08 0c-2.09,0 -3.47,-0.43 -4.13,-1.28 -0.66,-0.85 -1,-2.04 -1,-3.55l0 -11.09c0,-1.71 0.34,-3.04 1,-3.98 0.66,-0.96 2.04,-1.43 4.13,-1.43l114.33 0c2.27,0 3.7,0.47 4.26,1.43 0.57,0.94 0.86,2.27 0.86,3.98l0 11.09c0,1.51 -0.29,2.7 -0.86,3.55 -0.56,0.85 -1.99,1.28 -4.26,1.28l-46.08 0 0 122.87zm199.65 -70.25c0,25.4 -5.73,44.84 -17.2,58.3 -11.47,13.46 -28.11,20.2 -49.91,20.2 -21.43,0 -37.74,-6.55 -48.92,-19.63 -11.19,-13.08 -16.78,-32.42 -16.78,-58.02 0,-12.51 1.66,-23.61 4.97,-33.27 3.32,-9.67 7.97,-17.83 13.94,-24.46 5.97,-6.64 13.04,-11.66 21.19,-15.08 8.15,-3.41 16.97,-5.11 26.45,-5.11 21.61,0 38.06,6.82 49.34,20.47 11.28,13.65 16.92,32.52 16.92,56.6zm-25.02 0.85c0,-7.4 -0.57,-14.55 -1.71,-21.47 -1.14,-6.92 -3.22,-12.99 -6.26,-18.2 -3.03,-5.22 -7.2,-9.44 -12.51,-12.66 -5.31,-3.22 -12.14,-4.83 -20.48,-4.83 -7.2,0 -13.46,1.51 -18.77,4.54 -5.31,3.04 -9.67,7.12 -13.08,12.24 -3.41,5.11 -5.97,11.09 -7.68,17.91 -1.71,6.83 -2.56,14.03 -2.56,21.62 0,8.53 0.66,16.35 1.99,23.46 1.33,7.11 3.6,13.18 6.83,18.2 3.22,5.03 7.44,8.96 12.65,11.81 5.22,2.84 11.81,4.26 19.77,4.26 7.96,0 14.64,-1.61 20.05,-4.83 5.41,-3.22 9.72,-7.49 12.94,-12.8 3.22,-5.31 5.5,-11.38 6.83,-18.2 1.32,-6.83 1.99,-13.85 1.99,-21.05zm80.2 -33.56l0 103.81c0,1.9 -0.33,3.08 -1,3.55 -0.66,0.48 -1.85,0.72 -3.55,0.72l-14.79 0c-1.52,0 -2.66,-0.24 -3.41,-0.72 -0.76,-0.47 -1.14,-1.65 -1.14,-3.55l0 -134.53c0,-2.65 0.85,-5.07 2.56,-7.25 1.71,-2.18 4.74,-3.27 9.1,-3.27l8.82 0c3.22,0 5.78,0.52 7.67,1.57 1.9,1.04 3.7,3.36 5.41,6.97l29.86 61.71c0.19,0.76 1.14,2.94 2.84,6.54 1.71,3.6 3.51,7.54 5.41,11.81 1.89,4.26 3.7,8.2 5.4,11.8 1.71,3.6 2.75,5.69 3.13,6.25l0.85 0c0.38,-0.94 1.57,-3.55 3.56,-7.81 1.99,-4.27 4.12,-8.87 6.4,-13.8 2.27,-4.93 4.41,-9.53 6.4,-13.79 1.99,-4.27 3.27,-6.88 3.84,-7.82 0.38,-0.76 1.23,-2.56 2.55,-5.41 1.33,-2.84 2.94,-6.16 4.84,-9.95 1.9,-3.8 3.84,-7.87 5.83,-12.23 1.99,-4.36 3.93,-8.44 5.83,-12.23 1.9,-3.79 3.51,-7.07 4.84,-9.82 1.33,-2.74 2.18,-4.5 2.56,-5.25 1.89,-3.42 3.69,-5.69 5.4,-6.83 1.71,-1.14 4.26,-1.71 7.68,-1.71l8.82 0c4.36,0 7.34,1.14 8.96,3.41 1.61,2.28 2.41,4.65 2.41,7.11l0 134.53c0,1.9 -0.33,3.08 -0.99,3.55 -0.67,0.48 -1.85,0.72 -3.56,0.72l-14.79 0c-1.52,0 -2.65,-0.24 -3.41,-0.72 -0.76,-0.47 -1.14,-1.65 -1.14,-3.55l0 -106.08 -1.14 0 -14.22 30.71c-0.38,0.57 -1.56,2.99 -3.55,7.26 -1.99,4.26 -4.32,9.24 -6.97,14.93 -2.65,5.68 -5.4,11.47 -8.25,17.34 -2.84,5.88 -5.12,10.62 -6.82,14.23 -1.52,3.22 -3.08,5.45 -4.69,6.68 -1.62,1.23 -4.13,1.85 -7.54,1.85l-6.54 0c-3.41,0 -5.98,-0.62 -7.68,-1.85 -1.71,-1.23 -3.32,-3.46 -4.84,-6.68 -0.76,-1.52 -2.32,-4.74 -4.69,-9.68 -2.37,-4.92 -4.88,-10.19 -7.54,-15.78 -2.65,-5.59 -5.21,-10.85 -7.67,-15.78 -2.47,-4.93 -4.08,-8.16 -4.84,-9.67 -0.19,-0.38 -1.04,-2.14 -2.56,-5.27 -1.52,-3.12 -3.18,-6.54 -4.98,-10.24 -1.8,-3.69 -3.41,-7.15 -4.83,-10.37 -1.42,-3.23 -2.23,-5.03 -2.42,-5.41l-1.42 0zm290.1 94.14c0,3.79 -1.43,6.26 -4.27,7.39 -8.53,3.8 -17.78,6.36 -27.73,7.68 -9.95,1.33 -19.48,2 -28.58,2 -12.33,0 -22.42,-1.28 -30.29,-3.85 -7.87,-2.56 -14.08,-6.01 -18.63,-10.38 -4.55,-4.36 -7.73,-9.38 -9.53,-15.07 -1.8,-5.69 -2.7,-11.66 -2.7,-17.92 0,-6.44 1.09,-12.75 3.27,-18.91 2.18,-6.16 5.73,-11.57 10.66,-16.21 4.94,-4.65 11.33,-8.39 19.2,-11.24 7.87,-2.84 17.5,-4.26 28.87,-4.26l34.7 0 0 -6.26c0,-4.55 -0.43,-8.63 -1.28,-12.23 -0.86,-3.6 -2.51,-6.73 -4.98,-9.39 -2.47,-2.65 -5.93,-4.69 -10.38,-6.11 -4.46,-1.42 -10.19,-2.13 -17.21,-2.13 -6.63,0 -13.69,0.57 -21.18,1.71 -7.5,1.13 -13.61,2.46 -18.35,3.98 -1.52,0.57 -2.75,0.76 -3.7,0.57 -0.94,-0.19 -1.61,-1.05 -1.99,-2.57l-3.41 -12.22c-0.38,-0.95 -0.43,-1.85 -0.14,-2.7 0.28,-0.86 1.18,-1.57 2.7,-2.14 7.2,-3.03 15.45,-5.16 24.74,-6.4 9.29,-1.23 17.83,-1.84 25.6,-1.84 18.96,0 32.8,4.21 41.52,12.65 8.73,8.44 13.09,20.72 13.09,36.83l0 89.02zm-25.32 -59.44l-32.99 0c-3.41,0 -7.35,0.23 -11.8,0.71 -4.46,0.47 -8.68,1.71 -12.66,3.7 -3.98,1.99 -7.34,4.93 -10.09,8.81 -2.75,3.89 -4.13,9.25 -4.13,16.07 0,5.12 0.95,9.44 2.85,12.94 1.89,3.51 4.45,6.26 7.67,8.25 3.23,1.99 7.02,3.41 11.38,4.27 4.36,0.85 9.1,1.28 14.22,1.28 1.71,0 3.94,-0.05 6.68,-0.14 2.75,-0.1 5.79,-0.39 9.11,-0.86 3.32,-0.47 6.68,-1.04 10.09,-1.7 3.42,-0.67 6.64,-1.57 9.67,-2.71l0 -50.62zm120.03 68.26c0,2.08 -0.39,3.46 -1.14,4.12 -0.76,0.66 -2.09,1 -3.99,1l-13.93 0c-1.9,0 -3.23,-0.34 -3.98,-1 -0.76,-0.66 -1.14,-2.04 -1.14,-4.12l0 -122.87 -44.08 0c-2.09,0 -3.47,-0.43 -4.13,-1.28 -0.66,-0.85 -1,-2.04 -1,-3.55l0 -11.09c0,-1.71 0.34,-3.04 1,-3.98 0.66,-0.96 2.04,-1.43 4.13,-1.43l114.33 0c2.27,0 3.7,0.47 4.26,1.43 0.57,0.94 0.86,2.27 0.86,3.98l0 11.09c0,1.51 -0.29,2.7 -0.86,3.55 -0.56,0.85 -1.99,1.28 -4.26,1.28l-46.07 0 0 122.87zm199.64 -70.25c0,25.4 -5.73,44.84 -17.2,58.3 -11.47,13.46 -28.11,20.2 -49.91,20.2 -21.43,0 -37.74,-6.55 -48.92,-19.63 -11.19,-13.08 -16.78,-32.42 -16.78,-58.02 0,-12.51 1.66,-23.61 4.97,-33.27 3.32,-9.67 7.97,-17.83 13.94,-24.46 5.97,-6.64 13.04,-11.66 21.19,-15.08 8.15,-3.41 16.97,-5.11 26.45,-5.11 21.61,0 38.06,6.82 49.34,20.47 11.28,13.65 16.92,32.52 16.92,56.6zm-25.02 0.85c0,-7.4 -0.57,-14.55 -1.71,-21.47 -1.14,-6.92 -3.22,-12.99 -6.26,-18.2 -3.03,-5.22 -7.2,-9.44 -12.51,-12.66 -5.31,-3.22 -12.13,-4.83 -20.47,-4.83 -7.21,0 -13.47,1.51 -18.78,4.54 -5.31,3.04 -9.67,7.12 -13.08,12.24 -3.41,5.11 -5.97,11.09 -7.68,17.91 -1.71,6.83 -2.56,14.03 -2.56,21.62 0,8.53 0.66,16.35 1.99,23.46 1.33,7.11 3.61,13.18 6.83,18.2 3.22,5.03 7.44,8.96 12.66,11.81 5.21,2.84 11.8,4.26 19.76,4.26 7.97,0 14.65,-1.61 20.05,-4.83 5.41,-3.22 9.72,-7.49 12.94,-12.8 3.22,-5.31 5.5,-11.38 6.83,-18.2 1.32,-6.83 1.99,-13.85 1.99,-21.05zm76.22 -60.58c0.19,-4.93 1.61,-8.53 4.26,-10.81 2.66,-2.27 6.07,-3.41 10.24,-3.41l73.1 0c5.49,0 9.19,1.24 11.09,3.7 1.89,2.46 2.84,5.97 2.84,10.52l0 130.83c0,1.9 -0.38,3.08 -1.14,3.55 -0.76,0.48 -2.18,0.72 -4.26,0.72l-13.94 0c-1.71,0 -2.99,-0.24 -3.84,-0.72 -0.85,-0.47 -1.28,-1.65 -1.28,-3.55l0 -123.43 -54.89 0 -1.7 21.33c-1.52,18.96 -3.13,34.84 -4.84,47.63 -1.71,12.8 -4.17,23.37 -7.4,31.72 -3.22,8.34 -7.53,14.83 -12.94,19.48 -5.4,4.65 -12.46,8.29 -21.18,10.95 -1.14,0.38 -2.42,0.66 -3.85,0.85 -1.42,0.19 -2.41,-0.66 -2.98,-2.56l-3.7 -11.37c-0.94,-2.66 0.19,-4.74 3.42,-6.26 5.11,-2.28 9.33,-5.03 12.65,-8.25 3.32,-3.22 6.12,-7.96 8.39,-14.22 2.28,-6.25 4.12,-14.6 5.55,-25.03 1.42,-10.42 2.79,-24.08 4.12,-40.95l2.28 -30.72zm265.63 59.73c0,25.4 -5.73,44.84 -17.2,58.3 -11.48,13.46 -28.12,20.2 -49.92,20.2 -21.42,0 -37.73,-6.55 -48.92,-19.63 -11.18,-13.08 -16.78,-32.42 -16.78,-58.02 0,-12.51 1.66,-23.61 4.98,-33.27 3.32,-9.67 7.96,-17.83 13.93,-24.46 5.98,-6.64 13.04,-11.66 21.2,-15.08 8.15,-3.41 16.96,-5.11 26.44,-5.11 21.62,0 38.06,6.82 49.35,20.47 11.28,13.65 16.92,32.52 16.92,56.6zm-25.03 0.85c0,-7.4 -0.57,-14.55 -1.71,-21.47 -1.13,-6.92 -3.22,-12.99 -6.25,-18.2 -3.03,-5.22 -7.21,-9.44 -12.52,-12.66 -5.3,-3.22 -12.13,-4.83 -20.47,-4.83 -7.21,0 -13.46,1.51 -18.77,4.54 -5.31,3.04 -9.67,7.12 -13.09,12.24 -3.41,5.11 -5.97,11.09 -7.67,17.91 -1.71,6.83 -2.57,14.03 -2.57,21.62 0,8.53 0.67,16.35 2,23.46 1.32,7.11 3.6,13.18 6.82,18.2 3.23,5.03 7.44,8.96 12.66,11.81 5.21,2.84 11.8,4.26 19.77,4.26 7.96,0 14.64,-1.61 20.05,-4.83 5.4,-3.22 9.71,-7.49 12.93,-12.8 3.23,-5.31 5.5,-11.38 6.83,-18.2 1.33,-6.83 1.99,-13.85 1.99,-21.05zm101.82 -53.47c-7.2,0 -12.42,1.57 -15.64,4.7 -3.23,3.12 -4.84,8 -4.84,14.64l0 103.53c0,2.08 -0.38,3.46 -1.13,4.12 -0.77,0.66 -2.19,1 -4.27,1l-13.65 0c-1.9,0 -3.32,-0.34 -4.27,-1 -0.95,-0.66 -1.42,-2.04 -1.42,-4.12l0 -99.26c0,-5.88 0.66,-11.57 1.99,-17.07 1.33,-5.5 3.65,-10.28 6.97,-14.36 3.31,-4.08 7.86,-7.35 13.65,-9.81 5.78,-2.46 13.22,-3.7 22.32,-3.7l59.16 0c2.09,0 3.41,0.47 3.98,1.43 0.57,0.94 0.86,2.27 0.86,3.98l0 10.8c0,1.9 -0.29,3.22 -0.86,3.99 -0.57,0.75 -1.89,1.13 -3.98,1.13l-58.87 0zm85.03 -17.06c0,-1.9 0.38,-3.13 1.14,-3.7 0.76,-0.57 1.9,-0.85 3.41,-0.85l15.36 0c1.71,0 2.89,0.28 3.56,0.85 0.66,0.57 0.99,1.8 0.99,3.7l0 109.78 1.14 0c4.55,-7.21 8.67,-13.79 12.37,-19.76 3.7,-5.98 7.92,-12.38 12.66,-19.2l42.95 -66.27c1.89,-3.22 3.69,-5.5 5.4,-6.83 1.71,-1.33 4.45,-1.99 8.24,-1.99l7.4 0c3.22,0 5.92,0.95 8.11,2.85 2.17,1.89 3.26,4.74 3.26,8.53l0 133.96c0,1.7 -0.32,2.79 -0.99,3.26 -0.66,0.48 -1.85,0.72 -3.55,0.72l-15.65 0c-1.52,0 -2.65,-0.24 -3.41,-0.72 -0.76,-0.47 -1.14,-1.56 -1.14,-3.26l0 -108.65 -1.7 0c-2.28,3.41 -4.32,6.59 -6.12,9.53 -1.8,2.94 -3.6,5.88 -5.4,8.82 -1.8,2.94 -3.65,5.92 -5.55,8.96 -1.89,3.03 -3.98,6.25 -6.25,9.66l-44.37 67.13c-2.09,3.22 -4.13,5.44 -6.12,6.68 -1.99,1.23 -4.6,1.85 -7.82,1.85l-6.54 0c-3.41,0 -6.16,-0.9 -8.25,-2.7 -2.09,-1.81 -3.13,-4.6 -3.13,-8.4l0 -133.95zm268.49 -4.27c3.41,0 6.3,0.95 8.67,2.85 2.37,1.89 3.55,4.83 3.55,8.81l0 133.96c0,1.7 -0.47,2.75 -1.42,3.13 -0.94,0.38 -2.18,0.57 -3.69,0.57l-15.08 0c-1.71,0 -2.89,-0.24 -3.55,-0.72 -0.67,-0.47 -1,-1.56 -1,-3.26l0 -57.17 -36.4 0c-7.59,0 -13.89,1.18 -18.92,3.55 -5.02,2.37 -8.86,7.82 -11.52,16.35l-11.37 37.55c-0.38,1.51 -1.09,2.51 -2.13,2.98 -1.05,0.48 -2.04,0.72 -2.99,0.72l-16.78 0c-1.52,0 -2.51,-0.29 -2.99,-0.86 -0.47,-0.56 -0.71,-1.23 -0.71,-1.99l0 -1.7 13.09 -40.67c1.51,-5.12 3.69,-9.72 6.54,-13.8 2.84,-4.08 7.58,-6.97 14.22,-8.67 -0.19,0 -0.29,-0.1 -0.29,-0.29 -9.29,-2.65 -15.92,-7.39 -19.91,-14.22 -3.98,-6.82 -5.97,-14.5 -5.97,-23.04 0,-6.25 1.09,-12.03 3.27,-17.35 2.18,-5.3 5.4,-9.95 9.67,-13.93 4.27,-3.98 9.44,-7.11 15.5,-9.39 6.07,-2.27 12.99,-3.41 20.76,-3.41l59.45 0zm-57.74 21.05c-4.93,0 -9.05,0.71 -12.37,2.13 -3.32,1.43 -6.02,3.27 -8.11,5.55 -2.08,2.27 -3.6,4.79 -4.55,7.54 -0.95,2.75 -1.42,5.45 -1.42,8.1 0,6.64 2.09,12.28 6.26,16.92 4.17,4.65 11.56,6.97 22.18,6.97l43.23 0 0 -47.21 -45.22 0z"/>
  </g>
 </g>
</svg>
