<?xml version="1.0" encoding="UTF-8"?>
<!DOCTYPE svg PUBLIC "-//W3C//DTD SVG 1.1//EN" "http://www.w3.org/Graphics/SVG/1.1/DTD/svg11.dtd">
<!-- Creator: CorelDRAW 2018 (64-Bit) -->
<svg xmlns="http://www.w3.org/2000/svg" xml:space="preserve" width="94px" height="94px" version="1.1" style="shape-rendering:geometricPrecision; text-rendering:geometricPrecision; image-rendering:optimizeQuality; fill-rule:evenodd; clip-rule:evenodd"
viewBox="0 0 94 94"
 xmlns:xlink="http://www.w3.org/1999/xlink">
 <defs>
  <style type="text/css">
   <![CDATA[
    .fil0 {fill:#ED953C}
   ]]>
  </style>
 </defs>
 <g id="Слой_x0020_1">
  <metadata id="CorelCorpID_0Corel-Layer"/>
  <g id="_2582490810960">
   <path class="fil0" d="M23.63 53.44l0 26.58c0,5.39 4.66,9.96 9.65,9.96l47.14 0c4.51,0 8.23,-3.54 9.24,-7.15 0.65,-2.32 0.4,-5.26 0.4,-7.85l0 -16.39c0,-2.42 0.23,-5.73 -0.38,-7.87 -0.58,-2.08 -1.97,-4.01 -3.26,-4.99 -1.42,-1.08 -3.59,-2.24 -6,-2.24l-47.14 0c-4.98,0 -9.65,4.51 -9.65,9.95zm61.11 13.36l-55.72 -0.04c-0.12,1.1 -0.03,9.46 -0.03,11.33 0,2.11 -0.16,3.27 0.94,4.73 0.8,1.06 2.12,1.85 3.99,1.85l45.86 0c1.92,0 3.01,-0.73 3.95,-1.77 1.04,-1.16 1.02,-2.83 1.02,-4.7 0,-2.71 0.13,-9.16 -0.01,-11.4zm-55.72 -10.06l55.7 0c0.1,-0.79 0.08,-3.58 -0.08,-4.29 -1.05,-4.57 -6.22,-3.65 -9.9,-3.65 -11.93,0 -23.86,0 -35.78,0 -2.67,0 -6.11,-0.47 -8.04,0.89 -0.8,0.56 -1.5,1.38 -1.83,2.68 -0.16,0.69 -0.15,3.55 -0.07,4.37z"/>
   <path class="fil0" d="M17.06 59.64c0,-6.45 -0.65,-11.27 3.66,-16.61 1.41,-1.73 3.14,-3.24 5.6,-4.46 2.61,-1.3 5.16,-1.71 8.46,-1.71 13.55,0 27.1,0 40.65,0 -0.5,-2.77 -1.44,-5.87 -2.1,-8.69 -0.68,-2.89 -1.39,-5.8 -2.12,-8.7 -0.69,-2.77 -1.28,-5.88 -2.1,-8.61 -0.83,-2.81 -2.66,-4.84 -4.82,-6 -3.15,-1.7 -5.47,-1.32 -8.91,-0.46l-26.1 6.37c-5.89,1.46 -11.67,2.71 -17.32,4.21 -2.91,0.78 -4.94,2.54 -6.19,4.63 -1.76,2.95 -1.6,5.44 -0.74,8.93 0.45,1.81 5.73,24.01 6.49,25.88 0.55,1.36 1.33,2.25 2.2,3.15 0.46,0.47 2.35,1.97 3.34,2.07zm34.86 -38.85l2.77 11.15 11.13 -2.65 -2.64 -11.26 -11.26 2.76z"/>
  </g>
 </g>
</svg>
