<?xml version="1.0" encoding="UTF-8"?>
<!DOCTYPE svg PUBLIC "-//W3C//DTD SVG 1.1//EN" "http://www.w3.org/Graphics/SVG/1.1/DTD/svg11.dtd">
<!-- Creator: CorelDRAW 2018 (64-Bit) -->
<svg xmlns="http://www.w3.org/2000/svg" xml:space="preserve" width="94px" height="94px" version="1.1" style="shape-rendering:geometricPrecision; text-rendering:geometricPrecision; image-rendering:optimizeQuality; fill-rule:evenodd; clip-rule:evenodd"
viewBox="0 0 94 94"
 xmlns:xlink="http://www.w3.org/1999/xlink">
 <defs>
  <style type="text/css">
   <![CDATA[
    .fil0 {fill:#ED953C}
   ]]>
  </style>
 </defs>
 <g id="Слой_x0020_1">
  <metadata id="CorelCorpID_0Corel-Layer"/>
  <path class="fil0" d="M89.31 20.25c-3.31,-3.94 -9.43,-5.55 -21.11,-5.55l-42.4 0c-11.95,0 -18.17,1.71 -21.47,5.91 -3.22,4.08 -3.22,10.11 -3.22,18.45l0 15.89c0,16.15 3.82,24.35 24.69,24.35l42.4 -0.01c10.13,0 15.75,-1.41 19.38,-4.89 3.72,-3.56 5.31,-9.38 5.31,-19.46l0 -15.89c0,-8.79 -0.25,-14.85 -3.58,-18.8zm-29.28 28.94l-19.25 10.07c-0.43,0.22 -0.9,0.33 -1.37,0.33 -0.54,0 -1.07,-0.14 -1.54,-0.42 -0.88,-0.54 -1.42,-1.5 -1.42,-2.53l0 -20.07c0,-1.03 0.54,-1.99 1.42,-2.53 0.88,-0.53 1.98,-0.57 2.9,-0.1l19.26 10c0.98,0.51 1.59,1.52 1.59,2.63 0.01,1.1 -0.61,2.11 -1.59,2.63l0 -0.01z"/>
 </g>
</svg>
