<svg fill="none" height="30" viewBox="0 0 69 30" width="69" xmlns="http://www.w3.org/2000/svg"><g fill="#000"><path d="m6.69884 24.9421c-.35269.9013-.92144 1.5007-1.70438 1.7999-.78295.2983-1.673.251-2.66645-.1399-.99161-.3928-1.672993-.9653-2.04323-1.7212-.3702376-.754-.3794704-1.5813-.027699-2.4789.283449-.7226.729395-1.2534 1.336919-1.5915.60752-.3382 1.25567-.4197 1.94351-.2437l-.49949 1.2729c-.37116-.0501-.71093.0138-1.01654.1945-.30561.1797-.52812.4465-.66661.8013-.19205.49-.15419.9542.11264 1.3942s.72478.7893 1.37477 1.044c.6583.2603 1.23443.3196 1.72839.1825.49396-.1399.83742-.4567 1.03131-.9505.14218-.3631.16988-.7077.08217-1.0338-.08679-.3279-.27883-.6003-.57428-.8198l.49857-1.2729c.6223.3613 1.03131.8616 1.22797 1.5026.19574.6383.14957 1.3256-.13757 2.0603z"/><path d="m10.2293 18.3008-.80325 1.1348-4.46963-3.1885-1.12363 1.585-.93252-.6652 3.0533-4.3085.93252.6642-1.12641 1.5897z"/><path d="m15.3445 12.9348-1.4496-.8624-1.733 1.5609.698 1.5387-1.059.9542-2.71447-6.49202 1.21317-1.09219 6.1426 3.40441zm-4.8344-2.8736 1.1809 2.5966 1.2889-1.1598-2.4448-1.4581z"/><path d="m21.8002 5.23182 3.9313 2.05468-1.5483.70312-3.2592-1.72768-.0333.01482 1.2003 2.66146-1.2307.5586-1.1994-2.66239-.0332.01575-.8716 3.60172-1.5151.6874 1.0415-4.28634-3.6304-1.83699 1.4311-.65031 3.1696 1.65172.0333-.01483-1.156-2.56604 1.2308-.5586 1.1568 2.56512.0333-.01482.8605-3.48037 1.4061-.63827z"/><path d="m30.3154.0524713 2.7653-.05187662c.6823-.01296918 1.2399.18620032 1.6711.59658132.4321.408524.6546.956014.6666 1.636894.013.67903-.1948 1.233-.625 1.66005-.4303.42706-.9953.64661-1.697.6605l-1.3083.02409.0387 2.09637-1.3876.02594zm1.4071 1.0745887.0434 2.36409 1.0064-.01852c.3979-.00742.7054-.1158.9224-.32701.216-.20936.3213-.50395.3139-.88191-.0074-.37703-.1219-.66606-.3444-.86708-.2225-.19917-.5337-.29551-.9316-.2881z"/><path d="m41.07 7.644-.1552-1.68322-2.2768-.4919-.8319 1.46922-1.3923-.30014 3.6452-6.014913 1.5945.344609.8586 6.987604zm-.5189-5.6138-1.4025 2.4836 1.6924.36591-.2585-2.84302z"/><path d="m49.554 9.00498c-.2797.56046-.6952.91804-1.2464 1.07272-.5521.1538-1.1329.0778-1.7432-.22879l-2.431-1.22188 2.9675-5.94637 3.9387 1.9778-.5124 1.02549-2.6988-1.35528-.602 1.20799 1.1495.57805c.6223.31312 1.0424.73461 1.2612 1.2682.2198.53081.1911 1.07274-.0831 1.62207zm-3.6848-.7485.8836.44373c.3471.17416.6546.23437.9205.17879s.47-.22604.6131-.51136c.1421-.28717.156-.55397.0434-.80409-.1136-.24919-.3454-.46225-.6953-.63734l-.8789-.44188z"/><path d="m54.573 7.97599c.8374-.08152 1.625.2038 2.3617.85781.7368.65309 1.1163 1.4007 1.1384 2.2455.0222.8439-.3157 1.6629-1.0156 2.4577-.698.7911-1.4661 1.2274-2.3045 1.308-.8402.0797-1.6259-.2047-2.3599-.8569-.7368-.6521-1.1163-1.4016-1.1384-2.2455-.0222-.8439.3148-1.6619 1.0128-2.45395.6999-.79482 1.4681-1.23207 2.3055-1.31266zm2.1586 3.05141c.0305-.5224-.157-.9643-.5632-1.32373-.4062-.35944-.866-.49283-1.3803-.39927-.5143.09449-.9999.40112-1.4616.9236-.4588.5206-.7026 1.0412-.7321 1.5628-.0296.5206.1597.9625.5678 1.3247.4053.3594.8651.4928 1.3766.4002.5115-.0936.9972-.4002 1.4551-.9208.4616-.5234.7063-1.0459.7377-1.5675z"/><path d="m57.5452 19.7803-.7848-1.1487 4.5222-3.1135-1.0968-1.6026.9436-.6494 2.9803 4.3577-.9427.6493-1.0987-1.6063z"/><path d="m59.6057 23.0154 6.2885-2.1048.4386 1.321-2.1097.705.4062 1.2247c.2225.6679.2096 1.2737-.0369 1.8194-.2456.5456-.6796.9226-1.3019 1.1311-.6241.2084-1.1965.175-1.7154-.0992-.5189-.2751-.8864-.7374-1.1024-1.3877zm1.4893.968.312.9393c.1256.3799.3112.642.5586.7875.2475.1454.5392.1621.8762.0491.3361-.1131.5614-.303.674-.5707.1127-.2686.1062-.591-.0194-.969l-.3111-.9356zm.7571 5.7898-.4395-1.3191 6.2885-2.1038.4385 1.3201z"/></g></svg>