<svg width="20" height="16" viewBox="0 0 20 16" fill="none" xmlns="http://www.w3.org/2000/svg">
<path d="M12.2822 14.9388C14.2185 13.3605 15.657 11.7823 16.5975 10.2041C17.4827 8.68027 17.8423 7.37415 17.6763 6.28571L17.4274 5.87755H16.9295L16.6805 5.95918L15.5187 6.04082C14.6888 6.04082 13.9972 5.71429 13.444 5.06123C12.8354 4.46259 12.5311 3.7551 12.5311 2.93878C12.5311 2.17687 12.8907 1.4966 13.61 0.897961C14.3292 0.299321 15.2144 0 16.2656 0C17.2614 0 18.1466 0.517006 18.9212 1.55102C19.6404 2.58503 20 3.78231 20 5.14286C20 7.31973 19.2531 9.38776 17.7593 11.3469C16.7082 12.9252 15.1314 14.4762 13.029 16L12.2822 14.9388ZM0 14.9388C1.93638 13.3605 3.37483 11.7823 4.31535 10.2041C5.20055 8.68027 5.56017 7.37415 5.39419 6.28571L5.14523 5.87755H4.6473L4.31535 5.95918L3.23652 6.04082C2.40664 6.04082 1.71508 5.71429 1.16183 5.06123C0.553249 4.46259 0.24896 3.7551 0.24896 2.93878C0.24896 2.17687 0.608575 1.4966 1.3278 0.897961C2.04703 0.299321 2.93223 0 3.9834 0C4.97925 0 5.86445 0.517006 6.639 1.55102C7.35823 2.58503 7.71784 3.78231 7.71784 5.14286C7.71784 8.89796 5.39419 12.517 0.746887 16L0 14.9388Z" fill="white"/>
</svg>
