<svg width="77" height="17" viewBox="0 0 77 17" fill="none" xmlns="http://www.w3.org/2000/svg">
<path d="M23.7768 2.65475C23.497 1.60925 22.6753 0.78763 21.6298 0.507761C19.7367 1.51992e-07 12.1423 0 12.1423 0C12.1423 0 4.54786 1.51992e-07 2.65475 0.507761C1.60925 0.78763 0.78763 1.60925 0.507761 2.65475C1.51992e-07 4.54786 0 8.5 0 8.5C0 8.5 1.51992e-07 12.4522 0.507761 14.3453C0.78763 15.3908 1.60925 16.2124 2.65475 16.4922C4.54786 17 12.1423 17 12.1423 17C12.1423 17 19.7367 17 21.6298 16.4922C22.6753 16.2124 23.497 15.3908 23.7768 14.3453C24.2846 12.4522 24.2846 8.5 24.2846 8.5C24.2846 8.5 24.2825 4.54786 23.7768 2.65475Z" fill="white"/>
<path d="M9.71155 12.1426L16.0206 8.50034L9.71155 4.85803V12.1426Z" fill="#D83114"/>
<path d="M29.412 11.0531L26.6853 1.20569H29.0642L30.0198 5.66958C30.2636 6.76907 30.4415 7.70662 30.5575 8.48226H30.6274C30.7074 7.92652 30.8874 6.99496 31.1652 5.68558L32.1547 1.20569H34.5336L31.7729 11.0531V15.7768H29.4101V11.0531H29.412Z" fill="white"/>
<path d="M35.2492 15.4646C34.7695 15.1408 34.4276 14.637 34.2237 13.9533C34.0218 13.2697 33.9199 12.3621 33.9199 11.2266V9.68131C33.9199 8.53585 34.0359 7.61432 34.2677 6.92064C34.4996 6.22697 34.8615 5.71921 35.3532 5.40136C35.845 5.08351 36.4907 4.92358 37.2903 4.92358C38.078 4.92358 38.7076 5.08551 39.1834 5.40936C39.6572 5.7332 40.005 6.24096 40.2249 6.92864C40.4448 7.61831 40.5548 8.53585 40.5548 9.68131V11.2266C40.5548 12.3621 40.4468 13.2737 40.233 13.9613C40.019 14.651 39.6712 15.1548 39.1914 15.4726C38.7116 15.7905 38.0599 15.9504 37.2383 15.9504C36.3907 15.9523 35.7291 15.7885 35.2492 15.4646ZM37.94 13.7974C38.0719 13.4496 38.1399 12.8839 38.1399 12.0962V8.7798C38.1399 8.01613 38.074 7.45639 37.94 7.10456C37.806 6.75073 37.5722 6.57481 37.2363 6.57481C36.9125 6.57481 36.6826 6.75073 36.5507 7.10456C36.4167 7.45839 36.3508 8.01613 36.3508 8.7798V12.0962C36.3508 12.8839 36.4147 13.4516 36.5427 13.7974C36.6706 14.1453 36.9004 14.3192 37.2363 14.3192C37.5722 14.3192 37.806 14.1453 37.94 13.7974Z" fill="white"/>
<path d="M48.293 15.7789H46.4179L46.21 14.4755H46.1581C45.6483 15.459 44.8846 15.9508 43.8651 15.9508C43.1595 15.9508 42.6377 15.7189 42.3019 15.2572C41.9661 14.7933 41.7981 14.0697 41.7981 13.0862V5.13188H44.195V12.9462C44.195 13.422 44.2469 13.7598 44.3509 13.9618C44.4549 14.1636 44.6288 14.2655 44.8726 14.2655C45.0805 14.2655 45.2805 14.2016 45.4724 14.0737C45.6643 13.9457 45.8042 13.7838 45.8982 13.5879V5.12988H48.293V15.7789Z" fill="white"/>
<path d="M54.8041 3.13443H52.4252V15.7785H50.0803V3.13443H47.7014V1.20734H54.8041V3.13443Z" fill="white"/>
<path d="M60.5853 15.7789H58.7102L58.5023 14.4755H58.4503C57.9406 15.459 57.1769 15.9508 56.1574 15.9508C55.4517 15.9508 54.93 15.7189 54.5941 15.2572C54.2583 14.7933 54.0903 14.0697 54.0903 13.0862V5.13188H56.4872V12.9462C56.4872 13.422 56.5392 13.7598 56.6431 13.9618C56.7471 14.1636 56.921 14.2655 57.165 14.2655C57.3728 14.2655 57.5727 14.2016 57.7646 14.0737C57.9566 13.9457 58.0965 13.7838 58.1904 13.5879V5.12988H60.5853V15.7789Z" fill="white"/>
<path d="M68.5176 6.83288C68.3716 6.1612 68.1377 5.67543 67.8139 5.37357C67.4901 5.07172 67.0443 4.92178 66.4766 4.92178C66.0368 4.92178 65.6249 5.04572 65.2431 5.29561C64.8613 5.54549 64.5654 5.87134 64.3575 6.27714H64.3396V0.667786H62.0306V15.7767H64.0097L64.2536 14.7692H64.3056C64.4915 15.129 64.7693 15.4108 65.1392 15.6208C65.509 15.8287 65.9208 15.9326 66.3726 15.9326C67.1822 15.9326 67.78 15.5588 68.1618 14.8131C68.5436 14.0654 68.7354 12.9 68.7354 11.3128V9.6276C68.7354 8.43812 68.6615 7.50457 68.5176 6.83288ZM66.3206 11.1768C66.3206 11.9524 66.2886 12.5602 66.2246 13C66.1607 13.4398 66.0547 13.7537 65.9028 13.9375C65.7529 14.1234 65.549 14.2154 65.2951 14.2154C65.0972 14.2154 64.9153 14.1694 64.7473 14.0755C64.5794 13.9835 64.4435 13.8436 64.3396 13.6597V7.61651C64.4195 7.32665 64.5595 7.09076 64.7574 6.90485C64.9533 6.71894 65.1692 6.62698 65.399 6.62698C65.643 6.62698 65.8308 6.72294 65.9628 6.91285C66.0967 7.10476 66.1887 7.42461 66.2407 7.87639C66.2926 8.32818 66.3186 8.96987 66.3186 9.80346V11.1768H66.3206Z" fill="white"/>
<path d="M72.1358 11.7905C72.1358 12.4742 72.1558 12.9859 72.1958 13.3278C72.2358 13.6696 72.3198 13.9175 72.4477 14.0755C72.5756 14.2314 72.7715 14.3093 73.0374 14.3093C73.3953 14.3093 73.6431 14.1694 73.775 13.8915C73.909 13.6137 73.981 13.1499 73.993 12.5022L76.06 12.6241C76.072 12.7161 76.078 12.844 76.078 13.0059C76.078 13.9894 75.8081 14.7251 75.2704 15.2109C74.7327 15.6967 73.971 15.9405 72.9874 15.9405C71.806 15.9405 70.9784 15.5707 70.5046 14.8291C70.0288 14.0875 69.793 12.942 69.793 11.3907V9.53154C69.793 7.93432 70.0389 6.76687 70.5306 6.03122C71.0224 5.29556 71.864 4.92773 73.0574 4.92773C73.879 4.92773 74.5107 5.07767 74.9505 5.37953C75.3903 5.68138 75.7001 6.14916 75.8801 6.78686C76.06 7.42456 76.15 8.30415 76.15 9.42758V11.2507H72.1358V11.7905ZM72.4397 6.77287C72.3177 6.9228 72.2378 7.16868 72.1958 7.51052C72.1558 7.85236 72.1358 8.37012 72.1358 9.06582V9.82946H73.889V9.06582C73.889 8.38211 73.8651 7.86436 73.8191 7.51052C73.7731 7.15669 73.6891 6.9088 73.5671 6.76288C73.4452 6.61895 73.2573 6.54498 73.0034 6.54498C72.7476 6.54698 72.5596 6.62294 72.4397 6.77287Z" fill="white"/>
</svg>
