<svg width="77" height="17" viewBox="0 0 77 17" fill="none" xmlns="http://www.w3.org/2000/svg">
<path d="M23.7768 2.65475C23.497 1.60925 22.6753 0.78763 21.6298 0.507761C19.7367 1.51992e-07 12.1423 0 12.1423 0C12.1423 0 4.54786 1.51992e-07 2.65475 0.507761C1.60925 0.78763 0.78763 1.60925 0.507761 2.65475C1.51992e-07 4.54786 0 8.5 0 8.5C0 8.5 1.51992e-07 12.4522 0.507761 14.3453C0.78763 15.3908 1.60925 16.2124 2.65475 16.4922C4.54786 17 12.1423 17 12.1423 17C12.1423 17 19.7367 17 21.6298 16.4922C22.6753 16.2124 23.497 15.3908 23.7768 14.3453C24.2846 12.4522 24.2846 8.5 24.2846 8.5C24.2846 8.5 24.2825 4.54786 23.7768 2.65475Z" fill="#FF0000"/>
<path d="M9.71143 12.1425L16.0205 8.50022L9.71143 4.85791V12.1425Z" fill="white"/>
<path d="M29.4123 11.0529L26.6855 1.20557H29.0644L30.02 5.66946C30.2639 6.76894 30.4418 7.7065 30.5577 8.48214H30.6277C30.7077 7.9264 30.8876 6.99484 31.1655 5.68546L32.155 1.20557H34.5339L31.7731 11.0529V15.7767H29.4103V11.0529H29.4123Z" fill="black"/>
<path d="M35.2492 15.4646C34.7695 15.1408 34.4276 14.637 34.2237 13.9533C34.0218 13.2697 33.9199 12.3621 33.9199 11.2266V9.68131C33.9199 8.53585 34.0359 7.61432 34.2677 6.92064C34.4996 6.22697 34.8615 5.71921 35.3532 5.40136C35.845 5.08351 36.4907 4.92358 37.2903 4.92358C38.078 4.92358 38.7076 5.08551 39.1834 5.40936C39.6572 5.7332 40.005 6.24097 40.2249 6.92864C40.4448 7.61831 40.5548 8.53585 40.5548 9.68131V11.2266C40.5548 12.3621 40.4468 13.2737 40.233 13.9613C40.019 14.651 39.6712 15.1548 39.1914 15.4726C38.7116 15.7905 38.0599 15.9504 37.2383 15.9504C36.3907 15.9523 35.7291 15.7885 35.2492 15.4646ZM37.94 13.7974C38.0719 13.4496 38.1399 12.8839 38.1399 12.0962V8.7798C38.1399 8.01613 38.074 7.45639 37.94 7.10456C37.806 6.75073 37.5722 6.57481 37.2363 6.57481C36.9125 6.57481 36.6826 6.75073 36.5507 7.10456C36.4167 7.45839 36.3508 8.01613 36.3508 8.7798V12.0962C36.3508 12.8839 36.4147 13.4516 36.5427 13.7974C36.6706 14.1453 36.9004 14.3192 37.2363 14.3192C37.5722 14.3192 37.806 14.1453 37.94 13.7974Z" fill="black"/>
<path d="M48.2933 15.7789H46.4182L46.2103 14.4755H46.1583C45.6485 15.459 44.8849 15.9508 43.8654 15.9508C43.1597 15.9508 42.638 15.7189 42.3021 15.2572C41.9663 14.7933 41.7983 14.0697 41.7983 13.0862V5.13188H44.1953V12.9462C44.1953 13.422 44.2472 13.7598 44.3511 13.9618C44.4551 14.1636 44.629 14.2655 44.8729 14.2655C45.0808 14.2655 45.2807 14.2016 45.4726 14.0737C45.6646 13.9457 45.8045 13.7838 45.8984 13.5879V5.12988H48.2933V15.7789Z" fill="black"/>
<path d="M54.8043 3.13437H52.4254V15.7784H50.0806V3.13437H47.7017V1.20728H54.8043V3.13437Z" fill="black"/>
<path d="M60.5853 15.7789H58.7102L58.5023 14.4755H58.4503C57.9406 15.459 57.1769 15.9508 56.1574 15.9508C55.4517 15.9508 54.93 15.7189 54.5941 15.2572C54.2583 14.7933 54.0903 14.0697 54.0903 13.0862V5.13188H56.4872V12.9462C56.4872 13.422 56.5392 13.7598 56.6431 13.9618C56.7471 14.1636 56.921 14.2655 57.165 14.2655C57.3728 14.2655 57.5727 14.2016 57.7646 14.0737C57.9566 13.9457 58.0965 13.7838 58.1904 13.5879V5.12988H60.5853V15.7789Z" fill="black"/>
<path d="M68.5177 6.83282C68.3718 6.16114 68.1378 5.67537 67.8141 5.37351C67.4902 5.07166 67.0444 4.92172 66.4767 4.92172C66.0369 4.92172 65.6251 5.04566 65.2432 5.29555C64.8614 5.54543 64.5655 5.87128 64.3576 6.27708H64.3397V0.667725H62.0308V15.7766H64.0098L64.2537 14.7691H64.3057C64.4916 15.1289 64.7695 15.4108 65.1393 15.6207C65.5091 15.8286 65.921 15.9326 66.3727 15.9326C67.1824 15.9326 67.7801 15.5588 68.1619 14.813C68.5437 14.0654 68.7356 12.9 68.7356 11.3127V9.62754C68.7356 8.43806 68.6616 7.50451 68.5177 6.83282ZM66.3207 11.1767C66.3207 11.9524 66.2887 12.5601 66.2247 12.9999C66.1608 13.4397 66.0548 13.7536 65.9029 13.9375C65.753 14.1234 65.5491 14.2153 65.2952 14.2153C65.0973 14.2153 64.9154 14.1693 64.7474 14.0754C64.5796 13.9834 64.4437 13.8435 64.3397 13.6596V7.61645C64.4196 7.32659 64.5596 7.0907 64.7575 6.90479C64.9534 6.71888 65.1693 6.62692 65.3991 6.62692C65.6431 6.62692 65.8309 6.72287 65.9629 6.91279C66.0968 7.10469 66.1888 7.42455 66.2408 7.87633C66.2927 8.32812 66.3188 8.96981 66.3188 9.8034V11.1767H66.3207Z" fill="black"/>
<path d="M72.1358 11.7905C72.1358 12.4742 72.1558 12.9859 72.1958 13.3278C72.2358 13.6696 72.3198 13.9175 72.4477 14.0755C72.5756 14.2314 72.7715 14.3093 73.0374 14.3093C73.3953 14.3093 73.6431 14.1694 73.775 13.8915C73.909 13.6137 73.981 13.1499 73.993 12.5022L76.06 12.6241C76.072 12.7161 76.078 12.844 76.078 13.0059C76.078 13.9894 75.8081 14.7251 75.2704 15.2109C74.7327 15.6967 73.971 15.9405 72.9874 15.9405C71.806 15.9405 70.9784 15.5707 70.5046 14.8291C70.0288 14.0875 69.793 12.942 69.793 11.3907V9.53154C69.793 7.93432 70.0389 6.76687 70.5306 6.03122C71.0224 5.29556 71.864 4.92773 73.0574 4.92773C73.879 4.92773 74.5107 5.07767 74.9505 5.37953C75.3903 5.68138 75.7001 6.14916 75.8801 6.78686C76.06 7.42456 76.15 8.30415 76.15 9.42758V11.2507H72.1358V11.7905ZM72.4397 6.77287C72.3177 6.9228 72.2378 7.16868 72.1958 7.51052C72.1558 7.85236 72.1358 8.37012 72.1358 9.06582V9.82946H73.889V9.06582C73.889 8.38211 73.8651 7.86436 73.8191 7.51052C73.7731 7.15669 73.6891 6.9088 73.5671 6.76288C73.4452 6.61895 73.2573 6.54498 73.0034 6.54498C72.7476 6.54698 72.5596 6.62294 72.4397 6.77287Z" fill="black"/>
</svg>
