<svg fill="none" xmlns="http://www.w3.org/2000/svg" viewBox="0 0 435 260">
  <mask id="a" maskUnits="userSpaceOnUse" x="-45" y="0" width="480" height="260">
    <path transform="matrix(-1 0 0 1 435 .943)" fill="#C4C4C4" d="M0 0h480v259H0z"/>
  </mask>
  <g mask="url(#a)" fill="#303030">
    <path d="M307.703 149.446c-7.045-3.099-15.304.127-18.41 7.189-3.107 7.062.098 15.33 7.142 18.428 7.045 3.099 15.306-.126 18.413-7.188 3.106-7.062-.099-15.33-7.145-18.429zm-8.131 18.484c-3.121-1.373-4.541-5.037-3.165-8.166 1.377-3.13 5.037-4.558 8.158-3.185 3.124 1.374 4.543 5.036 3.167 8.166-1.377 3.129-5.037 4.559-8.16 3.185z"/>
    <path d="M339.816 181.638l8.958.803 2.217-6.166-7.419-5.078a42.64 42.64 0 00.831-5.443l8.715-2.641-.266-6.542-8.895-1.893a43.284 43.284 0 00-1.436-5.886l6.908-5.779-2.783-5.919-8.843 1.671a42.886 42.886 0 00-3.251-4.424l4.236-7.965-4.806-4.432-7.574 4.887a43.093 43.093 0 00-5.164-3.136l.815-8.977-6.151-2.208-5.081 7.44a42.863 42.863 0 00-5.435-.823l-2.619-8.72-6.534.274-1.906 8.918a42.842 42.842 0 00-5.879 1.447l-5.755-6.911-5.918 2.8 1.656 8.855a43.422 43.422 0 00-4.425 3.264l-7.943-4.229-4.432 4.823 4.864 7.579a43.137 43.137 0 00-3.14 5.178l-8.957-.799-2.216 6.165 7.418 5.075a43.282 43.282 0 00-.832 5.446l-8.713 2.64.264 6.543 8.897 1.894a43.02 43.02 0 001.434 5.886l-6.909 5.779 2.784 5.922 8.844-1.673a42.962 42.962 0 003.249 4.426l-4.237 7.963 4.807 4.431 7.574-4.888a42.814 42.814 0 005.164 3.137l-.815 8.976 6.152 2.208 5.081-7.441c1.775.387 3.588.664 5.433.824l2.621 8.722 6.535-.278 1.903-8.915a42.685 42.685 0 005.883-1.449l5.753 6.911 5.918-2.798-1.653-8.856a42.22 42.22 0 004.421-3.265l7.946 4.23 4.433-4.822-4.866-7.578a43.56 43.56 0 003.139-5.183zm-51.567 10.711c-16.708-7.349-24.279-26.885-16.912-43.633 7.368-16.749 26.884-24.37 43.591-17.021 16.708 7.348 24.281 26.885 16.913 43.634-7.366 16.748-26.885 24.368-43.592 17.02zM310.248 234.559c-2.946-1.296-6.4.053-7.699 3.006-1.299 2.954.04 6.412 2.986 7.708 2.947 1.295 6.401-.053 7.701-3.007 1.299-2.953-.041-6.411-2.988-7.707zm-3.4 7.73a2.594 2.594 0 012.088-4.747 2.593 2.593 0 01-2.088 4.747z"/>
    <path d="M323.681 248.026l3.747.336.928-2.579-3.104-2.124c.163-.744.279-1.503.348-2.277l3.645-1.105-.112-2.737-3.721-.792a18.05 18.05 0 00-.6-2.462l2.889-2.417-1.164-2.476-3.699.698a18.258 18.258 0 00-1.36-1.85l1.772-3.331-2.011-1.855-3.168 2.045a17.614 17.614 0 00-2.161-1.312l.341-3.755-2.573-.923-2.125 3.113a17.934 17.934 0 00-2.274-.345l-1.096-3.648-2.732.115-.797 3.729c-.842.146-1.663.349-2.46.605l-2.407-2.89-2.476 1.171.692 3.704c-.646.417-1.264.873-1.851 1.365l-3.322-1.769-1.854 2.017 2.035 3.17a17.953 17.953 0 00-1.314 2.167l-3.747-.335-.927 2.579 3.103 2.123a18.18 18.18 0 00-.347 2.278l-3.645 1.104.11 2.737 3.722.791c.144.844.345 1.665.6 2.462l-2.89 2.417 1.164 2.477 3.699-.7a18.04 18.04 0 001.36 1.851l-1.772 3.331 2.011 1.854 3.168-2.045c.687.486 1.408.926 2.16 1.312l-.341 3.754 2.573.924 2.125-3.112a18.14 18.14 0 002.272.345l1.097 3.648 2.733-.116.796-3.729a17.889 17.889 0 002.46-.606l2.406 2.89 2.475-1.17-.691-3.705a17.961 17.961 0 001.849-1.366l3.323 1.769 1.854-2.017-2.035-3.169c.492-.685.931-1.409 1.319-2.164zm-21.57 4.481c-6.988-3.074-10.155-11.246-7.074-18.251 3.082-7.006 11.245-10.194 18.234-7.12 6.989 3.074 10.155 11.246 7.074 18.252-3.082 7.005-11.245 10.193-18.234 7.119zM124.483 117.963c-12.617-5.55-27.41.226-32.975 12.876-5.564 12.65.176 27.459 12.793 33.009 12.619 5.551 27.415-.226 32.979-12.875 5.564-12.65-.177-27.46-12.797-33.01zm-14.563 33.109c-5.588-2.458-8.133-9.023-5.668-14.627 2.465-5.605 9.022-8.163 14.611-5.705 5.593 2.461 8.137 9.021 5.672 14.626-2.465 5.604-9.022 8.166-14.615 5.706z"/>
    <path d="M182.004 175.619l16.044 1.438 3.972-11.044-13.291-9.096a76.416 76.416 0 001.489-9.75l15.61-4.73-.475-11.72-15.934-3.391a77.604 77.604 0 00-2.571-10.543l12.374-10.351-4.986-10.604-15.838 2.993a77.096 77.096 0 00-5.823-7.925l7.589-14.265-8.608-7.938-13.567 8.755a76.869 76.869 0 00-9.251-5.616l1.46-16.078-11.019-3.953-9.101 13.327a76.827 76.827 0 00-9.735-1.474l-4.691-15.622-11.703.492-3.414 15.973a76.993 76.993 0 00-10.532 2.591L79.698 54.711l-10.601 5.014 2.965 15.86a77.87 77.87 0 00-7.926 5.847l-14.228-7.576-7.939 8.638 8.714 13.576a77.089 77.089 0 00-5.624 9.275l-16.046-1.432-3.97 11.042 13.288 9.091a77.532 77.532 0 00-1.49 9.755l-15.607 4.727.474 11.721 15.938 3.392a76.993 76.993 0 002.569 10.543l-12.375 10.35 4.985 10.606 15.841-2.997a77.148 77.148 0 005.82 7.928l-7.589 14.264 8.611 7.936 13.566-8.755a77.087 77.087 0 009.25 5.619l-1.461 16.077 11.02 3.955 9.1-13.328a77.276 77.276 0 009.732 1.477l4.694 15.622 11.705-.497 3.411-15.968a76.848 76.848 0 0010.535-2.596l10.306 12.379 10.598-5.013-2.961-15.863a76.075 76.075 0 007.92-5.847l14.23 7.577 7.938-8.638-8.715-13.574a77.387 77.387 0 005.628-9.279zm-92.367 19.185c-29.925-13.163-43.487-48.155-30.291-78.155 13.196-30 48.154-43.65 78.079-30.488 29.925 13.163 43.49 48.156 30.294 78.157-13.196 30-48.157 43.649-78.082 30.486zM267.58 266.109l9.506.853 2.351-6.545-7.873-5.388c.412-1.888.711-3.814.881-5.78l9.25-2.799-.284-6.946-9.44-2.011a45.545 45.545 0 00-1.525-6.246l7.335-6.133-2.957-6.284-9.385 1.774a45.943 45.943 0 00-3.446-4.695l4.495-8.453-5.105-4.705-8.034 5.189a45.236 45.236 0 00-5.481-3.326l.865-9.528-6.53-2.345-5.394 7.899a45.16 45.16 0 00-5.764-.872l-2.779-9.257-6.934.291-2.026 9.465a45.125 45.125 0 00-6.24 1.536l-6.105-7.336-6.284 2.972 1.761 9.398a46.77 46.77 0 00-4.699 3.464l-8.431-4.489-4.703 5.117 5.165 8.044a46.22 46.22 0 00-3.334 5.495l-9.506-.848-2.353 6.546 7.875 5.386a44.576 44.576 0 00-.883 5.782l-9.249 2.799.278 6.946 9.446 2.008c.362 2.14.874 4.226 1.525 6.25l-7.333 6.13 2.951 6.285 9.385-1.774a46.668 46.668 0 003.45 4.698l-4.493 8.451 5.098 4.701 8.043-5.188a45.062 45.062 0 005.477 3.33l-.865 9.526 6.528 2.344 5.393-7.897a45.83 45.83 0 005.768.873l2.781 9.258 6.936-.295 2.023-9.461a45.153 45.153 0 006.239-1.538l6.109 7.336 6.278-2.973-1.754-9.399a44.781 44.781 0 004.692-3.466l8.431 4.491 4.707-5.116-5.166-8.045a46.047 46.047 0 003.333-5.499zm-47.305-5.511c-8.434-3.71-12.258-13.571-8.539-22.026 3.718-8.453 13.572-12.299 22.006-8.589 8.43 3.708 12.255 13.571 8.537 22.023-3.72 8.455-13.574 12.3-22.004 8.592zM335.792 315.952l6.35.57 1.571-4.37-5.26-3.598c.277-1.26.476-2.546.593-3.858l6.174-1.871-.188-4.64-6.304-1.34a30.604 30.604 0 00-1.018-4.172l4.896-4.097-1.971-4.196-6.267 1.185a29.77 29.77 0 00-2.308-3.136l3.005-5.646-3.409-3.143-5.365 3.466a30.725 30.725 0 00-3.66-2.222l.576-6.361-4.36-1.565-3.6 5.273a30.361 30.361 0 00-3.854-.582l-1.856-6.18-4.63.194-1.352 6.321a30.027 30.027 0 00-4.166 1.025l-4.077-4.9-4.197 1.985 1.174 6.276a30.688 30.688 0 00-3.135 2.315l-5.632-2.998-3.138 3.418 3.444 5.374a30.083 30.083 0 00-2.222 3.669l-6.352-.566-1.571 4.37 5.26 3.596a29.822 29.822 0 00-.588 3.859l-6.18 1.873.19 4.637 6.306 1.342a30.582 30.582 0 001.016 4.171l-4.896 4.096 1.97 4.199 6.271-1.187a30.526 30.526 0 002.304 3.14l-3.004 5.641 3.409 3.142 5.367-3.467a29.904 29.904 0 003.659 2.224l-.575 6.361 4.359 1.569 3.602-5.278c1.259.275 2.542.468 3.852.586l1.855 6.181 4.631-.197 1.351-6.319a29.497 29.497 0 004.17-1.029l4.079 4.901 4.191-1.987-1.172-6.276a29.543 29.543 0 003.136-2.314l5.629 3.003 3.142-3.42-3.449-5.371a30.62 30.62 0 002.224-3.676zm-38.471 11.961c-14.247-6.267-20.704-22.927-14.421-37.211 6.283-14.283 22.927-20.784 37.173-14.517 14.249 6.267 20.705 22.929 14.423 37.212-6.283 14.284-22.926 20.784-37.175 14.516zM7.278 157.939l6.6.591 1.634-4.542-5.467-3.739c.287-1.31.494-2.647.616-4.011l6.416-1.944-.195-4.823-6.553-1.393a31.82 31.82 0 00-1.059-4.337l5.089-4.259-2.048-4.36-6.514 1.231a31.011 31.011 0 00-2.398-3.26l3.123-5.869-3.543-3.266-5.577 3.603a31.848 31.848 0 00-3.805-2.31l.598-6.612-4.532-1.627-3.742 5.48a31.976 31.976 0 00-4.005-.604l-1.929-6.425-4.812.202-1.406 6.57c-1.484.253-2.93.615-4.33 1.066l-4.237-5.093-4.364 2.062 1.22 6.524A32.012 32.012 0 00-41.2 119.2l-5.854-3.116-3.26 3.552 3.579 5.585a31.223 31.223 0 00-2.31 3.813l-6.602-.585-1.633 4.542 5.467 3.739a31.24 31.24 0 00-.611 4.01l-6.424 1.947.197 4.82 6.556 1.394a31.697 31.697 0 001.056 4.337l-5.088 4.256 2.047 4.365 6.517-1.234a31.883 31.883 0 002.395 3.263l-3.121 5.865 3.541 3.265 5.578-3.603c1.21.86 2.48 1.631 3.804 2.312l-.597 6.613 4.53 1.629 3.743-5.486c1.309.286 2.643.488 4.004.61l1.928 6.424 4.815-.205 1.404-6.567a31.23 31.23 0 004.335-1.069l4.24 5.094 4.356-2.066-1.217-6.523a30.97 30.97 0 003.258-2.406l5.852 3.121 3.265-3.555-3.584-5.583a31.376 31.376 0 002.312-3.819zm-39.987 12.433c-14.809-6.514-21.52-23.831-14.99-38.678 6.53-14.846 23.832-21.603 38.64-15.09 14.81 6.515 21.52 23.834 14.99 38.68-6.53 14.846-23.83 21.603-38.64 15.088z"/>
    <path d="M-32.173 169.151c-14.115-6.209-20.535-22.773-14.31-36.926 6.224-14.15 22.773-20.615 36.888-14.407 14.117 6.21 20.536 22.777 14.312 36.928-6.226 14.153-22.773 20.615-36.89 14.405zm21.28-48.38c-12.492-5.495-27.138.223-32.646 12.748-5.51 12.525.173 27.185 12.664 32.68 12.494 5.496 27.14-.223 32.65-12.748 5.507-12.525-.175-27.185-12.668-32.68zM175.843 336.968l-1.582-.441c-2.51-.699-4.267-3.077-3.995-5.672.349-3.351 3.605-5.464 6.704-4.603l1.411.393a3.328 3.328 0 004.189-2.775c.132-.99.242-1.979.331-2.968a3.322 3.322 0 00-3.356-3.623l-1.663.025c-2.604.037-4.96-1.747-5.433-4.313-.606-3.309 1.928-6.257 5.143-6.304l1.458-.022a3.335 3.335 0 003.242-3.851 75.176 75.176 0 00-.525-2.932 3.318 3.318 0 00-4.24-2.522l-1.72.532c-2.786.866-5.767-.71-6.626-3.5-2.557-1.124-2.341-4.828.33-5.656l4.561-1.417a3.335 3.335 0 002.031-4.602 72.5 72.5 0 00-1.322-2.665 3.32 3.32 0 00-4.783-1.228l-1.494.994c-2.431 1.615-5.739.946-7.348-1.486-1.607-2.434-.933-5.746 1.498-7.362l1.222-.811c1.684-1.118 1.997-3.476.655-4.985a72.882 72.882 0 00-2.022-2.187 3.323 3.323 0 00-4.936.173l-1.166 1.388c-1.88 2.235-5.243 2.526-7.469.648l.001-.002c-2.229-1.88-2.514-5.245-.634-7.48l.939-1.117c1.304-1.548.942-3.9-.773-4.968a72.003 72.003 0 00-2.556-1.521 3.327 3.327 0 00-4.688 1.559l-.726 1.649c-1.177 2.676-4.321 3.904-6.989 2.731-2.668-1.174-3.887-4.323-2.711-6.997l.587-1.334c.815-1.854-.193-4.002-2.139-4.545a69.142 69.142 0 00-2.879-.744 3.332 3.332 0 00-4.065 2.815l-.215 1.643c-.336 2.587-2.439 4.675-5.042 4.778-3.36.14-5.905-2.786-5.49-5.982l.188-1.457a3.32 3.32 0 00-3.336-3.756c-.993.016-1.986.052-2.977.105a3.34 3.34 0 00-3.104 3.849l.281 1.792c.453 2.884-1.533 5.621-4.413 6.077-2.882.458-5.606-1.526-6.061-4.409l-.224-1.432a3.316 3.316 0 00-4.258-2.662 77.32 77.32 0 00-2.822.939 3.336 3.336 0 00-1.899 4.566l.766 1.624c1.245 2.639.107 5.82-2.527 7.074a5.306 5.306 0 01-7.06-2.521l-.621-1.314a3.317 3.317 0 00-4.832-1.352 74.668 74.668 0 00-2.45 1.695 3.341 3.341 0 00-.544 4.921l1.198 1.346c1.939 2.178 1.743 5.55-.435 7.496-2.177 1.944-5.547 1.754-7.484-.423l-.974-1.094a3.321 3.321 0 00-5.021.07 71.315 71.315 0 00-1.872 2.321c-1.209 1.561-.808 3.828.865 4.868l1.532.955c2.473 1.544 3.234 4.833 1.69 7.315-1.546 2.48-4.83 3.247-7.303 1.707l-1.234-.769c-1.705-1.065-3.976-.383-4.787 1.461l-.015.036a71.845 71.845 0 00-1.148 2.761c-.716 1.829.317 3.875 2.206 4.402l1.73.48c2.807.782 4.463 3.723 3.678 6.537-.784 2.813-3.725 4.477-6.531 3.696l-1.412-.392a3.332 3.332 0 00-4.191 2.776 72.16 72.16 0 00-.331 2.965 3.323 3.323 0 003.355 3.625l1.815-.028c2.915-.043 5.331 2.309 5.369 5.23.038 2.92-2.315 5.345-5.233 5.389l-1.454.02a3.338 3.338 0 00-3.244 3.852c.156.982.33 1.96.526 2.932a3.318 3.318 0 004.24 2.521l1.718-.533c2.785-.862 5.766.713 6.626 3.501 2.557 1.125 2.34 4.831-.329 5.659l-4.56 1.416c-1.931.599-2.896 2.773-2.033 4.602.422.895.865 1.784 1.322 2.664a3.323 3.323 0 004.784 1.227l1.369-.908c2.175-1.445 5.119-1.222 6.903.68 2.298 2.452 1.755 6.3-.928 8.081l-1.22.811c-1.687 1.119-2 3.475-.659 4.987a72.599 72.599 0 002.024 2.186 3.323 3.323 0 004.936-.173l1.083-1.288c1.66-1.972 4.501-2.588 6.735-1.315 2.956 1.683 3.54 5.564 1.45 8.049l-.938 1.118c-1.304 1.549-.94 3.9.774 4.968.84.521 1.691 1.028 2.557 1.519a3.327 3.327 0 004.688-1.559l.725-1.649c1.176-2.674 4.322-3.901 6.989-2.728 2.668 1.174 3.888 4.321 2.712 6.995l-.587 1.333c-.814 1.853.196 4.002 2.14 4.548a70.07 70.07 0 002.879.741 3.331 3.331 0 004.067-2.816l.211-1.64c.339-2.588 2.44-4.675 5.044-4.781 3.359-.137 5.906 2.789 5.489 5.984l-.189 1.457c-.261 2.011 1.314 3.788 3.337 3.755a77.677 77.677 0 002.977-.104 3.338 3.338 0 003.104-3.85l-.258-1.639c-.405-2.579 1.027-5.171 3.498-6.008 3.187-1.08 6.452 1.007 6.952 4.189l.225 1.431c.314 2.001 2.326 3.263 4.258 2.662a73.44 73.44 0 002.822-.94 3.336 3.336 0 001.9-4.568l-.7-1.483c-1.113-2.359-.467-5.25 1.668-6.748 2.756-1.935 6.478-.854 7.852 2.055l.622 1.315a3.317 3.317 0 004.831 1.352 72.017 72.017 0 002.449-1.694 3.34 3.34 0 00.544-4.921l-1.197-1.347c-1.94-2.177-1.742-5.551.436-7.498 1.1-2.5 4.411-3.027 6.225-.989l2.231 2.508a3.32 3.32 0 005.021-.07 75.7 75.7 0 001.875-2.322 3.338 3.338 0 00-.867-4.869l-1.533-.955c-2.729-1.702-3.371-5.529-1.139-8.052 1.73-1.953 4.672-2.263 6.882-.886l1.103.688c1.707 1.065 3.977.382 4.788-1.463l.016-.036c.403-.916.786-1.835 1.147-2.758.717-1.828-.317-3.873-2.208-4.398zm-43.015-67.356c10.375 5.426 18.154 14.053 22.649 24.122l-16.016 6.253c-2.858-5.985-7.491-11.149-13.572-14.603l6.938-15.772h.001zm-6.293-2.768l-6.937 15.773c-6.656-2.149-13.592-2.072-19.934-.135L93.45 266.45c10.459-3.491 22.076-3.587 33.086.394zm-39.453 2.223l6.236 16.086a33.37 33.37 0 00-13.603 13.923l-15.706-6.909a50.499 50.499 0 0123.073-23.1zm-25.734 61.42a50.52 50.52 0 01.041-31.946l15.786 6.944a33.386 33.386 0 00.189 18.747l-16.016 6.255zm24.495 28.872c-9.816-5.131-17.306-13.128-21.89-22.499l16.07-6.274a33.146 33.146 0 0012.757 13l-6.938 15.773zm11.964-18.661c-14.444-6.353-20.985-23.236-14.617-37.713 6.366-14.473 23.231-21.061 37.674-14.708 14.439 6.351 20.984 23.236 14.618 37.709-6.367 14.477-23.237 21.063-37.675 14.712zm-5.672 21.429l6.937-15.773c6.056 1.958 12.342 2.07 18.204.618l6.237 16.086c-10.007 2.953-20.963 2.836-31.378-.931zm37.834-1.456l-6.214-16.032a33.357 33.357 0 0013.944-12.531l15.789 6.945a50.545 50.545 0 01-23.519 21.618zm10.741-34.766a33.374 33.374 0 001.071-19.435l16.069-6.275a50.485 50.485 0 01-1.434 32.618l-15.706-6.908zM244.102 172.182l-.448-.124c-.71-.198-1.207-.871-1.13-1.605a1.507 1.507 0 011.896-1.303l.4.111a.942.942 0 001.185-.785c.037-.28.068-.56.093-.839a.939.939 0 00-.95-1.025l-.47.007c-.737.01-1.403-.495-1.537-1.22a1.508 1.508 0 011.455-1.784l.413-.007a.944.944 0 00.917-1.09 23.25 23.25 0 00-.149-.83.938.938 0 00-1.199-.713l-.486.151a1.501 1.501 0 01-1.875-.991c-.723-.318-.662-1.366.093-1.601l1.291-.4a.944.944 0 00.574-1.302c-.12-.253-.244-.505-.374-.754a.94.94 0 00-1.354-.348l-.422.282a1.504 1.504 0 01-2.079-.42 1.51 1.51 0 01.424-2.083l.346-.23a.944.944 0 00.186-1.41c-.186-.21-.376-.416-.572-.619a.94.94 0 00-1.396.049l-.331.392a1.504 1.504 0 01-2.113.184l.001-.001a1.507 1.507 0 01-.179-2.116l.264-.317a.94.94 0 00-.218-1.404 20.874 20.874 0 00-.723-.431.942.942 0 00-1.327.441l-.205.467a1.506 1.506 0 01-1.978.772 1.507 1.507 0 01-.768-1.98l.166-.377a.94.94 0 00-.605-1.285c-.27-.076-.542-.147-.814-.211a.943.943 0 00-1.15.796l-.061.466c-.096.732-.69 1.323-1.427 1.352a1.5 1.5 0 01-1.553-1.692l.053-.412a.94.94 0 00-.944-1.063c-.281.006-.561.016-.842.031a.944.944 0 00-.878 1.089l.079.507a1.509 1.509 0 01-1.249 1.72 1.502 1.502 0 01-1.715-1.247l-.064-.406a.937.937 0 00-1.203-.753c-.269.083-.535.172-.799.265a.944.944 0 00-.537 1.292l.217.46c.352.745.03 1.646-.715 2.001a1.502 1.502 0 01-1.998-.713l-.176-.372a.94.94 0 00-1.368-.383c-.233.155-.465.315-.692.479a.944.944 0 00-.154 1.392l.339.381c.548.616.493 1.57-.124 2.121a1.503 1.503 0 01-2.117-.12l-.276-.309a.941.941 0 00-1.421.019c-.181.216-.357.434-.529.657a.943.943 0 00.245 1.377l.433.27c.7.437.915 1.367.478 2.07a1.503 1.503 0 01-2.065.482l-.349-.218a.937.937 0 00-1.354.414l-.005.01c-.114.259-.222.519-.325.781a.942.942 0 00.624 1.246l.49.135a1.507 1.507 0 011.042 1.85 1.507 1.507 0 01-1.849 1.045l-.399-.111a.943.943 0 00-1.186.786c-.036.28-.068.56-.092.84a.94.94 0 00.949 1.026l.513-.008a1.502 1.502 0 01.039 3.005l-.411.006a.945.945 0 00-.918 1.09c.044.277.094.554.149.829a.938.938 0 001.199.713l.487-.151a1.502 1.502 0 011.875.99c.724.318.662 1.366-.092 1.601l-1.291.4a.944.944 0 00-.575 1.303c.119.253.245.504.373.754a.941.941 0 001.354.347l.387-.257c.615-.409 1.448-.346 1.953.192a1.51 1.51 0 01-.263 2.287l-.345.229a.943.943 0 00-.187 1.41c.186.21.377.416.572.619a.942.942 0 001.397-.049l.307-.364c.469-.558 1.273-.732 1.905-.373a1.506 1.506 0 01.41 2.278l-.264.317a.942.942 0 00.219 1.406c.237.146.479.29.723.429a.94.94 0 001.326-.441l.206-.467a1.505 1.505 0 011.977-.772c.755.332 1.1 1.222.767 1.979l-.166.377a.941.941 0 00.605 1.287c.271.075.542.146.815.21a.943.943 0 001.15-.797l.059-.464c.096-.732.691-1.322 1.428-1.353.95-.038 1.67.79 1.553 1.693l-.054.412a.94.94 0 00.944 1.063c.282-.005.563-.015.842-.029a.945.945 0 00.878-1.09l-.072-.463c-.115-.73.289-1.464.989-1.701a1.5 1.5 0 011.966 1.185l.065.405a.938.938 0 001.204.753c.269-.083.535-.171.799-.266a.944.944 0 00.539-1.291l-.199-.42c-.315-.667-.133-1.485.472-1.908a1.502 1.502 0 012.222.581l.176.372a.939.939 0 001.367.383c.234-.156.465-.316.692-.48a.943.943 0 00.155-1.391l-.339-.381a1.509 1.509 0 01.124-2.122 1.06 1.06 0 011.762-.279l.631.71a.94.94 0 001.421-.02c.18-.215.356-.434.53-.657a.946.946 0 00-.245-1.378l-.434-.27a1.508 1.508 0 01-.322-2.279c.49-.551 1.322-.64 1.947-.25l.313.195a.938.938 0 001.354-.414l.004-.01c.114-.259.223-.519.325-.781a.943.943 0 00-.627-1.246zm-12.17-19.056a14.218 14.218 0 016.407 6.824l-4.53 1.769a9.403 9.403 0 00-3.839-4.132l1.962-4.461zm-1.78-.783l-1.963 4.462a9.393 9.393 0 00-5.64-.038l-1.759-4.535a14.222 14.222 0 019.362.111zm-11.162.63l1.763 4.551a9.447 9.447 0 00-3.848 3.939l-4.443-1.955a14.274 14.274 0 016.528-6.535zm-7.282 17.376a14.293 14.293 0 01.012-9.038l4.466 1.965a9.448 9.448 0 00.053 5.304l-4.531 1.769zm6.93 8.169a14.212 14.212 0 01-6.193-6.365l4.547-1.775a9.374 9.374 0 003.609 3.678l-1.963 4.462zm5.065-9.099a3.923 3.923 0 01-2.005-5.175 3.924 3.924 0 015.17-2.019 3.925 3.925 0 012.006 5.175 3.924 3.924 0 01-5.171 2.019zm-3.284 9.882l1.963-4.462a9.383 9.383 0 005.15.174l1.764 4.55c-2.83.837-5.931.803-8.877-.262zm10.703-.412l-1.758-4.536a9.44 9.44 0 003.945-3.545l4.467 1.964a14.29 14.29 0 01-6.654 6.117zm3.04-9.837a9.437 9.437 0 00.302-5.498l4.547-1.776c.86 2.942.787 6.176-.406 9.229l-4.443-1.955zM50.175 260.659c.549-1.405-.25-2.985-1.715-3.389l-1.223-.339c-1.942-.543-3.295-2.37-3.093-4.369.269-2.571 2.774-4.182 5.165-3.518l1.095.307c1.494.415 3.026-.581 3.228-2.124.093-.756.175-1.528.252-2.284a2.584 2.584 0 00-2.603-2.787l-1.282.021c-2.011.02-3.835-1.359-4.2-3.325-.478-2.543 1.475-4.801 3.947-4.827l1.125-.02a2.542 2.542 0 002.497-2.944 48.08 48.08 0 00-.413-2.255c-.288-1.487-1.816-2.39-3.272-1.944l-1.324.399c-2.15.666-4.454-.552-5.123-2.701-1.966-.865-1.81-3.705.244-4.335l3.515-1.082c1.488-.455 2.232-2.131 1.565-3.528a56.438 56.438 0 00-1.03-2.055 2.585 2.585 0 00-3.698-.95l-1.15.763c-1.87 1.229-4.426.708-5.667-1.156-1.25-1.887-.732-4.421 1.142-5.651l.938-.623a2.544 2.544 0 00.492-3.828c-.503-.574-1.028-1.122-1.55-1.681-1.064-1.095-2.842-1.037-3.823.115l-.888 1.064a4.113 4.113 0 01-5.77.485c-1.719-1.453-1.943-4.028-.499-5.746l.715-.853a2.564 2.564 0 00-.605-3.826 70.826 70.826 0 00-1.978-1.162c-1.315-.743-2.999-.204-3.611 1.188l-.551 1.253a4.09 4.09 0 01-5.391 2.088c-2.068-.909-3.015-3.325-2.108-5.386l.445-1.013a2.571 2.571 0 00-1.65-3.497 54.18 54.18 0 00-2.229-.569 2.551 2.551 0 00-3.129 2.159l-.16 1.255c-.252 1.98-1.883 3.586-3.876 3.659-2.6.103-4.57-2.151-4.26-4.607l.144-1.118c.203-1.547-1.022-2.906-2.574-2.891-.772.012-1.538.037-2.302.08a2.548 2.548 0 00-2.39 2.945l.218 1.374c.356 2.212-1.173 4.314-3.387 4.659-2.226.347-4.34-1.185-4.683-3.396l-.188-1.099a2.576 2.576 0 00-3.286-2.063c-.727.232-1.453.465-2.178.722a2.552 2.552 0 00-1.452 3.511l.596 1.242a4.08 4.08 0 01-1.938 5.429c-2.031.948-4.489.078-5.448-1.952l-.483-1.011a2.579 2.579 0 00-3.737-1.049 55.06 55.06 0 00-1.89 1.299 2.557 2.557 0 00-.41 3.773l.942 1.037c1.488 1.684 1.34 4.264-.334 5.758-1.682 1.492-4.275 1.335-5.772-.343l-.75-.835a2.577 2.577 0 00-3.882.043 77 77 0 00-1.44 1.776 2.57 2.57 0 00.674 3.745l1.188.732c1.91 1.187 2.507 3.719 1.328 5.62-1.196 1.902-3.732 2.49-5.636 1.3l-.958-.597c-1.32-.814-3.066-.305-3.69 1.116l-.011.024c-.308.7-.609 1.408-.882 2.114a2.567 2.567 0 001.715 3.395l1.33.364c2.172.615 3.448 2.877 2.85 5.032-.602 2.167-2.857 3.426-5.033 2.821l-1.087-.294a2.551 2.551 0 00-3.23 2.116 48.213 48.213 0 00-.243 2.277 2.564 2.564 0 002.588 2.792l1.407-.014c2.245-.035 4.115 1.786 4.155 4.023a4.079 4.079 0 01-4.03 4.126l-1.119.019a2.545 2.545 0 00-2.498 2.949c.122.76.258 1.5.406 2.256a2.585 2.585 0 003.28 1.946l1.332-.411c2.144-.653 4.45.561 5.114 2.694 1.977.869 1.822 3.716-.245 4.354l-3.512 1.078a2.55 2.55 0 00-1.556 3.537c.326.683.667 1.366 1.014 2.042a2.588 2.588 0 003.704.954l1.055-.698c1.668-1.102 3.944-.923 5.324.542 1.777 1.883 1.37 4.839-.7 6.193l-.94.624a2.545 2.545 0 00-.492 3.83c.505.573 1.03 1.135 1.562 1.679a2.566 2.566 0 003.81-.121l.83-.992c1.276-1.505 3.467-1.973 5.201-.988 2.28 1.297 2.737 4.275 1.127 6.179l-.715.856a2.54 2.54 0 00.606 3.813c.646.408 1.307.805 1.97 1.178 1.325.753 3.007.2 3.616-1.185l.559-1.27c.904-2.055 3.327-2.985 5.39-2.078 2.058.906 3.009 3.32 2.105 5.375l-.451 1.025a2.565 2.565 0 001.652 3.495c.745.212 1.486.402 2.23.577 1.479.363 2.933-.655 3.13-2.15l.16-1.271c.253-1.982 1.877-3.575 3.88-3.656 2.591-.091 4.563 2.161 4.25 4.606l-.14 1.109c-.198 1.557 1.022 2.927 2.574 2.907a61.294 61.294 0 002.306-.084 2.55 2.55 0 002.389-2.946l-.21-1.266c-.314-1.976.785-3.963 2.692-4.603 2.453-.824 4.975.79 5.368 3.236l.183 1.094a2.569 2.569 0 003.284 2.055 57.1 57.1 0 002.178-.72 2.549 2.549 0 001.458-3.501l-.544-1.145c-.862-1.81-.374-4.025 1.276-5.179 2.118-1.475 4.992-.638 6.058 1.599l.483 1.01a2.57 2.57 0 003.727 1.051 58.003 58.003 0 001.896-1.301 2.552 2.552 0 00.406-3.771l-.93-1.037c-1.493-1.679-1.35-4.268.325-5.761.844-1.919 3.399-2.321 4.797-.751l1.73 1.935c1.044 1.159 2.872 1.141 3.875-.051.496-.581.972-1.167 1.445-1.776.928-1.194.616-2.93-.674-3.742l-1.187-.732c-2.112-1.31-2.615-4.25-.9-6.182 1.336-1.501 3.604-1.735 5.308-.671l.856.531c1.32.814 3.074.293 3.693-1.113l.013-.03c.31-.7.603-1.397.88-2.111zm-51.093 1.542l.157-18.45 12.917 13.128a22.98 22.98 0 01-13.074 5.322zm21.167-24.482l-18.43-.105 13.13-12.98a22.954 22.954 0 015.3 13.085zm-18.454 3.49l18.42.116a22.947 22.947 0 01-1.856 7.242c-.948 2.156-2.174 4.095-3.64 5.766L1.795 241.209zm27.595 12.557a3.646 3.646 0 01-4.798 1.87 3.646 3.646 0 01-1.867-4.801 3.65 3.65 0 014.806-1.882c1.841.809 2.67 2.968 1.859 4.813zm-4.35-28.771a3.615 3.615 0 014.713 2.073 3.639 3.639 0 01-2.075 4.717 3.638 3.638 0 01-4.712-2.073 3.65 3.65 0 012.075-4.717zm-13.875-17.023a3.634 3.634 0 011.865 4.799 3.636 3.636 0 01-4.798 1.868 3.64 3.64 0 01-1.863-4.798 3.64 3.64 0 014.796-1.869zm-4.492 10.462a22.113 22.113 0 015.747 3.643L-.706 235.046l.14-18.456c2.441.203 4.884.808 7.239 1.844zm-31.985 22.607l18.41.127-13.12 12.955a22.823 22.823 0 01-5.29-13.082zm-4.466-16.616c1.839.808 2.662 2.967 1.854 4.805-.81 1.84-2.957 2.691-4.796 1.882-1.84-.809-2.67-2.97-1.86-4.81.809-1.838 2.96-2.687 4.802-1.877zm6.357 5.766a23.001 23.001 0 013.63-5.754l12.918 13.124-18.412-.112c.21-2.444.824-4.893 1.864-7.258zm19.27-13.623l-.137 18.469-12.936-13.143a22.864 22.864 0 0113.073-5.326zm-11.331-8.92a3.646 3.646 0 014.711 2.072 3.648 3.648 0 01-2.076 4.72 3.627 3.627 0 01-4.712-2.072 3.655 3.655 0 012.077-4.72zm-14.752 47.423a3.64 3.64 0 01-4.72-2.076 3.655 3.655 0 012.08-4.727 3.65 3.65 0 014.719 2.076 3.674 3.674 0 01-2.08 4.727zm13.866 17.027a3.639 3.639 0 01-1.853-4.805 3.635 3.635 0 014.79-1.873 3.648 3.648 0 11-2.937 6.678zm4.618-11.78c-2.126-.935-4.068-2.153-5.742-3.624l13.122-12.973-.133 18.46a22.577 22.577 0 01-7.247-1.863zm22.035 12.1c-1.87.73-3.986-.2-4.71-2.072-.725-1.886.205-3.999 2.077-4.721a3.614 3.614 0 014.71 2.071c.736 1.87-.193 3.983-2.077 4.722z"/>
  </g>
</svg>
