<svg fill="none" height="31" viewBox="0 0 29 31" width="29" xmlns="http://www.w3.org/2000/svg"><g stroke-linecap="round" stroke-linejoin="round" stroke-width="2"><path d="m27.6596 22.3017v4.0146c.0061 1.4777-1.189 2.6809-2.6704 2.687-.0838 0-.1687-.0031-.2525-.0112-4.1252-.447-8.0867-1.8543-11.5678-4.1075-3.23882-2.0543-5.98483-4.7954-8.04281-8.0284-2.26552-3.4911-3.67533-7.46596-4.11494-11.60104-.133925-1.47259.95385-2.77373 2.42909-2.9064.07872-.00714.15847-.01123.23821-.01123h4.0219c1.34541-.01326 2.49245.97152 2.68055 2.30124.1697 1.28482.4846 2.54616.9386 3.75954.368.97764.1329 2.08079-.6032 2.82369l-1.70224 1.6992c1.90874 3.3503 4.68644 6.124 8.04274 8.0283l1.7023-1.6992c.7442-.7347 1.8483-.9694 2.8288-.602 1.2166.4531 2.4802.7674 3.7663.9368 1.3474.1898 2.3391 1.3583 2.3054 2.7166z" stroke="#000"/><path d="m17 5.89734c1.2286.23183 2.3577.81295 3.2428 1.66899.8852.85604 1.486 1.94805 1.7258 3.13627m-4.9686-9.67135c2.5525.27425 4.9328 1.37975 6.75 3.13499 1.8172 1.75523 2.9632 4.05588 3.25 6.52416" stroke="#fc8e28"/></g></svg>