<svg width="22" height="27" viewBox="0 0 22 27" fill="none" xmlns="http://www.w3.org/2000/svg">
<path d="M21.5905 16.1675L19.6351 17.2476C19.0117 17.592 18.5841 18.2046 18.4622 18.9283L18.0798 21.1982C18.0077 21.6258 17.628 21.913 17.215 21.8522L15.0232 21.5295C14.3243 21.4264 13.6326 21.6606 13.1253 22.1715L11.5344 23.7737C11.2347 24.0754 10.7652 24.0754 10.4655 23.7737L8.87458 22.1714C8.44584 21.7396 7.88533 21.5056 7.3002 21.5056C7.19298 21.5056 7.08492 21.5135 6.97667 21.5295L4.78491 21.8522C4.37223 21.9129 3.9922 21.6257 3.92011 21.1981L3.53764 18.9282C3.41567 18.2045 2.98816 17.5919 2.36467 17.2475L0.409416 16.1675C0.0410302 15.964 -0.104041 15.4991 0.079071 15.1091L1.05123 13.0387C1.36114 12.3786 1.36114 11.6214 1.05123 10.9613L0.079071 8.89087C-0.104041 8.50086 0.0410302 8.03598 0.409416 7.83254L2.36481 6.75246C2.98821 6.40801 3.41581 5.79548 3.53773 5.07173L3.92016 2.80189C3.99225 2.37427 4.37191 2.08703 4.78495 2.1478L6.97671 2.47054C7.67544 2.57351 8.36732 2.33941 8.87462 1.82858L10.4656 0.226324C10.7652 -0.0754413 11.2347 -0.0754413 11.5345 0.226324L13.1253 1.82863C13.6326 2.33956 14.3244 2.57356 15.0232 2.47059L17.215 2.14785C17.6277 2.08708 18.0077 2.37437 18.0798 2.80194L18.4622 5.07182C18.5842 5.79558 19.0117 6.40816 19.6352 6.75251L21.5906 7.83259C21.959 8.03603 22.104 8.50091 21.9209 8.89092L20.9488 10.9613C20.6389 11.6214 20.6389 12.3786 20.9488 13.0387L21.9209 15.1091C22.104 15.4991 21.9589 15.9641 21.5905 16.1675Z" fill="#FC8E28"/>
<path d="M15.665 7.13L14.21 6.2L7.265 16.67L8.72 17.6L15.665 7.13ZM8.105 6.65C6.62 6.65 5.435 7.7 5.435 9.35C5.435 11 6.62 12.05 8.105 12.05C9.605 12.05 10.775 11 10.775 9.35C10.775 7.7 9.605 6.65 8.105 6.65ZM8.105 8.075C8.885 8.075 9.065 8.72 9.065 9.35C9.065 9.995 8.885 10.625 8.105 10.625C7.325 10.625 7.13 9.98 7.13 9.35C7.13 8.705 7.325 8.075 8.105 8.075ZM14.78 11.87C13.28 11.87 12.095 12.905 12.095 14.555C12.095 16.22 13.28 17.255 14.78 17.255C16.28 17.255 17.45 16.22 17.45 14.555C17.45 12.905 16.28 11.87 14.78 11.87ZM14.78 13.295C15.56 13.295 15.74 13.925 15.74 14.555C15.74 15.2 15.56 15.845 14.78 15.845C14 15.845 13.805 15.185 13.805 14.555C13.805 13.925 14 13.295 14.78 13.295Z" fill="white"/>
</svg>
