<svg width="18" height="22" viewBox="0 0 18 22" fill="none" xmlns="http://www.w3.org/2000/svg">
<circle cx="9" cy="10.5" r="9" fill="#FC8E28"/>
<path d="M9.402 5.116C8.1 5.116 7.092 5.634 6.308 6.558L7.47 7.468C8.002 6.838 8.618 6.544 9.248 6.544C9.976 6.544 10.424 6.908 10.424 7.524C10.424 8.84 8.1 8.644 8.1 11.038V11.584H9.766V11.108C9.766 9.414 12.3 9.638 12.3 7.384C12.3 6.194 11.32 5.116 9.402 5.116ZM8.954 12.942C8.324 12.942 7.834 13.446 7.834 14.076C7.834 14.692 8.324 15.21 8.954 15.21C9.598 15.21 10.102 14.692 10.102 14.076C10.102 13.446 9.598 12.942 8.954 12.942Z" fill="white"/>
</svg>
