<svg width="262" height="647" viewBox="0 0 262 647" fill="none" xmlns="http://www.w3.org/2000/svg">
<g opacity="0.5">
<path d="M96.4953 53.5031C98.1031 48.0789 103.836 44.9776 109.274 46.5893C114.711 48.2011 117.828 53.9262 116.22 59.3497C114.612 64.7747 108.879 67.8774 103.441 66.2657C98.0036 64.6539 94.8872 58.9281 96.4953 53.5031ZM110.728 57.7219C111.441 55.3185 110.059 52.7812 107.65 52.0671C105.24 51.3529 102.7 52.7278 101.988 55.1312C101.275 57.536 102.656 60.0721 105.065 60.7864C107.474 61.5005 110.016 60.1267 110.728 57.7219Z" fill="white"/>
<path d="M99.3034 86.811L95.4994 92.2182L90.9867 90.5333L91.662 83.9587C90.4794 83.3337 89.328 82.6267 88.2135 81.8393L82.5924 85.4743L79.0478 82.2178L82.2114 76.3278C81.243 75.1767 80.3708 73.9728 79.5909 72.7265L73.0674 73.8574L71.0683 69.4842L76.2063 65.3165C75.8091 64.0257 75.4962 62.7146 75.2682 61.3911L68.7877 59.9847L68.584 55.1829L74.9234 53.2552C75.0516 51.7827 75.2826 50.3154 75.6173 48.8681L70.1932 45.0614L71.8767 40.5614L78.4642 41.245C79.0905 40.0659 79.7961 38.9164 80.584 37.8051L76.9356 32.1931L80.1932 28.658L86.1014 31.8247C87.252 30.8608 88.458 29.9892 89.7061 29.2136L88.5622 22.7025L92.9444 20.7121L97.1259 25.8473C98.4199 25.4526 99.7326 25.1417 101.059 24.9153L102.459 18.4498L107.27 18.2542L109.212 24.5831C110.686 24.7127 112.158 24.9442 113.608 25.2814L117.414 19.8764L121.926 21.5618L121.25 28.1339C122.434 28.7614 123.585 29.467 124.701 30.2545L130.32 26.6198L133.866 29.8761L130.702 35.7675C131.67 36.9177 132.544 38.1206 133.324 39.3676L139.847 38.2366L141.848 42.611L136.708 46.7783C137.106 48.0679 137.419 49.3795 137.648 50.7034L144.128 52.1089L144.331 56.9105L137.991 58.838C137.864 60.3099 137.633 61.7772 137.298 63.2252L142.721 67.0317L141.038 71.5318L134.449 70.8479C133.823 72.0277 133.117 73.1765 132.331 74.2875L135.979 79.9009L132.719 83.4354L126.814 80.2687C125.663 81.234 124.456 82.1033 123.206 82.8805L124.351 89.3912L119.97 91.3819L115.787 86.2485C114.494 86.6436 113.181 86.9543 111.855 87.1777L110.454 93.6446L105.643 93.8409L103.703 87.5116C102.225 87.3803 100.756 87.148 99.3034 86.811ZM129.807 62.9678C133.62 50.103 126.256 36.5765 113.36 32.7541C100.464 28.9314 86.918 36.2607 83.105 49.1247C79.2919 61.9888 86.6555 75.5174 99.5519 79.3401C112.448 83.1625 125.994 75.8318 129.807 62.9678Z" fill="white"/>
<path d="M143.039 95.3613C143.712 93.093 146.109 91.7959 148.383 92.4698C150.657 93.1439 151.96 95.5377 151.288 97.806C150.616 100.074 148.218 101.372 145.944 100.698C143.67 100.024 142.367 97.6303 143.039 95.3613ZM148.991 97.1253C149.289 96.1204 148.711 95.0592 147.704 94.7606C146.696 94.462 145.634 95.0373 145.336 96.0421C145.038 97.0477 145.615 98.1079 146.623 98.4065C147.63 98.7052 148.693 98.1308 148.991 97.1253Z" fill="white"/>
<path d="M144.214 109.294L142.623 111.555L140.736 110.851L141.018 108.101C140.524 107.839 140.042 107.543 139.576 107.214L137.224 108.735L135.742 107.372L137.065 104.908C136.66 104.427 136.295 103.923 135.969 103.402L133.24 103.874L132.404 102.045L134.553 100.302C134.388 99.7611 134.256 99.2132 134.161 98.6598L131.45 98.0717L131.365 96.0629L134.017 95.2565C134.07 94.6404 134.167 94.0266 134.307 93.4211L132.039 91.8287L132.743 89.9467L135.499 90.233C135.761 89.7394 136.056 89.2588 136.386 88.7937L134.86 86.446L136.222 84.9675L138.693 86.2919C139.174 85.8886 139.679 85.5244 140.201 85.1992L139.722 82.4758L141.555 81.6429L143.305 83.7907C143.846 83.626 144.395 83.4959 144.95 83.4005L145.535 80.6965L147.547 80.6145L148.36 83.262C148.976 83.3159 149.592 83.4125 150.199 83.5542L151.791 81.2927L153.678 81.9978L153.395 84.7469C153.89 85.0094 154.372 85.3047 154.839 85.6339L157.189 84.1133L158.672 85.4753L157.348 87.9397C157.753 88.4208 158.119 88.9239 158.445 89.4454L161.173 88.9722L162.01 90.8018L159.86 92.5445C160.027 93.0839 160.157 93.6324 160.253 94.1867L162.963 94.7748L163.048 96.7834L160.396 97.5898C160.343 98.2056 160.246 98.8196 160.106 99.4244L162.375 101.017L161.671 102.899L158.915 102.613C158.653 103.106 158.358 103.587 158.029 104.052L159.555 106.4L158.192 107.878L155.721 106.553C155.24 106.957 154.736 107.321 154.213 107.646L154.692 110.368L152.86 111.201L151.109 109.053C150.569 109.218 150.019 109.348 149.465 109.441L148.879 112.147L146.867 112.229L146.055 109.582C145.437 109.532 144.823 109.435 144.214 109.294ZM156.974 99.321C158.569 93.94 155.489 88.2817 150.095 86.683C144.701 85.084 139.035 88.1497 137.44 93.5308C135.845 98.9118 138.925 104.57 144.319 106.169C149.713 107.768 155.379 104.702 156.974 99.321Z" fill="white"/>
<path d="M170.887 -4.58565L164.073 5.09869L155.99 2.08103L157.2 -9.69599C155.081 -10.8154 153.019 -12.0807 151.023 -13.4913L140.954 -6.98062L134.605 -12.8142L140.271 -23.364C138.537 -25.4251 136.975 -27.5827 135.577 -29.8149L123.892 -27.7894L120.311 -35.6232L129.514 -43.0875C128.802 -45.3993 128.242 -47.7473 127.833 -50.1188L116.225 -52.6363L115.861 -61.2365L127.217 -64.6897C127.446 -67.3269 127.86 -69.9544 128.46 -72.5473L118.747 -79.3651L121.763 -87.4249L133.563 -86.2007C134.684 -88.3127 135.949 -90.3706 137.359 -92.3622L130.824 -102.414L136.659 -108.746L147.241 -103.075C149.302 -104.801 151.462 -106.362 153.698 -107.752L151.649 -119.414L159.497 -122.979L166.988 -113.782C169.306 -114.489 171.657 -115.046 174.032 -115.452L176.54 -127.033L185.157 -127.384L188.635 -116.047C191.276 -115.816 193.911 -115.399 196.509 -114.796L203.328 -124.479L211.408 -121.46L210.197 -109.687C212.317 -108.564 214.381 -107.3 216.378 -105.89L226.443 -112.401L232.794 -106.567L227.126 -96.0141C228.859 -93.9548 230.425 -91.7993 231.821 -89.5654L243.506 -91.5916L247.088 -83.7573L237.882 -76.2932C238.596 -73.9817 239.154 -71.6334 239.566 -69.2624L251.173 -66.7444L251.535 -58.1442L240.179 -54.6916C239.951 -52.0543 239.537 -49.4267 238.938 -46.8334L248.652 -40.0163L245.636 -31.9557L233.836 -33.18C232.714 -31.0676 231.451 -29.0099 230.042 -27.0191L236.577 -16.9649L230.738 -10.6342L220.16 -16.3054C218.098 -14.5773 215.938 -13.02 213.699 -11.6281L215.749 0.0340197L207.902 3.59893L200.409 -5.59691C198.095 -4.88904 195.741 -4.33312 193.367 -3.93119L190.858 7.65108L182.242 8.00137L178.766 -3.3351C176.12 -3.56647 173.49 -3.98279 170.887 -4.58565ZM225.524 -47.2932C232.354 -70.3344 219.164 -94.5643 196.065 -101.411C172.966 -108.258 148.703 -95.1292 141.873 -72.088C135.043 -49.0467 148.232 -24.8148 171.332 -17.9679C194.431 -11.1213 218.694 -24.252 225.524 -47.2932Z" fill="white"/>
<path d="M181.006 86.4079L176.969 92.1464L172.18 90.3565L172.897 83.3803C171.642 82.7147 170.42 81.9675 169.236 81.129L163.272 84.9887L159.509 81.5304L162.865 75.2789C161.838 74.0567 160.912 72.7816 160.086 71.4564L153.161 72.6585L151.04 68.0144L156.493 63.5922C156.07 62.2241 155.741 60.8329 155.496 59.4286L148.619 57.9352L148.403 52.8364L155.131 50.7938C155.266 49.2307 155.511 47.6741 155.868 46.1391L150.112 42.0982L151.898 37.3212L158.892 38.0471C159.554 36.7965 160.305 35.5785 161.141 34.3986L157.267 28.4423L160.724 24.6903L166.996 28.0501C168.215 27.026 169.497 26.1016 170.822 25.2784L169.606 18.3687L174.259 16.2554L178.694 21.7067C180.07 21.2893 181.461 20.9581 182.87 20.7163L184.356 13.8537L189.461 13.6457L191.521 20.3647C193.087 20.5037 194.648 20.7473 196.187 21.1045L200.227 15.3678L205.017 17.1571L204.298 24.1337C205.555 24.796 206.778 25.5464 207.961 26.3849L213.925 22.5256L217.69 25.9808L214.33 32.2341C215.358 33.4537 216.285 34.7313 217.112 36.0582L224.034 34.8562L226.158 39.4971L220.705 43.9195C221.127 45.2905 221.456 46.6829 221.702 48.0869L228.578 49.5806L228.793 54.6733L222.062 56.7211C221.93 58.2842 221.684 59.8399 221.329 61.3762L227.084 65.4153L225.298 70.1916L218.306 69.4661C217.64 70.7194 216.891 71.938 216.056 73.1166L219.93 79.0744L216.469 82.826L210.2 79.4666C208.979 80.4908 207.699 81.4149 206.374 82.2365L207.588 89.1481L202.938 91.2583L198.498 85.8097C197.127 86.2274 195.734 86.5603 194.325 86.7961L192.84 93.6588L187.734 93.8697L185.674 87.15C184.107 87.0121 182.55 86.7651 181.006 86.4079ZM200.383 57.2509C202.308 50.7569 198.592 43.9273 192.082 41.9975C185.574 40.0684 178.736 43.7696 176.811 50.2636C174.887 56.7547 178.603 63.5853 185.111 65.5144C191.622 67.4434 198.46 63.7413 200.383 57.2509Z" fill="white"/>
<path d="M176.569 148.352L173.873 152.185L170.674 150.991L171.154 146.332C170.316 145.888 169.5 145.389 168.708 144.831L164.726 147.406L162.212 145.097L164.454 140.924C163.767 140.107 163.15 139.253 162.597 138.37L157.973 139.171L156.556 136.073L160.197 133.119C159.914 132.204 159.694 131.275 159.534 130.335L154.939 129.339L154.795 125.934L159.288 124.57C159.381 123.525 159.542 122.486 159.779 121.461L155.937 118.762L157.13 115.573L161.799 116.058C162.243 115.222 162.743 114.408 163.303 113.62L160.717 109.643L163.025 107.137L167.213 109.381C168.028 108.696 168.884 108.081 169.768 107.531L168.955 102.916L172.062 101.504L175.026 105.144C175.944 104.866 176.874 104.643 177.813 104.485L178.807 99.9013L182.215 99.7644L183.594 104.249C184.638 104.339 185.68 104.505 186.708 104.745L189.408 100.913L192.605 102.107L192.125 106.766C192.965 107.21 193.78 107.709 194.569 108.269L198.555 105.692L201.067 108.001L198.824 112.176C199.51 112.991 200.13 113.845 200.682 114.727L205.305 113.926L206.725 117.026L203.081 119.981C203.365 120.894 203.583 121.823 203.748 122.764L208.34 123.759L208.484 127.164L203.989 128.528C203.9 129.574 203.736 130.611 203.499 131.637L207.34 134.337L206.15 137.527L201.478 137.04C201.034 137.877 200.533 138.689 199.977 139.48L202.564 143.457L200.254 145.962L196.067 143.718C195.251 144.404 194.398 145.019 193.508 145.569L194.321 150.185L191.215 151.593L188.251 147.954C187.334 148.235 186.405 148.456 185.463 148.614L184.474 153.199L181.063 153.337L179.687 148.851C178.639 148.758 177.6 148.592 176.569 148.352ZM201.553 132.45C204.805 121.481 198.525 109.945 187.526 106.684C176.529 103.425 164.976 109.675 161.724 120.644C158.473 131.615 164.754 143.152 175.751 146.411C186.75 149.672 198.301 143.422 201.553 132.45Z" fill="white"/>
<path d="M200.653 132.184C203.752 121.728 197.745 110.694 187.261 107.586C176.779 104.479 165.727 110.457 162.628 120.913C159.528 131.37 165.537 142.406 176.019 145.513C186.503 148.621 197.553 142.642 200.653 132.184ZM164.815 121.561C167.557 112.307 177.337 107.016 186.614 109.766C195.893 112.516 201.209 122.283 198.466 131.536C195.723 140.791 185.943 146.083 176.665 143.333C167.388 140.583 162.071 130.817 164.815 121.561Z" fill="white"/>
<path d="M264.334 68.5994L264.838 67.502C265.638 65.7619 265.139 63.6465 263.554 62.5663C261.508 61.1702 258.776 61.9935 257.787 64.1408L257.338 65.1193C256.717 66.4689 255.041 66.9572 253.791 66.1518C253.173 65.7556 252.565 65.3471 251.968 64.9271C250.78 64.0927 250.577 62.4153 251.53 61.3238L252.333 60.4028C253.592 58.9594 253.709 56.79 252.495 55.3059C250.926 53.3942 248.069 53.415 246.515 55.1973L245.811 56.0043C244.835 57.1242 243.084 57.1228 242.11 55.9938C241.633 55.4406 241.167 54.8764 240.714 54.3067C239.812 53.1719 240.091 51.5082 241.313 50.7296L242.429 50.0182C244.238 48.8661 244.77 46.4454 243.612 44.6379C244.196 42.6694 242.016 41.0311 240.282 42.1364L237.321 44.022C236.069 44.8216 234.39 44.3279 233.774 42.9761C233.472 42.3122 233.182 41.6428 232.907 40.968C232.359 39.6255 233.097 38.1045 234.49 37.7016L235.758 37.3352C237.818 36.7384 239.014 34.5649 238.414 32.5071C237.812 30.4494 235.633 29.254 233.572 29.8506L232.537 30.151C231.109 30.5644 229.638 29.6206 229.429 28.151C229.326 27.4304 229.236 26.7053 229.162 25.9773C229.016 24.5369 230.151 23.2848 231.604 23.2907L232.937 23.2954C235.084 23.3024 236.844 21.5539 236.848 19.4128L236.846 19.4124C236.85 17.2691 235.098 15.5106 232.951 15.5036L231.878 15.5001C230.39 15.4961 229.243 14.1761 229.458 12.7066C229.563 11.9876 229.683 11.2698 229.819 10.55C230.087 9.12682 231.528 8.24757 232.92 8.66017L234.19 9.03662C236.251 9.64727 238.433 8.46633 239.042 6.41257C239.651 4.35809 238.464 2.17836 236.404 1.56793L235.377 1.26355C233.95 0.840508 233.223 -0.745763 233.844 -2.09539C234.147 -2.75987 234.464 -3.41735 234.794 -4.0641C235.449 -5.35583 237.085 -5.79389 238.303 -5.00727L239.328 -4.34717C240.938 -3.30695 243.109 -3.49548 244.403 -4.90661C246.077 -6.7252 245.645 -9.54293 243.655 -10.8283L242.748 -11.4145C241.496 -12.2218 241.247 -13.9493 242.225 -15.0702C242.706 -15.6202 243.198 -16.1598 243.699 -16.6907C244.694 -17.7403 246.386 -17.6997 247.332 -16.6041L248.204 -15.5951C249.607 -13.9711 252.085 -13.7853 253.709 -15.1847C255.335 -16.5834 255.517 -19.0545 254.115 -20.6791L253.418 -21.4853C252.443 -22.6116 252.693 -24.3393 253.947 -25.1383C254.562 -25.5294 255.185 -25.9083 255.814 -26.2753C257.067 -27.0043 258.68 -26.4909 259.278 -25.172L259.825 -23.9709C260.714 -22.0191 263.04 -21.1464 264.995 -22.0285C266.95 -22.9132 267.822 -25.2333 266.934 -27.1865L266.491 -28.1594C265.876 -29.5127 266.6 -31.0974 268.028 -31.5129C268.728 -31.7165 269.434 -31.9058 270.143 -32.0822C271.551 -32.4307 272.954 -31.4849 273.162 -30.0496L273.348 -28.7385C273.649 -26.6159 275.634 -25.1243 277.76 -25.4218C279.885 -25.7197 281.379 -27.7005 281.078 -29.8216L280.927 -30.8876C280.719 -32.3578 281.861 -33.6761 283.351 -33.6713C284.081 -33.669 284.81 -33.6522 285.542 -33.6191C286.992 -33.5559 288.074 -32.2539 287.862 -30.8215L287.671 -29.5081C287.362 -27.3877 288.846 -25.3982 290.971 -25.0849C293.097 -24.7744 295.088 -26.2531 295.398 -28.3722L295.553 -29.4297C295.766 -30.8917 297.226 -31.8418 298.647 -31.4209C298.655 -31.4184 298.666 -31.4152 298.674 -31.4127C299.38 -31.2034 300.077 -30.9814 300.768 -30.7453C302.135 -30.2781 302.792 -28.7263 302.19 -27.4163L301.638 -26.2183C300.743 -24.2717 301.606 -21.9457 303.558 -21.0497C305.509 -20.1533 307.839 -21.0129 308.734 -22.9581L309.185 -23.9362C309.805 -25.2856 311.482 -25.7738 312.733 -24.9692C313.35 -24.5732 313.958 -24.1645 314.554 -23.7463C315.742 -22.9117 315.945 -21.2338 314.993 -20.1419L314.116 -19.137C312.707 -17.5222 312.879 -15.049 314.499 -13.6409C316.12 -12.2322 318.598 -12.4008 320.009 -14.0168L320.711 -14.823C321.689 -15.943 323.44 -15.9409 324.412 -14.813C324.889 -14.2592 325.355 -13.6971 325.808 -13.1259C326.709 -11.9923 326.43 -10.3276 325.209 -9.54968L324.093 -8.83837C322.286 -7.68564 321.754 -5.26487 322.91 -3.45787C322.326 -1.48938 324.508 0.149424 326.241 -0.954759L329.201 -2.84053C330.455 -3.63974 332.133 -3.14767 332.749 -1.79514C333.051 -1.13287 333.339 -0.462466 333.616 0.212279C334.162 1.55342 333.425 3.07468 332.032 3.47899L330.872 3.81522C329.028 4.34909 327.755 6.107 327.974 8.0113C328.259 10.4656 330.676 11.9885 332.949 11.3291L333.984 11.0301C335.412 10.6148 336.883 11.5583 337.094 13.0293C337.197 13.7499 337.285 14.4745 337.359 15.2026C337.506 16.643 336.369 17.8962 334.917 17.8899L333.68 17.8859C331.786 17.8802 330.091 19.1818 329.744 21.0395C329.284 23.4976 331.184 25.6688 333.571 25.677L334.644 25.6814C336.132 25.6856 337.279 27.0061 337.063 28.4756C336.956 29.1944 336.837 29.9127 336.701 30.6316C336.434 32.0538 334.991 32.9333 333.599 32.5207L332.33 32.1444C330.271 31.534 328.088 32.7165 327.48 34.7696C326.871 36.8241 328.057 39.0034 330.116 39.6138L331.142 39.918C332.569 40.3408 333.295 41.9285 332.677 43.2788C332.373 43.9423 332.056 44.5991 331.726 45.2457C331.07 46.5388 329.435 46.9771 328.214 46.1898L327.193 45.5291C325.581 44.4899 323.412 44.6775 322.115 46.088C320.443 47.9077 320.875 50.7261 322.866 52.0101L323.772 52.5962C325.025 53.4045 325.274 55.1329 324.294 56.2518C323.814 56.8024 323.322 57.3423 322.822 57.8724C321.824 58.9231 320.134 58.8815 319.187 57.785L318.391 56.8618C317.136 55.4096 315.001 54.9824 313.358 55.9705C311.238 57.2459 310.859 60.0691 312.406 61.8611L313.102 62.6671C314.076 63.7936 313.828 65.5219 312.573 66.32C311.959 66.7114 311.335 67.0915 310.705 67.4569C309.453 68.1868 307.841 67.6736 307.24 66.3531L306.74 65.2558C305.946 63.5113 304.017 62.5004 302.163 62.9865C299.768 63.6138 298.606 66.2153 299.585 68.3678L300.028 69.3417C300.643 70.694 299.918 72.2802 298.492 72.6938C297.791 72.8978 297.087 73.0878 296.378 73.2633C294.967 73.6119 293.565 72.6656 293.359 71.2306L293.172 69.92C292.872 67.797 290.885 66.3056 288.758 66.6029C286.833 66.0324 284.964 67.6398 285.246 69.6248L285.594 72.0686C285.803 73.539 284.657 74.8572 283.169 74.8523C282.44 74.8494 281.708 74.8326 280.976 74.8011C279.527 74.7358 278.449 73.4347 278.656 72.0019L278.849 70.6881C279.189 68.3486 277.348 66.1704 274.872 66.2248C272.955 66.2676 271.383 67.7706 271.106 69.6643L270.968 70.6103C270.755 72.0735 269.293 73.0227 267.873 72.6017C267.865 72.5992 267.856 72.5965 267.845 72.5934C267.14 72.3845 266.442 72.163 265.753 71.9266C264.387 71.461 263.731 69.9094 264.334 68.5994ZM246.978 12.4719C245.093 20.8702 246.239 29.3322 249.752 36.637L260.868 30.6216C258.868 26.1753 258.171 21.1231 259.122 16.0709L246.978 12.4712L246.978 12.4719ZM248.414 7.62718L260.558 11.2269C262.514 6.4719 265.852 2.61713 269.951 -0.0207141L263.909 -11.1226C256.982 -6.91321 251.41 -0.441388 248.414 7.62718ZM268.401 -13.4513L274.464 -2.31244C278.885 -4.00982 283.825 -4.44934 288.736 -3.33092L292.321 -15.4238C284.061 -17.497 275.702 -16.6312 268.401 -13.4513ZM315.083 1.28528C311.007 -5.38268 304.827 -10.7974 297.141 -13.8662L293.538 -1.71132C297.913 0.283854 301.478 3.45523 303.967 7.29961L315.083 1.28528ZM319.647 28.7415C321.43 20.7971 320.502 12.7972 317.422 5.77364L306.268 11.8092C307.87 15.9497 308.369 20.5454 307.502 25.1417L319.647 28.7415ZM303.494 26.5896C306.79 15.4687 300.426 3.7797 289.279 0.47559C278.135 -2.82748 266.428 3.50487 263.132 14.6258C259.837 25.7432 266.201 37.4359 277.344 40.739C288.491 44.0431 300.199 37.707 303.494 26.5896ZM318.211 33.5862L306.066 29.9865C304.288 34.3143 301.366 37.8941 297.766 40.4929L303.829 51.6331C310.239 47.4216 315.377 41.2192 318.211 33.5862ZM299.423 54.1208L293.38 43.0194C289.198 44.8874 284.48 45.6035 279.726 44.8905L276.122 57.0475C284.239 58.662 292.372 57.4898 299.423 54.1208ZM274.816 43.6337C270.089 41.8945 266.186 38.8345 263.404 35.0028L252.25 41.037C256.638 47.6824 263.176 52.9646 271.231 55.7265L274.816 43.6337Z" fill="white"/>
<path d="M139.462 28.6197L139.605 28.3093C139.832 27.8167 139.69 27.2189 139.242 26.9127C138.663 26.5182 137.889 26.7512 137.61 27.3583L137.483 27.6349C137.307 28.016 136.833 28.1547 136.479 27.9271C136.305 27.8148 136.133 27.6994 135.964 27.5804C135.628 27.3442 135.57 26.8694 135.84 26.5607L136.067 26.3C136.423 25.8917 136.456 25.2782 136.113 24.8583C135.669 24.3166 134.861 24.3231 134.421 24.8275L134.221 25.0559C133.946 25.3728 133.45 25.3716 133.174 25.0529C133.04 24.8958 132.908 24.7362 132.779 24.5747C132.524 24.2537 132.603 23.7833 132.949 23.5631L133.264 23.3622C133.776 23.0362 133.927 22.351 133.599 21.8399C133.764 21.2831 133.147 20.8196 132.656 21.1319L131.819 21.6657C131.464 21.8918 130.99 21.752 130.816 21.3699C130.73 21.182 130.648 20.9929 130.57 20.8011C130.415 20.4209 130.624 19.9906 131.018 19.8766L131.377 19.7736C131.96 19.6052 132.298 18.9893 132.128 18.4077C131.958 17.8252 131.341 17.4875 130.759 17.656L130.465 17.7414C130.062 17.858 129.645 17.5913 129.585 17.1756C129.556 16.9714 129.531 16.7669 129.51 16.5606C129.469 16.1536 129.79 15.7988 130.201 15.8008L130.578 15.8014C131.185 15.8035 131.683 15.3086 131.684 14.7034L131.684 14.7032C131.685 14.097 131.189 13.599 130.582 13.5975L130.279 13.5958C129.858 13.5953 129.533 13.2216 129.594 12.8057C129.624 12.6029 129.658 12.3991 129.696 12.1957C129.772 11.7934 130.18 11.544 130.574 11.6608L130.933 11.7674C131.516 11.9401 132.133 11.6063 132.306 11.0249C132.478 10.4434 132.142 9.8263 131.56 9.65374L131.269 9.56768C130.865 9.44797 130.66 8.99901 130.836 8.61724C130.921 8.42946 131.011 8.24364 131.104 8.06049C131.29 7.69537 131.753 7.5719 132.097 7.79361L132.388 7.98084C132.843 8.27463 133.457 8.22192 133.824 7.82234C134.297 7.30799 134.175 6.51039 133.612 6.14718L133.356 5.98157C133.002 5.75321 132.931 5.26389 133.208 4.94713C133.344 4.79206 133.483 4.63924 133.625 4.48887C133.906 4.19195 134.385 4.20354 134.653 4.51386L134.9 4.79931C135.297 5.25883 135.999 5.3113 136.458 4.91536C136.918 4.51962 136.97 3.82037 136.573 3.36086L136.375 3.13211C136.1 2.81364 136.17 2.32449 136.525 2.09928C136.699 1.98831 136.875 1.88099 137.053 1.77733C137.408 1.5712 137.864 1.71635 138.033 2.08931L138.188 2.42951C138.439 2.98089 139.097 3.22811 139.65 2.9788C140.203 2.72879 140.451 2.07134 140.199 1.51925L140.074 1.24366C139.9 0.860155 140.105 0.412532 140.509 0.294534C140.707 0.237414 140.907 0.183249 141.107 0.133725C141.506 0.0349649 141.903 0.303036 141.961 0.708822L142.013 1.07942C142.098 1.67965 142.66 2.10222 143.262 2.01758C143.863 1.93343 144.285 1.37334 144.2 0.773106L144.158 0.471476C144.099 0.0554828 144.423 -0.317973 144.844 -0.316546C145.051 -0.315819 145.257 -0.310656 145.463 -0.30155C145.874 -0.28347 146.179 0.0846736 146.12 0.489508L146.066 0.861383C145.978 1.46113 146.398 2.02407 147 2.1127C147.601 2.20042 148.164 1.78237 148.251 1.18263L148.295 0.883459C148.355 0.46975 148.768 0.201188 149.17 0.320263C149.172 0.320889 149.175 0.321725 149.178 0.322561C149.377 0.38168 149.575 0.444818 149.77 0.511272C150.157 0.643423 150.343 1.08258 150.173 1.45321L150.016 1.79246C149.763 2.34312 150.008 3.00127 150.559 3.25531C151.112 3.50865 151.771 3.26554 152.024 2.71489L152.151 2.43825C152.326 2.05627 152.801 1.91868 153.155 2.14634C153.33 2.25863 153.502 2.37402 153.67 2.49302C154.007 2.72918 154.064 3.20384 153.795 3.5129L153.547 3.79733C153.149 4.25355 153.197 4.95338 153.656 5.35222C154.114 5.75105 154.815 5.70354 155.214 5.24612L155.413 5.01826C155.69 4.701 156.185 4.70204 156.46 5.02121C156.595 5.17764 156.727 5.33717 156.855 5.49848C157.11 5.81947 157.031 6.29056 156.685 6.51011L156.369 6.71166C155.858 7.03772 155.707 7.72289 156.034 8.23382C155.869 8.7913 156.486 9.2541 156.976 8.94247L157.814 8.40867C158.168 8.18184 158.643 8.32174 158.818 8.70475C158.903 8.8919 158.984 9.08151 159.063 9.27213C159.218 9.65211 159.01 10.0826 158.615 10.1966L158.287 10.2916C157.766 10.4424 157.405 10.9397 157.467 11.4786C157.548 12.1734 158.232 12.6037 158.875 12.4172L159.168 12.3322C159.572 12.2151 159.988 12.4819 160.048 12.8974C160.077 13.1015 160.102 13.3068 160.123 13.5124C160.164 13.9194 159.843 14.2742 159.432 14.2729L159.082 14.2719C158.546 14.2701 158.066 14.6386 157.968 15.1638C157.838 15.859 158.376 16.4737 159.051 16.4762L159.354 16.4779C159.776 16.4786 160.099 16.8529 160.039 17.2689C160.008 17.4713 159.975 17.6753 159.936 17.8787C159.861 18.281 159.453 18.5297 159.059 18.4129L158.7 18.3063C158.117 18.1336 157.499 18.4681 157.327 19.0488C157.155 19.6302 157.49 20.2465 158.073 20.4192L158.364 20.5053C158.767 20.625 158.973 21.074 158.798 21.4559C158.712 21.6435 158.623 21.8296 158.529 22.0125C158.343 22.3776 157.88 22.5027 157.536 22.2794L157.247 22.0926C156.79 21.7986 156.177 21.8522 155.81 22.2509C155.337 22.7654 155.459 23.563 156.022 23.926L156.279 24.0918C156.633 24.3202 156.703 24.8095 156.427 25.1263C156.29 25.282 156.151 25.4349 156.01 25.5847C155.728 25.8822 155.25 25.8701 154.982 25.5598L154.756 25.2989C154.401 24.8878 153.798 24.7664 153.332 25.0463C152.733 25.4076 152.625 26.206 153.063 26.7123L153.26 26.9408C153.535 27.2593 153.465 27.7484 153.11 27.9743C152.936 28.0853 152.76 28.1926 152.581 28.2961C152.227 28.5024 151.771 28.3572 151.601 27.9848L151.46 27.6739C151.235 27.1803 150.69 26.8944 150.165 27.0325C149.488 27.2104 149.159 27.9464 149.435 28.5551L149.561 28.8306C149.735 29.2134 149.53 29.6618 149.126 29.7791C148.928 29.8367 148.728 29.8904 148.528 29.9399C148.129 30.0386 147.732 29.7706 147.674 29.3655L147.621 28.9949C147.537 28.394 146.975 27.9721 146.372 28.0565C145.828 27.8951 145.299 28.3494 145.379 28.9121L145.478 29.6037C145.537 30.0199 145.212 30.3923 144.791 30.3908C144.585 30.3903 144.379 30.3852 144.171 30.3766C143.761 30.3578 143.456 29.9898 143.514 29.5846L143.569 29.2127C143.665 28.5513 143.145 27.9347 142.443 27.9499C141.901 27.9626 141.456 28.3873 141.378 28.923L141.339 29.1911C141.279 29.6051 140.865 29.8734 140.463 29.7543C140.461 29.7537 140.458 29.7529 140.455 29.752C140.256 29.6929 140.058 29.6305 139.863 29.5635C139.478 29.43 139.292 28.9901 139.462 28.6197ZM134.552 12.7403C134.019 15.1162 134.343 17.51 135.337 19.5766L138.481 17.8749C137.915 16.617 137.718 15.1884 137.987 13.7585L134.552 12.7403ZM134.958 11.3695L138.394 12.3879C138.948 11.0424 139.892 9.9522 141.051 9.2057L139.343 6.06485C137.383 7.25572 135.806 9.08611 134.958 11.3695ZM140.614 5.40648L142.329 8.5578C143.58 8.07758 144.978 7.95364 146.367 8.26956L147.381 4.84858C145.044 4.26168 142.678 4.50655 140.614 5.40648ZM153.821 9.57506C152.668 7.68846 150.919 6.15728 148.745 5.28885L147.725 8.72745C148.963 9.29128 149.972 10.1891 150.676 11.2765L153.821 9.57506ZM155.112 17.3433C155.617 15.0963 155.354 12.8325 154.482 10.8453L151.327 12.5529C151.78 13.7246 151.922 15.0246 151.677 16.3251L155.112 17.3433ZM147.601 15.8631C148.054 14.3366 147.181 12.733 145.651 12.2794C144.121 11.8261 142.514 12.6953 142.062 14.2212C141.61 15.747 142.483 17.3515 144.013 17.8049C145.543 18.2584 147.149 17.3883 147.601 15.8631ZM154.705 18.7141L151.27 17.6957C150.767 18.9197 149.94 19.9327 148.921 20.6682L150.636 23.8193C152.449 22.6287 153.904 20.8731 154.705 18.7141ZM149.39 24.5233L147.681 21.3823C146.497 21.9109 145.162 22.1132 143.817 21.9117L142.798 25.351C145.094 25.8083 147.395 25.4768 149.39 24.5233ZM142.428 21.5565C141.09 21.0641 139.987 20.1988 139.199 19.1144L136.044 20.8218C137.285 22.7017 139.134 24.1967 141.414 24.9774L142.428 21.5565Z" fill="white"/>
<path d="M224.561 120.447L224.743 120.052C225.031 119.424 224.851 118.661 224.279 118.271C223.541 117.768 222.555 118.065 222.198 118.839L222.036 119.192C221.812 119.678 221.208 119.854 220.757 119.564C220.534 119.421 220.315 119.274 220.1 119.122C219.671 118.821 219.597 118.216 219.942 117.822L220.232 117.49C220.685 116.969 220.727 116.187 220.29 115.651C219.724 114.961 218.693 114.969 218.132 115.612L217.878 115.903C217.526 116.307 216.894 116.306 216.542 115.899C216.371 115.699 216.203 115.496 216.039 115.29C215.713 114.88 215.814 114.281 216.255 114L216.657 113.744C217.309 113.328 217.502 112.454 217.084 111.802C217.295 111.093 216.508 110.502 215.882 110.9L214.814 111.58C214.362 111.869 213.757 111.69 213.535 111.203C213.426 110.964 213.322 110.722 213.222 110.478C213.025 109.993 213.291 109.444 213.794 109.299L214.251 109.168C214.994 108.953 215.425 108.168 215.209 107.426C214.992 106.683 214.206 106.253 213.463 106.468L213.088 106.577C212.574 106.725 212.043 106.385 211.967 105.855C211.929 105.595 211.897 105.334 211.871 105.071C211.818 104.552 212.228 104.1 212.751 104.102L213.232 104.103C214.006 104.106 214.641 103.475 214.643 102.703L214.642 102.703C214.643 101.93 214.012 101.295 213.237 101.293L212.85 101.291C212.314 101.29 211.9 100.813 211.978 100.283C212.015 100.024 212.059 99.7647 212.108 99.5053C212.204 98.9923 212.724 98.6744 213.227 98.8233L213.685 98.9591C214.428 99.1794 215.215 98.7538 215.435 98.0124C215.655 97.271 215.226 96.4841 214.484 96.2641L214.114 96.1543C213.599 96.0017 213.336 95.4292 213.561 94.9424C213.67 94.703 213.784 94.4661 213.903 94.2325C214.14 93.767 214.73 93.6095 215.169 93.8922L215.54 94.131C216.121 94.5056 216.903 94.4384 217.371 93.9289C217.975 93.273 217.819 92.256 217.101 91.7929L216.774 91.5817C216.323 91.2905 216.233 90.6666 216.585 90.2627C216.759 90.065 216.936 89.8701 217.117 89.6784C217.476 89.2998 218.086 89.3146 218.429 89.7103L218.743 90.0742C219.249 90.6602 220.144 90.7271 220.73 90.2222C221.316 89.7176 221.382 88.826 220.876 88.2401L220.625 87.9484C220.274 87.5423 220.363 86.9186 220.815 86.6315C221.037 86.49 221.262 86.3531 221.489 86.2209C221.941 85.9581 222.522 86.1432 222.738 86.6187L222.935 87.0525C223.256 87.7556 224.095 88.0708 224.8 87.7529C225.506 87.4341 225.821 86.5958 225.5 85.8919L225.341 85.5405C225.119 85.0515 225.38 84.4807 225.895 84.3303C226.147 84.2574 226.402 84.1884 226.657 84.1252C227.166 83.9993 227.673 84.3411 227.746 84.8585L227.813 85.331C227.922 86.0964 228.638 86.6352 229.405 86.5273C230.171 86.42 230.71 85.7058 230.602 84.9405L230.548 84.5559C230.473 84.0254 230.885 83.5492 231.422 83.5511C231.686 83.552 231.949 83.5586 232.212 83.5702C232.735 83.5932 233.125 84.0627 233.049 84.5789L232.98 85.053C232.869 85.8178 233.404 86.5356 234.171 86.6486C234.938 86.7604 235.656 86.2274 235.767 85.4626L235.823 85.0812C235.9 84.5537 236.427 84.2112 236.939 84.3631C236.941 84.3639 236.945 84.3649 236.949 84.366C237.203 84.4414 237.455 84.5219 237.704 84.6066C238.197 84.7751 238.434 85.3351 238.217 85.8077L238.018 86.2402C237.695 86.9424 238.007 87.7816 238.71 88.1055C239.414 88.4285 240.255 88.1186 240.578 87.4164L240.74 87.0637C240.963 86.5766 241.569 86.4012 242.02 86.6915C242.243 86.8346 242.462 86.9818 242.677 87.1335C243.106 87.4346 243.179 88.0399 242.836 88.434L242.52 88.7966C242.012 89.3783 242.074 90.2707 242.658 90.7792C243.243 91.2878 244.137 91.2272 244.646 90.644L244.899 90.3534C245.253 89.9489 245.884 89.9502 246.234 90.3572C246.406 90.5566 246.574 90.7601 246.737 90.9657C247.063 91.375 246.962 91.9757 246.521 92.2557L246.118 92.5127C245.466 92.9284 245.274 93.8021 245.691 94.4535C245.48 95.1644 246.267 95.7545 246.892 95.3571L247.96 94.6765C248.412 94.3873 249.018 94.5657 249.24 95.054C249.349 95.2927 249.453 95.5344 249.554 95.7775C249.75 96.262 249.485 96.811 248.982 96.9563L248.563 97.0774C247.899 97.2697 247.44 97.9037 247.518 98.5909C247.621 99.4768 248.493 100.026 249.313 99.7877L249.687 99.6794C250.202 99.5301 250.733 99.8702 250.808 100.4C250.846 100.66 250.878 100.922 250.905 101.184C250.957 101.703 250.547 102.156 250.024 102.154L249.577 102.153C248.894 102.15 248.282 102.62 248.157 103.29C247.991 104.176 248.677 104.96 249.538 104.963L249.925 104.965C250.462 104.966 250.875 105.444 250.798 105.974C250.758 106.232 250.715 106.492 250.667 106.752C250.571 107.265 250.05 107.582 249.548 107.433L249.09 107.297C248.347 107.077 247.559 107.503 247.34 108.244C247.12 108.985 247.548 109.771 248.291 109.991L248.661 110.101C249.176 110.253 249.439 110.826 249.215 111.313C249.105 111.552 248.992 111.789 248.872 112.023C248.635 112.488 248.045 112.648 247.606 112.363L247.237 112.125C246.655 111.75 245.874 111.818 245.405 112.327C244.802 112.983 244.958 114 245.675 114.463L246.003 114.674C246.454 114.965 246.544 115.589 246.192 115.993C246.017 116.192 245.84 116.386 245.66 116.578C245.301 116.957 244.691 116.941 244.349 116.546L244.062 116.213C243.609 115.689 242.839 115.534 242.246 115.891C241.482 116.352 241.344 117.37 241.903 118.015L242.154 118.307C242.504 118.713 242.415 119.336 241.962 119.624C241.741 119.766 241.516 119.903 241.288 120.035C240.837 120.298 240.255 120.113 240.038 119.638L239.859 119.241C239.572 118.612 238.877 118.247 238.208 118.424C237.344 118.65 236.925 119.589 237.277 120.365L237.437 120.716C237.659 121.204 237.398 121.776 236.883 121.926C236.63 121.999 236.376 122.068 236.12 122.131C235.612 122.257 235.105 121.915 235.031 121.398L234.964 120.926C234.856 120.16 234.14 119.622 233.371 119.729C232.677 119.523 232.003 120.103 232.105 120.82L232.23 121.702C232.306 122.233 231.892 122.708 231.355 122.706C231.092 122.705 230.829 122.698 230.565 122.688C230.042 122.664 229.653 122.194 229.727 121.678L229.796 121.204C229.919 120.36 229.256 119.574 228.361 119.593C227.67 119.609 227.103 120.151 227.003 120.834L226.953 121.176C226.877 121.704 226.349 122.046 225.837 121.894C225.834 121.893 225.83 121.892 225.827 121.891C225.573 121.816 225.32 121.736 225.072 121.651C224.58 121.481 224.343 120.92 224.561 120.447ZM218.299 100.2C217.619 103.229 218.032 106.281 219.3 108.917L223.309 106.747C222.588 105.143 222.336 103.321 222.679 101.498L218.299 100.2ZM218.817 98.4518L223.198 99.7504C223.904 98.0347 225.108 96.6446 226.587 95.6928L224.408 91.6879C221.909 93.2064 219.898 95.5403 218.817 98.4518ZM226.028 90.8484L228.216 94.8667C229.811 94.2543 231.593 94.0963 233.364 94.4991L234.657 90.1371C231.678 89.3887 228.661 89.7009 226.028 90.8484ZM242.869 96.1638C241.399 93.7582 239.169 91.8058 236.396 90.6985L235.097 95.083C236.675 95.8019 237.961 96.9467 238.859 98.3332L242.869 96.1638ZM244.515 106.069C245.159 103.204 244.824 100.317 243.712 97.7834L239.689 99.9608C240.267 101.455 240.448 103.112 240.135 104.771L244.515 106.069ZM234.939 104.182C235.516 102.235 234.402 100.19 232.451 99.6121C230.501 99.034 228.452 100.142 227.875 102.088C227.299 104.034 228.413 106.079 230.363 106.657C232.314 107.236 234.362 106.126 234.939 104.182ZM243.997 107.817L239.616 106.518C238.974 108.079 237.92 109.371 236.621 110.308L238.808 114.326C241.12 112.808 242.975 110.57 243.997 107.817ZM237.219 115.224L235.04 111.219C233.531 111.893 231.829 112.151 230.114 111.894L228.814 116.279C231.741 116.863 234.675 116.44 237.219 115.224ZM228.342 111.441C226.636 110.813 225.229 109.71 224.225 108.327L220.201 110.504C221.784 112.901 224.142 114.808 227.049 115.803L228.342 111.441Z" fill="white"/>
<path d="M199.598 180.639L199.733 180.345C199.948 179.878 199.813 179.311 199.388 179.021C198.84 178.647 198.107 178.868 197.842 179.443L197.721 179.705C197.554 180.067 197.105 180.198 196.77 179.982C196.604 179.876 196.441 179.766 196.281 179.654C195.962 179.43 195.908 178.98 196.164 178.687L196.379 178.44C196.717 178.053 196.748 177.471 196.423 177.073C196.002 176.56 195.236 176.566 194.818 177.044L194.629 177.26C194.368 177.561 193.898 177.56 193.637 177.258C193.509 177.109 193.384 176.957 193.262 176.804C193.02 176.5 193.095 176.054 193.423 175.845L193.722 175.655C194.207 175.346 194.35 174.696 194.039 174.212C194.196 173.684 193.611 173.245 193.146 173.541L192.352 174.047C192.016 174.261 191.566 174.129 191.401 173.766C191.32 173.588 191.242 173.409 191.168 173.227C191.021 172.867 191.219 172.459 191.593 172.351L191.933 172.253C192.485 172.093 192.806 171.51 192.645 170.958C192.484 170.406 191.899 170.086 191.347 170.246L191.069 170.327C190.686 170.437 190.292 170.184 190.235 169.79C190.207 169.597 190.183 169.403 190.163 169.207C190.124 168.821 190.429 168.485 190.818 168.487L191.176 168.488C191.751 168.49 192.223 168.021 192.225 167.447L192.224 167.447C192.225 166.872 191.755 166.4 191.179 166.398L190.892 166.397C190.493 166.396 190.185 166.042 190.243 165.648C190.271 165.456 190.304 165.262 190.34 165.07C190.411 164.688 190.798 164.452 191.172 164.563L191.512 164.664C192.065 164.827 192.65 164.511 192.813 163.96C192.977 163.409 192.658 162.824 192.106 162.66L191.831 162.578C191.448 162.465 191.253 162.039 191.42 161.677C191.501 161.499 191.586 161.323 191.675 161.15C191.851 160.803 192.289 160.686 192.616 160.897L192.891 161.074C193.323 161.353 193.905 161.303 194.253 160.924C194.702 160.436 194.586 159.68 194.052 159.336L193.809 159.179C193.473 158.962 193.407 158.499 193.669 158.198C193.798 158.051 193.93 157.906 194.064 157.764C194.331 157.482 194.785 157.493 195.039 157.788L195.273 158.058C195.649 158.494 196.314 158.544 196.75 158.168C197.186 157.793 197.235 157.13 196.859 156.695L196.671 156.478C196.411 156.176 196.477 155.712 196.813 155.499C196.978 155.393 197.145 155.292 197.314 155.193C197.65 154.998 198.082 155.136 198.243 155.489L198.389 155.812C198.628 156.334 199.251 156.569 199.776 156.332C200.3 156.095 200.534 155.472 200.296 154.949L200.178 154.688C200.013 154.324 200.207 153.9 200.59 153.788C200.777 153.734 200.967 153.682 201.157 153.635C201.535 153.542 201.911 153.796 201.966 154.181L202.016 154.532C202.097 155.101 202.629 155.501 203.199 155.421C203.769 155.341 204.17 154.81 204.089 154.242L204.049 153.956C203.993 153.561 204.3 153.207 204.699 153.209C204.895 153.209 205.091 153.214 205.286 153.223C205.675 153.24 205.965 153.589 205.909 153.973L205.857 154.325C205.774 154.894 206.172 155.427 206.743 155.511C207.312 155.595 207.846 155.198 207.929 154.63L207.97 154.346C208.028 153.954 208.419 153.699 208.8 153.812C208.802 153.813 208.805 153.814 208.807 153.814C208.997 153.87 209.184 153.93 209.369 153.993C209.736 154.119 209.912 154.535 209.751 154.886L209.602 155.208C209.363 155.73 209.594 156.354 210.117 156.595C210.641 156.835 211.266 156.604 211.505 156.082L211.626 155.82C211.792 155.458 212.242 155.327 212.578 155.543C212.743 155.65 212.906 155.759 213.066 155.872C213.385 156.096 213.439 156.546 213.185 156.839L212.949 157.108C212.572 157.541 212.618 158.204 213.052 158.582C213.487 158.96 214.151 158.915 214.53 158.482L214.718 158.266C214.981 157.965 215.45 157.966 215.711 158.269C215.838 158.417 215.964 158.568 216.085 158.721C216.327 159.025 216.252 159.472 215.924 159.68L215.625 159.871C215.14 160.18 214.997 160.83 215.307 161.314C215.15 161.842 215.735 162.281 216.2 161.986L216.994 161.48C217.33 161.265 217.78 161.397 217.946 161.76C218.027 161.938 218.104 162.118 218.179 162.298C218.325 162.658 218.128 163.067 217.754 163.175L217.442 163.265C216.949 163.408 216.607 163.879 216.666 164.39C216.742 165.048 217.39 165.456 218 165.28L218.278 165.199C218.661 165.088 219.055 165.341 219.111 165.735C219.139 165.928 219.163 166.123 219.183 166.318C219.222 166.704 218.917 167.04 218.528 167.039L218.196 167.038C217.688 167.036 217.233 167.385 217.14 167.883C217.017 168.542 217.527 169.125 218.167 169.127L218.454 169.129C218.854 169.13 219.161 169.484 219.103 169.879C219.074 170.071 219.042 170.264 219.006 170.457C218.935 170.838 218.548 171.074 218.174 170.963L217.834 170.862C217.281 170.698 216.696 171.016 216.533 171.566C216.369 172.117 216.688 172.701 217.24 172.865L217.515 172.947C217.898 173.06 218.093 173.486 217.927 173.848C217.845 174.026 217.761 174.202 217.672 174.375C217.496 174.722 217.057 174.84 216.73 174.628L216.457 174.451C216.024 174.173 215.443 174.224 215.094 174.601C214.646 175.089 214.762 175.845 215.295 176.189L215.539 176.347C215.874 176.563 215.941 177.027 215.679 177.327C215.55 177.475 215.418 177.62 215.284 177.762C215.017 178.044 214.564 178.032 214.309 177.738L214.096 177.491C213.759 177.101 213.187 176.986 212.746 177.251C212.178 177.594 212.075 178.351 212.491 178.831L212.677 179.047C212.938 179.349 212.872 179.813 212.535 180.027C212.37 180.132 212.203 180.234 212.034 180.332C211.698 180.528 211.266 180.39 211.105 180.037L210.971 179.742C210.758 179.274 210.241 179.003 209.743 179.134C209.101 179.303 208.79 180.001 209.052 180.578L209.171 180.839C209.336 181.202 209.141 181.627 208.759 181.738C208.57 181.792 208.382 181.843 208.192 181.89C207.814 181.984 207.437 181.73 207.382 181.346L207.332 180.995C207.252 180.425 206.719 180.025 206.148 180.105C205.632 179.952 205.13 180.383 205.206 180.916L205.3 181.572C205.356 181.966 205.048 182.319 204.649 182.318C204.454 182.317 204.258 182.312 204.062 182.304C203.673 182.286 203.384 181.938 203.439 181.554L203.49 181.201C203.582 180.574 203.088 179.99 202.423 180.004C201.91 180.016 201.488 180.419 201.414 180.926L201.376 181.181C201.32 181.573 200.927 181.827 200.546 181.714C200.544 181.714 200.542 181.713 200.539 181.712C200.35 181.656 200.163 181.597 199.978 181.534C199.612 181.407 199.436 180.99 199.598 180.639ZM194.943 165.586C194.437 167.838 194.744 170.107 195.687 172.066L198.667 170.453C198.131 169.261 197.944 167.907 198.199 166.551L194.943 165.586ZM195.328 164.286L198.585 165.252C199.11 163.976 200.005 162.943 201.104 162.235L199.484 159.258C197.626 160.387 196.132 162.122 195.328 164.286ZM200.689 158.634L202.315 161.621C203.501 161.166 204.826 161.048 206.143 161.348L207.104 158.105C204.889 157.549 202.646 157.781 200.689 158.634ZM213.209 162.585C212.116 160.797 210.458 159.345 208.397 158.522L207.431 161.782C208.604 162.316 209.56 163.167 210.228 164.198L213.209 162.585ZM214.433 169.949C214.911 167.819 214.662 165.673 213.836 163.789L210.845 165.408C211.275 166.519 211.409 167.751 211.176 168.984L214.433 169.949ZM207.313 168.546C207.742 167.099 206.914 165.579 205.464 165.149C204.014 164.719 202.491 165.543 202.062 166.99C201.633 168.436 202.462 169.957 203.911 170.387C205.362 170.817 206.885 169.992 207.313 168.546ZM214.047 171.249L210.79 170.283C210.314 171.444 209.53 172.404 208.564 173.101L210.19 176.088C211.909 174.96 213.287 173.295 214.047 171.249ZM209.009 176.756L207.388 173.778C206.266 174.279 205.001 174.471 203.726 174.28L202.76 177.54C204.936 177.974 207.117 177.659 209.009 176.756ZM202.409 173.943C201.141 173.476 200.095 172.656 199.348 171.628L196.357 173.247C197.534 175.029 199.287 176.446 201.448 177.186L202.409 173.943Z" fill="white"/>
<path d="M262.377 444.309C256.483 452.552 258.411 464.066 266.675 469.975C274.939 475.883 286.458 473.984 292.352 465.742C298.246 457.498 296.318 445.982 288.055 440.073C279.791 434.165 268.271 436.066 262.377 444.309ZM284.006 459.774C281.396 463.425 276.288 464.267 272.627 461.65C268.966 459.032 268.113 453.929 270.724 450.278C273.336 446.624 278.44 445.782 282.101 448.4C285.762 451.017 286.618 456.12 284.006 459.774Z" fill="white"/>
<path d="M312.525 411.607L315.976 400.28L308.628 395.759L300.082 403.952C297.896 402.968 295.631 402.119 293.291 401.412L292.238 389.468L283.735 388.045L278.895 398.998C276.204 398.898 273.541 398.991 270.921 399.261L265.337 388.799L256.957 390.789L256.725 402.636C254.464 403.495 252.268 404.497 250.146 405.632L241.026 398.023L234.018 403.021L238.273 414.101C236.334 415.903 234.515 417.844 232.839 419.912L221.491 416.44L216.987 423.773L225.205 432.328C224.228 434.511 223.382 436.773 222.678 439.11L210.732 440.133L209.324 448.627L220.302 453.489C220.207 456.177 220.303 458.839 220.581 461.457L210.122 467.008L212.134 475.391L223.992 475.647C224.859 477.91 225.866 480.107 227.005 482.229L219.411 491.326L224.431 498.339L235.511 494.114C237.316 496.056 239.265 497.878 241.337 499.557L237.89 510.887L245.238 515.406L253.78 507.215C255.969 508.196 258.235 509.047 260.574 509.756L261.625 521.697L270.13 523.121L274.971 512.165C277.66 512.266 280.323 512.176 282.943 511.904L288.527 522.367L296.908 520.377L297.138 508.528C299.4 507.67 301.596 506.667 303.719 505.535L312.839 513.143L319.846 508.143L315.59 497.063C317.53 495.262 319.348 493.321 321.025 491.254L332.373 494.727L336.878 487.393L328.66 478.838C329.636 476.654 330.483 474.393 331.188 472.059L343.135 471.034L344.54 462.537L333.565 457.678C333.661 454.989 333.562 452.328 333.283 449.707L343.743 444.156L341.732 435.775L329.873 435.517C329.008 433.256 328 431.057 326.858 428.938L334.453 419.84L329.433 412.828L318.354 417.054C316.546 415.109 314.6 413.29 312.525 411.607ZM312.418 480.956C298.441 500.505 271.221 504.993 251.623 490.98C232.024 476.967 227.468 449.759 241.445 430.209C255.423 410.66 282.644 406.17 302.242 420.183C321.84 434.196 326.396 461.406 312.418 480.956Z" fill="white"/>
<path d="M271.737 351.659L272.803 348.162L270.534 346.767L267.896 349.296C267.22 348.993 266.522 348.73 265.798 348.512L265.474 344.824L262.848 344.385L261.353 347.767C260.521 347.736 259.701 347.764 258.891 347.848L257.167 344.617L254.579 345.232L254.508 348.89C253.81 349.155 253.133 349.465 252.477 349.814L249.661 347.465L247.496 349.01L248.811 352.43C248.212 352.986 247.65 353.585 247.134 354.224L243.629 353.152L242.238 355.416L244.776 358.058C244.474 358.731 244.214 359.43 243.997 360.151L240.307 360.466L239.872 363.089L243.262 364.591C243.232 365.42 243.262 366.243 243.348 367.052L240.119 368.765L240.74 371.354L244.402 371.432C244.67 372.13 244.98 372.809 245.332 373.465L242.987 376.274L244.536 378.439L247.958 377.134C248.517 377.733 249.117 378.297 249.757 378.815L248.692 382.313L250.962 383.708L253.6 381.179C254.274 381.483 254.974 381.745 255.698 381.963L256.022 385.651L258.648 386.092L260.142 382.708C260.973 382.74 261.795 382.712 262.605 382.626L264.328 385.857L266.916 385.243L266.987 381.586C267.686 381.32 268.364 381.009 269.02 380.661L271.836 383.009L273.998 381.466L272.684 378.044C273.284 377.488 273.845 376.889 274.363 376.251L277.866 377.323L279.258 375.059L276.72 372.418C277.022 371.742 277.283 371.044 277.5 370.324L281.189 370.008L281.623 367.384L278.235 365.883C278.264 365.053 278.234 364.231 278.148 363.423L281.378 361.708L280.756 359.121L277.094 359.041C276.827 358.344 276.517 357.664 276.163 357.01L278.508 354.201L276.959 352.035L273.538 353.34C272.979 352.74 272.379 352.179 271.737 351.659ZM265.959 368.963C263.906 371.834 259.908 372.494 257.03 370.436C254.153 368.378 253.484 364.382 255.537 361.511C257.589 358.641 261.587 357.981 264.464 360.038C267.342 362.097 268.01 366.093 265.959 368.963Z" fill="white"/>
<path d="M181.544 245.755C184.09 253.301 192.317 257.363 199.882 254.81C207.446 252.258 211.53 244.041 208.984 236.495C206.437 228.949 198.209 224.885 190.645 227.438C183.08 229.991 178.997 238.209 181.544 245.755ZM201.344 239.074C202.471 242.416 200.661 246.059 197.31 247.19C193.958 248.321 190.313 246.519 189.185 243.177C188.057 239.832 189.865 236.191 193.217 235.06C196.568 233.929 200.215 235.729 201.344 239.074Z" fill="white"/>
<path d="M183.742 198.755L178.107 191.349L171.847 193.956L173.142 203.169C171.511 204.111 169.929 205.165 168.402 206.331L160.304 201.513L155.489 206.28L160.248 214.4C158.946 216.069 157.783 217.81 156.75 219.604L147.514 218.355L144.931 224.613L152.378 230.205C151.886 232.042 151.516 233.902 151.264 235.777L142.221 238.094L142.187 244.859L151.207 247.238C151.464 249.303 151.866 251.354 152.414 253.373L144.985 259.012L147.59 265.253L156.821 263.946C157.764 265.572 158.817 267.151 159.983 268.674L155.145 276.76L159.913 281.562L168.058 276.797C169.728 278.093 171.469 279.255 173.266 280.282L171.999 289.5L178.267 292.071L183.88 284.628C185.721 285.115 187.584 285.483 189.461 285.733L191.77 294.754L198.549 294.777L200.947 285.772C203.015 285.513 205.072 285.109 207.095 284.559L212.734 291.964L218.992 289.356L217.695 280.146C219.327 279.201 220.911 278.148 222.438 276.982L230.534 281.8L235.35 277.033L230.59 268.911C231.89 267.243 233.057 265.504 234.088 263.709L243.324 264.958L245.908 258.7L238.46 253.108C238.952 251.271 239.322 249.411 239.576 247.537L248.618 245.219L248.65 238.454L239.63 236.075C239.374 234.011 238.972 231.959 238.425 229.94L245.854 224.301L243.25 218.059L234.018 219.367C233.075 217.741 232.022 216.162 230.858 214.639L235.696 206.552L230.924 201.751L222.782 206.515C221.113 205.218 219.371 204.058 217.571 203.031L218.839 193.812L212.572 191.242L206.957 198.684C205.119 198.196 203.254 197.828 201.378 197.582L199.068 188.559L192.291 188.537L189.893 197.542C187.822 197.801 185.768 198.205 183.742 198.755ZM227.904 230.694C233.943 248.59 224.295 268.006 206.354 274.06C188.413 280.114 168.973 270.514 162.934 252.619C156.895 234.723 166.543 215.306 184.484 209.252C202.424 203.197 221.865 212.799 227.904 230.694Z" fill="white"/>
<path d="M241.805 287.416L238.678 283.306L235.206 284.752L235.925 289.864C235.02 290.386 234.142 290.969 233.294 291.616L228.804 288.944L226.131 291.591L228.772 296.094C228.048 297.021 227.404 297.987 226.832 298.981L221.708 298.29L220.274 301.759L224.405 304.861C224.131 305.881 223.926 306.914 223.788 307.955L218.77 309.24L218.752 312.995L223.755 314.312C223.9 315.458 224.119 316.596 224.424 317.715L220.304 320.845L221.749 324.307L226.869 323.582C227.394 324.484 227.977 325.359 228.625 326.205L225.941 330.69L228.585 333.354L233.105 330.711C234.03 331.433 234.998 332.074 235.993 332.643L235.288 337.758L238.768 339.186L241.881 335.056C242.903 335.324 243.936 335.531 244.977 335.667L246.259 340.673L250.017 340.684L251.351 335.69C252.496 335.548 253.637 335.322 254.759 335.016L257.89 339.123L261.362 337.677L260.642 332.566C261.547 332.043 262.425 331.459 263.271 330.811L267.766 333.485L270.436 330.84L267.795 326.335C268.517 325.41 269.164 324.443 269.736 323.448L274.859 324.141L276.295 320.67L272.161 317.567C272.435 316.549 272.638 315.518 272.781 314.475L277.796 313.19L277.815 309.436L272.811 308.119C272.67 306.971 272.446 305.834 272.143 304.715L276.263 301.585L274.821 298.122L269.697 298.849C269.174 297.946 268.589 297.072 267.944 296.225L270.628 291.74L267.981 289.077L263.464 291.719C262.537 290.998 261.572 290.356 260.571 289.786L261.276 284.669L257.798 283.247L254.683 287.375C253.662 287.103 252.629 286.899 251.587 286.764L250.309 281.756L246.547 281.744L245.218 286.74C244.068 286.883 242.93 287.109 241.805 287.416ZM269.968 303.898C273.999 315.843 267.558 328.802 255.582 332.844C243.607 336.885 230.63 330.477 226.599 318.533C222.568 306.587 229.01 293.627 240.984 289.586C252.959 285.545 265.936 291.951 269.968 303.898Z" fill="white"/>
<path d="M268.984 304.231C272.826 315.616 266.666 328.012 255.25 331.865C243.837 335.716 231.422 329.589 227.58 318.203C223.738 306.816 229.9 294.419 241.314 290.567C252.73 286.715 265.142 292.844 268.984 304.231ZM229.961 317.4C233.361 327.475 244.347 332.9 254.449 329.491C264.551 326.082 270.003 315.11 266.603 305.034C263.202 294.957 252.217 289.531 242.114 292.941C232.013 296.351 226.561 307.323 229.961 317.4Z" fill="white"/>
<path d="M258.576 113.823L259.12 114.9C259.985 116.61 259.565 118.742 258.021 119.881C256.029 121.352 253.268 120.631 252.199 118.522L251.713 117.561C251.043 116.236 249.35 115.81 248.13 116.662C247.528 117.081 246.936 117.512 246.355 117.954C245.199 118.832 245.058 120.515 246.051 121.571L246.889 122.461C248.2 123.857 248.399 126.02 247.24 127.548C245.744 129.517 242.887 129.603 241.269 127.88L240.534 127.1C239.517 126.017 237.768 126.084 236.837 127.248C236.38 127.819 235.936 128.4 235.505 128.986C234.645 130.154 234.987 131.806 236.237 132.539L237.378 133.208C239.229 134.292 239.851 136.691 238.762 138.54C239.418 140.486 237.301 142.204 235.527 141.164L232.498 139.39C231.216 138.638 229.558 139.194 228.992 140.568C228.715 141.242 228.45 141.922 228.201 142.607C227.703 143.969 228.497 145.461 229.904 145.812L231.185 146.131C233.266 146.65 234.542 148.778 234.019 150.856C233.494 152.935 231.362 154.211 229.28 153.692L228.234 153.43C226.792 153.07 225.357 154.068 225.203 155.545C225.127 156.269 225.064 156.996 225.017 157.727C224.925 159.172 226.106 160.38 227.558 160.32L228.889 160.266C231.035 160.179 232.859 161.861 232.942 164L232.941 164.001C233.025 166.142 231.339 167.965 229.194 168.052L228.122 168.095C226.636 168.155 225.538 169.517 225.808 170.977C225.939 171.692 226.087 172.405 226.249 173.119C226.57 174.531 228.043 175.356 229.419 174.892L230.674 174.468C232.71 173.781 234.935 174.88 235.62 176.909C236.305 178.94 235.2 181.162 233.165 181.849L232.15 182.191C230.74 182.667 230.073 184.28 230.742 185.605C231.071 186.258 231.412 186.903 231.765 187.537C232.468 188.804 234.12 189.18 235.308 188.349L236.307 187.651C237.877 186.551 240.053 186.659 241.4 188.021C243.14 189.776 242.813 192.608 240.872 193.966L239.988 194.586C238.767 195.439 238.583 197.175 239.602 198.259C240.103 198.79 240.615 199.311 241.135 199.823C242.169 200.835 243.858 200.731 244.763 199.601L245.596 198.56C246.937 196.885 249.408 196.607 251.083 197.945C252.76 199.282 253.033 201.744 251.693 203.42L251.026 204.252C250.094 205.414 250.408 207.131 251.691 207.882C252.321 208.25 252.957 208.606 253.6 208.949C254.879 209.631 256.471 209.058 257.02 207.717L257.522 206.497C258.337 204.513 260.629 203.554 262.615 204.363C264.603 205.174 265.56 207.46 264.745 209.445L264.34 210.434C263.775 211.809 264.558 213.366 266 213.728C266.707 213.905 267.42 214.068 268.135 214.218C269.555 214.513 270.922 213.516 271.076 212.074L271.213 210.757C271.435 208.624 273.363 207.06 275.499 207.278C277.633 207.496 279.2 209.42 278.978 211.551L278.867 212.622C278.713 214.099 279.904 215.373 281.393 215.313C282.122 215.283 282.85 215.239 283.581 215.179C285.027 215.062 286.059 213.72 285.795 212.297L285.554 210.992C285.167 208.884 286.576 206.841 288.688 206.448C290.801 206.059 292.845 207.462 293.234 209.568L293.428 210.619C293.695 212.072 295.191 212.967 296.594 212.494C296.602 212.491 296.613 212.487 296.621 212.485C297.319 212.249 298.007 212.001 298.689 211.739C300.037 211.222 300.636 209.646 299.986 208.36L299.389 207.183C298.422 205.271 299.198 202.915 301.115 201.947C303.031 200.978 305.392 201.75 306.359 203.661L306.846 204.621C307.516 205.947 309.21 206.372 310.43 205.521C311.032 205.102 311.624 204.671 312.204 204.231C313.361 203.353 313.501 201.669 312.509 200.613L311.595 199.641C310.126 198.08 310.206 195.602 311.773 194.135C313.34 192.667 315.822 192.743 317.292 194.305L318.024 195.085C319.043 196.167 320.792 196.1 321.723 194.936C322.179 194.365 322.623 193.786 323.054 193.199C323.913 192.032 323.572 190.379 322.322 189.647L321.181 188.978C319.332 187.893 318.71 185.494 319.798 183.645C319.141 181.7 321.26 179.981 323.033 181.02L326.061 182.794C327.344 183.546 329.003 182.991 329.567 181.617C329.845 180.944 330.108 180.263 330.359 179.578C330.855 178.218 330.062 176.725 328.654 176.373L327.483 176.08C325.621 175.616 324.283 173.906 324.431 171.995C324.624 169.532 326.982 167.92 329.278 168.494L330.323 168.754C331.767 169.116 333.201 168.118 333.357 166.641C333.433 165.917 333.494 165.189 333.541 164.459C333.634 163.014 332.451 161.804 331.001 161.865L329.765 161.915C327.872 161.991 326.129 160.754 325.713 158.91C325.162 156.471 326.98 154.23 329.365 154.133L330.437 154.089C331.924 154.029 333.02 152.667 332.75 151.206C332.616 150.492 332.47 149.779 332.308 149.065C331.988 147.654 330.514 146.829 329.138 147.293L327.884 147.716C325.848 148.403 323.624 147.303 322.939 145.274C322.254 143.244 323.357 141.022 325.393 140.335L326.407 139.993C327.816 139.517 328.483 137.903 327.815 136.577C327.486 135.925 327.146 135.281 326.791 134.647C326.088 133.379 324.437 133.002 323.247 133.834L322.251 134.533C320.679 135.631 318.505 135.525 317.156 134.164C315.417 132.407 315.743 129.575 317.685 128.218L318.569 127.598C319.791 126.744 319.975 125.007 318.954 123.926C318.454 123.393 317.942 122.872 317.422 122.361C316.386 121.348 314.699 121.453 313.794 122.584L313.032 123.536C311.832 125.034 309.715 125.541 308.037 124.614C305.87 123.419 305.386 120.612 306.865 118.764L307.531 117.932C308.462 116.77 308.15 115.052 306.866 114.301C306.237 113.933 305.6 113.577 304.957 113.235C303.678 112.552 302.086 113.125 301.535 114.467L301.077 115.582C300.348 117.355 298.458 118.437 296.587 118.021C294.17 117.483 292.913 114.927 293.811 112.739L294.217 111.75C294.781 110.375 293.998 108.817 292.556 108.457C291.849 108.279 291.138 108.116 290.423 107.967C289 107.671 287.634 108.669 287.482 110.111L287.344 111.427C287.123 113.56 285.193 115.125 283.057 114.907C281.155 115.549 279.227 114.012 279.435 112.018L279.691 109.563C279.845 108.086 278.651 106.811 277.164 106.872C276.436 106.902 275.705 106.946 274.975 107.005C273.529 107.124 272.5 108.464 272.761 109.888L273.002 111.194C273.43 113.519 271.671 115.765 269.195 115.803C267.277 115.831 265.65 114.388 265.303 112.506L265.13 111.566C264.862 110.112 263.366 109.217 261.963 109.691C261.954 109.694 261.945 109.697 261.935 109.701C261.238 109.936 260.549 110.183 259.87 110.445C258.522 110.961 257.923 112.536 258.576 113.823ZM243.324 170.558C241.128 162.236 241.957 153.737 245.196 146.307L256.528 151.903C254.695 156.421 254.188 161.496 255.326 166.509L243.324 170.559L243.324 170.558ZM244.94 175.346L256.942 171.296C259.074 175.975 262.553 179.702 266.747 182.186L261.123 193.505C254.044 189.557 248.235 183.297 244.94 175.346ZM265.7 195.665L271.343 184.307C275.824 185.839 280.777 186.094 285.643 184.793L289.676 196.744C281.5 199.123 273.114 198.57 265.7 195.665ZM311.8 179.197C307.975 186.013 302.001 191.654 294.435 195.007L290.381 182.995C294.679 180.838 298.123 177.536 300.467 173.602L311.8 179.197ZM315.336 151.59C317.414 159.462 316.785 167.491 313.969 174.625L302.598 169.009C304.045 164.812 304.372 160.201 303.334 155.64L315.336 151.59ZM299.275 154.343C302.984 165.333 297.059 177.251 286.043 180.969C275.031 184.685 263.096 178.794 259.387 167.803C255.679 156.817 261.603 144.895 272.616 141.178C283.632 137.461 295.567 143.356 299.275 154.343ZM313.72 146.802L301.719 150.852C299.78 146.594 296.726 143.125 293.032 140.663L298.675 129.304C305.238 133.274 310.604 139.28 313.72 146.802ZM294.179 126.983L288.555 138.302C284.306 136.591 279.565 136.051 274.841 136.941L270.786 124.927C278.837 123.011 287.008 123.879 294.179 126.983ZM269.981 138.38C265.322 140.294 261.536 143.498 258.899 147.431L247.528 141.817C251.665 135.012 258.001 129.49 265.948 126.429L269.981 138.38Z" fill="white"/>
<path d="M277.844 225.269C277.012 225.59 276.641 226.568 277.048 227.369L277.387 228.038C277.924 229.102 277.666 230.421 276.712 231.129C275.483 232.036 273.781 231.585 273.119 230.276L272.816 229.676C272.402 228.858 271.356 228.586 270.602 229.113C270.235 229.374 269.866 229.645 269.505 229.913C268.797 230.459 268.714 231.505 269.325 232.16L269.845 232.712C270.656 233.582 270.78 234.928 270.067 235.87C269.148 237.093 267.384 237.14 266.387 236.071L265.93 235.588C265.297 234.91 264.22 234.951 263.649 235.671C263.369 236.024 263.092 236.384 262.829 236.75C262.295 237.468 262.51 238.495 263.285 238.953L263.987 239.372C265.134 240.045 265.521 241.536 264.849 242.685C265.255 243.888 263.953 244.952 262.859 244.306L260.986 243.203C260.194 242.734 259.166 243.078 258.822 243.926C258.65 244.344 258.49 244.767 258.335 245.194C258.031 246.04 258.525 246.964 259.394 247.188L260.185 247.385C261.467 247.712 262.259 249.036 261.939 250.32C261.614 251.618 260.301 252.402 259.017 252.074L258.371 251.912C257.479 251.688 256.594 252.304 256.503 253.223C256.454 253.672 256.424 254.119 256.387 254.57C256.334 255.471 257.068 256.224 257.961 256.193L258.78 256.157C260.105 256.107 261.237 257.149 261.291 258.482C261.342 259.812 260.307 260.936 258.981 260.991L258.324 261.018C257.403 261.055 256.73 261.898 256.895 262.807C256.981 263.246 257.072 263.687 257.176 264.134C257.375 265.004 258.281 265.525 259.133 265.237L259.9 264.978C261.162 264.553 262.533 265.234 262.96 266.5C263.387 267.765 262.71 269.141 261.449 269.567L260.829 269.776C259.963 270.068 259.55 271.069 259.96 271.89C260.164 272.297 260.379 272.695 260.599 273.09C261.03 273.876 262.053 274.114 262.79 273.596L263.401 273.165C264.366 272.487 265.717 272.559 266.543 273.399C267.624 274.493 267.425 276.252 266.23 277.095L265.684 277.478C264.928 278.006 264.823 279.082 265.448 279.754C265.761 280.087 266.077 280.411 266.4 280.727C267.038 281.357 268.076 281.298 268.638 280.597L269.152 279.954C269.975 278.917 271.502 278.747 272.535 279.576C273.574 280.41 273.747 281.943 272.919 282.974L272.514 283.494C271.935 284.215 272.135 285.281 272.923 285.751C273.314 285.976 273.705 286.2 274.106 286.415C274.892 286.838 275.876 286.486 276.218 285.649L276.522 284.894C277.025 283.665 278.435 283.072 279.665 283.576C280.889 284.085 281.488 285.505 280.984 286.733L280.735 287.346C280.387 288.201 280.874 289.166 281.766 289.397C282.204 289.51 282.644 289.608 283.086 289.703C283.962 289.886 284.804 289.271 284.897 288.379L284.975 287.555C285.117 286.234 286.302 285.27 287.622 285.406C288.943 285.545 289.908 286.74 289.772 288.062L289.706 288.722C289.615 289.644 290.351 290.432 291.273 290.401C291.722 290.38 292.168 290.355 292.622 290.321C293.513 290.247 294.15 289.416 293.988 288.535L293.834 287.724C293.591 286.417 294.459 285.147 295.759 284.904C297.066 284.669 298.334 285.542 298.573 286.847L298.694 287.503C298.864 288.404 299.782 288.963 300.651 288.67C300.656 288.668 300.664 288.666 300.667 288.665C301.094 288.52 301.524 288.369 301.941 288.207C302.776 287.882 303.145 286.906 302.74 286.105L302.369 285.38C301.771 284.187 302.25 282.728 303.429 282.13C304.615 281.529 306.064 282.012 306.667 283.203L306.972 283.795C307.38 284.621 308.435 284.886 309.183 284.362C309.555 284.098 309.919 283.839 310.274 283.56C310.99 283.018 311.075 281.97 310.462 281.318L309.895 280.709C308.985 279.743 309.035 278.201 309.995 277.292C310.959 276.385 312.494 276.433 313.402 277.407L313.857 277.888C314.487 278.566 315.566 278.525 316.14 277.803C316.423 277.447 316.692 277.093 316.963 276.727C317.49 276.003 317.275 274.978 316.506 274.52L315.795 274.102C314.656 273.426 314.267 271.935 314.933 270.796C314.525 269.586 315.83 268.519 316.932 269.167L318.802 270.271C319.595 270.741 320.618 270.395 320.966 269.541C321.135 269.126 321.297 268.705 321.454 268.284C321.757 267.435 321.264 266.508 320.394 266.287L319.669 266.104C318.523 265.815 317.694 264.75 317.784 263.564C317.898 262.038 319.351 261.038 320.766 261.401L321.414 261.563C322.302 261.791 323.195 261.169 323.282 260.252C323.331 259.803 323.367 259.349 323.392 258.9C323.453 257.999 322.718 257.252 321.821 257.285L321.057 257.318C319.892 257.361 318.815 256.591 318.553 255.441C318.211 253.929 319.329 252.543 320.802 252.487L321.461 252.457C322.383 252.424 323.056 251.583 322.884 250.673C322.804 250.229 322.715 249.782 322.613 249.344C322.414 248.465 321.502 247.952 320.654 248.237L319.878 248.5C318.62 248.924 317.248 248.236 316.822 246.975C316.397 245.715 317.072 244.338 318.33 243.914L318.957 243.702C319.826 243.409 320.238 242.406 319.825 241.587C319.62 241.178 319.408 240.778 319.188 240.384C318.757 239.594 317.733 239.365 317.002 239.875L316.383 240.311C315.417 240.99 314.074 240.916 313.241 240.074C312.168 238.979 312.365 237.221 313.557 236.383L314.098 236.002C314.856 235.468 314.969 234.389 314.341 233.72C314.027 233.387 313.712 233.068 313.385 232.746C312.746 232.117 311.704 232.178 311.147 232.878L310.678 233.473C309.941 234.398 308.635 234.71 307.596 234.133C306.258 233.39 305.958 231.646 306.869 230.499L307.274 229.983C307.849 229.263 307.654 228.199 306.863 227.731C306.475 227.502 306.082 227.282 305.68 227.067C304.89 226.642 303.911 226.995 303.57 227.826L303.287 228.519C302.841 229.617 301.679 230.287 300.518 230.026C299.03 229.689 298.25 228.101 298.801 226.744L299.05 226.131C299.399 225.278 298.911 224.31 298.024 224.085C297.583 223.973 297.144 223.87 296.7 223.776C295.826 223.592 294.977 224.213 294.892 225.101L294.809 225.92C294.672 227.241 293.484 228.21 292.165 228.075C290.991 228.471 289.797 227.515 289.925 226.279L290.081 224.753C290.17 223.835 289.434 223.044 288.514 223.081C288.063 223.096 287.617 223.122 287.163 223.158C286.272 223.229 285.638 224.057 285.798 224.944L285.951 225.754C286.221 227.198 285.138 228.589 283.611 228.61C282.423 228.626 281.417 227.729 281.202 226.56L281.093 225.975C280.923 225.075 279.996 224.516 279.136 224.806C279.129 224.808 279.124 224.81 279.117 224.813C278.688 224.956 278.267 225.106 277.844 225.269ZM298.879 246.962L290.762 254.246L291.346 243.375C294.166 243.75 296.813 245.006 298.879 246.962ZM279.755 247.477L287.054 255.565L276.155 255.006C276.533 252.182 277.797 249.54 279.755 247.477ZM288.633 254.143L281.343 246.055C282.495 245.177 283.795 244.468 285.245 243.979C286.564 243.534 287.899 243.296 289.213 243.27L288.633 254.143ZM283.119 237.091C284.241 236.712 285.467 237.314 285.847 238.441C286.227 239.569 285.617 240.79 284.495 241.169C283.366 241.55 282.138 240.949 281.757 239.821C281.377 238.694 281.989 237.472 283.119 237.091ZM272.29 250.456C271.218 249.932 270.78 248.636 271.317 247.572C271.846 246.504 273.139 246.068 274.204 246.598C275.268 247.122 275.705 248.418 275.177 249.482C274.651 250.545 273.358 250.981 272.29 250.456ZM270.388 263.298C270.007 262.169 270.611 260.952 271.74 260.571C272.868 260.191 274.087 260.792 274.468 261.922C274.847 263.045 274.243 264.267 273.115 264.647C271.987 265.028 270.767 264.421 270.388 263.298ZM276.746 261.09C276.301 259.772 276.07 258.446 276.046 257.129L286.939 257.691L278.826 264.985C277.941 263.838 277.232 262.531 276.746 261.09ZM299.363 266.045L292.082 257.957L302.966 258.521C302.594 261.339 301.329 263.979 299.363 266.045ZM293.888 274.617C293.508 273.492 294.123 272.272 295.247 271.892C296.373 271.513 297.601 272.111 297.98 273.236C298.36 274.362 297.747 275.585 296.622 275.965C295.497 276.344 294.268 275.743 293.888 274.617ZM293.872 269.543C292.562 269.985 291.223 270.214 289.913 270.252L290.495 259.381L297.784 267.465C296.633 268.347 295.319 269.055 293.872 269.543ZM280.245 266.559L288.363 259.259L287.78 270.144C284.95 269.773 282.312 268.517 280.245 266.559ZM280.866 275.062C279.802 274.53 279.368 273.243 279.893 272.179C280.426 271.111 281.716 270.676 282.782 271.204C283.85 271.731 284.284 273.017 283.755 274.087C283.226 275.151 281.936 275.586 280.866 275.062ZM307.45 262.603C308.519 263.132 308.953 264.42 308.424 265.49C307.893 266.558 306.605 266.993 305.532 266.466C304.465 265.934 304.031 264.647 304.558 263.579C305.094 262.515 306.382 262.081 307.45 262.603ZM309.358 249.763C309.737 250.888 309.129 252.106 307.999 252.487C306.872 252.867 305.651 252.267 305.272 251.142C304.891 250.014 305.496 248.79 306.623 248.41C307.753 248.028 308.977 248.636 309.358 249.763ZM302.374 252.442C302.813 253.742 303.055 255.075 303.081 256.393L292.187 255.834L300.3 248.535C301.187 249.686 301.885 250.991 302.374 252.442ZM298.876 237.999C299.94 238.524 300.377 239.819 299.848 240.881C299.313 241.949 298.021 242.385 296.959 241.856C295.888 241.333 295.451 240.039 295.987 238.974C296.509 237.907 297.802 237.471 298.876 237.999Z" fill="white"/>
<path d="M208.394 401.615L208.589 401.191C208.898 400.518 208.705 399.701 208.092 399.283C207.302 398.744 206.245 399.062 205.863 399.892L205.689 400.27C205.449 400.791 204.802 400.98 204.318 400.669C204.08 400.516 203.844 400.358 203.614 400.195C203.154 399.873 203.075 399.224 203.445 398.802L203.755 398.446C204.241 397.888 204.287 397.05 203.818 396.476C203.212 395.736 202.107 395.745 201.506 396.434L201.233 396.746C200.856 397.179 200.179 397.177 199.802 396.742C199.619 396.527 199.438 396.309 199.263 396.089C198.914 395.65 199.022 395.007 199.494 394.707L199.925 394.432C200.624 393.987 200.83 393.05 200.383 392.352C200.608 391.591 199.765 390.958 199.095 391.385L197.951 392.114C197.466 392.423 196.818 392.232 196.58 391.71C196.463 391.453 196.351 391.195 196.245 390.933C196.033 390.413 196.318 389.825 196.857 389.67L197.347 389.529C198.143 389.299 198.605 388.457 198.373 387.663C198.141 386.867 197.298 386.405 196.502 386.636L196.101 386.752C195.55 386.912 194.981 386.547 194.899 385.979C194.859 385.7 194.825 385.421 194.796 385.139C194.74 384.583 195.179 384.098 195.74 384.101L196.255 384.102C197.085 384.105 197.765 383.428 197.767 382.601L197.766 382.601C197.767 381.773 197.09 381.092 196.26 381.09L195.846 381.088C195.271 381.087 194.828 380.577 194.911 380.009C194.951 379.731 194.998 379.453 195.05 379.175C195.153 378.625 195.711 378.285 196.249 378.444L196.741 378.59C197.537 378.826 198.38 378.37 198.616 377.575C198.851 376.781 198.392 375.938 197.597 375.702L197.2 375.584C196.648 375.421 196.367 374.807 196.607 374.286C196.724 374.029 196.847 373.775 196.974 373.525C197.228 373.026 197.86 372.858 198.331 373.161L198.728 373.416C199.35 373.818 200.189 373.746 200.69 373.2C201.337 372.497 201.17 371.407 200.4 370.911L200.051 370.685C199.567 370.373 199.471 369.704 199.848 369.271C200.035 369.059 200.224 368.851 200.418 368.645C200.803 368.24 201.457 368.255 201.823 368.679L202.16 369.069C202.702 369.697 203.662 369.769 204.289 369.228C204.918 368.687 204.988 367.732 204.446 367.104L204.176 366.791C203.8 366.356 203.896 365.688 204.381 365.38C204.619 365.229 204.859 365.082 205.102 364.94C205.587 364.659 206.21 364.857 206.441 365.367L206.652 365.832C206.996 366.585 207.895 366.923 208.651 366.582C209.407 366.24 209.744 365.342 209.401 364.588L209.23 364.211C208.992 363.687 209.272 363.076 209.824 362.914C210.094 362.836 210.367 362.762 210.641 362.695C211.186 362.56 211.729 362.926 211.808 363.481L211.88 363.987C211.996 364.807 212.763 365.384 213.585 365.269C214.406 365.154 214.984 364.388 214.868 363.568L214.81 363.156C214.73 362.588 215.171 362.078 215.747 362.08C216.029 362.081 216.311 362.088 216.593 362.1C217.154 362.125 217.571 362.628 217.49 363.181L217.416 363.689C217.297 364.508 217.87 365.278 218.692 365.399C219.514 365.519 220.283 364.947 220.402 364.128L220.462 363.719C220.544 363.154 221.109 362.787 221.658 362.95C221.661 362.95 221.664 362.952 221.668 362.953C221.941 363.034 222.211 363.12 222.478 363.211C223.006 363.391 223.26 363.991 223.028 364.498L222.814 364.961C222.468 365.713 222.802 366.613 223.556 366.96C224.31 367.306 225.211 366.974 225.557 366.221L225.731 365.843C225.97 365.322 226.619 365.134 227.103 365.445C227.341 365.598 227.576 365.756 227.807 365.918C228.266 366.241 228.344 366.889 227.977 367.312L227.638 367.7C227.094 368.324 227.16 369.28 227.786 369.825C228.413 370.37 229.37 370.305 229.916 369.68L230.187 369.369C230.566 368.935 231.243 368.936 231.618 369.373C231.802 369.586 231.983 369.804 232.157 370.025C232.506 370.463 232.398 371.107 231.926 371.407L231.494 371.682C230.795 372.128 230.589 373.064 231.036 373.762C230.81 374.524 231.653 375.156 232.323 374.73L233.468 374.001C233.952 373.691 234.601 373.882 234.839 374.405C234.956 374.661 235.067 374.92 235.175 375.181C235.386 375.7 235.102 376.288 234.563 376.444L234.114 376.574C233.402 376.78 232.91 377.459 232.994 378.195C233.105 379.145 234.039 379.733 234.918 379.478L235.318 379.362C235.87 379.202 236.439 379.566 236.52 380.134C236.56 380.413 236.594 380.693 236.623 380.974C236.679 381.53 236.24 382.015 235.679 382.013L235.2 382.012C234.468 382.009 233.813 382.513 233.679 383.23C233.501 384.18 234.235 385.02 235.158 385.024L235.572 385.026C236.148 385.027 236.591 385.538 236.508 386.107C236.466 386.383 236.42 386.662 236.368 386.94C236.265 387.49 235.707 387.829 235.169 387.67L234.678 387.524C233.882 387.288 233.038 387.745 232.803 388.539C232.567 389.333 233.026 390.175 233.822 390.411L234.219 390.529C234.771 390.692 235.052 391.306 234.812 391.827C234.695 392.084 234.573 392.338 234.445 392.588C234.191 393.087 233.559 393.258 233.088 392.953L232.693 392.697C232.07 392.296 231.232 392.369 230.73 392.914C230.084 393.617 230.251 394.706 231.019 395.202L231.37 395.429C231.854 395.741 231.95 396.41 231.572 396.842C231.386 397.055 231.196 397.264 231.003 397.469C230.618 397.875 229.965 397.859 229.598 397.435L229.29 397.078C228.805 396.516 227.981 396.351 227.345 396.733C226.526 397.227 226.378 398.318 226.977 399.009L227.246 399.322C227.622 399.757 227.526 400.425 227.041 400.734C226.803 400.885 226.563 401.032 226.319 401.173C225.835 401.455 225.212 401.257 224.979 400.748L224.787 400.323C224.48 399.649 223.734 399.258 223.017 399.447C222.091 399.69 221.643 400.695 222.02 401.527L222.192 401.904C222.429 402.427 222.149 403.039 221.598 403.199C221.326 403.278 221.054 403.352 220.781 403.419C220.236 403.554 219.693 403.188 219.614 402.634L219.542 402.128C219.426 401.307 218.658 400.731 217.835 400.846C217.091 400.625 216.368 401.246 216.478 402.015L216.613 402.96C216.693 403.529 216.25 404.037 215.675 404.035C215.393 404.035 215.111 404.028 214.828 404.016C214.268 403.99 213.851 403.487 213.93 402.934L214.004 402.426C214.136 401.522 213.425 400.68 212.467 400.7C211.726 400.718 211.119 401.298 211.012 402.03L210.957 402.396C210.876 402.962 210.31 403.328 209.761 403.166C209.759 403.165 209.755 403.164 209.751 403.163C209.478 403.082 209.208 402.996 208.942 402.905C208.415 402.723 208.161 402.121 208.394 401.615ZM201.685 379.919C200.956 383.165 201.399 386.436 202.757 389.26L207.053 386.935C206.281 385.216 206.011 383.264 206.378 381.31L201.685 379.919ZM202.24 378.046L206.934 379.438C207.691 377.599 208.981 376.11 210.565 375.09L208.231 370.799C205.553 372.426 203.398 374.926 202.24 378.046ZM209.967 369.899L212.311 374.205C214.02 373.549 215.93 373.379 217.828 373.811L219.213 369.137C216.02 368.335 212.788 368.669 209.967 369.899ZM228.012 375.595C226.437 373.017 224.048 370.925 221.076 369.738L219.684 374.436C221.375 375.207 222.753 376.434 223.715 377.919L228.012 375.595ZM229.776 386.208C230.466 383.138 230.107 380.045 228.916 377.33L224.605 379.663C225.224 381.264 225.418 383.04 225.083 384.817L229.776 386.208ZM219.514 384.186C220.133 382.1 218.94 379.909 216.849 379.29C214.759 378.67 212.564 379.858 211.946 381.943C211.328 384.027 212.522 386.22 214.611 386.839C216.702 387.459 218.897 386.27 219.514 384.186ZM229.221 388.081L224.526 386.69C223.839 388.362 222.709 389.746 221.318 390.751L223.661 395.057C226.138 393.43 228.125 391.031 229.221 388.081ZM221.958 396.018L219.623 391.727C218.006 392.449 216.182 392.726 214.344 392.45L212.952 397.149C216.088 397.774 219.232 397.321 221.958 396.018ZM212.446 391.965C210.618 391.292 209.11 390.11 208.035 388.628L203.723 390.961C205.419 393.53 207.946 395.572 211.06 396.639L212.446 391.965Z" fill="white"/>
<path d="M102.51 -42.9517L104.416 -49.2041L100.358 -51.6987L95.6419 -47.1771C94.4342 -47.7182 93.1852 -48.1886 91.8911 -48.5784L91.3123 -55.1719L86.6163 -55.9566L83.9436 -49.9106C82.4573 -49.9655 80.9898 -49.9161 79.5427 -49.7645L76.4608 -55.542L71.8331 -54.4416L71.7059 -47.9016C70.4585 -47.4287 69.2472 -46.8744 68.0751 -46.2501L63.0395 -50.4492L59.1689 -47.6877L61.5203 -41.5737C60.4489 -40.5793 59.4453 -39.5078 58.5216 -38.3665L52.2555 -40.2831L49.7677 -36.2349L54.3059 -31.5109C53.7659 -30.3082 53.301 -29.0586 52.9125 -27.7688L46.3169 -27.2049L45.5389 -22.516L51.6 -19.83C51.5454 -18.3476 51.5999 -16.8766 51.7536 -15.4313L45.9794 -12.3682L47.0904 -7.7389L53.6368 -7.60041C54.1174 -6.35087 54.6708 -5.13847 55.2999 -3.96465L51.1074 1.05703L53.8778 4.92802L59.9952 2.59433C60.994 3.66547 62.0673 4.67368 63.211 5.59998L61.3082 11.8538L65.366 14.3494L70.0818 9.82643C71.2881 10.3707 72.5398 10.8397 73.8339 11.2294L74.4125 17.822L79.1076 18.6103L81.7792 12.5601C83.2645 12.6176 84.7343 12.5673 86.1827 12.415L89.2634 18.1908L93.8902 17.094L94.0179 10.5543C95.2669 10.0792 96.4784 9.52345 97.6513 8.90047L102.686 13.0982L106.552 10.3403L104.203 4.22114C105.276 3.22846 106.278 2.15708 107.204 1.01648L113.468 2.93333L115.956 -1.11428L111.419 -5.83752C111.958 -7.04454 112.425 -8.2929 112.813 -9.58128L119.41 -10.1463L120.185 -14.8377L114.127 -17.5212C114.18 -19.0053 114.126 -20.475 113.971 -21.9195L119.746 -24.9847L118.634 -29.6104L112.087 -29.7533C111.609 -31.0003 111.056 -32.2152 110.423 -33.3853L114.616 -38.4066L111.847 -42.2798L105.729 -39.9456C104.73 -41.0182 103.657 -42.0215 102.51 -42.9517ZM92.1785 -12.0144C88.5082 -6.88115 81.3611 -5.70133 76.2149 -9.3808C71.0705 -13.0591 69.8748 -20.204 73.5451 -25.3373C77.2138 -30.4683 84.3619 -31.6482 89.5063 -27.97C94.6521 -24.2899 95.8468 -17.1448 92.1785 -12.0144Z" fill="white"/>
<path d="M102.51 -42.9517L104.416 -49.2041L100.358 -51.6987L95.6419 -47.1771C94.4342 -47.7182 93.1852 -48.1886 91.8911 -48.5784L91.3123 -55.1719L86.6163 -55.9566L83.9436 -49.9106C82.4573 -49.9655 80.9898 -49.9161 79.5427 -49.7645L76.4608 -55.542L71.8331 -54.4416L71.7059 -47.9016C70.4585 -47.4287 69.2472 -46.8744 68.0751 -46.2501L63.0395 -50.4492L59.1689 -47.6877L61.5203 -41.5737C60.4489 -40.5793 59.4453 -39.5078 58.5216 -38.3665L52.2555 -40.2831L49.7677 -36.2349L54.3059 -31.5109C53.7659 -30.3082 53.301 -29.0586 52.9125 -27.7688L46.3169 -27.2049L45.5389 -22.516L51.6 -19.83C51.5454 -18.3476 51.5999 -16.8766 51.7536 -15.4313L45.9794 -12.3682L47.0904 -7.7389L53.6368 -7.60041C54.1174 -6.35087 54.6708 -5.13847 55.2999 -3.96465L51.1074 1.05703L53.8778 4.92802L59.9952 2.59433C60.994 3.66547 62.0673 4.67368 63.211 5.59998L61.3082 11.8538L65.366 14.3494L70.0818 9.82643C71.2881 10.3707 72.5398 10.8397 73.8339 11.2294L74.4125 17.822L79.1076 18.6103L81.7792 12.5601C83.2645 12.6176 84.7343 12.5673 86.1827 12.415L89.2634 18.1908L93.8902 17.094L94.0179 10.5543C95.2669 10.0792 96.4784 9.52345 97.6513 8.90047L102.686 13.0982L106.552 10.3403L104.203 4.22114C105.276 3.22846 106.278 2.15708 107.204 1.01648L113.468 2.93333L115.956 -1.11428L111.419 -5.83752C111.958 -7.04454 112.425 -8.2929 112.813 -9.58128L119.41 -10.1463L120.185 -14.8377L114.127 -17.5212C114.18 -19.0053 114.126 -20.475 113.971 -21.9195L119.746 -24.9847L118.634 -29.6104L112.087 -29.7533C111.609 -31.0003 111.056 -32.2152 110.423 -33.3853L114.616 -38.4066L111.847 -42.2798L105.729 -39.9456C104.73 -41.0182 103.657 -42.0215 102.51 -42.9517ZM92.1785 -12.0144C88.5082 -6.88115 81.3611 -5.70133 76.2149 -9.3808C71.0705 -13.0591 69.8748 -20.204 73.5451 -25.3373C77.2138 -30.4683 84.3619 -31.6482 89.5063 -27.97C94.6521 -24.2899 95.8468 -17.1448 92.1785 -12.0144Z" fill="white"/>
<path d="M184.595 332.708C185.671 329.077 189.508 327.001 193.147 328.08C196.787 329.159 198.873 332.99 197.797 336.62C196.721 340.251 192.883 342.328 189.243 341.249C185.604 340.17 183.519 336.339 184.595 332.708ZM194.121 335.531C194.597 333.922 193.673 332.224 192.06 331.746C190.448 331.268 188.748 332.189 188.271 333.797C187.794 335.406 188.718 337.103 190.33 337.581C191.943 338.059 193.644 337.14 194.121 335.531Z" fill="white"/>
<path d="M186.473 355.006L183.927 358.626L180.906 357.499L181.358 353.097C180.567 352.679 179.796 352.205 179.049 351.678L175.286 354.111L172.914 351.931L175.031 347.987C174.383 347.217 173.799 346.411 173.277 345.577L168.91 346.333L167.572 343.406L171.011 340.615C170.746 339.75 170.536 338.873 170.384 337.987L166.045 337.046L165.909 333.831L170.153 332.54C170.238 331.554 170.393 330.572 170.617 329.603L166.987 327.054L168.114 324.042L172.525 324.5C172.944 323.71 173.417 322.941 173.944 322.197L171.501 318.439L173.682 316.073L177.636 318.193C178.407 317.547 179.214 316.964 180.049 316.444L179.284 312.085L182.218 310.752L185.017 314.19C185.883 313.926 186.762 313.718 187.651 313.565L188.587 309.238L191.808 309.106L193.108 313.343C194.095 313.43 195.08 313.584 196.052 313.811L198.6 310.192L201.62 311.32L201.168 315.72C201.96 316.14 202.73 316.613 203.477 317.14L207.239 314.706L209.613 316.886L207.494 320.83C208.142 321.6 208.727 322.405 209.249 323.24L213.616 322.483L214.954 325.411L211.514 328.2C211.781 329.063 211.989 329.941 212.142 330.828L216.481 331.769L216.617 334.984L212.372 336.275C212.286 337.26 212.132 338.243 211.908 339.211L215.538 341.759L214.412 344.772L210.002 344.314C209.582 345.104 209.11 345.873 208.584 346.617L211.026 350.375L208.844 352.741L204.89 350.62C204.12 351.267 203.313 351.848 202.476 352.369L203.242 356.726L200.31 358.058L197.509 354.622C196.644 354.886 195.764 355.094 194.876 355.243L193.939 359.573L190.718 359.704L189.419 355.467C188.431 355.388 187.447 355.232 186.473 355.006ZM206.895 339.045C209.448 330.433 204.518 321.377 195.886 318.819C187.252 316.26 178.183 321.166 175.631 329.778C173.078 338.391 178.008 347.446 186.642 350.005C195.274 352.564 204.343 347.658 206.895 339.045Z" fill="white"/>
</g>
</svg>
