<svg fill="none" height="25" viewBox="0 0 110 25" width="110" xmlns="http://www.w3.org/2000/svg"><path clip-rule="evenodd" d="m1 3c0-1.10457.89544-2 2-2h98.298c.719 0 1.383.3862 1.738 1.01144l5.964 10.48836v.0002.0001l-5.385 10.4182c-.344.6644-1.029 1.0816-1.777 1.0816h-98.838c-1.10457 0-2-.8954-2-2v-9.5z" fill="#000" fill-rule="evenodd"/><g fill="#fff"><path d="m1 12.4999h-.5zm102.615 10.4184.444.2296zm5.385-10.4182-.444-.2296zm0-.0003-.435.2472zm-5.964-10.48836.435-.24713zm-1.738-1.51144h-98.298v1h98.298zm8.137 11.7527-5.964-10.48839-.869.49427 5.963 10.48842zm-.879.0178-5.385 10.4182.888.4592 5.385-10.4182zm-6.718 11.2294h-98.838v1h98.838zm-100.338-1.5v-9.5h-1v9.5zm-.999998-18.9999-.000002 9.4999h1v-9.4999zm2.499998 20.4999c-.82842 0-1.5-.6715-1.5-1.5h-1c0 1.3807 1.11929 2.5 2.5 2.5zm100.171-.8112c-.258.4983-.772.8112-1.333.8112v1c.935 0 1.792-.5216 2.221-1.352zm5.33-10.1635c-.005-.0883.014-.1761.055-.2547l.888.4592c.041-.0786.06-.1666.055-.255zm.064.2218c-.038-.0679-.06-.1438-.064-.2218l.998-.0505c-.004-.0781-.026-.1541-.064-.222zm-105.565-12.247c-1.38071 0-2.499997 1.11929-2.499998 2.5h.999998c0-.82843.67158-1.5 1.5-1.5zm98.298 1c.539 0 1.037.28965 1.304.75858l.869-.49427c-.444-.781559-1.274-1.26431-2.173-1.26431z"/><path d="m11.433 7.887c-2.028 0-3.718 1.599-3.718 4.628 0 3.016 1.573 4.641 3.744 4.641 1.209 0 2.08-.494 2.561-1.001l-.624-.793c-.507.377-1.053.754-1.898.754-1.391 0-2.47-1.014-2.47-3.601 0-2.704 1.131-3.614 2.483-3.614.624 0 1.17.208 1.729.663l.676-.793c-.715-.572-1.352-.884-2.483-.884zm9.0814 9.113-2.379-3.666 2.106-3.185h-1.352l-1.443 2.509-1.43-2.509h-1.404l2.119 3.237-2.392 3.614h1.352l1.703-2.899 1.677 2.899zm6.2247-3.627c0-2.093-.975-3.38-2.821-3.38-1.768 0-2.847 1.521-2.847 3.653 0 2.171 1.118 3.51 3.029 3.51.949 0 1.716-.325 2.392-.858l-.52-.715c-.598.416-1.105.598-1.781.598-.988 0-1.729-.611-1.846-2.197h4.368c.013-.156.026-.377.026-.611zm-1.183-.273h-3.211c.091-1.521.689-2.158 1.599-2.158 1.079 0 1.612.741 1.612 2.08zm9.7375 3.9-.624-6.851h-1.573l-1.469 4.901-1.339-4.901h-1.547l-.611 6.851h1.157l.247-3.25c.052-.715.052-1.573.052-2.379l1.456 4.875h1.131l1.56-4.901c0 .988 0 1.664.078 2.418l.312 3.237zm6.6287-4.732c0-1.43-.754-2.275-2.405-2.275-.767 0-1.521.156-2.366.468l.299.871c.702-.234 1.339-.364 1.846-.364.949 0 1.43.364 1.43 1.352v.507h-1.053c-1.911 0-3.016.793-3.016 2.262 0 1.222.819 2.067 2.184 2.067.832 0 1.56-.312 2.041-1.027.208.676.65.949 1.339 1.027l.273-.832c-.351-.13-.572-.325-.572-.923zm-2.808 3.991c-.78 0-1.183-.429-1.183-1.235 0-.936.637-1.404 1.898-1.404h.897v1.573c-.39.715-.91 1.066-1.612 1.066zm12.7087-5.135v5.876h1.196v-6.851h-5.2v6.851h1.196v-5.876zm6.81-1.131c-.78 0-1.521.377-2.028 1.079l-.091-.923h-1.027v9.62l1.196-.143v-3.25c.442.533 1.053.78 1.794.78 1.768 0 2.691-1.508 2.691-3.588 0-2.158-.715-3.575-2.535-3.575zm-.442 6.188c-.624 0-1.157-.299-1.508-.832v-3.341c.364-.546.923-1.066 1.651-1.066 1.027 0 1.547.845 1.547 2.626 0 1.794-.598 2.613-1.69 2.613zm7.5887-6.188c-1.95 0-3.068 1.469-3.068 3.588 0 2.171 1.105 3.575 3.055 3.575 1.937 0 3.055-1.469 3.055-3.588 0-2.171-1.092-3.575-3.042-3.575zm0 .962c1.131 0 1.755.832 1.755 2.613 0 1.794-.624 2.626-1.768 2.626s-1.768-.832-1.768-2.613c0-1.794.637-2.626 1.781-2.626zm10.1918 2.418c0-2.093-.975-3.38-2.821-3.38-1.768 0-2.847 1.521-2.847 3.653 0 2.171 1.118 3.51 3.029 3.51.949 0 1.716-.325 2.392-.858l-.52-.715c-.598.416-1.105.598-1.781.598-.988 0-1.729-.611-1.846-2.197h4.368c.013-.156.026-.377.026-.611zm-1.183-.273h-3.211c.091-1.521.689-2.158 1.599-2.158 1.079 0 1.612.741 1.612 2.08zm4.656-3.107c-1.04 0-1.794.273-2.47.78l.585.715c.494-.338.988-.559 1.729-.559.754 0 1.378.234 1.378.962 0 .767-.715 1.066-1.599 1.066h-.702l-.078.936h.91c1.001 0 1.794.221 1.794 1.079 0 .962-.793 1.222-1.677 1.222-.832 0-1.391-.221-1.976-.637l-.624.741c.663.52 1.495.858 2.639.858 1.599 0 2.925-.689 2.925-2.171 0-1.001-.637-1.469-1.742-1.651.962-.26 1.378-.728 1.378-1.521 0-1.183-1.196-1.82-2.47-1.82zm10.309 6.045h-.715v-5.889h-4.29l-.182 2.548c-.195 2.678-.559 3.003-1.066 3.341h-.481v2.912h.975l.195-1.95h4.394l.195 1.95h.975zm-1.911-4.94v4.94h-3.276c.767-.546.988-1.118 1.157-3.497l.104-1.443zm8.403 1.17c0-1.43-.754-2.275-2.405-2.275-.767 0-1.521.156-2.366.468l.299.871c.702-.234 1.339-.364 1.846-.364.949 0 1.43.364 1.43 1.352v.507h-1.053c-1.911 0-3.016.793-3.016 2.262 0 1.222.819 2.067 2.184 2.067.832 0 1.56-.312 2.041-1.027.208.676.65.949 1.339 1.027l.273-.832c-.351-.13-.572-.325-.572-.923zm-2.808 3.991c-.78 0-1.183-.429-1.183-1.235 0-.936.637-1.404 1.898-1.404h.897v1.573c-.39.715-.91 1.066-1.612 1.066z"/></g></svg>