<svg width="55" height="46" viewBox="0 0 55 46" fill="none" xmlns="http://www.w3.org/2000/svg">
<mask id="mask0" mask-type="alpha" maskUnits="userSpaceOnUse" x="0" y="0" width="55" height="46">
<rect width="55" height="46" rx="2" fill="url(#paint0_linear)"/>
</mask>
<g mask="url(#mask0)">
<mask id="mask1" mask-type="alpha" maskUnits="userSpaceOnUse" x="10" y="16" width="32" height="39">
<path d="M25.7862 17.1979L31.9496 16.1182C32.399 16.0396 32.8542 16 33.3103 16H33.3209C36.0643 16 38.6633 17.3933 40.0244 19.7581C40.8954 21.2716 41.5724 23.3084 41.5724 25.9845C41.5724 28.2874 40.9664 30.5506 39.8146 32.5493L38.0511 35.6096C37.2147 37.0606 36.6928 38.6718 36.5478 40.3373C36.2122 44.1956 35.0311 47.9442 33.077 51.3167L31.903 53.343C31.603 53.8612 31.047 54.1805 30.4449 54.1805C29.5158 54.1805 28.763 53.4331 28.763 52.5107V49.3103C28.763 47.6796 28.4696 46.0618 27.8973 44.533L27.4311 43.2889C27.1675 42.5858 26.4915 42.1191 25.7363 42.1191C24.9642 42.1191 24.2771 42.6058 24.026 43.3309L23.5593 44.6784C23.0629 46.1118 22.8099 47.6176 22.8099 49.1335V52.5098C22.8099 53.4322 22.0565 54.1796 21.128 54.1796C20.5259 54.1796 19.9699 53.8602 19.6698 53.3421L18.4959 51.3157C16.5418 47.9432 15.3611 44.1946 15.025 40.3364C14.88 38.6708 14.3581 37.0597 13.5218 35.6087L11.7582 32.5484C10.6059 30.5506 10 28.2874 10 25.9845C10 23.3022 10.6799 21.2621 11.5537 19.7476C12.9158 17.3881 15.5124 16 18.2515 16H18.2621C18.7182 16 19.1734 16.0396 19.6228 16.1182L25.7862 17.1979Z" fill="url(#paint1_linear)"/>
</mask>
<g mask="url(#mask1)">
<g filter="url(#filter0_i)">
<path d="M25.7862 17.1979L31.9496 16.1182C32.399 16.0396 32.8542 16 33.3103 16H33.3209C36.0643 16 38.6633 17.3933 40.0244 19.7581C40.8954 21.2716 41.5724 23.3084 41.5724 25.9845C41.5724 28.2874 40.9664 30.5506 39.8146 32.5493L38.0511 35.6096C37.2147 37.0606 36.6928 38.6718 36.5478 40.3373C36.2122 44.1956 35.0311 47.9442 33.077 51.3167L31.903 53.343C31.603 53.8612 31.047 54.1805 30.4449 54.1805C29.5158 54.1805 28.763 53.4331 28.763 52.5107V49.3103C28.763 47.6796 28.4696 46.0618 27.8973 44.533L27.4311 43.2889C27.1675 42.5858 26.4915 42.1191 25.7363 42.1191C24.9642 42.1191 24.2771 42.6058 24.026 43.3309L23.5593 44.6784C23.0629 46.1118 22.8099 47.6176 22.8099 49.1335V52.5098C22.8099 53.4322 22.0565 54.1796 21.128 54.1796C20.5259 54.1796 19.9699 53.8602 19.6698 53.3421L18.4959 51.3157C16.5418 47.9432 15.3611 44.1946 15.025 40.3364C14.88 38.6708 14.3581 37.0597 13.5218 35.6087L11.7582 32.5484C10.6059 30.5506 10 28.2874 10 25.9845C10 23.3022 10.6799 21.2621 11.5537 19.7476C12.9158 17.3881 15.5124 16 18.2515 16H18.2621C18.7182 16 19.1734 16.0396 19.6228 16.1182L25.7862 17.1979Z" fill="white"/>
</g>
<g filter="url(#filter1_f)">
<circle cx="38.2678" cy="31.0519" r="12.115" fill="#CCC8C8" fill-opacity="0.5"/>
</g>
</g>
<circle cx="37.2571" cy="29.1767" r="10.7156" fill="#212121"/>
<path d="M36.8436 25.2969V29.3187H38.4493C39.1782 29.3187 39.7312 29.1402 40.1084 28.7834C40.4907 28.4266 40.6818 27.9322 40.6818 27.3001C40.6818 26.6732 40.4932 26.1839 40.1161 25.8321C39.7389 25.4753 39.1858 25.2969 38.4569 25.2969H36.8436ZM39.9555 33.2257H36.8436V34.8848H35.131V33.2257H33.6553V32.0482H35.131V30.7025H33.6553V29.3263H35.131V23.8519H38.9309C39.981 23.8519 40.8271 24.1755 41.4694 24.8229C42.1116 25.4651 42.4327 26.2883 42.4327 27.2925C42.4327 28.2916 42.104 29.1122 41.4464 29.7545C40.794 30.3916 39.9377 30.7102 38.8774 30.7102H36.8436V32.0482H39.9555V33.2257Z" fill="white"/>
</g>
<defs>
<filter id="filter0_i" x="10" y="16" width="31.5724" height="41.1175" filterUnits="userSpaceOnUse" color-interpolation-filters="sRGB">
<feFlood flood-opacity="0" result="BackgroundImageFix"/>
<feBlend mode="normal" in="SourceGraphic" in2="BackgroundImageFix" result="shape"/>
<feColorMatrix in="SourceAlpha" type="matrix" values="0 0 0 0 0 0 0 0 0 0 0 0 0 0 0 0 0 0 127 0" result="hardAlpha"/>
<feOffset dy="2.93697"/>
<feGaussianBlur stdDeviation="1.46848"/>
<feComposite in2="hardAlpha" operator="arithmetic" k2="-1" k3="1"/>
<feColorMatrix type="matrix" values="0 0 0 0 1 0 0 0 0 1 0 0 0 0 1 0 0 0 1 0"/>
<feBlend mode="normal" in2="shape" result="effect1_innerShadow"/>
</filter>
<filter id="filter1_f" x="18.8104" y="11.5945" width="38.9148" height="38.9148" filterUnits="userSpaceOnUse" color-interpolation-filters="sRGB">
<feFlood flood-opacity="0" result="BackgroundImageFix"/>
<feBlend mode="normal" in="SourceGraphic" in2="BackgroundImageFix" result="shape"/>
<feGaussianBlur stdDeviation="3.67121" result="effect1_foregroundBlur"/>
</filter>
<linearGradient id="paint0_linear" x1="0" y1="46" x2="55" y2="46" gradientUnits="userSpaceOnUse">
<stop stop-color="#1E8FED"/>
<stop offset="1" stop-color="#022A8A"/>
</linearGradient>
<linearGradient id="paint1_linear" x1="22.3544" y1="17.7045" x2="27.0966" y2="50.4397" gradientUnits="userSpaceOnUse">
<stop stop-color="white"/>
<stop offset="0.192708" stop-color="#F8F5F5"/>
<stop offset="0.536458" stop-color="#E4E4E4"/>
<stop offset="1" stop-color="#DADADA"/>
</linearGradient>
</defs>
</svg>
