<svg width="38" height="42" viewBox="0 0 38 42" fill="none" xmlns="http://www.w3.org/2000/svg">
<mask id="mask0" mask-type="alpha" maskUnits="userSpaceOnUse" x="0" y="0" width="38" height="42">
<rect width="38" height="42" rx="2" fill="url(#paint0_linear)"/>
</mask>
<g mask="url(#mask0)">
<mask id="mask1" mask-type="alpha" maskUnits="userSpaceOnUse" x="2" y="10" width="30" height="37">
<path d="M16.9593 11.3349L22.7998 10.3117C23.2257 10.2372 23.657 10.1997 24.0892 10.1997H24.0993C26.699 10.1997 29.1618 11.5201 30.4517 13.761C31.277 15.1952 31.9185 17.1253 31.9185 19.6612C31.9185 21.8434 31.3443 23.9881 30.2528 25.8821L28.5817 28.7821C27.7891 30.1571 27.2946 31.6839 27.1572 33.2622C26.8391 36.9183 25.7199 40.4705 23.8681 43.6664L22.7557 45.5866C22.4713 46.0776 21.9445 46.3803 21.3739 46.3803C20.4935 46.3803 19.7801 45.672 19.7801 44.7979V41.7651C19.7801 40.2198 19.5021 38.6867 18.9598 37.2381L18.518 36.0592C18.2682 35.3929 17.6276 34.9507 16.9119 34.9507C16.1803 34.9507 15.5293 35.4119 15.2913 36.0989L14.8491 37.3759C14.3786 38.7342 14.1388 40.1611 14.1388 41.5976V44.797C14.1388 45.6711 13.425 46.3793 12.5451 46.3793C11.9745 46.3793 11.4476 46.0767 11.1633 45.5857L10.0509 43.6655C8.19909 40.4696 7.0803 36.9174 6.76181 33.2613C6.62441 31.683 6.12985 30.1562 5.33727 28.7812L3.66613 25.8812C2.57418 23.9881 2 21.8434 2 19.6612C2 17.1194 2.64425 15.1861 3.47231 13.751C4.76309 11.5151 7.22362 10.1997 9.81927 10.1997H9.82928C10.2615 10.1997 10.6928 10.2372 11.1187 10.3117L16.9593 11.3349Z" fill="url(#paint1_linear)"/>
</mask>
<g mask="url(#mask1)">
<g filter="url(#filter0_i)">
<path d="M16.9593 11.3349L22.7998 10.3117C23.2257 10.2372 23.657 10.1997 24.0892 10.1997H24.0993C26.699 10.1997 29.1618 11.5201 30.4517 13.761C31.277 15.1952 31.9185 17.1253 31.9185 19.6612C31.9185 21.8434 31.3443 23.9881 30.2528 25.8821L28.5817 28.7821C27.7891 30.1571 27.2946 31.6839 27.1572 33.2622C26.8391 36.9183 25.7199 40.4705 23.8681 43.6664L22.7557 45.5866C22.4713 46.0776 21.9445 46.3803 21.3739 46.3803C20.4935 46.3803 19.7801 45.672 19.7801 44.7979V41.7651C19.7801 40.2198 19.5021 38.6867 18.9598 37.2381L18.518 36.0592C18.2682 35.3929 17.6276 34.9507 16.9119 34.9507C16.1803 34.9507 15.5293 35.4119 15.2913 36.0989L14.8491 37.3759C14.3786 38.7342 14.1388 40.1611 14.1388 41.5976V44.797C14.1388 45.6711 13.425 46.3793 12.5451 46.3793C11.9745 46.3793 11.4476 46.0767 11.1633 45.5857L10.0509 43.6655C8.19909 40.4696 7.0803 36.9174 6.76181 33.2613C6.62441 31.683 6.12985 30.1562 5.33727 28.7812L3.66613 25.8812C2.57418 23.9881 2 21.8434 2 19.6612C2 17.1194 2.64425 15.1861 3.47231 13.751C4.76309 11.5151 7.22362 10.1997 9.81927 10.1997H9.82928C10.2615 10.1997 10.6928 10.2372 11.1187 10.3117L16.9593 11.3349Z" fill="white"/>
</g>
<g filter="url(#filter1_f)">
<circle cx="28.7875" cy="24.4632" r="11.4804" fill="#CCC8C8" fill-opacity="0.5"/>
</g>
</g>
<circle cx="27.8298" cy="22.6863" r="10.1543" fill="url(#paint2_linear)"/>
<path d="M26.5901 18.9548V22.534H28.0029C28.6646 22.534 29.1694 22.3771 29.5172 22.0631C29.865 21.7443 30.0388 21.3023 30.0388 20.7372C30.0388 20.1817 29.865 19.747 29.5172 19.433C29.1694 19.1142 28.6671 18.9548 28.0101 18.9548H26.5901ZM29.4882 26.3886H26.5901V27.8811H24.7208V26.3886H23.3659V25.1713H24.7208V23.9831H23.3659V22.5485H24.7208V17.4261H28.5463C29.5558 17.4261 30.3721 17.7352 30.9952 18.3535C31.6232 18.9718 31.9371 19.7615 31.9371 20.7227C31.9371 21.6791 31.6159 22.4664 30.9735 23.0847C30.3311 23.6981 29.4954 24.0048 28.4666 24.0048H26.5901V25.1713H29.4882V26.3886Z" fill="white"/>
</g>
<defs>
<filter id="filter0_i" x="2" y="10.1997" width="29.9185" height="38.9637" filterUnits="userSpaceOnUse" color-interpolation-filters="sRGB">
<feFlood flood-opacity="0" result="BackgroundImageFix"/>
<feBlend mode="normal" in="SourceGraphic" in2="BackgroundImageFix" result="shape"/>
<feColorMatrix in="SourceAlpha" type="matrix" values="0 0 0 0 0 0 0 0 0 0 0 0 0 0 0 0 0 0 127 0" result="hardAlpha"/>
<feOffset dy="2.78312"/>
<feGaussianBlur stdDeviation="1.39156"/>
<feComposite in2="hardAlpha" operator="arithmetic" k2="-1" k3="1"/>
<feColorMatrix type="matrix" values="0 0 0 0 1 0 0 0 0 1 0 0 0 0 1 0 0 0 1 0"/>
<feBlend mode="normal" in2="shape" result="effect1_innerShadow"/>
</filter>
<filter id="filter1_f" x="10.3493" y="6.02499" width="36.8763" height="36.8763" filterUnits="userSpaceOnUse" color-interpolation-filters="sRGB">
<feFlood flood-opacity="0" result="BackgroundImageFix"/>
<feBlend mode="normal" in="SourceGraphic" in2="BackgroundImageFix" result="shape"/>
<feGaussianBlur stdDeviation="3.4789" result="effect1_foregroundBlur"/>
</filter>
<linearGradient id="paint0_linear" x1="0" y1="42" x2="38" y2="42" gradientUnits="userSpaceOnUse">
<stop stop-color="#1E8FED"/>
<stop offset="1" stop-color="#022A8A"/>
</linearGradient>
<linearGradient id="paint1_linear" x1="13.7073" y1="11.8149" x2="18.201" y2="42.8354" gradientUnits="userSpaceOnUse">
<stop stop-color="white"/>
<stop offset="0.192708" stop-color="#F8F5F5"/>
<stop offset="0.536458" stop-color="#E4E4E4"/>
<stop offset="1" stop-color="#DADADA"/>
</linearGradient>
<linearGradient id="paint2_linear" x1="27.8298" y1="12.532" x2="27.8298" y2="32.8406" gradientUnits="userSpaceOnUse">
<stop stop-color="#FFA34E"/>
<stop offset="1" stop-color="#FF7B00"/>
</linearGradient>
</defs>
</svg>
