<?xml version="1.0" encoding="UTF-8"?>
<!DOCTYPE svg PUBLIC "-//W3C//DTD SVG 1.1//EN" "http://www.w3.org/Graphics/SVG/1.1/DTD/svg11.dtd">
<!-- Creator: CorelDRAW 2018 (64-Bit) -->
<svg xmlns="http://www.w3.org/2000/svg" xml:space="preserve" width="94px" height="94px" version="1.1" style="shape-rendering:geometricPrecision; text-rendering:geometricPrecision; image-rendering:optimizeQuality; fill-rule:evenodd; clip-rule:evenodd"
viewBox="0 0 94 94"
 xmlns:xlink="http://www.w3.org/1999/xlink">
 <defs>
  <style type="text/css">
   <![CDATA[
    .fil0 {fill:#C1C1C1}
    .fil1 {fill:white}
   ]]>
  </style>
 </defs>
 <g id="Слой_x0020_1">
  <metadata id="CorelCorpID_0Corel-Layer"/>
  <g id="_2215999830000">
   <path class="fil0" d="M3.48 45.26c0,-19.7 0,-29.55 6.11,-35.66 6.12,-6.12 15.97,-6.12 35.67,-6.12l3.48 0c19.7,0 29.55,0 35.66,6.12 6.12,6.11 6.12,15.96 6.12,35.66l0 3.48c0,19.7 0,29.55 -6.12,35.66 -6.11,6.12 -15.96,6.12 -35.66,6.12l-3.48 0c-19.7,0 -29.55,0 -35.67,-6.12 -6.11,-6.11 -6.11,-15.96 -6.11,-35.66l0 -3.48z"/>
   <path class="fil1" d="M49.97 66.95c-19.64,0 -31.56,-13.63 -32.02,-36.27l9.94 0c0.31,16.63 7.88,23.68 13.68,25.13l0 -25.13 9.54 0 0 14.35c5.59,-0.62 11.45,-7.15 13.42,-14.35l9.38 0c-1.5,8.86 -7.88,15.39 -12.38,18.08 4.51,2.18 11.76,7.88 14.56,18.19l-10.32 0c-2.17,-6.89 -7.51,-12.23 -14.66,-12.96l0 12.96 -1.14 0z"/>
  </g>
 </g>
</svg>
