<svg fill="none" height="56" viewBox="0 0 56 56" width="56" xmlns="http://www.w3.org/2000/svg"><circle cx="27.6772" cy="27.6772" fill="#fff" r="27.1772" stroke="#d8d8d8"/><path d="m41.2876 19.0731c-1.0656-1.2668-3.0332-1.7835-6.7907-1.7835h-13.6398c-3.8435 0-5.8443.55-6.906 1.8987-1.0351 1.315-1.0351 3.2525-1.0351 5.9341v5.1111c0 5.195 1.2281 7.8327 7.9411 7.8327h13.6399c3.2585 0 5.0641-.456 6.2323-1.5739 1.1979-1.1464 1.709-3.0182 1.709-6.2588v-5.1111c0-2.8279-.0801-4.7769-1.1507-6.0493zm-9.4182 9.3105-6.1938 3.237c-.1384.0724-.2898.1083-.4411.1083-.1712 0-.342-.0461-.4934-.1377-.2849-.1726-.4589-.4815-.4589-.8146v-6.4534c0-.3325.1735-.6411.4579-.8139.2844-.1727.6382-.1845.9334-.0312l6.1937 3.2162c.3152.1636.5131.489.5135.8439.0004.3552-.1966.681-.5113.8454z" fill="#ea332e"/></svg>