<?xml version="1.0" encoding="UTF-8"?>
<!DOCTYPE svg PUBLIC "-//W3C//DTD SVG 1.1//EN" "http://www.w3.org/Graphics/SVG/1.1/DTD/svg11.dtd">
<!-- Creator: CorelDRAW 2018 (64-Bit) -->
<svg xmlns="http://www.w3.org/2000/svg" xml:space="preserve" width="15mm" height="15mm" version="1.1" style="shape-rendering:geometricPrecision; text-rendering:geometricPrecision; image-rendering:optimizeQuality; fill-rule:evenodd; clip-rule:evenodd"
viewBox="0 0 1500 1500"
 xmlns:xlink="http://www.w3.org/1999/xlink">
 <defs>
  <style type="text/css">
   <![CDATA[
    .str0 {stroke:#D8D8D8;stroke-width:26.46;stroke-miterlimit:22.9256}
    .fil1 {fill:#2BA4E0}
    .fil0 {fill:white}
   ]]>
  </style>
 </defs>
 <g id="Слой_x0020_1">
  <metadata id="CorelCorpID_0Corel-Layer"/>
  <circle class="fil0 str0" cx="750" cy="750" r="719.06"/>
  <path class="fil1" d="M537.39 1050.45c-0.38,-0.45 -0.37,-0.31 -0.83,-1.08 -2.07,-3.49 -2.84,-8.51 -3.98,-12.58 -0.9,-3.18 -1.48,-4.31 -2.34,-7.22l-59.73 -195.72c-0.8,-2.65 -1.35,-4.42 -2.18,-7.36 -0.79,-2.77 -1.67,-4.66 -2.28,-7.28 3.95,-0.92 8.5,-4.96 11.98,-7.13l43.47 -27.88c19.01,-11.35 37.02,-24.4 56,-35.73l31.88 -20.35c5.24,-3.48 10.63,-6.65 15.83,-10.29l7.77 -4.97c2.75,-1.64 5.65,-3.39 8.26,-5.12 2.57,-1.72 5.05,-3.23 7.76,-4.98l28.03 -17.83c7.64,-4.81 25.78,-15.9 31.82,-20.43l51.3 -32.78c2.94,-1.74 5.36,-3.26 8.23,-5.15 1.55,-1.02 2.49,-1.45 3.96,-2.4l43.81 -28.18c5.51,-3.61 10.58,-6.53 16.06,-10.05l31.85 -20.39c2.73,-1.72 5.25,-3.42 7.8,-4.94 21.7,-12.96 42.38,-27.47 64.05,-40.43 8.3,-4.96 15.84,-10.57 24.26,-15.23 2.09,-1.16 1.87,-1.41 3.82,-2.55 3.8,-2.2 9.38,-6.8 13.59,-6.8 6.94,0 12.86,4.24 10.92,10.87 -0.84,2.88 -9.42,10.39 -11.93,12.33l-37.12 34.23c-1.97,1.57 -2.58,2.04 -4.39,3.89l-12.44 11.13c-1.56,1.51 -2.54,2.77 -4.19,4.09 -3.27,2.61 -5.2,4.85 -8.47,7.45 -1.54,1.23 -2.4,2.38 -3.91,3.74l-1.38 1.17c-7.51,6.27 -14.2,13.4 -21.72,19.68l-12.33 11.24c-0.1,0.09 -0.25,0.21 -0.35,0.29 -0.03,0.03 -0.67,0.55 -0.7,0.58l-38.69 35.2c-0.56,0.5 -0.58,0.5 -1.03,0.88l-24.11 21.76c-6.84,6.99 -18.07,15.75 -25.18,22.6 -1.56,1.5 -2.53,2.77 -4.19,4.09 -3.27,2.61 -5.2,4.84 -8.47,7.45l-12.38 11.2c-1.83,1.41 -2.59,2.5 -4.27,4l-3.02 2.72c-0.1,0.09 -0.24,0.21 -0.34,0.3l-92.5 83.31c-1.55,1.54 -2.45,2.66 -4.24,4.04 -1.92,1.49 -2.38,1.94 -4.03,3.62l-14.66 13.37c-0.5,0.46 -0.45,0.4 -1.02,0.89l-26.15 23.53c-7.98,6.16 -28.99,26.67 -38.82,35.07l-3.11 2.63c-14.07,13.06 -11.38,7.7 -12.95,18.9 -2.44,17.39 -2.55,33.77 -4.93,51.13 -1.25,9.14 -1.25,19.87 -2.61,29.25 -1.78,12.31 -2.08,25.5 -3.6,35.89 -1.03,7.04 -1.88,14.7 -1.88,22.33zm-384.76 -317.24c0,12.03 2.25,20.39 10.98,28.52 2.49,2.31 6.72,4.98 10.33,6.23 2.38,0.83 4,1.09 6.46,1.82l226.37 70.48c4.58,1.38 4.13,5.8 6,11.21 0.87,2.51 1.29,3.46 2.09,6.18l19.17 57.91c0.72,2.12 1.38,4.35 2.07,6.21 7.03,18.98 12.79,38.69 19.19,57.9 4.19,12.57 7.79,25.33 12.48,37.84 4.73,12.6 8.05,25.74 12.66,38.3 0.8,2.19 1.44,4.49 2.02,6.26l14.97 44.92c5.37,16.28 8.89,33.75 28.22,39.3 17.98,5.16 30.98,0.12 43.14,-11.58 6.3,-6.06 13.04,-13.03 19.64,-18.59l18.99 -17.95c0.1,-0.09 0.24,-0.21 0.34,-0.29l2.42 -2.05c5.96,-5.48 11.42,-11.55 17.62,-16.77l34.52 -32.38c0.09,-0.09 0.23,-0.22 0.32,-0.31l18.44 -17.23c0.11,-0.08 0.25,-0.21 0.35,-0.29 0.6,-0.5 0.73,-0.6 1.37,-1.18 1.65,-1.53 2.86,-2.85 4.46,-4.46l3.67 -3.34c0.1,-0.08 0.25,-0.2 0.35,-0.29l4.74 -4.8c12.2,8.16 23.3,17.44 35.42,25.73l28.28 20.77c13.2,9.44 25.97,19.66 39.37,28.79l107.7 78.95c1.46,1.11 2.48,1.92 4.04,2.97 2.91,1.98 5.34,3.89 8.15,5.87 2.63,1.86 5.11,3.79 7.64,5.73 2.77,2.12 5.12,3.91 8.25,5.77 12.34,7.33 17.14,7.6 30.72,7.6l1.72 0 0.72 0c7.98,0 18.49,-4.4 23.31,-7.9 10.05,-7.32 14.64,-17.92 18.04,-29.74l2.73 -13.2c1.04,-4.11 1.76,-8.44 2.7,-13.22l24.93 -118.4c3.24,-16.19 7.12,-36.23 11.12,-52.58l5.35 -26.5c0.86,-4.38 2.11,-8.87 2.83,-13.1l4.12 -19.45c3.25,-11.87 6.51,-33.91 9.73,-46.33 1.15,-4.46 1.71,-9.14 2.66,-13.26l4.23 -19.34c0.17,-0.93 0.33,-2.28 0.54,-3.28l4.84 -23.2c0.58,-2.19 0.92,-3.89 1.4,-6.23 0.5,-2.42 0.86,-3.56 1.25,-6.4 1.3,-9.31 8.63,-40.03 11.08,-52.63l6.99 -33.14c4.26,-16.45 7.33,-35.8 10.96,-52.74l22.09 -105.31c0.17,-0.88 0.51,-1.76 0.81,-3.02 0.26,-1.15 0.33,-2.07 0.56,-3.25l20.8 -98.97c0.86,-4.17 2.01,-8.71 2.86,-13.06 0.94,-4.78 1.66,-9.11 2.7,-13.22l4.03 -19.55c2.39,-13.84 1.62,-21.78 -9.15,-32.42 -5.72,-5.66 -14.32,-10.34 -23.42,-10.34 -4.73,0 -11.7,3.45 -16,5.02 -20.81,7.61 -41.96,14.73 -62.54,22.82l-93.91 34.77c-20.79,8.15 -42.04,14.91 -62.7,23.3 -15.53,6.3 -31.22,11.52 -46.96,17.38l-85.81 32.04c-23.15,9.1 -46.95,17.15 -70.18,26.01l-210.63 78.57c-13.32,4.78 -25.61,10.08 -38.95,14.56l-38.9 14.62c-1.32,0.5 -2.29,0.96 -3.63,1.47 -22,8.38 -44.47,15.85 -66.34,24.75 -1.46,0.59 -2.31,0.77 -3.8,1.29l-15.68 5.98c-1.21,0.45 -2.59,0.8 -3.8,1.3 -23.09,9.4 -47.35,16.96 -70.46,26.37 -2.75,1.12 -5.17,2.01 -7.84,2.98l-23.64 8.85c-9.84,3.92 -38.69,13.27 -46.39,17.95 -3.28,1.99 -6.56,4 -9.04,6.88 -4.54,5.28 -8.28,11.63 -8.28,19.12z"/>
 </g>
</svg>
