<svg fill="none" height="40" viewBox="0 0 40 40" width="40" xmlns="http://www.w3.org/2000/svg"><circle cx="20" cy="20" fill="#fff" r="20"/><path d="m30.1425 13.4915c-.7941-.9581-2.2603-1.3489-5.0604-1.3489h-10.1644c-2.8642 0-4.3552.416-5.14635 1.4361-.77135.9946-.77135 2.46-.77135 4.4882v3.8657c0 3.9293.9152 5.9243 5.9177 5.9243h10.1644c2.4283 0 3.7738-.3449 4.6443-1.1905.8927-.867 1.2736-2.2828 1.2736-4.7338v-3.8657c0-2.1389-.0597-3.613-.8575-4.5754zm-7.0184 7.042-4.6156 2.4483c-.1032.0547-.2161.0819-.3288.0819-.1276 0-.2549-.0349-.3676-.1042-.2124-.1306-.342-.3641-.342-.6161v-4.881c0-.2515.1293-.4849.3412-.6155.212-.1307.4756-.1396.6955-.0237l4.6156 2.4326c.2349.1238.3823.3698.3827.6383.0003.2686-.1466.515-.381.6394z" fill="#757575"/></svg>