<svg xmlns="http://www.w3.org/2000/svg" width="30" height="22" viewBox="0 0 30 22" fill="none">
                                    <path d="M28.4654 2.02609C27.4186 0.745679 25.4858 0.223389 21.7948 0.223389H8.39633C4.62081 0.223389 2.65536 0.779369 1.61248 2.14256C0.595703 3.47168 0.595703 5.43002 0.595703 8.14043V13.3064C0.595703 18.5574 1.8021 21.2234 8.39633 21.2234H21.7949C24.9957 21.2234 26.7694 20.7625 27.9169 19.6325C29.0936 18.4738 29.5957 16.5819 29.5957 13.3064V8.14043C29.5957 5.28208 29.517 3.31218 28.4654 2.02609ZM19.2138 11.4367L13.1296 14.7085C12.9936 14.7817 12.8448 14.818 12.6963 14.818C12.5281 14.818 12.3603 14.7714 12.2116 14.6788C11.9317 14.5043 11.7608 14.1921 11.7608 13.8554V7.33264C11.7608 6.99651 11.9312 6.68464 12.2106 6.51003C12.49 6.33542 12.8375 6.32348 13.1274 6.47846L19.2116 9.72925C19.5212 9.89462 19.7156 10.2234 19.7161 10.5822C19.7164 10.9412 19.5229 11.2705 19.2138 11.4367Z" fill="#C1C1C1"></path>
                                </svg>