<svg width="480" height="260" fill="none" xmlns="http://www.w3.org/2000/svg"><path d="M127.297 149.444c7.044-3.099 15.304.127 18.41 7.19 3.106 7.062-.098 15.33-7.142 18.429-7.046 3.099-15.307-.126-18.413-7.189-3.106-7.062.099-15.331 7.145-18.43zm8.131 18.486c3.121-1.373 4.541-5.038 3.165-8.167-1.377-3.13-5.037-4.558-8.159-3.185-3.123 1.374-4.542 5.036-3.166 8.166 1.376 3.129 5.036 4.56 8.16 3.186z" fill="#303030"/><path d="M95.183 181.637l-8.957.804-2.218-6.167 7.42-5.078a42.764 42.764 0 01-.831-5.443l-8.715-2.64.265-6.543 8.896-1.893a43.209 43.209 0 011.436-5.886l-6.909-5.779 2.784-5.919 8.843 1.67a43.024 43.024 0 013.251-4.424l-4.237-7.964 4.807-4.433 7.573 4.888a42.925 42.925 0 015.165-3.136l-.816-8.978 6.152-2.207 5.081 7.44a42.684 42.684 0 015.435-.823l2.619-8.721 6.534.275 1.905 8.917c2.013.347 3.978.833 5.88 1.448l5.754-6.911 5.919 2.8-1.656 8.855a43.15 43.15 0 014.424 3.264l7.944-4.23 4.432 4.823-4.864 7.579a43.208 43.208 0 013.139 5.178l8.958-.799 2.216 6.166-7.418 5.075c.389 1.78.669 3.596.831 5.446l8.713 2.64-.263 6.544-8.898 1.893a43.068 43.068 0 01-1.433 5.887l6.908 5.778-2.783 5.922-8.844-1.673a42.962 42.962 0 01-3.249 4.426l4.237 7.963-4.807 4.432-7.574-4.888a43.014 43.014 0 01-5.164 3.136l.815 8.977-6.152 2.208-5.081-7.442a43.097 43.097 0 01-5.433.825l-2.621 8.721-6.535-.277-1.904-8.915a42.961 42.961 0 01-5.882-1.449l-5.753 6.911-5.918-2.798 1.652-8.856a42.321 42.321 0 01-4.42-3.266l-7.946 4.231-4.433-4.823 4.866-7.577a43.5 43.5 0 01-3.14-5.184zm51.568 10.711c16.708-7.349 24.278-26.885 16.911-43.633-7.367-16.749-26.883-24.371-43.591-17.022-16.707 7.349-24.28 26.886-16.913 43.635 7.367 16.749 26.886 24.369 43.593 17.02zM124.752 234.561c2.946-1.296 6.4.053 7.699 3.006 1.299 2.953-.041 6.41-2.987 7.706-2.946 1.295-6.401-.053-7.7-3.006-1.299-2.953.041-6.41 2.988-7.706zm3.4 7.729a2.593 2.593 0 00-2.088-4.746 2.592 2.592 0 002.088 4.746z" fill="#303030"/><path d="M111.319 248.024l-3.747.336-.928-2.578 3.103-2.124a18.165 18.165 0 01-.347-2.277l-3.645-1.105.112-2.736 3.72-.793c.144-.843.346-1.665.601-2.462l-2.889-2.417 1.164-2.476 3.699.699c.416-.647.869-1.265 1.36-1.851l-1.772-3.331 2.01-1.854 3.169 2.044a17.931 17.931 0 012.16-1.312l-.34-3.754 2.573-.923 2.125 3.112a17.933 17.933 0 012.274-.344l1.096-3.648 2.732.114.797 3.73c.842.145 1.663.349 2.46.605l2.406-2.891 2.477 1.171-.693 3.704c.647.417 1.265.873 1.852 1.365l3.322-1.769 1.854 2.017-2.035 3.171a17.73 17.73 0 011.313 2.166l3.748-.335.927 2.579-3.103 2.123c.162.745.279 1.504.347 2.278l3.645 1.104-.11 2.737-3.722.791a18.05 18.05 0 01-.6 2.462l2.89 2.417-1.165 2.476-3.699-.7a17.778 17.778 0 01-1.359 1.851l1.772 3.332-2.011 1.853-3.168-2.044c-.687.485-1.409.925-2.16 1.311l.341 3.755-2.573.924-2.125-3.113c-.743.162-1.501.278-2.272.345l-1.097 3.648-2.733-.116-.796-3.729a17.853 17.853 0 01-2.46-.606l-2.406 2.89-2.475-1.17.691-3.705a17.71 17.71 0 01-1.849-1.366l-3.323 1.77-1.855-2.017 2.036-3.17a17.048 17.048 0 01-1.319-2.164zm21.569 4.482c6.989-3.074 10.156-11.246 7.075-18.25-3.082-7.006-11.245-10.194-18.234-7.12-6.989 3.074-10.156 11.245-7.074 18.251 3.081 7.005 11.245 10.193 18.233 7.119zM310.517 117.962c12.617-5.55 27.411.227 32.975 12.876 5.564 12.65-.176 27.459-12.793 33.009-12.619 5.55-27.415-.226-32.979-12.876-5.564-12.649.177-27.458 12.797-33.009zm14.563 33.109c5.588-2.458 8.133-9.023 5.668-14.627-2.465-5.605-9.022-8.163-14.611-5.704-5.593 2.46-8.137 9.02-5.672 14.625 2.465 5.604 9.022 8.166 14.615 5.706z" fill="#303030"/><path d="M252.996 175.619l-16.044 1.438-3.972-11.044 13.291-9.096a76.595 76.595 0 01-1.49-9.75l-15.609-4.73.475-11.72 15.933-3.391a77.606 77.606 0 012.572-10.543l-12.374-10.351 4.986-10.604 15.838 2.993a76.948 76.948 0 015.823-7.925l-7.589-14.265 8.608-7.938 13.567 8.755a76.79 76.79 0 019.251-5.616l-1.46-16.078 11.019-3.953 9.101 13.327a76.811 76.811 0 019.734-1.474l4.692-15.622 11.703.492 3.413 15.973a76.966 76.966 0 0110.532 2.591l10.306-12.377 10.601 5.014-2.965 15.86a77.898 77.898 0 017.926 5.847l14.228-7.576 7.939 8.638-8.714 13.576a77.1 77.1 0 015.623 9.275l16.047-1.432 3.969 11.042-13.287 9.091a77.531 77.531 0 011.489 9.755l15.608 4.727-.474 11.721-15.939 3.392a76.933 76.933 0 01-2.568 10.543l12.375 10.35-4.985 10.606-15.841-2.997a77.242 77.242 0 01-5.82 7.928l7.588 14.264-8.61 7.936-13.566-8.755a77.123 77.123 0 01-9.25 5.619l1.461 16.077-11.02 3.955-9.101-13.328a77.295 77.295 0 01-9.731 1.477l-4.694 15.622-11.705-.497-3.411-15.968a76.812 76.812 0 01-10.535-2.596l-10.306 12.379-10.599-5.013 2.961-15.863a76.169 76.169 0 01-7.919-5.847l-14.23 7.577-7.938-8.638 8.715-13.574a77.258 77.258 0 01-5.628-9.279zm92.366 19.185c29.926-13.163 43.488-48.155 30.292-78.155-13.196-30-48.154-43.65-78.079-30.488-29.925 13.163-43.49 48.156-30.294 78.157 13.196 30 48.156 43.649 78.081 30.486zM167.42 266.109l-9.506.853-2.352-6.545 7.873-5.388a45.444 45.444 0 01-.88-5.78l-9.25-2.799.283-6.946 9.44-2.011a45.402 45.402 0 011.526-6.246l-7.335-6.133 2.957-6.284 9.384 1.774a45.952 45.952 0 013.447-4.695l-4.495-8.452 5.104-4.706 8.035 5.189a45.224 45.224 0 015.48-3.326l-.864-9.528 6.529-2.345 5.394 7.899a45.149 45.149 0 015.765-.872l2.779-9.257 6.934.291 2.025 9.465c2.135.366 4.221.884 6.241 1.536l6.105-7.336 6.283 2.972-1.76 9.398a46.643 46.643 0 014.698 3.464l8.431-4.489 4.704 5.117-5.165 8.044a46.213 46.213 0 013.333 5.495l9.507-.848 2.353 6.546-7.875 5.386c.417 1.887.713 3.816.883 5.782l9.248 2.799-.278 6.946-9.446 2.008a44.809 44.809 0 01-1.524 6.25l7.333 6.13-2.952 6.285-9.384-1.774a46.833 46.833 0 01-3.451 4.698l4.493 8.451-5.098 4.701-8.042-5.188a45.15 45.15 0 01-5.478 3.33l.866 9.526-6.529 2.344-5.393-7.897c-1.886.41-3.81.703-5.767.873l-2.781 9.258-6.937-.295-2.023-9.461a45.188 45.188 0 01-6.239-1.538l-6.108 7.336-6.278-2.973 1.754-9.399a44.794 44.794 0 01-4.693-3.466l-8.43 4.491-4.707-5.116 5.166-8.045a46.047 46.047 0 01-3.333-5.499zm47.304-5.511c8.434-3.71 12.258-13.571 8.539-22.026-3.718-8.453-13.571-12.299-22.005-8.589-8.431 3.708-12.255 13.571-8.537 22.023 3.72 8.455 13.574 12.3 22.003 8.592zM99.208 315.952l-6.35.57-1.571-4.37 5.26-3.598a30.726 30.726 0 01-.593-3.858l-6.174-1.871.188-4.64 6.304-1.34a30.634 30.634 0 011.018-4.172l-4.896-4.097 1.97-4.196 6.268 1.185a29.77 29.77 0 012.308-3.136l-3.005-5.646 3.409-3.143 5.365 3.466a30.725 30.725 0 013.66-2.222l-.576-6.361 4.36-1.565 3.6 5.273a30.361 30.361 0 013.854-.582l1.856-6.18 4.63.194 1.352 6.321c1.428.243 2.818.591 4.166 1.025l4.077-4.9 4.197 1.985-1.174 6.276a30.688 30.688 0 013.135 2.315l5.632-2.998 3.138 3.418-3.444 5.374a30.083 30.083 0 012.222 3.669l6.352-.566 1.571 4.37-5.26 3.596c.277 1.262.476 2.548.588 3.859l6.18 1.873-.19 4.637-6.306 1.342a30.582 30.582 0 01-1.016 4.171l4.896 4.096-1.97 4.199-6.271-1.187a30.526 30.526 0 01-2.304 3.14l3.004 5.641-3.409 3.142-5.367-3.467a29.904 29.904 0 01-3.659 2.224l.575 6.361-4.359 1.569-3.602-5.278a31.097 31.097 0 01-3.852.586l-1.855 6.181-4.631-.197-1.351-6.319a29.497 29.497 0 01-4.17-1.029l-4.079 4.901-4.191-1.987 1.172-6.276a29.543 29.543 0 01-3.136-2.314l-5.629 3.003-3.142-3.42 3.448-5.371a30.662 30.662 0 01-2.223-3.676zm38.471 11.961c14.247-6.267 20.704-22.927 14.421-37.211-6.283-14.283-22.927-20.784-37.173-14.517-14.249 6.267-20.705 22.929-14.423 37.212 6.283 14.284 22.926 20.784 37.175 14.516zM427.722 157.939l-6.601.591-1.633-4.542 5.467-3.739a31.895 31.895 0 01-.616-4.011l-6.417-1.944.196-4.823 6.553-1.393a31.7 31.7 0 011.059-4.337l-5.089-4.258 2.048-4.361 6.514 1.231a30.991 30.991 0 012.398-3.26l-3.123-5.869 3.543-3.266 5.577 3.603a31.824 31.824 0 013.804-2.31l-.597-6.612 4.531-1.627 3.743 5.48a31.943 31.943 0 014.005-.604l1.929-6.425 4.812.202 1.405 6.57a31.22 31.22 0 014.33 1.066l4.238-5.093 4.364 2.062-1.221 6.524a32.032 32.032 0 013.259 2.406l5.854-3.116 3.261 3.552-3.58 5.585a31.186 31.186 0 012.31 3.813l6.601-.585 1.634 4.542-5.467 3.739a31.24 31.24 0 01.611 4.01l6.424 1.947-.197 4.82-6.556 1.394a31.725 31.725 0 01-1.056 4.337l5.088 4.256-2.047 4.365-6.517-1.234a32.006 32.006 0 01-2.395 3.263l3.121 5.865-3.542 3.265-5.578-3.603a31.095 31.095 0 01-3.804 2.312l.598 6.613-4.53 1.63-3.744-5.487a32.159 32.159 0 01-4.003.61l-1.929 6.424-4.814-.205-1.404-6.567a31.222 31.222 0 01-4.335-1.069l-4.24 5.094-4.356-2.066 1.217-6.523a30.933 30.933 0 01-3.258-2.406l-5.852 3.121-3.266-3.555 3.585-5.583a31.425 31.425 0 01-2.312-3.819zm39.987 12.433c14.809-6.514 21.52-23.831 14.989-38.678-6.53-14.846-23.831-21.603-38.639-15.089-14.81 6.514-21.52 23.833-14.99 38.679 6.53 14.846 23.829 21.603 38.64 15.088z" fill="#303030"/><path d="M467.173 169.151c14.115-6.208 20.535-22.772 14.309-36.924-6.223-14.15-22.772-20.615-36.887-14.407-14.117 6.21-20.536 22.776-14.312 36.927 6.226 14.152 22.773 20.614 36.89 14.404zm-21.28-48.379c12.491-5.494 27.137.224 32.646 12.748 5.509 12.525-.173 27.185-12.664 32.679-12.494 5.496-27.14-.222-32.649-12.747-5.508-12.525.174-27.185 12.667-32.68zM259.157 336.968l1.582-.441c2.51-.699 4.267-3.077 3.995-5.672-.349-3.351-3.605-5.464-6.704-4.603l-1.411.393a3.328 3.328 0 01-4.189-2.775 68.157 68.157 0 01-.33-2.968 3.32 3.32 0 013.355-3.623l1.663.025c2.604.037 4.96-1.747 5.433-4.313.606-3.309-1.928-6.257-5.143-6.304l-1.458-.022a3.335 3.335 0 01-3.242-3.851c.155-.982.332-1.961.525-2.932a3.319 3.319 0 014.241-2.522l1.719.532c2.786.866 5.767-.71 6.626-3.5 2.557-1.124 2.341-4.828-.33-5.656l-4.561-1.417a3.336 3.336 0 01-2.031-4.602 72.5 72.5 0 011.322-2.665 3.32 3.32 0 014.783-1.228l1.494.994c2.431 1.615 5.739.946 7.348-1.486 1.607-2.434.933-5.746-1.498-7.362l-1.222-.811c-1.684-1.118-1.997-3.476-.655-4.985.657-.74 1.331-1.47 2.022-2.187a3.323 3.323 0 014.936.173l1.166 1.388c1.88 2.235 5.243 2.526 7.469.648l-.001-.002c2.229-1.88 2.514-5.245.634-7.48l-.939-1.117c-1.304-1.548-.942-3.9.773-4.968a72.003 72.003 0 012.556-1.521 3.327 3.327 0 014.688 1.559l.726 1.649c1.177 2.676 4.321 3.904 6.989 2.731 2.668-1.174 3.887-4.323 2.711-6.997l-.587-1.334c-.815-1.854.193-4.002 2.139-4.545a69.142 69.142 0 012.879-.744 3.332 3.332 0 014.065 2.815l.215 1.643c.336 2.587 2.439 4.675 5.042 4.778 3.36.14 5.905-2.786 5.49-5.982l-.188-1.457a3.32 3.32 0 013.336-3.756c.993.016 1.986.052 2.977.105a3.34 3.34 0 013.104 3.849l-.281 1.792c-.453 2.884 1.533 5.621 4.413 6.077 2.882.458 5.606-1.526 6.061-4.409l.224-1.432a3.317 3.317 0 014.258-2.662c.947.295 1.888.608 2.822.939a3.335 3.335 0 011.899 4.566l-.766 1.624c-1.245 2.639-.107 5.82 2.527 7.074a5.307 5.307 0 007.06-2.521l.621-1.314a3.317 3.317 0 014.833-1.352 75.171 75.171 0 012.449 1.695 3.341 3.341 0 01.544 4.921l-1.198 1.346c-1.939 2.178-1.743 5.55.435 7.496 2.177 1.944 5.547 1.754 7.484-.423l.974-1.094a3.322 3.322 0 015.022.07 71.558 71.558 0 011.871 2.321c1.209 1.561.808 3.828-.865 4.868l-1.532.955c-2.473 1.544-3.234 4.833-1.691 7.315 1.547 2.48 4.831 3.247 7.304 1.707l1.234-.769c1.705-1.065 3.975-.383 4.787 1.461a71.218 71.218 0 011.163 2.797c.716 1.829-.317 3.875-2.206 4.402l-1.729.48c-2.808.782-4.464 3.723-3.679 6.537.784 2.813 3.725 4.477 6.531 3.696l1.412-.392a3.332 3.332 0 014.191 2.776c.131.988.242 1.979.331 2.965a3.323 3.323 0 01-3.355 3.625l-1.815-.028c-2.915-.043-5.331 2.309-5.369 5.23-.038 2.92 2.315 5.345 5.233 5.389l1.454.02a3.338 3.338 0 013.244 3.852c-.156.982-.33 1.96-.526 2.932a3.317 3.317 0 01-4.239 2.521l-1.719-.533c-2.785-.862-5.766.713-6.626 3.501-2.557 1.125-2.341 4.831.329 5.659l4.56 1.416c1.931.599 2.896 2.773 2.033 4.602a77.55 77.55 0 01-1.322 2.664 3.324 3.324 0 01-4.784 1.227l-1.369-.908c-2.175-1.445-5.119-1.222-6.903.68-2.298 2.452-1.755 6.3.928 8.081l1.22.811c1.687 1.119 2 3.475.659 4.987a73.018 73.018 0 01-2.024 2.186 3.323 3.323 0 01-4.936-.173l-1.083-1.288c-1.66-1.972-4.501-2.588-6.735-1.315-2.956 1.683-3.54 5.564-1.45 8.049l.938 1.118c1.304 1.549.941 3.9-.774 4.968a76.472 76.472 0 01-2.557 1.519 3.327 3.327 0 01-4.688-1.559l-.725-1.649c-1.176-2.674-4.322-3.901-6.989-2.728-2.668 1.174-3.888 4.321-2.712 6.995l.587 1.333c.814 1.853-.196 4.002-2.141 4.548-.956.267-1.916.516-2.878.741-1.918.456-3.811-.857-4.067-2.816l-.211-1.64c-.339-2.588-2.44-4.675-5.044-4.781-3.359-.137-5.906 2.789-5.489 5.984l.189 1.457c.261 2.011-1.314 3.788-3.337 3.755a77.677 77.677 0 01-2.977-.104 3.339 3.339 0 01-3.104-3.85l.258-1.639c.405-2.579-1.027-5.171-3.498-6.008-3.187-1.08-6.452 1.007-6.952 4.189l-.225 1.431c-.314 2.001-2.326 3.263-4.258 2.662a73.44 73.44 0 01-2.822-.94 3.336 3.336 0 01-1.9-4.568l.7-1.483c1.113-2.359.467-5.25-1.668-6.748-2.756-1.935-6.478-.854-7.852 2.055l-.622 1.315a3.316 3.316 0 01-4.831 1.352 72.017 72.017 0 01-2.449-1.694 3.34 3.34 0 01-.543-4.921l1.196-1.347c1.94-2.177 1.742-5.551-.436-7.498-1.1-2.5-4.411-3.027-6.224-.989l-2.232 2.508a3.32 3.32 0 01-5.021-.07 75.7 75.7 0 01-1.875-2.322 3.338 3.338 0 01.867-4.869l1.533-.955c2.729-1.702 3.371-5.529 1.139-8.052-1.73-1.953-4.672-2.263-6.882-.886l-1.103.688c-1.707 1.065-3.977.382-4.788-1.463l-.016-.036a71.727 71.727 0 01-1.147-2.758c-.717-1.828.317-3.873 2.208-4.398zm43.015-67.356c-10.375 5.426-18.154 14.053-22.649 24.122l16.016 6.253c2.858-5.985 7.491-11.149 13.572-14.603l-6.938-15.772h-.001zm6.293-2.768l6.937 15.773c6.656-2.149 13.592-2.072 19.934-.135l6.215-16.032c-10.459-3.491-22.076-3.587-33.086.394zm39.453 2.223l-6.236 16.086a33.366 33.366 0 0113.603 13.923l15.706-6.909a50.5 50.5 0 00-23.073-23.1zm25.734 61.42a50.522 50.522 0 00-.041-31.946l-15.786 6.944a33.383 33.383 0 01-.189 18.747l16.016 6.255zm-24.494 28.872c9.815-5.131 17.304-13.128 21.889-22.499l-16.07-6.274a33.15 33.15 0 01-12.757 13l6.938 15.773zm-11.965-18.661c14.444-6.353 20.985-23.236 14.617-37.713-6.366-14.473-23.231-21.061-37.674-14.708-14.439 6.351-20.984 23.236-14.618 37.709 6.368 14.477 23.237 21.063 37.675 14.712zm5.672 21.429l-6.937-15.773c-6.056 1.958-12.342 2.07-18.204.618l-6.237 16.086c10.007 2.953 20.963 2.836 31.378-.931zm-37.834-1.456l6.214-16.032a33.357 33.357 0 01-13.944-12.531l-15.789 6.945a50.545 50.545 0 0023.519 21.618zm-10.741-34.766a33.374 33.374 0 01-1.071-19.435l-16.069-6.275a50.485 50.485 0 001.434 32.618l15.706-6.908zM190.899 172.18l.447-.124c.711-.198 1.207-.871 1.131-1.605a1.508 1.508 0 00-1.897-1.303l-.399.111a.942.942 0 01-1.186-.785c-.037-.28-.068-.56-.093-.839a.939.939 0 01.95-1.025l.471.007c.736.01 1.402-.495 1.536-1.22a1.508 1.508 0 00-1.455-1.784l-.413-.007a.944.944 0 01-.917-1.09c.045-.277.095-.555.149-.83a.938.938 0 011.2-.713l.486.151a1.5 1.5 0 001.874-.991c.723-.318.662-1.366-.093-1.6l-1.29-.401a.943.943 0 01-.575-1.301c.12-.254.244-.506.375-.755a.94.94 0 011.353-.348l.422.282a1.503 1.503 0 002.079-.42 1.51 1.51 0 00-.423-2.083l-.347-.23a.944.944 0 01-.186-1.41c.186-.21.377-.416.572-.619a.94.94 0 011.396.049l.331.392a1.505 1.505 0 002.113.184l-.001-.001a1.507 1.507 0 00.18-2.116l-.265-.316a.94.94 0 01.219-1.405c.236-.148.478-.292.722-.431a.942.942 0 011.327.441l.206.467a1.505 1.505 0 001.977.772 1.506 1.506 0 00.768-1.979l-.166-.378a.94.94 0 01.605-1.285c.271-.076.542-.147.815-.211a.943.943 0 011.149.797l.061.465c.096.732.69 1.323 1.427 1.352a1.5 1.5 0 001.553-1.692l-.053-.412a.94.94 0 01.944-1.063c.281.006.562.016.842.031a.944.944 0 01.878 1.089l-.079.507a1.509 1.509 0 001.249 1.72 1.502 1.502 0 001.715-1.247l.064-.406a.938.938 0 011.204-.753c.268.083.534.172.798.265a.945.945 0 01.538 1.292l-.218.46a1.512 1.512 0 00.715 2.001 1.502 1.502 0 001.998-.713l.176-.372a.94.94 0 011.368-.383c.233.155.465.315.693.479a.944.944 0 01.153 1.392l-.338.381a1.507 1.507 0 00.123 2.121 1.503 1.503 0 002.117-.12l.276-.309a.941.941 0 011.421.019c.181.216.357.434.529.657a.943.943 0 01-.244 1.377l-.434.27a1.508 1.508 0 00-.478 2.07 1.504 1.504 0 002.066.482l.348-.218a.939.939 0 011.355.414l.004.01c.114.259.222.519.325.781a.941.941 0 01-.624 1.246l-.49.135a1.506 1.506 0 00-1.041 1.85 1.506 1.506 0 001.848 1.045l.399-.111a.944.944 0 011.186.786c.037.28.068.56.093.84a.941.941 0 01-.95 1.026l-.513-.008a1.502 1.502 0 00-1.519 1.48 1.51 1.51 0 001.48 1.525l.412.006a.943.943 0 01.917 1.09c-.044.277-.094.554-.149.829a.938.938 0 01-1.199.713l-.487-.151a1.502 1.502 0 00-1.875.99c-.724.318-.662 1.366.092 1.601l1.291.4a.944.944 0 01.575 1.303c-.119.253-.245.504-.373.754a.941.941 0 01-1.354.347l-.387-.257c-.615-.409-1.448-.346-1.953.192a1.51 1.51 0 00.263 2.287l.346.229a.944.944 0 01.186 1.41c-.186.21-.377.416-.572.619a.942.942 0 01-1.397-.049l-.307-.364c-.469-.558-1.273-.732-1.905-.372a1.507 1.507 0 00-.41 2.278l.264.316a.942.942 0 01-.219 1.406c-.237.146-.478.29-.723.43a.941.941 0 01-1.326-.442l-.205-.467a1.506 1.506 0 00-1.978-.772 1.505 1.505 0 00-.767 1.979l.166.377a.941.941 0 01-.605 1.287c-.27.075-.542.146-.814.21a.942.942 0 01-1.15-.797l-.06-.464c-.096-.732-.691-1.322-1.428-1.353-.95-.038-1.67.79-1.553 1.693l.054.412a.94.94 0 01-.944 1.063 26.107 26.107 0 01-.842-.029.945.945 0 01-.878-1.09l.073-.463c.114-.73-.29-1.463-.99-1.701a1.5 1.5 0 00-1.966 1.185l-.064.405a.939.939 0 01-1.205.753 19.169 19.169 0 01-.799-.266.945.945 0 01-.538-1.291l.198-.42c.315-.667.133-1.485-.472-1.908a1.502 1.502 0 00-2.222.581l-.176.372a.938.938 0 01-1.366.383 21.282 21.282 0 01-.693-.48.945.945 0 01-.155-1.391l.339-.381a1.509 1.509 0 00-.124-2.122 1.059 1.059 0 00-1.761-.279l-.632.71a.939.939 0 01-1.42-.02 21.075 21.075 0 01-.53-.656.947.947 0 01.244-1.379l.434-.27a1.508 1.508 0 00.322-2.279c-.489-.551-1.321-.64-1.946-.25l-.314.195a.938.938 0 01-1.354-.414l-.004-.01a19.503 19.503 0 01-.325-.781.943.943 0 01.628-1.246zm12.169-19.056a14.218 14.218 0 00-6.407 6.824l4.53 1.769a9.4 9.4 0 013.84-4.132l-1.963-4.461zm1.781-.783l1.962 4.462a9.393 9.393 0 015.64-.038l1.759-4.535a14.22 14.22 0 00-9.361.111zm11.162.63l-1.764 4.551a9.447 9.447 0 013.848 3.939l4.443-1.954a14.27 14.27 0 00-6.527-6.536zm7.281 17.376a14.293 14.293 0 00-.012-9.038l-4.466 1.965a9.439 9.439 0 01-.053 5.304l4.531 1.769zm-6.93 8.169a14.207 14.207 0 006.193-6.365l-4.546-1.775a9.377 9.377 0 01-3.61 3.678l1.963 4.462zm-5.065-9.099a3.924 3.924 0 002.006-5.175 3.926 3.926 0 00-5.171-2.019 3.926 3.926 0 00-2.006 5.175 3.925 3.925 0 005.171 2.019zm3.284 9.882l-1.962-4.462a9.387 9.387 0 01-5.151.174l-1.764 4.55c2.83.837 5.931.803 8.877-.262zm-10.703-.412l1.758-4.536a9.44 9.44 0 01-3.945-3.545l-4.467 1.964a14.29 14.29 0 006.654 6.117zm-3.04-9.837a9.444 9.444 0 01-.302-5.498l-4.547-1.775a14.28 14.28 0 00.406 9.228l4.443-1.955zM384.825 260.659c-.549-1.405.249-2.985 1.715-3.389l1.223-.339c1.942-.543 3.294-2.37 3.092-4.369-.268-2.571-2.773-4.182-5.164-3.518l-1.095.307c-1.495.415-3.026-.581-3.228-2.124-.093-.756-.175-1.528-.252-2.284-.126-1.507 1.087-2.803 2.603-2.786l1.282.02c2.011.02 3.835-1.359 4.199-3.325.479-2.543-1.474-4.801-3.946-4.827l-1.126-.02a2.542 2.542 0 01-2.496-2.944c.121-.754.255-1.51.413-2.255.287-1.487 1.816-2.39 3.272-1.944l1.324.399c2.149.666 4.454-.551 5.123-2.701 1.966-.865 1.809-3.705-.244-4.335l-3.515-1.082c-1.489-.455-2.232-2.131-1.566-3.528a57.93 57.93 0 011.03-2.055 2.586 2.586 0 013.699-.95l1.149.763c1.87 1.229 4.427.708 5.668-1.156 1.25-1.887.731-4.421-1.142-5.651l-.938-.623a2.545 2.545 0 01-.493-3.828c.504-.574 1.029-1.122 1.55-1.681 1.065-1.095 2.843-1.037 3.824.115l.887 1.064a4.113 4.113 0 005.77.485 4.09 4.09 0 00.5-5.746l-.715-.853a2.564 2.564 0 01.604-3.826 71.583 71.583 0 011.979-1.162c1.315-.743 2.998-.204 3.611 1.188l.551 1.253a4.09 4.09 0 005.391 2.088c2.068-.909 3.015-3.325 2.108-5.386l-.446-1.013a2.572 2.572 0 011.65-3.497 54.336 54.336 0 012.229-.569 2.552 2.552 0 013.13 2.159l.16 1.255c.252 1.98 1.882 3.586 3.876 3.659 2.599.103 4.57-2.151 4.259-4.607l-.143-1.118c-.203-1.547 1.022-2.906 2.574-2.891.772.012 1.538.037 2.302.08a2.549 2.549 0 012.389 2.945l-.217 1.374c-.357 2.212 1.173 4.314 3.386 4.659 2.227.347 4.34-1.185 4.683-3.396l.189-1.099a2.575 2.575 0 013.285-2.063c.728.232 1.454.465 2.179.722a2.551 2.551 0 011.452 3.511l-.597 1.242a4.08 4.08 0 001.938 5.429c2.032.948 4.49.078 5.449-1.952l.482-1.011a2.58 2.58 0 013.738-1.049c.64.417 1.266.855 1.889 1.299a2.556 2.556 0 01.411 3.773l-.942 1.037c-1.488 1.684-1.341 4.264.334 5.758 1.682 1.492 4.275 1.335 5.772-.343l.749-.835a2.577 2.577 0 013.883.043c.487.584.965 1.17 1.44 1.776a2.57 2.57 0 01-.674 3.745l-1.188.732c-1.911 1.187-2.508 3.719-1.328 5.62 1.196 1.902 3.732 2.49 5.636 1.3l.958-.597c1.32-.814 3.065-.305 3.69 1.116l.011.024c.308.7.609 1.408.882 2.114a2.568 2.568 0 01-1.715 3.395l-1.329.364c-2.173.615-3.449 2.877-2.852 5.032.603 2.167 2.858 3.426 5.033 2.821l1.088-.295a2.552 2.552 0 013.229 2.117c.095.766.186 1.516.244 2.277a2.564 2.564 0 01-2.588 2.792l-1.407-.014c-2.245-.035-4.115 1.786-4.155 4.023a4.079 4.079 0 004.029 4.126l1.12.019a2.545 2.545 0 012.497 2.949c-.122.76-.257 1.5-.405 2.256a2.585 2.585 0 01-3.279 1.946l-1.333-.412c-2.144-.652-4.451.562-5.114 2.695-1.977.869-1.822 3.716.245 4.354l3.512 1.078a2.55 2.55 0 011.556 3.537 79.076 79.076 0 01-1.015 2.042 2.587 2.587 0 01-3.703.954l-1.055-.698c-1.668-1.102-3.945-.923-5.324.542-1.777 1.883-1.369 4.839.699 6.193l.941.624a2.544 2.544 0 01.491 3.83 44.362 44.362 0 01-1.562 1.679 2.565 2.565 0 01-3.81-.121l-.83-.992c-1.275-1.505-3.466-1.973-5.2-.988-2.28 1.297-2.737 4.275-1.127 6.179l.714.856a2.54 2.54 0 01-.606 3.813c-.645.408-1.306.805-1.969 1.178a2.565 2.565 0 01-3.617-1.185l-.558-1.27c-.904-2.055-3.328-2.985-5.39-2.078-2.059.906-3.009 3.32-2.105 5.375l.451 1.025a2.565 2.565 0 01-1.653 3.495c-.744.212-1.485.402-2.229.576-1.479.364-2.933-.654-3.13-2.149l-.16-1.271c-.254-1.982-1.877-3.575-3.879-3.656-2.592-.091-4.565 2.161-4.252 4.606l.141 1.109c.197 1.557-1.022 2.927-2.575 2.907a61.326 61.326 0 01-2.306-.084 2.55 2.55 0 01-2.388-2.946l.209-1.266c.315-1.976-.784-3.963-2.691-4.603-2.454-.824-4.975.79-5.369 3.236l-.182 1.094a2.57 2.57 0 01-3.284 2.055 56.568 56.568 0 01-2.178-.72 2.548 2.548 0 01-1.458-3.501l.544-1.145c.862-1.81.374-4.025-1.276-5.179-2.119-1.475-4.992-.638-6.059 1.599l-.482 1.01a2.57 2.57 0 01-3.727 1.051 57.233 57.233 0 01-1.896-1.301 2.552 2.552 0 01-.406-3.771l.929-1.037c1.494-1.679 1.35-4.268-.324-5.761-.844-1.919-3.399-2.321-4.797-.751l-1.73 1.935c-1.045 1.159-2.872 1.141-3.875-.051a49.212 49.212 0 01-1.445-1.776c-.928-1.194-.616-2.93.674-3.742l1.186-.732c2.113-1.31 2.616-4.25.901-6.182-1.336-1.501-3.604-1.735-5.309-.671l-.855.531c-1.319.814-3.074.293-3.693-1.113a49.949 49.949 0 01-.894-2.141zm51.092 1.542l-.156-18.45-12.917 13.128a22.982 22.982 0 0013.073 5.322zm-21.166-24.482l18.429-.105-13.129-12.98a22.946 22.946 0 00-5.3 13.085zm18.454 3.49l-18.42.116a22.963 22.963 0 001.855 7.242c.949 2.156 2.174 4.095 3.641 5.766l12.924-13.124zm-27.595 12.557a3.646 3.646 0 004.798 1.87 3.65 3.65 0 00-2.94-6.683c-1.84.809-2.67 2.968-1.858 4.813zm4.349-28.771a3.614 3.614 0 00-4.712 2.073 3.639 3.639 0 002.075 4.717 3.637 3.637 0 004.712-2.073 3.65 3.65 0 00-2.075-4.717zm13.876-17.023a3.633 3.633 0 00-1.865 4.799 3.635 3.635 0 004.798 1.868 3.64 3.64 0 001.863-4.798 3.64 3.64 0 00-4.796-1.869zm4.492 10.462a22.112 22.112 0 00-5.747 3.643l13.126 12.969-.141-18.456a22.6 22.6 0 00-7.238 1.844zm31.984 22.607l-18.409.127 13.119 12.955a22.815 22.815 0 005.29-13.082zm4.467-16.616c-1.839.808-2.663 2.967-1.854 4.805.809 1.84 2.957 2.691 4.796 1.882 1.841-.81 2.669-2.97 1.86-4.81-.809-1.838-2.961-2.687-4.802-1.877zm-6.357 5.766a23.026 23.026 0 00-3.63-5.754l-12.919 13.124 18.413-.112a22.878 22.878 0 00-1.864-7.258zm-19.27-13.623l.136 18.469 12.937-13.143a22.867 22.867 0 00-13.073-5.326zm11.331-8.92a3.645 3.645 0 00-4.711 2.072 3.647 3.647 0 002.076 4.72 3.626 3.626 0 004.711-2.072 3.655 3.655 0 00-2.076-4.72zm14.752 47.423a3.641 3.641 0 004.72-2.076 3.648 3.648 0 10-6.799-2.651 3.673 3.673 0 002.079 4.727zm-13.866 17.027a3.638 3.638 0 001.853-4.805 3.635 3.635 0 00-4.79-1.873 3.648 3.648 0 102.937 6.678zm-4.618-11.78c2.126-.935 4.068-2.153 5.742-3.624l-13.122-12.973.133 18.46c2.45-.204 4.876-.82 7.247-1.863zm-22.035 12.1c1.87.73 3.986-.2 4.709-2.072.725-1.886-.204-3.999-2.076-4.721a3.615 3.615 0 00-4.71 2.071c-.736 1.87.193 3.983 2.077 4.722z" fill="#303030"/></svg>