<?xml version="1.0" encoding="UTF-8"?>
<!DOCTYPE svg PUBLIC "-//W3C//DTD SVG 1.1//EN" "http://www.w3.org/Graphics/SVG/1.1/DTD/svg11.dtd">
<!-- Creator: CorelDRAW 2018 (64-Bit) -->
<svg xmlns="http://www.w3.org/2000/svg" xml:space="preserve" width="12mm" height="12mm" version="1.1" style="shape-rendering:geometricPrecision; text-rendering:geometricPrecision; image-rendering:optimizeQuality; fill-rule:evenodd; clip-rule:evenodd"
viewBox="0 0 1200 1200"
 xmlns:xlink="http://www.w3.org/1999/xlink">
 <defs>
  <style type="text/css">
   <![CDATA[
    .fil0 {fill:#FEFEFE}
    .fil1 {fill:#9D9E9E}
   ]]>
  </style>
 </defs>
 <g id="Слой_x0020_1">
  <metadata id="CorelCorpID_0Corel-Layer"/>
  <circle class="fil0" cx="600" cy="600" r="600"/>
  <path class="fil1" d="M503.52 824.64c-0.29,-0.33 -0.28,-0.23 -0.62,-0.8 -1.56,-2.61 -2.13,-6.37 -2.99,-9.41 -0.67,-2.39 -1.1,-3.23 -1.74,-5.41l-44.71 -146.48c-0.6,-1.99 -1.01,-3.32 -1.63,-5.52 -0.59,-2.07 -1.25,-3.48 -1.71,-5.45 2.96,-0.68 6.36,-3.71 8.97,-5.33l32.53 -20.87c14.23,-8.49 27.71,-18.26 41.91,-26.74l23.87 -15.23c3.92,-2.6 7.95,-4.98 11.84,-7.7l5.82 -3.72c2.06,-1.23 4.23,-2.54 6.18,-3.84 1.93,-1.28 3.78,-2.41 5.81,-3.72l20.98 -13.35c5.72,-3.6 19.29,-11.9 23.81,-15.28l38.4 -24.54c2.2,-1.3 4.01,-2.44 6.16,-3.86 1.16,-0.76 1.87,-1.08 2.96,-1.79l32.79 -21.09c4.12,-2.71 7.92,-4.89 12.03,-7.53l23.83 -15.25c2.05,-1.29 3.93,-2.56 5.84,-3.7 16.24,-9.7 31.72,-20.56 47.94,-30.26 6.21,-3.72 11.85,-7.91 18.15,-11.4 1.56,-0.87 1.41,-1.06 2.87,-1.91 2.84,-1.65 7.01,-5.09 10.16,-5.09 5.2,0 9.63,3.17 8.18,8.14 -0.63,2.15 -7.05,7.78 -8.93,9.23l-27.78 25.61c-1.48,1.18 -1.94,1.53 -3.29,2.91l-9.31 8.34c-1.17,1.12 -1.9,2.07 -3.14,3.06 -2.44,1.95 -3.89,3.62 -6.34,5.58 -1.15,0.92 -1.79,1.77 -2.92,2.79l-1.04 0.88c-5.61,4.69 -10.62,10.02 -16.25,14.73l-9.23 8.41c-0.08,0.06 -0.19,0.15 -0.26,0.22 -0.03,0.02 -0.5,0.41 -0.53,0.43l-28.95 26.35c-0.42,0.37 -0.44,0.37 -0.78,0.65l-18.04 16.29c-5.12,5.23 -13.52,11.79 -18.84,16.91 -1.17,1.13 -1.9,2.08 -3.14,3.07 -2.44,1.95 -3.89,3.62 -6.34,5.57l-9.26 8.38c-1.38,1.06 -1.95,1.87 -3.2,3l-2.26 2.03c-0.07,0.07 -0.18,0.16 -0.25,0.23l-69.24 62.35c-1.16,1.15 -1.83,1.99 -3.17,3.03 -1.44,1.11 -1.78,1.45 -3.01,2.7l-10.98 10.01c-0.38,0.35 -0.33,0.3 -0.76,0.67l-19.58 17.61c-5.97,4.61 -21.7,19.96 -29.05,26.25l-2.32 1.97c-10.54,9.77 -8.52,5.76 -9.7,14.14 -1.82,13.02 -1.91,25.27 -3.69,38.27 -0.94,6.84 -0.93,14.87 -1.95,21.89 -1.34,9.21 -1.56,19.08 -2.7,26.86 -0.77,5.27 -1.4,11.01 -1.4,16.71zm-287.97 -237.43c0,9 1.68,15.26 8.21,21.34 1.87,1.74 5.03,3.73 7.73,4.67 1.79,0.62 2.99,0.82 4.84,1.36l169.43 52.75c3.42,1.03 3.08,4.34 4.49,8.39 0.65,1.88 0.96,2.59 1.56,4.63l14.35 43.34c0.53,1.59 1.03,3.25 1.55,4.65 5.25,14.2 9.57,28.96 14.36,43.33 3.14,9.41 5.83,18.96 9.34,28.32 3.54,9.43 6.02,19.27 9.48,28.67 0.59,1.63 1.07,3.36 1.51,4.69l11.2 33.61c4.02,12.19 6.66,25.26 21.12,29.42 13.46,3.86 23.19,0.09 32.29,-8.67 4.71,-4.54 9.76,-9.75 14.7,-13.91l14.21 -13.44c0.08,-0.07 0.18,-0.16 0.26,-0.22l1.8 -1.53c4.47,-4.11 8.55,-8.64 13.2,-12.55l25.83 -24.23c0.07,-0.07 0.17,-0.17 0.24,-0.24l13.81 -12.89c0.07,-0.07 0.18,-0.16 0.26,-0.22 0.44,-0.38 0.54,-0.45 1.02,-0.89 1.24,-1.14 2.14,-2.13 3.34,-3.33l2.74 -2.5c0.08,-0.06 0.19,-0.15 0.26,-0.22l3.56 -3.59c9.13,6.11 17.43,13.05 26.51,19.26l21.16 15.54c9.88,7.07 19.44,14.71 29.47,21.55l80.6 59.09c1.1,0.83 1.86,1.43 3.02,2.22 2.18,1.49 4.01,2.91 6.11,4.39 1.97,1.39 3.82,2.84 5.71,4.3 2.08,1.58 3.84,2.92 6.18,4.31 9.24,5.49 12.83,5.69 22.99,5.69l1.29 0 0.54 0c5.97,0 13.84,-3.29 17.44,-5.91 7.53,-5.48 10.96,-13.42 13.51,-22.26l2.04 -9.88c0.78,-3.08 1.32,-6.32 2.02,-9.9l18.66 -88.61c2.42,-12.12 5.33,-27.12 8.32,-39.36l4.01 -19.83c0.64,-3.28 1.57,-6.64 2.12,-9.8l3.08 -14.56c2.43,-8.89 4.87,-25.38 7.28,-34.67 0.86,-3.34 1.28,-6.85 1.99,-9.93l3.17 -14.47c0.13,-0.7 0.25,-1.71 0.4,-2.46l3.62 -17.36c0.44,-1.64 0.69,-2.91 1.06,-4.67 0.37,-1.8 0.64,-2.66 0.93,-4.78 0.97,-6.98 6.46,-29.97 8.29,-39.4l5.23 -24.8c3.19,-12.32 5.49,-26.8 8.21,-39.47l16.53 -78.82c0.12,-0.66 0.38,-1.32 0.6,-2.26 0.2,-0.87 0.25,-1.56 0.43,-2.44l15.56 -74.07c0.64,-3.12 1.51,-6.52 2.14,-9.77 0.71,-3.58 1.24,-6.82 2.03,-9.9l3.01 -14.63c1.79,-10.36 1.21,-16.3 -6.85,-24.27 -4.28,-4.23 -10.72,-7.74 -17.53,-7.74 -3.54,0 -8.75,2.59 -11.97,3.76 -15.58,5.7 -31.41,11.03 -46.81,17.08l-70.28 26.03c-15.57,6.1 -31.47,11.16 -46.94,17.43 -11.62,4.72 -23.36,8.63 -35.14,13.01l-64.23 23.98c-17.32,6.82 -35.13,12.84 -52.52,19.47l-157.65 58.81c-9.97,3.57 -19.16,7.54 -29.15,10.89l-29.11 10.94c-0.99,0.38 -1.72,0.72 -2.72,1.1 -16.46,6.28 -33.29,11.87 -49.65,18.53 -1.09,0.44 -1.73,0.58 -2.85,0.96l-11.73 4.48c-0.91,0.34 -1.94,0.6 -2.85,0.97 -17.28,7.04 -35.44,12.7 -52.73,19.74 -2.06,0.84 -3.87,1.5 -5.87,2.23l-17.69 6.63c-7.37,2.93 -28.96,9.92 -34.72,13.43 -2.46,1.49 -4.92,2.99 -6.77,5.15 -3.4,3.95 -6.19,8.7 -6.19,14.31z"/>
 </g>
</svg>
